<svg width="29" height="29" viewBox="0 0 29 29" fill="none" xmlns="http://www.w3.org/2000/svg">
<path d="M24.017 9.76042C21.6131 11.1291 20.5286 13.156 20.7635 15.8411C20.9984 18.5291 22.3671 20.3444 24.8666 21.2868C24.3012 22.467 23.6632 23.621 22.9557 24.7548C21.1173 27.582 19.4442 28.9971 17.9334 28.9971C17.368 28.9971 16.614 28.7854 15.6716 28.3592C14.7292 27.9358 13.81 27.7241 12.914 27.7241C12.018 27.7241 11.1104 27.9358 10.1912 28.3592C9.27197 28.7854 8.52964 28.9971 7.9613 28.9971C6.35776 28.9971 4.68463 27.6777 2.939 25.0361C1.29197 22.4902 0.335063 19.8137 0.0769886 17.0097C-0.183985 14.2057 0.230673 12.0222 1.31516 10.468C2.86941 8.0177 4.89631 6.78822 7.39586 6.78822C8.19618 6.78822 9.17628 6.9999 10.3304 7.42326C11.4844 7.84662 12.3457 8.06119 12.9111 8.06119C13.4765 8.06119 14.303 7.84952 15.3875 7.42326C16.4719 7.0028 17.4868 6.78822 18.4293 6.78822C20.5518 6.78822 22.4135 7.77992 24.017 9.76042ZM16.4488 4.73813C15.2222 6.34167 13.7375 7.09559 11.9919 6.9999C11.757 5.44566 12.2529 3.91461 13.4794 2.40386C14.706 0.945306 16.1675 0.142086 17.8638 0C18.0987 1.60354 17.6289 3.18388 16.4488 4.73813Z" fill="black"/>
</svg>
