<svg width="30" height="30" viewBox="0 0 30 30" fill="none" xmlns="http://www.w3.org/2000/svg">
<g clip-path="url(#clip0_2247_502857)">
<path d="M6.0651 15.2374C6.0651 14.3164 6.22223 13.4328 6.50023 12.6048L1.61952 8.95459C0.638906 10.9036 0.129673 13.0556 0.132827 15.2374C0.132827 17.4952 0.66707 19.6249 1.6171 21.5153L6.49539 17.859C6.21095 17.0142 6.06562 16.1288 6.0651 15.2374Z" fill="#FBBC05"/>
<path d="M14.6373 6.85749C16.68 6.85749 18.5256 7.56578 19.9761 8.72613L24.1956 4.60085C21.6247 2.40949 18.3286 1.05576 14.6373 1.05576C8.90564 1.05576 3.979 4.26484 1.61963 8.95457L6.50275 12.6048C7.62684 9.26158 10.8323 6.85749 14.6373 6.85749Z" fill="#EA4335"/>
<path d="M14.6373 23.6172C10.8311 23.6172 7.62563 21.2131 6.50033 17.8699L1.61963 21.5201C3.97779 26.2099 8.90443 29.4189 14.6373 29.4189C18.1739 29.4189 21.551 28.1897 24.0868 25.8847L19.4527 22.3771C18.1461 23.1833 16.4999 23.6172 14.6361 23.6172" fill="#34A853"/>
<path d="M28.4817 15.2374C28.4817 14.3997 28.3487 13.4968 28.1517 12.6592H14.6361V18.1382H22.4153C22.0273 20.0069 20.9685 21.4428 19.454 22.3771L24.0869 25.8847C26.7496 23.4649 28.4817 19.8606 28.4817 15.2374Z" fill="#4285F4"/>
</g>
<defs>
<clipPath id="clip0_2247_502857">
<rect width="29.0086" height="29.0086" fill="white" transform="translate(0 0.733032)"/>
</clipPath>
</defs>
</svg>
