<svg width="140" height="34" viewBox="0 0 140 34" fill="none" xmlns="http://www.w3.org/2000/svg">
<path d="M21.393 10.9872L39.6771 3.43595C40.1792 4.67689 40.4434 5.94424 40.4434 7.18518C40.4698 11.9641 37.0085 16.347 31.9354 17.0863L29.9009 17.3767H29.8745M12.9378 17.4031C12.4622 18.5121 12.2244 19.7266 12.2244 20.994C12.2509 24.796 14.576 28.07 17.9052 29.4429C22.6348 31.3967 28.1042 29.1261 29.9802 24.3207C31.8297 19.621 29.4782 14.314 24.8014 12.3866L3.13518 3.40955C0.65149 9.40303 4.45629 16.1358 10.8769 17.0863L18.5129 18.2216" stroke="#E71D7C" stroke-width="4.05055" stroke-miterlimit="10" stroke-linecap="round" stroke-linejoin="round"/>
<path d="M53.7793 26.2586C53.223 26.2586 52.8257 26.1792 52.5609 26.0467C52.296 25.8878 52.1901 25.6759 52.1901 25.4111V3.10915C52.1901 2.34103 52.5609 1.97021 53.329 1.97021H64.0826C64.5594 1.97021 64.7978 2.394 64.7978 3.2151V3.90375C64.7978 4.72484 64.5594 5.14863 64.0826 5.14863H55.9512V13.0947H63.6059C64.1091 13.0947 64.374 13.5185 64.374 14.3396V15.0282C64.374 15.8493 64.1091 16.2731 63.6059 16.2731H55.9512V25.3581C55.9512 25.623 55.8188 25.8613 55.5804 25.9938C55.342 26.1527 54.9182 26.2057 54.309 26.2057H53.7793V26.2586Z" fill="#212529"/>
<path d="M73.618 26.4175C72.638 26.4175 71.8169 26.2321 71.1547 25.8613C70.519 25.4905 70.0158 24.9608 69.698 24.2456C69.3801 23.5305 69.2212 22.6829 69.2212 21.6234V1.04316C69.2212 0.751808 69.3271 0.513427 69.5655 0.380992C69.8039 0.222071 70.2012 0.169098 70.7839 0.169098H71.2607C71.8434 0.169098 72.2407 0.248558 72.4791 0.380992C72.7175 0.539913 72.8234 0.751808 72.8234 1.04316V21.5969C72.8234 22.2856 72.9294 22.7624 73.1412 23.0272C73.3531 23.2921 73.7504 23.4245 74.3067 23.4245C74.7834 23.4245 75.1542 23.3716 75.3661 23.2391C75.6045 23.1332 75.7899 23.0537 75.9488 23.0537C76.0548 23.0537 76.1607 23.1332 76.2667 23.3186C76.3461 23.504 76.4256 23.6894 76.4786 23.9543C76.5316 24.1926 76.558 24.431 76.5845 24.6429C76.5845 24.8548 76.611 25.0137 76.611 25.1197C76.611 25.3846 76.4521 25.5965 76.1078 25.7819C75.7634 25.9673 75.3661 26.1262 74.9159 26.2586C74.4656 26.3646 74.0153 26.4175 73.618 26.4175Z" fill="#212529"/>
<path d="M81.8025 33.3571C81.3523 33.3571 80.9814 33.3041 80.7431 33.1982C80.5047 33.0922 80.3723 32.9598 80.3723 32.7744C80.3723 32.6949 80.3723 32.642 80.3987 32.5625C80.4252 32.483 80.4782 32.3771 80.5312 32.1917L83.7361 24.1927L83.5507 26.8943L77.1409 9.17464C77.1144 9.09518 77.0879 9.01572 77.0614 8.93626C77.0349 8.8568 77.0084 8.75085 77.0084 8.67139C77.0084 8.48598 77.1409 8.32706 77.4322 8.22111C77.6971 8.11517 78.1209 8.03571 78.6771 8.03571H79.1539C79.5512 8.03571 79.869 8.08868 80.1604 8.16814C80.4252 8.2476 80.6106 8.40652 80.6901 8.61842L84.8485 21.3851H84.981L89.2453 8.61842C89.3248 8.40652 89.5102 8.27409 89.8016 8.16814C90.0664 8.08868 90.4372 8.03571 90.8346 8.03571H91.1524C91.7086 8.03571 92.1059 8.08868 92.3178 8.22111C92.5562 8.32706 92.6621 8.48598 92.6621 8.67139C92.6621 8.75085 92.6621 8.8568 92.6357 8.93626C92.6357 9.01572 92.5827 9.12167 92.5562 9.22761L83.8685 32.642C83.7891 32.9068 83.5772 33.1187 83.2858 33.2247C82.9944 33.3306 82.6236 33.3836 82.1734 33.3836H81.8025V33.3571Z" fill="#212529"/>
<path d="M99.9194 26.497C99.1778 26.497 98.4891 26.4176 97.8005 26.2851C97.1383 26.1527 96.5291 25.9673 96.0259 25.7289C95.4961 25.4905 95.0988 25.2521 94.8075 25.0138C94.5161 24.7489 94.3572 24.5105 94.3572 24.2456C94.3572 24.0602 94.4366 23.8218 94.5956 23.504C94.7545 23.1862 94.9399 22.8948 95.1518 22.6299C95.3637 22.3651 95.5491 22.2326 95.7345 22.2326C95.8404 22.2326 96.0788 22.3386 96.3967 22.5505C96.7145 22.7624 97.1648 22.9743 97.721 23.1862C98.2772 23.3981 98.9129 23.504 99.6545 23.504C100.635 23.504 101.403 23.3186 101.906 22.9213C102.409 22.5505 102.674 21.9943 102.674 21.2526C102.674 20.7229 102.542 20.2726 102.25 19.9283C101.985 19.584 101.588 19.2926 101.085 19.0542C100.582 18.8158 100.025 18.6039 99.4162 18.392C98.8599 18.1802 98.3037 17.9418 97.7475 17.7034C97.1913 17.4385 96.688 17.1207 96.2377 16.7234C95.7875 16.3261 95.4431 15.8228 95.1783 15.2401C94.9134 14.6309 94.781 13.8893 94.781 12.9887C94.781 11.9557 95.0194 11.0287 95.5226 10.2606C96.0259 9.46599 96.7145 8.88328 97.5886 8.433C98.4891 8.00921 99.4956 7.79732 100.661 7.79732C101.244 7.79732 101.8 7.8238 102.356 7.90327C102.912 7.98273 103.416 8.08867 103.866 8.22111C104.316 8.38003 104.714 8.53895 104.978 8.75084C105.27 8.96274 105.402 9.17463 105.402 9.41301C105.402 9.62491 105.323 9.88978 105.19 10.2341C105.058 10.5784 104.899 10.8698 104.714 11.1347C104.528 11.3995 104.343 11.532 104.157 11.532C104.051 11.532 103.734 11.3995 103.204 11.1082C102.674 10.8433 101.959 10.6844 101.032 10.6844C100.237 10.6844 99.6016 10.8433 99.0718 11.1876C98.5421 11.532 98.3037 12.0352 98.3037 12.6974C98.3037 13.1212 98.3832 13.4655 98.5686 13.7569C98.754 14.0482 99.0454 14.2866 99.4691 14.525C99.8929 14.7369 100.423 14.9752 101.058 15.1871C101.721 15.4255 102.383 15.6904 102.992 15.9817C103.628 16.2731 104.157 16.6439 104.661 17.0677C105.137 17.4915 105.508 18.0212 105.773 18.6304C106.038 19.2661 106.17 19.9813 106.17 20.8553C106.17 21.9413 105.905 22.8948 105.376 23.7159C104.846 24.537 104.104 25.1992 103.151 25.6759C102.277 26.2586 101.164 26.497 99.9194 26.497Z" fill="#212529"/>
<path d="M117.639 26.4176C114.858 26.4176 112.739 25.6759 111.309 24.1927C109.878 22.7094 109.163 20.3786 109.163 17.2001C109.163 15.1342 109.481 13.386 110.143 12.0087C110.805 10.6314 111.732 9.57194 112.951 8.88328C114.169 8.16814 115.626 7.82381 117.348 7.82381C118.99 7.82381 120.341 8.19462 121.4 8.90977C122.46 9.62491 123.254 10.6579 123.757 12.0087C124.261 13.3596 124.526 14.9223 124.526 16.7499C124.526 16.9882 124.446 17.2266 124.314 17.4915C124.181 17.7564 123.996 17.9947 123.784 18.1537C123.572 18.3391 123.334 18.4185 123.122 18.4185H112.871C112.924 20.1667 113.348 21.438 114.169 22.2326C114.99 23.0272 116.182 23.4245 117.745 23.4245C118.751 23.4245 119.626 23.2921 120.367 23.0537C121.082 22.7889 121.691 22.5505 122.142 22.3386C122.592 22.1002 122.883 21.9943 123.016 21.9943C123.201 21.9943 123.36 22.1002 123.546 22.3386C123.704 22.577 123.837 22.8418 123.943 23.1597C124.049 23.4775 124.102 23.7159 124.102 23.9013C124.102 24.1662 123.916 24.431 123.546 24.6959C123.175 24.9608 122.698 25.2521 122.062 25.517C121.453 25.7819 120.764 25.9938 119.996 26.1527C119.228 26.3381 118.46 26.4176 117.639 26.4176ZM112.845 15.6904H121.003C121.003 14.0482 120.658 12.8298 119.996 12.0087C119.334 11.1876 118.354 10.7903 117.083 10.7903C116.235 10.7903 115.494 10.9757 114.858 11.3466C114.222 11.7174 113.745 12.2471 113.375 12.9623C113.057 13.6774 112.845 14.6044 112.845 15.6904Z" fill="#212529"/>
<path d="M132.869 26.497C132.128 26.497 131.439 26.4176 130.75 26.2851C130.088 26.1527 129.479 25.9673 128.976 25.7289C128.446 25.4905 128.049 25.2521 127.757 25.0138C127.466 24.7489 127.307 24.5105 127.307 24.2456C127.307 24.0602 127.386 23.8218 127.545 23.504C127.704 23.1862 127.89 22.8948 128.102 22.6299C128.314 22.3651 128.499 22.2326 128.684 22.2326C128.79 22.2326 129.029 22.3386 129.346 22.5505C129.664 22.7624 130.115 22.9743 130.671 23.1862C131.227 23.3981 131.863 23.504 132.604 23.504C133.584 23.504 134.353 23.3186 134.856 22.9213C135.359 22.5505 135.624 21.9943 135.624 21.2526C135.624 20.7229 135.491 20.2726 135.2 19.9283C134.935 19.584 134.538 19.2926 134.035 19.0542C133.531 18.8158 132.975 18.6039 132.366 18.392C131.81 18.1802 131.254 17.9418 130.697 17.7034C130.141 17.4385 129.638 17.1207 129.188 16.7234C128.737 16.3261 128.393 15.8228 128.128 15.2401C127.863 14.6309 127.731 13.8893 127.731 12.9887C127.731 11.9557 127.969 11.0287 128.472 10.2606C128.976 9.46599 129.664 8.88328 130.538 8.433C131.439 8.00921 132.445 7.79732 133.611 7.79732C134.194 7.79732 134.75 7.8238 135.306 7.90327C135.862 7.98273 136.365 8.08867 136.816 8.22111C137.266 8.38003 137.663 8.53895 137.928 8.75084C138.22 8.96274 138.352 9.17463 138.352 9.41301C138.352 9.62491 138.273 9.88978 138.14 10.2341C138.008 10.5784 137.849 10.8698 137.663 11.1347C137.478 11.3995 137.293 11.532 137.107 11.532C137.001 11.532 136.683 11.3995 136.154 11.1082C135.624 10.8433 134.909 10.6844 133.982 10.6844C133.187 10.6844 132.551 10.8433 132.022 11.1876C131.492 11.532 131.254 12.0352 131.254 12.6974C131.254 13.1212 131.333 13.4655 131.518 13.7569C131.704 14.0482 131.995 14.2866 132.419 14.525C132.843 14.7369 133.372 14.9752 134.008 15.1871C134.67 15.4255 135.333 15.6904 135.942 15.9817C136.577 16.2731 137.107 16.6439 137.61 17.0677C138.087 17.4915 138.458 18.0212 138.723 18.6304C138.988 19.2661 139.12 19.9813 139.12 20.8553C139.12 21.9413 138.855 22.8948 138.326 23.7159C137.796 24.537 137.054 25.1992 136.101 25.6759C135.2 26.2586 134.114 26.497 132.869 26.497Z" fill="#212529"/>
</svg>
