
<svg width="19" height="12" viewBox="0 0 19 12" fill="none" xmlns="http://www.w3.org/2000/svg">
<path fill-rule="evenodd" clip-rule="evenodd" d="M0.806017 7.59638C0.631191 7.42164 0.532358 7.18401 0.531259 6.93577C0.530715 6.81286 0.554182 6.69104 0.600319 6.57727C0.646457 6.46351 0.714362 6.36002 0.800157 6.27272C0.885952 6.18542 0.987958 6.11601 1.10035 6.06847C1.21274 6.02092 1.33332 5.99617 1.45519 5.99562C1.70134 5.99451 1.93783 6.09206 2.11266 6.26681C3.41344 7.57422 4.68053 8.87572 5.99889 10.1743L5.44811 10.8317L5.39684 10.8863C5.22296 11.0616 4.98717 11.1601 4.74132 11.1601C4.49547 11.1601 4.25968 11.0616 4.0858 10.8863L0.806017 7.59638ZM4.92662 7.05716C4.83411 6.97291 4.7594 6.87071 4.70694 6.75668C4.65449 6.64264 4.62537 6.51911 4.62133 6.39347C4.61728 6.26783 4.6384 6.14265 4.68342 6.02543C4.72844 5.9082 4.79643 5.80134 4.88333 5.71121C4.97022 5.62109 5.07425 5.54956 5.18918 5.50091C5.30411 5.45225 5.4276 5.42746 5.55224 5.42802C5.67689 5.42859 5.80014 5.45449 5.91464 5.50419C6.02913 5.55388 6.13252 5.62635 6.21861 5.71725L9.88072 9.31892L16.8856 0.961811C17.6722 0.0237239 19.0829 1.23364 18.3006 2.17025L10.6498 11.2926L10.6058 11.3413C10.4343 11.519 10.1998 11.6207 9.95394 11.624C9.70809 11.6273 9.47099 11.532 9.29479 11.3591L4.92662 7.05716ZM9.13951 6.43522L9.0941 6.48397L7.76549 5.17656L11.0306 1.27648C11.8172 0.338389 13.2279 1.54682 12.4471 2.48491L9.13658 6.43522H9.13951Z" fill="#F6F6F6"/>
</svg>
