<svg width="60" height="104" viewBox="0 0 60 104" fill="none" xmlns="http://www.w3.org/2000/svg">
<path fill-rule="evenodd" clip-rule="evenodd" d="M11.3809 82.4134C12.1513 83.0169 12.5129 83.8912 12.6678 84.8741C12.7532 85.4163 13.2481 85.4905 13.6205 85.5857C13.9427 85.6686 14.2401 85.6794 14.5007 85.9453C14.6084 86.0554 14.9447 86.0795 15.0859 85.9933C15.5378 85.7179 16.0216 85.5166 16.4387 85.1492C17.9075 83.8569 18.984 82.2585 19.9917 80.6278C21.0198 78.9639 22.0959 77.3179 22.8833 75.5132C23.1281 74.9515 23.138 74.9561 22.5217 74.5199C22.0205 75.473 21.5533 76.4406 21.0123 77.3651C20.5832 78.0986 20.0642 78.7788 19.5415 79.5463C19.4185 79.2373 19.4214 79.0393 19.6123 78.7638C20.652 77.262 21.639 75.7261 22.4219 73.9674C22.2968 73.8858 22.1456 73.7868 21.9952 73.6891C21.9604 73.7189 21.883 73.786 21.7504 73.9007V73.2744C21.3789 73.2003 21.0421 73.1336 20.6039 73.0466C20.2622 73.2061 20.0998 73.8108 19.5374 73.8858C19.5556 74.4976 19.0208 74.8024 18.752 75.2494C18.4186 75.8036 17.9667 76.2861 17.6469 76.6957C17.2858 76.6477 17.0157 76.5972 16.7432 76.5781C15.7863 76.511 15.8095 76.5412 15.2135 77.0669C14.5512 77.6509 14.0981 78.4681 13.244 78.8392C13.1889 78.8628 13.1276 78.9465 13.1247 79.0049C13.0982 79.6196 12.754 79.8428 12.177 79.992C11.6928 80.1175 11.5553 80.6278 11.5325 81.1298C11.5151 81.5146 11.4443 81.8969 11.3809 82.4134Z" fill="black"/>
<path fill-rule="evenodd" clip-rule="evenodd" d="M23.5822 53.8003C24.1414 53.2411 24.6107 52.6935 25.1578 52.2396C26.7272 50.9373 27.4724 49.0949 28.411 47.3801C28.8326 46.6101 28.7121 45.7452 28.6939 44.9123C28.6905 44.7677 28.4909 44.6273 28.3741 44.4757C28.2146 44.7913 28.0651 45.0871 27.8468 45.5187V43.9766C27.5184 43.8138 27.194 43.7251 26.9729 43.5238C26.6982 43.2741 26.388 43.3234 26.1362 43.3867C25.8429 43.4605 25.5927 43.7053 25.2978 43.8925C25.4705 44.7018 25.152 45.3795 24.7573 46.0857C24.404 45.99 23.9869 46.241 23.6331 45.8782C23.5582 45.8011 23.3121 45.7949 23.2061 45.8587C22.3396 46.3802 21.2763 46.6569 20.8381 47.7272C20.7594 47.9202 20.672 48.1696 20.5138 48.2553C20.2752 48.3846 20.4894 48.788 20.0797 48.8037C19.7426 48.8166 19.9579 49.1604 19.8975 49.3476C19.8225 49.5795 19.7202 49.8065 19.6796 50.0443C19.6423 50.2621 19.6717 50.4916 19.6717 50.7178C20.5391 51.4617 21.0966 52.4094 21.524 53.4652C22.2178 53.5779 22.922 53.6926 23.5822 53.8003Z" fill="black"/>
<path fill-rule="evenodd" clip-rule="evenodd" d="M51.7867 10.0766C52.2684 10.4038 52.7323 10.7319 53.2157 11.0272C53.2625 11.0558 53.4306 10.8855 53.6121 10.7588C53.7231 10.958 53.7985 11.1407 53.9161 11.2898C54.0544 11.4658 54.2321 11.6108 54.3891 11.7728C54.7072 12.1004 55.0137 12.4653 55.4838 11.9674C55.5199 11.9297 55.6292 11.967 55.7034 11.9592C56.2315 11.902 56.7347 12.0337 57.2661 11.6087C57.694 11.2666 58.2387 11.0301 58.6409 10.6101C59.0178 10.2158 59.408 9.84549 59.671 9.34513C60.0744 8.57679 60.4729 7.81714 60.3292 6.91543C60.2931 6.68928 60.1378 6.48176 59.9974 6.17898C59.7132 6.41176 59.5211 6.56916 59.2966 6.75348C59.1127 6.14336 59.1503 5.43425 58.585 4.89661C58.3634 5.06229 58.1492 5.22217 57.8821 5.42182V4.59797C57.1398 4.47123 56.4655 4.21608 55.7216 4.26081C55.295 4.28649 54.9263 4.42152 54.6563 4.6804C54.3092 5.01259 53.8842 5.25034 53.6009 5.67614C53.3449 6.06135 52.9949 6.38359 52.7261 6.7804C52.285 7.43277 52.1358 8.19531 51.8132 8.88951C51.6591 9.22046 51.7867 9.68271 51.7867 10.0766Z" fill="black"/>
<path fill-rule="evenodd" clip-rule="evenodd" d="M6.38639 32.0399C6.35657 31.8316 6.32675 31.6228 6.29361 31.3934C6.2116 31.453 6.1387 31.4766 6.11965 31.5226C5.83012 32.2309 5.46935 32.9097 5.29912 33.6673C5.19225 34.1436 5.05598 34.5996 5.51699 34.9708C5.83095 35.2234 5.51243 35.9491 6.21864 35.9085C6.55166 36.4432 7.08515 36.3898 7.59545 36.3533C7.7106 36.7112 7.78225 37.0599 7.93261 37.371C8.10202 37.7214 8.64338 37.8204 9.22367 37.6547C9.35622 37.617 9.48421 37.4882 9.60557 37.499C10.5458 37.581 10.5441 37.588 10.9397 36.8466C11.1373 36.4768 11.3759 36.1235 11.5291 35.7362C11.7155 35.264 12.0055 34.9691 12.4822 34.7653C13.1901 34.4625 13.6498 33.8487 13.772 33.1185C13.8826 32.4574 13.5732 31.8511 12.983 31.3747C12.6905 31.7566 12.3989 32.1373 11.9901 32.6707C11.9901 32.1248 11.9959 31.7575 11.9885 31.3905C11.981 31.0256 11.9413 31.1001 11.3639 30.84C10.9513 30.6541 10.3536 30.8794 10.1163 30.307C9.7087 30.2912 9.30154 30.2763 8.89397 30.2606C8.14137 30.2307 7.47367 30.3128 7.12285 31.1494C6.98367 31.4808 6.65024 31.7309 6.38639 32.0399Z" fill="black"/>
<path fill-rule="evenodd" clip-rule="evenodd" d="M34.6004 89.4748C35.1848 89.4583 35.7378 89.3004 36.0203 89.9483C36.4974 89.3195 36.5537 88.8734 36.0679 88.3739C35.7324 88.0293 35.5112 87.5989 35.0837 87.3011C34.7097 87.0402 34.5722 86.4632 34.25 86.0958C34.0023 85.8133 33.6303 85.6393 33.3134 85.4177C33.2145 85.5142 33.1076 85.6194 32.939 85.7847C33.1179 85.9119 33.2936 86.037 33.4696 86.1616C33.4501 86.2068 33.4303 86.2519 33.4108 86.2971C33.1532 86.2565 32.8959 86.2159 32.6064 86.1703C32.5294 86.2859 32.4399 86.5825 32.2481 86.6823C31.0962 87.282 30.361 88.2832 29.661 89.3108C29.4311 89.648 29.352 90.0841 29.1673 90.4573C28.7113 91.3797 28.5936 91.55 28.7324 92.3883C28.8326 92.9943 28.9432 93.6404 29.4191 94.1342C29.6072 94.3288 29.8076 94.6101 29.8176 94.8594C29.8424 95.489 30.1883 95.5897 30.6969 95.5574C30.839 95.5483 30.9894 95.5665 31.1277 95.6038C32.0149 95.8423 32.1065 95.8175 32.5488 95.1374C33.2041 94.1304 33.5172 92.979 33.8983 91.8598C34.1675 91.0691 34.373 90.256 34.6004 89.4748Z" fill="black"/>
<path fill-rule="evenodd" clip-rule="evenodd" d="M48.9648 77.082C49.5923 76.7258 50.2277 76.4139 50.7392 75.8982C51.6923 74.9356 52.7154 74.0339 53.5947 73.0083C54.5192 71.9302 55.498 70.8673 56.0559 69.6032C55.9971 69.1041 55.3468 69.6342 55.3344 69.0452C55.3306 68.8771 54.9185 68.7147 54.6899 68.5552C54.1224 68.1593 53.8056 68.093 53.3922 68.5329C52.9842 68.9674 52.5124 69.1231 51.9785 69.2362C51.1538 69.411 50.5847 70.0443 49.8789 70.4341C49.1238 70.8507 48.5858 71.5218 47.9724 72.1045C47.6547 72.4061 47.2599 72.6376 46.987 72.9715C46.7124 73.3074 46.4601 73.7112 46.3628 74.1242C46.304 74.3756 46.4928 74.755 46.685 74.9791C46.9224 75.2554 47.0346 75.6542 47.4501 75.788C47.6903 75.8651 47.6563 76.1335 47.7031 76.3547C47.757 76.6086 47.8278 76.9176 48.2685 76.5986C48.5767 76.3762 48.836 76.6918 48.9648 77.082Z" fill="black"/>
<path fill-rule="evenodd" clip-rule="evenodd" d="M3.488 70.5486C4.77534 70.0185 5.32871 69.0327 5.87877 68.0746C6.36214 67.2325 6.80285 66.3557 7.16238 65.454C7.52066 64.5535 8.14569 63.7002 7.86693 62.567C7.05262 63.1344 7.12013 64.2192 6.33812 64.9445C6.48143 63.7972 7.07664 62.9108 7.37362 61.7021C6.96273 61.9275 6.81362 62.0091 6.63137 62.1089C6.59617 61.9121 6.5593 61.7059 6.52285 61.5004C6.18238 61.4358 5.84646 61.372 5.44966 61.2966C5.34445 61.4648 5.20652 61.7133 5.0425 61.9436C4.40297 62.8395 4.39924 62.8354 3.23782 63.2483C3.10818 63.2947 2.98682 63.3701 2.86918 63.4447C1.96954 64.013 1.15066 64.6533 0.655692 65.6412C0.472615 66.0065 0.223266 66.6775 0.234449 67.0665C0.236935 67.1576 0.160722 67.2644 0.0944495 67.3415C-0.0745449 67.5374 0.00166845 67.7043 0.176461 67.8033C0.683858 68.0895 0.903799 68.6528 1.35445 68.99C1.54664 69.1337 1.58102 69.3251 1.61581 69.5624C1.66386 69.8855 2.29759 70.3043 2.5925 70.2363C2.77516 70.1941 2.89321 69.8586 3.14214 70.1059C3.27262 70.2359 3.37202 70.3975 3.488 70.5486Z" fill="black"/>
<path fill-rule="evenodd" clip-rule="evenodd" d="M40.0688 44.2238C40.266 44.2565 40.4726 44.2905 40.758 44.3377C40.6454 44.5489 40.565 44.6989 40.4809 44.8563C41.0173 45.3926 41.5757 45.951 42.1514 46.5271C42.2442 46.5271 42.3577 46.5102 42.4645 46.5296C43.7316 46.7641 44.5753 46.045 45.279 45.1781C45.8287 44.5009 46.3013 43.7549 46.6691 42.941C46.8986 42.4328 47.1036 41.9647 46.9396 41.2742C46.5552 42.1192 46.2126 42.8714 45.8701 43.624C45.8092 43.6041 45.7483 43.5847 45.687 43.5648C45.7148 43.4215 45.7189 43.2678 45.7744 43.1361C46.0035 42.5918 46.264 42.06 46.4798 41.5112C46.5755 41.268 46.7805 40.9653 46.2582 40.8522C46.0971 40.8174 46.0026 40.4699 45.8796 40.264C45.7719 40.0834 45.6676 39.9008 45.5822 39.755C45.0541 39.7065 45.0492 40.1683 44.7199 40.3589C44.7965 40.0681 44.8731 39.7773 44.9742 39.3946C44.8052 39.2608 44.5795 39.0819 44.3537 38.9025C44.2112 39.0442 44.0224 39.2699 43.8471 38.8537C43.657 38.4038 43.3762 38.2286 42.921 38.5239C42.8796 38.5509 42.7938 38.5716 42.7665 38.5492C42.2392 38.1147 41.9286 38.5476 41.6846 38.8797C41.1022 39.6738 40.828 40.6273 40.4793 41.5344C40.3973 41.7473 40.2187 42.2472 40.8193 42.2712C40.8533 42.2725 40.8794 42.4593 40.9088 42.5595C40.7837 42.5897 40.5915 42.6867 40.5439 42.6386C40.2071 42.301 40.0257 42.7418 40.0589 42.8192C40.2614 43.2951 39.7921 43.7549 40.0688 44.2238Z" fill="black"/>
<path fill-rule="evenodd" clip-rule="evenodd" d="M44.1592 20.1193C44.0266 20.2519 43.8937 20.3848 43.692 20.5861C43.6551 20.2668 43.6244 20.0034 43.5909 19.7159C43.1262 19.6186 42.6469 19.496 42.1602 19.4239C41.8662 19.3804 41.5555 19.3816 41.2623 19.4268C41.0386 19.4616 41.2142 19.8783 40.7971 19.9147C40.5275 19.9383 40.3204 20.3964 40.1286 20.7154C39.9728 20.9743 40.206 21.5347 39.6146 21.5011C39.5943 21.8677 39.574 22.2347 39.5528 22.6012C39.5512 22.6369 39.5429 22.6721 39.5375 22.7077L37.8592 24.386C37.6794 24.386 37.4889 24.3628 37.307 24.3914C37.0266 24.4366 36.7247 24.7145 36.8684 24.8868C37.1882 25.2699 36.6149 25.5346 36.8423 25.8473C37.7159 26.1091 37.9913 26.1381 38.7021 26.0138C38.524 26.3986 38.3691 26.7341 38.1744 27.1558C38.2879 27.2647 38.4374 27.5302 38.5849 27.5294C39.5156 27.5224 40.4952 27.7585 41.3248 27.0978C41.5497 26.9185 41.8214 26.778 41.9962 26.5589C42.3951 26.0594 42.7521 25.5263 43.1162 24.9995C43.2956 24.7398 43.4488 24.4614 43.6211 24.1963C43.8879 23.7859 43.8088 23.1944 44.2979 22.9007C44.2238 22.4028 44.5046 22.0263 44.684 21.5968C44.9279 21.0132 44.7767 20.4548 44.1592 20.1193Z" fill="black"/>
<path fill-rule="evenodd" clip-rule="evenodd" d="M59.6611 45.03C59.6611 44.9178 59.688 44.7616 59.6516 44.6216C59.6271 44.528 59.4668 44.4642 59.4527 44.3744C59.4374 44.2762 59.5526 44.1635 59.5538 44.0567C59.5546 43.9618 59.4213 43.8454 59.4474 43.7754C59.495 43.6466 59.6018 43.5273 59.7116 43.4379C59.7845 43.3782 59.9059 43.3774 60.0558 43.3368C59.9854 43.5816 59.9287 43.7788 59.8715 43.9763C60.2704 43.7332 60.7136 43.5393 60.5185 42.9533C60.3536 43.0237 60.1917 43.0937 59.9908 43.1798C59.9262 42.4745 60.5802 42.8414 60.832 42.5076C60.4634 42.5511 60.2178 42.2972 59.8471 42.3465C59.6752 42.3693 59.4515 42.0039 59.1881 41.7546C58.8223 42.0532 58.4123 42.3875 57.9326 42.7789C57.8858 42.4927 57.8523 42.2889 57.8117 42.0408C57.2695 41.936 56.7136 41.8287 56.1515 41.7202C55.8628 42.0888 55.6371 42.4252 55.3621 42.7147C55.1235 42.9649 54.7954 43.1318 54.5656 43.3882C53.9169 44.1122 53.6228 45.0263 53.3561 45.9305C53.2604 46.254 53.1552 46.7659 53.7736 46.8525C53.7707 47.4464 54.397 47.5351 54.6795 47.9116C55.0336 48.3829 55.6599 48.4641 56.3359 48.1911C57.3482 47.7823 58.0134 46.9921 58.66 46.2225C58.9834 45.8369 59.3467 45.4732 59.6611 45.03Z" fill="black"/>
<path fill-rule="evenodd" clip-rule="evenodd" d="M41.0452 59.6789C40.8629 59.741 40.6869 59.8007 40.4852 59.8694C40.4442 58.9193 41.4263 58.6529 41.5629 57.7781C41.3641 57.8659 41.2022 57.9032 41.085 57.9964C40.8969 58.1464 40.7387 58.3327 40.5042 58.5672C40.5842 58.0908 40.6372 57.9815 40.9089 57.6555C40.315 56.9373 40.315 56.9373 39.6137 56.9348C39.2281 57.3693 38.8988 57.9417 38.4047 58.2433C37.8592 58.5767 37.6984 59.1458 37.2963 59.5538C36.9119 59.9444 36.6567 60.4762 36.402 60.9753C36.262 61.2487 36.1431 61.5979 36.1887 61.8853C36.2467 62.2486 36.4016 62.7825 36.6584 62.8856C37.0809 63.0559 36.9864 63.3545 37.1194 63.6113C37.3016 63.9622 37.551 64.3035 38.0083 64.3788C38.2754 64.4227 38.5935 64.6265 38.7895 64.5383C39.2662 64.3233 39.7587 64.0495 40.1112 63.6739C40.7764 62.9648 41.3712 62.1848 41.9403 61.3945C42.0832 61.1965 42.0173 60.8486 42.0596 60.4572C41.8699 60.6104 41.7945 60.6709 41.6346 60.7997C41.7174 60.2236 41.2138 60.026 41.0452 59.6789Z" fill="black"/>
<path fill-rule="evenodd" clip-rule="evenodd" d="M46.984 101.108C47.2926 100.938 47.4413 100.857 47.5855 100.777C47.8394 101.695 47.9023 101.742 48.6524 101.412C48.4545 101.873 48.2958 102.242 48.1231 102.642C48.319 102.756 48.5195 102.873 48.722 102.99C49.0882 102.625 49.4597 102.253 49.8656 101.847C50.11 102.397 49.4374 102.652 49.5036 103.183C50.1071 103.267 50.4571 102.857 50.8046 102.479C50.9943 102.273 51.0971 101.985 51.2926 101.786C52.164 100.901 52.9469 99.9448 53.6767 98.9424C53.7422 98.8526 53.8329 98.7805 53.914 98.7026C54.3539 98.283 54.8149 97.8775 54.8477 97.1937C54.4086 96.9249 54.1754 97.3391 53.8768 97.5955C53.5732 97.093 54.2756 97.0259 54.2442 96.6556C54.2172 96.2091 53.3677 96.7787 53.5835 96.0488H52.3604C52.0104 96.2953 51.6554 96.5392 51.3075 96.7923C50.9583 97.0462 50.7276 97.4111 50.3001 97.6178C49.8851 97.8191 49.6101 98.2938 49.2448 98.6156C49.0066 98.8256 48.8554 99.1143 48.4748 99.2088C48.1993 99.2767 48.0523 99.6946 47.6339 99.6408C47.5175 99.6255 47.3075 99.8359 47.2483 99.9854C47.1352 100.27 47.1004 100.586 46.984 101.108Z" fill="black"/>
<path fill-rule="evenodd" clip-rule="evenodd" d="M54.7455 25.5581C54.357 25.5838 54.0886 25.3829 53.7332 25.6393C53.9138 25.7014 54.0447 25.7466 54.1876 25.7959C54.0542 26.2486 53.9059 26.6984 53.797 27.1574C53.7692 27.275 53.8309 27.5074 53.9125 27.5417C54.3657 27.7331 54.5028 28.2206 54.8557 28.4878C55.0118 28.6062 55.2458 28.6448 55.45 28.6679C55.5524 28.6791 55.6729 28.5246 55.7752 28.5354C55.8999 28.5487 56.0142 28.6576 56.1455 28.7321C56.3393 28.0471 56.3294 28.0193 57.0928 27.7592C57.5496 27.6035 57.6445 27.1545 57.9684 26.872C58.0409 27.0265 58.1109 27.1756 58.1892 27.3429C58.3031 27.2236 58.4948 27.1151 58.4944 27.0074C58.4886 25.6617 58.4899 25.6314 59.1041 24.825C59.4504 25.4335 58.7868 25.7855 58.7508 26.3807C58.9153 26.355 59.1609 26.3741 59.1895 26.3041C59.4781 25.6024 59.918 24.9397 59.467 24.0981C59.327 23.8367 59.3017 23.6996 58.9873 23.6942C58.7935 23.6913 58.5851 23.5774 58.4124 23.4681C57.9647 23.1852 57.5335 22.877 57.0551 22.551C56.9457 22.7142 56.8447 22.8654 56.8691 22.8285C56.4918 23.0916 56.0983 22.3833 56.0353 23.1218C56.0171 23.3314 55.5486 22.8314 55.5486 23.3803C55.5486 23.5923 55.1589 23.8048 54.9629 24.0007C55.0329 24.1821 55.0992 24.3553 55.1659 24.5284C55.1104 24.5669 55.0549 24.6055 54.999 24.644C54.9008 24.4572 54.8026 24.2704 54.6788 24.0355C54.4771 24.3785 54.3599 24.5769 54.2062 24.8374C54.3731 25.0603 54.5591 25.3092 54.7455 25.5581Z" fill="black"/>
<path fill-rule="evenodd" clip-rule="evenodd" d="M63.6199 57.1049C63.339 57.1874 63.0458 57.2731 62.6854 57.3787C62.5326 57.0147 62.4874 56.6651 62.8097 56.3399C62.4137 55.98 62.1503 56.5226 61.7622 56.4638C61.7261 56.2679 61.6876 56.0616 61.6503 55.8595C61.3463 55.5339 61.0721 56.1345 60.7047 55.8512C60.329 55.5613 60.2342 56.1871 59.9148 56.2588C59.7355 56.2989 59.5677 56.4857 59.4397 56.6431C59.0156 57.1633 58.9493 57.8994 58.3781 58.3537C58.2414 58.4622 58.3143 58.8354 58.2837 59.1672C58.917 58.8561 58.9555 59.861 59.5656 59.6228C59.7533 59.9264 59.576 60.4769 60.2623 60.5427C60.3348 60.4193 60.4483 60.2259 60.6098 59.95C60.7474 60.2371 60.8141 60.3762 60.8824 60.5195C61.2668 60.6107 61.4428 60.2793 61.5691 60.0685C61.9887 59.3664 62.5322 58.8292 63.2351 58.4092C63.6675 58.1508 63.9048 57.7295 63.6199 57.1049Z" fill="black"/>
</svg>
