<svg width="120" height="104" viewBox="0 0 120 104" fill="none" xmlns="http://www.w3.org/2000/svg">
<path fill-rule="evenodd" clip-rule="evenodd" d="M107.951 82.4133C107.181 83.0168 106.819 83.8912 106.664 84.8741C106.579 85.4162 106.084 85.4904 105.712 85.5857C105.39 85.6685 105.092 85.6793 104.832 85.9452C104.724 86.0554 104.388 86.0794 104.246 85.9932C103.794 85.7178 103.311 85.5165 102.894 85.1491C101.425 83.8568 100.348 82.2584 99.3405 80.6277C98.3125 78.9638 97.2364 77.3178 96.449 75.5131C96.2042 74.9515 96.1943 74.956 96.8106 74.5199C97.3118 75.4729 97.779 76.4405 98.3199 77.365C98.7491 78.0986 99.2681 78.7787 99.7908 79.5462C99.9138 79.2372 99.9109 79.0392 99.7199 78.7638C98.6803 77.2619 97.6933 75.726 96.9104 73.9673C97.0355 73.8857 97.1867 73.7867 97.3371 73.689C97.3718 73.7188 97.4493 73.7859 97.5818 73.9006V73.2743C97.9534 73.2002 98.2901 73.1335 98.7284 73.0465C99.0701 73.206 99.2324 73.8107 99.7949 73.8857C99.7767 74.4975 100.311 74.8023 100.58 75.2493C100.914 75.8035 101.366 76.286 101.685 76.6957C102.047 76.6476 102.317 76.5971 102.589 76.578C103.546 76.5109 103.523 76.5412 104.119 77.0668C104.781 77.6508 105.234 78.468 106.088 78.8391C106.143 78.8628 106.205 78.9464 106.208 79.0048C106.234 79.6195 106.578 79.8428 107.155 79.9919C107.639 80.1174 107.777 80.6277 107.8 81.1297C107.817 81.5145 107.888 81.8968 107.951 82.4133Z" fill="black"/>
<path fill-rule="evenodd" clip-rule="evenodd" d="M22.5369 11.0211C23.222 11.364 23.222 11.364 23.5906 10.6462C24.0591 10.4855 24.6253 10.809 25.049 10.3787C25.5257 10.4975 25.9963 10.6591 26.4801 10.7258C27.2612 10.833 27.6647 11.4374 28.1058 11.946C28.4053 12.2914 28.7188 12.6381 28.9926 13.0134C29.3128 13.4524 29.6955 13.8451 30.0169 14.2829C30.3081 14.6797 30.557 15.1084 30.8155 15.5284C30.8872 15.6452 30.9791 15.7873 30.9688 15.9099C30.941 16.2363 31.0541 16.4562 31.286 16.6903C31.7321 17.1401 31.6973 17.8003 31.8522 18.362C31.996 18.8855 31.9135 19.4824 31.8672 20.042C31.8498 20.2557 31.8216 20.7117 31.3511 20.3754C31.3179 20.3514 31.1535 20.5266 31.0404 20.5929C30.9211 20.6624 30.7173 20.7954 30.6751 20.7585C30.1789 20.3228 30.0579 20.6343 29.8309 21.0651C29.4971 21.6992 29.2933 21.6524 28.397 21.4925C27.8515 21.3948 27.2733 21.3778 26.9539 20.9043C26.0903 19.6245 25.2056 18.3533 25.0859 16.7172C25.0382 16.0615 24.8551 15.3772 24.3142 14.9059C23.8482 14.4995 23.5388 13.9188 22.9026 13.6923C22.7108 13.6239 22.5704 13.3953 22.4213 13.2267C22.1044 12.8672 21.9342 12.4675 21.9259 11.9617C21.9172 11.4365 22.3322 11.3189 22.5369 11.0211Z" fill="black"/>
<path fill-rule="evenodd" clip-rule="evenodd" d="M95.7508 53.8002C95.1916 53.2411 94.7223 52.6935 94.1752 52.2395C92.6058 50.9373 91.8606 49.0949 90.922 47.3801C90.5004 46.6101 90.6209 45.7453 90.6392 44.9123C90.6425 44.7678 90.8421 44.6273 90.9589 44.4757C91.1184 44.7914 91.2679 45.0871 91.4862 45.5187V43.9766C91.8147 43.8138 92.139 43.7252 92.3602 43.5239C92.6348 43.2741 92.945 43.3234 93.1968 43.3868C93.4901 43.4605 93.7403 43.7053 94.0352 43.8925C93.8625 44.7019 94.181 45.3795 94.5757 46.0857C94.929 45.9901 95.3461 46.2411 95.6999 45.8782C95.7748 45.8012 96.0209 45.795 96.1269 45.8588C96.9934 46.3802 98.0567 46.6569 98.4949 47.7272C98.5736 47.9202 98.661 48.1696 98.8192 48.2553C99.0578 48.3846 98.8436 48.788 99.2533 48.8037C99.5905 48.8166 99.3751 49.1604 99.4355 49.3476C99.5105 49.5795 99.6128 49.8065 99.6534 50.0443C99.6907 50.2621 99.6613 50.4916 99.6613 50.7178C98.7939 51.4617 98.2364 52.4093 97.809 53.4651C97.1152 53.5778 96.411 53.6925 95.7508 53.8002Z" fill="black"/>
<path fill-rule="evenodd" clip-rule="evenodd" d="M1.67127 1.1362C1.87713 0.855789 2.03743 0.62218 2.21512 0.401825C2.28015 0.321884 2.38038 0.265553 2.47358 0.213363C2.73908 0.0646652 2.92879 0.485079 3.22577 0.302002C3.45855 0.158689 3.73109 0.0298723 3.9966 0.0041918C4.21695 -0.0169325 4.54376 0.248571 4.66222 0.163245C4.92606 -0.0268733 5.08388 -0.084033 5.31334 0.173186C5.35601 0.220405 5.51216 0.184784 5.6095 0.161174C6.32938 -0.0123762 6.32896 -0.0144473 6.71417 0.685139C6.76678 0.533541 6.81234 0.402653 6.89518 0.163659C7.00908 0.471825 7.12092 0.690937 7.16814 0.92289C7.22612 1.2062 7.24021 1.49987 7.25346 1.78981C7.26713 2.08141 7.25636 2.37425 7.41997 2.67455L7.52932 1.58851C7.56784 1.58685 7.60677 1.5852 7.64571 1.58396C7.66683 1.77614 7.70411 1.96833 7.70535 2.16094C7.71157 3.13762 7.66559 4.1168 7.72109 5.09017C7.77038 5.94881 7.62334 6.72626 7.13831 7.4362C6.95648 7.26224 6.78417 6.99839 6.57707 7.41922C6.3505 7.87898 5.98766 7.84419 5.51879 7.63336C5.44092 8.1333 5.40571 8.72271 4.57772 8.53425V7.28212C4.52263 7.27135 4.46713 7.26017 4.41204 7.24898C4.28074 7.67603 4.14985 8.10307 4.01482 8.54253C3.64494 8.29484 3.34175 8.03141 3.4018 7.51035C3.41837 7.36413 3.24772 7.20425 3.19263 7.04106C2.95447 6.33111 2.95819 6.32946 2.36879 6.31248C2.25612 6.30916 2.14346 6.31206 2.0308 6.31206H1.72139C1.43559 6.02626 1.17796 5.75165 0.902514 5.4965C0.315591 4.95431 0.128787 4.2365 0.034763 3.49052C-0.0116276 3.12064 0.0683133 2.73419 0.0157097 2.36597C-0.0422784 1.96005 0.166893 1.66017 0.351627 1.37437C0.719852 0.804843 0.920739 0.788275 1.67127 1.1362Z" fill="black"/>
<path fill-rule="evenodd" clip-rule="evenodd" d="M67.5471 10.0765C67.0653 10.4038 66.6014 10.7318 66.1181 11.0271C66.0713 11.0557 65.9031 10.8855 65.7217 10.7587C65.6107 10.958 65.5353 11.1406 65.4177 11.2897C65.2793 11.4658 65.1016 11.6107 64.9446 11.7727C64.6265 12.1003 64.32 12.4652 63.8499 11.9674C63.8139 11.9297 63.7045 11.967 63.6304 11.9591C63.1023 11.9019 62.599 12.0336 62.0676 11.6087C61.6397 11.2665 61.0951 11.03 60.6929 10.61C60.3159 10.2157 59.9258 9.84541 59.6627 9.34506C59.2593 8.57671 58.8609 7.81707 59.0046 6.91535C59.0406 6.6892 59.1959 6.48168 59.3364 6.1789C59.6205 6.41168 59.8127 6.56908 60.0372 6.7534C60.2211 6.14328 60.1834 5.43417 60.7488 4.89654C60.9704 5.06222 61.1845 5.2221 61.4517 5.42174V4.5979C62.1939 4.47115 62.8682 4.216 63.6122 4.26074C64.0388 4.28642 64.4074 4.42145 64.6775 4.68032C65.0246 5.01251 65.4495 5.25026 65.7329 5.67606C65.9888 6.06127 66.3388 6.38352 66.6077 6.78032C67.0488 7.43269 67.1979 8.19523 67.5206 8.88944C67.6746 9.22038 67.5471 9.68263 67.5471 10.0765Z" fill="black"/>
<path fill-rule="evenodd" clip-rule="evenodd" d="M19.7066 31.6716V34.0955C19.9315 33.4829 19.8926 32.8641 19.9116 32.2486C19.9191 32.0009 19.8019 31.6927 20.1022 31.5449C20.4124 31.3916 20.74 31.24 21.0747 31.1907C21.1899 31.1737 21.409 31.4463 21.4744 31.6248C21.5448 31.8166 21.4906 32.0539 21.4906 32.2958C21.6778 32.2175 21.7892 32.1268 21.889 32.138C22.0953 32.1612 22.3786 32.3521 22.4842 32.2751C23.0712 31.8431 23.7144 32.1268 24.3212 32.0929C24.5958 32.0775 25.0113 32.261 25.143 32.4839C25.4661 33.0327 26.118 33.2004 26.4597 33.8462C26.4709 34.122 26.5074 34.4629 26.794 34.8299C27.1697 35.3108 27.4903 35.9081 27.3739 36.6118C27.3196 36.939 27.3644 37.2824 27.3644 37.6813C26.5944 38.1381 25.7933 38.5821 25.0254 39.0775C24.2218 39.5961 23.4907 39.2478 22.8069 38.8895C22.3078 38.6277 21.638 38.5051 21.4694 37.808C20.3536 37.306 20.1552 36.1301 19.5596 35.2416C19.159 34.6443 19.1715 33.9493 19.058 33.3172C18.9644 32.7949 19.333 32.1898 19.497 31.6215C19.567 31.6381 19.637 31.655 19.7066 31.6716Z" fill="black"/>
<path fill-rule="evenodd" clip-rule="evenodd" d="M41.5636 43.8945C41.0881 43.419 40.584 42.9149 40.0165 42.3475C40.0165 41.9718 39.9776 41.524 40.0364 41.0895C40.0588 40.928 40.292 40.7648 40.4655 40.67C40.5314 40.6335 40.7008 40.7868 40.8242 40.8543C40.9883 40.5295 41.0844 40.0901 41.639 40.1969C41.7421 40.2172 41.8883 40.2234 41.9587 40.1667C42.235 39.943 42.5357 39.7148 42.889 39.813C43.5223 39.9894 44.2281 40.0926 44.7219 40.5295C45.6977 41.394 46.6255 42.3334 47.1114 43.5818C47.4009 44.3261 47.6623 45.0949 47.8023 45.8769C47.8632 46.219 47.7708 46.6887 47.381 46.9613C46.7394 47.4107 46.1219 47.8961 45.4662 48.3236C45.2429 48.4689 44.9281 48.5696 44.6676 48.5468C43.0261 48.4047 41.8564 47.6323 41.3714 45.7783C41.3006 45.5082 41.1312 45.227 41.1676 44.9743C41.2206 44.6086 41.4203 44.2636 41.5636 43.8945Z" fill="black"/>
<path fill-rule="evenodd" clip-rule="evenodd" d="M44.3807 84.7054C44.3359 84.4788 44.2912 84.2526 44.2465 84.0261C44.2436 84.9249 43.2946 85.2612 43.0879 86.0254C43.0142 86.2988 42.61 86.4206 42.4426 86.2686C42.1697 86.0217 41.9837 86.2019 41.8296 86.3021C41.42 86.5689 41.072 86.5432 40.6537 86.2988C39.4479 85.5938 38.2041 84.946 37.4933 83.6537C36.6368 83.1902 36.3862 82.2487 35.8539 81.533C35.595 81.1851 35.5126 80.7058 35.332 80.2386C35.6468 79.7801 36.1041 79.9015 36.6571 80.1773C36.6036 79.9168 36.6181 79.677 36.5088 79.5291C36.3576 79.3257 36.5191 79.2458 36.6049 79.2097C36.9942 79.047 37.3968 78.9277 37.7174 78.6203C37.7957 78.5449 38.0173 78.5748 38.1548 78.6162C38.4004 78.6907 38.6108 78.8477 38.8838 78.6257C38.9613 78.5632 39.2131 78.6883 39.3713 78.7578C40.7311 79.3551 41.9617 80.104 42.7669 81.4294C42.8755 81.6084 43.1198 81.7981 43.3025 81.9683C43.8265 82.455 43.9246 83.1641 44.3301 83.6889C44.5994 84.0381 44.5406 84.3446 44.3807 84.7054Z" fill="black"/>
<path fill-rule="evenodd" clip-rule="evenodd" d="M112.947 32.0399C112.977 31.8316 113.006 31.6228 113.04 31.3933C113.122 31.453 113.195 31.4766 113.214 31.5226C113.503 32.2309 113.864 32.9097 114.034 33.6673C114.141 34.1436 114.277 34.5997 113.816 34.9708C113.502 35.2235 113.821 35.9491 113.115 35.9086C112.782 36.4433 112.248 36.3899 111.738 36.3534C111.623 36.7113 111.551 37.06 111.401 37.3711C111.231 37.7215 110.69 37.8205 110.11 37.6548C109.977 37.6171 109.849 37.4883 109.728 37.4991C108.787 37.5811 108.789 37.5881 108.394 36.8467C108.196 36.4768 107.957 36.1235 107.804 35.7362C107.618 35.2641 107.328 34.9691 106.851 34.7654C106.143 34.4626 105.683 33.8487 105.561 33.1185C105.451 32.4574 105.76 31.851 106.35 31.3747C106.643 31.7566 106.934 32.1373 107.343 32.6707C107.343 32.1248 107.337 31.7574 107.345 31.3904C107.352 31.0255 107.392 31.1001 107.969 30.84C108.382 30.654 108.98 30.8793 109.217 30.3069C109.625 30.2912 110.032 30.2762 110.439 30.2605C111.192 30.2307 111.86 30.3127 112.21 31.1494C112.35 31.4807 112.683 31.7309 112.947 32.0399Z" fill="black"/>
<path fill-rule="evenodd" clip-rule="evenodd" d="M1.5815 37.5282C0.690137 37.3351 0.377001 36.7031 0.295817 36.1476C0.191853 35.4373 -0.0487983 34.741 0.00877567 33.99C0.0833319 33.0179 0.0779473 32.0317 0.00504786 31.0596C-0.0301592 30.5878 0.272622 30.2386 0.26558 29.7975C0.263924 29.6828 0.423391 29.4608 0.498776 29.4653C1.08031 29.4984 1.35659 28.8689 1.96629 28.8651C2.37014 28.8631 2.77191 28.4845 3.22505 28.2476C3.67156 28.6941 4.62132 28.1419 4.98333 29.1265C4.74641 29.8182 5.33665 30.4258 5.5367 31.1345C5.56446 31.2335 5.66842 31.3218 5.66925 31.4154C5.67878 32.5316 5.67505 33.6475 5.67505 34.8599C5.49446 34.6996 5.41617 34.6304 5.22191 34.4577C5.2828 34.7199 5.2712 34.9208 5.36067 34.9887C5.45594 35.0616 5.65682 34.9808 5.79185 35.026C5.85315 35.0463 5.88588 35.2082 5.8925 35.3084C5.89582 35.3544 5.79599 35.4559 5.75954 35.4484C5.48617 35.395 5.21653 35.3205 4.9212 35.2467C4.71949 35.6833 4.5041 36.1493 4.34339 36.4976C4.03564 36.4748 3.85173 36.4608 3.66824 36.4471C3.99008 36.7718 3.6202 36.8886 3.48641 37.0883C3.35014 37.2908 3.25031 37.5178 3.14221 37.7195C2.43144 37.6425 2.16635 37.1844 1.97623 36.5776C1.84162 36.9023 1.72025 37.1935 1.5815 37.5282Z" fill="black"/>
<path fill-rule="evenodd" clip-rule="evenodd" d="M84.7317 89.4749C84.1472 89.4583 83.5943 89.3005 83.3118 89.9483C82.8346 89.3196 82.7783 88.8735 83.2641 88.374C83.5996 88.0294 83.8208 87.599 84.2483 87.3012C84.6223 87.0402 84.7598 86.4633 85.0821 86.0959C85.3298 85.8134 85.7017 85.6394 86.0186 85.4178C86.1176 85.5143 86.2244 85.6195 86.393 85.7848C86.2141 85.912 86.0385 86.037 85.8624 86.1617C85.8819 86.2069 85.9018 86.252 85.9212 86.2972C86.1789 86.2566 86.4361 86.216 86.7256 86.1704C86.8027 86.286 86.8921 86.5825 87.0839 86.6824C88.2358 87.2821 88.971 88.2833 89.671 89.3109C89.9009 89.6481 89.98 90.0842 90.1647 90.4574C90.6208 91.3798 90.7384 91.5501 90.5996 92.3884C90.4994 92.9944 90.3888 93.6405 89.9129 94.1343C89.7249 94.3289 89.5244 94.6102 89.5144 94.8595C89.4896 95.4891 89.1437 95.5898 88.6351 95.5575C88.493 95.5483 88.3427 95.5666 88.2043 95.6039C87.3171 95.8424 87.2256 95.8176 86.7832 95.1375C86.1279 94.1305 85.8148 92.9791 85.4337 91.8599C85.1645 91.0692 84.9591 90.2561 84.7317 89.4749Z" fill="black"/>
<path fill-rule="evenodd" clip-rule="evenodd" d="M70.3685 77.0821C69.741 76.7258 69.1056 76.4139 68.594 75.8983C67.641 74.9357 66.6179 74.0339 65.7385 73.0084C64.814 71.9302 63.8353 70.8674 63.2773 69.6032C63.3362 69.1041 63.9865 69.6343 63.9989 69.0453C64.0026 68.8771 64.4147 68.7148 64.6434 68.5553C65.2108 68.1593 65.5277 68.0931 65.9411 68.5329C66.3491 68.9674 66.8208 69.1232 67.3547 69.2363C68.1794 69.411 68.7485 70.0444 69.4543 70.4341C70.2094 70.8508 70.7475 71.5218 71.3609 72.1046C71.6786 72.4061 72.0733 72.6377 72.3463 72.9715C72.6209 73.3074 72.8731 73.7113 72.9705 74.1242C73.0293 74.3757 72.8404 74.7551 72.6482 74.9792C72.4109 75.2554 72.2986 75.6543 71.8832 75.7881C71.643 75.8651 71.6769 76.1335 71.6301 76.3547C71.5763 76.6086 71.5055 76.9176 71.0647 76.5987C70.7566 76.3763 70.4973 76.6919 70.3685 77.0821Z" fill="black"/>
<path fill-rule="evenodd" clip-rule="evenodd" d="M115.845 70.5487C114.558 70.0185 114.004 69.0327 113.454 68.0746C112.971 67.2326 112.53 66.3557 112.171 65.454C111.812 64.5535 111.187 63.7003 111.466 62.567C112.28 63.1345 112.213 64.2192 112.995 64.9445C112.852 63.7972 112.256 62.9108 111.959 61.7021C112.37 61.9275 112.519 62.0091 112.702 62.1089C112.737 61.9121 112.774 61.7059 112.81 61.5004C113.151 61.4358 113.487 61.372 113.883 61.2966C113.989 61.4648 114.126 61.7133 114.291 61.9436C114.93 62.8395 114.934 62.8354 116.095 63.2484C116.225 63.2948 116.346 63.3701 116.464 63.4447C117.363 64.013 118.182 64.6533 118.677 65.6412C118.86 66.0065 119.11 66.6775 119.099 67.0665C119.096 67.1576 119.172 67.2645 119.239 67.3415C119.408 67.5374 119.331 67.7043 119.157 67.8033C118.649 68.0895 118.429 68.6529 117.979 68.99C117.786 69.1337 117.752 69.3251 117.717 69.5624C117.669 69.8855 117.035 70.3043 116.741 70.2364C116.558 70.1941 116.44 69.8586 116.191 70.1059C116.06 70.2359 115.961 70.3975 115.845 70.5487Z" fill="black"/>
<path fill-rule="evenodd" clip-rule="evenodd" d="M79.264 44.2239C79.0668 44.2566 78.8601 44.2905 78.5747 44.3378C78.6874 44.549 78.7677 44.699 78.8518 44.8563C78.3154 45.3927 77.7571 45.9511 77.1814 46.5272C77.0886 46.5272 76.9751 46.5103 76.8682 46.5297C75.6012 46.7642 74.7575 46.0451 74.0537 45.1782C73.5041 44.501 73.0315 43.755 72.6637 42.9411C72.4342 42.4329 72.2292 41.9648 72.3932 41.2743C72.7776 42.1193 73.1201 42.8715 73.4627 43.6241C73.5235 43.6042 73.5844 43.5848 73.6457 43.5649C73.618 43.4216 73.6138 43.2679 73.5583 43.1362C73.3293 42.5919 73.0688 42.0601 72.853 41.5113C72.7573 41.2681 72.5522 40.9653 73.0746 40.8523C73.2357 40.8175 73.3301 40.47 73.4531 40.2641C73.5608 40.0835 73.6652 39.9008 73.7505 39.755C74.2786 39.7066 74.2836 40.1684 74.6129 40.359C74.5363 40.0682 74.4596 39.7774 74.3586 39.3947C74.5276 39.2609 74.7533 39.082 74.9791 38.9026C75.1215 39.0443 75.3104 39.27 75.4856 38.8537C75.6757 38.4039 75.9566 38.2287 76.4118 38.524C76.4532 38.551 76.5389 38.5717 76.5663 38.5493C77.0935 38.1148 77.4042 38.5476 77.6482 38.8798C78.2305 39.6739 78.5047 40.6274 78.8535 41.5345C78.9355 41.7474 79.114 42.2473 78.5134 42.2713C78.4795 42.2726 78.4534 42.4594 78.424 42.5596C78.549 42.5898 78.7412 42.6868 78.7889 42.6387C79.1256 42.3011 79.307 42.7419 79.2739 42.8193C79.0714 43.2952 79.5406 43.755 79.264 44.2239Z" fill="black"/>
<path fill-rule="evenodd" clip-rule="evenodd" d="M75.1729 20.1193C75.3054 20.2518 75.4384 20.3848 75.6401 20.5861C75.6769 20.2668 75.7076 20.0033 75.7411 19.7159C76.2059 19.6185 76.6851 19.4959 77.1718 19.4239C77.4659 19.3804 77.7765 19.3816 78.0698 19.4268C78.2934 19.4615 78.1178 19.8782 78.5349 19.9147C78.8046 19.9383 79.0117 20.3964 79.2034 20.7153C79.3592 20.9742 79.126 21.5346 79.7175 21.5011C79.7378 21.8676 79.7581 22.2346 79.7792 22.6012C79.7808 22.6368 79.7891 22.672 79.7945 22.7076L81.4729 24.386C81.6526 24.386 81.8432 24.3628 82.025 24.3914C82.3054 24.4365 82.6074 24.7144 82.4636 24.8868C82.1439 25.2699 82.7171 25.5346 82.4897 25.8473C81.6162 26.1091 81.3407 26.1381 80.63 26.0138C80.8081 26.3986 80.963 26.7341 81.1576 27.1557C81.0442 27.2647 80.8946 27.5302 80.7472 27.5294C79.8165 27.5223 78.8369 27.7584 78.0072 27.0978C77.7823 26.9184 77.5106 26.778 77.3358 26.5589C76.9369 26.0594 76.5799 25.5263 76.2158 24.9994C76.0365 24.7397 75.8832 24.4614 75.7109 24.1963C75.4442 23.7858 75.5233 23.1943 75.0341 22.9007C75.1082 22.4028 74.8274 22.0263 74.6481 21.5968C74.4041 21.0131 74.5553 20.4548 75.1729 20.1193Z" fill="black"/>
<path fill-rule="evenodd" clip-rule="evenodd" d="M40.3122 3.37487C40.7525 3.37487 41.0537 3.37446 41.3544 3.37487C41.7574 3.3757 42.1935 3.30819 42.2859 3.89055C42.2958 3.95517 42.4466 4.05416 42.5187 4.04381C42.9958 3.97298 43.1197 4.42404 43.4117 4.62245C44.2041 5.16091 44.3209 6.04771 44.5189 6.86783C44.6319 7.33546 44.4808 7.67097 43.9485 7.98949C43.3512 8.34694 42.6036 8.56896 42.1935 9.21842C41.8315 9.22546 41.5354 9.79168 41.1125 9.33854C41.0512 9.2731 40.9153 9.25114 40.8147 9.2528C39.389 9.28014 38.4968 8.46168 37.7516 7.37026C37.3735 6.81688 36.9 6.32233 36.7518 5.64097C36.6909 5.36138 36.6553 5.07475 36.6354 4.78937C36.6283 4.69576 36.6834 4.53339 36.7489 4.50978C37.3225 4.30475 37.7396 3.81558 38.2959 3.61635C38.9818 3.37115 39.7154 3.29742 40.3122 3.37487Z" fill="black"/>
<path fill-rule="evenodd" clip-rule="evenodd" d="M38.5002 58.1682C38.6655 58.4279 38.7868 58.6192 39.0229 58.9908C39.0759 58.5973 39.0962 58.4627 39.1116 58.3276C39.1613 57.8799 39.1604 57.8807 39.7262 57.8231C39.7971 57.8157 39.906 57.8252 39.9313 57.785C40.1893 57.3783 40.5923 57.2644 40.9991 57.387C41.4601 57.5257 41.9551 57.6997 42.3138 58.0021C43.7133 59.1817 44.5368 60.7627 45.1763 62.4402C45.2848 62.7264 45.1916 63.0893 45.1916 63.4124C45.0239 63.3937 44.8922 63.3792 44.76 63.3643C44.7886 63.7694 44.6971 64.0697 44.2232 64.1654C44.0812 64.1944 43.8869 64.4064 43.8728 64.5493C43.8252 65.0373 43.324 64.7995 43.1492 65.0534C42.87 64.609 42.3896 65.147 42.0756 64.8293C41.7749 64.5253 41.3632 64.2909 41.1644 63.9338C40.7265 63.1473 40.3074 62.3288 40.051 61.4722C39.9201 61.034 39.7258 60.7428 39.3883 60.544C38.8403 60.2222 38.4145 59.8142 38.1469 59.2343C37.9236 58.7501 37.9141 58.7547 38.5002 58.1682Z" fill="black"/>
<path fill-rule="evenodd" clip-rule="evenodd" d="M59.6729 45.03C59.6729 44.9178 59.646 44.7616 59.6824 44.6216C59.7069 44.528 59.8672 44.4642 59.8812 44.3743C59.8966 44.2762 59.7814 44.1635 59.7802 44.0566C59.7793 43.9618 59.9127 43.8454 59.8866 43.7754C59.839 43.6466 59.7321 43.5273 59.6224 43.4378C59.5495 43.3782 59.4281 43.3773 59.2782 43.3368C59.3486 43.5815 59.4053 43.7787 59.4625 43.9763C59.0636 43.7331 58.6204 43.5393 58.8155 42.9532C58.9804 43.0236 59.1423 43.0936 59.3432 43.1798C59.4078 42.4744 58.7538 42.8414 58.502 42.5075C58.8706 42.551 59.1162 42.2971 59.4869 42.3464C59.6588 42.3692 59.8825 42.0039 60.1459 41.7545C60.5117 42.0531 60.9217 42.3874 61.4014 42.7788C61.4482 42.4926 61.4817 42.2888 61.5223 42.0407C62.0645 41.9359 62.6204 41.8286 63.1824 41.7201C63.4711 42.0888 63.6969 42.4251 63.9719 42.7146C64.2105 42.9648 64.5385 43.1317 64.7684 43.3881C65.417 44.1121 65.7111 45.0263 65.9779 45.9305C66.0736 46.254 66.1788 46.7659 65.5604 46.8525C65.5633 47.4465 64.937 47.5351 64.6545 47.9116C64.3004 48.383 63.6741 48.4641 62.9981 48.1912C61.9858 47.7824 61.3206 46.9921 60.674 46.2225C60.3505 45.8369 59.9873 45.4732 59.6729 45.03Z" fill="black"/>
<path fill-rule="evenodd" clip-rule="evenodd" d="M78.2878 59.6789C78.4701 59.7411 78.6461 59.8007 78.8478 59.8695C78.8888 58.9193 77.9068 58.653 77.7701 57.7782C77.9689 57.866 78.1308 57.9033 78.2481 57.9965C78.4361 58.1464 78.5943 58.3328 78.8288 58.5672C78.7488 58.0909 78.6958 57.9815 78.4241 57.6556C79.0181 56.9373 79.0181 56.9373 79.7193 56.9349C80.1049 57.3694 80.4342 57.9418 80.9283 58.2433C81.4739 58.5768 81.6346 59.1459 82.0368 59.5539C82.4211 59.9444 82.6763 60.4763 82.931 60.9754C83.071 61.2488 83.1899 61.5979 83.1443 61.8854C83.0863 62.2486 82.9314 62.7826 82.6746 62.8857C82.2521 63.0559 82.3466 63.3546 82.2136 63.6114C82.0314 63.9622 81.782 64.3035 81.3247 64.3789C81.0576 64.4228 80.7395 64.6266 80.5436 64.5384C80.0668 64.3234 79.5743 64.0496 79.2218 63.6739C78.5566 62.9648 77.9618 62.1849 77.3927 61.3946C77.2498 61.1966 77.3157 60.8486 77.2734 60.4572C77.4631 60.6105 77.5385 60.671 77.6984 60.7998C77.6156 60.2236 78.1192 60.026 78.2878 59.6789Z" fill="black"/>
<path fill-rule="evenodd" clip-rule="evenodd" d="M72.3499 101.108C72.0414 100.939 71.8927 100.857 71.7485 100.777C71.4946 101.695 71.4317 101.743 70.6815 101.412C70.8795 101.873 71.0382 102.242 71.2109 102.643C71.015 102.756 70.8145 102.873 70.6119 102.991C70.2458 102.625 69.8743 102.253 69.4683 101.847C69.224 102.397 69.8966 102.652 69.8304 103.183C69.2269 103.267 68.8769 102.857 68.5293 102.479C68.3396 102.273 68.2369 101.985 68.0414 101.786C67.1699 100.901 66.3871 99.9449 65.6573 98.9425C65.5918 98.8526 65.5011 98.7806 65.4199 98.7027C64.9801 98.2831 64.5191 97.8776 64.4863 97.1938C64.9254 96.925 65.1586 97.3392 65.4572 97.5955C65.7608 97.0931 65.0583 97.026 65.0898 96.6557C65.1167 96.2092 65.9663 96.7787 65.7505 96.0489H66.9736C67.3236 96.2954 67.6786 96.5393 68.0265 96.7924C68.3757 97.0463 68.6064 97.4112 69.0338 97.6179C69.4489 97.8192 69.7239 98.2939 70.0892 98.6157C70.3274 98.8257 70.4786 99.1144 70.8592 99.2089C71.1347 99.2768 71.2817 99.6947 71.7001 99.6409C71.8164 99.6255 72.0264 99.836 72.0857 99.9855C72.1988 100.27 72.2335 100.586 72.3499 101.108Z" fill="black"/>
<path fill-rule="evenodd" clip-rule="evenodd" d="M64.587 25.5581C64.9756 25.5838 65.244 25.3829 65.5993 25.6393C65.4187 25.7014 65.2879 25.7465 65.145 25.7958C65.2783 26.2486 65.4266 26.6984 65.5356 27.1573C65.5633 27.2749 65.5016 27.5073 65.42 27.5417C64.9669 27.7331 64.8298 28.2206 64.4769 28.4877C64.3207 28.6062 64.0867 28.6447 63.8825 28.6679C63.7802 28.6791 63.6596 28.5246 63.5573 28.5354C63.4327 28.5486 63.3183 28.6575 63.187 28.7321C62.9932 28.047 63.0031 28.0193 62.2398 27.7591C61.7829 27.6034 61.688 27.1544 61.3641 26.8719C61.2916 27.0264 61.2216 27.1755 61.1434 27.3429C61.0295 27.2236 60.8377 27.1151 60.8381 27.0074C60.8439 25.6616 60.8427 25.6314 60.2284 24.8249C59.8821 25.4334 60.5457 25.7855 60.5817 26.3807C60.4173 26.355 60.1716 26.3741 60.1431 26.3041C59.8544 25.6024 59.4145 24.9397 59.8656 24.098C60.0056 23.8367 60.0308 23.6996 60.3452 23.6942C60.539 23.6913 60.7474 23.5774 60.9201 23.468C61.3679 23.1851 61.799 22.877 62.2774 22.551C62.3868 22.7142 62.4879 22.8654 62.4634 22.8285C62.8408 23.0915 63.2343 22.3832 63.2972 23.1217C63.3154 23.3313 63.7839 22.8314 63.7839 23.3802C63.7839 23.5923 64.1737 23.8048 64.3696 24.0007C64.2996 24.1821 64.2333 24.3552 64.1666 24.5284C64.2221 24.5669 64.2776 24.6054 64.3335 24.6439C64.4317 24.4571 64.5299 24.2703 64.6537 24.0355C64.8554 24.3784 64.9727 24.5768 65.1263 24.8374C64.9594 25.0602 64.7734 25.3091 64.587 25.5581Z" fill="black"/>
<path fill-rule="evenodd" clip-rule="evenodd" d="M26.6185 59.2989C26.3584 58.9709 26.1525 58.7112 25.9239 58.4221C25.8075 58.6602 25.7334 58.8114 25.6368 59.0086C25.2023 58.8048 24.9099 58.4684 24.661 58.1176C24.1109 57.3418 23.6855 56.4861 23.128 55.709C22.7851 55.2315 22.7648 54.6313 22.9002 54.01C23.4151 53.9056 23.5265 54.5108 23.9556 54.6636V53.5639C24.7666 53.4496 25.5482 53.3394 26.2648 53.2387C27.0165 53.9139 27.5115 54.6433 27.8623 55.4858C28.0628 55.9658 28.4758 56.3262 28.6013 56.8754C28.651 57.0925 28.3726 57.3845 28.7152 57.546C28.721 57.5485 28.6133 57.8128 28.61 57.8115C28.0508 57.6098 27.8628 58.4208 27.3247 58.2908C27.2899 58.2821 27.1947 58.49 27.1412 58.6039C27.082 58.729 27.0555 58.8723 26.9826 58.9874C26.9287 59.0736 26.8244 59.1274 26.6185 59.2989Z" fill="black"/>
<path fill-rule="evenodd" clip-rule="evenodd" d="M51.6377 72.9607C51.7992 73.3343 51.9169 73.6064 52.085 73.9945C52.1919 73.7116 52.2412 73.582 52.2934 73.4445C52.3439 73.4755 52.4268 73.4971 52.4375 73.5377C52.5394 73.9249 52.7233 74.2559 53.0029 74.55C53.1702 74.726 53.2912 74.9526 53.4051 75.1709C53.606 75.5573 53.891 75.8212 54.3524 75.9032C54.4249 75.7565 54.4994 75.6049 54.5342 75.5345C54.7479 75.6944 54.9803 75.8688 55.1534 75.9984C55.1534 76.1393 55.1683 76.1997 55.1514 76.2109C54.9468 76.3439 54.7376 76.4694 54.5466 76.5862C54.6021 76.8948 54.6518 77.1743 54.7268 77.5931C54.3884 77.4287 54.2033 77.3384 53.9365 77.2083C53.7886 77.5057 53.6404 77.8048 53.4809 78.1262C53.3293 78.1432 53.1516 78.1639 52.9341 78.1883V78.6903C52.3667 79.1153 51.9024 79.0581 51.4103 78.6096C50.8743 78.1208 50.27 77.7078 49.7233 77.1259C49.9531 76.9739 50.1752 76.8272 50.4187 76.6665C50.2944 76.2109 50.0712 75.8042 49.7494 75.4065C49.4275 75.0085 49.2511 74.4924 49.0195 74.0442C49.3505 73.6362 49.6118 73.9382 49.9154 74.0658C49.9283 73.9519 49.9809 73.8305 49.9449 73.7485C49.7183 73.239 49.8165 72.9872 50.2965 72.9652C50.7472 72.9441 51.1995 72.9607 51.6377 72.9607Z" fill="black"/>
<path fill-rule="evenodd" clip-rule="evenodd" d="M19.4878 77.4273C19.6771 77.7073 19.8315 77.9363 20.0246 78.2217C20.0747 78.0656 20.1434 77.9649 20.1277 77.8808C20.0507 77.4729 19.9508 77.0694 19.8465 76.6092H20.503C20.5597 76.7273 20.6293 76.8718 20.7668 77.1581V76.2352C20.8952 76.1901 21.0046 76.1764 21.0812 76.1197C21.2564 75.9892 21.5339 75.693 21.5625 75.7162C21.8495 75.9523 22.2041 75.8098 22.4824 75.9167C22.8975 76.0757 23.2918 76.3533 23.2864 76.8826C23.2847 77.0408 23.0752 77.2169 23.1066 77.3498C23.1323 77.4579 23.4223 77.482 23.5088 77.6042C23.5797 77.704 23.5855 77.9715 23.5126 78.03C23.2197 78.2636 23.2843 78.5659 23.3042 78.8492C23.3295 79.203 23.1746 79.4179 22.8606 79.507C22.5251 79.6023 22.4468 79.8172 22.3764 80.1382C22.2766 80.5918 21.9655 80.8933 21.4395 80.871C21.2576 80.8635 21.0692 80.8676 20.8927 80.9062C20.4437 81.0043 19.8779 80.8966 19.7379 80.5673C19.3962 79.7638 18.9017 79.0046 18.9936 78.0589C19.0297 77.6903 19.2517 77.5855 19.4878 77.4273Z" fill="black"/>
<path fill-rule="evenodd" clip-rule="evenodd" d="M55.7122 57.1049C55.993 57.1874 56.2863 57.2731 56.6466 57.3787C56.7995 57.0146 56.8446 56.6651 56.5224 56.3399C56.9183 55.98 57.1818 56.5226 57.5699 56.4638C57.6059 56.2678 57.6444 56.0616 57.6817 55.8594C57.9857 55.5339 58.2599 56.1345 58.6273 55.8511C59.003 55.5612 59.0979 56.1871 59.4172 56.2587C59.5966 56.2989 59.7643 56.4857 59.8923 56.6431C60.3164 57.1633 60.3827 57.8994 60.9539 58.3538C61.0906 58.4623 61.0177 58.8355 61.0483 59.1672C60.415 58.8562 60.3765 59.861 59.7664 59.6229C59.5787 59.9265 59.756 60.4769 59.0697 60.5428C58.9972 60.4194 58.8837 60.2259 58.7222 59.9501C58.5847 60.2371 58.518 60.3763 58.4496 60.5196C58.0653 60.6107 57.8892 60.2794 57.7629 60.0685C57.3433 59.3665 56.7999 58.8293 56.097 58.4093C55.6645 58.1508 55.4272 57.7296 55.7122 57.1049Z" fill="black"/>
<path fill-rule="evenodd" clip-rule="evenodd" d="M50.2165 27.0934C49.6835 27.5109 49.2904 27.819 48.783 28.2171H47.834C47.4646 27.6828 47.3445 26.9799 46.7998 26.5388C46.7426 25.7948 46.2282 25.3338 45.7813 24.8153C45.6392 24.65 45.6698 24.336 45.6094 24.0287C45.7726 23.9831 45.9341 23.9864 46.0186 23.9073C46.8855 23.0967 47.7023 23.5524 48.3932 24.1053C48.983 24.5771 49.4809 25.2013 49.8988 25.8367C50.1358 26.1966 50.1296 26.7164 50.2165 27.0934Z" fill="black"/>
</svg>
