<?xml version="1.0" encoding="utf-8"?>
<!-- Generator: Adobe Illustrator 25.2.0, SVG Export Plug-In . SVG Version: 6.00 Build 0)  -->
<svg version="1.1" id="Layer_1" xmlns="http://www.w3.org/2000/svg" xmlns:xlink="http://www.w3.org/1999/xlink" x="0px" y="0px"
	 viewBox="0 0 402 255" style="enable-background:new 0 0 402 255;" xml:space="preserve">
<style type="text/css">
	.st0{fill:#FFFFFF;}
	.st1{fill:#0C0D48;}
	.st2{fill:#E71D7C;}
	.st3{fill:none;stroke:#0C0D48;stroke-linecap:round;stroke-linejoin:round;}
	.st4{fill:#E1EDFA;}
	.st5{fill:#0C0D48;stroke:#0C0D48;stroke-linecap:round;stroke-linejoin:round;}
	.st6{fill:#E71D7C;stroke:#0C0D48;stroke-linecap:round;stroke-linejoin:round;}
	.st7{fill:#FFFFFF;stroke:#0C0D48;stroke-linecap:round;stroke-linejoin:round;}
	.st8{fill:none;stroke:#FFFFFF;stroke-linecap:round;stroke-linejoin:round;}
</style>
<g>
	<path class="st3" d="M142.04,47.88L258.49,20.6l1.49,6.37l20.18-18.95L253.67,0l1.49,6.37L134.68,34.59"/>
	<path class="st3" d="M322.44,95.05l60.72-14.23l0.78,3.32l10.53-9.88l-13.81-4.19l0.78,3.32l-62.82,14.71"/>
	<path class="st1" d="M343.68,57.7l-14.21-4.29l1.1,4.64l-220.34,51.87l1.22,5.18l220.34-51.87l1.09,4.64L343.68,57.7z"/>
	<path class="st3" d="M35.41,175.12l147.03-34.61l1.09,4.63l10.81-10.17l-14.21-4.28l1.1,4.64L33.36,170.14"/>
	<path class="st1" d="M367.07,204.45l-26.49-8.02l1.49,6.37l-120.48,28.22l3.33,14.23l120.48-28.22l1.49,6.37L367.07,204.45z"/>
	<path class="st1" d="M274.63,197.59l-14.21-4.28l1.09,4.64L41.17,249.82l1.22,5.18l220.34-51.87l1.1,4.64L274.63,197.59z"/>
	<path class="st4" d="M371.05,112.48c0,0-4.88-14.43-12.79-13.62c-7.92,0.82-7.72,7.11-10.36,8.74c-2.64,1.63-5.31-4.07-9.75-2.24
		s-4.47,4.88-5.49,6.91c-1.02,2.03-5.07-3.65-9.34-2.84c-4.26,0.81-3.86,6.09-4.88,7.31c-1.02,1.22-3.86-0.61-5.89,0
		c-2.03,0.61-3.66,4.27-3.66,4.27h74.74c0,0-0.81-6.09-4.46-7.92C375.52,111.25,374.1,115.32,371.05,112.48z"/>
	<path class="st4" d="M138.86,19.76c0,0-4.88-14.43-12.79-13.62c-7.92,0.81-7.72,7.12-10.36,8.74c-2.64,1.61-5.28-4.06-9.75-2.23
		c-4.47,1.83-4.47,4.88-5.49,6.91c-1.02,2.03-5.07-3.63-9.34-2.84c-4.26,0.79-3.86,6.09-4.87,7.31s-3.86-0.61-5.89,0
		c-2.03,0.61-3.66,4.27-3.66,4.27h74.74c0,0-0.81-6.1-4.46-7.93C143.34,18.53,141.89,22.61,138.86,19.76z"/>
	<path class="st4" d="M51.1,146.87c0,0-3.49-10.33-9.17-9.75c-5.67,0.58-5.53,5.1-7.42,6.26c-1.89,1.16-3.78-2.91-6.98-1.6
		c-3.2,1.31-3.2,3.5-3.93,4.95c-0.72,1.45-3.64-2.63-6.69-2.04c-3.06,0.58-2.76,4.37-3.49,5.24c-0.72,0.87-2.76-0.43-4.22,0
		c-1.45,0.43-2.62,3.06-2.62,3.06h53.52c0,0-0.58-4.37-3.2-5.67C54.31,145.99,53.28,148.9,51.1,146.87z"/>
	<path class="st4" d="M317.73,48.29c0,0-3.49-10.33-9.14-9.77c-5.65,0.56-5.53,5.09-7.42,6.26c-1.89,1.17-3.79-2.91-6.98-1.6
		c-3.19,1.31-3.2,3.49-3.93,4.94c-0.73,1.46-3.63-2.62-6.69-2.03c-3.06,0.58-2.76,4.37-3.49,5.24c-0.73,0.87-2.76-0.44-4.22,0
		c-1.45,0.44-2.62,3.06-2.62,3.06h53.52c0,0-0.58-4.37-3.2-5.67C320.94,47.39,319.91,50.33,317.73,48.29z"/>
	<path class="st4" d="M190.45,247.4c0,0-3.49-10.33-9.16-9.75c-5.67,0.58-5.53,5.1-7.42,6.26c-1.89,1.16-3.78-2.91-6.98-1.6
		c-3.2,1.31-3.2,3.5-3.93,4.95c-0.72,1.45-3.64-2.63-6.69-2.04c-3.06,0.58-2.76,4.37-3.49,5.24c-0.72,0.87-2.76-0.43-4.22,0
		c-1.45,0.43-2.62,3.06-2.62,3.06h53.52c0,0-0.58-4.37-3.2-5.67C193.65,246.52,192.63,249.43,190.45,247.4z"/>
	<path class="st5" d="M293.8,147.7l18.52,7.08L7.18,215.93v25.62l338.18-72.55l16.37,7.62l33.67-27.41L293.8,147.7z"/>
	<path class="st5" d="M395.4,149.21v-2.73l-33.67,27.41v2.73L395.4,149.21z"/>
	<path class="st5" d="M293.8,144.96v2.74l12.86,5.28l5.66-0.94L293.8,144.96z"/>
	<path class="st6" d="M293.8,144.96l18.52,7.08l-302.15,59.6v25.62l335.19-70.99l16.37,7.62l33.67-27.41L293.8,144.96z"/>
	<path class="st5" d="M209.63,100.1l-1.33,44.85c0,0-3.05,2.18-3.83,4.98c-0.78,2.8-3.56,18.97-3.74,19.38
		c-0.18,0.41-2.56,1.33-2.79,2.26c-0.13,0.76-0.17,1.54-0.11,2.31c0,0-3.74,4.07-4.58,8.79c-0.84,4.72,2.36,4.17,4.7,3
		c2.34-1.17,4.65-8.3,5.27-9.16c0.62-0.86,1.9-2.23,2.94-3.55c1.04-1.32,2.21-4.83,2.21-4.83s13.66-19.32,16.08-23.68
		c2.42-4.36,5.08-19.98,5.61-21.34c0.52-1.36,3.36-2.61,3.36-2.61s20.55,8.77,22.58,9.44c2.03,0.67,23.1,29.6,23.1,29.6
		s0,3.04,0.41,3.87c0.41,0.82,3.32,3.75,3.32,3.75s-0.66,2.66,0.72,3.43c1.39,0.77,6.44-0.22,7.31-0.37
		c0.87-0.15,5.22,0.11,6.95-0.18c1.73-0.29,4.56-1.56,4.3-2.27c-0.25-0.72-7.54-2.51-9.05-3.14c-1.31-0.62-2.58-1.34-3.79-2.14
		c-0.26-1.95-0.64-3.87-1.12-5.77c-0.49-1.33-2.75-1.94-2.84-3.19c-0.09-1.25-13.39-28.49-14.5-29.82
		c-1.12-1.33-26.51-21.97-26.51-21.97l-3.85-7.59c0,0-4.18,5.93-15.28,6.96C214.1,102.13,209.63,100.1,209.63,100.1z"/>
	<path class="st7" d="M213.09,59.26c0,0-11.5,12.38-10.86,14.22c0.64,1.84,6.99,22.94,6.99,22.94s-1.36,4.65,1.47,7.31
		c2.84,2.66,13.17,3.58,20.91,0.72c7.74-2.85,9.17-8.3,9.3-11.46c0.13-3.16-1.33-29.76-1.33-29.76l36-28.57l-1.65-4.61l-33.93,12.96
		c0,0-3.9-0.62-10.34,3.41c-6.44,4.03-6.95,4.88-6.95,4.88L213.09,59.26z"/>
	<path class="st3" d="M239.53,63.25l1.07-15.13"/>
	<path class="st3" d="M243.64,56.01l6.18-12.69"/>
	<path class="st3" d="M241.19,61.02l1.55-3.17"/>
	<path class="st3" d="M245.85,54.16l6.18-8.78"/>
	<path class="st3" d="M270.22,31.42l1.22,5.89"/>
	<path class="st6" d="M221.2,68.51l3.1,2.51c0,0,2.81,3.07,3.16,2.88c0.35-0.19,1.33-1.99,1.91-3.63c0.58-1.64-0.17-3.91-0.17-3.91
		l-0.13-4.42l-1.79-0.07l0.03,6.09l-1.04,1.33l-4.15-1.96L221.2,68.51z"/>
	<path class="st7" d="M213.91,59.78c0,0,0.12,4.06,1.52,6.9c1.4,2.84,3.63,6.53,4.55,5.62c0.92-0.91,3.87-7.91,4.65-8.29
		c0.78-0.39,8.12,1.26,9.1,0.66c0.98-0.6-2.34-8.25-3.82-10.08c-3.86-4.76-5.54-5.12-6.24-4.83
		C222.97,50.04,214.16,54.5,213.91,59.78z"/>
	<path class="st7" d="M214.43,58.94c1.64,1.82,3.42,3.52,5.31,5.08c3.32,2.76,6.41,6.31,6.57,5.28c0.16-1.03-0.34-16.42-0.48-17.23
		c-0.08-0.47-0.24-0.92-0.48-1.33l-3.2-4.53l-0.37-4.1c0,0-0.96-0.75-2.44,0.34c-1.47,1.09,0.5,7.73-0.6,10.51
		C217.65,55.73,214.43,58.94,214.43,58.94z"/>
	<path class="st7" d="M205.36,37.19c0,0-2.21,3.54-1.99,5c0.22,1.46,0.89,4.65,0.62,5.98c-0.27,1.33-3.09,3.78-2.3,4.48
		c0.79,0.7,3.73,0.44,3.73,0.44l0.55,1.73c0,0,1.79-2.66,4.78-2.16c3,0.5,6.89-0.6,7.47-2.03c0.58-1.43,0-5.49-0.89-7.09
		c-0.89-1.6-2.66-2.71-2.44-4.49c0.22-1.78,1.69-3.2-0.5-4.32C212.2,33.6,205.36,37.19,205.36,37.19z"/>
	<path class="st5" d="M203.83,33.64c0,0-4.6-0.62-4.34,0.92c0.27,1.54,1.33,2.85,7.04,3.2c5.71,0.35,7.36-0.77,7.36-0.77
		s-3.9,1.99-2.26,3.32c1.23,0.92,2.54,1.72,3.91,2.41c0,0,2.31,5.67,2.25,6.77c-0.06,1.1-1.91,1.99-3.53,2.19
		c-1.63,0.19-3.99-0.39-5.98,0.54c-1.99,0.93-2.56,2.52-1.93,3.24c0.62,0.72,2.76,7.35,4.1,7.37c1.34,0.02,9.51-5.64,10.57-8.15
		c1.06-2.51-1.85-6.84-1-8.17c0.86-1.33,5.98-1.45,6.77-6.08s-3.39-10.07-7.01-11.69c-3.61-1.62-8.63-0.34-9.78,0.19
		c-0.56,0.24-1.09,0.52-1.59,0.86c0,0-4.25-1.02-5.67,0.4C201.31,31.58,203.83,33.64,203.83,33.64z"/>
	<path class="st1" d="M208.42,46.75c0.13,0.71-0.07,1.33-0.43,1.4c-0.36,0.07-0.74-0.47-0.87-1.18c-0.13-0.72,0.07-1.33,0.43-1.4
		C207.91,45.49,208.3,46.03,208.42,46.75z"/>
	<path class="st3" d="M205.98,44.17c0,0,0.66-1.28,2.52-0.35"/>
	<path class="st8" d="M208.97,55.64c0,0,1.51,0.07,2.54-2.1"/>
	<path class="st0" d="M220,47.82c0,0-1.51-3.9,0.41-4.9c1.91-1,3.26,0.6,2.97,3.24c-0.29,2.63-1.14,3.52-1.65,3.45"/>
	<path class="st3" d="M220,47.82c0,0-1.51-3.9,0.41-4.9c1.91-1,3.26,0.6,2.97,3.24c-0.29,2.63-1.14,3.52-1.65,3.45"/>
	<path class="st7" d="M227.76,84.12c0,0,4.88-8.09,5.35-8.5c0.47-0.41,8.37,0.83,8.37,0.83s0.74,0.52,0.35,1.99
		c-0.39,1.48-0.17,4.65-0.86,5.02c-1.22,0.42-2.46,0.78-3.71,1.07l-0.25-0.84c0,0-1.71,2.03-2.32,2.24
		c-0.61,0.21-2.92,0.61-2.92,0.61l-2.62,2.4L227.76,84.12z"/>
	<path class="st0" d="M206.64,67.09c0,0-5.31,5.03-5.9,7.19c-0.59,2.16-0.75,30.77,0.22,32.66c0.97,1.89,4.38-0.97,4.65-1.13
		c0.27-0.16,23.5-16.84,23.5-16.84l-1.38-4.85l-15.79,6.23l0.96-12.63"/>
	<path class="st3" d="M206.64,67.09c0,0-5.31,5.03-5.9,7.19c-0.59,2.16-0.75,30.77,0.22,32.66c0.97,1.89,4.38-0.97,4.65-1.13
		c0.27-0.16,23.5-16.84,23.5-16.84l-1.38-4.85l-15.79,6.23l0.96-12.63"/>
	<path class="st3" d="M203.71,97.75c-0.16,1.03-0.23,1.83-0.23,1.83"/>
	<path class="st3" d="M211.94,90.35c0,0-5.78,2.19-6.9,3.25c-0.54,0.75-0.89,1.61-1.02,2.53"/>
	<path class="st3" d="M224.5,85.34l1.52,5.69"/>
	<path class="st7" d="M288,27.45c0,0,2.19,0.41,1.99,1.33c-0.19,0.92-2.4,4.58-2.4,4.58s-4.83-1.23-4.65-2.55
		c0.1-0.63,0.38-1.22,0.8-1.7c0.42-0.48,0.97-0.83,1.58-1.01C286.53,27.74,288,27.45,288,27.45z"/>
	<path class="st7" d="M273.87,30.08c0,0,5.49-3.2,8.46-3.4c2.97-0.2,10.33-2.66,11.35-2.92c1.02-0.26,1.25,0.17,0.45,1.26
		c-0.8,1.08-2.75,1.61-3.69,1.99c-0.94,0.39-5.17,1.43-5.41,2.13c-0.13,0.38-0.15,0.78-0.06,1.17c0.09,0.39,0.29,0.74,0.58,1.02
		c0.62,0.55,3.42,1.29,3.25,2.23c-0.17,0.94-0.49,1.16-1.03,1.16c-0.54-0.01-2.49-0.81-3.42-0.98c-0.93-0.17-3.21,0.35-4.22,0.11
		c-0.72-0.19-1.42-0.43-2.1-0.72l-2.52,1.57L273.87,30.08z"/>
	<path class="st6" d="M227.46,73.91c0,0-3.17,3.15-9.19,1.91c-6.02-1.24-13.62-5.79-17.54-6.33c-3.92-0.53-8.83,1.91-12.9,2.25
		c-4.08,0.34-6.2-0.77-6.2-0.77l-6.39,4.05l7.35,4.47c0,0,1.53,0.92,7.55-0.09c6.02-1.01,12.48-4.5,15.32-3.54
		c2.84,0.96,11.34,4.36,15.65,3.32C225.42,78.13,227.46,73.91,227.46,73.91z"/>
	<path class="st7" d="M171.11,111.87c0,0,2.82,1.24,2.5,1.62c-0.19,0.16-0.41,0.27-0.66,0.32c-0.24,0.04-0.5,0.02-0.73-0.07
		c-0.29-0.14-3.32-1.95-3.32-1.95L171.11,111.87z"/>
	<path class="st7" d="M169.55,112.48c0,0,1.91,1.93,1.53,1.99c-0.43,0.11-0.88,0.06-1.26-0.16c-0.54-0.48-1.05-1-1.52-1.54
		L169.55,112.48z"/>
	<path class="st7" d="M168.46,113.61c0,0,1.19,0.79,0.86,1.11c-0.33,0.32-1.33,0-1.54-0.24c-0.25-0.19-0.52-0.36-0.8-0.5
		L168.46,113.61z"/>
	<path class="st7" d="M144.07,99.29l17.16,13.6c0,0-0.98,2.13-1.85,2.66l-0.88,0.55c0,0-8.93-2.07-12.49-3.46
		c-3.55-1.4-7.1-3.18-7.1-3.18s-1.67-2.23-1.08-3.32C138.42,105.04,144.07,99.29,144.07,99.29z"/>
	<path class="st7" d="M161.23,112.89c0,0,4.1-2.59,5.23-2.8c1.13-0.21,7.84,1.39,8.11,1.83c0.27,0.44-0.05,0.79-0.52,0.88
		c-0.47,0.09-5.15-1.01-5.15-1.01s-2.14,3.21-4.85,4.29c-1.79,0.62-3.74,0.63-5.54,0.03C158.51,116.12,160.9,114.32,161.23,112.89z"
		/>
	<path class="st0" d="M163.93,113.86c0.99-0.38,1.95-0.82,2.88-1.33c1.07-0.6,2.08-1.3,3.02-2.11c0.66-0.7,1.18-0.51,1.33,0.25
		c0.04,0.35-0.03,0.7-0.2,1.01c-0.17,0.31-0.43,0.56-0.74,0.72c-0.61,0.41-1.73,1.2-1.73,1.2s-1.4,1.91-2.84,2.56
		c-1.43,0.65-4.02,0.35-4.39-0.07"/>
	<path class="st3" d="M163.93,113.86c0.99-0.38,1.95-0.82,2.88-1.33c1.07-0.6,2.08-1.3,3.02-2.11c0.66-0.7,1.18-0.51,1.33,0.25
		c0.04,0.35-0.03,0.7-0.2,1.01c-0.17,0.31-0.43,0.56-0.74,0.72c-0.61,0.41-1.73,1.2-1.73,1.2s-1.4,1.91-2.84,2.56
		c-1.43,0.65-4.02,0.35-4.39-0.07"/>
	<path class="st5" d="M144.71,124.28c0,0,20.47,17.04,21.16,17.94c0.69,0.9,1.73,37.44,1.73,37.44l1.77,1.12
		c0.09,0.47,0.14,0.94,0.13,1.42c-0.06,0.4,4.28,2.74,7.03,4.21c2.75,1.46,3.17,0.21,2.74,1.45c-0.43,1.25-5.31,1.75-6.61,1.73
		c-1.3-0.03-3.95-0.19-5.09,0c-1.14,0.19-4.55,0.83-5.19,0.17c-0.64-0.66-1.04-5.7-1.04-5.7c-0.4-0.6-0.74-1.24-1-1.91
		c-0.14-0.89-0.22-1.79-0.23-2.7c0.05-0.4-6.42-30.97-6.42-30.97l-26.15-10.88l-2.58,0.86c0,0-7.36,21.98-7.64,23.34
		c-0.29,1.36-21.14,29.15-21.14,29.15s-2.83,4.32-3.07,5.14c-0.24,0.82-2.38,1.61-2.38,1.61s-2.95,8.41-3.35,9.79
		c-0.41,1.38-1.8,2.29-3.42,2.72c-1.62,0.43-3.32-4.75-2.53-6.72s5.09-7.86,5.09-7.86c0.04-0.77,0.17-1.54,0.37-2.29
		c0.54-0.94,1.17-1.83,1.87-2.66l13.21-32.85l3.39-30.94C105.36,126.9,129.44,132.94,144.71,124.28z"/>
	<path class="st7" d="M128.04,76.92c0,0-14.79,4.74-15.94,5.98c-1.15,1.24-18.86,20.85-23.15,27.76c-4.28,6.9-8.63,18.31-8.63,18.31
		l4.93,1.44c0,0,8.16-10.88,10.57-13.08c2.42-2.19,18.64-18.28,18.64-18.28l1.33,8.32l-14.51,18.02c0,0,2.71,5.25,11.03,8.21
		c8.32,2.96,16.38,2.94,23.58-1.28c3.84-2.19,7.52-4.65,11.01-7.36c0,0-4.29-8.07-5.59-12.02s-2.15-6.42-2.15-6.42
		s6.14-5.32,5.85-7.39c-0.29-2.07-0.49-6.43-0.44-6.72c0.05-0.3,2.92-7.44,2.2-10.33c-0.72-2.88-2.23-4.07-4.42-5.01
		c-1.61-0.61-3.31-0.92-5.03-0.93L128.04,76.92z"/>
	<path class="st3" d="M133.48,107.28l-14.41,3.67"/>
	<path class="st3" d="M137.83,106.17l-1.96,0.5"/>
	<path class="st3" d="M127.96,110.6l-12.7,3.27"/>
	<path class="st6" d="M129.71,74.87c-0.99,0.52-1.89,1.21-2.66,2.03c-1.13,1.28-3.19,12.94-2.32,15.6c0.87,2.66,1.53,2.55,2.8,1.99
		c1.27-0.55,6.77-4.45,6.77-4.45s6.89,3.12,8.55,2.62c1.66-0.5-0.04-7.67-1.49-11.89c-1.45-4.21-1.33-4.71-4.33-6.7
		C134.04,72.1,129.71,74.87,129.71,74.87z"/>
	<path class="st7" d="M139.53,50.32c0,0,3.04,2.27,4.34,5.14c1.3,2.88,1.33,3.73,3.11,4.29c1.79,0.56,3.21,0,3.19,0.98
		c-0.02,0.98-2.36,3.06-2.36,3.06s0.86,6.36,0.94,7.31s-6.84,1.93-6.84,1.93s-5,12.59-5.57,15.9c-0.35,1.99-1.21,3.86-2.51,5.42
		l-4.89-17.2l0.57-7.01c-0.51-1.02-0.93-2.08-1.25-3.18c-0.66-2.11,2.3-5.48,3.76-7.1c1.98-2.5,3.67-5.23,5.03-8.11
		C138.1,49.41,139.53,50.32,139.53,50.32z"/>
	<path class="st5" d="M141.91,73.03l-3.21,0.34l1.67,2.83L141.91,73.03z"/>
	<path class="st1" d="M144.14,59.11c0.21,0.7,0.09,1.33-0.27,1.44c-0.35,0.11-0.79-0.39-0.99-1.08c-0.2-0.69-0.08-1.33,0.27-1.45
		C143.5,57.91,143.94,58.45,144.14,59.11z"/>
	<path class="st3" d="M141.68,57.31c0,0,0.66-1.19,1.59-0.87"/>
	<path class="st3" d="M143.83,64.32c0.25,0.45,0.63,0.81,1.09,1.03c0.46,0.23,0.97,0.32,1.48,0.25"/>
	<path class="st5" d="M134.58,65.23c0,0,2.4-1.22,2.52-2.7c0.12-1.48-2.78-3.48-1.33-5.11c1.45-1.63,4.48-3.15,4.4-7.9
		c-0.09-4.75-6.48-5.63-9.69-5.14c-3.21,0.49-10.06,3.49-11.95,8.6c-1.89,5.11-1.21,9.36,0.6,12.35c1.6,2.5,4.12,4.28,7.02,4.94
		c1.99,0.41,3.99,1.52,5.15,1c1.16-0.51,1.17-2.66,1.17-3.71C132.47,66.5,134.58,65.23,134.58,65.23z"/>
	<path class="st0" d="M136.21,66.29c0,0-3.49-3.16-4.61-2.37c-0.35,0.26-0.64,0.59-0.84,0.97c-0.2,0.38-0.32,0.81-0.33,1.24
		c-0.02,0.43,0.07,0.87,0.25,1.26c0.18,0.4,0.44,0.75,0.78,1.03c0.31,0.29,0.68,0.51,1.08,0.65c0.4,0.14,0.83,0.2,1.25,0.17
		c0.42-0.03,0.84-0.15,1.21-0.35c0.37-0.2,0.71-0.47,0.97-0.81"/>
	<path class="st3" d="M136.21,66.29c0,0-3.49-3.16-4.61-2.37c-0.35,0.26-0.64,0.59-0.84,0.97c-0.2,0.38-0.32,0.81-0.33,1.24
		c-0.02,0.43,0.07,0.87,0.25,1.26c0.18,0.4,0.44,0.75,0.78,1.03c0.31,0.29,0.68,0.51,1.08,0.65c0.4,0.14,0.83,0.2,1.25,0.17
		c0.42-0.03,0.84-0.15,1.21-0.35c0.37-0.2,0.71-0.47,0.97-0.81"/>
	<path class="st5" d="M118.04,54.04c0,0-2.2-5.14-9.1-4.57s-7.74,6.08-7.03,8.39s2.16,5.44,0.56,5.73c-1.6,0.29-4.99-0.16-7.71,3.06
		c-2.72,3.22,0.31,8.11,3.47,8.9c3.16,0.79,2.56,0.7,2.56,0.7s-3.98-0.05-3.23,3.12c0.76,3.16,7.39,3.23,9.91,2.09
		c2.52-1.14-0.48-4.78-0.48-4.78s4.87-0.5,6.51-2.16c1.64-1.66-0.37-2.56,1.76-3.14c2.13-0.58,4.33,0.28,4.8-1.95
		c0.47-2.23-0.58-1.06-0.94-4.11C118.76,62.28,116.49,61.52,118.04,54.04z"/>
	<path class="st3" d="M114.47,99.05l5.46-4.21"/>
	<path class="st7" d="M85.28,130.44c0,0-0.13,3.79,0,4.6c0.31,1.24,0.78,2.44,1.39,3.56c0.54,0.92,1.89,2.17,1.33,2.73
		c-0.56,0.57-1.61-0.17-1.99-0.66c-0.46-0.74-0.88-1.5-1.25-2.28l-0.48,8.09l-0.94,0.45c-0.28-0.31-0.45-0.71-0.48-1.12
		c0-0.66-0.57-5.66-0.57-5.66s-1.71,7.48-1.93,7.79c-0.22,0.32-1.3,0.05-1.29-0.42c0.01-0.46,0.6-6.9,0.6-6.9s-1.93,6.22-2.07,6.52
		c-0.13,0.3-1.02,0.56-1.28,0.14c-0.26-0.42,0.26-1.63,0.26-1.63l1.41-5l-2.88,4.62c0,0-0.81,0.15-0.66-0.63
		c0.15-0.77,2.43-5.56,2.43-5.56s0.05-2.8,0.31-3.41s3.12-6.65,3.12-6.65L85.28,130.44z"/>
</g>
</svg>
