<?xml version="1.0" encoding="utf-8"?>
<!-- Generator: Adobe Illustrator 25.2.0, SVG Export Plug-In . SVG Version: 6.00 Build 0)  -->
<svg version="1.1" id="Layer_1" xmlns="http://www.w3.org/2000/svg" xmlns:xlink="http://www.w3.org/1999/xlink" x="0px" y="0px"
	 viewBox="0 0 402 255" style="enable-background:new 0 0 402 255;" xml:space="preserve">
<style type="text/css">
	.st0{fill:#FFFFFF;}
	.st1{fill:#0C0D48;}
	.st2{fill:#E71D7C;}
	.st3{fill:none;stroke:#0C0D48;stroke-linecap:round;stroke-linejoin:round;}
	.st4{fill:#E1EDFA;}
	.st5{fill:#0C0D48;stroke:#0C0D48;stroke-linecap:round;stroke-linejoin:round;}
	.st6{fill:#E71D7C;stroke:#0C0D48;stroke-linecap:round;stroke-linejoin:round;}
	.st7{fill:#FFFFFF;stroke:#0C0D48;stroke-linecap:round;stroke-linejoin:round;}
	.st8{fill:none;stroke:#FFFFFF;stroke-linecap:round;stroke-linejoin:round;}
</style>
<g>
	<path class="st1" d="M175.05,41.67c2.56-1.19,5.39-1.87,8.29-2.01c2.9-0.13,5.79,0.3,8.48,1.25c1.75,0.57,3.13-0.14,4.46-0.73
		c2.93-1.27,6.09-2.06,9.33-2.34c4.35-0.47,8.76-0.07,12.91,1.19c4.06,1.27,7.83,3.15,11.16,5.54c3.19,2.22,6.85,3.99,10.26,6.01
		c1.87,1.07,3.67,2.22,5.4,3.46c1.43,1.09,2.57,2.43,3.36,3.94c0.79,1.51,1.21,3.14,1.22,4.8c0.33,4.8-1.65,9.06-3.96,13.24
		c-0.19,0.39-0.42,0.76-0.68,1.11c-0.09,0.12-0.23,0.21-0.38,0.25c0.13,2.07,0.27,3.98,0.38,5.89c0.01,2.87-0.86,5.69-2.53,8.16
		c-1.3,2.4-3.05,4.6-5.18,6.49c-0.96,0.82-2.08,1.51-3.13,2.22l-0.25-0.07l0.18,0.13c-2.71,1.36-5.75,2.12-8.87,2.22
		c0.06,0.24,0.06,0.48,0,0.72c-2.1,3.46-2.53,7.3-3.29,11.08c-0.87,3.99-1.11,8.07-0.72,12.11c0.25,2.48,0.53,5.07,2.31,7.23
		c0.44,0.54,0.95,1.11,1.42,1.59v0.06v-0.08c0.56-0.09,1.11-0.2,1.68-0.26c1.74-0.16,2.39,0.27,2.76,1.76
		c0.37,1.5,0.46,1.61,2.15,1.53c2.77-0.13,5.53-0.43,8.31-0.52c4.14-0.15,8.28-0.31,12.42-0.22c2.6,0.18,5.16,0.68,7.6,1.5
		c1.37,0.32,2.64,0.89,3.73,1.68c1.09,0.79,1.98,1.77,2.6,2.87v0.31l4.18,9.42c4.18-0.49,8.21-0.93,12.23-1.42
		c1.1-0.15,2.12-0.57,2.95-1.22c1.04-0.65,2.12-1.24,3.24-1.77c1.23-2.32,1.67-4.9,1.27-7.43c0-0.28-0.11-0.55-0.11-0.82
		c0-0.27,0.1-0.93,0.77-0.79c0.2,0.04,0.39,0.13,0.55,0.24c0.16,0.12,0.29,0.26,0.39,0.42c1,2.98,0.69,6.18-0.87,8.97
		c-0.14,0.24-0.28,0.5-0.41,0.74c-0.02,0.1-0.02,0.21,0,0.31c0.53,0.11,1.06,0.18,1.6,0.23c2.06,0.2,4.13,0.27,6.21,0.2
		c3.32-0.27,6.6-0.82,9.89-1.24c1.93-0.36,3.8-0.91,5.59-1.65c3.26-1.25,6.28-2.95,8.94-5.02c0.63-0.4,1.29-0.77,1.96-1.11
		l0.34,0.28l-0.3-0.3c-1.08-1.45-2.14-2.91-3.27-4.34c-1.51-2.15-2.63-4.49-3.29-6.95c-0.99-3.12-1.48-6.35-1.46-9.59
		c-0.03-0.71-0.1-1.42-0.22-2.13c-0.8,2.63-1.59,5.4-2.53,8.14c-0.3,0.92-0.78,1.8-1.42,2.58c-3.33,4.02-7.27,7.44-12.89,8.92
		c-4.21,1.07-8.71,0.92-12.82-0.43c-3.96-1.36-7.48-3.53-10.27-6.33c-4.17-3.76-7.71-8.01-10.52-12.64
		c-0.28-0.45-0.49-0.92-1.27-0.85c-0.08,0-0.16-0.01-0.23-0.04c-0.07-0.03-0.14-0.07-0.19-0.12c-1.13-1.28-2.99-1.62-4.29-2.65
		c-1.3-1.03-2.53-2.13-3.8-3.2l0.25,1.51c-0.14,0.12-0.32,0.2-0.51,0.23c-0.19,0.04-0.39,0.03-0.57-0.03
		c-0.18-0.05-0.35-0.15-0.48-0.28c-0.13-0.13-0.21-0.28-0.25-0.45c-0.82-1.98-1.68-3.96-2.33-5.99c-0.48-1.44-0.79-2.93-0.9-4.43
		c-0.1-1.83-0.01-3.66,0.25-5.48c0.33-2.18,0.83-4.34,1.49-6.46c0.48-1.05,1.07-2.06,1.79-3c0.56-0.93,0.99-1.93,1.62-2.82
		c1.32-1.8,2.69-3.57,4.13-5.31c0.73-0.85,1.55-1.63,2.44-2.35c0.82-0.76,1.75-1.42,2.76-1.96c1.39-0.67,2.03-1.87,3.05-2.79
		c1.67-1.4,3.57-2.56,5.64-3.46c2.8-1.42,5.73-2.64,8.76-3.64c4.16-1.39,8.57-2.11,13.02-2.11c0.99,0,1.98,0.11,2.94,0.18
		c0.53-1.23,1-2.38,1.52-3.52c0.78-1.52,1.95-2.86,3.41-3.92c0.32-0.29,0.74-0.49,1.19-0.56c0.45-0.07,0.92-0.02,1.34,0.15
		c-0.09,0.37-0.26,0.72-0.49,1.04c-0.77,0.74-1.69,1.37-2.44,2.12c-1.18,1.38-2,2.98-2.39,4.67c1.39-1.04,2.53-1.97,3.8-2.83
		c0.5-0.33,1.07-0.56,1.68-0.68c0.34-0.07,0.76,0.21,1.15,0.33c-0.15,0.3-0.35,0.59-0.61,0.83c-1.05,0.74-2.17,1.42-3.24,2.15
		c-0.27,0.25-0.5,0.53-0.7,0.83c2.99,1.04,5.88,1.97,8.66,3.05c6.69,2.58,11.7,6.59,13.68,12.95c0.53,2.23,0.69,4.51,0.46,6.78
		c-0.08,3.21,0.11,6.43,0.2,9.64c0,0-0.08,0.07-0.06,0.1c0.01,0.07,0.03,0.14,0.06,0.21c0.18,2.15-0.75,4.1-1.41,6.11
		c-0.56,1.2-0.95,2.46-1.15,3.75c-0.23,1.27-0.63,2.5-1.18,3.69c-0.23,0.73-0.37,1.49-0.52,2.22c-0.29,1.42-0.55,2.85-0.85,4.27
		c-0.46,2.09-0.96,4.18-1.41,6.28c-0.04,0.45-0.04,0.91,0,1.36c0,1.59,1.27,3.11,0.25,4.74c0.53,1.43,0.95,2.9,1.6,4.3
		c1.37,2.78,3.16,5.39,5.32,7.76c0.56,0.75,1.06,1.54,1.48,2.36c2.33,0.24,5.07,0.47,7.82,0.84c5.42,0.75,10.83,1.54,16.22,2.44
		c1.29,0.25,2.49,0.76,3.52,1.48c1.03,0.72,1.85,1.65,2.41,2.69c2.28,4,3.98,8.23,5.07,12.59c1.52,5.36,2.53,10.82,3.9,16.24
		c0.56,2.28,1.27,4.56,1.8,6.85c0.7,3.05,1.27,6.12,1.94,9.18c0.49,2.45,1.01,4.89,1.46,7.34c0,0.58-0.08,1.15-0.23,1.72
		c-0.08,0.48-0.11,0.97-0.09,1.46c0.15,1.7,0.32,3.39,0.54,5.08c0.11,0.86-0.06,1.29-1.27,1.21c-1.2-0.08-1.57,0.43-1.66,1.42
		c-0.61,6.84-1.75,13.63-3.42,20.33c-0.42,1.64-1,3.25-1.6,4.84c-0.09,0.2-0.23,0.38-0.41,0.53c-0.18,0.15-0.39,0.26-0.63,0.33
		c-4.48,0.69-8.97,1.51-13.5,1.9c-5.33,0.37-10.68,0.26-15.98-0.36c-4.38-0.44-8.78-0.76-13.16-1.2c-2.44-0.24-4.88-0.55-7.31-0.9
		c-4.18-0.6-8.33-1.31-12.53-1.85c-4.76-0.6-9.46-1.51-14.07-2.72c-0.31-0.06-0.63-0.1-0.95-0.13c0,1.17,0,2.27,0,3.33
		c0,0.74,0,1.47,0,2.22c0,1.45-0.34,2.73-1.93,3.33c0.06,0.95,0.06,1.9,0,2.85c-0.06,0.42-0.29,0.81-0.65,1.09
		c-0.36,0.28-0.83,0.44-1.31,0.45c-3.49,0.41-7.03,0.45-10.54,0.13c-1.14-0.13-2.32,0-3.46-0.1c-3.94-0.24-7.88-0.47-11.8-0.82
		c-3.13-0.28-6.23-0.74-9.36-1.11c-0.36-0.01-0.72,0.04-1.06,0.14c-2.34,0.55-3.93-0.55-3.66-2.48c0.01-0.3-0.02-0.6-0.08-0.9
		l-1.27,0.07c-0.44,0-0.87,0.11-1.53,0.19c0.41,0.98,0.72,1.98,0.94,3c0.19,1.92,0.39,3.89-0.73,5.65
		c-0.39,0.51-0.92,0.94-1.54,1.24c-0.62,0.3-1.3,0.48-2.01,0.51c-4.01,0.48-8.04,0.81-12.07,1.11c-2.18,0.19-3.74-0.59-3.53-2.99
		c0.06-0.69,0-1.37,0-2.22c-3.01,0.34-5.9,0.75-8.8,0.95c-2.7,0.18-5.41,0.17-8.12,0.13c-2.04,0-4.08-0.21-6.1-0.32
		c-0.21,0.02-0.42,0.02-0.63,0c-2.15-0.39-2.44-0.61-2.79-2.58c-0.85-3.79-1.27-7.65-1.27-11.52c-1.93,0.08-3.81,0.51-5.54,1.27
		c0.13,0.45,0.12,0.92-0.01,1.37c-0.13,0.45-0.38,0.86-0.74,1.21c-0.36,0.34-0.8,0.61-1.3,0.76c-0.5,0.16-1.03,0.21-1.56,0.14
		c-1.03-0.15-2.06-0.29-3.08-0.49c-2.75-0.59-5.62-0.54-8.33,0.14c-3.45,0.92-7.09,1.21-10.68,0.85
		c-5.77-0.53-11.06-2.42-16.26-4.52c-4.23-1.71-8.41-3.51-12.66-5.18c-1.87-0.73-3.89-1.21-6.13-1.88c0.13,0.77,0.18,1.2,0.29,1.62
		c0.32,1.19,0.28,1.41-1.01,1.71c-2.53,0.6-4.96,1.63-7.6,2c-3.98,0.55-7.88,1.52-11.84,2.22c-4.26,0.74-8.51,1.52-12.79,2.02
		c-4.84,0.55-9.7,0.82-14.55,1.21c-2.3,0.18-4.61,0.45-6.91,0.51c-4.04,0.11-8.09,0.2-12.13,0.06c-3.56-0.12-7.11-0.58-10.66-0.85
		c-2.03-0.16-3.95-0.87-5.5-2.02c-1.55-1.16-2.65-2.71-3.14-4.44c-1.17-3.09-1.76-6.33-1.75-9.59c0.11-2.88,0.42-5.76,0.91-8.61
		c0.79-4.25,1.71-8.49,2.86-12.67c1.15-4.18,2.53-8,3.89-11.98c0.89-2.86,1.98-5.68,3.27-8.42c1.14-2.28,1.27-4.66,1.76-7
		c0.54-2.01,1.26-3.99,2.15-5.9c1.17-2.75,2.43-5.46,3.69-8.19c1.25-2.73,2.66-5.28,3.69-8c1.03-2.83,1.87-5.7,2.53-8.61
		c0.51-2.06,0.6-4.19,1.03-6.26c0.3-1.42-0.66-2.32-1.38-3.33c-1.27-1.72-2.09-3.67-2.39-5.7c-0.3-2.03-0.08-4.1,0.64-6.05
		c0.34-0.82,0.82-1.59,1.41-2.29c0.58-0.67,1.21-1.3,1.87-1.91c-2-2.22-2.39-5.1-2.8-7.92c-0.54-3.89,0.58-7.81,3.15-11.02
		c1.88-2.6,4.17-4.95,6.81-6.98c5.17-3.92,11.32-6.73,17.96-8.2c5.31-1.14,10.75-1.71,16.21-1.71c1.01,0,2-0.48,3.03-0.54
		c2.23-0.25,4.49-0.3,6.74-0.16c5.26,0.71,10.38,2.08,15.2,4.07c2.09,0.87,3.93,2.15,5.38,3.72c2.05,2.1,3.63,4.52,4.66,7.13
		c0.87,2.39,1.58,4.82,2.13,7.28c0.43,1.7,0.73,3.42,0.9,5.15c0.25,2.55,0.42,5.11,0.49,7.68c0,2.38,0,4.77-0.13,7.15
		c-0.1,2.07-0.53,4.14-0.49,6.21c-0.01,1.9-0.3,3.79-0.86,5.62c-0.68,2.36-1.91,4.56-3.63,6.47c-1.72,1.91-3.87,3.48-6.33,4.61
		c-0.44,0.2-0.78,0.54-0.95,0.95c-0.52,2.22-1,4.43-1.36,6.59c-0.79,3.7-0.99,7.47-0.6,11.22c0.13,0.72,0.3,1.44,0.35,2.22
		c0.14,2.34,2.13,2.98,4.31,3.55c1.06-4.87,2.06-9.75,3.24-14.62c1.27-5.26,4-9.79,9.64-12.45c2.69-1.23,5.59-2.08,8.59-2.49
		c3.09-0.47,6.19-0.93,9.31-1.39c2.72-0.39,5.46-0.74,8.18-1.11c1.08-0.17,2.15-0.37,3.22-0.59c0.29-0.08,0.56-0.21,0.8-0.39
		c0.91-0.72,1.81-1.47,2.85-2.32c-0.12-0.53,0-1.07,0.33-1.52c0.34-0.45,0.86-0.76,1.46-0.87c0.1-0.04,0.2-0.06,0.3-0.07
		c3.8-0.19,4.84-2.72,5.78-5.31c0.55-1.04,0.83-2.18,0.82-3.32c0-0.4,0.61-0.83,0.7-1.3c0.22-1.11,0.28-2.22,0.39-3.16
		c-2.36-1.04-4.58-1.9-6.66-2.97c-5.53-2.8-10.1-6.83-13.25-11.69c-1.79-2.85-3.17-5.87-4.12-9.01c-1.09-3.43-1.94-6.92-2.53-10.45
		c-0.28-1.63-0.48-3.33-0.76-4.89c0-0.31-0.28-0.76-0.54-0.85c-1.05-0.32-1.2-1.11-1.33-1.85c-0.29-1.75-0.49-3.51-0.75-5.39
		c0.16,0.07,0.11,0,0.08,0c-2.47,0.63-3.52-0.11-3.29-2.35c0.25-2.56,0.46-5.11,0.79-7.66c0.15-1.27,0.44-2.53,0.87-3.75
		c0.88-2.58,2.16-5.04,3.8-7.32c2.08-2.76,4.13-5.54,6.33-8.22c1.36-1.56,3.08-2.84,5.07-3.75L175.05,41.67z M269.03,230.09
		l-1.27,0.48l-0.3,0.32c-0.3,0.06-0.59,0.14-0.87,0.23c-2.28,0.93-4.52,1.93-6.83,2.8c-0.34,0.16-0.72,0.24-1.11,0.22
		c-0.39-0.02-0.76-0.12-1.08-0.31c-0.32-0.19-0.58-0.45-0.74-0.76c-0.17-0.31-0.23-0.65-0.19-0.98c0-0.45,0-0.91,0-1.35
		c-2.53-0.18-3.67-1.22-3.13-2.89c0.28-0.72,0.71-1.38,1.27-1.96c0.49-0.46,1.02-0.88,1.6-1.26c-0.66-2.22-0.49-3.58,1.52-4.98
		c3.92-2.78,8.34-4.98,13.08-6.51c3.44-1.2,7.24-1.32,10.77-0.34c0.68,0.14,1.38,0.25,2.08,0.32c1.22-3.9,1.77-7.95,1.65-11.99
		c-1.22,0.95-2.58,1.75-4.05,2.37c-5.03,1.84-10.31,3.09-15.7,3.75c-0.46,0.07-0.94,0-1.34-0.2c-0.41-0.2-0.72-0.52-0.89-0.91
		c-0.34-0.72-0.63-1.46-0.86-2.22c-0.68-2.59-1.31-5.17-1.9-7.76c-0.29-1.21-0.49-2.43-0.61-3.66c-0.07-0.32-0.07-0.65,0.01-0.97
		c0.08-0.32,0.23-0.62,0.44-0.89c0.21-0.27,0.48-0.5,0.8-0.67c0.31-0.18,0.66-0.3,1.03-0.36c3.19-0.74,6.41-1.35,9.61-2.01
		c2.61-0.53,5.23-1,7.81-1.56c1.44-0.32,1.99,0,2.2,1.27c0.18,1.55,0.53,3.07,1.05,4.56c0.67,1.33,1.48,2.6,2.41,3.8
		c0.02,0.04,0.05,0.08,0.08,0.11c0,0,0.06,0,0.1,0l-0.21-0.08c0.16-0.28,0.28-0.58,0.34-0.9c0.11-3.78,0.23-7.56,0.27-11.34
		c0-1.62-0.61-1.96-2.25-1.94c-4.36,0.15-8.7,0.56-12.99,1.23c-4.72,0.63-9.42,1.35-14.16,1.85c-4.74,0.5-9.31,0.74-13.93,1.11
		c-1.11,0.1-2.22,0.31-3.13,0.44c0,1.69,0,3.12,0,4.55c0.18,4.72,0.42,9.44,0.58,14.18c0.16,4.73,0.18,9.25,0.46,13.88
		c0.18,3.06,0.76,6.08,1.09,9.13c0.43,3.95,0.79,7.9,1.17,11.85c0,0.19,0.05,0.38,0.14,0.55c0.1,0.17,0.24,0.32,0.41,0.43
		c0.17,0.11,0.38,0.19,0.59,0.22c0.21,0.03,0.43,0.02,0.64-0.04c2.18-0.3,4.34-0.68,6.55-0.86c6.03-0.52,12.07-0.95,18.11-1.43
		c2.79-0.22,5.59-0.49,8.2-0.71l0.84-4.72c-0.23,0.02-0.46,0.06-0.68,0.11c-2.95,0.82-5.8,1.9-8.49,3.25
		c-2.21,1.06-4.7,1.61-7.22,1.61c-1.01,0-1.27-0.54-1.73-1.11c-0.47-0.57,0-1.11,0.43-1.46c0.75-0.71,1.56-1.36,2.42-1.96
		c1.41-0.94,2.89-1.8,4.34-2.68l0.29-0.32l1.27-0.48c0.03-0.03,0.06-0.06,0.08-0.1c0,0,0,0,0-0.07L269.03,230.09z M279.74,201.95
		c0.75-0.08,1.48-0.31,2.12-0.67c0.64-0.36,1.18-0.84,1.58-1.4l-3.67-0.37v2.46L279.74,201.95z M229.65,81.33
		c0.11-0.09,0.21-0.18,0.3-0.29c1.24-2.22,2.84-4.27,4.75-6.08c0.04,0.01,0.08,0.01,0.13,0c0,0,0,0,0-0.08l-0.1,0.16
		c-0.79,0.07-1.56,0.16-2.34,0.17c-1.19,0-2.41,0.95-3.65-0.1c0.74,2.03,1.05,4.16,0.9,6.28v0.06L229.65,81.33z M195.73,234.46v0.15
		c0,0,0,0,0-0.06l-0.08-0.08c-0.16-4.98-0.73-9.92-1.33-14.87c-0.6-4.95-1-9.88-1.48-14.82h-0.46c0.14,2.56,0.2,5.12,0.46,7.67
		c0.33,3.33,0.84,6.75,1.2,10.12c0.42,3.78,0.76,7.56,1.17,11.34C195.25,234.12,195.57,234.28,195.73,234.46z M283.26,244.51
		c-3.8,0.22-7.51,0.54-11.27,0.65c-4.51,0.13-9.03,0.07-13.54,0.12c-1.27,0-2.53,0.13-3.8,0.2v0.31c2.61,0.22,5.2,0.49,7.81,0.64
		c2.61,0.16,5.47,0.28,8.22,0.31c3.24,0,6.5,0.06,9.73-0.07c2.23-0.09,2.23-0.2,2.75-2.22h0.14L283.26,244.51z M162.65,212.37v-0.1
		v0.08c0,2.04-1.48,3.26-3.25,4.07c-1.81,0.72-3.68,1.3-5.61,1.72c-1.35,0.2-2.64,0.63-3.8,1.27c4.48,2.89,9.73,3.64,14.62,5.01
		c-0.28-2.83-0.65-5.54-0.79-8.26c-0.13-1.32-0.52-2.61-1.17-3.81V212.37z M327.7,144.07c-1.27-0.75-2.07-0.79-2.86,0.07
		c-3.58,3.86-8.49,5.92-13.72,7.33c-5.88,1.54-12.08,1.96-18.16,1.22c-2.18-0.32-4.41-0.3-6.59,0.06c-0.3,0.07-0.54,0.38-0.86,0.6
		c1.18,0.85,2.62,1.37,4.14,1.49c2.22,0.32,4.48,0.34,6.7,0.06c2.94-0.38,5.93-0.49,8.86-0.95c4.43-0.58,8.76-1.66,12.88-3.2
		c3.44-1.35,6.55-3.29,9.14-5.69c0.24-0.23,0.25-0.65,0.38-0.99h0.11c0,0,0-0.06,0-0.08L327.7,144.07z M288.03,207.03
		c0.09-0.16,0.15-0.33,0.19-0.5c0.44-4.43,0.8-8.97,1.27-13.43c0.39-3.48,0.99-6.94,1.47-10.41c0.29-1.59,0.25-3.22-0.11-4.8
		c-4.89,0.13-9.64,0.17-14.36,0.43c-3.61,0.2-7.21,0.67-10.8,1.04c-2.53,0.27-5,0.51-7.49,0.9c-3.61,0.55-7.19,1.21-10.79,1.86
		c-0.63,0.17-1.24,0.38-1.82,0.64c0.09,0.76,0.46,1.01,1.18,0.91s1.56-0.2,2.34-0.29c4.48-0.47,8.98-0.84,13.45-1.42
		c6.84-0.88,13.59-2.38,20.57-2.47c1.62,0,3.41-0.25,4.39,1.19c0.62,0.89,0.99,1.9,1.06,2.95c0.09,2.07-0.15,4.16-0.23,6.24
		c-0.18,5.03-0.34,10.07-0.48,15.11c0,0.7,0.1,1.39,0.15,2.08l-0.29,0.19l0.14,0.14L288.03,207.03z M123.93,179.54
		c0.14,0.18,0.25,0.39,0.32,0.6c0.32,3.13,0.67,6.25,0.9,9.39c0.35,4.66,0.65,9.31,0.94,13.98c0.28,4.37,1.36,8.69,1.11,13.1
		c0.02,0.21,0.11,0.41,0.24,0.59c0.14,0.18,0.32,0.32,0.53,0.42c0.22,0.1,0.45,0.15,0.7,0.14c0.24,0,0.48-0.06,0.69-0.16
		c0.92-0.43,1.76-0.98,2.66-1.45c2.53-1.33,4.84-3.04,7.7-3.92c1.8-0.55,3.58-1.11,5.51-1.78c-0.21-0.9-0.52-1.83-0.65-2.76
		c-0.56-4.43-1.03-8.87-1.61-13.3c-0.29-2.12-0.67-4.25-1.19-6.34c-0.67-2.74-1.84-5.41-2.18-8.17c-0.41-3.19-4.55-5.61-8.14-5.94
		c-0.35-0.06-0.68-0.18-0.98-0.37c-0.57-0.3-1.09-0.66-1.67-0.95c-1.27-0.62-2.53-1.16-3.7-1.82c-1.17-0.65-2.25-1.34-3.37-2.03
		l-0.1-0.08l0.13,0.06c0,0.22,0.1,0.44,0.16,0.67c1.09,3.3,1.76,6.7,2.01,10.13l-0.09,0.08c0,0,0,0,0,0.07L123.93,179.54z
		 M170.89,238.16l0.94,0.22v-0.15h-1c-0.73-0.28-1.47-0.57-2.22-0.81c-2.53-0.83-5.07-1.67-7.68-2.45
		c-0.85-0.26-1.91-0.26-1.72-1.37c0.11-0.7,0.9-0.82,2.46-0.51c0.15,0,0.32,0,0.47,0.07l6.55,1.9c4.07,1.21,8.13,2.45,12.22,3.6
		c1.23,0.35,2.51,0.55,3.8,0.61c1.27,0.07,1.7-0.74,0.94-1.63c-0.17-0.19-0.39-0.35-0.64-0.47c-0.25-0.12-0.52-0.19-0.79-0.21
		c-3.44,0-6.59-1.11-9.69-2.1c-4.92-1.8-10.07-3.1-15.32-3.89c-0.62-0.07-1.43-0.2-1.27-0.91c0.06-0.37,0.72-0.67,1.16-0.93
		c0.24-0.1,0.5-0.13,0.76-0.08c1.88,0.13,3.74,0.4,5.56,0.81c4.81,1.41,9.56,2.99,14.31,4.53c1.84,0.66,3.85,0.88,5.81,0.61
		c0-1.11-0.94-1.47-1.75-1.86c-3.27-1.76-6.74-3.22-10.36-4.34c-4.08-1.11-8.12-2.22-12.18-3.32c-3.35-0.71-6.58-1.8-9.61-3.24
		c-1.15-0.62-2.22-1.4-3.42-1.93c-0.94-0.42-1.03-0.93-0.46-1.51c0.56-0.67,1.29-1.21,2.14-1.57c2.31-0.73,4.72-1.2,7.05-1.87
		c0.75-0.13,1.45-0.4,2.05-0.8c0.61-0.4,1.1-0.91,1.45-1.5c0.52-1.11,0.3-1.45-1.04-1.43c-2.66,0-5.32,0.14-7.98,0.18
		c-5.38,0.11-10.63,1.47-15.2,3.96c-2.27,1.19-4.55,2.39-6.76,3.67c-0.48,0.31-0.84,0.74-1.01,1.24c-0.4,1.18-0.69,2.39-0.89,3.61
		c-0.23,1.49-0.29,2.99-0.42,4.5c3.02,0.4,5.96,1.17,8.74,2.29c3.12,1.22,6.14,2.59,9.27,3.75c3.13,1.15,6.08,2.06,9.14,3.04
		c3.93,1.35,8.15,1.91,12.36,1.63c-1.81-0.54-3.62-1.11-5.41-1.66c-0.37-0.12-0.58-0.55-0.87-0.85c0.43-0.18,0.87-0.52,1.27-0.5
		c0.82,0.12,1.63,0.28,2.43,0.49c2.27,0.4,4.55,0.78,6.79,1.17V238.16z M160.46,72.75c1.1-0.38,2.2-1.45,3.32,0.13
		c0.05-0.35,0.16-0.68,0.34-1c1.68-1.99,2.98-4.2,3.86-6.55c1.42-2.97,2.19-6.15,2.27-9.37c0-0.63,0.27-1.11,1.06-1.02
		c0.8,0.09,0.84,0.58,0.82,1.23c-0.07,2.06,0.01,4.12,0.23,6.17c0.3,1.2,0.77,2.36,1.39,3.46c0.23-0.95,0.32-1.92,0.28-2.89
		c-0.07-2.11,0.41-4.22,1.42-6.14c0.24-0.48,0.42-0.99,0.53-1.51c0.42-1.4,0-2.98,1.08-4.23c0.35-0.28,0.75-0.51,1.18-0.69
		c0.09,0.41,0.37,0.88,0.22,1.22c-0.56,1.73-0.72,3.54-0.47,5.32c0.1,0.96,0.26,1.92,0.48,2.87c0.13-0.21,0.24-0.43,0.33-0.65
		c0.32-1.76,0.53-3.55,0.94-5.3c0.64-2.52,2.01-4.84,3.99-6.75c0.24-0.24,0.54-0.43,0.87-0.55c0.34-0.12,0.7-0.17,1.06-0.15
		c1.89,0.47,3.94,0.63,5.55,1.77c0.21,0.16,0.48,0.25,0.75,0.26c0.28,0.01,0.55-0.06,0.78-0.19c0.78-0.35,1.66-0.46,2.52-0.33
		c0.86,0.14,1.64,0.52,2.23,1.08c1.35,1.28,2.28,2.87,2.66,4.58c0.84,3.28,0.95,6.66,0.33,9.98c-0.15,0.78-0.22,1.56-0.37,2.65
		c2.23-1.76,3.59-4.22,3.8-6.84c0.13-3.27-0.48-6.52-1.81-9.58c-0.11-0.31,0.11-0.73,0.18-1.11c0.39,0.16,0.99,0.21,1.11,0.47
		c0.49,0.9,0.8,1.86,1.2,2.79c0.85,1.96,0.38,4.29,2.19,5.97c0.06,0.08,0.11,0.16,0.13,0.25c0.71,2.18,1.9,4.21,3.52,5.97
		c1,1.16,2.22,2.22,3.33,3.32l0.28-0.18c-0.3-0.91-0.68-1.82-0.9-2.75c-0.15-0.67-0.32-1.54,0.63-1.82
		c0.95-0.28,1.27,0.55,1.56,1.19c0.58,1.34,1.53,2.54,2.76,3.49c0.49,0.39,0.92,0.62,1.44,0c-2.25-3.51-3.62-7.4-4.01-11.42
		c-0.08-0.65-0.09-1.2,0.62-1.33c0.71-0.13,0.81,0.61,0.94,1.05c0.52,1.82,0.89,3.68,1.48,5.54c0.83,3,2.43,5.8,4.67,8.19
		c0.25,0.19,0.51,0.37,0.8,0.52c-1.58-4.76-2.68-9.64-3.31-14.56l1.18-0.62c0.28,0.52,0.52,1.06,0.72,1.61
		c0.96,3.61,1.85,7.26,2.86,10.87c0.4,1.91,1.37,3.69,2.82,5.15c0.52,0.43,1.13,0.76,1.8,0.99c0.73,0.21,1.48,0.36,2.24,0.47
		l-2.43-2.66h0.14l-0.1-0.1v0.13c-0.46-0.81-0.97-1.6-1.34-2.44c-1.48-3.4-1.58-6.98-1.71-10.55c0.1-0.64,0.31-1.26,0.63-1.84
		c0.97,0.16,1.17,0.53,1.19,1.11c0.11,1.74,0.22,3.49,0.49,5.21c0.58,3.59,1.7,6.99,4.58,9.76c0.66,0.62,1.27,1.29,1.9,1.93
		c2.87-2.22,5.42-1.44,8.11,1.65c1.8-3.81,3.39-7.63,3.38-11.77c0.16-2.68-0.81-5.33-2.71-7.44c-1.79-1.68-3.86-3.1-6.14-4.22
		c-3.02-1.56-5.93-3.28-8.7-5.15c-3.8-2.76-7.6-5.32-12.39-6.65c-3.94-1.18-8.14-1.52-12.26-1c-3.07,0.31-6.07,1.06-8.87,2.22
		c-0.79,0.35-1.55,0.74-2.53,1.23c-2.52-1.21-5.36-1.83-8.23-1.82c-2.81-0.17-5.63,0.31-8.16,1.4c-2.53,1.08-4.7,2.73-6.28,4.78
		c-1.99,2.48-3.8,5.05-5.58,7.67c-1.95,2.72-3.25,5.77-3.8,8.94c-0.42,2.87-0.71,5.75-1.05,8.62h-0.08L160.46,72.75z M272.8,87.16
		v-0.07v0.08l2.53,4.71c-0.14,0.16-0.3,0.29-0.5,0.38c-0.19,0.1-0.41,0.16-0.63,0.19c-0.22,0.02-0.45,0.01-0.66-0.04
		c-0.21-0.05-0.42-0.14-0.59-0.26c-0.84-0.48-1.71-0.91-2.53-1.39c-1.37-0.8-2.72-1.63-4.15-2.48c-0.34,0.51-0.65,0.99-0.96,1.45
		c-1.56,2.28-2.65,4.78-3.23,7.39c-0.61,3.82-0.18,7.71,1.27,11.35c1.96,5.52,4.99,10.71,8.95,15.34c2.88,3.6,6.32,6.84,10.22,9.62
		c3.48,2.35,7.79,3.56,12.18,3.41c-0.54-0.4-1.05-0.84-1.52-1.31c-0.17-0.31-0.27-0.64-0.3-0.97c0.41-0.1,0.84-0.16,1.27-0.16
		c0.25,0,0.46,0.35,0.71,0.51c0.73,0.5,1.49,0.97,2.24,1.45c-0.14-0.63-0.38-1.23-0.71-1.8c-0.08-0.14-0.12-0.3-0.11-0.45
		s0.08-0.31,0.2-0.43c0.11-0.12,0.26-0.22,0.43-0.27c0.17-0.05,0.35-0.05,0.53-0.01c0.49,0.09,0.95,0.28,1.34,0.55
		c0.58,0.41,1.12,0.84,1.65,1.3c0-0.99,0-1.65,0-2.31c0-1.33,0.82-1.83,2.23-1.36c0.71,0.23,1.39,0.52,2.32,0.86
		c-0.19-0.47-0.35-0.95-0.48-1.43c-0.04-0.14-0.03-0.29,0.01-0.43c0.04-0.14,0.12-0.27,0.23-0.38c0.11-0.11,0.25-0.19,0.41-0.24
		c0.16-0.05,0.32-0.07,0.49-0.06c0.42,0.02,0.83,0.15,1.15,0.39c0.86,0.68,1.49,0.47,2.1-0.26c0.2-0.24,0.42-0.49,0.61-0.7
		c-0.2-0.69-1.58-0.94-0.91-1.76c0.67-0.82,1.44,0.08,2.18,0.33c1.29-2.19,2.23-4.53,2.8-6.94c0.46-1.88,0.66-3.81,1.06-5.7
		c0.19-0.86,0-2.07,1.74-1.98c0.18,0,0.41-0.4,0.56-0.63c1.6-2.31,3.34-4.53,4.7-6.95c1.21-1.84,1.85-3.92,1.87-6.04
		c0.03-0.74,0.1-1.48,0.22-2.22c0.13-0.91,0.13-1.83,0-2.74c-0.38-1.29-1.05-2.51-1.97-3.58c-0.92-1.07-2.07-1.96-3.39-2.64
		c-1.94-1.11-3.72-0.76-5.27,0.82c-1.43,1.59-2.53,3.39-3.24,5.32c2.01,1.11,0.33,2.48,0.53,3.69c0.39,0.44,1,0.93,0.97,1.4
		c-0.08,1.46-0.28,2.91-0.58,4.35c0,0.28-0.54,0.7-0.81,0.69c-0.21-0.03-0.42-0.09-0.61-0.19c-0.18-0.1-0.34-0.24-0.46-0.39
		c-0.21-0.42-0.35-0.86-0.42-1.31c-1.27-0.37-1.58-0.72-1.43-1.74c0-0.45,0.37-0.94,0.25-1.35c-0.76-3.04-1.98-5.98-3.61-8.74
		c-0.35-0.58-0.87-0.63-1.55-0.7c-1.34-0.09-2.67-0.33-3.95-0.7c-0.38-0.21-0.83-0.31-1.28-0.3c-0.45,0.01-0.89,0.14-1.25,0.36
		c-0.46,0.19-0.97,0.24-1.47,0.16c-4-0.54-7.74-2.08-10.78-4.43c-0.92-0.67-1.75-1.44-2.82-2.34c1.15,2.99,2.93,5.76,5.27,8.17
		c0.26,0.26,0.4,0.6,0.41,0.94c0,0.1-0.56,0.24-0.87,0.32c-0.22,0.04-0.44,0.06-0.66,0.07c0.09,0.12,0.14,0.26,0.15,0.4
		c0.01,0.14-0.02,0.29-0.1,0.42c-0.07,0.13-0.18,0.24-0.32,0.32c-0.14,0.08-0.3,0.13-0.46,0.14c-0.5,0.12-1.03,0.14-1.54,0.06
		c-1.88-0.29-3.64-1.03-5.07-2.14c-1.53-1.51-3.01-3.14-4.58-4.64V87.16z M259.84,223.11c0.9-0.15,1.8-0.34,2.67-0.58
		c0.89-0.29,1.66-0.81,2.53-1.11c3.38-1.12,6.75-2.2,10.13-3.25c0.83-0.2,1.68-0.34,2.53-0.42c0.49,1.16,0.49,1.22-0.33,1.5
		c-1.75,0.59-3.53,1.11-5.28,1.72c-2.39,0.82-4.76,1.71-7.15,2.54c-1.53,0.69-3.16,1.18-4.85,1.47c-2.27,0.14-3.34,1.35-4.46,2.69
		c-0.17,0.35-0.26,0.73-0.27,1.11c0.7,0.21,1.45,0.27,2.18,0.18c0.73-0.09,1.43-0.34,2.04-0.71c1.19-0.67,2.39-1.31,3.65-1.87
		c4.09-1.86,8.07-3.93,12.66-4.78c0.35-0.11,0.73-0.15,1.1-0.1c0.37,0.05,0.72,0.17,1.03,0.37c0,0.82-0.61,1.11-1.27,1.26
		c-1.8,0.48-3.56,1.04-5.29,1.68c-4.1,1.73-8.13,3.57-12.18,5.39c-1.14,0.5-1.27,1.02-0.67,2.33c0.29-0.06,0.58-0.14,0.85-0.24
		c4.24-1.86,8.45-3.78,12.66-5.54c2.01-0.8,4.06-1.49,6.15-2.08c0.37-0.11,0.9,0.2,1.36,0.32c-0.2,0.34-0.42,0.67-0.66,0.99
		c-0.15,0.13-0.34,0.22-0.54,0.27c-1.67,0.62-3.36,1.21-5.07,1.87c-0.34,0.13-0.56,0.51-0.81,0.78c-0.5,0.68-1.08,1.31-1.75,1.87
		c-1.58,1.05-3.32,1.94-4.93,2.95c-1.19,0.75-2.29,1.62-3.61,2.54c2.39,0.09,4.75-0.5,6.73-1.68c2.39-1.33,5.01-2.31,7.75-2.93
		c0.72-0.2,1.54-0.54,1.97,0.44c0,0.12,0.46,0.19,0.68,0.18c2.62-0.17,5.26,0.13,7.75,0.88c5.11,1.19,10.3,2.11,15.54,2.74
		c3.63,0.55,7.28,1,10.92,1.47c4.14,0.53,8.26,1.11,12.41,1.56c3.32,0.37,6.66,0.6,10.01,0.84c2.72,0.2,5.45,0.5,8.17,0.49
		c3.87,0,7.75-0.2,11.61-0.5c2.53-0.2,5.07-0.73,7.52-1.11c2.18-8.16,3.86-16.41,5.04-24.73c-7.85,0.12-15.49-0.09-22.87,0.74v6.35
		h7.08c0.57-0.02,1.14,0.01,1.71,0.09c0.25,0,0.67,0.34,0.65,0.48c-0.02,0.15-0.08,0.29-0.18,0.41c-0.1,0.12-0.23,0.22-0.38,0.29
		c-1.05,0.27-2.14,0.45-3.23,0.53c-6.77,0.21-13.54-0.06-20.26-0.8l-16.29-1.36c-2.6-0.22-5.19-0.51-7.79-0.73
		c-2.6-0.22-4.9-0.31-7.35-0.52c-2.44-0.21-4.91,0.53-7.22-0.64c-1.04-0.52-2.17-0.92-3.24-1.41c-1.72-0.95-3.53-1.76-5.42-2.43
		c-4.27-1.2-8.89-1-13.01,0.57c-4.05,1.56-7.83,3.59-11.26,6.03c-0.38,0.2-0.72,0.46-0.98,0.77c-0.26,0.32-0.45,0.67-0.54,1.06
		l1.67-0.2L259.84,223.11z M119.53,87.73c0.01-0.04,0.01-0.07,0-0.11c0,0-0.06,0-0.09,0l0.18,0.1l2.47,2.84
		c0.72,0.83,0.84,1.54,0.11,1.91c-1.26,0.76-2.27,1.8-2.91,3.01c-2.1,3.23-4.86,6.11-8.13,8.48c-2.07,1.46-4.05,3-5.94,4.63
		c-2.37,2.26-5.01,4.29-7.86,6.06c-3.47,1.95-7.07,3.74-10.58,5.64c-1.27,0.7-2.98,1.11-3.27,2.75c-0.17,0.81-0.3,1.63-0.37,2.45
		c0,0.77-0.32,1.37-1.2,1.59c-0.37,0.07-0.75,0.02-1.08-0.13c-0.33-0.15-0.59-0.4-0.74-0.71c-0.86-1.12-1.82-2.17-2.87-3.15
		c-0.91-0.99-2.11-1.75-3.47-2.2c-1.36-0.45-2.83-0.57-4.26-0.36c-1.05,0.09-2.06,0.44-2.9,0.99c-0.85,0.55-1.51,1.3-1.91,2.16
		c-1.12,2.35-1.2,4.99-0.23,7.39c0.59,2,1.82,3.81,3.56,5.2c1.74,1.4,3.9,2.32,6.23,2.66c2.19,0.26,4.4,0.26,6.59,0
		c0.95-0.17,1.86-0.45,2.72-0.84c-0.4-0.79-0.75-1.61-1.04-2.44c-0.14-0.5-0.27-1.19,0.56-1.42c0.82-0.23,1.06,0.27,1.37,0.81
		c1.35,2.17,3.13,4.11,5.24,5.75c3.01,2.63,6.5,4.8,10.31,6.45c2.65,1.19,5.52,1.97,8.49,2.29c3.49,0.24,7,0.24,10.5,0
		c1.84-0.1,3.71,0.11,5.53-0.6c3.94-1.54,7.88-2.99,11.22-5.54c1.96-1.44,3.45-3.3,4.31-5.41c1.55-3.88,1.68-8.01,1.93-12.1
		c0.13-2.08,0.28-4.17,0.34-6.25c0-1.91,0-3.81,0-5.69l-1.66,0.48c-0.67,1.26-1.43,2.48-2.25,3.66c-0.33,0.37-0.8,0.61-1.33,0.68
		c-0.53,0.07-1.06-0.04-1.5-0.3c-0.44-0.26-0.75-0.66-0.87-1.11c-0.12-0.45-0.04-0.93,0.23-1.33c0.77-1.26,1.7-2.45,2.53-3.64
		c-2.77,0.3-5.45,1.05-7.9,2.22c0.04,0.23,0.13,0.46,0.25,0.66c1.46,1.43,3.01,2.79,4.36,4.3c0.74,0.82,1.27,1.77,1.53,2.78
		c0.61,2.52-0.8,4.52-2.53,6.36c-0.71,0.76-1.51,1.44-2.39,2.05c-0.51,0.35-1.27,0.69-1.79,0c-0.52-0.69-0.11-1.01,0.3-1.46
		c0.81-0.89,1.58-1.8,2.36-2.72c1.96-2.36,1.86-3.96-0.18-6.18c-1.38-1.5-2.63-3.09-3.93-4.66c-0.63-0.77-1.06-1.64-1.25-2.57
		c-0.19-0.93-0.14-1.88,0.15-2.79c0.22-0.95,0.71-1.83,1.43-2.57c0.72-0.74,1.63-1.31,2.66-1.65c2.46-0.98,5.21-1.27,7.86-0.82
		c0.96,0.13,1.94,0.21,2.91,0.24c-0.47-1.83-0.86-3.49-1.33-5.13c-0.14-0.45-0.39-0.86-0.72-1.22c-1.88-2.08-4.09-3.91-6.56-5.44
		c-1.68-1.2-3.82-1.77-5.98-1.61c-0.51-0.05-0.99-0.24-1.36-0.55c-1.43-1.02-2.79-2.09-4.22-3.1
		C120.65,88.22,120.1,87.95,119.53,87.73z M91.66,217.58l0.2,0.1l-0.22-0.1c0-0.68-0.06-1.35,0-2.03c0.08-4.17,0.14-8.34,0.28-12.5
		c0-1.52,0.35-3.03,0.35-4.53c0-3.32-0.1-6.72-0.28-10.06c-0.14-3.22-0.96-6.39-2.42-9.34c-1.77-3.52-3.61-7.04-5.47-10.53
		c-0.61-1.11-1.42-2.22-2.17-3.33c-1.27,0.51-2.37,0.98-3.48,1.35c-2.7,0.92-5.37,1.91-8.12,2.68c-4.88,1.35-9.25,3.82-12.66,7.15
		c-0.71,0.67-1.35,1.4-1.93,2.16c-2.02,3.06-3.58,6.33-4.65,9.74c-1.63,4.43-3.08,9.01-4.46,13.56c-0.94,3.08-1.77,6.2-2.42,9.33
		c-0.79,3.78-1.27,7.6-1.98,11.4c-0.52,2.72-0.35,5.5,0.49,8.16c0.29,0.93,0.76,1.82,1.04,2.75c0.47,1.56,1.44,2.98,2.79,4.08
		c0.82,0.63,1.8,1.07,2.86,1.27c1.5,0.21,3.02,0.33,4.55,0.35c1.67,0.11,3.36,0.14,5.07,0.31c3.79,0.34,7.6,0.37,11.4,0.11
		c3.98-0.21,7.94-0.62,11.9-0.97c2.76-0.24,5.52-0.51,8.28-0.81c2.53-0.29,5.13-0.6,7.67-0.96c2.13-0.31,4.23-0.72,6.33-1.11
		c1.74-0.32,3.47-0.7,5.22-1.01c5.17-0.95,10.35-1.88,15.6-2.84c-1.08-4.55,0.63-8.69,1.43-12.93c-0.58,0-1.1,0-1.62,0
		c-7.32,0.26-14.64,0.59-21.97,0.75c-5.79,0.13-11.6,0-17.4,0.11c-3.34,0.06-6.69,0.28-10.03,0.34c-3.66,0.03-7.31,0.4-10.88,1.11
		c-1.84,0.39-3.69,0.73-5.53,1.03c-0.37,0-0.79-0.21-1.19-0.33c0.13-0.32,0.33-0.62,0.58-0.88c0.37-0.26,0.81-0.44,1.27-0.53
		c1.42-0.33,2.86-0.57,4.27-0.93c0.23-0.06,0.44-0.16,0.62-0.3c0.18-0.14,0.32-0.31,0.42-0.5c0.67-2.44,1.19-4.91,1.85-7.35
		c0.84-3.1,1.72-6.2,2.63-9.28c0.63-2.12,1.38-4.2,2.1-6.3c0.79-2.27,1.61-4.53,2.46-6.94l1.46,0.57c-0.29,1.11-0.57,2.22-0.86,3.27
		c1.33,0,2.28-1.35,3.69-0.61c0.2,0.72-0.27,1.11-0.84,1.37c-0.84,0.45-1.72,0.86-2.62,1.22c-0.33,0.09-0.62,0.26-0.84,0.49
		c-0.22,0.23-0.37,0.51-0.42,0.81c-0.29,1.11-0.6,2.14-0.94,3.19c-0.84,2.64-1.77,5.25-2.53,7.91c-0.85,3.06-1.52,6.15-2.28,9.23
		c-0.19,0.78-0.39,1.55-0.61,2.39c0.53,0,0.9,0,1.27,0l9.84-0.8c0.89-0.07,1.77-0.11,2.67-0.12c3.31-0.09,6.61-0.14,9.92-0.22
		c0.09-0.05,0.18-0.11,0.25-0.18H91.66z M270.92,176.78h0.32l17.1-0.85c0.73,0,1.46-0.11,2.19-0.18c0.57-0.07,1.14,0.05,1.61,0.34
		c0.47,0.29,0.8,0.72,0.92,1.21c0.21,0.76,0.31,1.54,0.3,2.33c-0.13,2.16-0.35,4.31-0.59,6.46c-0.38,3.33-0.85,6.65-1.27,9.98
		c-0.42,3.32-0.68,6.41-1.03,9.62l-0.8,7.65c0,0.59-0.61,1.19,0.19,1.73c0.56,0.38,0.97,0.93,1.56,1.27
		c2.02,1.16,4.47,1.61,6.85,1.25c4.01-0.45,8.02,0.22,12.02,0.53c4.7,0.37,9.4,0.74,14.1,1.11c2.81,0.23,5.62,0.5,8.42,0.77
		c2.8,0.27,5.83,0.58,8.74,0.84c0.62,0.03,1.25,0.03,1.87,0c0-1.75,0-3.32,0-4.88c0-0.84,0.13-1.72-0.82-2.35
		c-0.23-0.25-0.37-0.56-0.38-0.89c-0.46-3.15-1.03-6.3-1.27-9.45c-0.35-4.34-0.44-8.71-0.7-13.07c-0.03-1-0.18-2-0.44-2.98
		c-0.48-1.68-1.19-3.32-1.66-5.01c-0.31-1.25-0.52-2.52-0.63-3.8c0.03-0.14,0.1-0.28,0.21-0.39c0.11-0.11,0.25-0.19,0.41-0.24
		c0.17,0.01,0.33,0.06,0.48,0.14c0.14,0.08,0.26,0.19,0.34,0.33c0.19,0.52,0.33,1.06,0.43,1.6c0.14,0.59,0.29,1.11,0.44,1.73
		c0.38-0.47,0.64-1.01,0.75-1.57c0.35-1.44,0.63-2.89,1.08-4.31c0.13-0.39,0.8-0.96,1.13-0.92c0.75,0.11,0.75,0.68,0.56,1.32
		c-0.52,1.72-1,3.47-1.33,5.22c-0.48,1.55-0.63,3.16-0.47,4.75c0.68,3.38,0.98,6.83,1.27,10.25c0.25,2.56,0.27,5.14,0.48,7.76
		c0.21,2.62,0.58,4.8,0.81,7.2c0.13,1.35,0.11,1.44,1.66,1.33c2.91-0.22,5.81-0.62,8.73-0.73c3.99-0.14,7.99-0.07,11.99-0.17
		c1.49-0.09,2.97-0.25,4.44-0.48c0.05-0.25,0.07-0.51,0.08-0.77c-0.19-2.22-0.37-4.43-0.61-6.57c-0.16-1.5-0.35-3-0.66-4.43
		c-0.34-1.67-0.85-3.32-1.27-4.99c-1.44-6.21-2.87-12.41-4.28-18.61c-0.53-2.33-1-4.67-1.47-7c-0.49-3.09-1.52-6.1-3.04-8.92
		c-0.29-0.53-0.51-1.09-0.65-1.66c-0.18-0.6-0.13-1.25-0.37-1.82c-0.46-1.11-1.09-2.09-1.57-3.16c-1.27-2.93-3.96-4.28-7.36-4.74
		c-2.53-0.34-4.97-0.63-7.44-1.02c-4.01-0.63-8.03-1.33-12.03-1.98c-0.16-0.05-0.33-0.07-0.49-0.06c-0.17,0.01-0.33,0.05-0.48,0.11
		c-0.15,0.07-0.29,0.16-0.4,0.27c-0.11,0.11-0.19,0.24-0.25,0.38c-0.76,1.15-1.73,2.17-2.87,3.04c-3.48,2.52-7.54,4.35-11.9,5.38
		c-3.67,0.9-7.5,1.35-11.26,2c-3.75,0.68-7.58,0.91-11.4,0.68c-1.7-0.02-3.39-0.35-4.94-0.96c-1.55-0.61-2.95-1.5-4.1-2.59
		c-4.05,0.5-7.99,1.02-11.94,1.46c-3.25,0.31-6.39,1.18-9.25,2.57c-3.21,1.7-5.95,4-8.03,6.73c-1.94,2.77-3.7,5.63-5.26,8.58
		c-1.19,2.03-2.33,4.08-3.52,6.11c-0.91,1.57-1.85,3.12-2.9,4.89l2.53-0.15c0.03-0.23,0.03-0.47,0-0.7
		c-0.08-0.27-0.09-0.55-0.03-0.83c0.06-0.27,0.18-0.53,0.37-0.76c0.18-0.23,0.42-0.42,0.7-0.56c0.28-0.14,0.58-0.22,0.9-0.25
		c2-0.43,4-0.91,6.03-1.25c3.72-0.62,7.44-1.2,11.17-1.74c2.67-0.43,5.31-0.74,7.93-1.09H270.92z M208.37,182.95l0.18,0.14v-0.26
		l2.05-0.96c-0.28-1.39-0.58-2.77-0.84-4.17c-0.25-1.4,0.2-2.01,1.86-2.34c1.06-0.22,2.13-0.4,3.2-0.55
		c0.93-0.16,1.87-0.26,2.81-0.28c0.28-0.03,0.56,0,0.82,0.09c0.26,0.09,0.5,0.23,0.68,0.41c0.19,0.18,0.32,0.4,0.38,0.64
		c0.07,0.24,0.07,0.49,0,0.72c-0.15,1.4-0.51,2.77-0.77,4.12c0.67,0.35,1.29,0.77,1.85,1.24c0.17,0.2,0.39,0.36,0.65,0.45
		c0.26,0.09,0.55,0.12,0.83,0.08c2.86-0.22,5.72-0.48,8.59-0.66c2.86-0.19,5.34-0.31,7.97-0.45l0.79,1.37
		c0.18-0.24,0.3-0.39,0.39-0.54c2.15-3.89,4.29-7.76,6.46-11.67c1.46-2.26,2.18-4.82,2.09-7.42c-0.08-1.11-0.05-2.22,0.1-3.32
		c0-0.37,0.46-0.95,0.77-0.99c0.7-0.09,0.89,0.43,0.91,1.01c0.06,1.11,0.22,2.22,0.35,3.59c4.7-5.36,10.32-9.04,17.96-9.97
		c-0.59-1.17-1.08-2.14-1.56-3.11c-0.87-1.46-1.6-2.98-2.2-4.54c-0.22-0.86-0.65-1.66-1.26-2.35s-1.39-1.26-2.29-1.65
		c-1.75-0.74-3.59-1.29-5.48-1.65c-5.27-1.03-10.61-0.46-15.93-0.38c-3.03,0-6.05,0.26-9.08,0.32c-1.77,0-2.2-0.26-2.71-1.67
		c-0.21-0.6-0.33-1.21-0.52-1.92c-1,0.06-2.01-0.09-2.94-0.43c-0.63-0.13-1.23-0.38-1.74-0.73c-0.52-0.35-0.94-0.79-1.25-1.29
		c-1.01-1.7-1.66-3.55-1.94-5.45c-0.1-0.85-0.27-1.71-0.43-2.73c-8.57,3.61-17.43,3.38-26.23,2.22c-1.13,2.15-2.24,4.31-3.43,6.46
		c-0.17,0.36-0.44,0.68-0.79,0.92c-0.35,0.24-0.77,0.39-1.21,0.45c-1.14,0.26-2.25,0.6-3.33,1.02c0.52,2.36,0.29,2.67-1.49,2.86
		c-0.86,0.61-1.75,1.17-2.68,1.68c-0.8,0.35-1.65,0.6-2.53,0.75c-5.75,1-11.52,1.91-17.26,2.97c-2.75,0.47-5.46,1.13-8.09,1.98
		c-3.14,1.1-5.87,2.95-7.86,5.34c-2.13,2.5-2.53,5.54-3.51,8.38c-0.64,2.36-1.12,4.76-1.44,7.17c-0.39,1.79-0.94,3.54-1.36,5.32
		c-0.01,0.17,0.02,0.34,0.09,0.5c0.07,0.16,0.18,0.3,0.32,0.42c1.84,1.23,3.07,3.02,3.44,5.02c0.35,2.22,1.62,4.43,2.22,6.65
		c0.73,2.63,1.27,5.29,1.63,7.98c0.49,3.82,0.71,7.68,1.09,11.53c0.15,1.55,0.43,3.09,0.63,4.43c3.65,0,7.22,0.08,10.76,0
		c0.88-0.07,1.77,0.05,2.58,0.34c0.82,0.29,1.54,0.76,2.11,1.35v0.07c-0.13-0.64-0.24-1.28-0.37-1.91c-0.35-1.84-0.6-3.71-1.14-5.54
		c-0.95-3.18-2.22-6.28-3.13-9.48c-0.84-2.93-1.47-5.91-2.03-8.87c-0.91-4.88-1.68-9.76-2.53-14.65c-0.15-0.81-0.2-1.64-0.15-2.46
		c0-0.69,0.15-1.54,1.46-1.36c0.2,1.11,0.39,2.22,0.61,3.25c1.35,6.76,2.65,13.53,4.09,20.28c0.63,2.96,1.71,5.84,2.39,8.79
		c0.56,2.41,2.08,4.62,1.75,7.19c0.02,0.23,0.09,0.45,0.23,0.65c1.28,3.11,2.01,6.37,2.18,9.68c0.03,2.66,0.34,5.31,0.91,7.92
		c1.56,0.4,3.08,0.77,4.57,1.21c3.28,0.81,6.44,1.96,9.4,3.44l5.07,2.78c1.08,0.58,2.38,1.02,1.27,2.7l5.62-0.78
		c-0.7-10.44-2.85-20.77-2.25-31.36c-1.09,0.08-2.13,0.19-3.17,0.23c-1.34,0.07-1.91-0.39-2.08-1.54c-0.07-0.74-0.18-1.48-0.34-2.22
		c-0.75-2.79-1.57-5.54-2.29-8.38c-0.18-0.67-0.22-1.36-0.13-2.04c0-0.14,0.04-0.28,0.12-0.41c0.08-0.12,0.19-0.23,0.33-0.3
		c0.14-0.07,0.3-0.11,0.46-0.12c0.16,0,0.32,0.03,0.47,0.1c0.24,0.08,0.49,0.24,0.72,0.22c2.27-0.17,4.54-0.38,6.88-0.58
		c0-0.54,0.09-1.04,0.15-1.53c0.21-1.68,0.63-2.08,2.53-2.22c4.18-0.29,8.36-0.52,12.54-0.82c0.48-0.08,0.95-0.22,1.39-0.41H208.37z
		 M196.38,50.63c-1.33,0.74-2.74,1.52-4.13,2.32c-0.43,0.35-0.98,0.54-1.56,0.56s-1.15-0.16-1.59-0.49
		c-1.35-0.85-2.95-1.35-4.61-1.44c-0.66-0.07-1.7-0.27-2.01,0.67c-0.88,2.44-1.42,4.97-1.61,7.53c-0.11,1.34,0.23,2.67,0.97,3.85
		c0.37,0.55,0,2.09-0.44,2.22c-0.9,0.34-1.51-0.2-2.03-0.7c-0.56-0.54-1.05-1.14-1.46-1.78c-0.54-0.88-0.96-1.81-1.43-2.7
		c-0.2,1.69-0.28,3.4-0.24,5.1c0.07,0.91,0.07,1.83,0,2.74c-0.06,0.42-0.56,1.11-0.86,1.11c-0.32,0.01-0.65-0.05-0.94-0.16
		c-0.3-0.11-0.56-0.28-0.78-0.49c-0.89-1.17-1.57-2.47-2.33-3.74c-0.2-0.33-0.37-0.68-0.59-1.11c-0.94,2.01-1.75,3.85-2.67,5.64
		c-0.92,1.8-2.1,3.32-1.81,5.33c0.1,0.75,0,1.54,0,2.29c0.33,3.5,0.52,7.02,1.1,10.48c0.72,3.92,1.79,7.78,3.19,11.56
		c2.24,6.4,6.83,11.97,13.04,15.86c4.21,2.74,8.87,4.69,14.24,4.72c4.36,0,8.55-0.46,12.31-2.88c3.56-2.13,6.46-5.01,8.42-8.37
		c1.27-2.36,2.63-4.71,3.7-7.15c1.63-3.77,3.05-7.61,4.56-11.43c0.15-0.44,0.35-0.86,0.58-1.26c0.08-0.11,0.19-0.2,0.32-0.26
		c0.13-0.06,0.28-0.1,0.42-0.1c0.13,0.05,0.24,0.12,0.33,0.22c0.09,0.1,0.15,0.21,0.17,0.33c0.08,0.64,0.04,1.29-0.11,1.92
		c-0.77,2.52-1.63,5.02-2.47,7.53c-0.25,0.76-0.54,1.52-0.84,2.35c4.14-0.57,7.09-1.64,9.37-3.59c4.55-3.6,7.37-8.58,7.88-13.93
		c0.16-2.22,0.1-4.56-1.57-6.57c-1.46-1.75-2.53-1.45-3.8-0.34c-2.2,1.9-4.08,4.07-5.56,6.44c-0.51,0.69-1.08,1.33-1.72,1.93
		c-0.1,0.15-0.24,0.28-0.4,0.38c-0.16,0.1-0.34,0.18-0.54,0.22c-0.19,0.04-0.4,0.05-0.59,0.02c-0.2-0.03-0.38-0.09-0.55-0.19
		c-0.32-0.2-0.57-0.47-0.71-0.79c-0.15-0.32-0.18-0.67-0.11-1c0.21-1.89,0.29-3.8,0.23-5.7c-0.14-2.68-0.97-5.12-4.14-6.36
		c-0.32-0.12-0.56-0.42-0.87-0.58c-0.54-0.33-1.15-0.58-1.79-0.73c-0.78-0.03-1.54-0.19-2.24-0.49s-1.32-0.72-1.82-1.25
		c-1.17,1.11-1.66,1.17-2.84,0.54c-0.82-0.42-1.57-0.93-2.24-1.52c-2.02-1.74-3.65-3.8-4.8-6.06c-0.15-0.25-0.34-0.48-0.54-0.7
		c-0.35,0.96-0.77,1.9-1.27,2.82c-1.01,1.93-2.63,3.56-4.69,4.69c-0.52,0.24-1.13,0.28-1.7,0.13c-0.7-0.23-0.58-0.91-0.43-1.44
		c1.07-3.81,1.32-7.75,0.73-11.64c-0.28-1.55-0.53-3.23-2.19-4.52H196.38z M184.84,190.11c0.08,0.45,0.09,0.78,0.18,1.11
		c0.94,3.05,1.86,6.1,2.86,9.13c0.08,0.23,0.7,0.48,1.05,0.48c1.04,0,2.08-0.2,3.11-0.22c0.55-0.06,1.11,0.06,1.56,0.34
		s0.77,0.7,0.89,1.18c0.31,0.83,0.54,1.68,0.68,2.54c0.19,1.04,0.21,2.11,0.35,3.16c0.3,2.36,0.65,4.72,0.95,7.08
		c0.25,1.95,0.47,3.9,0.72,5.86c0.35,2.73,0.77,5.45,1.08,8.18c0.2,1.84,0.18,3.69,0.38,5.54c0.33,2.84,0.76,5.66,1.15,8.58
		c1.2,0.14,2.4,0.23,3.61,0.27c2.18,0,4.34-0.16,6.52-0.21c4.18-0.11,8.37-0.14,12.55-0.29c2.66-0.1,5.31-0.34,7.95-0.54
		c2.14-0.16,4.28-0.34,6.42-0.55c1.27-0.12,2.53-0.32,3.8-0.48c0.03-0.25,0.03-0.51,0-0.76c-0.39-3.55-0.82-7.09-1.27-10.64
		c-0.44-3.55-0.82-7.09-1.11-10.64c-0.24-3.06-0.34-6.12-0.44-9.19c-0.06-2.11,0-4.21,0-6.32c-0.08-4.13-0.2-8.27-0.28-12.4
		c0-1.5,0-2.99,0-4.57h-0.85c-3.8,0.39-7.6,0.82-11.4,1.11c-2.09,0.17-4.14,0.18-5.8,1.56c-0.48,0.28-1.04,0.43-1.62,0.43
		c-1.6,0.25-3.22,0.41-4.85,0.47c-1.17,0.06-2.33-0.17-3.36-0.65c-0.67-0.42-1.48-0.62-2.3-0.58c-3.14,0.18-6.33,0.39-9.44,0.52
		c-3.1,0.13-6.08,0.18-9.12,0.29c-1.35,0.02-2.68,0.13-4.05,0.22H184.84z M116.56,162.91c-9.59,0.62-18.6-1.17-27.44-3.56
		l-5.45,5.43c1.03,1.64,2.1,3.41,3.22,5.17c3.13,4.92,6.24,9.85,7.22,15.52c0.46,2.53,0.77,5.09,0.91,7.65
		c0.13,2.37-0.06,4.77-0.18,7.15c-0.09,2.16-0.28,4.31-0.39,6.46c-0.09,1.65-0.18,3.33-0.22,4.93c0,2.01,0,4.02,0,6.24l30.81-0.93
		c-0.2-1.42-0.39-2.64-0.56-3.86c-0.25-1.93-0.48-3.85-0.72-5.77c-0.24-1.93-0.54-3.82-0.7-5.74c-0.28-3.54-0.41-7.09-0.71-10.63
		c-0.38-4.63-0.79-9.28-1.34-13.9c-0.3-2.54-0.91-5.06-1.48-7.57c-0.21-0.6-0.56-1.15-1.03-1.63c-0.98-1.19-2.41-2.22-1.79-3.93
		C116.77,163.59,116.71,163.24,116.56,162.91z M94.03,146.95c-0.42,1.94-0.66,3.81-1.27,5.61c-0.61,1.8-1.49,3.45-2.34,5.35
		c2.03,0.44,4.07,1,6.14,1.32c3.31,0.52,6.64,0.89,9.95,1.32c3.32,0.43,6.95,0.7,10.13-0.21c1.34-2.85,2.53-5.49,3.8-8.11
		c-2.72,0-5.38,0-8.05,0c-3.41-0.06-6.74-0.11-9.97-1.64C99.69,149.3,96.53,148.7,94.03,146.95z M279.96,188.06
		c-6.08,1.54-12.3,1.77-18.21,3.4c1.17,4.75,2.29,9.34,3.41,13.87c0.18,0.02,0.37,0.02,0.56,0c3.39-0.71,6.81-1.37,10.13-2.16
		c0.41-0.1,0.77-0.31,1.03-0.6c0.26-0.29,0.42-0.64,0.44-1.01c0.1-0.91,0.14-1.82,0.1-2.73c-0.08-1.23,0.39-1.66,1.8-1.53
		c1.41,0.13,2.53,0.18,3.94,0.27C281.37,194.6,279.42,190.69,279.96,188.06z M220.38,110.94c-2.8,4.11-7.02,6.88-11.58,9.13
		c-4.56,2.25-9.97,2.43-15.26,1.97c0,1.01,0,1.93-0.19,2.84c-0.16,1.11-0.19,1.11,1.05,1.22c4.54,0.48,9.12,0.48,13.65,0
		c3.1-0.44,6.16-1.09,9.14-1.95c0.57-0.1,1.07-0.38,1.41-0.8c0.34-0.41,0.49-0.92,0.41-1.42c0.15-2.38,0.46-4.77,0.75-7.14
		C219.92,113.54,220.17,112.24,220.38,110.94z M197.15,248.48c1.44,0.07,2.9,0,4.34,0.21c4.52,0.52,8.99-0.16,13.48-0.41
		c3.38-0.2,6.74-0.65,10.13-0.94c3.58-0.31,7.19-0.49,10.77-0.84c2.43-0.24,2.42-0.33,2.38-2.53c-0.25-0.04-0.51-0.06-0.77-0.06
		c-3.49,0.24-6.99,0.49-10.49,0.77c-1.94,0.17-3.86,0.51-5.8,0.58c-5.07,0.19-10.13,0.23-15.2,0.4c-2.34,0.01-4.67-0.24-6.94-0.72
		c-2.09-0.38-2.25-0.41-2.41-2.29c-0.09-1.11-0.25-2.22-0.39-3.41c-0.14-1.2-0.28-2.22-0.43-3.39
		C195.67,240.08,196.12,244.33,197.15,248.48z M284.22,241.83v-7.5c-0.75-0.14-1.41-0.25-2.05-0.4c-0.65-0.14-1.27,0-1.27,0.81
		c0,0.81-0.32,1.61-0.28,2.4c0.11,1.93-0.7,2.97-2.79,3.19c-2.76,0.31-5.52,0.64-8.3,0.81c-5.6,0.34-11.18,0.54-16.78,0.88
		c-2.53,0.14-5.15,0.44-7.86,0.7c0.06,0.73,0.11,1.35,0.18,2.03c0.49-0.06,0.8-0.07,1.1-0.11c3.62-0.49,7.23-1.11,10.88-1.44
		c4.97-0.45,9.97,0,14.94-0.47c3.44-0.32,6.94-0.34,10.41-0.53C283.02,242.12,283.63,241.99,284.22,241.83z M223.02,253.27
		c0.34,0.09,0.69,0.13,1.04,0.13c1.86-0.2,3.71-0.43,5.57-0.66c2.42-0.31,4.86-0.58,7.27-0.97c1.43-0.23,1.81-0.73,1.91-1.98
		c0-0.57,0-1.11,0-1.72c-5.43,1.31-10.87,1.11-16.21,1.78L223.02,253.27z M128.53,113.19c1.99-0.74,3.8-1.56,5.71-2.12
		c2.44-0.71,4.94-1.04,7.36,0.97c0.15-0.52,0.25-1.04,0.3-1.57c0-0.54-0.19-1.11-0.2-1.63c0-1.31-0.18-1.5-1.65-1.63
		c-1.15-0.13-2.3-0.2-3.46-0.19c-2.32-0.02-4.61,0.44-6.69,1.34c-0.55,0.23-1,0.62-1.27,1.11
		C128.19,110.73,127.75,112.01,128.53,113.19z M236.92,183.02l-15.53,1.3c-0.28,1.35-0.16,1.5,1.04,1.4l13.93-1.11
		c0.17-0.03,0.34-0.08,0.49-0.14c0.01-0.43,0.03-0.79,0.06-1.49V183.02z M194.53,187.92c1.27-0.1,2.37-0.21,3.46-0.29
		c3.29-0.21,6.59-0.4,9.88-0.62c1.27-0.08,1.27-0.18,0.79-1.52c-4.73,0.13-9.44,0.5-14.12,1.11V187.92z M212.51,181.75
		c1.71-0.31,3.45-0.18,3.7-2.08c0.13-0.94,0.37-1.87,0.6-2.98l-5.07,0.88L212.51,181.75z M287.31,212.79l0.33-0.11l0.38-4.51
		l-0.32-0.12c-0.09,0.11-0.16,0.22-0.22,0.34c-0.27,1.11-0.58,2.22-0.75,3.33C286.7,212.01,287.11,212.39,287.31,212.79z
		 M302.35,134.98l1.27-0.88l-1.27-0.44V134.98z M178.79,60.38l-0.13-0.19c0,0-0.08,0.08-0.06,0.11c0.03,0.07,0.07,0.14,0.11,0.2
		L178.79,60.38z M286.2,213.9c0,0.08,0,0.2,0.11,0.23c0.11,0.03,0.18,0,0.27-0.06c-0.04-0.08-0.1-0.16-0.17-0.22
		C286.41,213.85,286.27,213.9,286.2,213.9z M316.59,117.47l-0.15,0.14c0,0,0.08,0.09,0.11,0.08c0.08-0.02,0.16-0.05,0.24-0.08
		L316.59,117.47z M272.35,86.44c0.03-0.01,0.06-0.03,0.09-0.06c0,0,0-0.08,0-0.11c-0.05,0.02-0.1,0.05-0.14,0.08
		c0,0.03,0,0.06,0,0.09H272.35z M316.41,116.95l0.09,0.06v-0.08L316.41,116.95z M54.67,175.77l-0.06,0.08h0.06V175.77z
		 M255.85,111.37v0.08h0.09L255.85,111.37z"/>
	<path class="st1" d="M241.2,133.71c0.75-0.16,1.43-0.34,2.14-0.43c5.21-0.79,10.55-0.7,15.73,0.27c1.8,0.48,3.55,1.1,5.22,1.87
		c0.66,0.26,1.38,0.71,0.96,1.46c-0.42,0.75-1.16,0.61-1.9,0.28c-2.51-1.11-5.24-1.82-8.04-2.07c-2.89-0.43-5.83-0.51-8.74-0.24
		c-1.3,0.14-2.61,0.22-3.93,0.23C241.77,135.1,241.12,134.83,241.2,133.71z"/>
	<path class="st1" d="M164.4,137.65c-3.61-0.05-7.2,0.45-10.61,1.46c-1.17,0.4-2.3,0.88-3.38,1.43c-0.54,0.24-1.14,0.65-1.65,0.06
		c-0.51-0.6-0.1-1.16,0.48-1.53c1.03-0.75,2.17-1.37,3.38-1.86c3.94-1.22,7.92-2.44,12.22-1.92c1.13,0.14,2.25,0.26,3.36,0.47
		c0.14,0.02,0.28,0.06,0.4,0.13c0.12,0.07,0.23,0.15,0.31,0.26c0.08,0.1,0.14,0.22,0.17,0.35c0.03,0.12,0.03,0.25,0,0.38
		c-0.09,0.69-0.67,0.74-1.27,0.75C166.7,137.68,165.55,137.65,164.4,137.65z"/>
	<path class="st1" d="M250.33,128.79c1.83,0.02,3.64,0.29,5.37,0.8c1.03,0.32,2.05,0.69,3.04,1.11c0.63,0.21,0.84,0.64,0.56,1.11
		c-0.13,0.21-0.8,0.3-1.15,0.22c-2.33-0.49-4.65-1.02-6.95-1.57C250.37,130.18,249.71,129.86,250.33,128.79z"/>
	<path class="st1" d="M162.59,132.91c-0.43,0.35-0.91,0.65-1.43,0.9c-1.59,0.57-3.22,1.06-4.88,1.47c-0.43,0.11-1.27-0.11-1.44-0.38
		c-0.28-0.61,0.43-0.81,0.99-0.98c1.55-0.44,3.07-0.93,4.62-1.34c0.63-0.11,1.27-0.18,1.91-0.19L162.59,132.91z"/>
	<path class="st0" d="M270.87,176.78c-2.62,0.34-5.26,0.65-7.86,1.04c-3.74,0.55-7.46,1.13-11.17,1.74
		c-2.03,0.34-4.03,0.82-6.03,1.25c-0.32,0.03-0.62,0.11-0.9,0.25c-0.28,0.14-0.51,0.33-0.7,0.56c-0.18,0.23-0.31,0.49-0.37,0.76
		s-0.05,0.56,0.03,0.83c0.03,0.23,0.03,0.47,0,0.7l-2.53,0.15c1.05-1.76,1.99-3.32,2.9-4.89c1.19-2.03,2.33-4.08,3.52-6.11
		c1.56-2.95,3.31-5.81,5.26-8.58c2.08-2.73,4.82-5.02,8.03-6.73c2.86-1.39,6-2.26,9.25-2.57c3.95-0.44,7.89-0.96,11.94-1.46
		c1.15,1.1,2.55,1.98,4.1,2.59c1.56,0.61,3.24,0.94,4.94,0.96c3.82,0.23,7.65,0,11.4-0.68c3.8-0.64,7.6-1.11,11.26-2
		c4.36-1.02,8.42-2.86,11.9-5.38c1.15-0.86,2.12-1.89,2.87-3.04c0.05-0.14,0.14-0.27,0.25-0.38c0.11-0.11,0.25-0.2,0.4-0.27
		c0.15-0.07,0.32-0.1,0.48-0.11c0.17-0.01,0.34,0.01,0.49,0.06c4,0.65,8.02,1.35,12.03,1.98c2.47,0.39,4.96,0.68,7.43,1.02
		c3.39,0.46,6.03,1.82,7.36,4.74c0.48,1.11,1.11,2.08,1.57,3.16c0.24,0.57,0.19,1.22,0.37,1.82c0.14,0.58,0.35,1.13,0.65,1.66
		c1.52,2.82,2.55,5.83,3.04,8.92c0.47,2.34,0.94,4.68,1.47,7c1.4,6.21,2.83,12.41,4.28,18.61c0.39,1.66,0.9,3.32,1.27,4.99
		c0.3,1.47,0.49,2.98,0.66,4.43c0.24,2.22,0.42,4.38,0.61,6.57c0,0.26-0.03,0.51-0.08,0.77c-1.47,0.22-2.96,0.38-4.45,0.48
		c-4,0.1-8,0-11.99,0.17c-2.91,0.11-5.81,0.51-8.73,0.73c-1.55,0.11-1.53,0-1.66-1.33c-0.23-2.4-0.61-4.8-0.81-7.2
		c-0.2-2.4-0.23-5.15-0.48-7.76c-0.34-3.42-0.63-6.87-1.27-10.25c-0.17-1.6-0.01-3.21,0.47-4.75c0.33-1.75,0.81-3.5,1.33-5.22
		c0.19-0.64,0.19-1.21-0.56-1.32c-0.33,0-1,0.53-1.13,0.92c-0.44,1.42-0.72,2.87-1.08,4.31c-0.11,0.57-0.36,1.11-0.75,1.57
		c-0.15-0.58-0.3-1.11-0.44-1.73c-0.1-0.54-0.24-1.07-0.43-1.6c-0.08-0.13-0.19-0.24-0.34-0.33c-0.14-0.08-0.31-0.13-0.48-0.14
		c-0.16,0.05-0.3,0.13-0.41,0.24c-0.11,0.11-0.18,0.25-0.21,0.39c0.11,1.28,0.32,2.55,0.63,3.8c0.47,1.68,1.18,3.32,1.66,5.01
		c0.26,0.98,0.41,1.98,0.44,2.98c0.25,4.36,0.34,8.72,0.7,13.07c0.27,3.16,0.84,6.31,1.27,9.45c0.01,0.32,0.15,0.64,0.38,0.89
		c0.95,0.63,0.81,1.51,0.82,2.35c0,1.56,0,3.13,0,4.88c-0.62,0.03-1.25,0.03-1.87,0c-2.91-0.27-5.83-0.57-8.74-0.84
		c-2.91-0.28-5.61-0.53-8.42-0.77c-4.69-0.38-9.39-0.75-14.1-1.11c-4-0.31-8-0.99-12.02-0.53c-2.38,0.36-4.83-0.09-6.85-1.25
		c-0.58-0.34-1-0.9-1.56-1.27c-0.8-0.54-0.24-1.11-0.19-1.73l0.8-7.65c0.34-3.21,0.66-6.42,1.03-9.62c0.37-3.2,0.85-6.65,1.27-9.97
		c0.24-2.15,0.47-4.3,0.6-6.46c0.01-0.78-0.09-1.57-0.3-2.33c-0.12-0.49-0.45-0.92-0.92-1.21c-0.47-0.29-1.05-0.41-1.61-0.34
		c-0.73,0.07-1.46,0.14-2.19,0.18l-17.1,0.85h-0.35L270.87,176.78z"/>
	<path class="st0" d="M91.61,217.58c-0.12,0.09-0.27,0.15-0.42,0.19c-3.31,0.08-6.61,0.13-9.92,0.22c-0.9,0-1.79,0.06-2.67,0.12
		l-9.84,0.8c-0.35,0-0.72,0-1.27,0c0.22-0.84,0.42-1.62,0.61-2.39c0.76-3.08,1.43-6.17,2.28-9.23c0.75-2.66,1.68-5.28,2.53-7.91
		c0.34-1.05,0.65-2.12,0.94-3.19c0.05-0.3,0.2-0.58,0.42-0.81c0.22-0.23,0.52-0.4,0.84-0.49c0.9-0.36,1.78-0.77,2.62-1.22
		c0.57-0.29,1.04-0.65,0.84-1.37c-1.41-0.74-2.36,0.64-3.69,0.61c0.29-1.11,0.57-2.12,0.86-3.27l-1.46-0.56
		c-0.85,2.4-1.67,4.67-2.46,6.94c-0.72,2.1-1.47,4.18-2.1,6.3c-0.93,3.08-1.81,6.17-2.63,9.28c-0.66,2.44-1.18,4.91-1.85,7.35
		c-0.1,0.19-0.24,0.36-0.42,0.5c-0.18,0.14-0.39,0.24-0.62,0.3c-1.41,0.37-2.85,0.6-4.27,0.93c-0.46,0.1-0.89,0.28-1.27,0.53
		c-0.25,0.26-0.45,0.56-0.58,0.88c0.41,0.12,0.82,0.39,1.19,0.33c1.85-0.3,3.7-0.64,5.53-1.03c3.57-0.71,7.22-1.08,10.88-1.11
		c3.34-0.07,6.69-0.29,10.03-0.34c5.8-0.08,11.61,0,17.4-0.11c7.33-0.17,14.65-0.5,21.97-0.75c0.52,0,1.04,0,1.62,0
		c-0.8,4.24-2.53,8.38-1.43,12.93c-5.26,0.95-10.44,1.88-15.6,2.84c-1.75,0.31-3.48,0.69-5.22,1.01c-2.1,0.39-4.2,0.8-6.33,1.11
		c-2.53,0.37-5.07,0.68-7.67,0.96c-2.76,0.3-5.52,0.57-8.28,0.81c-3.96,0.35-7.93,0.76-11.9,0.97c-3.8,0.26-7.61,0.23-11.4-0.11
		c-1.67-0.17-3.36-0.2-5.07-0.31c-1.52-0.03-3.04-0.15-4.55-0.36c-1.06-0.21-2.05-0.64-2.86-1.27c-1.35-1.1-2.31-2.52-2.79-4.08
		c-0.28-0.93-0.75-1.82-1.04-2.75c-0.84-2.65-1.01-5.44-0.49-8.16c0.68-3.8,1.19-7.63,1.98-11.4c0.65-3.14,1.48-6.25,2.42-9.33
		c1.38-4.54,2.82-9.08,4.46-13.56c1.06-3.41,2.63-6.68,4.65-9.74c0.57-0.77,1.22-1.49,1.93-2.16c3.42-3.33,7.79-5.8,12.66-7.15
		c2.75-0.78,5.42-1.76,8.12-2.68c1.11-0.38,2.18-0.84,3.48-1.35c0.75,1.11,1.56,2.22,2.17,3.33c1.86,3.49,3.7,7,5.47,10.53
		c1.47,2.94,2.31,6.08,2.48,9.29c0.18,3.33,0.25,6.65,0.28,10.06c0,1.51-0.32,3.01-0.35,4.53c-0.14,4.17-0.2,8.33-0.28,12.5
		c0,0.68,0,1.35,0,2.03L91.61,217.58z"/>
	<path class="st0" d="M196.33,50.63c1.66,1.3,1.91,2.97,2.15,4.6c0.59,3.89,0.34,7.83-0.73,11.64c-0.15,0.53-0.27,1.21,0.43,1.44
		c0.56,0.15,1.17,0.1,1.7-0.13c2.05-1.13,3.68-2.76,4.69-4.69c0.5-0.91,0.92-1.85,1.27-2.82c0.21,0.22,0.39,0.45,0.54,0.7
		c1.15,2.27,2.78,4.32,4.8,6.06c0.67,0.59,1.42,1.1,2.24,1.52c1.18,0.63,1.67,0.51,2.84-0.54c0.5,0.52,1.12,0.95,1.82,1.25
		c0.7,0.3,1.46,0.47,2.24,0.49c0.64,0.15,1.25,0.4,1.79,0.73c0.32,0.16,0.56,0.45,0.87,0.58c3.17,1.24,4,3.68,4.14,6.36
		c0.06,1.9-0.01,3.8-0.23,5.7c-0.07,0.34-0.04,0.69,0.11,1c0.15,0.32,0.39,0.59,0.71,0.79c0.17,0.09,0.35,0.16,0.55,0.19
		c0.2,0.03,0.4,0.02,0.59-0.02c0.19-0.04,0.38-0.11,0.54-0.22c0.16-0.1,0.3-0.23,0.4-0.38c0.64-0.6,1.21-1.24,1.72-1.93
		c1.47-2.39,3.34-4.57,5.53-6.48c1.27-1.11,2.36-1.41,3.8,0.34c1.67,2.02,1.73,4.32,1.57,6.57c-0.5,5.37-3.33,10.37-7.9,13.98
		c-2.28,1.95-5.23,3.03-9.37,3.59c0.29-0.83,0.58-1.59,0.84-2.35c0.84-2.5,1.7-5.01,2.47-7.53c0.15-0.63,0.19-1.28,0.11-1.92
		c-0.03-0.12-0.08-0.24-0.17-0.33c-0.09-0.1-0.2-0.17-0.33-0.22c-0.15,0-0.29,0.04-0.42,0.1c-0.13,0.06-0.24,0.15-0.32,0.26
		c-0.24,0.41-0.43,0.83-0.58,1.26c-1.51,3.81-2.93,7.66-4.56,11.43c-1.06,2.44-2.41,4.79-3.7,7.15c-1.96,3.36-4.86,6.24-8.42,8.37
		c-3.8,2.42-7.95,2.9-12.31,2.88c-5.37,0-10.03-1.98-14.24-4.72c-6.22-3.89-10.8-9.46-13.04-15.86c-1.4-3.78-2.47-7.64-3.19-11.56
		c-0.58-3.47-0.77-6.98-1.1-10.48c-0.08-0.75,0.06-1.54,0-2.29c-0.29-2.03,0.94-3.62,1.81-5.33c0.87-1.71,1.73-3.64,2.67-5.64
		c0.23,0.42,0.39,0.76,0.59,1.11c0.76,1.26,1.44,2.56,2.33,3.74c0.22,0.21,0.48,0.38,0.78,0.49c0.3,0.11,0.62,0.17,0.94,0.16
		c0.3,0,0.8-0.7,0.86-1.11c0.07-0.91,0.07-1.83,0-2.74c-0.04-1.7,0.04-3.4,0.24-5.1c0.47,0.9,0.89,1.83,1.43,2.7
		c0.41,0.64,0.89,1.24,1.46,1.78c0.52,0.5,1.13,1.04,2.03,0.7c0.49-0.18,0.81-1.72,0.44-2.22c-0.75-1.17-1.08-2.51-0.97-3.85
		c0.19-2.56,0.73-5.08,1.61-7.53c0.32-0.93,1.36-0.73,2.01-0.67c1.66,0.09,3.26,0.59,4.61,1.44c0.44,0.33,1.01,0.5,1.59,0.49
		c0.58-0.01,1.14-0.21,1.56-0.56C193.59,52.14,195,51.37,196.33,50.63z M203.62,87.98c1.52-0.51,3.28-0.63,4.51-1.96
		c-0.38-0.22-0.68-0.52-0.87-0.47c-1.21,0.3-2.39,0.67-3.53,1.11c-0.72,0.3-0.61,0.86-0.11,1.36h-0.08L203.62,87.98z M186.81,94.11
		c0.8,2.29,2.91,3.38,5.21,4.24c0.37,0.14,0.92-0.12,1.38-0.2c-0.1-0.41-0.08-0.93-0.35-1.22c-0.55-0.48-1.14-0.93-1.76-1.33
		c-0.51-0.28-0.93-0.67-1.23-1.12c-0.3-0.46-0.47-0.97-0.49-1.49c0-0.82,0.12-1.64,0.34-2.44c0.71-2.14,1.42-4.29,2.32-6.36
		c0.65-1.61,0.82-3.34,0.49-5.02c-0.03-0.6-0.24-1.18-0.6-1.69c-0.37-0.51-0.88-0.92-1.49-1.2c-0.34-0.13-0.85,0.09-1.27,0.16
		c0.08,0.32,0,0.75,0.23,0.96c0.56,0.52,0.95,1.15,1.15,1.84c0.2,0.69,0.19,1.41-0.02,2.1c-0.34,1.34-0.82,2.65-1.42,3.91
		c-1.5,2.67-2.34,5.59-2.46,8.57L186.81,94.11z M199.48,74.69c0.04,0.16,0.11,0.31,0.22,0.44c0.11,0.13,0.25,0.24,0.42,0.32
		c0.16,0.08,0.34,0.12,0.53,0.13c0.18,0.01,0.37-0.02,0.54-0.08c2.19-0.39,4.42-0.59,6.65-0.61c3.82-0.16,7.63,0.33,11.23,1.43
		c0.78,0.26,1.59,0.43,2.42,0.5c0.85,0,1.27-0.57,0.73-1.11c-0.76-1-1.85-1.78-3.13-2.22c-1.2-0.31-2.35-0.81-3.57-1.11
		c-1.6-0.45-3.26-0.72-4.94-0.79c-3.31,0.12-6.57,0.68-9.68,1.67c-0.55,0.28-1.04,0.63-1.46,1.05L199.48,74.69z M213.87,97.13
		c-0.52-0.86-1.41-0.49-2.23-0.18c-3.41,1.25-6.81,2.55-10.23,3.78c-3.4,1.33-7.14,1.84-10.84,1.49c-2.15-0.21-4.31-0.32-6.47-0.32
		c-0.39,0-0.79,0.41-1.19,0.63c0.3,0.26,0.59,0.52,0.91,0.75c0.68,0.38,1.31,0.84,1.86,1.35c1.83,2.38,4.13,4.45,6.8,6.12
		c1.84,1.17,4.08,1.74,6.35,1.63c2.27-0.11,4.42-0.9,6.1-2.24c2.87-1.91,5.23-4.35,6.9-7.15c0.65-1.29,1.19-2.61,1.63-3.97
		c0.2-0.62,0.34-1.26,0.44-1.9H213.87z M184.67,76.89c0.72-1.61,0.61-1.88-0.97-2.39c-0.58-0.21-1.18-0.39-1.79-0.54
		c-3.2-0.97-6.7-0.92-9.87,0.14c-1.86,0.73-3.95,1.37-3.96,3.67c0,0.33,0.09,0.88,0.32,0.95c0.43,0.09,0.88,0.04,1.27-0.13
		c1.15-0.53,2.35-0.98,3.58-1.33c3.25-0.73,6.63-0.86,9.94-0.38c0.51,0.04,1.01,0.05,1.52,0.01H184.67z M234.37,92.69
		c2.18-1.2,2.05-4.01-0.25-6.28c1.17-1.47,2.66-2.72,4.38-3.68c0.7-0.4,1.49-0.68,2.18-1.11c0.15-0.1,0.28-0.23,0.36-0.37
		c0.08-0.15,0.12-0.31,0.11-0.48c-0.09-0.15-0.22-0.27-0.38-0.36c-0.16-0.09-0.34-0.15-0.53-0.16c-0.77,0.05-1.52,0.24-2.2,0.57
		c-1.51,0.81-2.93,1.75-4.23,2.82c-1.48,1.2-2.48,2.78-2.85,4.52c-0.07,0.58-0.01,1.17,0.18,1.73c0.06,0.21,0.51,0.42,0.8,0.45
		c0.29,0.03,0.43-0.34,0.51-0.58c0.14-0.5,0.24-1.01,0.3-1.52c1.57,1.4-0.25,3.36,1.67,4.46H234.37z M207.37,81.6
		c-1.5,0.03-2.96,0.37-4.28,0.99c-1.32,0.62-2.46,1.5-3.32,2.57c-0.23,0.25,0,0.81,0,1.22c0.43-0.04,0.86-0.12,1.27-0.25
		c0.39-0.23,0.75-0.48,1.09-0.76c0.76-0.55,1.58-1.03,2.46-1.43c1.84-0.71,3.58-0.08,5.28,0.54c1.27,0.45,2.43,1.04,3.67,1.52
		c0.12,0.07,0.26,0.11,0.41,0.13c0.15,0.02,0.29,0,0.43-0.04c0.14-0.04,0.27-0.11,0.37-0.2c0.11-0.09,0.19-0.2,0.24-0.32
		c0.05-0.1,0.08-0.21,0.08-0.33c0-0.11-0.02-0.22-0.07-0.33c-0.05-0.1-0.12-0.2-0.22-0.28c-0.09-0.08-0.2-0.14-0.32-0.18
		c-1.27-0.59-2.41-1.31-3.67-1.82c-1.1-0.41-2.23-0.77-3.38-1.08L207.37,81.6z M176.81,83.53c-1.76-0.12-3.27,0.86-4.76,1.93
		c-0.14,0.07-0.25,0.17-0.34,0.28c-0.09,0.12-0.14,0.25-0.16,0.38c-0.02,0.14-0.01,0.28,0.04,0.41c0.05,0.13,0.13,0.25,0.24,0.35
		c0.48,0.51,0.95,0.22,1.49-0.09c0.74-0.5,1.61-0.84,2.52-1.01c0.92-0.17,1.86-0.15,2.77,0.06c1.01,0.27,2,0.58,3,0.83
		c0.5,0.15,1.02,0.24,1.54,0.25c0.95,0,1.27-0.64,0.76-1.33c-0.2-0.27-0.48-0.48-0.81-0.61c-1.95-0.88-4.08-1.38-6.27-1.5
		L176.81,83.53z M178.43,87.52c-0.1-0.14-0.24-0.49-0.38-0.49c-1.01-0.01-2.02,0.06-3.01,0.21c-0.55,0.11-0.48,0.67-0.15,1.02
		c0.77,0.84,1.62-0.16,2.46,0c0.29,0.06,0.7-0.27,1.04-0.43c0.09-0.04,0.08-0.19,0.09-0.29L178.43,87.52z M181.06,102.3
		c0.26-0.52,0.49-1.05,0.68-1.58c0.02-0.13,0-0.25-0.04-0.37c-0.04-0.12-0.12-0.23-0.21-0.32c-0.1-0.06-0.22-0.09-0.35-0.1
		c-0.12-0.01-0.25,0.01-0.36,0.05c-0.32,0.1-0.59,0.3-0.77,0.55c-0.18,0.25-0.26,0.55-0.22,0.85c0.11,0.6,0.42,1,1.3,0.91
		L181.06,102.3z M215.51,94.97c-0.22,0.16-0.39,0.36-0.49,0.59c-0.1,0.4,1.27,1.33,1.8,1.2c0.15-0.05,0.29-0.14,0.41-0.24
		c0.11-0.11,0.19-0.24,0.24-0.38c0.14-0.58-0.81-1.2-1.95-1.2V94.97z"/>
	<path class="st0" d="M184.79,190.11c1.37-0.09,2.7-0.2,4.03-0.26c3.04-0.11,6.08-0.15,9.12-0.29c3.04-0.13,6.33-0.34,9.44-0.52
		c0.82-0.05,1.64,0.16,2.3,0.58c1.03,0.49,2.19,0.72,3.36,0.65c1.63-0.06,3.25-0.21,4.85-0.47c0.58-0.01,1.14-0.16,1.62-0.43
		c1.66-1.39,3.71-1.4,5.8-1.56c3.8-0.31,7.6-0.74,11.4-1.11h0.85c0,1.57,0,3.07,0,4.57c0.08,4.13,0.2,8.27,0.28,12.4
		c0,2.11,0,4.21,0,6.32c0.1,3.07,0.2,6.13,0.44,9.19c0.29,3.55,0.72,7.09,1.11,10.64c0.39,3.55,0.82,7.09,1.27,10.64
		c0.03,0.25,0.03,0.51,0,0.76c-1.27,0.16-2.53,0.36-3.8,0.48c-2.14,0.21-4.28,0.4-6.42,0.55c-2.65,0.2-5.29,0.44-7.95,0.54
		c-4.18,0.14-8.37,0.18-12.55,0.29c-2.18,0.06-4.34,0.2-6.52,0.21c-1.21-0.03-2.41-0.12-3.61-0.27c-0.39-2.92-0.82-5.74-1.15-8.58
		c-0.2-1.83-0.18-3.68-0.38-5.54c-0.3-2.73-0.72-5.45-1.08-8.18c-0.25-1.96-0.47-3.91-0.72-5.86c-0.3-2.36-0.65-4.72-0.95-7.08
		c-0.14-1.05-0.17-2.12-0.35-3.16c-0.15-0.86-0.38-1.71-0.68-2.54c-0.12-0.48-0.44-0.9-0.89-1.18c-0.45-0.28-1.01-0.4-1.56-0.34
		c-1.04,0-2.08,0.21-3.12,0.22c-0.35,0-0.97-0.24-1.05-0.48c-1-3.04-1.93-6.08-2.86-9.13C184.88,190.89,184.86,190.62,184.79,190.11
		z M205.05,203.94c1.99-0.2,3.65-0.35,5.31-0.54c3.8-0.43,7.6-0.84,11.34-1.34c1.49-0.22,2.96-0.53,4.39-0.93
		c0.29-0.08,0.43-0.61,0.63-0.93c-0.34-0.17-0.72-0.28-1.11-0.32c-1.14,0.1-2.28,0.37-3.42,0.44c-5.11,0.37-10.18,1.02-15.2,1.93
		c-0.62,0.06-1.23,0.18-1.82,0.35c-0.17,0.09-0.32,0.21-0.44,0.36c-0.11,0.15-0.19,0.31-0.22,0.49c-0.04,0.21,0.47,0.48,0.54,0.48
		V203.94z M205.36,208.38l0.14-0.21c1.77-0.19,3.55-0.39,5.32-0.55l14.24-1.25c0.47-0.02,0.93-0.11,1.35-0.28
		c0.14-0.09,0.26-0.2,0.33-0.34c0.08-0.14,0.12-0.29,0.11-0.44c0-0.2-0.46-0.45-0.76-0.51c-0.47-0.06-0.95-0.06-1.42,0
		c-2.75,0.23-5.51,0.43-8.27,0.72c-3.65,0.38-7.3,0.78-10.93,1.25c-0.61,0.08-1.7,0-1.62,0.91c0.03,0.3,0.99,0.5,1.53,0.73
		L205.36,208.38z M213.07,209.65c1.62,0.95,3.13,0.31,4.58,0.28c0.21,0,0.65-0.51,0.58-0.65c-0.06-0.14-0.52-0.61-0.8-0.6
		c-1.25,0.04-2.49,0.15-3.72,0.31c-0.21,0.06-0.37,0.4-0.65,0.7V209.65z"/>
	<path class="st0" d="M119.53,87.73c0.57,0.21,1.12,0.46,1.63,0.76c1.43,1.01,2.79,2.08,4.22,3.1c0.37,0.31,0.84,0.51,1.36,0.55
		c2.16-0.17,4.3,0.41,5.98,1.61c2.47,1.53,4.68,3.37,6.56,5.44c0.33,0.36,0.58,0.77,0.72,1.22c0.47,1.64,0.86,3.32,1.33,5.13
		c-0.98-0.03-1.95-0.11-2.91-0.24c-2.66-0.45-5.4-0.16-7.86,0.82c-1.03,0.35-1.95,0.91-2.66,1.65c-0.72,0.74-1.21,1.62-1.43,2.57
		c-0.29,0.91-0.34,1.86-0.15,2.79c0.19,0.93,0.62,1.81,1.25,2.57c1.27,1.56,2.53,3.16,3.93,4.66c2.04,2.22,2.14,3.82,0.18,6.18
		c-0.77,0.92-1.55,1.83-2.36,2.72c-0.42,0.45-0.75,0.92-0.3,1.46c0.44,0.54,1.27,0.37,1.79,0c0.88-0.58,1.69-1.23,2.41-1.96
		c1.74-1.84,3.14-3.85,2.53-6.36c-0.27-1.02-0.79-1.97-1.53-2.78c-1.34-1.51-2.9-2.87-4.36-4.3c-0.12-0.21-0.21-0.43-0.25-0.66
		c2.45-1.17,5.13-1.92,7.9-2.22c-0.85,1.19-1.77,2.37-2.53,3.64c-0.27,0.4-0.35,0.88-0.23,1.33c0.12,0.45,0.43,0.85,0.87,1.11
		c0.44,0.26,0.98,0.37,1.5,0.3c0.53-0.07,1-0.31,1.33-0.68c0.83-1.18,1.58-2.4,2.25-3.66l1.66-0.48c0,1.87,0,3.78,0,5.69
		c-0.06,2.08-0.22,4.17-0.34,6.25c-0.24,4.09-0.38,8.22-1.93,12.1c-0.86,2.11-2.35,3.97-4.31,5.41c-3.34,2.51-7.28,3.96-11.22,5.54
		c-1.82,0.71-3.7,0.5-5.53,0.6c-3.49,0.24-7,0.24-10.5,0c-2.96-0.32-5.83-1.1-8.49-2.29c-3.81-1.65-7.3-3.83-10.31-6.45
		c-2.12-1.64-3.89-3.58-5.24-5.75c-0.3-0.54-0.61-1.02-1.37-0.81c-0.76,0.21-0.7,0.92-0.56,1.42c0.29,0.83,0.64,1.64,1.04,2.44
		c-0.86,0.39-1.78,0.67-2.72,0.84c-2.19,0.26-4.4,0.26-6.59,0c-2.33-0.34-4.49-1.27-6.23-2.66c-1.74-1.4-2.97-3.21-3.56-5.2
		c-0.98-2.4-0.9-5.04,0.23-7.39c0.4-0.86,1.06-1.6,1.91-2.16c0.85-0.55,1.85-0.9,2.9-0.99c1.43-0.21,2.9-0.09,4.26,0.36
		c1.36,0.45,2.55,1.21,3.47,2.2c1.06,0.98,2.02,2.03,2.87,3.15c0.15,0.3,0.41,0.55,0.74,0.71c0.33,0.15,0.72,0.2,1.08,0.13
		c0.89-0.21,1.15-0.82,1.2-1.58c0.07-0.82,0.19-1.64,0.37-2.45c0.29-1.62,1.96-2.05,3.27-2.75c3.51-1.91,7.11-3.69,10.58-5.64
		c2.86-1.77,5.49-3.81,7.86-6.06c1.89-1.63,3.87-3.18,5.94-4.63c3.27-2.37,6.03-5.25,8.13-8.48c0.64-1.22,1.65-2.26,2.91-3.01
		c0.72-0.37,0.61-1.11-0.11-1.91l-2.47-2.84L119.53,87.73z M116.99,117.95c-0.18,0.42-0.38,0.83-0.52,1.25
		c-0.41,1.09-0.74,2.2-0.96,3.32c0.02,0.26,0.12,0.52,0.28,0.74s0.38,0.41,0.64,0.54c0.3,0.05,0.6,0.03,0.89-0.04
		c0.29-0.08,0.56-0.21,0.78-0.39c0.86-0.8,1.6-1.69,2.19-2.66c0.52-0.84,0.53-1.93,1.1-2.73c0.76-0.81,1.61-1.55,2.53-2.22
		c0.43-0.39,0.75-0.88,0.19-1.32c-0.56-0.44-1.11,0-1.44,0.36c-0.36,0.39-0.84,0.7-1.37,0.88c-0.54,0.18-1.12,0.24-1.69,0.16
		c-4.41-0.19-7.76,1.56-10.51,4.43c-0.28,0.29-0.15,0.88-0.22,1.32c0.48-0.05,0.96-0.12,1.43-0.22c0.22-0.07,0.37-0.32,0.57-0.46
		c1.74-1.45,3.56-2.78,6.07-2.97H116.99z M121.03,146.29c2.64-0.2,5.11-1.2,6.99-2.83c2.17-2.02,3.72-4.48,4.51-7.16
		c0.51-1.55-0.32-2.31-2.2-2.22c-1.5,0.17-3.02,0.2-4.53,0.09c-3.7-0.52-7.35-1.31-11.06-1.84c-1.54-0.23-3.11-0.23-4.65,0
		c-0.5,0.08-0.98,0.24-1.41,0.48c-0.43,0.24-0.8,0.56-1.08,0.93c-0.29,0.37-0.48,0.79-0.58,1.22c-0.1,0.44-0.1,0.89,0.01,1.33
		c0.58,2.8,2.25,5.33,4.71,7.18C113.94,145.38,116.49,146.42,121.03,146.29z M78.73,136.16c0-1.45-1.48-2.76-0.53-4.18
		c0.51,0.3,1.06,0.56,1.63,0.76c0.2,0.06,0.41,0.07,0.62,0.04c0.21-0.03,0.41-0.1,0.58-0.2c0.12-0.16,0.19-0.35,0.21-0.54
		c0.02-0.19-0.01-0.39-0.09-0.57c-0.38-0.58-0.81-1.15-1.27-1.68c-0.27-0.27-0.46-0.59-0.53-0.94c0-0.68-0.39-0.93-1.04-0.91
		c-0.88-0.05-1.72-0.38-2.34-0.93c-1.8-1.11-3.72-2.16-6.05-1.93c-0.96,0.17-1.87,0.51-2.68,0.99c-0.27,0.14-0.25,0.7-0.37,1.11
		c0.37,0.11,0.75,0.18,1.14,0.21c0.35,0,0.7-0.23,1.05-0.26c0.64-0.14,1.3-0.14,1.94,0c1.45,0.64,2.84,1.36,4.18,2.16
		c0.34,0.17,0.6,0.44,0.73,0.76c0.13,0.32,0.12,0.68-0.03,0.99c-0.53,1.26-0.47,2.64,0.15,3.87
		C76.64,136.19,76.71,136.31,78.73,136.16z M120.4,110.33c-0.24-0.34-0.59-0.61-1-0.78c-0.41-0.17-0.87-0.23-1.32-0.19
		c-3.41-0.09-6.78,0.07-9.82,1.67c-1.8,0.82-3.29,2.08-4.27,3.63c0.98,0.69,0.98,0.7,1.96,0c1.82-1.46,4.05-2.46,6.47-2.89
		c2-0.28,4.01-0.49,6.04-0.62c0.79-0.06,1.46,0.01,1.91-0.83H120.4z"/>
	<path class="st0" d="M259.45,223.12l-1.67,0.2c0.09-0.38,0.28-0.74,0.54-1.05c0.26-0.32,0.59-0.58,0.98-0.78
		c3.43-2.44,7.21-4.47,11.26-6.03c4.11-1.56,8.74-1.76,13.01-0.57c1.89,0.66,3.7,1.48,5.42,2.43c1.08,0.49,2.2,0.89,3.24,1.41
		c2.3,1.17,4.81,0.43,7.22,0.64c2.41,0.21,4.9,0.32,7.35,0.52c2.44,0.2,5.19,0.51,7.79,0.73l16.29,1.36
		c6.72,0.74,13.5,1.01,20.26,0.8c1.09-0.08,2.18-0.26,3.23-0.53c0.15-0.07,0.28-0.17,0.38-0.29c0.1-0.12,0.16-0.26,0.18-0.41
		c0-0.13-0.39-0.43-0.65-0.48c-0.57-0.07-1.14-0.1-1.71-0.09h-7.08v-6.35c7.38-0.83,15.02-0.62,22.87-0.74
		c-1.15,8.31-2.8,16.55-4.95,24.71c-2.47,0.38-4.98,0.91-7.52,1.11c-3.86,0.3-7.74,0.48-11.61,0.5c-2.72,0-5.45-0.29-8.17-0.49
		c-3.34-0.24-6.69-0.48-10-0.84c-4.15-0.45-8.27-1.03-12.41-1.56c-3.63-0.48-7.28-0.92-10.92-1.47c-5.24-0.63-10.43-1.54-15.54-2.74
		c-2.49-0.75-5.13-1.05-7.75-0.88c-0.23,0-0.63-0.06-0.68-0.18c-0.43-0.99-1.27-0.64-1.98-0.44c-2.74,0.61-5.36,1.6-7.75,2.93
		c-1.97,1.19-4.33,1.78-6.73,1.68c1.27-0.92,2.42-1.78,3.61-2.54c1.61-1.01,3.34-1.89,4.93-2.95c0.66-0.56,1.25-1.19,1.75-1.87
		c0.25-0.27,0.47-0.64,0.81-0.78c1.65-0.66,3.33-1.25,5.07-1.87c0.2-0.05,0.39-0.14,0.54-0.27c0.24-0.32,0.46-0.65,0.66-0.99
		c-0.46-0.12-0.99-0.43-1.35-0.32c-2.1,0.59-4.15,1.29-6.15,2.08c-4.27,1.79-8.47,3.7-12.66,5.54c-0.27,0.1-0.56,0.18-0.85,0.24
		c-0.6-1.31-0.47-1.83,0.67-2.33c4.05-1.82,8.08-3.66,12.18-5.39c1.73-0.64,3.5-1.2,5.29-1.68c0.68-0.2,1.27-0.44,1.27-1.26
		c-0.3-0.19-0.65-0.32-1.03-0.37c-0.37-0.05-0.75-0.01-1.1,0.1c-4.61,0.84-8.59,2.91-12.66,4.78c-1.27,0.57-2.46,1.21-3.65,1.87
		c-0.61,0.37-1.3,0.61-2.04,0.71c-0.73,0.09-1.48,0.03-2.18-0.18c0.01-0.38,0.1-0.76,0.27-1.11c1.11-1.34,2.19-2.55,4.46-2.69
		c1.69-0.29,3.32-0.79,4.85-1.47c2.39-0.83,4.76-1.72,7.16-2.54c1.75-0.6,3.53-1.11,5.28-1.72c0.82-0.28,0.82-0.33,0.33-1.5
		c-0.86,0.08-1.7,0.22-2.53,0.42c-3.38,1.04-6.75,2.12-10.13,3.25c-0.87,0.29-1.65,0.81-2.53,1.11c-0.88,0.24-1.77,0.43-2.67,0.58
		h-0.37L259.45,223.12z"/>
	<path class="st0" d="M272.8,87.15c1.57,1.53,3.05,3.14,4.72,4.57c1.43,1.11,3.18,1.85,5.07,2.14c0.51,0.09,1.04,0.07,1.55-0.06
		c0.16-0.01,0.32-0.06,0.46-0.14c0.14-0.08,0.25-0.19,0.32-0.32c0.07-0.13,0.11-0.27,0.1-0.42c-0.01-0.14-0.06-0.28-0.15-0.4
		c0.22,0,0.44-0.02,0.66-0.07c0.32-0.08,0.89-0.22,0.87-0.32c0-0.35-0.14-0.68-0.41-0.94c-2.33-2.4-4.12-5.18-5.27-8.17
		c1.08,0.9,1.9,1.67,2.82,2.34c3.03,2.35,6.77,3.89,10.78,4.43c0.5,0.09,1.01,0.03,1.47-0.16c0.37-0.23,0.81-0.35,1.26-0.36
		c0.45-0.01,0.89,0.09,1.28,0.3c1.28,0.37,2.61,0.61,3.95,0.7c0.67,0.07,1.19,0.12,1.55,0.7c1.63,2.77,2.85,5.7,3.61,8.74
		c0.11,0.41-0.19,0.9-0.25,1.35c-0.15,1.02,0.15,1.37,1.43,1.74c0.07,0.45,0.21,0.89,0.42,1.31c0.12,0.16,0.28,0.29,0.46,0.39
		c0.18,0.1,0.39,0.17,0.6,0.19c0.27,0,0.76-0.41,0.81-0.69c0.3-1.43,0.5-2.89,0.58-4.34c0-0.47-0.58-0.95-0.98-1.4
		c-0.2-1.21,1.48-2.58-0.53-3.69c0.72-1.93,1.81-3.73,3.24-5.32c1.55-1.58,3.33-1.96,5.27-0.82c1.32,0.68,2.47,1.57,3.39,2.64
		c0.92,1.07,1.59,2.28,1.97,3.58c0.13,0.91,0.13,1.83,0,2.74c-0.12,0.74-0.19,1.47-0.22,2.22c-0.02,2.12-0.67,4.2-1.87,6.04
		c-1.35,2.42-3.1,4.64-4.7,6.95c-0.15,0.23-0.38,0.64-0.56,0.63c-1.75-0.09-1.55,1.11-1.73,1.98c-0.41,1.88-0.61,3.81-1.06,5.7
		c-0.57,2.41-1.51,4.75-2.8,6.94c-0.73-0.25-1.48-1.11-2.18-0.33c-0.7,0.78,0.71,1.11,0.91,1.76c-0.19,0.21-0.41,0.45-0.61,0.7
		c-0.61,0.72-1.27,0.93-2.1,0.26c-0.33-0.24-0.73-0.37-1.15-0.39c-0.17-0.02-0.33,0-0.49,0.06c-0.16,0.05-0.3,0.14-0.41,0.24
		c-0.11,0.11-0.19,0.24-0.23,0.38c-0.04,0.14-0.05,0.29-0.01,0.43c0.13,0.48,0.29,0.96,0.48,1.43c-0.92-0.34-1.61-0.63-2.32-0.86
		c-1.41-0.46-2.2,0-2.23,1.36c0,0.65,0,1.32,0,2.31c-0.52-0.46-1.07-0.89-1.65-1.3c-0.39-0.27-0.85-0.46-1.34-0.55
		c-0.17-0.04-0.36-0.04-0.53,0.02c-0.17,0.05-0.32,0.14-0.43,0.27c-0.11,0.12-0.18,0.27-0.2,0.43c-0.02,0.16,0.02,0.31,0.11,0.45
		c0.33,0.57,0.57,1.17,0.71,1.8c-0.75-0.48-1.51-0.95-2.24-1.45c-0.25-0.16-0.46-0.49-0.71-0.51c-0.43,0-0.86,0.05-1.27,0.15
		c0.03,0.34,0.13,0.67,0.3,0.98c0.47,0.47,0.98,0.91,1.52,1.31c-4.39,0.15-8.71-1.06-12.18-3.41c-3.9-2.78-7.34-6.01-10.22-9.62
		c-3.96-4.63-6.99-9.82-8.95-15.34c-1.44-3.64-1.87-7.53-1.27-11.35c0.58-2.61,1.67-5.11,3.23-7.39c0.32-0.47,0.62-0.94,0.96-1.45
		c1.43,0.85,2.79,1.68,4.15,2.48c0.84,0.48,1.71,0.91,2.53,1.39c0.18,0.12,0.38,0.21,0.59,0.26c0.22,0.05,0.44,0.07,0.66,0.04
		c0.22-0.02,0.44-0.09,0.63-0.19c0.19-0.1,0.36-0.23,0.5-0.38l-2.53-4.71L272.8,87.15z M271.53,110.18l1.48,1.94l-2.23,0.9
		c0.25,0.37,0.65,0.64,1.13,0.75c0.47,0.11,0.98,0.06,1.41-0.15c1.35-0.34,2.68-0.75,3.96-1.24c0.64-0.36,1.21-0.8,1.71-1.31
		l-2.63-2.22c1.37,0,2.3,0,3.24,0c0.52,0,1.14,0,1.2-0.6c0.06-0.6-0.39-0.73-0.98-0.85c-2.71-0.59-5.57-0.32-8.08,0.75
		c-0.84,0.32-1.6,0.8-2.22,1.39c-0.62,0.59-1.09,1.29-1.38,2.06c-0.23,0.61-0.27,1.19,0.65,1.48L271.53,110.18z M286.44,124.72
		c-0.45-0.06-0.91-0.08-1.37-0.07c-0.17,0.01-0.34,0.05-0.49,0.12c-0.15,0.07-0.29,0.16-0.4,0.27c-0.05,0.14-0.05,0.29-0.01,0.44
		c0.04,0.14,0.12,0.28,0.23,0.39c0.45,0.43,1,0.77,1.62,0.99c3.01,0.78,6.03,1.55,9.09,2.16c1.06,0.26,2.17,0.31,3.26,0.12
		c1.08-0.18,2.1-0.58,2.97-1.17c1.38-0.99,2.37-2.34,2.82-3.86c0.67-1.92,1.09-3.91,1.7-5.85c0.49-1.56,0-3.32,1.27-4.77
		c0.15-0.16-0.1-0.88-0.39-1.04c-0.11-0.06-0.24-0.1-0.37-0.11c-0.13-0.01-0.26,0-0.39,0.04c-0.12,0.04-0.23,0.11-0.32,0.19
		c-0.09,0.08-0.16,0.19-0.19,0.3c-1.15,1.94-2.8,3.6-4.84,4.87c-2.1,1.59-4.3,3.07-6.6,4.43
		C291.78,123.5,289.42,124.95,286.44,124.72z M295.58,99.9h3.66c0.57,0.07,1.15,0.07,1.72,0c0.38-0.08,0.68-0.45,1.01-0.71
		c-0.29-0.22-0.53-0.55-0.87-0.65c-2.23-0.66-4.63-0.75-6.92-0.27c-3.28,0.63-5.45,2.64-7.05,5.09c-0.33,0.51-1.15,1.34-0.14,1.8
		c1.01,0.45,1.06-0.63,1.51-1.11c0.72-0.72,1.17-1.72,2.28-1.98l1.73,2.22c-0.75,0.18-1.27,0.55-0.76,1.3c0.14,0,0.18,0.1,0.23,0.1
		c3.7-0.14,7.19-1.51,9.76-3.83c0.21-0.18,0.19-0.58,0.3-0.96c-1.63-0.36-2.29,1.11-3.34,1.22L295.58,99.9z M285.55,100.1
		c0.35-0.16,0.68-0.35,1-0.55c0.86-0.6,1.66-1.27,2.53-1.84c3.02-2,6.43-3.5,10.06-4.43c0.38-0.14,0.71-0.36,0.98-0.63
		c0.27-0.27,0.46-0.6,0.56-0.94c0.17-0.82-1-0.89-1.63-0.91c-1.36-0.07-2.73,0.01-4.07,0.23c-2.17,0.33-4.24,1.08-6.05,2.18
		c-1.81,1.1-3.33,2.54-4.44,4.21c-0.19,0.25-0.27,0.55-0.25,0.85c0.02,0.3,0.15,0.58,0.38,0.81c0.21,0.34,0.56,0.67,0.9,1.03H285.55
		z M290.62,121.54c0.78-0.18,1.53-0.45,2.23-0.8c0.37-0.24,0.37-0.92,0.53-1.4c-0.51-0.11-1.11-0.42-1.51-0.27
		c-0.36,0.12-0.75,0.17-1.13,0.13c-0.38-0.04-0.75-0.16-1.06-0.36c-0.53-0.21-1-0.52-1.39-0.9c-0.39-0.38-0.68-0.83-0.86-1.31
		c-0.48-1.59-0.94-3.18-1.27-4.79c-0.47-1.92-0.76-3.88-1.37-5.77c-0.41-1.03-1-2-1.75-2.88c-0.19-0.24-0.81-0.23-1.27-0.34
		c0,0.37-0.24,0.8-0.09,1.11c1.04,2.31,1.69,4.74,1.92,7.22c0.27,2.04,0.7,4.06,1.27,6.05c0.66,2.08,2.94,4.36,5.75,4.32H290.62z
		 M277.47,102.14l0.8-0.8c-0.27-0.24-0.57-0.45-0.9-0.62c-0.43-0.17-0.9-0.26-1.38-0.24c-4.75,0.39-9.14,1.36-11.61,5.48
		c-0.16,0.19-0.28,0.4-0.34,0.63c-0.06,0.23-0.07,0.46-0.02,0.7c0.05,0.23,0.15,0.45,0.29,0.65c0.15,0.19,0.34,0.36,0.56,0.49
		c0.14-0.06,0.27-0.13,0.39-0.21c0.19-0.16,0.36-0.33,0.51-0.52c0.56-0.81,1.32-1.49,2.23-2c0.91-0.51,1.94-0.82,3.01-0.93
		c1.76-0.19,3.52-0.42,5.28-0.68c0.65-0.13,1.3-0.3,1.92-0.5L277.47,102.14z M314.89,98.33c0.58-1.35,1.06-2.66,1.68-3.9
		c0.5-1.13,1.43-2.07,2.63-2.66c0.18-0.13,0.32-0.31,0.4-0.5c0.08-0.19,0.11-0.4,0.08-0.61c-0.18-0.47-0.71-0.24-1.19-0.11
		c-0.9,0.31-1.72,0.79-2.39,1.4c-0.67,0.61-1.18,1.35-1.5,2.15c-1.21,2.73-1.95,5.61-2.19,8.53c-0.09,0.77-0.09,1.55,0,2.32
		c0.13,0.45,0.32,0.89,0.57,1.31c1.69-1.81,0.98-3.85,1.93-5.73c0.09,0.8,0.27,1.59,0.54,2.36c0.18,0.37,0.82,0.55,1.27,0.83
		c0.23-0.35,0.41-0.72,0.56-1.11c0.06-0.32,0.02-0.65-0.1-0.95c-0.46-1.17-0.44-2.57-2.28-3.32H314.89z M296.95,106.74
		c-0.44-0.12-0.8-0.34-1.06-0.28c-0.76,0.18-1.49,0.43-2.18,0.75c-0.25,0.12-0.33,0.51-0.49,0.78c0.35,0.14,0.73,0.45,1.03,0.4
		c0.58-0.06,1.12-0.24,1.6-0.53c0.47-0.29,0.86-0.67,1.12-1.12H296.95z M276.04,115.73c0.76-0.41,1.43-0.72,2.04-1.11
		c0.14-0.1,0.13-0.51,0-0.71c-0.13-0.2-0.46-0.22-0.66-0.19c-0.56,0.08-1.11,0.23-1.62,0.44c-0.39,0.23-0.75,0.51-1.06,0.83
		L276.04,115.73z"/>
	<path class="st2" d="M116.56,162.91c0.15,0.33,0.21,0.68,0.16,1.03c-0.62,1.75,0.81,2.75,1.79,3.94c0.47,0.47,0.82,1.03,1.03,1.63
		c0.57,2.51,1.18,5.03,1.48,7.57c0.56,4.62,0.96,9.27,1.34,13.9c0.3,3.54,0.43,7.09,0.71,10.63c0.15,1.92,0.46,3.82,0.7,5.74
		c0.24,1.92,0.47,3.85,0.72,5.77c0.16,1.22,0.35,2.44,0.56,3.86l-30.81,0.93c0-2.22,0-4.23,0-6.24c0-1.64,0.13-3.32,0.22-4.93
		c0.11-2.15,0.3-4.3,0.39-6.46c0.11-2.38,0.3-4.78,0.18-7.15c-0.15-2.56-0.45-5.11-0.91-7.65c-0.98-5.67-4.09-10.61-7.22-15.52
		c-1.11-1.75-2.19-3.52-3.22-5.17l5.45-5.43C97.96,161.81,106.98,163.55,116.56,162.91z"/>
	<path class="st0" d="M267.44,230.9c-1.46,0.89-2.94,1.74-4.34,2.68c-0.86,0.6-1.67,1.25-2.42,1.96c-0.41,0.38-0.89,0.8-0.43,1.46
		c0.46,0.66,0.72,1.11,1.74,1.11c2.52,0,5-0.55,7.22-1.61c2.69-1.34,5.53-2.43,8.49-3.25c0.23-0.05,0.45-0.09,0.68-0.11l-0.84,4.72
		c-2.61,0.22-5.41,0.49-8.19,0.71c-6.04,0.48-12.08,0.91-18.11,1.43c-2.2,0.19-4.37,0.57-6.55,0.86c-0.21,0.06-0.43,0.07-0.64,0.04
		c-0.21-0.03-0.42-0.11-0.59-0.22c-0.17-0.11-0.31-0.26-0.41-0.43c-0.1-0.17-0.15-0.36-0.14-0.55c-0.38-3.95-0.73-7.9-1.17-11.85
		c-0.33-3.05-0.91-6.07-1.09-9.13c-0.28-4.62-0.29-9.25-0.46-13.88c-0.16-4.62-0.41-9.45-0.58-14.18c0-1.43,0-2.86,0-4.56
		c0.91-0.13,2.01-0.34,3.13-0.44c4.65-0.38,9.32-0.62,13.93-1.11c4.61-0.49,9.44-1.22,14.16-1.85c4.29-0.67,8.64-1.08,12.99-1.23
		c1.65,0,2.27,0.32,2.25,1.94c0,3.78-0.15,7.56-0.27,11.34c-0.06,0.31-0.18,0.62-0.34,0.9c-0.93-1.2-1.73-2.47-2.41-3.8
		c-0.52-1.48-0.87-3.01-1.05-4.56c-0.22-1.3-0.76-1.6-2.2-1.27c-2.53,0.57-5.2,1.03-7.81,1.56c-3.2,0.65-6.42,1.26-9.61,2.01
		c-0.37,0.06-0.72,0.18-1.03,0.36c-0.31,0.18-0.58,0.41-0.8,0.67c-0.21,0.27-0.36,0.57-0.44,0.89c-0.08,0.32-0.08,0.65-0.01,0.97
		c0.11,1.23,0.32,2.45,0.61,3.66c0.59,2.59,1.23,5.18,1.9,7.76c0.23,0.76,0.52,1.5,0.86,2.22c0.17,0.38,0.48,0.7,0.89,0.91
		c0.41,0.2,0.88,0.27,1.34,0.2c5.39-0.64,10.66-1.88,15.68-3.7c1.47-0.62,2.83-1.42,4.05-2.37c0.13,4.05-0.43,8.09-1.65,11.99
		c-0.7-0.07-1.39-0.18-2.08-0.32c-3.53-0.97-7.33-0.85-10.76,0.34c-4.74,1.53-9.16,3.72-13.08,6.51c-2.01,1.4-2.18,2.78-1.52,4.98
		c-0.57,0.38-1.11,0.8-1.6,1.26c-0.56,0.58-0.99,1.24-1.27,1.96c-0.55,1.67,0.61,2.72,3.13,2.89c0,0.44,0,0.9,0,1.35
		c-0.04,0.34,0.03,0.68,0.19,0.98c0.16,0.31,0.42,0.57,0.74,0.76c0.32,0.19,0.7,0.3,1.08,0.31c0.39,0.02,0.77-0.06,1.11-0.22
		c2.31-0.88,4.55-1.87,6.83-2.8c0.28-0.09,0.58-0.17,0.87-0.23L267.44,230.9z"/>
	<path class="st0" d="M229.95,71.06l2.43,2.66c-0.76-0.1-1.51-0.26-2.24-0.47c-0.67-0.22-1.28-0.56-1.8-0.99
		c-1.45-1.47-2.43-3.25-2.82-5.15c-1.01-3.61-1.9-7.26-2.86-10.87c-0.2-0.55-0.44-1.09-0.72-1.61l-1.18,0.62
		c0.62,4.92,1.73,9.79,3.31,14.55c-0.28-0.15-0.55-0.33-0.8-0.52c-2.24-2.39-3.84-5.19-4.67-8.19c-0.59-1.81-0.96-3.67-1.48-5.54
		c-0.13-0.44-0.11-1.21-0.94-1.05c-0.82,0.16-0.7,0.68-0.62,1.33c0.39,4.01,1.76,7.9,4.01,11.42c-0.52,0.64-0.95,0.41-1.44,0
		c-1.23-0.95-2.18-2.15-2.76-3.49c-0.28-0.63-0.52-1.49-1.56-1.19c-1.04,0.3-0.79,1.11-0.63,1.82c0.22,0.93,0.59,1.84,0.9,2.75
		l-0.28,0.18c-1.11-1.11-2.33-2.14-3.33-3.32c-1.61-1.77-2.81-3.8-3.52-5.97c-0.02-0.09-0.06-0.18-0.13-0.25
		c-1.81-1.68-1.34-4.01-2.19-5.97c-0.41-0.93-0.71-1.9-1.2-2.79c-0.13-0.25-0.72-0.31-1.11-0.47c-0.06,0.37-0.29,0.79-0.18,1.11
		c1.33,3.05,1.94,6.31,1.81,9.58c-0.21,2.62-1.57,5.07-3.8,6.84c0.15-1.11,0.22-1.87,0.37-2.65c0.62-3.31,0.51-6.7-0.33-9.98
		c-0.38-1.71-1.31-3.3-2.66-4.58c-0.59-0.57-1.37-0.95-2.23-1.08c-0.86-0.14-1.75-0.02-2.52,0.33c-0.23,0.14-0.5,0.2-0.78,0.19
		c-0.28-0.01-0.54-0.1-0.75-0.26c-1.61-1.11-3.66-1.31-5.55-1.77c-0.36-0.02-0.73,0.03-1.06,0.15c-0.34,0.12-0.64,0.31-0.87,0.55
		c-1.98,1.91-3.35,4.23-3.99,6.75c-0.41,1.75-0.62,3.54-0.94,5.3c-0.08,0.23-0.2,0.45-0.33,0.65c-0.22-0.95-0.38-1.91-0.48-2.87
		c-0.25-1.78-0.09-3.59,0.47-5.32c0.15-0.34-0.13-0.81-0.22-1.22c-0.43,0.17-0.83,0.41-1.18,0.69c-1.09,1.25-0.66,2.84-1.08,4.23
		c-0.11,0.52-0.29,1.02-0.53,1.51c-1,1.92-1.49,4.03-1.42,6.14c0.04,0.97-0.05,1.94-0.28,2.89c-0.62-1.1-1.09-2.26-1.39-3.46
		c-0.22-2.05-0.3-4.11-0.23-6.17c0-0.65,0-1.11-0.82-1.23c-0.82-0.12-1.04,0.39-1.06,1.02c-0.08,3.22-0.85,6.4-2.27,9.37
		c-0.88,2.35-2.18,4.56-3.86,6.55c-0.18,0.31-0.29,0.65-0.34,1c-1.11-1.58-2.22-0.51-3.32-0.13c0.34-2.87,0.63-5.75,1.05-8.62
		c0.55-3.18,1.85-6.22,3.8-8.94c1.75-2.62,3.6-5.19,5.58-7.67c1.58-2.05,3.74-3.69,6.28-4.78c2.53-1.08,5.35-1.56,8.16-1.4
		c2.88-0.02,5.71,0.61,8.23,1.82c1.01-0.49,1.77-0.88,2.53-1.23c2.8-1.15,5.79-1.9,8.87-2.22c4.12-0.52,8.32-0.18,12.26,1
		c4.77,1.33,8.6,3.89,12.39,6.65c2.78,1.87,5.68,3.59,8.7,5.15c2.28,1.12,4.36,2.54,6.14,4.22c1.9,2.11,2.87,4.75,2.71,7.44
		c0,4.15-1.58,7.96-3.38,11.77c-2.68-3.09-5.23-3.87-8.11-1.65c-0.63-0.64-1.27-1.31-1.9-1.93c-2.89-2.77-4-6.17-4.59-9.76
		c-0.28-1.72-0.38-3.47-0.49-5.21c0-0.59-0.21-0.96-1.19-1.11c-0.32,0.58-0.54,1.2-0.63,1.84c0.13,3.57,0.23,7.15,1.71,10.55
		c0.37,0.84,0.89,1.63,1.34,2.44V71.06z"/>
	<path class="st0" d="M170.89,238.13c-2.25-0.4-4.52-0.78-6.79-1.19c-0.8-0.2-1.61-0.37-2.43-0.49c-0.41,0-0.85,0.32-1.27,0.5
		c0.29,0.3,0.51,0.73,0.87,0.85c1.79,0.6,3.6,1.11,5.41,1.66c-4.21,0.28-8.44-0.27-12.36-1.63c-3.07-0.98-6.14-1.92-9.14-3.04
		c-3-1.12-6.15-2.53-9.27-3.75c-2.77-1.12-5.72-1.89-8.74-2.29c0.13-1.51,0.19-3.01,0.42-4.5c0.19-1.22,0.49-2.43,0.89-3.61
		c0.18-0.5,0.53-0.93,1.01-1.24c2.22-1.27,4.5-2.48,6.76-3.67c4.57-2.48,9.82-3.85,15.2-3.96c2.66,0,5.32-0.14,7.98-0.18
		c1.34,0,1.56,0.31,1.04,1.43c-0.35,0.59-0.85,1.1-1.45,1.5c-0.61,0.4-1.31,0.67-2.05,0.8c-2.33,0.68-4.75,1.11-7.05,1.87
		c-0.83,0.35-1.56,0.88-2.11,1.53c-0.57,0.58-0.48,1.11,0.46,1.51c1.2,0.53,2.27,1.31,3.42,1.93c3.03,1.44,6.26,2.53,9.61,3.24
		c4.07,1.11,8.11,2.22,12.18,3.32c3.62,1.13,7.09,2.58,10.36,4.34c0.81,0.39,1.7,0.79,1.75,1.86c-1.96,0.27-3.98,0.06-5.81-0.61
		c-4.75-1.54-9.5-3.12-14.31-4.53c-1.82-0.41-3.68-0.68-5.56-0.81c-0.26-0.05-0.52-0.02-0.76,0.08c-0.44,0.27-1.1,0.57-1.16,0.93
		c-0.13,0.71,0.68,0.84,1.27,0.91c5.26,0.79,10.4,2.09,15.32,3.89c3.1,1.03,6.24,2.12,9.69,2.09c0.28,0.02,0.55,0.09,0.79,0.21
		c0.25,0.12,0.46,0.27,0.64,0.47c0.76,0.89,0.32,1.69-0.94,1.63c-1.29-0.06-2.57-0.26-3.8-0.61c-4.09-1.11-8.16-2.39-12.22-3.6
		l-6.55-1.9c-0.15,0-0.32,0-0.47-0.07c-1.56-0.31-2.34-0.19-2.46,0.51c-0.19,1.11,0.87,1.11,1.72,1.37
		c2.53,0.78,5.07,1.62,7.68,2.45c0.75,0.24,1.48,0.53,2.22,0.81L170.89,238.13z"/>
	<path class="st0" d="M121.79,168.77c1.11,0.69,2.2,1.41,3.37,2.03c1.17,0.62,2.53,1.2,3.7,1.82c0.58,0.29,1.1,0.65,1.67,0.95
		c0.29,0.18,0.62,0.31,0.98,0.37c3.6,0.33,7.74,2.75,8.14,5.94c0.34,2.76,1.51,5.43,2.18,8.17c0.52,2.09,0.9,4.22,1.19,6.34
		c0.58,4.43,1.05,8.87,1.61,13.3c0.13,0.93,0.43,1.86,0.65,2.76c-1.92,0.63-3.71,1.23-5.51,1.78c-2.86,0.89-5.15,2.59-7.7,3.92
		c-0.9,0.48-1.74,1.02-2.66,1.45c-0.21,0.1-0.45,0.16-0.69,0.16c-0.24,0-0.48-0.05-0.7-0.14c-0.22-0.1-0.4-0.24-0.53-0.42
		c-0.14-0.18-0.22-0.38-0.24-0.59c0.24-4.43-0.84-8.73-1.11-13.1c-0.29-4.67-0.58-9.32-0.94-13.98c-0.23-3.14-0.58-6.26-0.9-9.39
		c-0.07-0.21-0.18-0.41-0.32-0.6c-0.25-3.43-0.93-6.83-2.01-10.13c-0.06-0.22-0.11-0.44-0.16-0.66V168.77z"/>
	<path class="st0" d="M94.03,146.95c2.53,1.75,5.66,2.35,8.38,3.64c3.23,1.53,6.56,1.58,9.97,1.64c2.67,0,5.33,0,8.05,0
		c-1.27,2.63-2.47,5.26-3.8,8.11c-3.13,0.91-6.6,0.65-10.13,0.21c-3.53-0.44-6.65-0.8-9.95-1.32c-2.08-0.32-4.12-0.88-6.14-1.32
		c0.85-1.91,1.77-3.59,2.34-5.35C93.32,150.8,93.61,148.89,94.03,146.95z"/>
	<path class="st2" d="M279.96,188.06c-0.55,2.63,1.44,6.54,3.24,9.55c-1.41-0.09-2.67-0.16-3.94-0.27c-1.27-0.11-1.87,0.3-1.8,1.53
		c0.04,0.91,0,1.82-0.1,2.73c-0.02,0.37-0.18,0.72-0.44,1.01c-0.26,0.29-0.62,0.5-1.03,0.6c-3.37,0.79-6.79,1.45-10.13,2.16
		c-0.18,0.02-0.37,0.02-0.56,0c-1.11-4.52-2.24-9.11-3.41-13.87C267.67,189.83,273.89,189.6,279.96,188.06z M275.54,190.87
		c-2.06,0.37-3.93,0.66-5.76,1.02c-0.93,0.17-1.84,0.42-2.74,0.64c-0.14,0.02-0.27,0.07-0.39,0.13c-0.12,0.07-0.22,0.16-0.29,0.26
		c-0.07,0.1-0.12,0.22-0.14,0.35c-0.02,0.12-0.01,0.25,0.04,0.36c0.19,0.67,0.76,0.44,1.27,0.33l1.52-0.28
		c2.1-0.41,4.22-0.76,6.33-1.25c0.47-0.11,0.8-0.69,1.19-1.05L275.54,190.87z M270.19,195.99c0.92-0.15,2.17-0.33,3.38-0.58
		c0.54-0.11,1.05-0.45,0.79-0.97c-0.14-0.14-0.32-0.26-0.51-0.34c-0.2-0.08-0.41-0.12-0.63-0.12c-1.19,0-2.39,0.13-3.58,0.23
		c-0.68,0.06-1.67-0.19-1.67,0.79c0,0.97,1.03,0.84,1.76,0.96L270.19,195.99z"/>
	<path class="st0" d="M220.38,110.94c-0.2,1.3-0.46,2.59-0.61,3.89c-0.29,2.37-0.59,4.75-0.75,7.14c0.07,0.5-0.08,1.01-0.41,1.42
		c-0.34,0.41-0.84,0.7-1.41,0.8c-2.99,0.86-6.04,1.51-9.14,1.95c-4.53,0.48-9.12,0.48-13.65,0c-1.27-0.12-1.27-0.12-1.05-1.22
		c0.13-0.91,0.13-1.83,0.19-2.84c5.29,0.45,10.59,0.33,15.26-1.97C213.47,117.8,217.58,115.05,220.38,110.94z"/>
	<path class="st0" d="M197.15,248.48c-1.01-4.14-1.43-8.38-1.27-12.61c0.15,1.11,0.3,2.22,0.43,3.39c0.13,1.17,0.3,2.27,0.39,3.41
		c0.15,1.88,0.32,1.92,2.41,2.29c2.24,0.47,4.54,0.7,6.84,0.69c5.07-0.17,10.13-0.21,15.2-0.4c1.94-0.07,3.86-0.41,5.8-0.58
		c3.49-0.28,6.99-0.52,10.49-0.76c0.26,0,0.52,0.01,0.77,0.06c0,2.22,0,2.28-2.38,2.53c-3.57,0.36-7.18,0.53-10.77,0.84
		c-3.37,0.29-6.72,0.74-10.13,0.94c-4.48,0.25-8.95,0.93-13.48,0.41C200.05,248.52,198.59,248.54,197.15,248.48z"/>
	<path class="st0" d="M288.07,207.06c0-0.7-0.16-1.39-0.15-2.08c0.15-5.03,0.31-10.07,0.48-15.11c0.08-2.08,0.32-4.17,0.23-6.24
		c-0.07-1.04-0.44-2.06-1.06-2.95c-0.99-1.44-2.77-1.21-4.39-1.19c-6.98,0.09-13.73,1.6-20.57,2.47c-4.47,0.58-8.97,0.95-13.45,1.42
		c-0.79,0.09-1.57,0.17-2.34,0.29c-0.77,0.12-1.09-0.14-1.18-0.91c0.59-0.26,1.2-0.47,1.82-0.64c3.6-0.65,7.18-1.31,10.79-1.86
		c2.53-0.39,4.99-0.63,7.49-0.9c3.6-0.38,7.19-0.84,10.8-1.04c4.72-0.27,9.47-0.3,14.36-0.43c0.37,1.58,0.41,3.21,0.11,4.8
		c-0.48,3.47-1.08,6.93-1.47,10.41c-0.52,4.43-0.87,8.96-1.27,13.43c-0.04,0.17-0.1,0.34-0.19,0.5L288.07,207.06z"/>
	<path class="st0" d="M284.22,241.83c-0.6,0.17-1.22,0.29-1.85,0.37c-3.47,0.19-6.97,0.21-10.41,0.53c-4.98,0.48-9.98,0-14.94,0.47
		c-3.65,0.33-7.26,0.95-10.88,1.44c-0.3,0-0.61,0-1.1,0.11c0-0.68-0.11-1.3-0.18-2.03c2.71-0.26,5.28-0.55,7.86-0.7
		c5.6-0.33,11.18-0.53,16.78-0.88c2.77-0.17,5.54-0.5,8.3-0.81c2.09-0.22,2.9-1.26,2.79-3.19c0-0.8,0.25-1.61,0.28-2.4
		c0.03-0.8,0.51-0.99,1.27-0.81c0.76,0.18,1.27,0.26,2.05,0.4L284.22,241.83z"/>
	<path class="st0" d="M327.67,144.07c-0.13,0.33-0.14,0.75-0.38,0.99c-2.61,2.4-5.74,4.32-9.19,5.66c-4.14,1.55-8.49,2.62-12.94,3.2
		c-2.93,0.47-5.91,0.58-8.86,0.95c-2.22,0.29-4.48,0.27-6.7-0.06c-1.52-0.12-2.96-0.64-4.14-1.49c0.32-0.22,0.56-0.53,0.86-0.6
		c2.17-0.36,4.4-0.37,6.59-0.06c6.08,0.74,12.28,0.33,18.16-1.22c5.23-1.41,10.13-3.47,13.72-7.33c0.8-0.85,1.56-0.82,2.86-0.07
		H327.67z"/>
	<path class="st0" d="M162.65,212.35c0.66,1.19,1.06,2.47,1.2,3.79c0.14,2.73,0.51,5.43,0.79,8.26c-4.89-1.37-10.13-2.12-14.62-5.01
		c1.16-0.64,2.45-1.08,3.8-1.27c1.93-0.42,3.8-1,5.61-1.72c1.77-0.81,3.31-2.03,3.25-4.07L162.65,212.35z"/>
	<path class="st0" d="M223.02,253.27l-0.41-3.43c5.34-0.69,10.78-0.48,16.21-1.78c0,0.59,0,1.11,0,1.72
		c-0.1,1.25-0.48,1.75-1.91,1.98c-2.41,0.4-4.85,0.66-7.27,0.97c-1.86,0.23-3.71,0.47-5.57,0.66
		C223.72,253.4,223.37,253.35,223.02,253.27z"/>
	<path class="st0" d="M128.53,113.19c-0.79-1.19-0.34-2.46,0.1-3.68c0.27-0.48,0.71-0.87,1.27-1.11c2.08-0.9,4.37-1.36,6.69-1.34
		c1.16-0.01,2.31,0.05,3.46,0.19c1.47,0.13,1.61,0.32,1.65,1.63c0,0.54,0.2,1.11,0.2,1.63c-0.06,0.53-0.16,1.06-0.3,1.57
		c-2.42-2.02-4.91-1.68-7.36-0.97C132.33,111.63,130.52,112.45,128.53,113.19z"/>
	<path class="st0" d="M283.22,244.48c-0.52,2.01-0.52,2.12-2.75,2.22c-3.23,0.12-6.48,0.11-9.73,0.07c-2.75,0-5.48-0.14-8.22-0.31
		c-2.74-0.17-5.22-0.41-7.75-0.65v-0.31c1.27-0.07,2.53-0.19,3.8-0.2c4.51-0.06,9.03,0,13.54-0.12c3.8-0.11,7.51-0.43,11.27-0.65
		L283.22,244.48z"/>
	<path class="st0" d="M236.92,182.97c0,0.7,0,1.05-0.08,1.41c-0.16,0.07-0.32,0.12-0.49,0.14l-13.93,1.11c-1.2,0.1-1.27,0-1.04-1.4
		L236.92,182.97z"/>
	<path class="st0" d="M194.53,187.87v-1.3c4.68-0.61,9.39-0.98,14.12-1.11c0.48,1.34,0.46,1.44-0.79,1.52
		c-3.29,0.22-6.59,0.41-9.88,0.62C196.9,187.66,195.82,187.77,194.53,187.87z"/>
	<path class="st0" d="M195.73,234.46c-0.16-0.18-0.46-0.33-0.47-0.51c-0.41-3.78-0.75-7.56-1.17-11.34
		c-0.37-3.32-0.87-6.74-1.2-10.12c-0.25-2.55-0.32-5.11-0.46-7.67h0.46c0.48,4.94,0.9,9.89,1.48,14.82
		c0.58,4.93,1.17,9.9,1.33,14.87L195.73,234.46z"/>
	<path class="st0" d="M212.51,181.75l-0.76-4.19l5.07-0.88c-0.23,1.11-0.47,2.04-0.6,2.98C215.96,181.53,214.25,181.4,212.51,181.75
		z"/>
	<path class="st0" d="M234.7,74.95c-1.91,1.82-3.51,3.87-4.75,6.08c-0.09,0.1-0.19,0.2-0.3,0.29c0.15-2.13-0.16-4.26-0.9-6.28
		c1.27,1.05,2.46,0.12,3.65,0.1c0.79,0,1.56-0.1,2.34-0.17L234.7,74.95z"/>
	<path class="st2" d="M279.76,202v-2.46l3.67,0.37c-0.4,0.57-0.94,1.05-1.58,1.4c-0.64,0.36-1.37,0.59-2.12,0.67L279.76,202z"/>
	<path class="st0" d="M287.31,212.79c-0.2-0.34-0.61-0.72-0.57-1.04c0.17-1.11,0.48-2.22,0.75-3.33c0.06-0.12,0.13-0.24,0.21-0.34
		l0.32,0.12l-0.38,4.51L287.31,212.79z"/>
	<path class="st0" d="M302.35,134.93v-1.32l1.27,0.44L302.35,134.93z"/>
	<path class="st0" d="M170.87,238.15h1v0.15l-0.94-0.22L170.87,238.15z"/>
	<path class="st0" d="M178.79,60.38l-0.08,0.12c-0.05-0.06-0.09-0.13-0.11-0.2c0,0,0-0.08,0.06-0.11L178.79,60.38z"/>
	<path class="st0" d="M286.2,213.9c0.08,0,0.18-0.07,0.21,0c0.07,0.07,0.13,0.14,0.17,0.22c-0.09,0-0.22,0.08-0.27,0.06
		S286.22,213.99,286.2,213.9z"/>
	<path class="st0" d="M316.54,117.47l0.2,0.14c-0.08,0.03-0.16,0.06-0.24,0.08c0,0-0.08,0-0.11-0.08L316.54,117.47z"/>
	<path class="st0" d="M272.3,86.44c-0.03-0.03-0.05-0.06-0.06-0.09c0.04-0.03,0.09-0.06,0.14-0.08c0,0,0,0.08,0,0.11
		C272.36,86.4,272.33,86.42,272.3,86.44z"/>
	<path class="st0" d="M288.03,207.03l-0.11,0.37l-0.14-0.14l0.29-0.19L288.03,207.03z"/>
	<path class="st0" d="M327.7,144.07l0.11-0.13c0,0,0,0.07,0,0.08h-0.11V144.07z"/>
	<path class="st0" d="M121.79,168.74l-0.13-0.06l0.1,0.08L121.79,168.74z"/>
	<path class="st0" d="M316.36,116.98l0.1-0.03l-0.01,0.08L316.36,116.98z"/>
	<path class="st0" d="M54.64,175.76l0.04,0.09l-0.09-0.01L54.64,175.76z"/>
	<path class="st0" d="M255.84,111.37l0.03,0.08h-0.09L255.84,111.37z"/>
	<path class="st0" d="M123.93,179.54l-0.06,0.18c0,0,0,0,0-0.07l0.09-0.08L123.93,179.54z"/>
	<path class="st0" d="M208.45,182.86v0.26l-0.19-0.14L208.45,182.86z"/>
	<path class="st0" d="M234.36,100.24l-0.18-0.13l0.25,0.07L234.36,100.24z"/>
	<path class="st0" d="M285.44,195.69l0.22,0.08c0,0-0.09,0-0.1,0c-0.03-0.04-0.06-0.07-0.08-0.11L285.44,195.69z"/>
	<path class="st0" d="M279.74,201.98l-0.01,0.07l0.04-0.04L279.74,201.98z"/>
	<path class="st0" d="M326.73,96.58v0.31c-0.03-0.07-0.06-0.14-0.06-0.21C326.67,96.68,326.71,96.61,326.73,96.58z"/>
	<path class="st0" d="M119.56,87.7l-0.18-0.1c0,0,0.08,0,0.09,0c0.01,0.04,0.01,0.07,0,0.11L119.56,87.7z"/>
	<path class="st0" d="M162.71,211.45l0.04,0.06l-0.06-0.07L162.71,211.45z"/>
	<path class="st0" d="M162.68,212.32l-0.04-0.09l0.01,0.11L162.68,212.32z"/>
	<path class="st0" d="M229.65,81.33l-0.05,0.06L229.65,81.33z"/>
	<path class="st0" d="M91.6,217.58l0.22,0.1l-0.2-0.1H91.6z"/>
	<path class="st0" d="M269.03,230.12v-0.19c0,0,0,0,0,0.07c-0.02,0.04-0.05,0.07-0.08,0.1L269.03,230.12z"/>
	<path class="st0" d="M267.44,230.92l0.3-0.32l-0.29,0.32H267.44z"/>
	<path class="st0" d="M234.74,74.98l0.1-0.16c0,0,0,0.07,0,0.08c-0.04,0.01-0.08,0.01-0.13,0L234.74,74.98z"/>
	<path class="st0" d="M195.7,234.48l0.08,0.08c0,0,0,0,0,0.06v-0.16L195.7,234.48z"/>
	<path class="st0" d="M324.82,141.85l0.3,0.3l-0.34-0.28L324.82,141.85z"/>
	<path class="st0" d="M283.26,244.51l0.1-0.09h-0.14L283.26,244.51z"/>
	<path class="st0" d="M229.96,71.08v-0.13l0.1,0.1h-0.14L229.96,71.08z"/>
	<path class="st0" d="M225.16,135.13l-0.01,0.08l0.04-0.06L225.16,135.13z"/>
	<path class="st1" d="M194.59,140.9c-1.27-0.24-2.46-0.43-3.63-0.75c-0.18-0.09-0.34-0.21-0.45-0.36c-0.11-0.15-0.19-0.32-0.21-0.5
		c0.13-0.57,0.66-0.64,1.35-0.57c1.26,0.16,2.53,0.2,3.8,0.13c6.27-0.44,12.32-1.97,18.45-3.04c0.72-0.12,1.46-0.16,2.19-0.22
		s1.2,0,1.35,0.64c0.15,0.64-0.41,0.82-1.01,0.94c-3.07,0.61-6.14,1.19-9.18,1.89c-3.65,0.72-7.35,1.26-11.08,1.61
		c-0.52,0.03-1.05,0.03-1.57,0L194.59,140.9z"/>
	<path class="st1" d="M214.45,141.21c-0.47,0.29-0.89,0.74-1.37,0.81c-1.56,0.19-3.13,0.26-4.7,0.33c-0.32,0-0.63-0.1-0.87-0.28
		c-0.33-0.23-0.81-0.59-0.79-0.86c0-0.52,0.58-0.55,1.18-0.55c1.52,0,3.04-0.08,4.55-0.18
		C213.55,140.41,213.55,140.38,214.45,141.21z"/>
	<path class="st1" d="M213.9,97.13c-0.09,0.64-0.22,1.27-0.41,1.9c-0.44,1.35-0.99,2.68-1.63,3.97c-1.67,2.8-4.03,5.24-6.9,7.15
		c-1.68,1.34-3.83,2.13-6.1,2.24c-2.27,0.11-4.51-0.46-6.35-1.63c-2.67-1.67-4.97-3.74-6.8-6.12c-0.56-0.52-1.18-0.97-1.86-1.35
		c-0.32-0.23-0.61-0.5-0.91-0.75c0.41-0.22,0.8-0.63,1.19-0.63c2.16,0,4.32,0.11,6.47,0.32c3.7,0.36,7.44-0.15,10.84-1.49
		c3.42-1.23,6.83-2.53,10.23-3.78C212.5,96.64,213.38,96.27,213.9,97.13z M203.59,102.13c-3.67,1.11-7.3,2.39-11.63,1.97
		c0.51,0.58,0.7,0.95,1.03,1.11c1.15,0.55,2.18,1.65,3.7,1.04c1.58-0.59,3.08-1.31,4.5-2.16c0.85-0.54,2.18-0.78,2.38-1.95h0.08
		L203.59,102.13z M210.9,100.2c-0.44,0.15-0.87,0.35-1.27,0.58c-1.71,1.21-3.36,2.49-5.07,3.66c-1.41,0.95-2.89,1.81-4.43,2.58
		c-2.37,1.19-4.81,2.22-7.4,0.35c0,0-0.19,0-0.49,0c0,0.31-0.1,0.84,0.08,0.93c2.28,1.16,4.53,2.46,7.41,1.76
		c1.42-0.33,2.72-0.95,3.8-1.82c2.93-2.36,5.79-4.77,7.35-8.08L210.9,100.2z"/>
	<path class="st1" d="M199.49,74.4c0.41-0.42,0.91-0.78,1.46-1.05c3.11-0.99,6.37-1.56,9.68-1.67c1.68,0.07,3.34,0.33,4.94,0.79
		c1.27,0.27,2.37,0.76,3.57,1.11c1.28,0.44,2.37,1.21,3.13,2.22c0.49,0.51,0.11,1.11-0.73,1.11c-0.83-0.07-1.64-0.24-2.42-0.5
		c-3.61-1.1-7.42-1.59-11.23-1.43c-2.23,0.02-4.46,0.22-6.65,0.61c-0.17,0.06-0.36,0.09-0.54,0.08c-0.18-0.01-0.37-0.05-0.53-0.13
		c-0.16-0.08-0.31-0.18-0.42-0.32c-0.11-0.13-0.19-0.28-0.22-0.44v-0.3L199.49,74.4z"/>
	<path class="st1" d="M186.81,93.81c0.12-2.98,0.96-5.9,2.46-8.57c0.6-1.27,1.07-2.58,1.42-3.91c0.21-0.69,0.22-1.41,0.02-2.1
		c-0.2-0.69-0.59-1.32-1.15-1.84c-0.21-0.21-0.15-0.64-0.23-0.96c0.44-0.07,0.95-0.29,1.27-0.16c0.61,0.28,1.12,0.69,1.49,1.2
		c0.37,0.51,0.57,1.09,0.6,1.69c0.33,1.68,0.16,3.41-0.49,5.02c-0.9,2.07-1.61,4.22-2.32,6.36c-0.22,0.8-0.34,1.62-0.34,2.44
		c0.02,0.53,0.19,1.04,0.49,1.49c0.3,0.46,0.72,0.84,1.23,1.12c0.62,0.4,1.21,0.85,1.76,1.33c0.28,0.29,0.25,0.81,0.35,1.22
		c-0.46,0.08-1.01,0.34-1.38,0.2c-2.29-0.86-4.41-1.95-5.21-4.24v-0.32L186.81,93.81z"/>
	<path class="st1" d="M184.71,76.89c-0.5,0.04-1,0.04-1.49,0c-3.31-0.49-6.69-0.36-9.94,0.38c-1.24,0.35-2.43,0.8-3.58,1.33
		c-0.39,0.17-0.84,0.22-1.27,0.13c-0.23-0.08-0.33-0.62-0.32-0.95c0-2.29,2.1-2.94,3.96-3.67c3.17-1.07,6.66-1.12,9.87-0.14
		c0.61,0.15,1.2,0.34,1.79,0.54C185.32,75.01,185.43,75.29,184.71,76.89z"/>
	<path class="st1" d="M234.41,92.69c-1.93-1.11-0.1-3.06-1.63-4.43c-0.06,0.51-0.16,1.02-0.3,1.52c-0.08,0.23-0.37,0.59-0.51,0.58
		c-0.14-0.01-0.73-0.24-0.8-0.45c-0.18-0.56-0.24-1.15-0.18-1.73c0.37-1.74,1.37-3.32,2.85-4.52c1.3-1.06,2.72-2,4.23-2.82
		c0.68-0.33,1.43-0.52,2.2-0.57c0.19,0.01,0.37,0.07,0.53,0.16c0.16,0.09,0.29,0.22,0.38,0.36c0.01,0.17-0.03,0.33-0.11,0.48
		c-0.08,0.15-0.21,0.28-0.36,0.38c-0.68,0.42-1.48,0.7-2.18,1.11c-1.73,0.96-3.21,2.21-4.38,3.68
		C236.46,88.65,236.59,91.49,234.41,92.69z"/>
	<path class="st1" d="M207.41,81.57c1.16,0.28,2.29,0.62,3.41,1.02c1.27,0.51,2.43,1.23,3.67,1.82c0.12,0.04,0.23,0.1,0.32,0.18
		c0.09,0.08,0.17,0.17,0.22,0.28c0.05,0.1,0.07,0.22,0.07,0.33c0,0.11-0.03,0.22-0.08,0.33c-0.05,0.12-0.13,0.23-0.24,0.32
		c-0.11,0.09-0.23,0.16-0.37,0.2c-0.14,0.04-0.29,0.05-0.43,0.04c-0.15-0.02-0.28-0.06-0.41-0.13c-1.27-0.48-2.43-1.11-3.67-1.52
		c-1.7-0.62-3.45-1.25-5.28-0.54c-0.87,0.4-1.7,0.88-2.46,1.43c-0.34,0.28-0.7,0.54-1.09,0.76c-0.41,0.13-0.83,0.22-1.27,0.25
		c0-0.41-0.19-0.96,0-1.22c0.87-1.07,2.01-1.94,3.33-2.56C204.44,81.94,205.91,81.6,207.41,81.57z"/>
	<path class="st1" d="M176.85,83.5c2.2,0.09,4.36,0.59,6.33,1.46c0.33,0.13,0.61,0.34,0.81,0.61c0.53,0.69,0.19,1.31-0.76,1.33
		c-0.53-0.01-1.05-0.1-1.54-0.25c-1-0.25-1.99-0.57-3-0.83c-0.91-0.2-1.85-0.22-2.77-0.06c-0.92,0.17-1.78,0.51-2.52,1.01
		c-0.54,0.31-1.01,0.6-1.49,0.09c-0.11-0.1-0.19-0.22-0.24-0.35c-0.05-0.13-0.07-0.27-0.04-0.41c0.02-0.14,0.08-0.27,0.16-0.39
		c0.09-0.12,0.2-0.21,0.34-0.28C173.58,84.36,175.09,83.38,176.85,83.5z"/>
	<path class="st1" d="M203.61,87.99c-0.49-0.5-0.61-1.11,0.11-1.36c1.15-0.44,2.33-0.81,3.53-1.11c0.19,0,0.49,0.24,0.87,0.47
		c-1.27,1.33-2.99,1.45-4.51,1.96L203.61,87.99z"/>
	<path class="st1" d="M178.47,87.55c0,0.16,0,0.3,0,0.33c-0.34,0.17-0.75,0.49-1.04,0.43c-0.84-0.18-1.68,0.82-2.46,0
		c-0.33-0.35-0.39-0.91,0.15-1.02c0.99-0.15,2-0.22,3.01-0.21C178.23,87,178.37,87.35,178.47,87.55z"/>
	<path class="st1" d="M181.1,102.26c-0.89,0.09-1.19-0.29-1.27-0.94c-0.04-0.3,0.04-0.59,0.22-0.85c0.18-0.25,0.45-0.45,0.77-0.55
		c0.11-0.04,0.24-0.06,0.36-0.05c0.12,0.01,0.24,0.05,0.35,0.1c0.1,0.09,0.17,0.2,0.21,0.32c0.04,0.12,0.06,0.25,0.04,0.37
		C181.59,101.22,181.36,101.75,181.1,102.26z"/>
	<path class="st1" d="M215.51,94.94c1.1,0,2.05,0.62,1.95,1.16c-0.05,0.14-0.13,0.27-0.24,0.38c-0.11,0.11-0.25,0.19-0.41,0.24
		c-0.53,0.13-1.9-0.8-1.8-1.2C215.13,95.3,215.3,95.1,215.51,94.94z"/>
	<path class="st1" d="M205.05,203.92c-0.08,0-0.58-0.29-0.57-0.5c0.03-0.17,0.1-0.34,0.22-0.49c0.11-0.15,0.26-0.27,0.44-0.36
		c0.59-0.18,1.2-0.29,1.82-0.35c5.02-0.91,10.09-1.56,15.2-1.93c1.14-0.08,2.28-0.34,3.42-0.44c0.39,0.04,0.77,0.15,1.11,0.32
		c-0.2,0.32-0.34,0.85-0.63,0.93c-1.44,0.4-2.91,0.71-4.39,0.93c-3.8,0.5-7.6,0.91-11.34,1.34
		C208.7,203.59,207.04,203.74,205.05,203.92z"/>
	<path class="st1" d="M205.38,208.41c-0.52-0.23-1.48-0.43-1.51-0.7c-0.08-0.91,1.01-0.83,1.62-0.91c3.63-0.48,7.28-0.88,10.93-1.25
		c2.76-0.29,5.52-0.49,8.27-0.72c0.47-0.06,0.95-0.06,1.42,0c0.3,0.06,0.72,0.31,0.76,0.51c0.01,0.15-0.03,0.3-0.11,0.44
		c-0.08,0.14-0.19,0.25-0.34,0.34c-0.43,0.17-0.89,0.26-1.35,0.28l-14.24,1.25c-1.77,0.17-3.55,0.37-5.32,0.55L205.38,208.41z"/>
	<path class="st1" d="M213.07,209.69c0.28-0.3,0.43-0.64,0.65-0.67c1.23-0.16,2.48-0.27,3.72-0.31c0.28,0,0.68,0.34,0.8,0.6
		c0.11,0.26-0.37,0.65-0.58,0.65C216.2,210,214.69,210.64,213.07,209.69z"/>
	<path class="st1" d="M121.03,146.29c-4.55,0.13-7.09-0.91-9.3-2.77c-2.46-1.85-4.13-4.39-4.71-7.18c-0.1-0.44-0.11-0.89-0.01-1.32
		c0.1-0.44,0.3-0.85,0.58-1.22c0.29-0.37,0.65-0.68,1.08-0.93c0.43-0.24,0.91-0.41,1.41-0.48c1.54-0.23,3.11-0.23,4.65,0
		c3.71,0.53,7.36,1.32,11.06,1.84c1.51,0.11,3.03,0.09,4.53-0.09c1.89-0.12,2.71,0.63,2.2,2.22c-0.79,2.68-2.34,5.15-4.51,7.16
		C126.14,145.12,123.66,146.1,121.03,146.29z M125.24,142.73c-0.49-0.51-0.82-1.11-1.37-1.36c-1.4-0.72-2.86-1.36-4.37-1.89
		c-2.76-0.9-5.21-2.41-7.12-4.37c-0.47-0.49-0.81-0.96-1.65-0.64c-0.36,0.09-0.66,0.3-0.85,0.58c-0.19,0.28-0.25,0.61-0.17,0.93
		c0.08,0.77,0.32,1.52,0.7,2.22c0.91,1.33,2,2.57,3.23,3.69c0.98,0.82,2.15,1.45,3.43,1.83c1.36,0.37,2.8,0.47,4.21,0.3
		C122.69,143.84,124.04,143.4,125.24,142.73z M127.9,136.08l-0.06-0.33c-1.47,0.08-2.94,0.08-4.41,0c-2.33-0.24-4.64-0.68-6.95-1.03
		l-2.65-0.38l-0.11,0.31c1.25,0.82,2.55,1.58,3.89,2.28c2.15,1,4.43,1.72,6.88,0.74c1.11-0.53,2.28-1.1,3.42-1.62V136.08z"/>
	<path class="st1" d="M116.96,117.95c-2.53,0.19-4.33,1.52-6.17,2.83c-0.2,0.14-0.35,0.4-0.57,0.47c-0.47,0.1-0.95,0.18-1.43,0.22
		c0-0.44-0.06-1.03,0.22-1.32c2.75-2.83,6.1-4.58,10.51-4.43c0.57,0.08,1.15,0.02,1.69-0.16c0.54-0.18,1.01-0.49,1.37-0.88
		c0.33-0.39,0.85-0.84,1.44-0.35c0.6,0.49,0.24,0.93-0.19,1.32c-0.93,0.66-1.77,1.41-2.53,2.22c-0.57,0.8-0.58,1.88-1.1,2.73
		c-0.59,0.97-1.33,1.86-2.19,2.66c-0.22,0.18-0.49,0.31-0.78,0.39c-0.29,0.07-0.6,0.09-0.89,0.04c-0.26-0.13-0.48-0.32-0.64-0.54
		c-0.16-0.22-0.26-0.48-0.28-0.74c0.23-1.13,0.55-2.24,0.96-3.33c0.14-0.42,0.34-0.83,0.52-1.25h0.08L116.96,117.95z"/>
	<path class="st1" d="M78.73,136.16c-2.01,0.16-2.08,0-2.77-1.23c-0.62-1.22-0.68-2.61-0.15-3.87c0.15-0.32,0.16-0.67,0.03-0.99
		c-0.13-0.32-0.39-0.59-0.73-0.76c-1.34-0.8-2.73-1.53-4.18-2.16c-0.64-0.14-1.3-0.14-1.94,0c-0.35,0-0.7,0.26-1.05,0.26
		c-0.39-0.03-0.77-0.1-1.14-0.21c0.11-0.37,0.1-0.92,0.37-1.11c0.81-0.48,1.73-0.81,2.68-0.99c2.33-0.23,4.26,0.8,6.05,1.93
		c0.63,0.55,1.46,0.88,2.34,0.93c0.65,0,1.04,0.23,1.04,0.91c0.07,0.35,0.26,0.68,0.53,0.94c0.46,0.54,0.88,1.1,1.27,1.68
		c0.08,0.18,0.11,0.37,0.09,0.57c-0.02,0.19-0.09,0.38-0.21,0.54c-0.17,0.1-0.37,0.17-0.58,0.2c-0.21,0.03-0.42,0.01-0.62-0.04
		c-0.57-0.2-1.12-0.46-1.63-0.76C77.24,133.4,78.73,134.71,78.73,136.16z"/>
	<path class="st1" d="M120.39,110.33c-0.46,0.84-1.15,0.78-1.93,0.83c-2.03,0.13-4.04,0.34-6.04,0.62
		c-2.42,0.43-4.66,1.43-6.47,2.89c-0.99,0.7-0.99,0.69-1.96,0c0.98-1.55,2.47-2.82,4.27-3.63c3.04-1.61,6.41-1.76,9.82-1.67
		c0.45-0.05,0.91,0.02,1.32,0.19C119.8,109.73,120.15,110,120.39,110.33z"/>
	<path class="st1" d="M286.44,124.72c3.03,0.23,5.38-1.22,7.69-2.53c2.3-1.37,4.5-2.85,6.6-4.43c2.03-1.26,3.69-2.93,4.84-4.87
		c0.04-0.11,0.1-0.21,0.19-0.3c0.09-0.08,0.2-0.15,0.32-0.19c0.12-0.04,0.25-0.06,0.39-0.04c0.13,0.01,0.26,0.05,0.37,0.11
		c0.29,0.17,0.55,0.89,0.39,1.04c-1.34,1.42-0.81,3.2-1.27,4.77c-0.61,1.94-1.03,3.93-1.7,5.85c-0.48,1.51-1.49,2.85-2.89,3.82
		c-0.87,0.59-1.89,0.99-2.97,1.17c-1.08,0.18-2.2,0.14-3.26-0.13c-3.07-0.61-6.08-1.38-9.09-2.16c-0.62-0.22-1.17-0.56-1.62-0.99
		c-0.11-0.11-0.19-0.25-0.23-0.39c-0.04-0.15-0.03-0.3,0.01-0.44c0.11-0.11,0.25-0.21,0.4-0.27c0.15-0.07,0.32-0.11,0.49-0.12
		C285.54,124.62,285.99,124.65,286.44,124.72z M304.17,117.69l-0.35,0.27c-0.81,0.82-2.08,1.54-2.33,2.48
		c-0.44,1.3-1.12,2.54-2,3.66c-0.86,0.97-1.41,2.11-1.62,3.32c0.56-0.05,1.1-0.19,1.59-0.44c0.49-0.24,0.91-0.57,1.25-0.97
		c1.81-2.4,2.87-5.17,3.09-8.03l0.39-0.24h0.06L304.17,117.69z M296.57,123.29l-4.85,2.14l0.18,0.28c0.93-0.1,1.82-0.37,2.62-0.79
		c0.8-0.42,1.49-0.99,2.03-1.66l0.09-0.09c0,0,0,0,0-0.07L296.57,123.29z"/>
	<path class="st1" d="M295.54,99.9l3.13,2.22c1.05-0.12,1.71-1.57,3.34-1.22c-0.11,0.39-0.09,0.79-0.3,0.96
		c-2.58,2.32-6.07,3.7-9.76,3.83c0,0-0.09,0-0.23-0.1c-0.46-0.74,0-1.11,0.76-1.3l-1.73-2.22c-1.11,0.27-1.56,1.26-2.28,1.98
		c-0.44,0.45-0.63,1.49-1.51,1.11c-0.87-0.38-0.19-1.29,0.14-1.8c1.61-2.45,3.8-4.43,7.05-5.09c2.29-0.49,4.69-0.4,6.92,0.27
		c0.34,0.1,0.58,0.43,0.87,0.65c-0.33,0.25-0.63,0.63-1.01,0.71c-0.57,0.07-1.15,0.07-1.72,0L295.54,99.9z"/>
	<path class="st1" d="M285.51,100.1c-0.37-0.4-0.68-0.69-0.94-1.01c-0.22-0.23-0.35-0.51-0.38-0.81c-0.02-0.3,0.07-0.6,0.25-0.85
		c1.11-1.67,2.63-3.1,4.44-4.21c1.81-1.1,3.88-1.85,6.05-2.18c1.34-0.22,2.7-0.3,4.07-0.23c0.63,0,1.8,0.09,1.63,0.91
		c-0.1,0.35-0.3,0.67-0.56,0.94c-0.27,0.27-0.6,0.49-0.98,0.63c-3.63,0.94-7.04,2.44-10.06,4.43c-0.87,0.57-1.67,1.24-2.53,1.84
		C286.19,99.77,285.86,99.95,285.51,100.1z"/>
	<path class="st1" d="M290.63,121.54c-2.81,0-5.07-2.22-5.77-4.34c-0.57-1.99-0.99-4.01-1.27-6.05c-0.23-2.48-0.88-4.91-1.92-7.22
		c-0.15-0.29,0-0.72,0.09-1.11c0.42,0.11,1.04,0.1,1.27,0.34c0.75,0.88,1.34,1.85,1.75,2.88c0.61,1.9,0.9,3.86,1.37,5.77
		c0.39,1.61,0.85,3.2,1.27,4.79c0.18,0.48,0.48,0.93,0.86,1.31c0.39,0.38,0.86,0.69,1.39,0.9c0.31,0.2,0.68,0.32,1.06,0.36
		c0.38,0.04,0.77,0,1.13-0.13c0.39-0.15,1,0.16,1.51,0.27c-0.16,0.48-0.16,1.11-0.53,1.4C292.13,121.08,291.4,121.35,290.63,121.54z
		"/>
	<path class="st1" d="M271.5,110.18l-2.72,2.86c-0.91-0.29-0.87-0.86-0.65-1.48c0.29-0.76,0.76-1.46,1.38-2.06
		c0.62-0.59,1.37-1.07,2.22-1.39c2.51-1.07,5.37-1.34,8.08-0.75c0.58,0.12,1.03,0.29,0.98,0.85c-0.05,0.57-0.68,0.6-1.2,0.6
		c-0.94,0-1.87,0-3.24,0l2.63,2.22c-0.5,0.5-1.07,0.94-1.71,1.31c-1.29,0.49-2.61,0.9-3.96,1.24c-0.43,0.21-0.93,0.27-1.41,0.15
		c-0.47-0.11-0.88-0.38-1.13-0.75l2.23-0.9l-1.48-1.94h0.08L271.5,110.18z"/>
	<path class="st1" d="M277.48,102.14l0.75,1.44c-0.63,0.2-1.27,0.37-1.92,0.5c-1.76,0.25-3.52,0.49-5.28,0.68
		c-1.07,0.1-2.1,0.42-3.01,0.93c-0.91,0.51-1.67,1.19-2.23,2c-0.14,0.19-0.31,0.37-0.51,0.52c-0.12,0.08-0.25,0.15-0.39,0.21
		c-0.23-0.13-0.42-0.3-0.56-0.49c-0.15-0.2-0.25-0.42-0.29-0.65c-0.05-0.23-0.04-0.47,0.02-0.7c0.06-0.23,0.18-0.44,0.34-0.63
		c2.47-4.11,6.86-5.09,11.61-5.48c0.48-0.01,0.95,0.07,1.38,0.24c0.33,0.17,0.63,0.38,0.9,0.62L277.48,102.14z"/>
	<path class="st1" d="M314.91,98.33c1.84,0.75,1.82,2.15,2.27,3.32c0.12,0.31,0.16,0.63,0.1,0.95c-0.14,0.39-0.33,0.76-0.56,1.11
		c-0.44-0.28-1.09-0.46-1.27-0.83c-0.28-0.77-0.46-1.56-0.55-2.36c-0.95,1.88-0.24,3.92-1.92,5.73c-0.25-0.41-0.45-0.85-0.57-1.31
		c-0.09-0.77-0.09-1.55,0-2.32c0.24-2.93,0.98-5.8,2.19-8.53c0.32-0.8,0.83-1.54,1.5-2.15c0.67-0.61,1.49-1.09,2.39-1.4
		c0.48-0.13,1.01-0.35,1.19,0.11c0.03,0.21,0,0.41-0.08,0.61c-0.08,0.19-0.22,0.37-0.4,0.5c-1.21,0.59-2.14,1.53-2.63,2.66
		C315.97,95.67,315.49,96.98,314.91,98.33z"/>
	<path class="st1" d="M296.96,106.74c-0.26,0.45-0.65,0.83-1.12,1.12c-0.47,0.29-1.02,0.47-1.59,0.53c-0.29,0.06-0.67-0.25-1.03-0.4
		c0.16-0.27,0.24-0.65,0.49-0.78c0.69-0.32,1.42-0.57,2.18-0.75C296.16,106.39,296.57,106.62,296.96,106.74z"/>
	<path class="st1" d="M276.05,115.73l-1.27-0.74c0.31-0.32,0.67-0.6,1.06-0.83c0.51-0.21,1.06-0.36,1.62-0.44
		c0.2,0,0.6,0.07,0.66,0.19c0.06,0.12,0.11,0.61,0,0.71C277.48,115.01,276.81,115.32,276.05,115.73z"/>
	<path class="st1" d="M275.54,190.87l0.97,0.57c-0.39,0.37-0.72,0.94-1.19,1.05c-2.06,0.49-4.18,0.84-6.33,1.25l-1.52,0.28
		c-0.51,0.11-1.08,0.33-1.27-0.33c-0.04-0.12-0.05-0.24-0.04-0.36c0.02-0.12,0.07-0.24,0.14-0.35c0.07-0.11,0.17-0.19,0.29-0.26
		c0.12-0.07,0.25-0.11,0.39-0.13c0.9-0.22,1.81-0.48,2.74-0.64C271.62,191.53,273.48,191.23,275.54,190.87z"/>
	<path class="st1" d="M270.19,195.99h-0.47c-0.73-0.12-1.76,0-1.76-0.96c0-0.96,0.99-0.73,1.67-0.79c1.19-0.1,2.39-0.21,3.58-0.23
		c0.22,0,0.43,0.04,0.63,0.12c0.2,0.08,0.37,0.19,0.51,0.34c0.27,0.52-0.24,0.86-0.79,0.97
		C272.35,195.65,271.11,195.83,270.19,195.99z"/>
	<path class="st0" d="M210.9,100.2c-1.56,3.33-4.42,5.72-7.35,8.08c-1.08,0.87-2.38,1.49-3.8,1.82c-2.87,0.7-5.13-0.6-7.41-1.76
		c-0.18-0.09-0.06-0.62-0.08-0.93c0.3,0,0.44-0.08,0.49,0c2.53,1.85,5.07,0.83,7.4-0.35c1.54-0.77,3.03-1.63,4.43-2.58
		c1.75-1.16,3.39-2.45,5.07-3.66c0.4-0.23,0.82-0.42,1.27-0.58L210.9,100.2z"/>
	<path class="st0" d="M203.57,102.14c-0.2,1.17-1.53,1.41-2.38,1.95c-1.41,0.85-2.92,1.57-4.5,2.16c-1.52,0.61-2.53-0.49-3.7-1.04
		c-0.33-0.15-0.52-0.53-1.03-1.11c4.33,0.42,7.95-0.86,11.63-1.97L203.57,102.14z"/>
	<path class="st0" d="M203.6,102.13l0.05-0.03l-0.08,0.03H203.6z"/>
	<path class="st0" d="M210.9,100.2l0.05-0.06L210.9,100.2z"/>
	<path class="st0" d="M125.24,142.73c-1.2,0.68-2.55,1.11-3.96,1.29c-1.41,0.17-2.85,0.07-4.21-0.29c-1.28-0.38-2.45-1.01-3.43-1.83
		c-1.23-1.12-2.32-2.36-3.23-3.69c-0.38-0.7-0.61-1.45-0.7-2.22c-0.08-0.32-0.02-0.65,0.17-0.93c0.19-0.28,0.5-0.49,0.85-0.58
		c0.84-0.32,1.18,0.16,1.65,0.64c1.91,1.96,4.36,3.46,7.12,4.37c1.51,0.54,2.97,1.17,4.37,1.89
		C124.41,141.63,124.74,142.22,125.24,142.73z"/>
	<path class="st0" d="M127.9,136.06c-1.14,0.52-2.25,1.11-3.42,1.56c-2.44,0.98-4.72,0.26-6.88-0.74c-1.34-0.7-2.64-1.46-3.89-2.28
		l0.11-0.31l2.65,0.38c2.32,0.35,4.62,0.79,6.95,1.03c1.47,0.08,2.94,0.08,4.41,0L127.9,136.06z"/>
	<path class="st0" d="M116.96,117.95l0.05-0.02h-0.08L116.96,117.95z"/>
	<path class="st0" d="M303.82,117.94c-0.22,2.87-1.28,5.64-3.09,8.04c-0.33,0.4-0.76,0.73-1.25,0.97c-0.49,0.24-1.03,0.39-1.59,0.44
		c0.21-1.21,0.76-2.36,1.62-3.33c0.88-1.12,1.56-2.35,2-3.66c0.25-0.94,1.52-1.66,2.33-2.48L303.82,117.94z"/>
	<path class="st0" d="M296.57,123.26c-0.54,0.67-1.23,1.23-2.03,1.66c-0.8,0.42-1.69,0.69-2.62,0.79l-0.18-0.28l4.85-2.14
		L296.57,123.26z"/>
	<path class="st0" d="M303.85,117.96l0.35-0.27l-0.39,0.24L303.85,117.96z"/>
	<path class="st0" d="M296.63,123.29l0.06-0.19c0,0,0,0.06,0,0.07l-0.09,0.09L296.63,123.29z"/>
	<path class="st0" d="M271.5,110.18l0.06-0.05l-0.08,0.06L271.5,110.18z"/>
	<path class="st2" d="M340.79,88.88c10.73,1.62,19,10.26,18.11,19.86c-0.46,4.76-2.89,9.21-6.83,12.51
		c-0.96,0.91-2.1,1.66-3.37,2.22c-0.63,0.22-1.52,0.34-1.1-0.51c0.29-0.6,1.38-0.83,2.01-1c2.99-0.88,6.23-0.88,9.22,0
		c1.57,0.49,2.96,1.34,4.01,2.47c1.05,1.13,1.73,2.49,1.96,3.93c0.14,1.37-0.32,2.74-1.27,3.84c-0.96,1.1-2.34,1.84-3.89,2.09
		c-1.8,0.19-1.82,2.68,0,2.49c1.79-0.18,3.47-0.83,4.84-1.85c1.37-1.02,2.35-2.38,2.84-3.9c0.43-1.52,0.41-3.12-0.07-4.63
		c-0.48-1.51-1.39-2.89-2.65-4.01c-1.38-1.22-3.03-2.17-4.85-2.79c-1.82-0.62-3.78-0.9-5.73-0.82c-3.14,0.06-8.87,0.67-9.33,4.12
		c-0.11,0.6,0,1.22,0.34,1.76c0.33,0.54,0.86,0.96,1.5,1.2c1.81,0.68,3.8-0.24,5.2-1.17c4.41-2.85,7.61-6.9,9.09-11.52
		c1.49-4.62,1.17-9.53-0.89-13.98c-1.64-3.27-4.17-6.15-7.37-8.37c-3.2-2.22-6.97-3.72-10.99-4.38c-1.8-0.27-2.53,2.14-0.76,2.41
		V88.88z"/>
	<path class="st2" d="M141.25,61.63c4.95-4.23,10.36-9.15,10.71-15.57c0.35-6.42-4.52-11.83-9.9-15.52
		c-5.51-3.67-12.02-6.01-18.88-6.8c-6.86-0.79-13.85,0.01-20.25,2.31c-6.2,2.34-11.68,5.92-16.02,10.45
		c-4.33,4.53-7.4,9.88-8.95,15.63c-1.68,6.48-0.51,13.16,5.47,17.64c5.19,3.9,12.09,5.66,18.79,6.3c8.32,0.77,16.73-0.37,24.39-3.33
		c1.89-0.72,3.72-1.56,5.48-2.5c1.42-0.76,3.53-2.67,5.32-2.05c1.27,0.42,2.05,1.82,2.82,2.65c0.9,1.09,2.15,1.91,3.6,2.35
		c0.24,0.05,0.5,0.05,0.74-0.01c0.24-0.06,0.46-0.17,0.64-0.33c0.18-0.16,0.3-0.35,0.37-0.56c0.07-0.21,0.07-0.43,0-0.65
		c-0.68-3.42-2.05-6.7-4.05-9.7c-0.21-0.25-0.52-0.43-0.87-0.49c-0.35-0.06-0.71-0.01-1.02,0.15c-0.31,0.16-0.54,0.41-0.64,0.71
		c-0.11,0.3-0.08,0.62,0.07,0.9c1.88,2.81,3.17,5.89,3.8,9.1l1.76-1.53c-2.19-0.6-3.18-3.06-4.91-4.25
		c-2.63-1.82-5.27-0.6-7.73,0.82c-5.76,3.33-12.33,5.45-19.19,6.2c-6.69,0.78-13.5,0.15-19.87-1.82
		c-6.03-1.94-11.58-5.7-12.66-11.54c-1.09-5.84,1.57-12.19,4.88-17.09c3.15-4.77,7.52-8.83,12.77-11.87
		c5.35-3.04,11.5-4.83,17.87-5.18c6.37-0.35,12.73,0.74,18.47,3.16c6.33,2.74,12.85,7.46,14.55,13.75
		c1.87,6.93-4.38,12.51-9.55,16.92c-1.27,1.11,0.7,2.89,2.01,1.76L141.25,61.63z"/>
	<path class="st2" d="M256.34,69.69c6.62-7.76,8.03-17.73,7.74-27.09c-0.17-5.67-0.87-11.33-1.13-16.99
		c-0.2-4.75-0.35-9.81,1.53-14.34c2.04-4.85,6.71-7.03,12.17-8.22c2.63-0.59,5.61-1,7.75,0.81c1.46,1.42,2.4,3.2,2.7,5.1
		c1.08,4.83,0.42,10.2-0.68,14.97c-1.2,5.1-3.16,10.03-5.83,14.69c-5.81,10.25-14.42,19.01-23.83,26.86
		c-1.33,1.11,0.68,2.87,2.01,1.76c8.86-7.44,17.08-15.66,22.97-25.16s9.75-20.72,8.49-31.6c-0.44-3.86-2-8.4-6.55-9.98
		c-2.76-0.94-5.77-0.37-8.54,0.29c-2.86,0.58-5.57,1.64-7.98,3.11c-4.31,2.85-6.1,7.4-6.76,11.94c-0.82,5.72-0.23,11.57,0.24,17.29
		c0.96,11.93,1.95,25.15-6.74,35.27c-1.1,1.29,1.37,2.54,2.46,1.26L256.34,69.69z"/>
	<path class="st2" d="M44.77,173.28c-6.01,7-9,15.64-8.43,24.38c0.1,1.6,2.95,1.61,2.85,0c-0.55-8.3,2.31-16.51,8.05-23.13
		c1.1-1.29-1.37-2.53-2.47-1.26V173.28z"/>
	<path class="st2" d="M29.77,185.45c-1.25,3.49-1.36,7.21-0.33,10.75c0.13,0.29,0.37,0.54,0.69,0.68c0.32,0.14,0.69,0.18,1.03,0.09
		c0.35-0.08,0.64-0.28,0.83-0.54c0.19-0.27,0.26-0.58,0.19-0.89c-0.89-3.11-0.78-6.37,0.33-9.42
		C33.06,184.58,30.32,183.89,29.77,185.45z"/>
</g>
</svg>
