
<svg width="99" height="86" viewBox="0 0 99 86" fill="none" xmlns="http://www.w3.org/2000/svg">
<path d="M94.7914 63.4289C94.8287 63.9852 94.5472 64.5144 94.0649 64.7941L86.3172 69.2875L85.6265 78.2172C85.5835 78.7731 85.2286 79.2563 84.7111 79.4637C84.1937 79.6712 83.6033 79.5669 83.1882 79.1946L76.5206 73.2146L67.8144 75.3171C67.2725 75.448 66.7032 75.2598 66.346 74.8318C65.9889 74.4037 65.9057 73.81 66.1314 73.3003L69.7584 65.1111L65.0684 57.4808C64.7765 57.0059 64.7795 56.4063 65.0762 55.9344C65.373 55.4623 65.9118 55.1997 66.4664 55.2569L75.3756 56.1757L81.1832 49.3574C81.5475 48.9298 82.1198 48.7516 82.6564 48.8869C83.197 49.0233 83.6133 49.4546 83.7304 49.9998L85.6096 58.7568L93.8888 62.1731C94.4041 62.3859 94.754 62.8727 94.7914 63.4289Z" fill="url(#paint0_linear_2270_504026)"/>
<path d="M77.6414 65.6603C70.7132 64.0422 63.8233 62.17 56.8952 60.5519C55.5894 60.2507 55.4235 58.2507 56.7708 57.9341C59.2848 57.1184 61.7251 56.4474 64.2391 55.6317C61.8134 54.4857 59.4852 54.7579 56.7556 55.2811C55.5916 55.4172 54.2472 55.3701 53.5294 54.2743C52.3799 52.5934 53.5643 49.9136 54.087 48.1734C55.4306 43.7505 57.3181 39.5136 58.1182 34.9047C58.924 29.569 55.6093 30.5237 52.3214 32.6778C48.8148 34.9029 45.5565 37.8932 42.8064 40.9602C38.0387 46.3733 33.2298 52.404 26.6626 55.622C23.0142 57.4098 16.5825 57.322 15.2405 52.4414C13.5439 46.468 15.7172 38.2721 18.8482 33.0277C20.325 30.1322 32.6779 12.3511 22.8873 14.1989C15.7172 15.5588 9.14484 23.9738 4.56032 29.2066C3.93704 29.8921 2.81721 29.0473 3.29573 28.2879C7.15916 22.3228 12.7274 16.7708 18.8987 13.077C22.2575 11.1414 29.3154 10.1803 29.5968 15.8882C29.9434 22.5414 24.3693 28.8202 21.0552 34.2448C18.8841 37.6072 17.9393 42.1423 17.2544 45.989C15.8078 54.1906 22.3017 55.5871 28.0741 51.7811C35.1257 47.077 39.6565 39.4451 45.9517 33.8989C48.2204 31.9546 55.688 25.1823 59.2576 28.7358C63.3676 32.8389 59.2649 41.4191 57.6674 45.8035C57.7057 45.5494 54.8853 52.8678 55.9756 52.8765C57.0658 52.8852 58.268 52.4951 59.4321 52.3592C61.6507 52.1224 63.5743 52.465 65.3469 53.4605C64.5637 51.4191 63.9991 49.3068 63.6532 47.1235C63.5171 45.9595 65.1213 45.3182 65.9515 46.0153C71.471 51.1109 74.6153 57.8229 79.0743 63.7458C79.8306 64.5875 78.8382 65.9969 77.6414 65.6603ZM68.2365 55.6639C68.4493 56.3197 67.9737 56.7157 67.501 56.7482C67.3888 57.1471 67.1318 57.4721 66.6945 57.614C65.2735 58.075 63.7432 58.5716 62.3222 59.0326C66.5294 60.0838 70.6275 61.1705 74.8347 62.2217C72.2845 58.4581 70.0269 54.4789 67.1103 51.076C67.462 52.5323 67.8493 54.0981 68.2365 55.6639Z" fill="#E3EAF3"/>
<path fill-rule="evenodd" clip-rule="evenodd" d="M68.7549 63.4821C71.7134 64.2282 74.6728 64.9676 77.6393 65.6604C78.8361 65.997 79.8286 64.5876 79.0722 63.7459C77.5209 61.6852 76.1287 59.5291 74.7402 57.3787C74.4474 56.9251 74.1547 56.4718 73.8607 56.0197L70.551 55.6784C71.2556 56.7238 71.9406 57.7877 72.6264 58.8531C73.3526 59.9812 74.0798 61.1109 74.8326 62.2217C72.729 61.6961 70.6527 61.1617 68.5764 60.6272C67.9526 60.4667 67.3288 60.3061 66.7043 60.1458L68.7549 63.4821ZM65.4049 58.0318L66.6925 57.614C67.1297 57.4722 67.3867 57.1472 67.4989 56.7483C67.9716 56.7157 68.4472 56.3198 68.2344 55.6639L68.2343 55.6635C68.2153 55.5869 68.1964 55.5103 68.1774 55.4336L66.4643 55.257C65.9097 55.1998 65.3709 55.4624 65.0741 55.9344C64.7774 56.4064 64.7744 57.006 65.0663 57.4809L65.4049 58.0318Z" fill="#F8F8FF"/>
<defs>
<linearGradient id="paint0_linear_2270_504026" x1="114.692" y1="146.644" x2="135.749" y2="63.0725" gradientUnits="userSpaceOnUse">
<stop stop-color="#E71D7C"/>
<stop offset="0.65625" stop-color="#3E4581"/>
<stop offset="1" stop-color="#E71D7C"/>
</linearGradient>
</defs>
</svg>
