
<svg width="15" height="18" viewBox="0 0 18 18" fill="none" xmlns="http://www.w3.org/2000/svg">
<path d="M14.4272 1.17712H3.57947C2.58264 1.17712 1.77148 1.98828 1.77148 2.9851V15.0382C1.77148 16.0349 2.58264 16.8462 3.57947 16.8462H14.4273C15.424 16.8462 16.2352 16.0349 16.2352 15.0382V2.9851C16.2351 1.98828 15.424 1.17712 14.4272 1.17712ZM15.0298 15.0382C15.0298 15.3708 14.7598 15.6407 14.4272 15.6407H3.57947C3.24742 15.6407 2.97678 15.3708 2.97678 15.0382V2.9851C2.97678 2.65304 3.24742 2.3824 3.57947 2.3824H14.4273C14.7599 2.3824 15.0299 2.65302 15.0299 2.9851V15.0382H15.0298Z" fill="#212529"/>
<path d="M11.4266 9.62961H4.77447C4.44185 9.62961 4.17188 9.35961 4.17188 9.02702C4.17188 8.69429 4.44185 8.42432 4.77447 8.42432H11.4266C11.7599 8.42432 12.0292 8.69429 12.0292 9.02702C12.0292 9.35961 11.7599 9.62961 11.4266 9.62961Z" fill="#212529"/>
<path d="M13.1972 13.2205H4.77457C4.44187 13.2205 4.17188 12.9511 4.17188 12.6178C4.17188 12.2846 4.44187 12.0151 4.77457 12.0151H13.1972C13.5305 12.0151 13.7999 12.2846 13.7999 12.6178C13.7999 12.9511 13.5305 13.2205 13.1972 13.2205Z" fill="#212529"/>
<path d="M5.71512 4.47992C5.54774 4.31258 5.31252 4.21509 5.07592 4.21509C4.83922 4.21509 4.604 4.31258 4.43673 4.47992C4.26935 4.64721 4.17188 4.88244 4.17188 5.11914C4.17188 5.35584 4.26926 5.59106 4.43664 5.75833C4.604 5.92569 4.83922 6.02319 5.07583 6.02319C5.31252 6.02319 5.54774 5.92569 5.71503 5.75833C5.88239 5.59107 5.97986 5.35584 5.97986 5.11914C5.97986 4.88244 5.88246 4.64721 5.71512 4.47992Z" fill="#212529"/>
<path d="M9.62135 4.47992C9.45398 4.31258 9.21877 4.21509 8.98216 4.21509C8.74547 4.21509 8.51025 4.31258 8.34298 4.47992C8.1756 4.64721 8.07812 4.88244 8.07812 5.11914C8.07812 5.35584 8.17551 5.59106 8.34287 5.75833C8.51025 5.92569 8.74547 6.02319 8.98207 6.02319C9.21877 6.02319 9.45398 5.92569 9.62126 5.75833C9.78862 5.59107 9.8861 5.35584 9.8861 5.11914C9.88608 4.88244 9.78871 4.64721 9.62135 4.47992Z" fill="#212529"/>
<path d="M13.5374 4.47992C13.37 4.31258 13.1348 4.21509 12.8982 4.21509C12.6615 4.21509 12.4263 4.31258 12.259 4.47992C12.0916 4.64721 11.9941 4.88244 11.9941 5.11914C11.9941 5.35584 12.0915 5.59106 12.2589 5.75833C12.4263 5.92569 12.6615 6.02319 12.8981 6.02319C13.1348 6.02319 13.37 5.92569 13.5373 5.75833C13.7047 5.59107 13.8021 5.35584 13.8021 5.11914C13.8021 4.88244 13.7047 4.64721 13.5374 4.47992Z" fill="#212529"/>
</svg>
