<svg width="43" height="44" viewBox="0 0 43 44" fill="none" xmlns="http://www.w3.org/2000/svg">
<g clip-path="url(#clip0_2488_499434)">
<path d="M25.084 4.49165H7.16732C5.17857 4.49165 3.58398 6.10415 3.58398 8.07499V25.9917H7.16732V8.07499H25.084V4.49165ZM32.2507 11.6583H14.334C12.3452 11.6583 10.7507 13.2708 10.7507 15.2417V33.1583H14.334V15.2417H32.2507V11.6583ZM35.834 18.825H21.5007C19.5119 18.825 17.9173 20.4375 17.9173 22.4083V36.7417C17.9173 38.7125 19.5119 40.325 21.5007 40.325H35.834C37.8048 40.325 39.4173 38.7125 39.4173 36.7417V22.4083C39.4173 20.4375 37.8048 18.825 35.834 18.825Z" fill="#E71D7C"/>
</g>
<defs>
<clipPath id="clip0_2488_499434">
<rect width="43" height="43" fill="white" transform="translate(0 0.908325)"/>
</clipPath>
</defs>
</svg>
