<svg width="21" height="22" viewBox="0 0 21 22" fill="none" xmlns="http://www.w3.org/2000/svg">
<g clip-path="url(#clip0_2410_498469)">
<path d="M17.8271 15.0421L17.0529 13.8076C16.8646 13.4938 16.6763 12.887 16.6345 12.5104L16.2997 8.17934C16.1114 5.79411 14.4376 3.7018 12.136 2.90673C11.9268 2.25811 11.2991 1.81873 10.5668 1.81873C9.8554 1.81873 9.22771 2.27903 8.99755 2.90673C6.69601 3.7018 5.02217 5.79411 4.83386 8.17934L4.49909 12.5104C4.45724 12.908 4.26894 13.5147 4.08063 13.8076L3.30648 15.0421C2.88801 15.7116 2.80432 16.3812 3.09724 16.9043C3.39017 17.4273 3.99694 17.7203 4.79201 17.7203H16.3416C17.1366 17.7203 17.7225 17.4273 18.0154 16.9043C18.3083 16.4021 18.2456 15.7326 17.8271 15.0421ZM17.2831 16.5276C17.1576 16.7787 16.8019 16.9043 16.3416 16.9043H4.79201C4.31078 16.9043 3.97601 16.7578 3.82955 16.5067C3.70401 16.2556 3.76678 15.879 4.01786 15.4815L4.79201 14.247C5.04309 13.8286 5.27324 13.0963 5.33601 12.5732L5.67078 8.24211C5.83817 6.12888 7.4074 4.2458 9.47878 3.63903C9.62524 3.59719 9.75078 3.45073 9.77171 3.30426C9.83448 2.94857 10.1692 2.65565 10.5668 2.65565C10.9643 2.65565 11.32 2.94857 11.3619 3.30426C11.3828 3.47165 11.5083 3.59719 11.6548 3.63903C13.7262 4.2458 15.2954 6.1498 15.4628 8.24211L15.7976 12.5732C15.8394 13.0963 16.0905 13.8286 16.3416 14.247L17.1157 15.4815C17.3668 15.9 17.4296 16.2766 17.2831 16.5276ZM12.9102 18.7664C12.8056 18.9547 11.7803 20.6495 10.5668 20.6495C9.35324 20.6495 8.32801 18.9547 8.2234 18.7664C8.09786 18.5572 8.18155 18.3061 8.36986 18.2015C8.57909 18.076 8.83017 18.1596 8.93478 18.348C9.22771 18.8292 9.98094 19.8126 10.5668 19.8126C11.1526 19.8126 11.9059 18.8292 12.1988 18.348C12.3243 18.1387 12.5754 18.076 12.7637 18.2015C12.9729 18.3061 13.0357 18.5781 12.9102 18.7664Z" fill="#343A40" stroke="#343A40" stroke-width="0.871795"/>
</g>
<defs>
<clipPath id="clip0_2410_498469">
<rect width="20.9231" height="20.9231" fill="white" transform="translate(0 0.772583)"/>
</clipPath>
</defs>
</svg>
