<svg width="54" height="54" viewBox="0 0 54 54" fill="none" xmlns="http://www.w3.org/2000/svg">
<path d="M28.6869 7.72426L39.9257 14.2133C40.4387 14.5095 40.8648 14.9355 41.161 15.4486C41.4572 15.9616 41.6131 16.5436 41.6132 17.136V30.114C41.6132 30.6988 41.4614 31.2736 41.1725 31.782C40.8835 32.2904 40.4675 32.715 39.965 33.0143L44.0285 40.0511L36.6238 41.7814L31.7908 47.1814L27.6002 39.924C27.0827 40.0174 26.5494 39.9893 26.0432 39.8396L21.8053 47.1814L16.9712 41.7814L9.56641 40.05L13.7424 32.8185C13.3212 32.5043 12.9793 32.096 12.7437 31.6263C12.5082 31.1566 12.3856 30.6384 12.3857 30.1129V17.136C12.3857 16.5436 12.5416 15.9616 12.8378 15.4486C13.1341 14.9355 13.5601 14.5095 14.0732 14.2133L25.3119 7.72426C25.825 7.42804 26.407 7.27209 26.9994 7.27209C27.5918 7.27209 28.1738 7.42804 28.6869 7.72426ZM16.6528 34.5251L14.7628 37.7989L18.7757 38.736L21.2113 41.4585L23.0732 38.232L16.6528 34.5251ZM37.0412 34.7006L30.6219 38.4075L32.3848 41.4585L34.8204 38.736L38.8322 37.8L37.0434 34.7006H37.0412ZM26.9994 10.6481L15.7607 17.136V30.114L26.9994 36.603L38.2382 30.114V17.136L26.9994 10.647V10.6481ZM26.9994 16.875C28.7896 16.875 30.5065 17.5862 31.7724 18.852C33.0382 20.1179 33.7494 21.8348 33.7494 23.625C33.7494 25.4152 33.0382 27.1321 31.7724 28.398C30.5065 29.6638 28.7896 30.375 26.9994 30.375C25.2092 30.375 23.4923 29.6638 22.2264 28.398C20.9606 27.1321 20.2494 25.4152 20.2494 23.625C20.2494 21.8348 20.9606 20.1179 22.2264 18.852C23.4923 17.5862 25.2092 16.875 26.9994 16.875ZM26.9994 20.25C26.1043 20.25 25.2459 20.6056 24.6129 21.2385C23.98 21.8715 23.6244 22.7299 23.6244 23.625C23.6244 24.5201 23.98 25.3786 24.6129 26.0115C25.2459 26.6444 26.1043 27 26.9994 27C27.8945 27 28.753 26.6444 29.3859 26.0115C30.0188 25.3786 30.3744 24.5201 30.3744 23.625C30.3744 22.7299 30.0188 21.8715 29.3859 21.2385C28.753 20.6056 27.8945 20.25 26.9994 20.25Z" fill="#E71D7C"/>
</svg>
