<svg width="46" height="46" viewBox="0 0 46 46" fill="none" xmlns="http://www.w3.org/2000/svg">
<g clip-path="url(#clip0_2461_500767)">
<path d="M23.125 44.846L40.7031 39.1774V1.60388L23.125 7.27247V44.846Z" fill="white"/>
<path d="M12.7715 41.5072L23.1247 44.846V7.27246L12.7715 3.93365V41.5072Z" fill="white"/>
<path d="M9.83398 8.96985V19.0086L14.3356 20.4601V10.4218L9.83398 8.96985Z" fill="white"/>
<path d="M18.8376 11.8733L14.3359 10.4218V20.4601L18.8376 21.9117V11.8733Z" fill="white"/>
<path d="M40.7031 12.2386C40.4721 12.2386 40.2451 12.3327 40.0817 12.4961C39.9183 12.6595 39.8242 12.8865 39.8242 13.1175C39.8242 13.3489 39.9183 13.5755 40.0817 13.7389C40.2451 13.9024 40.4721 13.9964 40.7031 13.9964C40.9342 13.9964 41.1611 13.9024 41.3245 13.7389C41.488 13.5755 41.582 13.3489 41.582 13.1175C41.582 12.8865 41.488 12.6595 41.3245 12.4961C41.1611 12.3327 40.9342 12.2386 40.7031 12.2386Z" fill="#E71D7C"/>
<path d="M31.7305 35.6288L36.4027 34.1223V24.0836L31.7305 25.5904V35.6288Z" fill="#E71D7C" stroke="#E71D7C"/>
<path d="M41.2204 0.893538C40.9935 0.728057 40.7006 0.681022 40.4332 0.767539L23.125 6.34892L5.81672 0.767539C5.54893 0.681022 5.25677 0.728057 5.02949 0.893538C4.80255 1.05902 4.66797 1.32303 4.66797 1.60387V39.1774C4.66797 39.5588 4.91413 39.897 5.27702 40.014L22.8551 45.6826H22.8554C22.9427 45.7108 23.0336 45.7249 23.125 45.7249C23.2156 45.7249 23.3066 45.7111 23.3948 45.6826L40.9729 40.014C41.3358 39.897 41.5819 39.5591 41.5819 39.1777V16.7361C41.5819 16.251 41.1885 15.8572 40.703 15.8572C40.2176 15.8572 39.8241 16.251 39.8241 16.7361V38.5374L24.0039 43.6392V7.91241L39.8241 2.81099V9.6019C39.8241 10.0874 40.2176 10.4808 40.703 10.4808C41.1885 10.4808 41.5819 10.0874 41.5819 9.6019V1.60387C41.5819 1.32303 41.4477 1.05902 41.2204 0.893538ZM6.42578 2.81099L22.2461 7.91241V43.6392L6.42578 38.5374V2.81099Z" fill="#E71D7C" stroke="#E71D7C"/>
<path d="M9.56413 19.8449L18.5674 22.7484C18.656 22.7769 18.7466 22.7906 18.8373 22.7906C19.0209 22.7906 19.2026 22.7333 19.3546 22.6224C19.5819 22.4569 19.7162 22.1929 19.7162 21.9117V11.8733C19.7162 11.4919 19.47 11.1541 19.1071 11.0367L10.1038 8.13354C9.83604 8.04736 9.54353 8.09405 9.3166 8.25954C9.08932 8.42502 8.95508 8.68903 8.95508 8.96987V19.0083C8.95508 19.39 9.20124 19.7279 9.56413 19.8449ZM10.7129 10.177L17.9584 12.5133V20.705L10.7129 18.3683V10.177Z" fill="#E71D7C" stroke="#E71D7C"/>
<path d="M19.1074 26.4631L10.1041 23.5597C9.64166 23.411 9.14659 23.6647 8.99759 24.1265C8.84893 24.5883 9.10264 25.0837 9.56441 25.2327L18.5677 28.1361C18.6576 28.165 18.7486 28.1787 18.8379 28.1787C19.209 28.1787 19.554 27.9415 19.6742 27.5693C19.8232 27.1075 19.5695 26.6121 19.1074 26.4631Z" fill="#E71D7C" stroke="#E71D7C"/>
<path d="M19.1074 31.326L10.1041 28.4228C9.64166 28.2738 9.14659 28.5275 8.99759 28.9893C8.84893 29.4514 9.10264 29.9468 9.56441 30.0958L18.5677 32.999C18.6576 33.0281 18.7486 33.0419 18.8379 33.0419C19.209 33.0419 19.554 32.8046 19.6742 32.4321C19.8232 31.9704 19.5695 31.4753 19.1074 31.326Z" fill="#E71D7C" stroke="#E71D7C"/>
<path d="M19.1074 36.1891L10.1041 33.2856C9.64166 33.137 9.14659 33.3907 8.99759 33.8525C8.84893 34.3142 9.10264 34.8096 9.56441 34.9586L18.5677 37.8621C18.6576 37.891 18.7486 37.9047 18.8379 37.9047C19.209 37.9047 19.554 37.6675 19.6742 37.2953C19.8232 36.8332 19.5695 36.3381 19.1074 36.1891Z" fill="#E71D7C" stroke="#E71D7C"/>
<path d="M36.9191 23.3732C36.6918 23.2078 36.399 23.1611 36.1319 23.2472L27.1286 26.1504C26.7653 26.2678 26.5195 26.6056 26.5195 26.9871V37.0254C26.5195 37.3066 26.6538 37.5706 26.8807 37.7358C27.0331 37.8467 27.2144 37.9043 27.3984 37.9043C27.4887 37.9043 27.5797 37.8906 27.6679 37.8621L36.6712 34.9586C37.0345 34.8416 37.2806 34.5037 37.2806 34.1223V24.0836C37.2806 23.8027 37.146 23.5387 36.9191 23.3732ZM35.5228 33.482L28.2773 35.8187V27.627L35.5228 25.2907V33.482Z" fill="#E71D7C" stroke="#E71D7C"/>
<path d="M37.2385 18.426C37.0895 17.9642 36.5944 17.7105 36.1323 17.8595L27.129 20.7626C26.6669 20.9116 26.4132 21.407 26.5622 21.8692C26.6824 22.2413 27.0274 22.4786 27.3985 22.4786C27.4878 22.4786 27.5788 22.4648 27.6684 22.436L36.6717 19.5325C37.1338 19.3832 37.3875 18.8881 37.2385 18.426Z" fill="#E71D7C" stroke="#E71D7C"/>
<path d="M37.2385 13.5632C37.0895 13.1011 36.5944 12.8473 36.1323 12.9963L27.129 15.8998C26.6669 16.0488 26.4132 16.5442 26.5622 17.006C26.6824 17.3785 27.0274 17.6154 27.3985 17.6154C27.4878 17.6154 27.5788 17.6017 27.6684 17.5728L36.6717 14.6694C37.1338 14.5203 37.3875 14.0253 37.2385 13.5632Z" fill="#E71D7C" stroke="#E71D7C"/>
<path d="M37.2385 8.70037C37.0895 8.23826 36.5944 7.98455 36.1323 8.13355L27.129 11.037C26.6669 11.186 26.4132 11.6811 26.5622 12.1432C26.6824 12.5154 27.0274 12.7526 27.3985 12.7526C27.4878 12.7526 27.5788 12.7389 27.6684 12.71L36.6717 9.80656C37.1338 9.65756 37.3875 9.16214 37.2385 8.70037Z" fill="#E71D7C" stroke="#E71D7C"/>
</g>
<defs>
<clipPath id="clip0_2461_500767">
<rect width="45" height="45" fill="white" transform="translate(0.625 0.724976)"/>
</clipPath>
</defs>
</svg>
