<svg width="35" height="38" viewBox="0 0 35 38" fill="none" xmlns="http://www.w3.org/2000/svg">
<path d="M30.6812 9.625H25.5V4.9375C25.5 2.35312 23.3969 0.25 20.8125 0.25H5.1875C2.60312 0.25 0.5 2.35312 0.5 4.9375V28.375C0.5 30.9594 2.60312 33.0625 5.1875 33.0625H13V33.5547C13 35.8688 14.8813 37.75 17.1938 37.75H30.6812C32.9938 37.75 34.875 35.8688 34.875 33.5547V13.8203C34.875 11.5063 32.9938 9.625 30.6812 9.625ZM5.1875 29.9375C4.32656 29.9375 3.625 29.2375 3.625 28.375V4.9375C3.625 4.075 4.32656 3.375 5.1875 3.375H20.8125C21.6734 3.375 22.375 4.075 22.375 4.9375V9.625V28.375C22.375 29.2375 21.6734 29.9375 20.8125 29.9375H13H5.1875Z" fill="#E71D7C"/>
</svg>
