
<svg width="454" height="323" viewBox="0 0 454 323" fill="none" xmlns="http://www.w3.org/2000/svg">
<path d="M432.73 93.6441C432.73 117.773 427.978 141.666 418.744 163.958C409.51 186.25 395.976 206.505 378.914 223.567C361.853 240.628 341.597 254.163 319.305 263.396C297.013 272.63 273.12 277.382 248.992 277.382C224.863 277.382 200.97 272.63 178.678 263.396C156.386 254.163 136.131 240.628 119.069 223.567C102.007 206.505 88.4731 186.25 79.2394 163.958C70.0057 141.666 65.2532 117.773 65.2532 93.644L432.73 93.6441Z" fill="#FFE9E9"/>
<path d="M29.2165 125.794C24.0616 125.774 19.626 124.506 15.9096 121.988C12.2133 119.471 9.36611 115.824 7.36809 111.049C5.39004 106.274 4.41101 100.529 4.43099 93.8161C4.43099 87.1227 5.42001 81.4183 7.39806 76.703C9.39608 71.9876 12.2433 68.4012 15.9396 65.9436C19.6559 63.4661 24.0816 62.2273 29.2165 62.2273C34.3514 62.2273 38.7671 63.4661 42.4634 65.9436C46.1797 68.4212 49.0369 72.0176 51.0349 76.7329C53.033 81.4283 54.022 87.1227 54.002 93.8161C54.002 100.549 53.003 106.304 51.005 111.079C49.0269 115.854 46.1897 119.501 42.4934 122.018C38.797 124.536 34.3714 125.794 29.2165 125.794ZM29.2165 115.035C32.733 115.035 35.5402 113.267 37.6382 109.73C39.7361 106.194 40.7751 100.889 40.7551 93.8161C40.7551 89.1607 40.2756 85.2845 39.3165 82.1876C38.3774 79.0906 37.0388 76.7629 35.3005 75.2045C33.5822 73.646 31.5542 72.8668 29.2165 72.8668C25.72 72.8668 22.9227 74.615 20.8248 78.1116C18.7269 81.6081 17.6679 86.843 17.6479 93.8161C17.6479 98.5314 18.1175 102.468 19.0565 105.624C20.0156 108.761 21.3643 111.119 23.1025 112.697C24.8408 114.256 26.8788 115.035 29.2165 115.035ZM64.0346 124.446L89.4794 74.0956V73.676H59.8387V63.0665H102.906V73.8258L77.4314 124.446H64.0346Z" fill="#D7D7D7"/>
<g filter="url(#filter0_ddddd_4081_504425)">
<rect x="143" y="1" width="286" height="255" fill="white"/>
<rect x="143.265" y="1.26482" width="285.47" height="254.47" stroke="#F1F1F1" stroke-width="0.529639"/>
</g>
<path d="M194.841 54.6791V37.9232H200.813C202.112 37.9232 203.189 38.1469 204.045 38.5941C204.907 39.0414 205.551 39.6604 205.976 40.4513C206.401 41.2368 206.614 42.1449 206.614 43.1758C206.614 44.2012 206.399 45.1039 205.968 45.8839C205.542 46.6584 204.899 47.2611 204.037 47.692C203.181 48.1229 202.103 48.3384 200.805 48.3384H196.281V46.1621H200.576C201.394 46.1621 202.06 46.0448 202.572 45.8103C203.091 45.5757 203.47 45.2348 203.71 44.7876C203.95 44.3403 204.07 43.803 204.07 43.1758C204.07 42.5431 203.947 41.9949 203.701 41.5313C203.462 41.0677 203.082 40.7131 202.564 40.4677C202.052 40.2168 201.378 40.0913 200.543 40.0913H197.369V54.6791H194.841ZM203.112 47.1193L207.252 54.6791H204.372L200.314 47.1193H203.112ZM214.522 54.9327C213.284 54.9327 212.218 54.6682 211.323 54.1391C210.434 53.6046 209.747 52.8546 209.262 51.8892C208.782 50.9183 208.542 49.781 208.542 48.4774C208.542 47.1902 208.782 46.0557 209.262 45.0739C209.747 44.0921 210.423 43.3258 211.291 42.7749C212.163 42.224 213.183 41.9486 214.351 41.9486C215.06 41.9486 215.747 42.0658 216.412 42.3004C217.078 42.5349 217.675 42.9031 218.204 43.4049C218.733 43.9067 219.15 44.5585 219.456 45.3603C219.761 46.1566 219.914 47.1248 219.914 48.2647V49.132H209.924V47.2993H217.517C217.517 46.6557 217.386 46.0857 217.124 45.5894C216.862 45.0875 216.494 44.6921 216.02 44.403C215.551 44.1139 215 43.9694 214.367 43.9694C213.68 43.9694 213.08 44.1385 212.567 44.4767C212.06 44.8094 211.667 45.2457 211.389 45.7857C211.116 46.3202 210.98 46.9011 210.98 47.5284V48.9602C210.98 49.8001 211.127 50.5147 211.422 51.1037C211.722 51.6928 212.139 52.1428 212.673 52.4537C213.208 52.7591 213.832 52.9119 214.547 52.9119C215.011 52.9119 215.433 52.8464 215.815 52.7155C216.197 52.5791 216.527 52.3773 216.805 52.1101C217.083 51.8428 217.296 51.5128 217.443 51.1201L219.759 51.5374C219.573 52.2192 219.24 52.8164 218.76 53.3291C218.286 53.8364 217.689 54.2318 216.969 54.5154C216.254 54.7936 215.439 54.9327 214.522 54.9327ZM232.788 42.1122L228.231 54.6791H225.613L221.048 42.1122H223.674L226.857 51.7828H226.988L230.162 42.1122H232.788ZM234.857 54.6791V42.1122H237.303V54.6791H234.857ZM236.092 40.1732C235.667 40.1732 235.302 40.0313 234.996 39.7477C234.696 39.4586 234.546 39.115 234.546 38.7168C234.546 38.3132 234.696 37.9696 234.996 37.686C235.302 37.3969 235.667 37.2523 236.092 37.2523C236.518 37.2523 236.881 37.3969 237.181 37.686C237.486 37.9696 237.639 38.3132 237.639 38.7168C237.639 39.115 237.486 39.4586 237.181 39.7477C236.881 40.0313 236.518 40.1732 236.092 40.1732ZM249.781 45.1803L247.564 45.573C247.471 45.2894 247.324 45.0194 247.122 44.763C246.926 44.5067 246.658 44.2967 246.32 44.133C245.982 43.9694 245.559 43.8876 245.052 43.8876C244.359 43.8876 243.781 44.043 243.318 44.3539C242.854 44.6594 242.622 45.0548 242.622 45.5403C242.622 45.9603 242.778 46.2984 243.088 46.5548C243.399 46.8111 243.901 47.0211 244.594 47.1848L246.59 47.6429C247.747 47.9102 248.608 48.322 249.176 48.8783C249.743 49.4347 250.026 50.1574 250.026 51.0465C250.026 51.7992 249.808 52.4701 249.372 53.0591C248.941 53.6427 248.338 54.1009 247.564 54.4336C246.795 54.7663 245.903 54.9327 244.888 54.9327C243.481 54.9327 242.333 54.6327 241.444 54.0327C240.555 53.4273 240.009 52.5682 239.808 51.4555L242.172 51.0955C242.319 51.7119 242.622 52.1782 243.08 52.4946C243.538 52.8055 244.136 52.9609 244.872 52.9609C245.674 52.9609 246.315 52.7946 246.795 52.4619C247.275 52.1237 247.515 51.7119 247.515 51.2265C247.515 50.8337 247.367 50.5037 247.073 50.2365C246.784 49.9692 246.339 49.7674 245.739 49.631L243.612 49.1647C242.439 48.8974 241.572 48.472 241.01 47.8884C240.454 47.3048 240.176 46.5657 240.176 45.6712C240.176 44.9294 240.383 44.2803 240.798 43.724C241.212 43.1676 241.785 42.734 242.516 42.4231C243.247 42.1067 244.084 41.9486 245.028 41.9486C246.386 41.9486 247.455 42.2431 248.235 42.8322C249.015 43.4158 249.53 44.1985 249.781 45.1803ZM252.486 54.6791V42.1122H254.932V54.6791H252.486ZM253.721 40.1732C253.296 40.1732 252.93 40.0313 252.625 39.7477C252.325 39.4586 252.175 39.115 252.175 38.7168C252.175 38.3132 252.325 37.9696 252.625 37.686C252.93 37.3969 253.296 37.2523 253.721 37.2523C254.147 37.2523 254.509 37.3969 254.809 37.686C255.115 37.9696 255.267 38.3132 255.267 38.7168C255.267 39.115 255.115 39.4586 254.809 39.7477C254.509 40.0313 254.147 40.1732 253.721 40.1732ZM263.286 54.9327C262.108 54.9327 261.08 54.6627 260.202 54.1227C259.324 53.5827 258.642 52.8273 258.156 51.8564C257.671 50.8856 257.428 49.751 257.428 48.4529C257.428 47.1493 257.671 46.0093 258.156 45.033C258.642 44.0567 259.324 43.2985 260.202 42.7585C261.08 42.2185 262.108 41.9486 263.286 41.9486C264.464 41.9486 265.492 42.2185 266.371 42.7585C267.249 43.2985 267.931 44.0567 268.416 45.033C268.901 46.0093 269.144 47.1493 269.144 48.4529C269.144 49.751 268.901 50.8856 268.416 51.8564C267.931 52.8273 267.249 53.5827 266.371 54.1227C265.492 54.6627 264.464 54.9327 263.286 54.9327ZM263.294 52.8791C264.058 52.8791 264.691 52.6773 265.192 52.2737C265.694 51.8701 266.065 51.3328 266.305 50.6619C266.551 49.991 266.673 49.252 266.673 48.4447C266.673 47.6429 266.551 46.9066 266.305 46.2357C266.065 45.5594 265.694 45.0166 265.192 44.6076C264.691 44.1985 264.058 43.9939 263.294 43.9939C262.525 43.9939 261.887 44.1985 261.38 44.6076C260.878 45.0166 260.504 45.5594 260.259 46.2357C260.019 46.9066 259.899 47.6429 259.899 48.4447C259.899 49.252 260.019 49.991 260.259 50.6619C260.504 51.3328 260.878 51.8701 261.38 52.2737C261.887 52.6773 262.525 52.8791 263.294 52.8791ZM274.091 47.2175V54.6791H271.644V42.1122H273.992V44.1576H274.148C274.437 43.4921 274.89 42.9576 275.506 42.554C276.128 42.1504 276.911 41.9486 277.854 41.9486C278.711 41.9486 279.46 42.1285 280.104 42.4885C280.748 42.8431 281.247 43.3721 281.601 44.0758C281.956 44.7794 282.133 45.6494 282.133 46.6857V54.6791H279.687V46.9802C279.687 46.0693 279.45 45.3575 278.975 44.8448C278.501 44.3267 277.849 44.0676 277.02 44.0676C276.452 44.0676 275.948 44.1903 275.506 44.4358C275.07 44.6812 274.723 45.0412 274.467 45.5157C274.216 45.9848 274.091 46.5521 274.091 47.2175ZM291.247 54.6791V37.9232H297.219C298.518 37.9232 299.595 38.1469 300.451 38.5941C301.313 39.0414 301.957 39.6604 302.382 40.4513C302.807 41.2368 303.02 42.1449 303.02 43.1758C303.02 44.2012 302.805 45.1039 302.374 45.8839C301.948 46.6584 301.305 47.2611 300.443 47.692C299.587 48.1229 298.509 48.3384 297.211 48.3384H292.687V46.1621H296.982C297.8 46.1621 298.466 46.0448 298.978 45.8103C299.497 45.5757 299.876 45.2348 300.116 44.7876C300.356 44.3403 300.476 43.803 300.476 43.1758C300.476 42.5431 300.353 41.9949 300.107 41.5313C299.867 41.0677 299.488 40.7131 298.97 40.4677C298.458 40.2168 297.784 40.0913 296.949 40.0913H293.775V54.6791H291.247ZM299.518 47.1193L303.658 54.6791H300.778L296.72 47.1193H299.518ZM310.928 54.9327C309.69 54.9327 308.624 54.6682 307.729 54.1391C306.84 53.6046 306.153 52.8546 305.668 51.8892C305.188 50.9183 304.948 49.781 304.948 48.4774C304.948 47.1902 305.188 46.0557 305.668 45.0739C306.153 44.0921 306.829 43.3258 307.697 42.7749C308.569 42.224 309.589 41.9486 310.757 41.9486C311.466 41.9486 312.153 42.0658 312.818 42.3004C313.484 42.5349 314.081 42.9031 314.61 43.4049C315.139 43.9067 315.556 44.5585 315.862 45.3603C316.167 46.1566 316.32 47.1248 316.32 48.2647V49.132H306.33V47.2993H313.923C313.923 46.6557 313.792 46.0857 313.53 45.5894C313.268 45.0875 312.9 44.6921 312.426 44.403C311.956 44.1139 311.406 43.9694 310.773 43.9694C310.086 43.9694 309.486 44.1385 308.973 44.4767C308.466 44.8094 308.073 45.2457 307.795 45.7857C307.522 46.3202 307.386 46.9011 307.386 47.5284V48.9602C307.386 49.8001 307.533 50.5147 307.828 51.1037C308.128 51.6928 308.545 52.1428 309.079 52.4537C309.614 52.7591 310.238 52.9119 310.953 52.9119C311.416 52.9119 311.839 52.8464 312.221 52.7155C312.603 52.5791 312.933 52.3773 313.211 52.1101C313.489 51.8428 313.702 51.5128 313.849 51.1201L316.165 51.5374C315.979 52.2192 315.646 52.8164 315.166 53.3291C314.692 53.8364 314.095 54.2318 313.375 54.5154C312.66 54.7936 311.845 54.9327 310.928 54.9327ZM327.288 59.3917V52.7237H327.141C326.994 52.9909 326.781 53.2964 326.503 53.64C326.23 53.9836 325.854 54.2836 325.374 54.54C324.894 54.7963 324.272 54.9245 323.508 54.9245C322.494 54.9245 321.588 54.6654 320.792 54.1473C320.001 53.6237 319.379 52.8791 318.927 51.9137C318.479 50.9428 318.256 49.7783 318.256 48.4202C318.256 47.062 318.482 45.9003 318.935 44.9348C319.393 43.9694 320.02 43.2303 320.816 42.7176C321.613 42.2049 322.516 41.9486 323.525 41.9486C324.305 41.9486 324.932 42.0795 325.406 42.3413C325.886 42.5976 326.257 42.8976 326.519 43.2412C326.786 43.5849 326.994 43.8876 327.141 44.1494H327.345V42.1122H329.734V59.3917H327.288ZM324.048 52.8382C324.752 52.8382 325.346 52.6528 325.832 52.2819C326.323 51.9055 326.694 51.3846 326.944 50.7192C327.201 50.0538 327.329 49.2792 327.329 48.3956C327.329 47.5229 327.204 46.7593 326.953 46.1048C326.702 45.4503 326.334 44.9403 325.848 44.5748C325.363 44.2094 324.763 44.0267 324.048 44.0267C323.312 44.0267 322.698 44.2176 322.207 44.5994C321.716 44.9812 321.346 45.5021 321.095 46.1621C320.849 46.822 320.726 47.5666 320.726 48.3956C320.726 49.2356 320.852 49.991 321.103 50.6619C321.354 51.3328 321.725 51.8646 322.216 52.2573C322.712 52.6446 323.323 52.8382 324.048 52.8382ZM340.754 49.4674V42.1122H343.208V54.6791H340.803V52.5028H340.672C340.383 53.1737 339.919 53.7327 339.281 54.18C338.648 54.6218 337.86 54.8427 336.917 54.8427C336.109 54.8427 335.395 54.6654 334.773 54.3109C334.157 53.9509 333.671 53.4191 333.317 52.7155C332.968 52.0119 332.793 51.1419 332.793 50.1056V42.1122H335.239V49.811C335.239 50.6674 335.477 51.3492 335.951 51.8564C336.426 52.3637 337.042 52.6173 337.8 52.6173C338.258 52.6173 338.714 52.5028 339.166 52.2737C339.625 52.0446 340.004 51.6983 340.304 51.2346C340.609 50.771 340.759 50.1819 340.754 49.4674ZM351.681 54.9327C350.443 54.9327 349.376 54.6682 348.482 54.1391C347.593 53.6046 346.906 52.8546 346.42 51.8892C345.94 50.9183 345.7 49.781 345.7 48.4774C345.7 47.1902 345.94 46.0557 346.42 45.0739C346.906 44.0921 347.582 43.3258 348.449 42.7749C349.322 42.224 350.342 41.9486 351.509 41.9486C352.218 41.9486 352.905 42.0658 353.571 42.3004C354.236 42.5349 354.834 42.9031 355.363 43.4049C355.892 43.9067 356.309 44.5585 356.614 45.3603C356.92 46.1566 357.073 47.1248 357.073 48.2647V49.132H347.083V47.2993H354.675C354.675 46.6557 354.544 46.0857 354.283 45.5894C354.021 45.0875 353.653 44.6921 353.178 44.403C352.709 44.1139 352.158 43.9694 351.525 43.9694C350.838 43.9694 350.238 44.1385 349.725 44.4767C349.218 44.8094 348.826 45.2457 348.547 45.7857C348.275 46.3202 348.138 46.9011 348.138 47.5284V48.9602C348.138 49.8001 348.286 50.5147 348.58 51.1037C348.88 51.6928 349.297 52.1428 349.832 52.4537C350.366 52.7591 350.991 52.9119 351.705 52.9119C352.169 52.9119 352.592 52.8464 352.974 52.7155C353.355 52.5791 353.685 52.3773 353.964 52.1101C354.242 51.8428 354.454 51.5128 354.602 51.1201L356.917 51.5374C356.732 52.2192 356.399 52.8164 355.919 53.3291C355.444 53.8364 354.847 54.2318 354.127 54.5154C353.413 54.7936 352.597 54.9327 351.681 54.9327ZM368.973 45.1803L366.756 45.573C366.663 45.2894 366.516 45.0194 366.314 44.763C366.118 44.5067 365.851 44.2967 365.513 44.133C365.174 43.9694 364.752 43.8876 364.244 43.8876C363.552 43.8876 362.974 44.043 362.51 44.3539C362.046 44.6594 361.815 45.0548 361.815 45.5403C361.815 45.9603 361.97 46.2984 362.281 46.5548C362.592 46.8111 363.094 47.0211 363.786 47.1848L365.783 47.6429C366.939 47.9102 367.801 48.322 368.368 48.8783C368.935 49.4347 369.219 50.1574 369.219 51.0465C369.219 51.7992 369.001 52.4701 368.564 53.0591C368.133 53.6427 367.531 54.1009 366.756 54.4336C365.987 54.7663 365.095 54.9327 364.081 54.9327C362.674 54.9327 361.525 54.6327 360.636 54.0327C359.747 53.4273 359.202 52.5682 359 51.4555L361.365 51.0955C361.512 51.7119 361.815 52.1782 362.273 52.4946C362.731 52.8055 363.328 52.9609 364.064 52.9609C364.866 52.9609 365.507 52.7946 365.987 52.4619C366.467 52.1237 366.707 51.7119 366.707 51.2265C366.707 50.8337 366.56 50.5037 366.265 50.2365C365.976 49.9692 365.532 49.7674 364.932 49.631L362.804 49.1647C361.632 48.8974 360.765 48.472 360.203 47.8884C359.646 47.3048 359.368 46.5657 359.368 45.6712C359.368 44.9294 359.575 44.2803 359.99 43.724C360.405 43.1676 360.977 42.734 361.708 42.4231C362.439 42.1067 363.276 41.9486 364.22 41.9486C365.578 41.9486 366.647 42.2431 367.427 42.8322C368.207 43.4158 368.722 44.1985 368.973 45.1803ZM377.544 42.1122V44.0758H370.68V42.1122H377.544ZM372.521 39.1014H374.967V50.9892C374.967 51.4637 375.038 51.821 375.18 52.061C375.322 52.2955 375.504 52.4564 375.728 52.5437C375.957 52.6255 376.205 52.6664 376.473 52.6664C376.669 52.6664 376.841 52.6528 376.988 52.6255C377.135 52.5982 377.25 52.5764 377.332 52.5601L377.773 54.5809C377.632 54.6354 377.43 54.69 377.168 54.7445C376.906 54.8045 376.579 54.8373 376.186 54.8427C375.543 54.8536 374.943 54.7391 374.386 54.4991C373.83 54.2591 373.38 53.8882 373.036 53.3864C372.693 52.8846 372.521 52.2546 372.521 51.4964V39.1014Z" fill="#212529"/>
<rect x="175" y="86.4375" width="221.753" height="9.59962" rx="4.79981" fill="#F1F1F1"/>
<rect x="175" y="123" width="200.634" height="9.59983" rx="4.79991" fill="#F1F1F1"/>
<rect x="175" y="159" width="194.874" height="9.59962" rx="4.79981" fill="#F1F1F1"/>
<g filter="url(#filter1_dddddd_4081_504425)">
<path d="M228 196H345V227H228V196Z" fill="url(#paint0_linear_4081_504425)"/>
</g>
<path d="M275.979 209.439C275.928 208.986 275.717 208.635 275.347 208.386C274.977 208.134 274.511 208.008 273.95 208.008C273.548 208.008 273.2 208.072 272.907 208.199C272.613 208.324 272.385 208.496 272.222 208.716C272.063 208.933 271.983 209.18 271.983 209.458C271.983 209.691 272.037 209.892 272.146 210.061C272.257 210.23 272.402 210.372 272.581 210.487C272.763 210.599 272.958 210.693 273.165 210.769C273.372 210.843 273.572 210.903 273.763 210.951L274.72 211.2C275.033 211.276 275.353 211.38 275.682 211.511C276.011 211.642 276.315 211.814 276.596 212.028C276.877 212.242 277.103 212.506 277.276 212.822C277.451 213.138 277.539 213.516 277.539 213.956C277.539 214.511 277.395 215.004 277.108 215.435C276.824 215.866 276.411 216.205 275.869 216.454C275.33 216.703 274.677 216.827 273.911 216.827C273.178 216.827 272.543 216.711 272.007 216.478C271.471 216.245 271.051 215.915 270.748 215.488C270.445 215.057 270.278 214.546 270.246 213.956H271.729C271.758 214.31 271.873 214.605 272.074 214.842C272.278 215.074 272.538 215.248 272.854 215.363C273.173 215.475 273.522 215.531 273.902 215.531C274.32 215.531 274.691 215.465 275.017 215.334C275.345 215.2 275.604 215.015 275.792 214.779C275.98 214.54 276.074 214.261 276.074 213.942C276.074 213.652 275.992 213.414 275.826 213.229C275.663 213.044 275.441 212.891 275.16 212.77C274.883 212.648 274.569 212.541 274.218 212.449L273.06 212.133C272.275 211.919 271.653 211.605 271.193 211.19C270.737 210.776 270.509 210.227 270.509 209.544C270.509 208.979 270.662 208.487 270.968 208.065C271.275 207.644 271.689 207.317 272.213 207.084C272.736 206.848 273.326 206.73 273.983 206.73C274.647 206.73 275.232 206.847 275.739 207.08C276.25 207.313 276.652 207.633 276.945 208.042C277.239 208.447 277.392 208.912 277.405 209.439H275.979ZM282.359 216.813C281.635 216.813 281.011 216.658 280.488 216.349C279.968 216.036 279.566 215.598 279.282 215.033C279.001 214.465 278.861 213.8 278.861 213.037C278.861 212.285 279.001 211.621 279.282 211.047C279.566 210.473 279.961 210.024 280.469 209.702C280.979 209.38 281.576 209.219 282.258 209.219C282.673 209.219 283.075 209.287 283.464 209.425C283.853 209.562 284.203 209.777 284.512 210.071C284.822 210.364 285.066 210.745 285.244 211.214C285.423 211.68 285.512 212.246 285.512 212.913V213.42H279.669V212.348H284.11C284.11 211.972 284.034 211.639 283.881 211.348C283.727 211.055 283.512 210.823 283.235 210.654C282.96 210.485 282.638 210.401 282.268 210.401C281.866 210.401 281.515 210.5 281.215 210.697C280.918 210.892 280.689 211.147 280.526 211.463C280.367 211.776 280.287 212.115 280.287 212.482V213.32C280.287 213.811 280.373 214.229 280.545 214.574C280.721 214.918 280.965 215.181 281.277 215.363C281.59 215.542 281.955 215.631 282.373 215.631C282.644 215.631 282.892 215.593 283.115 215.516C283.338 215.437 283.531 215.319 283.694 215.162C283.857 215.006 283.981 214.813 284.067 214.583L285.421 214.827C285.313 215.226 285.118 215.575 284.838 215.875C284.56 216.172 284.211 216.403 283.79 216.569C283.372 216.732 282.895 216.813 282.359 216.813ZM288.531 212.301V216.665H287.1V209.314H288.473V210.511H288.564C288.733 210.122 288.998 209.809 289.359 209.573C289.722 209.337 290.18 209.219 290.732 209.219C291.233 209.219 291.672 209.324 292.048 209.535C292.424 209.742 292.716 210.051 292.924 210.463C293.131 210.874 293.235 211.383 293.235 211.989V216.665H291.804V212.162C291.804 211.629 291.665 211.213 291.388 210.913C291.11 210.61 290.729 210.458 290.244 210.458C289.912 210.458 289.617 210.53 289.359 210.674C289.103 210.817 288.901 211.028 288.751 211.305C288.604 211.58 288.531 211.911 288.531 212.301ZM297.905 216.808C297.312 216.808 296.782 216.657 296.317 216.354C295.854 216.047 295.49 215.612 295.226 215.047C294.964 214.479 294.833 213.798 294.833 213.004C294.833 212.21 294.966 211.53 295.23 210.965C295.498 210.401 295.865 209.968 296.331 209.669C296.797 209.369 297.325 209.219 297.915 209.219C298.371 209.219 298.738 209.295 299.016 209.448C299.296 209.598 299.513 209.774 299.666 209.975C299.823 210.176 299.944 210.353 300.03 210.506H300.116V206.864H301.547V216.665H300.15V215.521H300.03C299.944 215.677 299.819 215.856 299.657 216.057C299.497 216.258 299.277 216.434 298.996 216.583C298.716 216.733 298.352 216.808 297.905 216.808ZM298.221 215.588C298.633 215.588 298.98 215.48 299.264 215.263C299.552 215.043 299.768 214.738 299.915 214.349C300.065 213.959 300.14 213.506 300.14 212.99C300.14 212.479 300.067 212.033 299.92 211.65C299.773 211.267 299.558 210.969 299.274 210.755C298.99 210.541 298.639 210.434 298.221 210.434C297.79 210.434 297.432 210.546 297.144 210.769C296.857 210.993 296.64 211.297 296.494 211.683C296.35 212.069 296.278 212.505 296.278 212.99C296.278 213.481 296.352 213.923 296.498 214.315C296.645 214.708 296.862 215.019 297.149 215.248C297.44 215.475 297.797 215.588 298.221 215.588Z" fill="#FAFAFA"/>
<defs>
<filter id="filter0_ddddd_4081_504425" x="118.185" y="0.313431" width="335.629" height="314.83" filterUnits="userSpaceOnUse" color-interpolation-filters="sRGB">
<feFlood flood-opacity="0" result="BackgroundImageFix"/>
<feColorMatrix in="SourceAlpha" type="matrix" values="0 0 0 0 0 0 0 0 0 0 0 0 0 0 0 0 0 0 127 0" result="hardAlpha"/>
<feOffset dy="0.980813"/>
<feGaussianBlur stdDeviation="0.833691"/>
<feColorMatrix type="matrix" values="0 0 0 0 0.219608 0 0 0 0 0.219608 0 0 0 0 0.219608 0 0 0 0.0240741 0"/>
<feBlend mode="normal" in2="BackgroundImageFix" result="effect1_dropShadow_4081_504425"/>
<feColorMatrix in="SourceAlpha" type="matrix" values="0 0 0 0 0 0 0 0 0 0 0 0 0 0 0 0 0 0 127 0" result="hardAlpha"/>
<feOffset dy="4.31558"/>
<feGaussianBlur stdDeviation="1.72623"/>
<feColorMatrix type="matrix" values="0 0 0 0 0.219608 0 0 0 0 0.219608 0 0 0 0 0.219608 0 0 0 0.0392593 0"/>
<feBlend mode="normal" in2="effect1_dropShadow_4081_504425" result="effect2_dropShadow_4081_504425"/>
<feColorMatrix in="SourceAlpha" type="matrix" values="0 0 0 0 0 0 0 0 0 0 0 0 0 0 0 0 0 0 127 0" result="hardAlpha"/>
<feOffset dy="10.5928"/>
<feGaussianBlur stdDeviation="3.44265"/>
<feColorMatrix type="matrix" values="0 0 0 0 0.219608 0 0 0 0 0.219608 0 0 0 0 0.219608 0 0 0 0.05 0"/>
<feBlend mode="normal" in2="effect2_dropShadow_4081_504425" result="effect3_dropShadow_4081_504425"/>
<feColorMatrix in="SourceAlpha" type="matrix" values="0 0 0 0 0 0 0 0 0 0 0 0 0 0 0 0 0 0 127 0" result="hardAlpha"/>
<feOffset dy="20.4009"/>
<feGaussianBlur stdDeviation="6.74799"/>
<feColorMatrix type="matrix" values="0 0 0 0 0.219608 0 0 0 0 0.219608 0 0 0 0 0.219608 0 0 0 0.0607407 0"/>
<feBlend mode="normal" in2="effect3_dropShadow_4081_504425" result="effect4_dropShadow_4081_504425"/>
<feColorMatrix in="SourceAlpha" type="matrix" values="0 0 0 0 0 0 0 0 0 0 0 0 0 0 0 0 0 0 127 0" result="hardAlpha"/>
<feOffset dy="34.3285"/>
<feGaussianBlur stdDeviation="12.4073"/>
<feColorMatrix type="matrix" values="0 0 0 0 0.219608 0 0 0 0 0.219608 0 0 0 0 0.219608 0 0 0 0.0759259 0"/>
<feBlend mode="normal" in2="effect4_dropShadow_4081_504425" result="effect5_dropShadow_4081_504425"/>
<feBlend mode="normal" in="SourceGraphic" in2="effect5_dropShadow_4081_504425" result="shape"/>
</filter>
<filter id="filter1_dddddd_4081_504425" x="185.629" y="195.313" width="201.742" height="127.022" filterUnits="userSpaceOnUse" color-interpolation-filters="sRGB">
<feFlood flood-opacity="0" result="BackgroundImageFix"/>
<feColorMatrix in="SourceAlpha" type="matrix" values="0 0 0 0 0 0 0 0 0 0 0 0 0 0 0 0 0 0 127 0" result="hardAlpha"/>
<feOffset dy="0.980813"/>
<feGaussianBlur stdDeviation="0.833691"/>
<feColorMatrix type="matrix" values="0 0 0 0 0.219608 0 0 0 0 0.219608 0 0 0 0 0.219608 0 0 0 0.0240741 0"/>
<feBlend mode="normal" in2="BackgroundImageFix" result="effect1_dropShadow_4081_504425"/>
<feColorMatrix in="SourceAlpha" type="matrix" values="0 0 0 0 0 0 0 0 0 0 0 0 0 0 0 0 0 0 127 0" result="hardAlpha"/>
<feOffset dy="4.31558"/>
<feGaussianBlur stdDeviation="1.72623"/>
<feColorMatrix type="matrix" values="0 0 0 0 0.219608 0 0 0 0 0.219608 0 0 0 0 0.219608 0 0 0 0.0392593 0"/>
<feBlend mode="normal" in2="effect1_dropShadow_4081_504425" result="effect2_dropShadow_4081_504425"/>
<feColorMatrix in="SourceAlpha" type="matrix" values="0 0 0 0 0 0 0 0 0 0 0 0 0 0 0 0 0 0 127 0" result="hardAlpha"/>
<feOffset dy="10.5928"/>
<feGaussianBlur stdDeviation="3.44265"/>
<feColorMatrix type="matrix" values="0 0 0 0 0.219608 0 0 0 0 0.219608 0 0 0 0 0.219608 0 0 0 0.05 0"/>
<feBlend mode="normal" in2="effect2_dropShadow_4081_504425" result="effect3_dropShadow_4081_504425"/>
<feColorMatrix in="SourceAlpha" type="matrix" values="0 0 0 0 0 0 0 0 0 0 0 0 0 0 0 0 0 0 127 0" result="hardAlpha"/>
<feOffset dy="20.4009"/>
<feGaussianBlur stdDeviation="6.74799"/>
<feColorMatrix type="matrix" values="0 0 0 0 0.219608 0 0 0 0 0.219608 0 0 0 0 0.219608 0 0 0 0.0607407 0"/>
<feBlend mode="normal" in2="effect3_dropShadow_4081_504425" result="effect4_dropShadow_4081_504425"/>
<feColorMatrix in="SourceAlpha" type="matrix" values="0 0 0 0 0 0 0 0 0 0 0 0 0 0 0 0 0 0 127 0" result="hardAlpha"/>
<feOffset dy="34.3285"/>
<feGaussianBlur stdDeviation="12.4073"/>
<feColorMatrix type="matrix" values="0 0 0 0 0.219608 0 0 0 0 0.219608 0 0 0 0 0.219608 0 0 0 0.0759259 0"/>
<feBlend mode="normal" in2="effect4_dropShadow_4081_504425" result="effect5_dropShadow_4081_504425"/>
<feColorMatrix in="SourceAlpha" type="matrix" values="0 0 0 0 0 0 0 0 0 0 0 0 0 0 0 0 0 0 127 0" result="hardAlpha"/>
<feOffset dy="52.9639"/>
<feGaussianBlur stdDeviation="21.1856"/>
<feColorMatrix type="matrix" values="0 0 0 0 0.219608 0 0 0 0 0.219608 0 0 0 0 0.219608 0 0 0 0.1 0"/>
<feBlend mode="normal" in2="effect5_dropShadow_4081_504425" result="effect6_dropShadow_4081_504425"/>
<feBlend mode="normal" in="SourceGraphic" in2="effect6_dropShadow_4081_504425" result="shape"/>
</filter>
<linearGradient id="paint0_linear_4081_504425" x1="227.997" y1="211.502" x2="344.998" y2="211.502" gradientUnits="userSpaceOnUse">
<stop stop-color="#FF0379"/>
<stop offset="1" stop-color="#D437C1"/>
</linearGradient>
</defs>
</svg>
