
<!-- <svg width="527" height="238" viewBox="0 0 527 238" fill="none" xmlns="http://www.w3.org/2000/svg"> -->
<svg width="492.03" height="225.94" viewBox="0 0 527 238" fill="none" xmlns="http://www.w3.org/2000/svg">
<path d="M429.393 42.1983C429.393 66.3271 424.64 90.2197 415.406 112.512C406.173 134.804 392.639 155.059 375.577 172.121C358.515 189.183 338.26 202.717 315.968 211.95C293.676 221.184 269.783 225.937 245.654 225.937C221.525 225.937 197.633 221.184 175.341 211.95C153.048 202.717 132.793 189.183 115.732 172.121C98.6698 155.059 85.1357 134.804 75.902 112.512C66.6683 90.2197 61.9158 66.3271 61.9158 42.1982L429.393 42.1983Z" fill="#F5F7FF"/>
<path d="M30.0716 74.3487C24.9167 74.3287 20.4811 73.0599 16.7648 70.5424C13.0684 68.0249 10.2212 64.3785 8.22321 59.6032C6.24517 54.828 5.26613 49.0836 5.28611 42.3703C5.28611 35.6769 6.27514 29.9725 8.25318 25.2572C10.2512 20.5418 13.0984 16.9554 16.7947 14.4978C20.5111 12.0203 24.9367 10.7815 30.0716 10.7815C35.2065 10.7815 39.6222 12.0203 43.3185 14.4978C47.0349 16.9754 49.892 20.5718 51.8901 25.2871C53.8881 29.9825 54.8771 35.6769 54.8571 42.3703C54.8571 49.1036 53.8581 54.8579 51.8601 59.6332C49.882 64.4085 47.0448 68.0549 43.3485 70.5724C39.6522 73.0899 35.2265 74.3487 30.0716 74.3487ZM30.0716 63.5893C33.5881 63.5893 36.3954 61.821 38.4933 58.2845C40.5912 54.748 41.6302 49.4433 41.6102 42.3703C41.6102 37.7149 41.1307 33.8387 40.1716 30.7418C39.2326 27.6448 37.8939 25.3171 36.1556 23.7587C34.4373 22.2002 32.4093 21.421 30.0716 21.421C26.5751 21.421 23.7778 23.1692 21.6799 26.6658C19.582 30.1623 18.523 35.3972 18.5031 42.3703C18.5031 47.0856 18.9726 51.0217 19.9117 54.1786C20.8707 57.3155 22.2194 59.6732 23.9577 61.2516C25.6959 62.8101 27.7339 63.5893 30.0716 63.5893ZM64.1105 73V63.6492L85.9589 43.4192C87.8171 41.621 89.3755 40.0026 90.6343 38.564C91.913 37.1255 92.8821 35.7168 93.5414 34.3382C94.2007 32.9396 94.5304 31.4311 94.5304 29.8127C94.5304 28.0145 94.1208 26.466 93.3016 25.1673C92.4824 23.8486 91.3636 22.8396 89.945 22.1403C88.5264 21.421 86.9179 21.0613 85.1197 21.0613C83.2416 21.0613 81.6032 21.441 80.2046 22.2002C78.806 22.9594 77.727 24.0484 76.9678 25.467C76.2085 26.8856 75.8289 28.5739 75.8289 30.532H63.5111C63.5111 26.5159 64.4202 23.0294 66.2384 20.0723C68.0566 17.1152 70.6041 14.8275 73.8808 13.2091C77.1576 11.5907 80.9339 10.7815 85.2096 10.7815C89.6053 10.7815 93.4315 11.5607 96.6883 13.1192C99.9651 14.6577 102.513 16.7955 104.331 19.5328C106.149 22.2701 107.058 25.407 107.058 28.9435C107.058 31.2612 106.598 33.549 105.679 35.8068C104.78 38.0645 103.172 40.572 100.854 43.3293C98.5365 46.0666 95.2697 49.3534 91.0539 53.1896L82.0927 61.9709V62.3905H107.867V73H64.1105Z" fill="#D7D7D7"/>
<g filter="url(#filter0_ddddd_4016_504610)">
<rect x="155.983" y="36.0443" width="336.707" height="120.441" fill="white"/>
<rect x="156.346" y="36.4081" width="335.98" height="119.713" stroke="#F1F1F1" stroke-width="0.727557"/>
</g>
<g filter="url(#filter1_i_4016_504610)">
<rect x="190.269" y="86.1548" width="276.926" height="43.9566" fill="#FAFAFA"/>
</g>
<g filter="url(#filter2_d_4016_504610)">
<path d="M402.139 94.5066V124.837" stroke="#E8E7E7" stroke-width="0.879131"/>
</g>
<path d="M401.7 94.067V124.397" stroke="white" stroke-width="0.879131"/>
<g filter="url(#filter3_d_4016_504610)">
<path d="M426.877 102.975C429.522 100.425 433.46 100.526 435.909 102.975C438.25 105.317 438.393 109.024 436.338 111.533L439.973 115.168L439.07 116.071L435.434 112.436C432.926 114.491 429.218 114.348 426.877 112.007C424.428 109.558 424.313 105.446 426.877 102.975ZM435.005 103.878C433.01 101.883 429.775 101.883 427.78 103.878C425.785 105.873 425.785 109.108 427.78 111.104C429.775 113.099 433.01 113.099 435.005 111.104C437.001 109.108 437.001 105.873 435.005 103.878Z" fill="url(#paint0_linear_4016_504610)"/>
</g>
<path d="M204.977 113.174C204.492 113.174 204.056 113.09 203.669 112.921C203.29 112.745 202.991 112.506 202.773 112.203C202.555 111.894 202.442 111.539 202.435 111.138H203.458C203.493 111.482 203.634 111.774 203.88 112.013C204.134 112.246 204.499 112.362 204.977 112.362C205.435 112.362 205.793 112.249 206.054 112.024C206.321 111.792 206.454 111.497 206.454 111.138C206.454 110.857 206.377 110.628 206.222 110.452C206.068 110.276 205.874 110.143 205.642 110.051C205.41 109.96 205.097 109.861 204.703 109.756C204.218 109.629 203.828 109.503 203.532 109.376C203.244 109.25 202.994 109.053 202.783 108.785C202.579 108.511 202.477 108.145 202.477 107.688C202.477 107.287 202.579 106.932 202.783 106.623C202.987 106.313 203.272 106.074 203.638 105.905C204.01 105.736 204.436 105.652 204.914 105.652C205.603 105.652 206.166 105.824 206.602 106.169C207.045 106.514 207.295 106.971 207.351 107.54H206.296C206.261 107.259 206.113 107.013 205.853 106.802C205.593 106.584 205.248 106.475 204.819 106.475C204.418 106.475 204.091 106.58 203.838 106.791C203.585 106.995 203.458 107.284 203.458 107.657C203.458 107.924 203.532 108.142 203.68 108.311C203.835 108.479 204.021 108.609 204.239 108.701C204.464 108.785 204.777 108.884 205.178 108.996C205.663 109.13 206.054 109.264 206.349 109.397C206.644 109.524 206.897 109.724 207.108 109.999C207.319 110.266 207.425 110.631 207.425 111.096C207.425 111.454 207.33 111.792 207.14 112.108C206.95 112.425 206.669 112.682 206.296 112.879C205.923 113.075 205.484 113.174 204.977 113.174ZM214.112 109.988C214.112 110.171 214.102 110.364 214.081 110.568H209.46C209.495 111.138 209.689 111.584 210.04 111.908C210.399 112.224 210.832 112.383 211.338 112.383C211.753 112.383 212.098 112.288 212.372 112.098C212.653 111.901 212.85 111.641 212.963 111.317H213.996C213.842 111.873 213.532 112.326 213.068 112.678C212.604 113.023 212.027 113.195 211.338 113.195C210.789 113.195 210.297 113.072 209.861 112.826C209.432 112.58 209.094 112.232 208.848 111.781C208.602 111.324 208.479 110.797 208.479 110.199C208.479 109.601 208.599 109.077 208.838 108.627C209.077 108.177 209.411 107.832 209.84 107.593C210.276 107.347 210.775 107.224 211.338 107.224C211.887 107.224 212.372 107.344 212.794 107.583C213.216 107.822 213.539 108.152 213.764 108.574C213.996 108.989 214.112 109.46 214.112 109.988ZM213.121 109.788C213.121 109.422 213.04 109.109 212.878 108.849C212.716 108.581 212.495 108.381 212.214 108.247C211.939 108.107 211.633 108.036 211.296 108.036C210.81 108.036 210.396 108.191 210.051 108.5C209.713 108.81 209.52 109.239 209.471 109.788H213.121ZM215.021 110.188C215.021 109.598 215.141 109.081 215.38 108.638C215.619 108.188 215.946 107.839 216.361 107.593C216.783 107.347 217.25 107.224 217.764 107.224C218.27 107.224 218.71 107.333 219.083 107.551C219.455 107.769 219.733 108.043 219.916 108.374V107.319H220.887V113.1H219.916V112.024C219.726 112.362 219.441 112.643 219.061 112.868C218.689 113.086 218.253 113.195 217.753 113.195C217.24 113.195 216.776 113.068 216.361 112.815C215.946 112.562 215.619 112.207 215.38 111.75C215.141 111.293 215.021 110.772 215.021 110.188ZM219.916 110.199C219.916 109.763 219.828 109.383 219.652 109.06C219.476 108.736 219.237 108.49 218.935 108.321C218.64 108.145 218.312 108.057 217.954 108.057C217.595 108.057 217.268 108.142 216.973 108.311C216.677 108.479 216.442 108.726 216.266 109.049C216.09 109.373 216.002 109.752 216.002 110.188C216.002 110.631 216.09 111.018 216.266 111.349C216.442 111.672 216.677 111.922 216.973 112.098C217.268 112.267 217.595 112.351 217.954 112.351C218.312 112.351 218.64 112.267 218.935 112.098C219.237 111.922 219.476 111.672 219.652 111.349C219.828 111.018 219.916 110.635 219.916 110.199ZM223.469 108.258C223.638 107.927 223.877 107.671 224.186 107.488C224.503 107.305 224.886 107.213 225.336 107.213V108.205H225.083C224.007 108.205 223.469 108.789 223.469 109.956V113.1H222.509V107.319H223.469V108.258ZM226.086 110.199C226.086 109.601 226.205 109.081 226.444 108.638C226.683 108.188 227.014 107.839 227.436 107.593C227.865 107.347 228.354 107.224 228.902 107.224C229.613 107.224 230.197 107.396 230.654 107.741C231.118 108.086 231.424 108.564 231.571 109.176H230.538C230.439 108.824 230.246 108.546 229.957 108.342C229.676 108.138 229.324 108.036 228.902 108.036C228.354 108.036 227.911 108.226 227.573 108.606C227.236 108.979 227.067 109.51 227.067 110.199C227.067 110.895 227.236 111.433 227.573 111.813C227.911 112.193 228.354 112.383 228.902 112.383C229.324 112.383 229.676 112.284 229.957 112.087C230.239 111.89 230.432 111.609 230.538 111.243H231.571C231.417 111.834 231.107 112.309 230.643 112.668C230.179 113.019 229.599 113.195 228.902 113.195C228.354 113.195 227.865 113.072 227.436 112.826C227.014 112.58 226.683 112.232 226.444 111.781C226.205 111.331 226.086 110.804 226.086 110.199ZM235.722 107.213C236.158 107.213 236.552 107.308 236.903 107.498C237.255 107.681 237.529 107.959 237.726 108.332C237.93 108.704 238.032 109.158 238.032 109.693V113.1H237.083V109.83C237.083 109.253 236.939 108.813 236.65 108.511C236.362 108.202 235.968 108.047 235.469 108.047C234.962 108.047 234.558 108.205 234.256 108.522C233.96 108.838 233.812 109.299 233.812 109.904V113.1H232.852V105.293H233.812V108.142C234.002 107.846 234.263 107.618 234.593 107.456C234.931 107.294 235.307 107.213 235.722 107.213ZM244.46 113.195C244.017 113.195 243.619 113.121 243.267 112.974C242.916 112.819 242.638 112.608 242.434 112.341C242.23 112.066 242.118 111.753 242.096 111.402H243.088C243.116 111.69 243.25 111.926 243.489 112.108C243.735 112.291 244.055 112.383 244.449 112.383C244.815 112.383 245.103 112.302 245.314 112.14C245.525 111.978 245.631 111.774 245.631 111.528C245.631 111.275 245.518 111.089 245.293 110.969C245.068 110.842 244.72 110.719 244.249 110.6C243.82 110.487 243.468 110.375 243.194 110.262C242.926 110.143 242.694 109.97 242.497 109.745C242.307 109.513 242.213 109.211 242.213 108.838C242.213 108.543 242.3 108.272 242.476 108.026C242.652 107.78 242.902 107.586 243.225 107.446C243.549 107.298 243.918 107.224 244.333 107.224C244.973 107.224 245.49 107.386 245.884 107.709C246.278 108.033 246.489 108.476 246.517 109.039H245.557C245.536 108.736 245.413 108.493 245.188 108.311C244.969 108.128 244.674 108.036 244.301 108.036C243.957 108.036 243.682 108.11 243.478 108.258C243.275 108.406 243.173 108.599 243.173 108.838C243.173 109.028 243.232 109.186 243.352 109.313C243.478 109.432 243.633 109.531 243.816 109.608C244.006 109.679 244.266 109.759 244.597 109.851C245.012 109.963 245.349 110.076 245.609 110.188C245.87 110.294 246.091 110.456 246.274 110.674C246.464 110.892 246.562 111.177 246.57 111.528C246.57 111.845 246.482 112.13 246.306 112.383C246.13 112.636 245.88 112.836 245.557 112.984C245.24 113.125 244.875 113.195 244.46 113.195ZM253.199 109.988C253.199 110.171 253.189 110.364 253.168 110.568H248.547C248.582 111.138 248.776 111.584 249.127 111.908C249.486 112.224 249.919 112.383 250.425 112.383C250.84 112.383 251.185 112.288 251.459 112.098C251.74 111.901 251.937 111.641 252.05 111.317H253.083C252.929 111.873 252.619 112.326 252.155 112.678C251.691 113.023 251.114 113.195 250.425 113.195C249.876 113.195 249.384 113.072 248.948 112.826C248.519 112.58 248.181 112.232 247.935 111.781C247.689 111.324 247.566 110.797 247.566 110.199C247.566 109.601 247.686 109.077 247.925 108.627C248.164 108.177 248.498 107.832 248.927 107.593C249.363 107.347 249.862 107.224 250.425 107.224C250.974 107.224 251.459 107.344 251.881 107.583C252.303 107.822 252.626 108.152 252.851 108.574C253.083 108.989 253.199 109.46 253.199 109.988ZM252.208 109.788C252.208 109.422 252.127 109.109 251.965 108.849C251.803 108.581 251.582 108.381 251.301 108.247C251.026 108.107 250.72 108.036 250.383 108.036C249.897 108.036 249.483 108.191 249.138 108.5C248.8 108.81 248.607 109.239 248.558 109.788H252.208ZM255.427 108.258C255.595 107.927 255.835 107.671 256.144 107.488C256.461 107.305 256.844 107.213 257.294 107.213V108.205H257.041C255.965 108.205 255.427 108.789 255.427 109.956V113.1H254.467V107.319H255.427V108.258ZM260.554 112.214L262.348 107.319H263.371L261.103 113.1H259.985L257.716 107.319H258.75L260.554 112.214ZM264.812 106.38C264.629 106.38 264.474 106.317 264.347 106.19C264.221 106.064 264.157 105.909 264.157 105.726C264.157 105.543 264.221 105.388 264.347 105.262C264.474 105.135 264.629 105.072 264.812 105.072C264.987 105.072 265.135 105.135 265.255 105.262C265.381 105.388 265.445 105.543 265.445 105.726C265.445 105.909 265.381 106.064 265.255 106.19C265.135 106.317 264.987 106.38 264.812 106.38ZM265.276 107.319V113.1H264.316V107.319H265.276ZM266.553 110.199C266.553 109.601 266.673 109.081 266.912 108.638C267.151 108.188 267.482 107.839 267.904 107.593C268.333 107.347 268.821 107.224 269.37 107.224C270.08 107.224 270.664 107.396 271.121 107.741C271.585 108.086 271.891 108.564 272.039 109.176H271.005C270.907 108.824 270.713 108.546 270.425 108.342C270.144 108.138 269.792 108.036 269.37 108.036C268.821 108.036 268.378 108.226 268.041 108.606C267.703 108.979 267.534 109.51 267.534 110.199C267.534 110.895 267.703 111.433 268.041 111.813C268.378 112.193 268.821 112.383 269.37 112.383C269.792 112.383 270.144 112.284 270.425 112.087C270.706 111.89 270.9 111.609 271.005 111.243H272.039C271.884 111.834 271.575 112.309 271.111 112.668C270.646 113.019 270.066 113.195 269.37 113.195C268.821 113.195 268.333 113.072 267.904 112.826C267.482 112.58 267.151 112.232 266.912 111.781C266.673 111.331 266.553 110.804 266.553 110.199ZM278.595 109.988C278.595 110.171 278.584 110.364 278.563 110.568H273.942C273.978 111.138 274.171 111.584 274.523 111.908C274.881 112.224 275.314 112.383 275.82 112.383C276.235 112.383 276.58 112.288 276.854 112.098C277.135 111.901 277.332 111.641 277.445 111.317H278.479C278.324 111.873 278.014 112.326 277.55 112.678C277.086 113.023 276.509 113.195 275.82 113.195C275.272 113.195 274.779 113.072 274.343 112.826C273.914 112.58 273.577 112.232 273.33 111.781C273.084 111.324 272.961 110.797 272.961 110.199C272.961 109.601 273.081 109.077 273.32 108.627C273.559 108.177 273.893 107.832 274.322 107.593C274.758 107.347 275.258 107.224 275.82 107.224C276.369 107.224 276.854 107.344 277.276 107.583C277.698 107.822 278.022 108.152 278.247 108.574C278.479 108.989 278.595 109.46 278.595 109.988ZM277.603 109.788C277.603 109.422 277.522 109.109 277.36 108.849C277.199 108.581 276.977 108.381 276.696 108.247C276.422 108.107 276.116 108.036 275.778 108.036C275.293 108.036 274.878 108.191 274.533 108.5C274.196 108.81 274.002 109.239 273.953 109.788H277.603ZM281.909 113.195C281.465 113.195 281.068 113.121 280.716 112.974C280.365 112.819 280.087 112.608 279.883 112.341C279.679 112.066 279.567 111.753 279.545 111.402H280.537C280.565 111.69 280.699 111.926 280.938 112.108C281.184 112.291 281.504 112.383 281.898 112.383C282.264 112.383 282.552 112.302 282.763 112.14C282.974 111.978 283.08 111.774 283.08 111.528C283.08 111.275 282.967 111.089 282.742 110.969C282.517 110.842 282.169 110.719 281.698 110.6C281.269 110.487 280.917 110.375 280.643 110.262C280.375 110.143 280.143 109.97 279.946 109.745C279.756 109.513 279.661 109.211 279.661 108.838C279.661 108.543 279.749 108.272 279.925 108.026C280.101 107.78 280.351 107.586 280.674 107.446C280.998 107.298 281.367 107.224 281.782 107.224C282.422 107.224 282.939 107.386 283.333 107.709C283.727 108.033 283.938 108.476 283.966 109.039H283.006C282.985 108.736 282.861 108.493 282.636 108.311C282.418 108.128 282.123 108.036 281.75 108.036C281.406 108.036 281.131 108.11 280.927 108.258C280.723 108.406 280.621 108.599 280.621 108.838C280.621 109.028 280.681 109.186 280.801 109.313C280.927 109.432 281.082 109.531 281.265 109.608C281.455 109.679 281.715 109.759 282.046 109.851C282.461 109.963 282.798 110.076 283.058 110.188C283.319 110.294 283.54 110.456 283.723 110.674C283.913 110.892 284.011 111.177 284.018 111.528C284.018 111.845 283.931 112.13 283.755 112.383C283.579 112.636 283.329 112.836 283.006 112.984C282.689 113.125 282.323 113.195 281.909 113.195Z" fill="#D7D7D7"/>
<path d="M295.499 68.6084C294.61 68.6084 293.81 68.4537 293.101 68.1442C292.405 67.8219 291.857 67.3835 291.457 66.829C291.057 66.2617 290.851 65.6106 290.838 64.8756H292.714C292.779 65.5074 293.037 66.0425 293.488 66.4809C293.952 66.9064 294.623 67.1192 295.499 67.1192C296.337 67.1192 296.995 66.9129 297.472 66.5003C297.962 66.0748 298.207 65.5332 298.207 64.8756C298.207 64.3599 298.065 63.9408 297.782 63.6185C297.498 63.2961 297.143 63.0511 296.718 62.8835C296.292 62.7159 295.718 62.5354 294.996 62.342C294.107 62.1099 293.391 61.8778 292.85 61.6457C292.321 61.4136 291.863 61.0526 291.476 60.5626C291.102 60.0597 290.916 59.3893 290.916 58.5511C290.916 57.8162 291.102 57.165 291.476 56.5977C291.85 56.0304 292.373 55.592 293.043 55.2825C293.726 54.9731 294.506 54.8184 295.383 54.8184C296.647 54.8184 297.678 55.1343 298.478 55.7661C299.29 56.3979 299.748 57.236 299.851 58.2804H297.917C297.852 57.7646 297.582 57.3133 297.105 56.9265C296.628 56.5268 295.996 56.3269 295.209 56.3269C294.474 56.3269 293.875 56.5204 293.41 56.9072C292.946 57.2811 292.714 57.8097 292.714 58.4931C292.714 58.9831 292.85 59.3828 293.12 59.6923C293.404 60.0017 293.746 60.2403 294.145 60.4079C294.558 60.5626 295.132 60.7431 295.867 60.9494C296.756 61.1944 297.472 61.4394 298.014 61.6844C298.555 61.9165 299.019 62.2839 299.406 62.7868C299.793 63.2768 299.986 63.9473 299.986 64.7983C299.986 65.4558 299.812 66.0748 299.464 66.655C299.116 67.2352 298.6 67.7058 297.917 68.0669C297.234 68.4279 296.428 68.6084 295.499 68.6084ZM312.247 62.7675C312.247 63.1027 312.227 63.4573 312.189 63.8312H303.718C303.782 64.8756 304.137 65.6944 304.781 66.2875C305.439 66.8677 306.232 67.1578 307.16 67.1578C307.921 67.1578 308.553 66.9838 309.056 66.6356C309.571 66.2746 309.932 65.7975 310.139 65.2044H312.034C311.75 66.223 311.183 67.0547 310.332 67.6994C309.481 68.3312 308.424 68.6471 307.16 68.6471C306.154 68.6471 305.252 68.4214 304.452 67.9702C303.666 67.5189 303.047 66.8806 302.596 66.0554C302.144 65.2173 301.919 64.2503 301.919 63.1543C301.919 62.0583 302.138 61.0977 302.576 60.2725C303.015 59.4473 303.627 58.8155 304.414 58.3771C305.213 57.9258 306.129 57.7001 307.16 57.7001C308.166 57.7001 309.056 57.9193 309.829 58.3577C310.603 58.7961 311.196 59.4021 311.609 60.1758C312.034 60.9365 312.247 61.8004 312.247 62.7675ZM310.429 62.4C310.429 61.7295 310.281 61.1557 309.984 60.6786C309.687 60.1887 309.281 59.8212 308.765 59.5762C308.263 59.3183 307.702 59.1894 307.083 59.1894C306.193 59.1894 305.432 59.4731 304.801 60.0404C304.182 60.6077 303.827 61.3943 303.737 62.4H310.429ZM313.912 63.1349C313.912 62.0518 314.132 61.1041 314.57 60.2918C315.008 59.4666 315.608 58.8284 316.369 58.3771C317.142 57.9258 318 57.7001 318.941 57.7001C319.869 57.7001 320.675 57.9 321.359 58.2997C322.042 58.6994 322.551 59.2023 322.887 59.8083V57.8742H324.666V68.473H322.887V66.5003C322.538 67.1192 322.016 67.6349 321.32 68.0475C320.637 68.4472 319.837 68.6471 318.922 68.6471C317.98 68.6471 317.129 68.415 316.369 67.9508C315.608 67.4866 315.008 66.8355 314.57 65.9974C314.132 65.1593 313.912 64.2051 313.912 63.1349ZM322.887 63.1543C322.887 62.3549 322.725 61.6586 322.403 61.0655C322.081 60.4723 321.642 60.0211 321.088 59.7116C320.546 59.3893 319.947 59.2281 319.289 59.2281C318.632 59.2281 318.032 59.3828 317.49 59.6923C316.949 60.0017 316.517 60.453 316.195 61.0461C315.872 61.6392 315.711 62.3355 315.711 63.1349C315.711 63.9473 315.872 64.6564 316.195 65.2624C316.517 65.8556 316.949 66.3133 317.49 66.6356C318.032 66.9451 318.632 67.0998 319.289 67.0998C319.947 67.0998 320.546 66.9451 321.088 66.6356C321.642 66.3133 322.081 65.8556 322.403 65.2624C322.725 64.6564 322.887 63.9537 322.887 63.1543ZM329.4 59.5956C329.71 58.9895 330.148 58.5189 330.715 58.1837C331.296 57.8484 331.998 57.6808 332.824 57.6808V59.4989H332.359C330.387 59.4989 329.4 60.569 329.4 62.7094V68.473H327.64V57.8742H329.4V59.5956ZM334.198 63.1543C334.198 62.0583 334.417 61.1041 334.855 60.2918C335.294 59.4666 335.9 58.8284 336.673 58.3771C337.46 57.9258 338.356 57.7001 339.362 57.7001C340.664 57.7001 341.734 58.016 342.572 58.6479C343.423 59.2797 343.984 60.1564 344.255 61.2782H342.36C342.179 60.6335 341.824 60.1242 341.296 59.7503C340.78 59.3764 340.135 59.1894 339.362 59.1894C338.356 59.1894 337.544 59.5375 336.925 60.2338C336.306 60.9172 335.996 61.8907 335.996 63.1543C335.996 64.4308 336.306 65.4172 336.925 66.1134C337.544 66.8097 338.356 67.1578 339.362 67.1578C340.135 67.1578 340.78 66.9773 341.296 66.6163C341.812 66.2553 342.166 65.7395 342.36 65.069H344.255C343.971 66.1521 343.404 67.0225 342.553 67.68C341.702 68.3247 340.638 68.6471 339.362 68.6471C338.356 68.6471 337.46 68.4214 336.673 67.9702C335.9 67.5189 335.294 66.8806 334.855 66.0554C334.417 65.2302 334.198 64.2632 334.198 63.1543ZM351.864 57.6808C352.664 57.6808 353.386 57.8549 354.03 58.203C354.675 58.5383 355.178 59.0476 355.539 59.7309C355.913 60.4143 356.1 61.246 356.1 62.2259V68.473H354.359V62.4773C354.359 61.42 354.095 60.6142 353.566 60.0597C353.037 59.4924 352.315 59.2087 351.4 59.2087C350.472 59.2087 349.73 59.4989 349.176 60.0791C348.634 60.6593 348.363 61.5039 348.363 62.6127V68.473H346.603V54.1608H348.363V59.3828C348.712 58.8413 349.189 58.4222 349.795 58.1256C350.414 57.8291 351.103 57.6808 351.864 57.6808Z" fill="#313131"/>
<defs>
<filter id="filter0_ddddd_4016_504610" x="121.895" y="35.1012" width="404.882" height="202.628" filterUnits="userSpaceOnUse" color-interpolation-filters="sRGB">
<feFlood flood-opacity="0" result="BackgroundImageFix"/>
<feColorMatrix in="SourceAlpha" type="matrix" values="0 0 0 0 0 0 0 0 0 0 0 0 0 0 0 0 0 0 127 0" result="hardAlpha"/>
<feOffset dy="1.34733"/>
<feGaussianBlur stdDeviation="1.14523"/>
<feColorMatrix type="matrix" values="0 0 0 0 0.219608 0 0 0 0 0.219608 0 0 0 0 0.219608 0 0 0 0.0240741 0"/>
<feBlend mode="normal" in2="BackgroundImageFix" result="effect1_dropShadow_4016_504610"/>
<feColorMatrix in="SourceAlpha" type="matrix" values="0 0 0 0 0 0 0 0 0 0 0 0 0 0 0 0 0 0 127 0" result="hardAlpha"/>
<feOffset dy="5.92824"/>
<feGaussianBlur stdDeviation="2.3713"/>
<feColorMatrix type="matrix" values="0 0 0 0 0.219608 0 0 0 0 0.219608 0 0 0 0 0.219608 0 0 0 0.0392593 0"/>
<feBlend mode="normal" in2="effect1_dropShadow_4016_504610" result="effect2_dropShadow_4016_504610"/>
<feColorMatrix in="SourceAlpha" type="matrix" values="0 0 0 0 0 0 0 0 0 0 0 0 0 0 0 0 0 0 127 0" result="hardAlpha"/>
<feOffset dy="14.5511"/>
<feGaussianBlur stdDeviation="4.72912"/>
<feColorMatrix type="matrix" values="0 0 0 0 0.219608 0 0 0 0 0.219608 0 0 0 0 0.219608 0 0 0 0.05 0"/>
<feBlend mode="normal" in2="effect2_dropShadow_4016_504610" result="effect3_dropShadow_4016_504610"/>
<feColorMatrix in="SourceAlpha" type="matrix" values="0 0 0 0 0 0 0 0 0 0 0 0 0 0 0 0 0 0 127 0" result="hardAlpha"/>
<feOffset dy="28.0244"/>
<feGaussianBlur stdDeviation="9.26961"/>
<feColorMatrix type="matrix" values="0 0 0 0 0.219608 0 0 0 0 0.219608 0 0 0 0 0.219608 0 0 0 0.0607407 0"/>
<feBlend mode="normal" in2="effect3_dropShadow_4016_504610" result="effect4_dropShadow_4016_504610"/>
<feColorMatrix in="SourceAlpha" type="matrix" values="0 0 0 0 0 0 0 0 0 0 0 0 0 0 0 0 0 0 127 0" result="hardAlpha"/>
<feOffset dy="47.1565"/>
<feGaussianBlur stdDeviation="17.0437"/>
<feColorMatrix type="matrix" values="0 0 0 0 0.219608 0 0 0 0 0.219608 0 0 0 0 0.219608 0 0 0 0.0759259 0"/>
<feBlend mode="normal" in2="effect4_dropShadow_4016_504610" result="effect5_dropShadow_4016_504610"/>
<feBlend mode="normal" in="SourceGraphic" in2="effect5_dropShadow_4016_504610" result="shape"/>
</filter>
<filter id="filter1_i_4016_504610" x="190.269" y="86.1548" width="276.926" height="43.9565" filterUnits="userSpaceOnUse" color-interpolation-filters="sRGB">
<feFlood flood-opacity="0" result="BackgroundImageFix"/>
<feBlend mode="normal" in="SourceGraphic" in2="BackgroundImageFix" result="shape"/>
<feColorMatrix in="SourceAlpha" type="matrix" values="0 0 0 0 0 0 0 0 0 0 0 0 0 0 0 0 0 0 127 0" result="hardAlpha"/>
<feOffset/>
<feGaussianBlur stdDeviation="2.63739"/>
<feComposite in2="hardAlpha" operator="arithmetic" k2="-1" k3="1"/>
<feColorMatrix type="matrix" values="0 0 0 0 0 0 0 0 0 0 0 0 0 0 0 0 0 0 0.15 0"/>
<feBlend mode="normal" in2="shape" result="effect1_innerShadow_4016_504610"/>
</filter>
<filter id="filter2_d_4016_504610" x="399.942" y="92.7483" width="7.91196" height="37.3631" filterUnits="userSpaceOnUse" color-interpolation-filters="sRGB">
<feFlood flood-opacity="0" result="BackgroundImageFix"/>
<feColorMatrix in="SourceAlpha" type="matrix" values="0 0 0 0 0 0 0 0 0 0 0 0 0 0 0 0 0 0 127 0" result="hardAlpha"/>
<feOffset dx="1.75826" dy="1.75826"/>
<feGaussianBlur stdDeviation="1.75826"/>
<feComposite in2="hardAlpha" operator="out"/>
<feColorMatrix type="matrix" values="0 0 0 0 0 0 0 0 0 0 0 0 0 0 0 0 0 0 0.25 0"/>
<feBlend mode="normal" in2="BackgroundImageFix" result="effect1_dropShadow_4016_504610"/>
<feBlend mode="normal" in="SourceGraphic" in2="effect1_dropShadow_4016_504610" result="shape"/>
</filter>
<filter id="filter3_d_4016_504610" x="424.997" y="101.1" width="18.4926" height="18.4875" filterUnits="userSpaceOnUse" color-interpolation-filters="sRGB">
<feFlood flood-opacity="0" result="BackgroundImageFix"/>
<feColorMatrix in="SourceAlpha" type="matrix" values="0 0 0 0 0 0 0 0 0 0 0 0 0 0 0 0 0 0 127 0" result="hardAlpha"/>
<feOffset dx="1.75826" dy="1.75826"/>
<feGaussianBlur stdDeviation="0.879131"/>
<feComposite in2="hardAlpha" operator="out"/>
<feColorMatrix type="matrix" values="0 0 0 0 0 0 0 0 0 0 0 0 0 0 0 0 0 0 0.25 0"/>
<feBlend mode="normal" in2="BackgroundImageFix" result="effect1_dropShadow_4016_504610"/>
<feBlend mode="normal" in="SourceGraphic" in2="effect1_dropShadow_4016_504610" result="shape"/>
</filter>
<linearGradient id="paint0_linear_4016_504610" x1="424.996" y1="108.587" x2="439.973" y2="108.587" gradientUnits="userSpaceOnUse">
<stop stop-color="#FF0379"/>
<stop offset="1" stop-color="#D437C1"/>
</linearGradient>
</defs>
</svg>
