
<svg width="451" height="316" viewBox="0 0 451 316" fill="none" xmlns="http://www.w3.org/2000/svg">
<path d="M429.73 93.6441C429.73 117.773 424.978 141.666 415.744 163.958C406.51 186.25 392.976 206.505 375.914 223.567C358.853 240.628 338.597 254.163 316.305 263.396C294.013 272.63 270.12 277.382 245.992 277.382C221.863 277.382 197.97 272.63 175.678 263.396C153.386 254.163 133.131 240.628 116.069 223.567C99.0072 206.505 85.4731 186.25 76.2394 163.958C67.0057 141.666 62.2532 117.773 62.2532 93.644L429.73 93.6441Z" fill="#FFE9E9"/>
<path d="M29.3429 124.349C24.188 124.329 19.7524 123.06 16.0361 120.542C12.3397 118.025 9.49253 114.379 7.4945 109.603C5.51646 104.828 4.53743 99.0836 4.55741 92.3703C4.55741 85.6769 5.54643 79.9725 7.52448 75.2572C9.5225 70.5418 12.3697 66.9554 16.066 64.4978C19.7824 62.0203 24.208 60.7815 29.3429 60.7815C34.4778 60.7815 38.8935 62.0203 42.5898 64.4978C46.3062 66.9754 49.1633 70.5718 51.1614 75.2871C53.1594 79.9825 54.1484 85.6769 54.1284 92.3703C54.1284 99.1036 53.1294 104.858 51.1314 109.633C49.1533 114.408 46.3161 118.055 42.6198 120.572C38.9234 123.09 34.4978 124.349 29.3429 124.349ZM29.3429 113.589C32.8594 113.589 35.6667 111.821 37.7646 108.285C39.8625 104.748 40.9015 99.4433 40.8815 92.3703C40.8815 87.7149 40.402 83.8387 39.4429 80.7418C38.5039 77.6448 37.1652 75.3171 35.4269 73.7587C33.7086 72.2002 31.6806 71.421 29.3429 71.421C25.8464 71.421 23.0491 73.1692 20.9512 76.6658C18.8533 80.1623 17.7943 85.3972 17.7743 92.3703C17.7743 97.0856 18.2439 101.022 19.183 104.179C20.142 107.315 21.4907 109.673 23.229 111.252C24.9672 112.81 27.0052 113.589 29.3429 113.589ZM90.0854 61.6207V123H77.1082V73.9385H76.7486L62.6925 82.7498V71.2411L77.8874 61.6207H90.0854Z" fill="#D7D7D7"/>
<g filter="url(#filter0_ddddd_4016_504611)">
<rect x="139.617" y="1" width="286.071" height="250.552" fill="white"/>
<rect x="139.882" y="1.26482" width="285.542" height="250.023" stroke="#F1F1F1" stroke-width="0.529639"/>
</g>
<path d="M209.133 43.372H206.58C206.482 42.8266 206.299 42.3466 206.032 41.9321C205.765 41.5175 205.437 41.1657 205.05 40.8766C204.663 40.5876 204.229 40.3694 203.749 40.2221C203.275 40.0749 202.77 40.0012 202.236 40.0012C201.27 40.0012 200.406 40.2439 199.642 40.7294C198.884 41.2148 198.284 41.9266 197.842 42.8648C197.406 43.8029 197.188 44.9483 197.188 46.301C197.188 47.6646 197.406 48.8155 197.842 49.7536C198.284 50.6918 198.887 51.4009 199.65 51.8809C200.414 52.3608 201.273 52.6008 202.227 52.6008C202.757 52.6008 203.258 52.5299 203.733 52.3881C204.213 52.2408 204.646 52.0254 205.034 51.7418C205.421 51.4581 205.748 51.1118 206.016 50.7027C206.288 50.2882 206.476 49.8136 206.58 49.2791L209.133 49.2873C208.996 50.1109 208.732 50.8691 208.339 51.5618C207.952 52.249 207.453 52.8436 206.842 53.3454C206.236 53.8417 205.544 54.2262 204.764 54.499C203.984 54.7717 203.133 54.908 202.211 54.908C200.76 54.908 199.468 54.5644 198.333 53.8772C197.199 53.1845 196.304 52.1945 195.649 50.9073C195 49.62 194.676 48.0846 194.676 46.301C194.676 44.512 195.003 42.9766 195.658 41.6948C196.312 40.4076 197.207 39.4203 198.341 38.7331C199.476 38.0404 200.766 37.694 202.211 37.694C203.1 37.694 203.929 37.8222 204.698 38.0785C205.473 38.3295 206.168 38.7003 206.785 39.1912C207.401 39.6767 207.911 40.2712 208.315 40.9748C208.718 41.673 208.991 42.4721 209.133 43.372ZM211.731 54.679V42.1121H214.096V44.1084H214.226C214.456 43.432 214.859 42.9002 215.437 42.513C216.021 42.1202 216.681 41.9239 217.417 41.9239C217.57 41.9239 217.75 41.9293 217.957 41.9403C218.17 41.9512 218.336 41.9648 218.456 41.9812V44.3211C218.358 44.2938 218.184 44.2638 217.933 44.2311C217.682 44.1929 217.431 44.1738 217.18 44.1738C216.602 44.1738 216.086 44.2965 215.634 44.542C215.186 44.782 214.832 45.1174 214.57 45.5483C214.308 45.9738 214.177 46.4592 214.177 47.0046V54.679H211.731ZM225.309 54.9326C224.071 54.9326 223.005 54.668 222.11 54.139C221.221 53.6044 220.534 52.8545 220.048 51.889C219.568 50.9182 219.328 49.7809 219.328 48.4773C219.328 47.1901 219.568 46.0556 220.048 45.0738C220.534 44.092 221.21 43.3257 222.077 42.7748C222.95 42.2239 223.97 41.9484 225.137 41.9484C225.846 41.9484 226.534 42.0657 227.199 42.3002C227.865 42.5348 228.462 42.9029 228.991 43.4048C229.52 43.9066 229.937 44.5584 230.243 45.3601C230.548 46.1565 230.701 47.1246 230.701 48.2646V49.1319H220.711V47.2992H228.304C228.304 46.6556 228.173 46.0856 227.911 45.5892C227.649 45.0874 227.281 44.692 226.806 44.4029C226.337 44.1138 225.786 43.9693 225.154 43.9693C224.466 43.9693 223.866 44.1384 223.354 44.4765C222.846 44.8093 222.454 45.2456 222.176 45.7856C221.903 46.3201 221.767 46.901 221.767 47.5283V48.96C221.767 49.8 221.914 50.5145 222.208 51.1036C222.508 51.6927 222.926 52.1427 223.46 52.4536C223.995 52.759 224.619 52.9117 225.334 52.9117C225.797 52.9117 226.22 52.8463 226.602 52.7154C226.984 52.579 227.314 52.3772 227.592 52.1099C227.87 51.8427 228.083 51.5127 228.23 51.12L230.545 51.5372C230.36 52.219 230.027 52.8163 229.547 53.329C229.073 53.8363 228.475 54.2317 227.755 54.5153C227.041 54.7935 226.225 54.9326 225.309 54.9326ZM236.842 54.9571C236.045 54.9571 235.325 54.8099 234.682 54.5153C234.038 54.2153 233.528 53.7817 233.152 53.2145C232.781 52.6472 232.596 51.9518 232.596 51.1282C232.596 50.4191 232.732 49.8355 233.005 49.3773C233.277 48.9191 233.646 48.5564 234.109 48.2891C234.573 48.0219 235.091 47.8201 235.664 47.6837C236.236 47.5474 236.82 47.4437 237.415 47.3728C238.167 47.2855 238.778 47.2146 239.247 47.1601C239.716 47.1001 240.057 47.0046 240.27 46.8737C240.483 46.7428 240.589 46.5301 240.589 46.2356V46.1783C240.589 45.4638 240.387 44.9102 239.984 44.5174C239.585 44.1247 238.991 43.9284 238.2 43.9284C237.376 43.9284 236.727 44.1111 236.253 44.4765C235.784 44.8365 235.459 45.2374 235.279 45.6792L232.98 45.1556C233.253 44.392 233.651 43.7756 234.175 43.3066C234.704 42.832 235.312 42.4884 235.999 42.2757C236.686 42.0575 237.409 41.9484 238.167 41.9484C238.669 41.9484 239.201 42.0084 239.763 42.1284C240.33 42.243 240.859 42.4557 241.35 42.7666C241.846 43.0775 242.253 43.522 242.569 44.1002C242.885 44.6729 243.043 45.4174 243.043 46.3338V54.679H240.654V52.9608H240.556C240.398 53.2772 240.161 53.5881 239.844 53.8935C239.528 54.199 239.122 54.4526 238.625 54.6544C238.129 54.8562 237.535 54.9571 236.842 54.9571ZM237.374 52.9936C238.05 52.9936 238.628 52.8599 239.108 52.5927C239.594 52.3254 239.962 51.9763 240.213 51.5454C240.469 51.1091 240.597 50.6427 240.597 50.1464V48.5264C240.51 48.6137 240.341 48.6955 240.09 48.7719C239.844 48.8428 239.564 48.9055 239.247 48.96C238.931 49.0091 238.623 49.0555 238.323 49.0991C238.023 49.1373 237.772 49.17 237.57 49.1973C237.095 49.2573 236.662 49.3582 236.269 49.5C235.882 49.6418 235.571 49.8464 235.336 50.1136C235.107 50.3754 234.993 50.7245 234.993 51.1609C234.993 51.7663 235.216 52.2245 235.664 52.5354C236.111 52.8408 236.681 52.9936 237.374 52.9936ZM251.938 42.1121V44.0756H245.073V42.1121H251.938ZM246.914 39.1012H249.36V50.9891C249.36 51.4636 249.431 51.8209 249.573 52.0609C249.715 52.2954 249.898 52.4563 250.121 52.5436C250.35 52.6254 250.598 52.6663 250.866 52.6663C251.062 52.6663 251.234 52.6527 251.381 52.6254C251.528 52.5981 251.643 52.5763 251.725 52.5599L252.167 54.5808C252.025 54.6353 251.823 54.6899 251.561 54.7444C251.299 54.8044 250.972 54.8371 250.579 54.8426C249.936 54.8535 249.336 54.739 248.779 54.499C248.223 54.259 247.773 53.8881 247.429 53.3863C247.086 52.8845 246.914 52.2545 246.914 51.4963V39.1012ZM259.694 54.9326C258.456 54.9326 257.39 54.668 256.495 54.139C255.606 53.6044 254.919 52.8545 254.434 51.889C253.954 50.9182 253.714 49.7809 253.714 48.4773C253.714 47.1901 253.954 46.0556 254.434 45.0738C254.919 44.092 255.595 43.3257 256.463 42.7748C257.335 42.2239 258.355 41.9484 259.523 41.9484C260.232 41.9484 260.919 42.0657 261.584 42.3002C262.25 42.5348 262.847 42.9029 263.376 43.4048C263.905 43.9066 264.322 44.5584 264.628 45.3601C264.933 46.1565 265.086 47.1246 265.086 48.2646V49.1319H255.096V47.2992H262.689C262.689 46.6556 262.558 46.0856 262.296 45.5892C262.034 45.0874 261.666 44.692 261.192 44.4029C260.723 44.1138 260.172 43.9693 259.539 43.9693C258.852 43.9693 258.252 44.1384 257.739 44.4765C257.232 44.8093 256.839 45.2456 256.561 45.7856C256.288 46.3201 256.152 46.901 256.152 47.5283V48.96C256.152 49.8 256.299 50.5145 256.594 51.1036C256.894 51.6927 257.311 52.1427 257.845 52.4536C258.38 52.759 259.004 52.9117 259.719 52.9117C260.183 52.9117 260.605 52.8463 260.987 52.7154C261.369 52.579 261.699 52.3772 261.977 52.1099C262.255 51.8427 262.468 51.5127 262.615 51.12L264.931 51.5372C264.745 52.219 264.412 52.8163 263.932 53.329C263.458 53.8363 262.861 54.2317 262.141 54.5153C261.426 54.7935 260.611 54.9326 259.694 54.9326ZM275.049 54.679H272.365L278.395 37.9231H281.316L287.345 54.679H284.662L279.925 40.9666H279.794L275.049 54.679ZM275.499 48.1173H284.204V50.2445H275.499V48.1173ZM294.429 54.9326C293.213 54.9326 292.166 54.6571 291.288 54.1062C290.415 53.5499 289.744 52.7836 289.275 51.8072C288.806 50.8309 288.571 49.7127 288.571 48.4528C288.571 47.1765 288.811 46.0501 289.291 45.0738C289.771 44.092 290.448 43.3257 291.32 42.7748C292.193 42.2239 293.221 41.9484 294.405 41.9484C295.359 41.9484 296.21 42.1257 296.958 42.4802C297.705 42.8293 298.307 43.3202 298.766 43.9529C299.229 44.5856 299.505 45.3247 299.592 46.1701H297.211C297.08 45.581 296.78 45.0738 296.311 44.6483C295.848 44.2229 295.226 44.0102 294.446 44.0102C293.764 44.0102 293.167 44.1902 292.654 44.5502C292.147 44.9047 291.751 45.412 291.468 46.0719C291.184 46.7265 291.042 47.501 291.042 48.3955C291.042 49.3118 291.181 50.1027 291.46 50.7682C291.738 51.4336 292.13 51.949 292.638 52.3145C293.15 52.6799 293.753 52.8626 294.446 52.8626C294.909 52.8626 295.329 52.7781 295.706 52.609C296.088 52.4345 296.407 52.1863 296.663 51.8645C296.925 51.5427 297.108 51.1554 297.211 50.7027H299.592C299.505 51.5154 299.24 52.2408 298.798 52.879C298.357 53.5172 297.765 54.019 297.023 54.3844C296.287 54.7499 295.422 54.9326 294.429 54.9326ZM307.271 54.9326C306.055 54.9326 305.008 54.6571 304.129 54.1062C303.257 53.5499 302.586 52.7836 302.117 51.8072C301.648 50.8309 301.413 49.7127 301.413 48.4528C301.413 47.1765 301.653 46.0501 302.133 45.0738C302.613 44.092 303.289 43.3257 304.162 42.7748C305.035 42.2239 306.063 41.9484 307.247 41.9484C308.201 41.9484 309.052 42.1257 309.799 42.4802C310.546 42.8293 311.149 43.3202 311.607 43.9529C312.071 44.5856 312.346 45.3247 312.434 46.1701H310.053C309.922 45.581 309.622 45.0738 309.153 44.6483C308.689 44.2229 308.067 44.0102 307.287 44.0102C306.606 44.0102 306.008 44.1902 305.496 44.5502C304.988 44.9047 304.593 45.412 304.309 46.0719C304.026 46.7265 303.884 47.501 303.884 48.3955C303.884 49.3118 304.023 50.1027 304.301 50.7682C304.579 51.4336 304.972 51.949 305.479 52.3145C305.992 52.6799 306.595 52.8626 307.287 52.8626C307.751 52.8626 308.171 52.7781 308.547 52.609C308.929 52.4345 309.248 52.1863 309.505 51.8645C309.767 51.5427 309.949 51.1554 310.053 50.7027H312.434C312.346 51.5154 312.082 52.2408 311.64 52.879C311.198 53.5172 310.606 54.019 309.865 54.3844C309.128 54.7499 308.264 54.9326 307.271 54.9326ZM320.113 54.9326C318.935 54.9326 317.907 54.6626 317.028 54.1226C316.15 53.5826 315.468 52.8272 314.983 51.8563C314.498 50.8854 314.255 49.7509 314.255 48.4528C314.255 47.1492 314.498 46.0092 314.983 45.0329C315.468 44.0565 316.15 43.2984 317.028 42.7584C317.907 42.2184 318.935 41.9484 320.113 41.9484C321.291 41.9484 322.319 42.2184 323.197 42.7584C324.075 43.2984 324.757 44.0565 325.243 45.0329C325.728 46.0092 325.971 47.1492 325.971 48.4528C325.971 49.7509 325.728 50.8854 325.243 51.8563C324.757 52.8272 324.075 53.5826 323.197 54.1226C322.319 54.6626 321.291 54.9326 320.113 54.9326ZM320.121 52.879C320.885 52.879 321.517 52.6772 322.019 52.2736C322.521 51.8699 322.892 51.3327 323.132 50.6618C323.377 49.9909 323.5 49.2518 323.5 48.4446C323.5 47.6428 323.377 46.9065 323.132 46.2356C322.892 45.5592 322.521 45.0165 322.019 44.6074C321.517 44.1984 320.885 43.9938 320.121 43.9938C319.352 43.9938 318.714 44.1984 318.207 44.6074C317.705 45.0165 317.331 45.5592 317.086 46.2356C316.846 46.9065 316.726 47.6428 316.726 48.4446C316.726 49.2518 316.846 49.9909 317.086 50.6618C317.331 51.3327 317.705 51.8699 318.207 52.2736C318.714 52.6772 319.352 52.879 320.121 52.879ZM336.432 49.4673V42.1121H338.886V54.679H336.481V52.5027H336.35C336.061 53.1735 335.597 53.7326 334.959 54.1799C334.326 54.6217 333.538 54.8426 332.595 54.8426C331.787 54.8426 331.073 54.6653 330.451 54.3108C329.835 53.9508 329.349 53.419 328.995 52.7154C328.646 52.0118 328.471 51.1418 328.471 50.1055V42.1121H330.917V49.8109C330.917 50.6673 331.155 51.3491 331.629 51.8563C332.104 52.3636 332.72 52.6172 333.478 52.6172C333.936 52.6172 334.392 52.5027 334.844 52.2736C335.303 52.0445 335.682 51.6981 335.982 51.2345C336.287 50.7709 336.437 50.1818 336.432 49.4673ZM344.389 47.2174V54.679H341.943V42.1121H344.291V44.1575H344.446C344.735 43.492 345.188 42.9575 345.804 42.5539C346.426 42.1502 347.209 41.9484 348.153 41.9484C349.009 41.9484 349.759 42.1284 350.402 42.4884C351.046 42.843 351.545 43.372 351.9 44.0756C352.254 44.7793 352.432 45.6492 352.432 46.6856V54.679H349.985V46.9801C349.985 46.0692 349.748 45.3574 349.273 44.8447C348.799 44.3265 348.147 44.0675 347.318 44.0675C346.751 44.0675 346.246 44.1902 345.804 44.4356C345.368 44.6811 345.022 45.0411 344.765 45.5156C344.514 45.9847 344.389 46.5519 344.389 47.2174ZM361.348 42.1121V44.0756H354.484V42.1121H361.348ZM356.325 39.1012H358.771V50.9891C358.771 51.4636 358.842 51.8209 358.984 52.0609C359.125 52.2954 359.308 52.4563 359.532 52.5436C359.761 52.6254 360.009 52.6663 360.276 52.6663C360.473 52.6663 360.644 52.6527 360.792 52.6254C360.939 52.5981 361.054 52.5763 361.135 52.5599L361.577 54.5808C361.435 54.6353 361.234 54.6899 360.972 54.7444C360.71 54.8044 360.383 54.8371 359.99 54.8426C359.346 54.8535 358.746 54.739 358.19 54.499C357.634 54.259 357.184 53.8881 356.84 53.3863C356.496 52.8845 356.325 52.2545 356.325 51.4963V39.1012Z" fill="#212529"/>
<rect x="172.256" y="86.4375" width="221.753" height="9.59962" rx="4.79981" fill="#F1F1F1"/>
<rect x="182.815" y="109.477" width="200.634" height="9.59983" rx="4.79991" fill="#F1F1F1"/>
<rect x="185.695" y="132.516" width="194.874" height="9.59962" rx="4.79981" fill="#F1F1F1"/>
<rect x="182.815" y="155.555" width="200.634" height="9.59983" rx="4.79991" fill="#F1F1F1"/>
<g filter="url(#filter1_dddddd_4016_504611)">
<path d="M243.293 189.154H323.799V219.873H243.293V189.154Z" fill="url(#paint0_linear_4016_504611)"/>
</g>
<path d="M265.82 202.439C265.769 201.986 265.558 201.635 265.188 201.386C264.818 201.134 264.352 201.008 263.791 201.008C263.389 201.008 263.041 201.072 262.748 201.199C262.454 201.324 262.226 201.496 262.063 201.716C261.904 201.933 261.824 202.18 261.824 202.458C261.824 202.691 261.878 202.892 261.987 203.061C262.098 203.23 262.243 203.372 262.422 203.487C262.604 203.599 262.799 203.693 263.006 203.769C263.213 203.843 263.413 203.903 263.604 203.951L264.561 204.2C264.874 204.276 265.194 204.38 265.523 204.511C265.852 204.642 266.156 204.814 266.437 205.028C266.718 205.242 266.944 205.506 267.117 205.822C267.292 206.138 267.38 206.516 267.38 206.956C267.38 207.511 267.236 208.004 266.949 208.435C266.665 208.866 266.252 209.205 265.71 209.454C265.171 209.703 264.518 209.827 263.752 209.827C263.019 209.827 262.384 209.711 261.848 209.478C261.312 209.245 260.892 208.915 260.589 208.488C260.286 208.057 260.119 207.546 260.087 206.956H261.57C261.599 207.31 261.714 207.605 261.915 207.842C262.119 208.074 262.379 208.248 262.695 208.363C263.014 208.475 263.363 208.531 263.743 208.531C264.161 208.531 264.532 208.465 264.858 208.334C265.186 208.2 265.445 208.015 265.633 207.779C265.821 207.54 265.915 207.261 265.915 206.942C265.915 206.652 265.833 206.414 265.667 206.229C265.504 206.044 265.282 205.891 265.001 205.77C264.724 205.648 264.41 205.541 264.059 205.449L262.901 205.133C262.116 204.919 261.494 204.605 261.034 204.19C260.578 203.776 260.35 203.227 260.35 202.544C260.35 201.979 260.503 201.487 260.809 201.065C261.116 200.644 261.53 200.317 262.054 200.084C262.577 199.848 263.167 199.73 263.824 199.73C264.488 199.73 265.073 199.847 265.58 200.08C266.091 200.313 266.493 200.633 266.786 201.042C267.08 201.447 267.233 201.912 267.246 202.439H265.82ZM269.032 209.665V202.314H270.463V209.665H269.032ZM269.755 201.18C269.506 201.18 269.292 201.097 269.113 200.931C268.938 200.762 268.85 200.561 268.85 200.329C268.85 200.092 268.938 199.891 269.113 199.726C269.292 199.556 269.506 199.472 269.755 199.472C270.003 199.472 270.216 199.556 270.391 199.726C270.57 199.891 270.659 200.092 270.659 200.329C270.659 200.561 270.57 200.762 270.391 200.931C270.216 201.097 270.003 201.18 269.755 201.18ZM275.469 212.574C274.886 212.574 274.383 212.498 273.962 212.345C273.544 212.191 273.203 211.989 272.938 211.737C272.673 211.485 272.475 211.209 272.345 210.909L273.574 210.402C273.661 210.542 273.775 210.69 273.919 210.847C274.066 211.006 274.264 211.142 274.512 211.254C274.764 211.365 275.088 211.421 275.484 211.421C276.026 211.421 276.474 211.289 276.829 211.024C277.183 210.762 277.36 210.344 277.36 209.77V208.325H277.269C277.183 208.481 277.058 208.655 276.896 208.846C276.736 209.038 276.516 209.204 276.235 209.344C275.954 209.485 275.589 209.555 275.139 209.555C274.559 209.555 274.035 209.419 273.57 209.148C273.107 208.874 272.74 208.47 272.469 207.937C272.201 207.401 272.067 206.743 272.067 205.961C272.067 205.179 272.199 204.509 272.464 203.951C272.732 203.393 273.099 202.965 273.565 202.669C274.031 202.369 274.559 202.219 275.149 202.219C275.605 202.219 275.974 202.295 276.254 202.448C276.535 202.598 276.754 202.774 276.91 202.975C277.069 203.176 277.192 203.353 277.278 203.506H277.384V202.314H278.786V209.827C278.786 210.459 278.639 210.978 278.345 211.383C278.052 211.788 277.655 212.088 277.154 212.282C276.656 212.477 276.095 212.574 275.469 212.574ZM275.455 208.368C275.867 208.368 276.214 208.272 276.498 208.081C276.785 207.886 277.002 207.609 277.149 207.248C277.299 206.884 277.374 206.449 277.374 205.942C277.374 205.447 277.301 205.012 277.154 204.635C277.007 204.259 276.792 203.965 276.508 203.755C276.224 203.541 275.873 203.434 275.455 203.434C275.024 203.434 274.666 203.546 274.378 203.769C274.091 203.989 273.874 204.289 273.728 204.669C273.584 205.049 273.512 205.473 273.512 205.942C273.512 206.424 273.586 206.846 273.732 207.21C273.879 207.574 274.096 207.858 274.383 208.062C274.673 208.266 275.031 208.368 275.455 208.368ZM282.135 205.301V209.665H280.705V202.314H282.078V203.511H282.169C282.338 203.122 282.603 202.809 282.963 202.573C283.327 202.337 283.785 202.219 284.337 202.219C284.838 202.219 285.276 202.324 285.653 202.535C286.029 202.742 286.321 203.051 286.528 203.463C286.736 203.874 286.84 204.383 286.84 204.989V209.665H285.409V205.162C285.409 204.629 285.27 204.213 284.992 203.913C284.715 203.61 284.334 203.458 283.849 203.458C283.517 203.458 283.222 203.53 282.963 203.674C282.708 203.817 282.506 204.028 282.356 204.305C282.209 204.58 282.135 204.911 282.135 205.301ZM296.981 206.617V202.314H298.417V209.665H297.01V208.392H296.933C296.764 208.784 296.493 209.111 296.12 209.373C295.749 209.631 295.288 209.761 294.737 209.761C294.264 209.761 293.847 209.657 293.483 209.449C293.122 209.239 292.838 208.928 292.631 208.516C292.427 208.105 292.325 207.596 292.325 206.99V202.314H293.756V206.817C293.756 207.318 293.894 207.717 294.172 208.014C294.449 208.311 294.81 208.459 295.253 208.459C295.521 208.459 295.788 208.392 296.053 208.258C296.321 208.124 296.542 207.921 296.718 207.65C296.896 207.379 296.984 207.034 296.981 206.617ZM300.339 212.421V202.314H301.736V203.506H301.856C301.939 203.353 302.059 203.176 302.215 202.975C302.371 202.774 302.588 202.598 302.866 202.448C303.143 202.295 303.51 202.219 303.966 202.219C304.56 202.219 305.089 202.369 305.555 202.669C306.021 202.968 306.386 203.401 306.651 203.965C306.919 204.53 307.053 205.21 307.053 206.004C307.053 206.798 306.921 207.479 306.656 208.047C306.391 208.612 306.027 209.047 305.565 209.354C305.102 209.657 304.574 209.808 303.981 209.808C303.534 209.808 303.169 209.733 302.885 209.583C302.604 209.434 302.384 209.258 302.224 209.057C302.065 208.856 301.942 208.677 301.856 208.521H301.77V212.421H300.339ZM301.741 205.99C301.741 206.506 301.816 206.959 301.966 207.349C302.116 207.738 302.333 208.043 302.617 208.263C302.901 208.48 303.249 208.588 303.66 208.588C304.088 208.588 304.445 208.475 304.732 208.248C305.019 208.019 305.236 207.708 305.383 207.315C305.533 206.923 305.608 206.481 305.608 205.99C305.608 205.505 305.534 205.069 305.388 204.683C305.244 204.297 305.027 203.993 304.737 203.769C304.45 203.546 304.091 203.434 303.66 203.434C303.245 203.434 302.894 203.541 302.607 203.755C302.323 203.969 302.108 204.267 301.961 204.65C301.815 205.033 301.741 205.479 301.741 205.99Z" fill="#FAFAFA"/>
<defs>
<filter id="filter0_ddddd_4016_504611" x="114.802" y="0.313431" width="335.7" height="310.382" filterUnits="userSpaceOnUse" color-interpolation-filters="sRGB">
<feFlood flood-opacity="0" result="BackgroundImageFix"/>
<feColorMatrix in="SourceAlpha" type="matrix" values="0 0 0 0 0 0 0 0 0 0 0 0 0 0 0 0 0 0 127 0" result="hardAlpha"/>
<feOffset dy="0.980813"/>
<feGaussianBlur stdDeviation="0.833691"/>
<feColorMatrix type="matrix" values="0 0 0 0 0.219608 0 0 0 0 0.219608 0 0 0 0 0.219608 0 0 0 0.0240741 0"/>
<feBlend mode="normal" in2="BackgroundImageFix" result="effect1_dropShadow_4016_504611"/>
<feColorMatrix in="SourceAlpha" type="matrix" values="0 0 0 0 0 0 0 0 0 0 0 0 0 0 0 0 0 0 127 0" result="hardAlpha"/>
<feOffset dy="4.31558"/>
<feGaussianBlur stdDeviation="1.72623"/>
<feColorMatrix type="matrix" values="0 0 0 0 0.219608 0 0 0 0 0.219608 0 0 0 0 0.219608 0 0 0 0.0392593 0"/>
<feBlend mode="normal" in2="effect1_dropShadow_4016_504611" result="effect2_dropShadow_4016_504611"/>
<feColorMatrix in="SourceAlpha" type="matrix" values="0 0 0 0 0 0 0 0 0 0 0 0 0 0 0 0 0 0 127 0" result="hardAlpha"/>
<feOffset dy="10.5928"/>
<feGaussianBlur stdDeviation="3.44265"/>
<feColorMatrix type="matrix" values="0 0 0 0 0.219608 0 0 0 0 0.219608 0 0 0 0 0.219608 0 0 0 0.05 0"/>
<feBlend mode="normal" in2="effect2_dropShadow_4016_504611" result="effect3_dropShadow_4016_504611"/>
<feColorMatrix in="SourceAlpha" type="matrix" values="0 0 0 0 0 0 0 0 0 0 0 0 0 0 0 0 0 0 127 0" result="hardAlpha"/>
<feOffset dy="20.4009"/>
<feGaussianBlur stdDeviation="6.74799"/>
<feColorMatrix type="matrix" values="0 0 0 0 0.219608 0 0 0 0 0.219608 0 0 0 0 0.219608 0 0 0 0.0607407 0"/>
<feBlend mode="normal" in2="effect3_dropShadow_4016_504611" result="effect4_dropShadow_4016_504611"/>
<feColorMatrix in="SourceAlpha" type="matrix" values="0 0 0 0 0 0 0 0 0 0 0 0 0 0 0 0 0 0 127 0" result="hardAlpha"/>
<feOffset dy="34.3285"/>
<feGaussianBlur stdDeviation="12.4073"/>
<feColorMatrix type="matrix" values="0 0 0 0 0.219608 0 0 0 0 0.219608 0 0 0 0 0.219608 0 0 0 0.0759259 0"/>
<feBlend mode="normal" in2="effect4_dropShadow_4016_504611" result="effect5_dropShadow_4016_504611"/>
<feBlend mode="normal" in="SourceGraphic" in2="effect5_dropShadow_4016_504611" result="shape"/>
</filter>
<filter id="filter1_dddddd_4016_504611" x="200.922" y="188.468" width="165.247" height="126.741" filterUnits="userSpaceOnUse" color-interpolation-filters="sRGB">
<feFlood flood-opacity="0" result="BackgroundImageFix"/>
<feColorMatrix in="SourceAlpha" type="matrix" values="0 0 0 0 0 0 0 0 0 0 0 0 0 0 0 0 0 0 127 0" result="hardAlpha"/>
<feOffset dy="0.980813"/>
<feGaussianBlur stdDeviation="0.833691"/>
<feColorMatrix type="matrix" values="0 0 0 0 0.219608 0 0 0 0 0.219608 0 0 0 0 0.219608 0 0 0 0.0240741 0"/>
<feBlend mode="normal" in2="BackgroundImageFix" result="effect1_dropShadow_4016_504611"/>
<feColorMatrix in="SourceAlpha" type="matrix" values="0 0 0 0 0 0 0 0 0 0 0 0 0 0 0 0 0 0 127 0" result="hardAlpha"/>
<feOffset dy="4.31558"/>
<feGaussianBlur stdDeviation="1.72623"/>
<feColorMatrix type="matrix" values="0 0 0 0 0.219608 0 0 0 0 0.219608 0 0 0 0 0.219608 0 0 0 0.0392593 0"/>
<feBlend mode="normal" in2="effect1_dropShadow_4016_504611" result="effect2_dropShadow_4016_504611"/>
<feColorMatrix in="SourceAlpha" type="matrix" values="0 0 0 0 0 0 0 0 0 0 0 0 0 0 0 0 0 0 127 0" result="hardAlpha"/>
<feOffset dy="10.5928"/>
<feGaussianBlur stdDeviation="3.44265"/>
<feColorMatrix type="matrix" values="0 0 0 0 0.219608 0 0 0 0 0.219608 0 0 0 0 0.219608 0 0 0 0.05 0"/>
<feBlend mode="normal" in2="effect2_dropShadow_4016_504611" result="effect3_dropShadow_4016_504611"/>
<feColorMatrix in="SourceAlpha" type="matrix" values="0 0 0 0 0 0 0 0 0 0 0 0 0 0 0 0 0 0 127 0" result="hardAlpha"/>
<feOffset dy="20.4009"/>
<feGaussianBlur stdDeviation="6.74799"/>
<feColorMatrix type="matrix" values="0 0 0 0 0.219608 0 0 0 0 0.219608 0 0 0 0 0.219608 0 0 0 0.0607407 0"/>
<feBlend mode="normal" in2="effect3_dropShadow_4016_504611" result="effect4_dropShadow_4016_504611"/>
<feColorMatrix in="SourceAlpha" type="matrix" values="0 0 0 0 0 0 0 0 0 0 0 0 0 0 0 0 0 0 127 0" result="hardAlpha"/>
<feOffset dy="34.3285"/>
<feGaussianBlur stdDeviation="12.4073"/>
<feColorMatrix type="matrix" values="0 0 0 0 0.219608 0 0 0 0 0.219608 0 0 0 0 0.219608 0 0 0 0.0759259 0"/>
<feBlend mode="normal" in2="effect4_dropShadow_4016_504611" result="effect5_dropShadow_4016_504611"/>
<feColorMatrix in="SourceAlpha" type="matrix" values="0 0 0 0 0 0 0 0 0 0 0 0 0 0 0 0 0 0 127 0" result="hardAlpha"/>
<feOffset dy="52.9639"/>
<feGaussianBlur stdDeviation="21.1856"/>
<feColorMatrix type="matrix" values="0 0 0 0 0.219608 0 0 0 0 0.219608 0 0 0 0 0.219608 0 0 0 0.1 0"/>
<feBlend mode="normal" in2="effect5_dropShadow_4016_504611" result="effect6_dropShadow_4016_504611"/>
<feBlend mode="normal" in="SourceGraphic" in2="effect6_dropShadow_4016_504611" result="shape"/>
</filter>
<linearGradient id="paint0_linear_4016_504611" x1="243.291" y1="204.516" x2="323.797" y2="204.516" gradientUnits="userSpaceOnUse">
<stop stop-color="#FF0379"/>
<stop offset="1" stop-color="#D437C1"/>
</linearGradient>
</defs>
</svg>
