
<svg width="461" height="357" viewBox="0 0 461 357" fill="none" xmlns="http://www.w3.org/2000/svg">
<rect x="260" y="104" width="200.634" height="9.59983" rx="4.79991" fill="#F1F1F1"/>
<path d="M430.393 42.1983C430.393 66.3271 425.64 90.2197 416.406 112.512C407.173 134.804 393.639 155.059 376.577 172.121C359.515 189.183 339.26 202.717 316.968 211.95C294.676 221.184 270.783 225.937 246.654 225.937C222.525 225.937 198.633 221.184 176.341 211.95C154.048 202.717 133.793 189.183 116.732 172.121C99.6698 155.059 86.1357 134.804 76.902 112.512C67.6683 90.2197 62.9158 66.3271 62.9158 42.1982L430.393 42.1983Z" fill="#F5F7FF"/>
<path d="M29.7941 74.3487C24.6392 74.3287 20.2036 73.0599 16.4873 70.5424C12.7909 68.0249 9.94375 64.3785 7.94572 59.6032C5.96768 54.828 4.98864 49.0836 5.00862 42.3703C5.00862 35.6769 5.99765 29.9725 7.97569 25.2572C9.97372 20.5418 12.8209 16.9554 16.5173 14.4978C20.2336 12.0203 24.6592 10.7815 29.7941 10.7815C34.9291 10.7815 39.3447 12.0203 43.041 14.4978C46.7574 16.9754 49.6145 20.5718 51.6126 25.2871C53.6106 29.9825 54.5996 35.6769 54.5796 42.3703C54.5796 49.1036 53.5806 54.8579 51.5826 59.6332C49.6046 64.4085 46.7674 68.0549 43.071 70.5724C39.3747 73.0899 34.949 74.3487 29.7941 74.3487ZM29.7941 63.5893C33.3107 63.5893 36.1179 61.821 38.2158 58.2845C40.3137 54.748 41.3527 49.4433 41.3327 42.3703C41.3327 37.7149 40.8532 33.8387 39.8942 30.7418C38.9551 27.6448 37.6164 25.3171 35.8781 23.7587C34.1598 22.2002 32.1318 21.421 29.7941 21.421C26.2976 21.421 23.5004 23.1692 21.4024 26.6658C19.3045 30.1623 18.2455 35.3972 18.2256 42.3703C18.2256 47.0856 18.6951 51.0217 19.6342 54.1786C20.5932 57.3155 21.9419 59.6732 23.6802 61.2516C25.4185 62.8101 27.4564 63.5893 29.7941 63.5893ZM87.3897 73.8392C84.2328 73.8192 81.1858 73.2897 78.2487 72.2507C75.3316 71.2118 72.7142 69.5234 70.3965 67.1857C68.0788 64.8481 66.2406 61.7511 64.882 57.8949C63.5433 54.0387 62.8739 49.3034 62.8739 43.689C62.8939 38.5341 63.4833 33.9286 64.6422 29.8726C65.821 25.7966 67.4994 22.3401 69.6772 19.5029C71.875 16.6657 74.5025 14.5078 77.5594 13.0293C80.6164 11.5307 84.043 10.7815 87.8393 10.7815C91.9352 10.7815 95.5516 11.5807 98.6885 13.1791C101.825 14.7576 104.343 16.9054 106.241 19.6227C108.159 22.3401 109.318 25.3871 109.718 28.7637H96.9203C96.4208 26.6258 95.3718 24.9475 93.7734 23.7287C92.175 22.5099 90.1969 21.9005 87.8393 21.9005C83.8432 21.9005 80.8062 23.6388 78.7283 27.1153C76.6703 30.5919 75.6213 35.3172 75.5814 41.2913H76.001C76.9201 39.4731 78.1588 37.9247 79.7173 36.6459C81.2957 35.3472 83.084 34.3582 85.082 33.6789C87.1 32.9795 89.2279 32.6299 91.4657 32.6299C95.1021 32.6299 98.3389 33.489 101.176 35.2073C104.013 36.9057 106.251 39.2434 107.889 42.2204C109.528 45.1975 110.347 48.6041 110.347 52.4403C110.347 56.5962 109.378 60.2926 107.44 63.5294C105.522 66.7662 102.834 69.3037 99.3779 71.1418C95.9413 72.96 91.9452 73.8592 87.3897 73.8392ZM87.3298 63.6492C89.3278 63.6492 91.116 63.1697 92.6945 62.2107C94.2729 61.2516 95.5117 59.9529 96.4108 58.3145C97.3099 56.6761 97.7595 54.8379 97.7595 52.8C97.7595 50.762 97.3099 48.9338 96.4108 47.3154C95.5317 45.697 94.3129 44.4083 92.7544 43.4492C91.196 42.4901 89.4177 42.0106 87.4197 42.0106C85.9212 42.0106 84.5325 42.2903 83.2538 42.8498C81.995 43.4092 80.8861 44.1885 79.9271 45.1875C78.988 46.1865 78.2487 47.3454 77.7093 48.664C77.1698 49.9628 76.9001 51.3514 76.9001 52.8299C76.9001 54.808 77.3496 56.6162 78.2487 58.2546C79.1678 59.893 80.4066 61.2017 81.9651 62.1807C83.5435 63.1597 85.3317 63.6492 87.3298 63.6492Z" fill="#D7D7D7"/>
<g filter="url(#filter0_ddddd_4081_504478)">
<rect x="157" y="36" width="241" height="239" fill="white"/>
<rect x="157.364" y="36.3638" width="240.272" height="238.272" stroke="#F1F1F1" stroke-width="0.727557"/>
</g>
<path d="M201.051 60.5194V74H199.291V67.8883H192.425V74H190.665V60.5194H192.425V66.4377H199.291V60.5194H201.051ZM213.727 68.2944C213.727 68.6297 213.708 68.9843 213.669 69.3582H205.198C205.262 70.4026 205.617 71.2214 206.261 71.8145C206.919 72.3947 207.712 72.6848 208.64 72.6848C209.401 72.6848 210.033 72.5108 210.536 72.1626C211.051 71.8016 211.412 71.3245 211.619 70.7314H213.514C213.23 71.75 212.663 72.5817 211.812 73.2264C210.961 73.8582 209.904 74.1741 208.64 74.1741C207.634 74.1741 206.732 73.9484 205.932 73.4971C205.146 73.0458 204.527 72.4076 204.076 71.5824C203.624 70.7443 203.399 69.7772 203.399 68.6813C203.399 67.5853 203.618 66.6247 204.056 65.7995C204.495 64.9743 205.107 64.3424 205.894 63.9041C206.693 63.4528 207.609 63.2271 208.64 63.2271C209.646 63.2271 210.536 63.4463 211.309 63.8847C212.083 64.3231 212.676 64.9291 213.089 65.7028C213.514 66.4635 213.727 67.3274 213.727 68.2944ZM211.909 67.927C211.909 67.2565 211.761 66.6827 211.464 66.2056C211.167 65.7157 210.761 65.3482 210.245 65.1032C209.743 64.8453 209.182 64.7164 208.563 64.7164C207.673 64.7164 206.912 65 206.281 65.5674C205.662 66.1347 205.307 66.9212 205.217 67.927H211.909ZM217.81 65.1225C218.119 64.5165 218.558 64.0459 219.125 63.7106C219.705 63.3754 220.408 63.2078 221.233 63.2078V65.0258H220.769C218.796 65.0258 217.81 66.096 217.81 68.2364V74H216.05V63.4012H217.81V65.1225ZM232.936 68.2944C232.936 68.6297 232.916 68.9843 232.877 69.3582H224.406C224.471 70.4026 224.825 71.2214 225.47 71.8145C226.128 72.3947 226.921 72.6848 227.849 72.6848C228.61 72.6848 229.241 72.5108 229.744 72.1626C230.26 71.8016 230.621 71.3245 230.827 70.7314H232.723C232.439 71.75 231.872 72.5817 231.021 73.2264C230.17 73.8582 229.112 74.1741 227.849 74.1741C226.843 74.1741 225.941 73.9484 225.141 73.4971C224.355 73.0458 223.736 72.4076 223.284 71.5824C222.833 70.7443 222.607 69.7772 222.607 68.6813C222.607 67.5853 222.827 66.6247 223.265 65.7995C223.703 64.9743 224.316 64.3424 225.102 63.9041C225.902 63.4528 226.817 63.2271 227.849 63.2271C228.855 63.2271 229.744 63.4463 230.518 63.8847C231.292 64.3231 231.885 64.9291 232.297 65.7028C232.723 66.4635 232.936 67.3274 232.936 68.2944ZM231.117 67.927C231.117 67.2565 230.969 66.6827 230.673 66.2056C230.376 65.7157 229.97 65.3482 229.454 65.1032C228.951 64.8453 228.39 64.7164 227.772 64.7164C226.882 64.7164 226.121 65 225.489 65.5674C224.87 66.1347 224.516 66.9212 224.426 67.927H231.117ZM241.324 61.6799C240.989 61.6799 240.705 61.5638 240.473 61.3317C240.241 61.0996 240.125 60.816 240.125 60.4807C240.125 60.1455 240.241 59.8618 240.473 59.6297C240.705 59.3976 240.989 59.2816 241.324 59.2816C241.646 59.2816 241.917 59.3976 242.136 59.6297C242.368 59.8618 242.484 60.1455 242.484 60.4807C242.484 60.816 242.368 61.0996 242.136 61.3317C241.917 61.5638 241.646 61.6799 241.324 61.6799ZM242.175 63.4012V74H240.415V63.4012H242.175ZM248.927 74.1741C248.114 74.1741 247.386 74.0387 246.741 73.7679C246.097 73.4842 245.587 73.0974 245.213 72.6075C244.839 72.1046 244.633 71.5308 244.594 70.8861H246.412C246.464 71.4148 246.709 71.8467 247.147 72.182C247.599 72.5172 248.185 72.6848 248.907 72.6848C249.578 72.6848 250.107 72.5365 250.493 72.24C250.88 71.9434 251.074 71.5695 251.074 71.1182C251.074 70.654 250.867 70.3123 250.455 70.0931C250.042 69.861 249.404 69.6354 248.54 69.4162C247.753 69.2099 247.109 69.0036 246.606 68.7973C246.116 68.5781 245.69 68.2622 245.329 67.8496C244.981 67.4241 244.807 66.8697 244.807 66.1863C244.807 65.6447 244.968 65.1483 245.291 64.697C245.613 64.2457 246.071 63.8912 246.664 63.6333C247.257 63.3625 247.934 63.2271 248.695 63.2271C249.868 63.2271 250.816 63.5237 251.538 64.1168C252.26 64.7099 252.647 65.5222 252.698 66.5538H250.938C250.9 65.9993 250.674 65.5545 250.261 65.2192C249.862 64.884 249.32 64.7164 248.637 64.7164C248.005 64.7164 247.502 64.8518 247.128 65.1225C246.754 65.3933 246.567 65.7479 246.567 66.1863C246.567 66.5344 246.677 66.8245 246.896 67.0566C247.128 67.2758 247.412 67.4563 247.747 67.5982C248.095 67.7271 248.572 67.8754 249.178 68.043C249.939 68.2493 250.558 68.4556 251.035 68.6619C251.512 68.8553 251.918 69.1519 252.253 69.5516C252.602 69.9513 252.782 70.4735 252.795 71.1182C252.795 71.6984 252.634 72.2206 252.311 72.6848C251.989 73.149 251.531 73.5165 250.938 73.7873C250.358 74.0451 249.688 74.1741 248.927 74.1741ZM269.565 63.4012L263.182 78.9899H261.364L263.453 73.884L259.179 63.4012H261.132L264.459 71.9885L267.747 63.4012H269.565ZM275.956 74.1741C274.964 74.1741 274.061 73.9484 273.249 73.4971C272.449 73.0458 271.818 72.4076 271.353 71.5824C270.902 70.7443 270.676 69.7772 270.676 68.6813C270.676 67.5982 270.908 66.644 271.373 65.8188C271.85 64.9807 272.494 64.3424 273.307 63.9041C274.119 63.4528 275.028 63.2271 276.034 63.2271C277.04 63.2271 277.949 63.4528 278.761 63.9041C279.573 64.3424 280.211 64.9743 280.676 65.7995C281.153 66.6247 281.391 67.5853 281.391 68.6813C281.391 69.7772 281.146 70.7443 280.656 71.5824C280.179 72.4076 279.528 73.0458 278.703 73.4971C277.878 73.9484 276.962 74.1741 275.956 74.1741ZM275.956 72.6268C276.588 72.6268 277.181 72.4785 277.736 72.182C278.29 71.8854 278.735 71.4406 279.07 70.8474C279.418 70.2543 279.593 69.5323 279.593 68.6813C279.593 67.8303 279.425 67.1082 279.09 66.5151C278.754 65.922 278.316 65.4836 277.774 65.1999C277.233 64.9033 276.646 64.7551 276.014 64.7551C275.37 64.7551 274.777 64.9033 274.235 65.1999C273.706 65.4836 273.281 65.922 272.959 66.5151C272.636 67.1082 272.475 67.8303 272.475 68.6813C272.475 69.5451 272.63 70.2737 272.939 70.8668C273.262 71.4599 273.687 71.9047 274.216 72.2013C274.744 72.485 275.325 72.6268 275.956 72.6268ZM293.105 63.4012V74H291.345V72.4334C291.01 72.9749 290.539 73.4004 289.933 73.7099C289.34 74.0064 288.682 74.1547 287.96 74.1547C287.135 74.1547 286.394 73.9871 285.736 73.6519C285.079 73.3037 284.556 72.788 284.17 72.1046C283.796 71.4212 283.609 70.5896 283.609 69.6096V63.4012H285.349V69.3775C285.349 70.4219 285.614 71.2278 286.142 71.7951C286.671 72.3496 287.393 72.6268 288.308 72.6268C289.25 72.6268 289.991 72.3367 290.533 71.7565C291.074 71.1762 291.345 70.3317 291.345 69.2228V63.4012H293.105ZM297.837 65.1225C298.146 64.5165 298.585 64.0459 299.152 63.7106C299.732 63.3754 300.435 63.2078 301.26 63.2078V65.0258H300.796C298.823 65.0258 297.837 66.096 297.837 68.2364V74H296.077V63.4012H297.837V65.1225ZM313.071 74.1741C312.078 74.1741 311.175 73.9484 310.363 73.4971C309.563 73.0458 308.932 72.4076 308.467 71.5824C308.016 70.7443 307.79 69.7772 307.79 68.6813C307.79 67.5982 308.023 66.644 308.487 65.8188C308.964 64.9807 309.609 64.3424 310.421 63.9041C311.233 63.4528 312.142 63.2271 313.148 63.2271C314.154 63.2271 315.063 63.4528 315.875 63.9041C316.687 64.3424 317.326 64.9743 317.79 65.7995C318.267 66.6247 318.505 67.5853 318.505 68.6813C318.505 69.7772 318.26 70.7443 317.77 71.5824C317.293 72.4076 316.642 73.0458 315.817 73.4971C314.992 73.9484 314.076 74.1741 313.071 74.1741ZM313.071 72.6268C313.702 72.6268 314.295 72.4785 314.85 72.182C315.404 71.8854 315.849 71.4406 316.184 70.8474C316.533 70.2543 316.707 69.5323 316.707 68.6813C316.707 67.8303 316.539 67.1082 316.204 66.5151C315.869 65.922 315.43 65.4836 314.889 65.1999C314.347 64.9033 313.76 64.7551 313.129 64.7551C312.484 64.7551 311.891 64.9033 311.349 65.1999C310.821 65.4836 310.395 65.922 310.073 66.5151C309.75 67.1082 309.589 67.8303 309.589 68.6813C309.589 69.5451 309.744 70.2737 310.053 70.8668C310.376 71.4599 310.801 71.9047 311.33 72.2013C311.859 72.485 312.439 72.6268 313.071 72.6268ZM322.579 65.1225C322.889 64.5165 323.327 64.0459 323.895 63.7106C324.475 63.3754 325.178 63.2078 326.003 63.2078V65.0258H325.539C323.566 65.0258 322.579 66.096 322.579 68.2364V74H320.819V63.4012H322.579V65.1225ZM327.377 68.6619C327.377 67.5788 327.596 66.6311 328.035 65.8188C328.473 64.9936 329.072 64.3553 329.833 63.9041C330.607 63.4528 331.471 63.2271 332.425 63.2271C333.25 63.2271 334.017 63.4205 334.726 63.8074C335.436 64.1813 335.977 64.6777 336.351 65.2966V59.6877H338.13V74H336.351V72.0079C336.003 72.6397 335.487 73.1619 334.804 73.5745C334.12 73.9742 333.321 74.1741 332.406 74.1741C331.464 74.1741 330.607 73.942 329.833 73.4778C329.072 73.0136 328.473 72.3625 328.035 71.5244C327.596 70.6863 327.377 69.7321 327.377 68.6619ZM336.351 68.6813C336.351 67.8818 336.19 67.1856 335.868 66.5924C335.545 65.9993 335.107 65.548 334.552 65.2386C334.011 64.9162 333.411 64.7551 332.754 64.7551C332.096 64.7551 331.497 64.9098 330.955 65.2192C330.413 65.5287 329.981 65.98 329.659 66.5731C329.337 67.1662 329.176 67.8625 329.176 68.6619C329.176 69.4742 329.337 70.1834 329.659 70.7894C329.981 71.3825 330.413 71.8403 330.955 72.1626C331.497 72.4721 332.096 72.6268 332.754 72.6268C333.411 72.6268 334.011 72.4721 334.552 72.1626C335.107 71.8403 335.545 71.3825 335.868 70.7894C336.19 70.1834 336.351 69.4807 336.351 68.6813ZM350.775 68.2944C350.775 68.6297 350.756 68.9843 350.717 69.3582H342.246C342.31 70.4026 342.665 71.2214 343.31 71.8145C343.967 72.3947 344.76 72.6848 345.689 72.6848C346.449 72.6848 347.081 72.5108 347.584 72.1626C348.1 71.8016 348.461 71.3245 348.667 70.7314H350.562C350.279 71.75 349.711 72.5817 348.86 73.2264C348.009 73.8582 346.952 74.1741 345.689 74.1741C344.683 74.1741 343.78 73.9484 342.981 73.4971C342.194 73.0458 341.575 72.4076 341.124 71.5824C340.673 70.7443 340.447 69.7772 340.447 68.6813C340.447 67.5853 340.666 66.6247 341.105 65.7995C341.543 64.9743 342.156 64.3424 342.942 63.9041C343.742 63.4528 344.657 63.2271 345.689 63.2271C346.694 63.2271 347.584 63.4463 348.358 63.8847C349.131 64.3231 349.724 64.9291 350.137 65.7028C350.562 66.4635 350.775 67.3274 350.775 68.2944ZM348.957 67.927C348.957 67.2565 348.809 66.6827 348.512 66.2056C348.216 65.7157 347.81 65.3482 347.294 65.1032C346.791 64.8453 346.23 64.7164 345.611 64.7164C344.721 64.7164 343.961 65 343.329 65.5674C342.71 66.1347 342.355 66.9212 342.265 67.927H348.957ZM354.858 65.1225C355.168 64.5165 355.606 64.0459 356.174 63.7106C356.754 63.3754 357.456 63.2078 358.282 63.2078V65.0258H357.818C355.845 65.0258 354.858 66.096 354.858 68.2364V74H353.098V63.4012H354.858V65.1225Z" fill="#313131"/>
<rect x="177" y="210" width="200.634" height="9.59983" rx="4.79991" fill="#F1F1F1"/>
<rect x="207.817" y="232.6" width="139" height="10" rx="5" fill="#F1F1F1"/>
<path d="M331.201 123.875C330.281 113.925 313.727 114.104 313.727 114.104C313.727 114.104 299.945 128.84 296.708 128.685C293.472 128.53 306.032 113.784 306.032 113.784C299.997 112.123 283.047 116.924 283.047 116.924C283.047 116.924 280.661 136.498 277.562 135.551C274.463 134.605 280.559 118.326 280.559 118.326C274.31 119.075 267.561 125.041 267.561 125.041C258.667 135.12 272.069 146.02 272.069 146.02C272.069 146.02 271.096 152.786 265.594 159.783C265.594 159.783 264.409 161.045 263.033 163.303L264.652 163.584C264.854 163.182 265.074 162.789 265.31 162.405C265.312 162.402 265.312 162.4 265.315 162.398C265.319 162.392 265.321 162.387 265.326 162.381C265.479 162.151 265.702 161.822 265.976 161.424L265.977 161.422L265.977 161.421C266.64 160.537 267.1 159.881 267.4 159.402L267.402 159.397C269.414 156.614 272.238 153.025 273.806 152.443C273.806 152.443 273.671 152.16 273.589 151.64C273.659 151.896 273.729 152.163 273.806 152.443C275.544 158.864 289.232 162.265 297.229 162.024C305.225 161.783 302.239 159.02 298.696 154.762C295.152 150.505 286.28 149.921 283.948 148.087C281.616 146.253 285.618 145.522 290.697 146.813C295.775 148.105 297.455 153.7 305.632 155.939C313.809 158.178 322.866 143.639 322.866 143.639C316.815 144.422 307.07 139.462 307.018 137.414C306.967 135.365 322.178 138.215 324.656 138.034C327.138 137.854 332.121 133.826 331.201 123.875Z" fill="url(#paint0_linear_4081_504478)"/>
<path d="M225.303 107.215C229.564 99.1339 243.469 105.087 243.469 105.087C243.469 105.087 249.938 122.362 252.723 123.365C255.508 124.369 250.074 107.514 250.074 107.514C255.747 108.226 268.367 118.221 268.367 118.221C268.367 118.221 263.526 135.587 266.473 135.873C269.419 136.16 269.976 120.277 269.976 120.277C274.986 123.099 278.592 130.502 278.592 130.502C282.567 142.131 267.442 146.639 267.442 146.639C267.442 146.639 265.894 152.694 268.086 160.531C268.086 160.531 268.644 162.012 269.014 164.401L267.55 164.071C267.52 163.661 267.473 163.251 267.407 162.845C267.407 162.842 267.407 162.84 267.406 162.837C267.404 162.83 267.404 162.826 267.403 162.819C267.354 162.571 267.281 162.215 267.189 161.783V161.779C266.939 160.801 266.781 160.086 266.696 159.576V159.571C265.973 156.516 264.847 152.496 263.727 151.454C263.727 151.454 263.941 151.263 264.192 150.853C264.044 151.044 263.89 151.245 263.727 151.454C260.012 156.268 247.273 154.343 240.609 151.337C233.946 148.331 237.433 147.044 241.914 144.69C246.395 142.336 254.086 144.953 256.695 144.222C259.305 143.49 256.185 141.471 251.446 140.78C246.709 140.092 243.333 144.228 235.65 143.253C227.966 142.278 225.415 126.825 225.415 126.825C230.247 129.608 240.206 128.834 240.967 127.123C241.727 125.41 227.895 122.487 225.867 121.466C223.837 120.443 221.042 115.295 225.303 107.215Z" fill="url(#paint1_linear_4081_504478)"/>
<path d="M251.165 123.52L248.364 110.941H240.264" stroke="url(#paint2_linear_4081_504478)" stroke-width="5.83006" stroke-linecap="round" stroke-linejoin="round"/>
<path fill-rule="evenodd" clip-rule="evenodd" d="M258.63 158.135L251.165 123.52H304.789C307.488 123.52 309.496 125.995 308.932 128.621L302.569 158.135C302.15 160.079 300.426 161.466 298.426 161.466H262.769C260.773 161.466 259.049 160.079 258.63 158.135Z" fill="url(#paint3_linear_4081_504478)" stroke="url(#paint4_linear_4081_504478)" stroke-width="5.83006" stroke-linecap="round" stroke-linejoin="round"/>
<path d="M296.648 172.42C295.519 172.42 294.603 173.336 294.614 174.464C294.614 175.592 295.53 176.508 296.658 176.508C297.787 176.508 298.703 175.592 298.703 174.464C298.697 173.336 297.781 172.42 296.648 172.42ZM263.946 172.42C262.817 172.42 261.901 173.336 261.912 174.464C261.907 175.592 262.823 176.508 263.951 176.508C265.079 176.508 265.995 175.592 265.995 174.464C265.995 173.336 265.079 172.42 263.946 172.42Z" stroke="url(#paint5_linear_4081_504478)" stroke-width="7.5514" stroke-linecap="round" stroke-linejoin="round"/>
<path fill-rule="evenodd" clip-rule="evenodd" d="M322.235 152.87C318.183 152.87 314.898 149.585 314.898 145.533C314.898 141.48 318.183 138.195 322.235 138.195C326.288 138.195 329.573 141.48 329.573 145.533C329.573 149.585 326.288 152.87 322.235 152.87Z" fill="url(#paint6_linear_4081_504478)"/>
<path d="M324.541 144.484L321.528 147.419L319.719 145.659" stroke="white" stroke-width="1.23514" stroke-linecap="round" stroke-linejoin="round"/>
<path fill-rule="evenodd" clip-rule="evenodd" d="M327.162 128.971C323.052 128.971 319.719 125.591 319.719 121.423C319.719 117.255 323.052 113.876 327.162 113.876C331.272 113.876 334.604 117.255 334.604 121.423C334.604 125.591 331.272 128.971 327.162 128.971Z" fill="url(#paint7_linear_4081_504478)"/>
<path d="M329.783 120.165L326.639 123.52L324.751 121.507" stroke="white" stroke-width="1.23514" stroke-linecap="round" stroke-linejoin="round"/>
<path fill-rule="evenodd" clip-rule="evenodd" d="M230.607 135.848C226.53 135.848 223.224 132.542 223.224 128.466C223.224 124.388 226.53 121.083 230.607 121.083C234.684 121.083 237.99 124.388 237.99 128.466C237.99 132.542 234.684 135.848 230.607 135.848Z" fill="url(#paint8_linear_4081_504478)"/>
<path d="M233.068 127.347L229.993 130.479L228.146 128.6" stroke="white" stroke-width="1.23514" stroke-linecap="round" stroke-linejoin="round"/>
<path d="M294.352 133.583H265.84C264.683 133.583 263.744 134.521 263.744 135.679V136.518C263.744 137.676 264.683 138.614 265.84 138.614H294.352C295.51 138.614 296.449 137.676 296.449 136.518V135.679C296.449 134.521 295.51 133.583 294.352 133.583Z" fill="white"/>
<path d="M294.352 145.533H265.84C264.683 145.533 263.744 146.471 263.744 147.629V148.468C263.744 149.625 264.683 150.564 265.84 150.564H294.352C295.51 150.564 296.449 149.625 296.449 148.468V147.629C296.449 146.471 295.51 145.533 294.352 145.533Z" fill="white"/>
<path d="M286.476 110.011C290.185 105.422 288.42 97.8406 288.42 97.8406C288.42 97.8406 280.642 97.7054 276.936 102.298C273.227 106.887 274.989 114.465 274.989 114.465C274.989 114.465 282.767 114.6 286.476 110.011Z" fill="url(#paint9_linear_4081_504478)"/>
<path d="M332.419 132.954H332.387C332.198 135.542 330.202 135.582 330.202 135.582C330.202 135.582 332.403 135.623 332.403 138.614C332.403 135.623 334.604 135.582 334.604 135.582C334.604 135.582 332.609 135.542 332.419 132.954ZM268.897 108.006H268.865C268.675 110.594 266.679 110.634 266.679 110.634C266.679 110.634 268.88 110.676 268.88 113.666C268.88 110.676 271.082 110.634 271.082 110.634C271.082 110.634 269.086 110.594 268.897 108.006ZM222.984 113.666H222.952C222.763 116.255 220.767 116.295 220.767 116.295C220.767 116.295 222.968 116.336 222.968 119.327C222.968 116.336 225.169 116.295 225.169 116.295C225.169 116.295 223.174 116.255 222.984 113.666ZM313.7 158.036C312.439 158.407 310.759 159.153 309.854 160.513C308.95 161.873 310.145 162.2 311.684 161.868C313.224 161.537 314.719 160.583 315.281 159.318C315.842 158.053 314.734 157.732 313.7 158.036Z" fill="#E1E4E5"/>
<path fill-rule="evenodd" clip-rule="evenodd" d="M241.639 159.437H242.181C242.312 159.437 242.417 159.544 242.417 159.674V160.215C242.417 160.346 242.311 160.452 242.181 160.452H241.639C241.577 160.452 241.517 160.427 241.472 160.382C241.428 160.338 241.403 160.278 241.403 160.215V159.674C241.403 159.642 241.409 159.612 241.421 159.583C241.433 159.554 241.45 159.528 241.472 159.506C241.494 159.484 241.52 159.467 241.549 159.455C241.577 159.443 241.608 159.437 241.639 159.437ZM243.517 159.437H244.059C244.189 159.437 244.295 159.544 244.295 159.674V160.215C244.295 160.346 244.189 160.452 244.059 160.452H243.517C243.455 160.451 243.395 160.426 243.35 160.382C243.306 160.338 243.281 160.278 243.281 160.215V159.674C243.281 159.544 243.387 159.437 243.517 159.437ZM245.397 159.437H245.938C246.068 159.437 246.175 159.544 246.175 159.674V160.215C246.175 160.346 246.068 160.452 245.938 160.452H245.397C245.334 160.452 245.274 160.427 245.23 160.382C245.185 160.338 245.16 160.278 245.16 160.215V159.674C245.16 159.642 245.166 159.612 245.178 159.583C245.19 159.554 245.207 159.528 245.229 159.506C245.251 159.484 245.277 159.467 245.306 159.455C245.335 159.443 245.365 159.437 245.397 159.437ZM247.275 159.437H247.816C247.946 159.437 248.053 159.544 248.053 159.674V160.215C248.053 160.346 247.946 160.452 247.816 160.452H247.275C247.212 160.452 247.152 160.427 247.107 160.383C247.063 160.338 247.037 160.278 247.037 160.215V159.674C247.038 159.611 247.063 159.551 247.108 159.507C247.152 159.462 247.212 159.437 247.275 159.437ZM249.153 159.437H249.694C249.825 159.437 249.932 159.544 249.932 159.674V160.215C249.932 160.346 249.825 160.452 249.694 160.452H249.153C249.09 160.452 249.03 160.427 248.986 160.382C248.942 160.338 248.917 160.278 248.916 160.215V159.674C248.916 159.544 249.023 159.437 249.153 159.437ZM243.586 161.485H244.128C244.258 161.485 244.364 161.592 244.364 161.721V162.264C244.364 162.394 244.258 162.501 244.128 162.501H243.586C243.524 162.501 243.463 162.476 243.419 162.431C243.375 162.387 243.35 162.327 243.35 162.264V161.723C243.35 161.691 243.355 161.661 243.367 161.632C243.379 161.603 243.396 161.577 243.418 161.555C243.44 161.532 243.467 161.515 243.495 161.503C243.524 161.491 243.555 161.485 243.586 161.485ZM245.464 161.485H246.006C246.136 161.485 246.242 161.592 246.242 161.721V162.264C246.242 162.394 246.136 162.501 246.006 162.501H245.464C245.402 162.5 245.342 162.476 245.297 162.431C245.253 162.387 245.228 162.327 245.228 162.264V161.723C245.228 161.691 245.234 161.661 245.245 161.632C245.257 161.603 245.275 161.577 245.297 161.555C245.319 161.532 245.345 161.515 245.373 161.503C245.402 161.491 245.433 161.485 245.464 161.485ZM247.342 161.485H247.884C248.015 161.485 248.122 161.592 248.122 161.721V162.264C248.122 162.394 248.015 162.501 247.884 162.501H247.342C247.28 162.5 247.22 162.476 247.176 162.431C247.131 162.387 247.106 162.327 247.106 162.264V161.723C247.106 161.592 247.212 161.485 247.342 161.485ZM245.397 157.237H245.938C246.068 157.237 246.175 157.344 246.175 157.474V158.015C246.175 158.146 246.068 158.252 245.938 158.252H245.397C245.334 158.251 245.274 158.226 245.23 158.182C245.185 158.138 245.16 158.078 245.16 158.015V157.474C245.16 157.442 245.166 157.412 245.178 157.383C245.19 157.354 245.207 157.328 245.229 157.306C245.251 157.284 245.277 157.267 245.306 157.255C245.335 157.243 245.365 157.237 245.397 157.237ZM247.275 157.237H247.816C247.946 157.237 248.053 157.344 248.053 157.474V158.015C248.053 158.146 247.946 158.252 247.816 158.252H247.275C247.212 158.252 247.152 158.227 247.107 158.182C247.063 158.138 247.038 158.078 247.037 158.015V157.474C247.038 157.411 247.063 157.351 247.108 157.307C247.152 157.262 247.212 157.237 247.275 157.237Z" fill="#E1E4E5"/>
<defs>
<filter id="filter0_ddddd_4081_504478" x="122.913" y="35.0569" width="309.175" height="321.187" filterUnits="userSpaceOnUse" color-interpolation-filters="sRGB">
<feFlood flood-opacity="0" result="BackgroundImageFix"/>
<feColorMatrix in="SourceAlpha" type="matrix" values="0 0 0 0 0 0 0 0 0 0 0 0 0 0 0 0 0 0 127 0" result="hardAlpha"/>
<feOffset dy="1.34733"/>
<feGaussianBlur stdDeviation="1.14523"/>
<feColorMatrix type="matrix" values="0 0 0 0 0.219608 0 0 0 0 0.219608 0 0 0 0 0.219608 0 0 0 0.0240741 0"/>
<feBlend mode="normal" in2="BackgroundImageFix" result="effect1_dropShadow_4081_504478"/>
<feColorMatrix in="SourceAlpha" type="matrix" values="0 0 0 0 0 0 0 0 0 0 0 0 0 0 0 0 0 0 127 0" result="hardAlpha"/>
<feOffset dy="5.92824"/>
<feGaussianBlur stdDeviation="2.3713"/>
<feColorMatrix type="matrix" values="0 0 0 0 0.219608 0 0 0 0 0.219608 0 0 0 0 0.219608 0 0 0 0.0392593 0"/>
<feBlend mode="normal" in2="effect1_dropShadow_4081_504478" result="effect2_dropShadow_4081_504478"/>
<feColorMatrix in="SourceAlpha" type="matrix" values="0 0 0 0 0 0 0 0 0 0 0 0 0 0 0 0 0 0 127 0" result="hardAlpha"/>
<feOffset dy="14.5511"/>
<feGaussianBlur stdDeviation="4.72912"/>
<feColorMatrix type="matrix" values="0 0 0 0 0.219608 0 0 0 0 0.219608 0 0 0 0 0.219608 0 0 0 0.05 0"/>
<feBlend mode="normal" in2="effect2_dropShadow_4081_504478" result="effect3_dropShadow_4081_504478"/>
<feColorMatrix in="SourceAlpha" type="matrix" values="0 0 0 0 0 0 0 0 0 0 0 0 0 0 0 0 0 0 127 0" result="hardAlpha"/>
<feOffset dy="28.0244"/>
<feGaussianBlur stdDeviation="9.26961"/>
<feColorMatrix type="matrix" values="0 0 0 0 0.219608 0 0 0 0 0.219608 0 0 0 0 0.219608 0 0 0 0.0607407 0"/>
<feBlend mode="normal" in2="effect3_dropShadow_4081_504478" result="effect4_dropShadow_4081_504478"/>
<feColorMatrix in="SourceAlpha" type="matrix" values="0 0 0 0 0 0 0 0 0 0 0 0 0 0 0 0 0 0 127 0" result="hardAlpha"/>
<feOffset dy="47.1565"/>
<feGaussianBlur stdDeviation="17.0437"/>
<feColorMatrix type="matrix" values="0 0 0 0 0.219608 0 0 0 0 0.219608 0 0 0 0 0.219608 0 0 0 0.0759259 0"/>
<feBlend mode="normal" in2="effect4_dropShadow_4081_504478" result="effect5_dropShadow_4081_504478"/>
<feBlend mode="normal" in="SourceGraphic" in2="effect5_dropShadow_4081_504478" result="shape"/>
</filter>
<linearGradient id="paint0_linear_4081_504478" x1="265.43" y1="205.079" x2="335.721" y2="41.6085" gradientUnits="userSpaceOnUse">
<stop stop-color="white"/>
<stop offset="1" stop-color="#EEEEEE"/>
</linearGradient>
<linearGradient id="paint1_linear_4081_504478" x1="252.363" y1="198.84" x2="250.293" y2="36.1574" gradientUnits="userSpaceOnUse">
<stop stop-color="white"/>
<stop offset="1" stop-color="#EEEEEE"/>
</linearGradient>
<linearGradient id="paint2_linear_4081_504478" x1="240.264" y1="117.231" x2="251.165" y2="117.231" gradientUnits="userSpaceOnUse">
<stop stop-color="#FF0379"/>
<stop offset="1" stop-color="#D437C1"/>
</linearGradient>
<linearGradient id="paint3_linear_4081_504478" x1="251.164" y1="142.496" x2="309.027" y2="142.496" gradientUnits="userSpaceOnUse">
<stop stop-color="#FF0379"/>
<stop offset="1" stop-color="#D437C1"/>
</linearGradient>
<linearGradient id="paint4_linear_4081_504478" x1="251.164" y1="142.496" x2="309.027" y2="142.496" gradientUnits="userSpaceOnUse">
<stop stop-color="#FF0379"/>
<stop offset="1" stop-color="#D437C1"/>
</linearGradient>
<linearGradient id="paint5_linear_4081_504478" x1="261.911" y1="174.464" x2="298.702" y2="174.464" gradientUnits="userSpaceOnUse">
<stop stop-color="#FF0379"/>
<stop offset="1" stop-color="#D437C1"/>
</linearGradient>
<linearGradient id="paint6_linear_4081_504478" x1="314.897" y1="145.534" x2="329.573" y2="145.534" gradientUnits="userSpaceOnUse">
<stop stop-color="#FF0379"/>
<stop offset="1" stop-color="#D437C1"/>
</linearGradient>
<linearGradient id="paint7_linear_4081_504478" x1="319.719" y1="121.424" x2="334.604" y2="121.424" gradientUnits="userSpaceOnUse">
<stop stop-color="#FF0379"/>
<stop offset="1" stop-color="#D437C1"/>
</linearGradient>
<linearGradient id="paint8_linear_4081_504478" x1="223.224" y1="128.467" x2="237.99" y2="128.467" gradientUnits="userSpaceOnUse">
<stop stop-color="#FF0379"/>
<stop offset="1" stop-color="#D437C1"/>
</linearGradient>
<linearGradient id="paint9_linear_4081_504478" x1="298.873" y1="91.9765" x2="255.732" y2="127.033" gradientUnits="userSpaceOnUse">
<stop stop-color="white"/>
<stop offset="1" stop-color="#EEEEEE"/>
</linearGradient>
</defs>
</svg>
