
<svg width="529" height="238" viewBox="0 0 529 238" fill="none" xmlns="http://www.w3.org/2000/svg">
<rect x="261" y="104" width="200.634" height="9.59983" rx="4.79991" fill="#F1F1F1"/>
<path d="M431.393 42.1983C431.393 66.3271 426.64 90.2197 417.406 112.512C408.173 134.804 394.639 155.059 377.577 172.121C360.515 189.183 340.26 202.717 317.968 211.95C295.676 221.184 271.783 225.937 247.654 225.937C223.525 225.937 199.633 221.184 177.341 211.95C155.048 202.717 134.793 189.183 117.732 172.121C100.67 155.059 87.1357 134.804 77.902 112.512C68.6683 90.2197 63.9158 66.3271 63.9158 42.1982L431.393 42.1983Z" fill="#F5F7FF"/>
<path d="M30.0524 74.3487C24.8975 74.3287 20.4618 73.0599 16.7455 70.5424C13.0492 68.0249 10.202 64.3785 8.20395 59.6032C6.22591 54.828 5.24688 49.0836 5.26686 42.3703C5.26686 35.6769 6.25588 29.9725 8.23393 25.2572C10.232 20.5418 13.0791 16.9554 16.7755 14.4978C20.4918 12.0203 24.9174 10.7815 30.0524 10.7815C35.1873 10.7815 39.6029 12.0203 43.2993 14.4978C47.0156 16.9754 49.8728 20.5718 51.8708 25.2871C53.8688 29.9825 54.8579 35.6769 54.8379 42.3703C54.8379 49.1036 53.8389 54.8579 51.8408 59.6332C49.8628 64.4085 47.0256 68.0549 43.3292 70.5724C39.6329 73.0899 35.2073 74.3487 30.0524 74.3487ZM30.0524 63.5893C33.5689 63.5893 36.3761 61.821 38.474 58.2845C40.572 54.748 41.6109 49.4433 41.591 42.3703C41.591 37.7149 41.1114 33.8387 40.1524 30.7418C39.2133 27.6448 37.8746 25.3171 36.1364 23.7587C34.418 22.2002 32.3901 21.421 30.0524 21.421C26.5558 21.421 23.7586 23.1692 21.6607 26.6658C19.5627 30.1623 18.5038 35.3972 18.4838 42.3703C18.4838 47.0856 18.9533 51.0217 19.8924 54.1786C20.8515 57.3155 22.2001 59.6732 23.9384 61.2516C25.6767 62.8101 27.7147 63.5893 30.0524 63.5893ZM63.1621 62.2107V51.9908L88.7868 11.6207H97.5981V25.7667H92.3833L76.2292 51.3314V51.8109H112.643V62.2107H63.1621ZM92.623 73V59.0937L92.8628 54.5682V11.6207H105.031V73H92.623Z" fill="#D7D7D7"/>
<g filter="url(#filter0_ddddd_4081_504481)">
<rect x="157.983" y="36.0443" width="336.707" height="120.441" fill="white"/>
<rect x="158.346" y="36.4081" width="335.98" height="119.713" stroke="#F1F1F1" stroke-width="0.727557"/>
</g>
<path d="M250.571 58.938C250.571 60.0597 250.184 60.9945 249.41 61.7424C248.65 62.4773 247.483 62.8448 245.91 62.8448H243.318V68.473H241.558V54.9924H245.91C247.431 54.9924 248.585 55.3599 249.372 56.0949C250.171 56.8298 250.571 57.7775 250.571 58.938ZM245.91 61.3943C246.89 61.3943 247.612 61.1815 248.076 60.756C248.54 60.3305 248.772 59.7245 248.772 58.938C248.772 57.2746 247.818 56.443 245.91 56.443H243.318V61.3943H245.91ZM252.101 63.1349C252.101 62.0518 252.32 61.1041 252.758 60.2918C253.197 59.4666 253.796 58.8284 254.557 58.3771C255.331 57.9258 256.188 57.7001 257.129 57.7001C258.058 57.7001 258.864 57.9 259.547 58.2997C260.23 58.6994 260.74 59.2023 261.075 59.8083V57.8742H262.854V68.473H261.075V66.5003C260.727 67.1192 260.205 67.6349 259.508 68.0475C258.825 68.4472 258.025 68.6471 257.11 68.6471C256.169 68.6471 255.318 68.415 254.557 67.9508C253.796 67.4866 253.197 66.8355 252.758 65.9974C252.32 65.1593 252.101 64.2051 252.101 63.1349ZM261.075 63.1543C261.075 62.3549 260.914 61.6586 260.591 61.0655C260.269 60.4723 259.831 60.0211 259.276 59.7116C258.735 59.3893 258.135 59.2281 257.477 59.2281C256.82 59.2281 256.22 59.3828 255.679 59.6923C255.137 60.0017 254.705 60.453 254.383 61.0461C254.061 61.6392 253.899 62.3355 253.899 63.1349C253.899 63.9473 254.061 64.6564 254.383 65.2624C254.705 65.8556 255.137 66.3133 255.679 66.6356C256.22 66.9451 256.82 67.0998 257.477 67.0998C258.135 67.0998 258.735 66.9451 259.276 66.6356C259.831 66.3133 260.269 65.8556 260.591 65.2624C260.914 64.6564 261.075 63.9537 261.075 63.1543ZM274.957 57.8742L268.575 73.463H266.757L268.846 68.357L264.571 57.8742H266.525L269.851 66.4616L273.139 57.8742H274.957ZM289.472 57.6808C290.298 57.6808 291.032 57.8549 291.677 58.203C292.322 58.5383 292.831 59.0476 293.205 59.7309C293.579 60.4143 293.766 61.246 293.766 62.2259V68.473H292.025V62.4773C292.025 61.42 291.761 60.6142 291.232 60.0597C290.717 59.4924 290.014 59.2087 289.124 59.2087C288.209 59.2087 287.48 59.5053 286.939 60.0984C286.397 60.6786 286.126 61.5232 286.126 62.6321V68.473H284.386V62.4773C284.386 61.42 284.121 60.6142 283.593 60.0597C283.077 59.4924 282.374 59.2087 281.485 59.2087C280.569 59.2087 279.841 59.5053 279.299 60.0984C278.757 60.6786 278.487 61.5232 278.487 62.6321V68.473H276.727V57.8742H278.487V59.4021C278.835 58.8477 279.299 58.4222 279.879 58.1256C280.472 57.8291 281.123 57.6808 281.833 57.6808C282.722 57.6808 283.509 57.8807 284.192 58.2804C284.876 58.6801 285.385 59.2668 285.72 60.0404C286.017 59.2925 286.507 58.7123 287.19 58.2997C287.873 57.8871 288.634 57.6808 289.472 57.6808ZM306.324 62.7675C306.324 63.1027 306.304 63.4573 306.265 63.8312H297.794C297.859 64.8756 298.213 65.6944 298.858 66.2875C299.516 66.8677 300.308 67.1578 301.237 67.1578C301.998 67.1578 302.629 66.9838 303.132 66.6356C303.648 66.2746 304.009 65.7975 304.215 65.2044H306.111C305.827 66.223 305.26 67.0547 304.409 67.6994C303.558 68.3312 302.5 68.6471 301.237 68.6471C300.231 68.6471 299.329 68.4214 298.529 67.9702C297.743 67.5189 297.124 66.8806 296.672 66.0554C296.221 65.2173 295.995 64.2503 295.995 63.1543C295.995 62.0583 296.215 61.0977 296.653 60.2725C297.091 59.4473 297.704 58.8155 298.49 58.3771C299.29 57.9258 300.205 57.7001 301.237 57.7001C302.243 57.7001 303.132 57.9193 303.906 58.3577C304.68 58.7961 305.273 59.4021 305.685 60.1758C306.111 60.9365 306.324 61.8004 306.324 62.7675ZM304.505 62.4C304.505 61.7295 304.357 61.1557 304.061 60.6786C303.764 60.1887 303.358 59.8212 302.842 59.5762C302.339 59.3183 301.778 59.1894 301.159 59.1894C300.27 59.1894 299.509 59.4731 298.877 60.0404C298.258 60.6077 297.904 61.3943 297.814 62.4H304.505ZM313.811 57.6808C315.1 57.6808 316.144 58.0741 316.944 58.8606C317.743 59.6342 318.143 60.756 318.143 62.2259V68.473H316.402V62.4773C316.402 61.42 316.138 60.6142 315.609 60.0597C315.081 59.4924 314.359 59.2087 313.443 59.2087C312.515 59.2087 311.773 59.4989 311.219 60.0791C310.677 60.6593 310.407 61.5039 310.407 62.6127V68.473H308.647V57.8742H310.407V59.3828C310.755 58.8413 311.225 58.4222 311.819 58.1256C312.425 57.8291 313.089 57.6808 313.811 57.6808ZM323.165 59.3248V65.5719C323.165 66.0876 323.274 66.4551 323.494 66.6743C323.713 66.8806 324.093 66.9838 324.635 66.9838H325.931V68.473H324.345C323.365 68.473 322.63 68.2474 322.14 67.7961C321.65 67.3448 321.405 66.6034 321.405 65.5719V59.3248H320.032V57.8742H321.405V55.2052H323.165V57.8742H325.931V59.3248H323.165ZM337.494 68.6084C336.604 68.6084 335.805 68.4537 335.095 68.1442C334.399 67.8219 333.851 67.3835 333.452 66.829C333.052 66.2617 332.846 65.6106 332.833 64.8756H334.709C334.773 65.5074 335.031 66.0425 335.482 66.4809C335.946 66.9064 336.617 67.1192 337.494 67.1192C338.332 67.1192 338.989 66.9129 339.467 66.5003C339.957 66.0748 340.201 65.5332 340.201 64.8756C340.201 64.3599 340.06 63.9408 339.776 63.6185C339.492 63.2961 339.138 63.0511 338.712 62.8835C338.287 62.7159 337.713 62.5354 336.991 62.342C336.101 62.1099 335.386 61.8778 334.844 61.6457C334.315 61.4136 333.858 61.0526 333.471 60.5626C333.097 60.0597 332.91 59.3893 332.91 58.5511C332.91 57.8162 333.097 57.165 333.471 56.5977C333.845 56.0304 334.367 55.592 335.037 55.2825C335.721 54.9731 336.501 54.8184 337.378 54.8184C338.641 54.8184 339.673 55.1343 340.472 55.7661C341.285 56.3979 341.742 57.236 341.845 58.2804H339.911C339.847 57.7646 339.576 57.3133 339.099 56.9265C338.622 56.5268 337.99 56.3269 337.204 56.3269C336.469 56.3269 335.869 56.5204 335.405 56.9072C334.941 57.2811 334.709 57.8097 334.709 58.4931C334.709 58.9831 334.844 59.3828 335.115 59.6923C335.399 60.0017 335.74 60.2403 336.14 60.4079C336.553 60.5626 337.126 60.7431 337.861 60.9494C338.751 61.1944 339.467 61.4394 340.008 61.6844C340.55 61.9165 341.014 62.2839 341.401 62.7868C341.787 63.2768 341.981 63.9473 341.981 64.7983C341.981 65.4558 341.807 66.0748 341.459 66.655C341.111 67.2352 340.595 67.7058 339.911 68.0669C339.228 68.4279 338.422 68.6084 337.494 68.6084ZM353.971 57.8742V68.473H352.211V66.9064C351.875 67.448 351.405 67.8735 350.799 68.1829C350.206 68.4795 349.548 68.6277 348.826 68.6277C348.001 68.6277 347.259 68.4601 346.602 68.1249C345.944 67.7768 345.422 67.261 345.035 66.5776C344.661 65.8942 344.474 65.0626 344.474 64.0826V57.8742H346.215V63.8506C346.215 64.895 346.479 65.7008 347.008 66.2682C347.536 66.8226 348.259 67.0998 349.174 67.0998C350.115 67.0998 350.857 66.8097 351.398 66.2295C351.94 65.6493 352.211 64.8047 352.211 63.6958V57.8742H353.971ZM356.285 63.1543C356.285 62.0583 356.504 61.1041 356.942 60.2918C357.381 59.4666 357.987 58.8284 358.76 58.3771C359.547 57.9258 360.443 57.7001 361.449 57.7001C362.751 57.7001 363.821 58.016 364.659 58.6479C365.51 59.2797 366.071 60.1564 366.342 61.2782H364.446C364.266 60.6335 363.911 60.1242 363.383 59.7503C362.867 59.3764 362.222 59.1894 361.449 59.1894C360.443 59.1894 359.631 59.5375 359.012 60.2338C358.393 60.9172 358.083 61.8907 358.083 63.1543C358.083 64.4308 358.393 65.4172 359.012 66.1134C359.631 66.8097 360.443 67.1578 361.449 67.1578C362.222 67.1578 362.867 66.9773 363.383 66.6163C363.899 66.2553 364.253 65.7395 364.446 65.069H366.342C366.058 66.1521 365.491 67.0225 364.64 67.68C363.789 68.3247 362.725 68.6471 361.449 68.6471C360.443 68.6471 359.547 68.4214 358.76 67.9702C357.987 67.5189 357.381 66.8806 356.942 66.0554C356.504 65.2302 356.285 64.2632 356.285 63.1543ZM368.033 63.1543C368.033 62.0583 368.252 61.1041 368.69 60.2918C369.129 59.4666 369.735 58.8284 370.508 58.3771C371.295 57.9258 372.191 57.7001 373.197 57.7001C374.499 57.7001 375.569 58.016 376.407 58.6479C377.258 59.2797 377.819 60.1564 378.09 61.2782H376.195C376.014 60.6335 375.659 60.1242 375.131 59.7503C374.615 59.3764 373.97 59.1894 373.197 59.1894C372.191 59.1894 371.379 59.5375 370.76 60.2338C370.141 60.9172 369.831 61.8907 369.831 63.1543C369.831 64.4308 370.141 65.4172 370.76 66.1134C371.379 66.8097 372.191 67.1578 373.197 67.1578C373.97 67.1578 374.615 66.9773 375.131 66.6163C375.647 66.2553 376.001 65.7395 376.195 65.069H378.09C377.806 66.1521 377.239 67.0225 376.388 67.68C375.537 68.3247 374.473 68.6471 373.197 68.6471C372.191 68.6471 371.295 68.4214 370.508 67.9702C369.735 67.5189 369.129 66.8806 368.69 66.0554C368.252 65.2302 368.033 64.2632 368.033 63.1543ZM390.109 62.7675C390.109 63.1027 390.089 63.4573 390.051 63.8312H381.58C381.644 64.8756 381.999 65.6944 382.643 66.2875C383.301 66.8677 384.094 67.1578 385.022 67.1578C385.783 67.1578 386.415 66.9838 386.918 66.6356C387.433 66.2746 387.794 65.7975 388.001 65.2044H389.896C389.612 66.223 389.045 67.0547 388.194 67.6994C387.343 68.3312 386.286 68.6471 385.022 68.6471C384.016 68.6471 383.114 68.4214 382.314 67.9702C381.528 67.5189 380.909 66.8806 380.458 66.0554C380.006 65.2173 379.781 64.2503 379.781 63.1543C379.781 62.0583 380 61.0977 380.438 60.2725C380.877 59.4473 381.489 58.8155 382.276 58.3771C383.075 57.9258 383.991 57.7001 385.022 57.7001C386.028 57.7001 386.918 57.9193 387.691 58.3577C388.465 58.7961 389.058 59.4021 389.471 60.1758C389.896 60.9365 390.109 61.8004 390.109 62.7675ZM388.291 62.4C388.291 61.7295 388.143 61.1557 387.846 60.6786C387.549 60.1887 387.143 59.8212 386.627 59.5762C386.125 59.3183 385.564 59.1894 384.945 59.1894C384.055 59.1894 383.294 59.4731 382.663 60.0404C382.044 60.6077 381.689 61.3943 381.599 62.4H388.291ZM396.184 68.6471C395.372 68.6471 394.643 68.5117 393.999 68.2409C393.354 67.9573 392.845 67.5704 392.471 67.0805C392.097 66.5776 391.89 66.0038 391.852 65.3591H393.67C393.721 65.8878 393.966 66.3197 394.405 66.655C394.856 66.9902 395.443 67.1578 396.165 67.1578C396.835 67.1578 397.364 67.0096 397.751 66.713C398.138 66.4164 398.331 66.0425 398.331 65.5912C398.331 65.127 398.125 64.7854 397.712 64.5662C397.299 64.3341 396.661 64.1084 395.797 63.8892C395.011 63.6829 394.366 63.4766 393.863 63.2703C393.373 63.0511 392.948 62.7352 392.587 62.3226C392.239 61.8971 392.065 61.3427 392.065 60.6593C392.065 60.1178 392.226 59.6213 392.548 59.1701C392.87 58.7188 393.328 58.3642 393.921 58.1063C394.514 57.8355 395.191 57.7001 395.952 57.7001C397.125 57.7001 398.073 57.9967 398.795 58.5898C399.517 59.1829 399.904 59.9953 399.956 61.0268H398.196C398.157 60.4723 397.931 60.0275 397.519 59.6923C397.119 59.357 396.577 59.1894 395.894 59.1894C395.262 59.1894 394.759 59.3248 394.385 59.5956C394.012 59.8663 393.825 60.2209 393.825 60.6593C393.825 61.0074 393.934 61.2976 394.153 61.5296C394.385 61.7488 394.669 61.9294 395.004 62.0712C395.352 62.2001 395.83 62.3484 396.436 62.516C397.196 62.7223 397.815 62.9286 398.292 63.1349C398.769 63.3283 399.176 63.6249 399.511 64.0246C399.859 64.4243 400.039 64.9465 400.052 65.5912C400.052 66.1715 399.891 66.6937 399.569 67.1578C399.246 67.622 398.789 67.9895 398.196 68.2603C397.615 68.5182 396.945 68.6471 396.184 68.6471ZM406.289 68.6471C405.477 68.6471 404.748 68.5117 404.103 68.2409C403.459 67.9573 402.949 67.5704 402.576 67.0805C402.202 66.5776 401.995 66.0038 401.957 65.3591H403.775C403.826 65.8878 404.071 66.3197 404.51 66.655C404.961 66.9902 405.548 67.1578 406.27 67.1578C406.94 67.1578 407.469 67.0096 407.856 66.713C408.242 66.4164 408.436 66.0425 408.436 65.5912C408.436 65.127 408.23 64.7854 407.817 64.5662C407.404 64.3341 406.766 64.1084 405.902 63.8892C405.116 63.6829 404.471 63.4766 403.968 63.2703C403.478 63.0511 403.053 62.7352 402.692 62.3226C402.343 61.8971 402.169 61.3427 402.169 60.6593C402.169 60.1178 402.331 59.6213 402.653 59.1701C402.975 58.7188 403.433 58.3642 404.026 58.1063C404.619 57.8355 405.296 57.7001 406.057 57.7001C407.23 57.7001 408.178 57.9967 408.9 58.5898C409.622 59.1829 410.009 59.9953 410.06 61.0268H408.3C408.262 60.4723 408.036 60.0275 407.624 59.6923C407.224 59.357 406.682 59.1894 405.999 59.1894C405.367 59.1894 404.864 59.3248 404.49 59.5956C404.116 59.8663 403.929 60.2209 403.929 60.6593C403.929 61.0074 404.039 61.2976 404.258 61.5296C404.49 61.7488 404.774 61.9294 405.109 62.0712C405.457 62.2001 405.934 62.3484 406.54 62.516C407.301 62.7223 407.92 62.9286 408.397 63.1349C408.874 63.3283 409.28 63.6249 409.616 64.0246C409.964 64.4243 410.144 64.9465 410.157 65.5912C410.157 66.1715 409.996 66.6937 409.674 67.1578C409.351 67.622 408.894 67.9895 408.3 68.2603C407.72 68.5182 407.05 68.6471 406.289 68.6471Z" fill="#313131"/>
<path d="M192.746 116.967C191.621 108.375 197.55 98.1586 210.185 99.7081C220.902 101.022 223.225 99.3278 227.839 96.9134C230.886 95.3197 235.652 92.4996 239.519 100.564C244.58 111.118 232.71 127.666 222.11 132.741C211.973 137.595 194.787 132.558 192.746 116.967Z" fill="url(#paint0_linear_4081_504481)"/>
<path d="M193.975 101.683L197.259 98.3998C197.378 98.2803 197.378 98.0864 197.259 97.9669C197.139 97.8473 196.945 97.8473 196.826 97.9669L193.542 101.25C193.423 101.37 193.423 101.564 193.542 101.683C193.662 101.803 193.856 101.803 193.975 101.683Z" fill="#E1E4E5"/>
<path d="M192.931 131.668L194.882 129.717C194.953 129.646 194.953 129.531 194.882 129.46C194.811 129.389 194.696 129.389 194.625 129.46L192.674 131.411C192.603 131.482 192.603 131.597 192.674 131.668C192.745 131.739 192.86 131.739 192.931 131.668Z" fill="#E1E4E5"/>
<path d="M241.341 122.59L239.391 124.541C239.32 124.612 239.32 124.727 239.391 124.798C239.462 124.869 239.577 124.869 239.648 124.798L241.599 122.847C241.67 122.776 241.67 122.661 241.599 122.59C241.528 122.519 241.413 122.519 241.341 122.59Z" fill="#E1E4E5"/>
<path d="M194.297 99.3324L195.243 98.3854C195.363 98.2659 195.363 98.072 195.243 97.9525C195.124 97.8329 194.93 97.8329 194.811 97.9525L193.864 98.8995C193.744 99.019 193.744 99.2128 193.864 99.3324C193.983 99.452 194.177 99.452 194.297 99.3324Z" fill="#E1E4E5"/>
<path d="M193.122 130.271L193.685 129.709C193.756 129.638 193.756 129.522 193.685 129.451C193.614 129.38 193.499 129.38 193.428 129.451L192.865 130.014C192.794 130.085 192.794 130.2 192.865 130.271C192.936 130.342 193.051 130.342 193.122 130.271Z" fill="#E1E4E5"/>
<path d="M241.15 123.987L240.588 124.549C240.517 124.62 240.517 124.736 240.588 124.807C240.659 124.878 240.774 124.878 240.845 124.807L241.408 124.244C241.479 124.173 241.479 124.058 241.408 123.987C241.337 123.916 241.221 123.916 241.15 123.987Z" fill="#E1E4E5"/>
<path d="M221.862 135.281C221.338 135.407 220.635 135.677 220.236 136.214C219.838 136.752 220.32 136.911 220.957 136.807C221.594 136.704 222.226 136.345 222.482 135.839C222.738 135.333 222.292 135.179 221.862 135.281ZM224.441 134.28C224.188 134.341 223.848 134.471 223.656 134.731C223.463 134.991 223.696 135.067 224.004 135.018C224.311 134.968 224.617 134.794 224.74 134.55C224.864 134.305 224.648 134.231 224.441 134.28ZM233.855 130.798C234.512 130.347 234.576 129.298 234.576 129.298C234.576 129.298 233.575 128.98 232.918 129.431C232.261 129.882 232.196 130.931 232.196 130.931C232.196 130.931 233.198 131.249 233.855 130.798Z" fill="#E1E4E5"/>
<path d="M232.077 92.3428C232.561 92.3428 232.953 91.9224 232.953 91.4039C232.953 90.8853 232.561 90.465 232.077 90.465C231.593 90.465 231.201 90.8853 231.201 91.4039C231.201 91.9224 231.593 92.3428 232.077 92.3428Z" fill="#E1E4E5"/>
<path d="M244.346 116.63C244.623 116.63 244.847 116.294 244.847 115.879C244.847 115.464 244.623 115.128 244.346 115.128C244.069 115.128 243.845 115.464 243.845 115.879C243.845 116.294 244.069 116.63 244.346 116.63Z" fill="#E1E4E5"/>
<path d="M207.289 116.326L212.796 121.888L224.816 109.745" stroke="white" stroke-width="5.25815" stroke-linecap="round" stroke-linejoin="round"/>
<path d="M221.583 97.0977C218.003 98.0457 214.113 95.0904 214.113 95.0904C214.113 95.0904 216.03 90.5996 219.611 89.6543C223.192 88.7063 227.081 91.6591 227.081 91.6591C227.081 91.6591 225.164 96.1498 221.583 97.0977Z" fill="url(#paint1_linear_4081_504481)"/>
<path d="M246.471 106.171C245.395 107.267 243.381 107.036 243.381 107.036C243.381 107.036 243.115 105.028 244.193 103.933C245.269 102.838 247.281 103.068 247.281 103.068C247.281 103.068 247.548 105.076 246.471 106.171Z" fill="url(#paint2_linear_4081_504481)"/>
<path d="M188.697 114.377C189.7 114.377 190.513 115.246 190.513 116.317C190.513 117.389 189.7 118.258 188.697 118.258C187.695 118.258 186.882 117.389 186.882 116.317C186.882 115.246 187.695 114.377 188.697 114.377Z" fill="#E1E4E5"/>
<path d="M188.322 105.613C188.702 105.613 189.011 105.333 189.011 104.987C189.011 104.642 188.702 104.361 188.322 104.361C187.942 104.361 187.633 104.642 187.633 104.987C187.633 105.333 187.942 105.613 188.322 105.613Z" fill="#E1E4E5"/>
<path d="M206.099 96.8497C206.825 96.8497 207.414 96.2612 207.414 95.5352C207.414 94.8092 206.825 94.2207 206.099 94.2207C205.373 94.2207 204.785 94.8092 204.785 95.5352C204.785 96.2612 205.373 96.8497 206.099 96.8497Z" fill="#E1E4E5"/>
<path d="M243.045 93.7199H243.019C242.862 95.9526 241.216 95.9869 241.216 95.9869C241.216 95.9869 243.032 96.0226 243.032 98.6025C243.032 96.0226 244.847 95.9869 244.847 95.9869C244.847 95.9869 243.201 95.9526 243.045 93.7199Z" fill="#E1E4E5"/>
<rect x="269" y="96.0334" width="200.634" height="9.59983" rx="4.79991" fill="#F1F1F1"/>
<rect x="269" y="118.633" width="139" height="10" rx="5" fill="#F1F1F1"/>
<defs>
<filter id="filter0_ddddd_4081_504481" x="123.895" y="35.1012" width="404.882" height="202.628" filterUnits="userSpaceOnUse" color-interpolation-filters="sRGB">
<feFlood flood-opacity="0" result="BackgroundImageFix"/>
<feColorMatrix in="SourceAlpha" type="matrix" values="0 0 0 0 0 0 0 0 0 0 0 0 0 0 0 0 0 0 127 0" result="hardAlpha"/>
<feOffset dy="1.34733"/>
<feGaussianBlur stdDeviation="1.14523"/>
<feColorMatrix type="matrix" values="0 0 0 0 0.219608 0 0 0 0 0.219608 0 0 0 0 0.219608 0 0 0 0.0240741 0"/>
<feBlend mode="normal" in2="BackgroundImageFix" result="effect1_dropShadow_4081_504481"/>
<feColorMatrix in="SourceAlpha" type="matrix" values="0 0 0 0 0 0 0 0 0 0 0 0 0 0 0 0 0 0 127 0" result="hardAlpha"/>
<feOffset dy="5.92824"/>
<feGaussianBlur stdDeviation="2.3713"/>
<feColorMatrix type="matrix" values="0 0 0 0 0.219608 0 0 0 0 0.219608 0 0 0 0 0.219608 0 0 0 0.0392593 0"/>
<feBlend mode="normal" in2="effect1_dropShadow_4081_504481" result="effect2_dropShadow_4081_504481"/>
<feColorMatrix in="SourceAlpha" type="matrix" values="0 0 0 0 0 0 0 0 0 0 0 0 0 0 0 0 0 0 127 0" result="hardAlpha"/>
<feOffset dy="14.5511"/>
<feGaussianBlur stdDeviation="4.72912"/>
<feColorMatrix type="matrix" values="0 0 0 0 0.219608 0 0 0 0 0.219608 0 0 0 0 0.219608 0 0 0 0.05 0"/>
<feBlend mode="normal" in2="effect2_dropShadow_4081_504481" result="effect3_dropShadow_4081_504481"/>
<feColorMatrix in="SourceAlpha" type="matrix" values="0 0 0 0 0 0 0 0 0 0 0 0 0 0 0 0 0 0 127 0" result="hardAlpha"/>
<feOffset dy="28.0244"/>
<feGaussianBlur stdDeviation="9.26961"/>
<feColorMatrix type="matrix" values="0 0 0 0 0.219608 0 0 0 0 0.219608 0 0 0 0 0.219608 0 0 0 0.0607407 0"/>
<feBlend mode="normal" in2="effect3_dropShadow_4081_504481" result="effect4_dropShadow_4081_504481"/>
<feColorMatrix in="SourceAlpha" type="matrix" values="0 0 0 0 0 0 0 0 0 0 0 0 0 0 0 0 0 0 127 0" result="hardAlpha"/>
<feOffset dy="47.1565"/>
<feGaussianBlur stdDeviation="17.0437"/>
<feColorMatrix type="matrix" values="0 0 0 0 0.219608 0 0 0 0 0.219608 0 0 0 0 0.219608 0 0 0 0.0759259 0"/>
<feBlend mode="normal" in2="effect4_dropShadow_4081_504481" result="effect5_dropShadow_4081_504481"/>
<feBlend mode="normal" in="SourceGraphic" in2="effect5_dropShadow_4081_504481" result="shape"/>
</filter>
<linearGradient id="paint0_linear_4081_504481" x1="192.61" y1="114.817" x2="240.722" y2="114.817" gradientUnits="userSpaceOnUse">
<stop stop-color="#FF0379"/>
<stop offset="1" stop-color="#D437C1"/>
</linearGradient>
<linearGradient id="paint1_linear_4081_504481" x1="208.073" y1="99.5756" x2="239.22" y2="83.8491" gradientUnits="userSpaceOnUse">
<stop stop-color="white"/>
<stop offset="1" stop-color="#EEEEEE"/>
</linearGradient>
<linearGradient id="paint2_linear_4081_504481" x1="242.176" y1="109.914" x2="249.959" y2="97.7134" gradientUnits="userSpaceOnUse">
<stop stop-color="white"/>
<stop offset="1" stop-color="#EEEEEE"/>
</linearGradient>
</defs>
</svg>
