
<svg width="457" height="323" viewBox="0 0 457 323" fill="none" xmlns="http://www.w3.org/2000/svg">
<path d="M435.73 93.6441C435.73 117.773 430.978 141.666 421.744 163.958C412.51 186.25 398.976 206.505 381.914 223.567C364.853 240.628 344.597 254.163 322.305 263.396C300.013 272.63 276.12 277.382 251.992 277.382C227.863 277.382 203.97 272.63 181.678 263.396C159.386 254.163 139.131 240.628 122.069 223.567C105.007 206.505 91.4731 186.25 82.2394 163.958C73.0057 141.666 68.2532 117.773 68.2532 93.644L435.73 93.6441Z" fill="#FFE9E9"/>
<path d="M29.2906 125.794C24.1357 125.774 19.7001 124.506 15.9838 121.988C12.2874 119.471 9.44025 115.824 7.44223 111.049C5.46418 106.274 4.48515 100.529 4.50513 93.8161C4.50513 87.1227 5.49415 81.4183 7.4722 76.703C9.47022 71.9876 12.3174 68.4012 16.0138 65.9436C19.7301 63.4661 24.1557 62.2273 29.2906 62.2273C34.4256 62.2273 38.8412 63.4661 42.5375 65.9436C46.2539 68.4212 49.1111 72.0176 51.1091 76.7329C53.1071 81.4283 54.0961 87.1227 54.0761 93.8161C54.0761 100.549 53.0771 106.304 51.0791 111.079C49.1011 115.854 46.2639 119.501 42.5675 122.018C38.8712 124.536 34.4455 125.794 29.2906 125.794ZM29.2906 115.035C32.8072 115.035 35.6144 113.267 37.7123 109.73C39.8102 106.194 40.8492 100.889 40.8292 93.8161C40.8292 89.1607 40.3497 85.2845 39.3907 82.1876C38.4516 79.0906 37.1129 76.7629 35.3746 75.2045C33.6563 73.646 31.6283 72.8668 29.2906 72.8668C25.7941 72.8668 22.9969 74.615 20.8989 78.1116C18.801 81.6081 17.7421 86.843 17.7221 93.8161C17.7221 98.5314 18.1916 102.468 19.1307 105.624C20.0897 108.761 21.4384 111.119 23.1767 112.697C24.915 114.256 26.9529 115.035 29.2906 115.035ZM85.7473 125.285C81.5115 125.285 77.7353 124.506 74.4185 122.947C71.1218 121.389 68.5044 119.241 66.5663 116.504C64.6282 113.766 63.6192 110.629 63.5393 107.093H76.1269C76.2667 109.471 77.2657 111.399 79.1239 112.877C80.9821 114.356 83.1899 115.095 85.7473 115.095C87.7853 115.095 89.5836 114.645 91.142 113.746C92.7205 112.827 93.9492 111.559 94.8284 109.94C95.7275 108.302 96.177 106.424 96.177 104.306C96.177 102.148 95.7175 100.25 94.7984 98.6113C93.8993 96.9729 92.6505 95.6942 91.0521 94.7751C89.4537 93.856 87.6255 93.3865 85.5675 93.3665C83.7693 93.3665 82.021 93.7361 80.3227 94.4754C78.6444 95.2147 77.3357 96.2237 76.3966 97.5024L64.858 95.4345L67.7651 63.0665H105.288V73.676H78.4645L76.8761 89.0508H77.2358C78.3147 87.5323 79.9431 86.2735 82.1209 85.2745C84.2988 84.2755 86.7364 83.776 89.4337 83.776C93.1301 83.776 96.4268 84.6451 99.3239 86.3834C102.221 88.1217 104.509 90.5093 106.187 93.5463C107.865 96.5634 108.695 100.04 108.675 103.976C108.695 108.112 107.736 111.788 105.798 115.005C103.879 118.202 101.192 120.719 97.7355 122.558C94.2989 124.376 90.3028 125.285 85.7473 125.285Z" fill="#D7D7D7"/>
<g filter="url(#filter0_ddddd_4081_504368)">
<rect x="146" y="1" width="286" height="255" fill="white"/>
<rect x="146.265" y="1.26482" width="285.47" height="254.47" stroke="#F1F1F1" stroke-width="0.529639"/>
</g>
<path d="M184.841 54.6791V37.9232H195.346V40.0995H187.369V45.2048H194.798V47.3729H187.369V52.5028H195.444V54.6791H184.841ZM200.742 47.2175V54.6791H198.296V42.1122H200.644V44.1576H200.8C201.089 43.4921 201.542 42.9576 202.158 42.554C202.78 42.1504 203.562 41.9486 204.506 41.9486C205.362 41.9486 206.112 42.1285 206.756 42.4885C207.4 42.8431 207.899 43.3721 208.253 44.0758C208.608 44.7794 208.785 45.6494 208.785 46.6857V54.6791H206.339V46.9802C206.339 46.0693 206.101 45.3575 205.627 44.8448C205.152 44.3267 204.501 44.0676 203.671 44.0676C203.104 44.0676 202.6 44.1903 202.158 44.4358C201.722 44.6812 201.375 45.0412 201.119 45.5157C200.868 45.9848 200.742 46.5521 200.742 47.2175ZM217.702 42.1122V44.0758H210.837V42.1122H217.702ZM212.678 39.1014H215.124V50.9892C215.124 51.4637 215.195 51.821 215.337 52.061C215.479 52.2955 215.662 52.4564 215.885 52.5437C216.114 52.6255 216.363 52.6664 216.63 52.6664C216.826 52.6664 216.998 52.6528 217.145 52.6255C217.292 52.5982 217.407 52.5764 217.489 52.5601L217.931 54.5809C217.789 54.6354 217.587 54.69 217.325 54.7445C217.063 54.8045 216.736 54.8373 216.343 54.8427C215.7 54.8536 215.1 54.7391 214.543 54.4991C213.987 54.2591 213.537 53.8882 213.194 53.3864C212.85 52.8846 212.678 52.2546 212.678 51.4964V39.1014ZM225.458 54.9327C224.22 54.9327 223.154 54.6682 222.259 54.1391C221.37 53.6046 220.683 52.8546 220.198 51.8892C219.718 50.9183 219.478 49.781 219.478 48.4774C219.478 47.1902 219.718 46.0557 220.198 45.0739C220.683 44.0921 221.359 43.3258 222.227 42.7749C223.099 42.224 224.119 41.9486 225.287 41.9486C225.996 41.9486 226.683 42.0658 227.348 42.3004C228.014 42.5349 228.611 42.9031 229.14 43.4049C229.669 43.9067 230.086 44.5585 230.392 45.3603C230.697 46.1566 230.85 47.1248 230.85 48.2647V49.132H220.86V47.2993H228.453C228.453 46.6557 228.322 46.0857 228.06 45.5894C227.798 45.0875 227.43 44.6921 226.956 44.403C226.487 44.1139 225.936 43.9694 225.303 43.9694C224.616 43.9694 224.016 44.1385 223.503 44.4767C222.996 44.8094 222.603 45.2457 222.325 45.7857C222.052 46.3202 221.916 46.9011 221.916 47.5284V48.9602C221.916 49.8001 222.063 50.5147 222.358 51.1037C222.658 51.6928 223.075 52.1428 223.609 52.4537C224.144 52.7591 224.768 52.9119 225.483 52.9119C225.947 52.9119 226.369 52.8464 226.751 52.7155C227.133 52.5791 227.463 52.3773 227.741 52.1101C228.019 51.8428 228.232 51.5128 228.379 51.1201L230.695 51.5374C230.509 52.2192 230.176 52.8164 229.696 53.3291C229.222 53.8364 228.625 54.2318 227.905 54.5154C227.19 54.7936 226.375 54.9327 225.458 54.9327ZM233.334 54.6791V42.1122H235.698V44.1085H235.829C236.058 43.4321 236.462 42.9003 237.04 42.5131C237.624 42.1204 238.284 41.924 239.02 41.924C239.173 41.924 239.353 41.9295 239.56 41.9404C239.773 41.9513 239.939 41.9649 240.059 41.9813V44.3212C239.961 44.2939 239.786 44.2639 239.536 44.2312C239.285 44.193 239.034 44.1739 238.783 44.1739C238.205 44.1739 237.689 44.2967 237.237 44.5421C236.789 44.7821 236.435 45.1175 236.173 45.5484C235.911 45.9739 235.78 46.4593 235.78 47.0048V54.6791H233.334ZM248.009 54.6791V37.9232H253.982C255.28 37.9232 256.357 38.1469 257.213 38.5941C258.075 39.0414 258.719 39.6604 259.144 40.4513C259.57 41.2368 259.782 42.1449 259.782 43.1758C259.782 44.2012 259.567 45.1039 259.136 45.8839C258.711 46.6584 258.067 47.2611 257.205 47.692C256.349 48.1229 255.272 48.3384 253.973 48.3384H249.449V46.1621H253.744C254.562 46.1621 255.228 46.0448 255.741 45.8103C256.259 45.5757 256.638 45.2348 256.878 44.7876C257.118 44.3403 257.238 43.803 257.238 43.1758C257.238 42.5431 257.115 41.9949 256.87 41.5313C256.63 41.0677 256.251 40.7131 255.732 40.4677C255.22 40.2168 254.546 40.0913 253.712 40.0913H250.537V54.6791H248.009ZM256.281 47.1193L260.42 54.6791H257.541L253.483 47.1193H256.281ZM267.691 54.9327C266.452 54.9327 265.386 54.6682 264.492 54.1391C263.602 53.6046 262.915 52.8546 262.43 51.8892C261.95 50.9183 261.71 49.781 261.71 48.4774C261.71 47.1902 261.95 46.0557 262.43 45.0739C262.915 44.0921 263.592 43.3258 264.459 42.7749C265.332 42.224 266.351 41.9486 267.519 41.9486C268.228 41.9486 268.915 42.0658 269.58 42.3004C270.246 42.5349 270.843 42.9031 271.372 43.4049C271.901 43.9067 272.319 44.5585 272.624 45.3603C272.929 46.1566 273.082 47.1248 273.082 48.2647V49.132H263.092V47.2993H270.685C270.685 46.6557 270.554 46.0857 270.292 45.5894C270.03 45.0875 269.662 44.6921 269.188 44.403C268.719 44.1139 268.168 43.9694 267.535 43.9694C266.848 43.9694 266.248 44.1385 265.735 44.4767C265.228 44.8094 264.835 45.2457 264.557 45.7857C264.284 46.3202 264.148 46.9011 264.148 47.5284V48.9602C264.148 49.8001 264.295 50.5147 264.59 51.1037C264.89 51.6928 265.307 52.1428 265.842 52.4537C266.376 52.7591 267.001 52.9119 267.715 52.9119C268.179 52.9119 268.601 52.8464 268.983 52.7155C269.365 52.5791 269.695 52.3773 269.973 52.1101C270.251 51.8428 270.464 51.5128 270.611 51.1201L272.927 51.5374C272.741 52.2192 272.409 52.8164 271.929 53.3291C271.454 53.8364 270.857 54.2318 270.137 54.5154C269.422 54.7936 268.607 54.9327 267.691 54.9327ZM284.05 59.3917V52.7237H283.903C283.756 52.9909 283.543 53.2964 283.265 53.64C282.992 53.9836 282.616 54.2836 282.136 54.54C281.656 54.7963 281.034 54.9245 280.27 54.9245C279.256 54.9245 278.35 54.6654 277.554 54.1473C276.763 53.6237 276.141 52.8791 275.689 51.9137C275.241 50.9428 275.018 49.7783 275.018 48.4202C275.018 47.062 275.244 45.9003 275.697 44.9348C276.155 43.9694 276.782 43.2303 277.579 42.7176C278.375 42.2049 279.278 41.9486 280.287 41.9486C281.067 41.9486 281.694 42.0795 282.169 42.3413C282.649 42.5976 283.019 42.8976 283.281 43.2412C283.549 43.5849 283.756 43.8876 283.903 44.1494H284.108V42.1122H286.497V59.3917H284.05ZM280.81 52.8382C281.514 52.8382 282.109 52.6528 282.594 52.2819C283.085 51.9055 283.456 51.3846 283.707 50.7192C283.963 50.0538 284.091 49.2792 284.091 48.3956C284.091 47.5229 283.966 46.7593 283.715 46.1048C283.464 45.4503 283.096 44.9403 282.61 44.5748C282.125 44.2094 281.525 44.0267 280.81 44.0267C280.074 44.0267 279.46 44.2176 278.97 44.5994C278.479 44.9812 278.108 45.5021 277.857 46.1621C277.611 46.822 277.489 47.5666 277.489 48.3956C277.489 49.2356 277.614 49.991 277.865 50.6619C278.116 51.3328 278.487 51.8646 278.978 52.2573C279.474 52.6446 280.085 52.8382 280.81 52.8382ZM297.516 49.4674V42.1122H299.97V54.6791H297.565V52.5028H297.434C297.145 53.1737 296.681 53.7327 296.043 54.18C295.41 54.6218 294.622 54.8427 293.679 54.8427C292.871 54.8427 292.157 54.6654 291.535 54.3109C290.919 53.9509 290.433 53.4191 290.079 52.7155C289.73 52.0119 289.555 51.1419 289.555 50.1056V42.1122H292.001V49.811C292.001 50.6674 292.239 51.3492 292.713 51.8564C293.188 52.3637 293.804 52.6173 294.562 52.6173C295.02 52.6173 295.476 52.5028 295.929 52.2737C296.387 52.0446 296.766 51.6983 297.066 51.2346C297.371 50.771 297.521 50.1819 297.516 49.4674ZM303.027 54.6791V42.1122H305.473V54.6791H303.027ZM304.262 40.1732C303.837 40.1732 303.471 40.0313 303.166 39.7477C302.866 39.4586 302.716 39.115 302.716 38.7168C302.716 38.3132 302.866 37.9696 303.166 37.686C303.471 37.3969 303.837 37.2523 304.262 37.2523C304.688 37.2523 305.05 37.3969 305.35 37.686C305.656 37.9696 305.809 38.3132 305.809 38.7168C305.809 39.115 305.656 39.4586 305.35 39.7477C305.05 40.0313 304.688 40.1732 304.262 40.1732ZM308.534 54.6791V42.1122H310.898V44.1085H311.029C311.258 43.4321 311.662 42.9003 312.24 42.5131C312.824 42.1204 313.484 41.924 314.22 41.924C314.373 41.924 314.553 41.9295 314.76 41.9404C314.973 41.9513 315.139 41.9649 315.259 41.9813V44.3212C315.161 44.2939 314.986 44.2639 314.735 44.2312C314.485 44.193 314.234 44.1739 313.983 44.1739C313.405 44.1739 312.889 44.2967 312.436 44.5421C311.989 44.7821 311.635 45.1175 311.373 45.5484C311.111 45.9739 310.98 46.4593 310.98 47.0048V54.6791H308.534ZM322.112 54.9327C320.874 54.9327 319.807 54.6682 318.913 54.1391C318.024 53.6046 317.337 52.8546 316.851 51.8892C316.371 50.9183 316.131 49.781 316.131 48.4774C316.131 47.1902 316.371 46.0557 316.851 45.0739C317.337 44.0921 318.013 43.3258 318.88 42.7749C319.753 42.224 320.773 41.9486 321.94 41.9486C322.649 41.9486 323.336 42.0658 324.002 42.3004C324.667 42.5349 325.265 42.9031 325.794 43.4049C326.323 43.9067 326.74 44.5585 327.045 45.3603C327.351 46.1566 327.504 47.1248 327.504 48.2647V49.132H317.514V47.2993H325.106C325.106 46.6557 324.975 46.0857 324.714 45.5894C324.452 45.0875 324.084 44.6921 323.609 44.403C323.14 44.1139 322.589 43.9694 321.956 43.9694C321.269 43.9694 320.669 44.1385 320.156 44.4767C319.649 44.8094 319.257 45.2457 318.978 45.7857C318.706 46.3202 318.569 46.9011 318.569 47.5284V48.9602C318.569 49.8001 318.717 50.5147 319.011 51.1037C319.311 51.6928 319.728 52.1428 320.263 52.4537C320.797 52.7591 321.422 52.9119 322.136 52.9119C322.6 52.9119 323.023 52.8464 323.405 52.7155C323.786 52.5791 324.116 52.3773 324.395 52.1101C324.673 51.8428 324.885 51.5128 325.033 51.1201L327.348 51.5374C327.163 52.2192 326.83 52.8164 326.35 53.3291C325.875 53.8364 325.278 54.2318 324.558 54.5154C323.844 54.7936 323.028 54.9327 322.112 54.9327ZM329.987 54.6791V42.1122H332.336V44.1576H332.491C332.753 43.4649 333.181 42.9249 333.775 42.5376C334.37 42.1449 335.082 41.9486 335.911 41.9486C336.751 41.9486 337.454 42.1449 338.022 42.5376C338.594 42.9303 339.017 43.4703 339.29 44.1576H339.421C339.721 43.4867 340.198 42.9522 340.853 42.554C341.507 42.1504 342.287 41.9486 343.192 41.9486C344.332 41.9486 345.262 42.3058 345.982 43.0203C346.708 43.7349 347.071 44.8121 347.071 46.2521V54.6791H344.624V46.4811C344.624 45.6303 344.392 45.0139 343.929 44.6321C343.465 44.2503 342.912 44.0594 342.268 44.0594C341.472 44.0594 340.853 44.3048 340.411 44.7957C339.969 45.2812 339.748 45.9057 339.748 46.6693V54.6791H337.31V46.3257C337.31 45.6439 337.097 45.0957 336.672 44.6812C336.246 44.2667 335.693 44.0594 335.011 44.0594C334.547 44.0594 334.119 44.1821 333.726 44.4276C333.339 44.6676 333.025 45.003 332.785 45.4339C332.551 45.8648 332.434 46.3639 332.434 46.9311V54.6791H329.987ZM355.535 54.9327C354.297 54.9327 353.231 54.6682 352.336 54.1391C351.447 53.6046 350.76 52.8546 350.274 51.8892C349.794 50.9183 349.554 49.781 349.554 48.4774C349.554 47.1902 349.794 46.0557 350.274 45.0739C350.76 44.0921 351.436 43.3258 352.303 42.7749C353.176 42.224 354.196 41.9486 355.363 41.9486C356.072 41.9486 356.76 42.0658 357.425 42.3004C358.09 42.5349 358.688 42.9031 359.217 43.4049C359.746 43.9067 360.163 44.5585 360.469 45.3603C360.774 46.1566 360.927 47.1248 360.927 48.2647V49.132H350.937V47.2993H358.53C358.53 46.6557 358.399 46.0857 358.137 45.5894C357.875 45.0875 357.507 44.6921 357.032 44.403C356.563 44.1139 356.012 43.9694 355.38 43.9694C354.692 43.9694 354.092 44.1385 353.58 44.4767C353.072 44.8094 352.68 45.2457 352.402 45.7857C352.129 46.3202 351.992 46.9011 351.992 47.5284V48.9602C351.992 49.8001 352.14 50.5147 352.434 51.1037C352.734 51.6928 353.152 52.1428 353.686 52.4537C354.221 52.7591 354.845 52.9119 355.56 52.9119C356.023 52.9119 356.446 52.8464 356.828 52.7155C357.21 52.5791 357.54 52.3773 357.818 52.1101C358.096 51.8428 358.309 51.5128 358.456 51.1201L360.771 51.5374C360.586 52.2192 360.253 52.8164 359.773 53.3291C359.299 53.8364 358.701 54.2318 357.981 54.5154C357.267 54.7936 356.451 54.9327 355.535 54.9327ZM365.857 47.2175V54.6791H363.411V42.1122H365.759V44.1576H365.914C366.203 43.4921 366.656 42.9576 367.272 42.554C367.894 42.1504 368.677 41.9486 369.62 41.9486C370.477 41.9486 371.227 42.1285 371.87 42.4885C372.514 42.8431 373.013 43.3721 373.368 44.0758C373.722 44.7794 373.899 45.6494 373.899 46.6857V54.6791H371.453V46.9802C371.453 46.0693 371.216 45.3575 370.741 44.8448C370.267 44.3267 369.615 44.0676 368.786 44.0676C368.219 44.0676 367.714 44.1903 367.272 44.4358C366.836 44.6812 366.49 45.0412 366.233 45.5157C365.982 45.9848 365.857 46.5521 365.857 47.2175ZM382.816 42.1122V44.0758H375.952V42.1122H382.816ZM377.792 39.1014H380.239V50.9892C380.239 51.4637 380.31 51.821 380.451 52.061C380.593 52.2955 380.776 52.4564 381 52.5437C381.229 52.6255 381.477 52.6664 381.744 52.6664C381.941 52.6664 382.112 52.6528 382.26 52.6255C382.407 52.5982 382.521 52.5764 382.603 52.5601L383.045 54.5809C382.903 54.6354 382.701 54.69 382.44 54.7445C382.178 54.8045 381.851 54.8373 381.458 54.8427C380.814 54.8536 380.214 54.7391 379.658 54.4991C379.102 54.2591 378.652 53.8882 378.308 53.3864C377.964 52.8846 377.792 52.2546 377.792 51.4964V39.1014ZM394.506 45.1803L392.289 45.573C392.196 45.2894 392.049 45.0194 391.847 44.763C391.651 44.5067 391.383 44.2967 391.045 44.133C390.707 43.9694 390.284 43.8876 389.777 43.8876C389.084 43.8876 388.506 44.043 388.043 44.3539C387.579 44.6594 387.347 45.0548 387.347 45.5403C387.347 45.9603 387.503 46.2984 387.814 46.5548C388.124 46.8111 388.626 47.0211 389.319 47.1848L391.315 47.6429C392.472 47.9102 393.333 48.322 393.901 48.8783C394.468 49.4347 394.752 50.1574 394.752 51.0465C394.752 51.7992 394.533 52.4701 394.097 53.0591C393.666 53.6427 393.063 54.1009 392.289 54.4336C391.52 54.7663 390.628 54.9327 389.614 54.9327C388.206 54.9327 387.058 54.6327 386.169 54.0327C385.28 53.4273 384.735 52.5682 384.533 51.4555L386.897 51.0955C387.045 51.7119 387.347 52.1782 387.805 52.4946C388.264 52.8055 388.861 52.9609 389.597 52.9609C390.399 52.9609 391.04 52.7946 391.52 52.4619C392 52.1237 392.24 51.7119 392.24 51.2265C392.24 50.8337 392.093 50.5037 391.798 50.2365C391.509 49.9692 391.064 49.7674 390.464 49.631L388.337 49.1647C387.164 48.8974 386.297 48.472 385.735 47.8884C385.179 47.3048 384.901 46.5657 384.901 45.6712C384.901 44.9294 385.108 44.2803 385.523 43.724C385.937 43.1676 386.51 42.734 387.241 42.4231C387.972 42.1067 388.809 41.9486 389.753 41.9486C391.111 41.9486 392.18 42.2431 392.96 42.8322C393.74 43.4158 394.255 44.1985 394.506 45.1803Z" fill="#212529"/>
<rect x="178" y="86.4375" width="221.753" height="9.59962" rx="4.79981" fill="#F1F1F1"/>
<rect x="178" y="123" width="200.634" height="9.59983" rx="4.79991" fill="#F1F1F1"/>
<rect x="178" y="159" width="194.874" height="9.59962" rx="4.79981" fill="#F1F1F1"/>
<g filter="url(#filter1_dddddd_4081_504368)">
<path d="M231 196H348V227H231V196Z" fill="url(#paint0_linear_4081_504368)"/>
</g>
<path d="M272.813 209.439C272.762 208.986 272.552 208.635 272.182 208.386C271.812 208.134 271.346 208.008 270.784 208.008C270.382 208.008 270.035 208.072 269.741 208.199C269.448 208.324 269.22 208.496 269.057 208.716C268.897 208.933 268.818 209.18 268.818 209.458C268.818 209.691 268.872 209.892 268.98 210.061C269.092 210.23 269.237 210.372 269.416 210.487C269.598 210.599 269.792 210.693 270 210.769C270.207 210.843 270.406 210.903 270.598 210.951L271.555 211.2C271.867 211.276 272.188 211.38 272.517 211.511C272.845 211.642 273.15 211.814 273.431 212.028C273.711 212.242 273.938 212.506 274.11 212.822C274.286 213.138 274.373 213.516 274.373 213.956C274.373 214.511 274.23 215.004 273.943 215.435C273.659 215.866 273.246 216.205 272.703 216.454C272.164 216.703 271.512 216.827 270.746 216.827C270.012 216.827 269.377 216.711 268.842 216.478C268.306 216.245 267.886 215.915 267.583 215.488C267.28 215.057 267.112 214.546 267.081 213.956H268.564C268.593 214.31 268.708 214.605 268.909 214.842C269.113 215.074 269.373 215.248 269.689 215.363C270.008 215.475 270.357 215.531 270.737 215.531C271.154 215.531 271.526 215.465 271.852 215.334C272.18 215.2 272.439 215.015 272.627 214.779C272.815 214.54 272.909 214.261 272.909 213.942C272.909 213.652 272.826 213.414 272.66 213.229C272.498 213.044 272.276 212.891 271.995 212.77C271.718 212.648 271.403 212.541 271.052 212.449L269.894 212.133C269.11 211.919 268.487 211.605 268.028 211.19C267.572 210.776 267.344 210.227 267.344 209.544C267.344 208.979 267.497 208.487 267.803 208.065C268.109 207.644 268.524 207.317 269.047 207.084C269.571 206.848 270.161 206.73 270.818 206.73C271.481 206.73 272.067 206.847 272.574 207.08C273.085 207.313 273.487 207.633 273.78 208.042C274.074 208.447 274.227 208.912 274.239 209.439H272.813ZM280.682 213.617V209.314H282.117V216.665H280.71V215.392H280.634C280.465 215.784 280.194 216.111 279.82 216.373C279.45 216.631 278.989 216.761 278.437 216.761C277.965 216.761 277.547 216.657 277.184 216.449C276.823 216.239 276.539 215.928 276.332 215.516C276.128 215.105 276.026 214.596 276.026 213.99V209.314H277.456V213.817C277.456 214.318 277.595 214.717 277.873 215.014C278.15 215.311 278.511 215.459 278.954 215.459C279.222 215.459 279.489 215.392 279.753 215.258C280.021 215.124 280.243 214.921 280.419 214.65C280.597 214.379 280.685 214.034 280.682 213.617ZM284.155 216.665V206.864H285.586V210.506H285.672C285.755 210.353 285.874 210.176 286.031 209.975C286.187 209.774 286.404 209.598 286.681 209.448C286.959 209.295 287.326 209.219 287.782 209.219C288.375 209.219 288.905 209.369 289.371 209.669C289.837 209.968 290.202 210.401 290.467 210.965C290.735 211.53 290.869 212.21 290.869 213.004C290.869 213.798 290.736 214.479 290.471 215.047C290.207 215.612 289.843 216.047 289.38 216.354C288.918 216.657 288.39 216.808 287.796 216.808C287.35 216.808 286.984 216.733 286.701 216.583C286.42 216.434 286.2 216.258 286.04 216.057C285.881 215.856 285.758 215.677 285.672 215.521H285.552V216.665H284.155ZM285.557 212.99C285.557 213.506 285.632 213.959 285.782 214.349C285.932 214.738 286.149 215.043 286.433 215.263C286.717 215.48 287.064 215.588 287.476 215.588C287.903 215.588 288.261 215.475 288.548 215.248C288.835 215.019 289.052 214.708 289.199 214.315C289.348 213.923 289.423 213.481 289.423 212.99C289.423 212.505 289.35 212.069 289.203 211.683C289.06 211.297 288.843 210.993 288.552 210.769C288.265 210.546 287.906 210.434 287.476 210.434C287.061 210.434 286.71 210.541 286.423 210.755C286.139 210.969 285.924 211.267 285.777 211.65C285.63 212.033 285.557 212.479 285.557 212.99ZM292.475 216.665V209.314H293.849V210.511H293.94C294.093 210.106 294.343 209.79 294.691 209.563C295.039 209.334 295.455 209.219 295.94 209.219C296.431 209.219 296.843 209.334 297.175 209.563C297.51 209.793 297.757 210.109 297.916 210.511H297.993C298.168 210.118 298.447 209.806 298.83 209.573C299.213 209.337 299.669 209.219 300.199 209.219C300.866 209.219 301.41 209.428 301.831 209.846C302.255 210.264 302.467 210.894 302.467 211.736V216.665H301.036V211.87C301.036 211.372 300.901 211.012 300.63 210.788C300.358 210.565 300.035 210.453 299.658 210.453C299.192 210.453 298.83 210.597 298.572 210.884C298.313 211.168 298.184 211.533 298.184 211.98V216.665H296.758V211.779C296.758 211.38 296.634 211.06 296.385 210.817C296.136 210.575 295.812 210.453 295.414 210.453C295.142 210.453 294.892 210.525 294.662 210.669C294.436 210.809 294.252 211.005 294.112 211.257C293.975 211.509 293.906 211.801 293.906 212.133V216.665H292.475ZM304.385 216.665V209.314H305.816V216.665H304.385ZM305.107 208.18C304.859 208.18 304.645 208.097 304.466 207.931C304.291 207.762 304.203 207.561 304.203 207.329C304.203 207.092 304.291 206.891 304.466 206.726C304.645 206.556 304.859 206.472 305.107 206.472C305.356 206.472 305.568 206.556 305.744 206.726C305.923 206.891 306.012 207.092 306.012 207.329C306.012 207.561 305.923 207.762 305.744 207.931C305.568 208.097 305.356 208.18 305.107 208.18ZM311.172 209.314V210.463H307.157V209.314H311.172ZM308.234 207.553H309.664V214.507C309.664 214.784 309.706 214.993 309.789 215.133C309.872 215.271 309.979 215.365 310.109 215.416C310.243 215.464 310.389 215.488 310.545 215.488C310.66 215.488 310.76 215.48 310.846 215.464C310.932 215.448 310.999 215.435 311.047 215.425L311.306 216.607C311.223 216.639 311.105 216.671 310.952 216.703C310.799 216.738 310.607 216.757 310.377 216.761C310.001 216.767 309.65 216.7 309.325 216.56C308.999 216.419 308.736 216.202 308.535 215.909C308.334 215.615 308.234 215.247 308.234 214.803V207.553Z" fill="#FAFAFA"/>
<defs>
<filter id="filter0_ddddd_4081_504368" x="121.185" y="0.313431" width="335.629" height="314.83" filterUnits="userSpaceOnUse" color-interpolation-filters="sRGB">
<feFlood flood-opacity="0" result="BackgroundImageFix"/>
<feColorMatrix in="SourceAlpha" type="matrix" values="0 0 0 0 0 0 0 0 0 0 0 0 0 0 0 0 0 0 127 0" result="hardAlpha"/>
<feOffset dy="0.980813"/>
<feGaussianBlur stdDeviation="0.833691"/>
<feColorMatrix type="matrix" values="0 0 0 0 0.219608 0 0 0 0 0.219608 0 0 0 0 0.219608 0 0 0 0.0240741 0"/>
<feBlend mode="normal" in2="BackgroundImageFix" result="effect1_dropShadow_4081_504368"/>
<feColorMatrix in="SourceAlpha" type="matrix" values="0 0 0 0 0 0 0 0 0 0 0 0 0 0 0 0 0 0 127 0" result="hardAlpha"/>
<feOffset dy="4.31558"/>
<feGaussianBlur stdDeviation="1.72623"/>
<feColorMatrix type="matrix" values="0 0 0 0 0.219608 0 0 0 0 0.219608 0 0 0 0 0.219608 0 0 0 0.0392593 0"/>
<feBlend mode="normal" in2="effect1_dropShadow_4081_504368" result="effect2_dropShadow_4081_504368"/>
<feColorMatrix in="SourceAlpha" type="matrix" values="0 0 0 0 0 0 0 0 0 0 0 0 0 0 0 0 0 0 127 0" result="hardAlpha"/>
<feOffset dy="10.5928"/>
<feGaussianBlur stdDeviation="3.44265"/>
<feColorMatrix type="matrix" values="0 0 0 0 0.219608 0 0 0 0 0.219608 0 0 0 0 0.219608 0 0 0 0.05 0"/>
<feBlend mode="normal" in2="effect2_dropShadow_4081_504368" result="effect3_dropShadow_4081_504368"/>
<feColorMatrix in="SourceAlpha" type="matrix" values="0 0 0 0 0 0 0 0 0 0 0 0 0 0 0 0 0 0 127 0" result="hardAlpha"/>
<feOffset dy="20.4009"/>
<feGaussianBlur stdDeviation="6.74799"/>
<feColorMatrix type="matrix" values="0 0 0 0 0.219608 0 0 0 0 0.219608 0 0 0 0 0.219608 0 0 0 0.0607407 0"/>
<feBlend mode="normal" in2="effect3_dropShadow_4081_504368" result="effect4_dropShadow_4081_504368"/>
<feColorMatrix in="SourceAlpha" type="matrix" values="0 0 0 0 0 0 0 0 0 0 0 0 0 0 0 0 0 0 127 0" result="hardAlpha"/>
<feOffset dy="34.3285"/>
<feGaussianBlur stdDeviation="12.4073"/>
<feColorMatrix type="matrix" values="0 0 0 0 0.219608 0 0 0 0 0.219608 0 0 0 0 0.219608 0 0 0 0.0759259 0"/>
<feBlend mode="normal" in2="effect4_dropShadow_4081_504368" result="effect5_dropShadow_4081_504368"/>
<feBlend mode="normal" in="SourceGraphic" in2="effect5_dropShadow_4081_504368" result="shape"/>
</filter>
<filter id="filter1_dddddd_4081_504368" x="188.629" y="195.313" width="201.742" height="127.022" filterUnits="userSpaceOnUse" color-interpolation-filters="sRGB">
<feFlood flood-opacity="0" result="BackgroundImageFix"/>
<feColorMatrix in="SourceAlpha" type="matrix" values="0 0 0 0 0 0 0 0 0 0 0 0 0 0 0 0 0 0 127 0" result="hardAlpha"/>
<feOffset dy="0.980813"/>
<feGaussianBlur stdDeviation="0.833691"/>
<feColorMatrix type="matrix" values="0 0 0 0 0.219608 0 0 0 0 0.219608 0 0 0 0 0.219608 0 0 0 0.0240741 0"/>
<feBlend mode="normal" in2="BackgroundImageFix" result="effect1_dropShadow_4081_504368"/>
<feColorMatrix in="SourceAlpha" type="matrix" values="0 0 0 0 0 0 0 0 0 0 0 0 0 0 0 0 0 0 127 0" result="hardAlpha"/>
<feOffset dy="4.31558"/>
<feGaussianBlur stdDeviation="1.72623"/>
<feColorMatrix type="matrix" values="0 0 0 0 0.219608 0 0 0 0 0.219608 0 0 0 0 0.219608 0 0 0 0.0392593 0"/>
<feBlend mode="normal" in2="effect1_dropShadow_4081_504368" result="effect2_dropShadow_4081_504368"/>
<feColorMatrix in="SourceAlpha" type="matrix" values="0 0 0 0 0 0 0 0 0 0 0 0 0 0 0 0 0 0 127 0" result="hardAlpha"/>
<feOffset dy="10.5928"/>
<feGaussianBlur stdDeviation="3.44265"/>
<feColorMatrix type="matrix" values="0 0 0 0 0.219608 0 0 0 0 0.219608 0 0 0 0 0.219608 0 0 0 0.05 0"/>
<feBlend mode="normal" in2="effect2_dropShadow_4081_504368" result="effect3_dropShadow_4081_504368"/>
<feColorMatrix in="SourceAlpha" type="matrix" values="0 0 0 0 0 0 0 0 0 0 0 0 0 0 0 0 0 0 127 0" result="hardAlpha"/>
<feOffset dy="20.4009"/>
<feGaussianBlur stdDeviation="6.74799"/>
<feColorMatrix type="matrix" values="0 0 0 0 0.219608 0 0 0 0 0.219608 0 0 0 0 0.219608 0 0 0 0.0607407 0"/>
<feBlend mode="normal" in2="effect3_dropShadow_4081_504368" result="effect4_dropShadow_4081_504368"/>
<feColorMatrix in="SourceAlpha" type="matrix" values="0 0 0 0 0 0 0 0 0 0 0 0 0 0 0 0 0 0 127 0" result="hardAlpha"/>
<feOffset dy="34.3285"/>
<feGaussianBlur stdDeviation="12.4073"/>
<feColorMatrix type="matrix" values="0 0 0 0 0.219608 0 0 0 0 0.219608 0 0 0 0 0.219608 0 0 0 0.0759259 0"/>
<feBlend mode="normal" in2="effect4_dropShadow_4081_504368" result="effect5_dropShadow_4081_504368"/>
<feColorMatrix in="SourceAlpha" type="matrix" values="0 0 0 0 0 0 0 0 0 0 0 0 0 0 0 0 0 0 127 0" result="hardAlpha"/>
<feOffset dy="52.9639"/>
<feGaussianBlur stdDeviation="21.1856"/>
<feColorMatrix type="matrix" values="0 0 0 0 0.219608 0 0 0 0 0.219608 0 0 0 0 0.219608 0 0 0 0.1 0"/>
<feBlend mode="normal" in2="effect5_dropShadow_4081_504368" result="effect6_dropShadow_4081_504368"/>
<feBlend mode="normal" in="SourceGraphic" in2="effect6_dropShadow_4081_504368" result="shape"/>
</filter>
<linearGradient id="paint0_linear_4081_504368" x1="230.997" y1="211.502" x2="347.998" y2="211.502" gradientUnits="userSpaceOnUse">
<stop stop-color="#FF0379"/>
<stop offset="1" stop-color="#D437C1"/>
</linearGradient>
</defs>
</svg>
