<!-- <svg width="454" height="396" viewBox="0 0 454 396" fill="none" xmlns="http://www.w3.org/2000/svg"> -->
<svg width="454" height="396" viewBox="0 0 454 396" fill="none" xmlns="http://www.w3.org/2000/svg">
<path d="M432.73 93.6441C432.73 117.773 427.978 141.666 418.744 163.958C409.51 186.25 395.976 206.505 378.914 223.567C361.853 240.628 341.597 254.163 319.305 263.396C297.013 272.63 273.12 277.382 248.992 277.382C224.863 277.382 200.97 272.63 178.678 263.396C156.386 254.163 136.131 240.628 119.069 223.567C102.007 206.505 88.4731 186.25 79.2394 163.958C70.0057 141.666 65.2532 117.773 65.2532 93.644L432.73 93.6441Z" fill="#FFE9E9"/>
<path d="M25.1725 125.794C20.0176 125.774 15.582 124.506 11.8657 121.988C8.1693 119.471 5.32212 115.824 3.32409 111.049C1.34605 106.274 0.367013 100.529 0.386993 93.8161C0.386993 87.1227 1.37602 81.4183 3.35406 76.703C5.35209 71.9876 8.19927 68.4012 11.8956 65.9436C15.6119 63.4661 20.0376 62.2273 25.1725 62.2273C30.3074 62.2273 34.7231 63.4661 38.4194 65.9436C42.1357 68.4212 44.9929 72.0176 46.9909 76.7329C48.989 81.4283 49.978 87.1227 49.958 93.8161C49.958 100.549 48.959 106.304 46.961 111.079C44.9829 115.854 42.1457 119.501 38.4494 122.018C34.753 124.536 30.3274 125.794 25.1725 125.794ZM25.1725 115.035C28.689 115.035 31.4963 113.267 33.5942 109.73C35.6921 106.194 36.7311 100.889 36.7111 93.8161C36.7111 89.1607 36.2316 85.2845 35.2725 82.1876C34.3334 79.0906 32.9948 76.7629 31.2565 75.2045C29.5382 73.646 27.5102 72.8668 25.1725 72.8668C21.676 72.8668 18.8787 74.615 16.7808 78.1116C14.6829 81.6081 13.6239 86.843 13.6039 93.8161C13.6039 98.5314 14.0735 102.468 15.0125 105.624C15.9716 108.761 17.3203 111.119 19.0585 112.697C20.7968 114.256 22.8348 115.035 25.1725 115.035ZM81.8989 125.285C77.4234 125.285 73.4373 124.516 69.9408 122.977C66.4642 121.419 63.7169 119.281 61.6989 116.564C59.7009 113.826 58.6719 110.669 58.612 107.093H71.679C71.759 108.591 72.2485 109.91 73.1476 111.049C74.0667 112.168 75.2855 113.037 76.804 113.656C78.3225 114.276 80.0308 114.586 81.9289 114.586C83.907 114.586 85.6552 114.236 87.1737 113.537C88.6922 112.837 89.8811 111.868 90.7402 110.629C91.5994 109.391 92.0289 107.962 92.0289 106.344C92.0289 104.705 91.5694 103.257 90.6503 101.998C89.7512 100.719 88.4525 99.7202 86.7541 99.0009C85.0758 98.2817 83.0778 97.922 80.7601 97.922H75.0357V88.3914H80.7601C82.7181 88.3914 84.4464 88.0518 85.9449 87.3724C87.4634 86.6931 88.6423 85.754 89.4815 84.5552C90.3206 83.3364 90.7402 81.9178 90.7402 80.2994C90.7402 78.7609 90.3706 77.4123 89.6313 76.2534C88.912 75.0746 87.893 74.1555 86.5743 73.4961C85.2756 72.8368 83.7571 72.5071 82.0188 72.5071C80.2606 72.5071 78.6522 72.8268 77.1936 73.4662C75.735 74.0856 74.5662 74.9747 73.6871 76.1335C72.8079 77.2924 72.3384 78.6511 72.2785 80.2095H59.8407C59.9007 76.673 60.9097 73.5561 62.8677 70.8588C64.8258 68.1614 67.4632 66.0535 70.7799 64.535C74.1166 62.9965 77.8829 62.2273 82.0788 62.2273C86.3146 62.2273 90.0209 62.9965 93.1978 64.535C96.3746 66.0735 98.8422 68.1514 100.6 70.7688C102.379 73.3663 103.258 76.2834 103.238 79.5202C103.258 82.9568 102.189 85.824 100.031 88.1217C97.8931 90.4194 95.1059 91.878 91.6693 92.4974V92.9769C96.1848 93.5563 99.6214 95.1248 101.979 97.6822C104.357 100.22 105.536 103.397 105.516 107.213C105.536 110.709 104.527 113.816 102.489 116.534C100.471 119.251 97.6833 121.389 94.1269 122.947C90.5704 124.506 86.4944 125.285 81.8989 125.285Z" fill="#D7D7D7"/>
<g filter="url(#filter0_ddddd_3921_503576)">
<rect x="143" y="1" width="286" height="328" fill="white"/>
<rect x="143.265" y="1.26482" width="285.47" height="327.47" stroke="#F1F1F1" stroke-width="0.529639"/>
</g>
<path d="M212.771 46.3011C212.771 48.0902 212.444 49.6283 211.789 50.9156C211.135 52.1973 210.237 53.1846 209.097 53.8773C207.963 54.5645 206.673 54.9082 205.227 54.9082C203.777 54.9082 202.481 54.5645 201.341 53.8773C200.207 53.1846 199.312 52.1946 198.658 50.9074C198.003 49.6201 197.676 48.0847 197.676 46.3011C197.676 44.5121 198.003 42.9767 198.658 41.6949C199.312 40.4077 200.207 39.4204 201.341 38.7332C202.481 38.0405 203.777 37.6941 205.227 37.6941C206.673 37.6941 207.963 38.0405 209.097 38.7332C210.237 39.4204 211.135 40.4077 211.789 41.6949C212.444 42.9767 212.771 44.5121 212.771 46.3011ZM210.267 46.3011C210.267 44.9376 210.046 43.7894 209.605 42.8567C209.168 41.9186 208.568 41.2095 207.805 40.7295C207.046 40.2441 206.187 40.0013 205.227 40.0013C204.262 40.0013 203.4 40.2441 202.642 40.7295C201.884 41.2095 201.284 41.9186 200.842 42.8567C200.406 43.7894 200.188 44.9376 200.188 46.3011C200.188 47.6647 200.406 48.8156 200.842 49.7538C201.284 50.6865 201.884 51.3955 202.642 51.881C203.4 52.361 204.262 52.601 205.227 52.601C206.187 52.601 207.046 52.361 207.805 51.881C208.568 51.3955 209.168 50.6865 209.605 49.7538C210.046 48.8156 210.267 47.6647 210.267 46.3011ZM223.457 49.4674V42.1122H225.911V54.6791H223.506V52.5028H223.375C223.086 53.1737 222.622 53.7327 221.984 54.18C221.351 54.6218 220.563 54.8427 219.62 54.8427C218.812 54.8427 218.098 54.6654 217.476 54.3109C216.86 53.9509 216.374 53.4191 216.02 52.7155C215.671 52.0119 215.496 51.1419 215.496 50.1056V42.1122H217.942V49.811C217.942 50.6674 218.18 51.3492 218.654 51.8564C219.129 52.3637 219.745 52.6173 220.503 52.6173C220.961 52.6173 221.417 52.5028 221.87 52.2737C222.328 52.0446 222.707 51.6983 223.007 51.2346C223.312 50.771 223.462 50.1819 223.457 49.4674ZM228.968 54.6791V42.1122H231.332V44.1085H231.463C231.692 43.4321 232.096 42.9003 232.674 42.5131C233.258 42.1204 233.918 41.924 234.654 41.924C234.807 41.924 234.987 41.9295 235.194 41.9404C235.407 41.9513 235.573 41.9649 235.693 41.9813V44.3212C235.595 44.2939 235.42 44.2639 235.169 44.2312C234.918 44.193 234.668 44.1739 234.417 44.1739C233.839 44.1739 233.323 44.2967 232.87 44.5421C232.423 44.7821 232.069 45.1175 231.807 45.5484C231.545 45.9739 231.414 46.4593 231.414 47.0048V54.6791H228.968ZM243.643 54.6791V37.9232H249.779C250.968 37.9232 251.953 38.1196 252.733 38.5123C253.513 38.8996 254.096 39.4259 254.483 40.0913C254.871 40.7513 255.064 41.4958 255.064 42.3249C255.064 43.0231 254.936 43.6121 254.68 44.0921C254.423 44.5667 254.08 44.9485 253.649 45.2375C253.223 45.5212 252.754 45.7284 252.242 45.8593V46.023C252.798 46.0502 253.341 46.2302 253.87 46.563C254.404 46.8902 254.846 47.3566 255.195 47.962C255.544 48.5674 255.719 49.3038 255.719 50.171C255.719 51.0274 255.517 51.7964 255.113 52.4782C254.715 53.1546 254.099 53.6918 253.264 54.09C252.43 54.4827 251.364 54.6791 250.065 54.6791H243.643ZM246.171 52.511H249.82C251.031 52.511 251.898 52.2764 252.422 51.8073C252.945 51.3383 253.207 50.7519 253.207 50.0483C253.207 49.5192 253.073 49.0338 252.806 48.592C252.539 48.1502 252.157 47.7984 251.661 47.5366C251.17 47.2748 250.586 47.1439 249.91 47.1439H246.171V52.511ZM246.171 45.1721H249.558C250.125 45.1721 250.635 45.063 251.088 44.8448C251.546 44.6267 251.909 44.3212 252.176 43.9285C252.449 43.5303 252.585 43.0612 252.585 42.5213C252.585 41.8286 252.343 41.2477 251.857 40.7786C251.372 40.3095 250.627 40.075 249.624 40.075H246.171V45.1721ZM263.707 54.9327C262.469 54.9327 261.402 54.6682 260.508 54.1391C259.619 53.6046 258.932 52.8546 258.446 51.8892C257.966 50.9183 257.726 49.781 257.726 48.4774C257.726 47.1902 257.966 46.0557 258.446 45.0739C258.932 44.0921 259.608 43.3258 260.475 42.7749C261.348 42.224 262.368 41.9486 263.535 41.9486C264.244 41.9486 264.931 42.0658 265.597 42.3004C266.262 42.5349 266.859 42.9031 267.389 43.4049C267.918 43.9067 268.335 44.5585 268.64 45.3603C268.946 46.1566 269.099 47.1248 269.099 48.2647V49.132H259.109V47.2993H266.701C266.701 46.6557 266.57 46.0857 266.309 45.5894C266.047 45.0875 265.679 44.6921 265.204 44.403C264.735 44.1139 264.184 43.9694 263.551 43.9694C262.864 43.9694 262.264 44.1385 261.751 44.4767C261.244 44.8094 260.851 45.2457 260.573 45.7857C260.301 46.3202 260.164 46.9011 260.164 47.5284V48.9602C260.164 49.8001 260.312 50.5147 260.606 51.1037C260.906 51.6928 261.323 52.1428 261.858 52.4537C262.392 52.7591 263.017 52.9119 263.731 52.9119C264.195 52.9119 264.618 52.8464 265 52.7155C265.381 52.5791 265.711 52.3773 265.99 52.1101C266.268 51.8428 266.48 51.5128 266.628 51.1201L268.943 51.5374C268.758 52.2192 268.425 52.8164 267.945 53.3291C267.47 53.8364 266.873 54.2318 266.153 54.5154C265.439 54.7936 264.623 54.9327 263.707 54.9327ZM280.999 45.1803L278.782 45.573C278.689 45.2894 278.542 45.0194 278.34 44.763C278.144 44.5067 277.877 44.2967 277.539 44.133C277.2 43.9694 276.778 43.8876 276.27 43.8876C275.578 43.8876 275 44.043 274.536 44.3539C274.072 44.6594 273.84 45.0548 273.84 45.5403C273.84 45.9603 273.996 46.2984 274.307 46.5548C274.618 46.8111 275.12 47.0211 275.812 47.1848L277.809 47.6429C278.965 47.9102 279.827 48.322 280.394 48.8783C280.961 49.4347 281.245 50.1574 281.245 51.0465C281.245 51.7992 281.027 52.4701 280.59 53.0591C280.159 53.6427 279.557 54.1009 278.782 54.4336C278.013 54.7663 277.121 54.9327 276.107 54.9327C274.7 54.9327 273.551 54.6327 272.662 54.0327C271.773 53.4273 271.228 52.5682 271.026 51.4555L273.39 51.0955C273.538 51.7119 273.84 52.1782 274.299 52.4946C274.757 52.8055 275.354 52.9609 276.09 52.9609C276.892 52.9609 277.533 52.7946 278.013 52.4619C278.493 52.1237 278.733 51.7119 278.733 51.2265C278.733 50.8337 278.586 50.5037 278.291 50.2365C278.002 49.9692 277.558 49.7674 276.958 49.631L274.83 49.1647C273.658 48.8974 272.791 48.472 272.229 47.8884C271.672 47.3048 271.394 46.5657 271.394 45.6712C271.394 44.9294 271.601 44.2803 272.016 43.724C272.431 43.1676 273.003 42.734 273.734 42.4231C274.465 42.1067 275.302 41.9486 276.246 41.9486C277.604 41.9486 278.673 42.2431 279.453 42.8322C280.233 43.4158 280.748 44.1985 280.999 45.1803ZM289.57 42.1122V44.0758H282.706V42.1122H289.57ZM284.547 39.1014H286.993V50.9892C286.993 51.4637 287.064 51.821 287.206 52.061C287.348 52.2955 287.53 52.4564 287.754 52.5437C287.983 52.6255 288.231 52.6664 288.498 52.6664C288.695 52.6664 288.867 52.6528 289.014 52.6255C289.161 52.5982 289.276 52.5764 289.358 52.5601L289.799 54.5809C289.658 54.6354 289.456 54.69 289.194 54.7445C288.932 54.8045 288.605 54.8373 288.212 54.8427C287.569 54.8536 286.969 54.7391 286.412 54.4991C285.856 54.2591 285.406 53.8882 285.062 53.3864C284.719 52.8846 284.547 52.2546 284.547 51.4964V39.1014ZM298.109 54.6791V37.9232H304.082C305.385 37.9232 306.465 38.1605 307.322 38.635C308.178 39.1095 308.819 39.7586 309.244 40.5822C309.67 41.4004 309.883 42.3222 309.883 43.3476C309.883 44.3785 309.667 45.3057 309.236 46.1293C308.811 46.9475 308.167 47.5966 307.305 48.0765C306.449 48.5511 305.372 48.7883 304.074 48.7883H299.966V46.6448H303.845C304.668 46.6448 305.336 46.503 305.849 46.2193C306.362 45.9303 306.738 45.5375 306.978 45.0412C307.218 44.5448 307.338 43.9803 307.338 43.3476C307.338 42.7149 307.218 42.1531 306.978 41.6622C306.738 41.1713 306.359 40.7868 305.841 40.5086C305.328 40.2304 304.652 40.0913 303.812 40.0913H300.637V54.6791H298.109ZM314.866 37.9232V54.6791H312.42V37.9232H314.866ZM321.584 54.9573C320.787 54.9573 320.067 54.81 319.424 54.5154C318.78 54.2155 318.27 53.7818 317.894 53.2146C317.523 52.6473 317.337 51.9519 317.337 51.1283C317.337 50.4192 317.474 49.8356 317.746 49.3774C318.019 48.9193 318.387 48.5565 318.851 48.2893C319.315 48.022 319.833 47.8202 320.405 47.6838C320.978 47.5475 321.562 47.4438 322.156 47.3729C322.909 47.2857 323.52 47.2148 323.989 47.1602C324.458 47.1002 324.799 47.0048 325.012 46.8739C325.224 46.743 325.331 46.5302 325.331 46.2357V46.1784C325.331 45.4639 325.129 44.9103 324.725 44.5176C324.327 44.1249 323.733 43.9285 322.942 43.9285C322.118 43.9285 321.469 44.1112 320.995 44.4767C320.525 44.8366 320.201 45.2375 320.021 45.6794L317.722 45.1557C317.995 44.3921 318.393 43.7758 318.916 43.3067C319.446 42.8322 320.054 42.4885 320.741 42.2758C321.428 42.0576 322.151 41.9486 322.909 41.9486C323.411 41.9486 323.943 42.0086 324.504 42.1285C325.072 42.2431 325.601 42.4558 326.092 42.7667C326.588 43.0776 326.994 43.5221 327.311 44.1003C327.627 44.673 327.785 45.4175 327.785 46.3339V54.6791H325.396V52.9609H325.298C325.14 53.2773 324.903 53.5882 324.586 53.8936C324.27 54.1991 323.864 54.4527 323.367 54.6545C322.871 54.8563 322.276 54.9573 321.584 54.9573ZM322.115 52.9937C322.792 52.9937 323.37 52.86 323.85 52.5928C324.335 52.3255 324.704 51.9764 324.954 51.5455C325.211 51.1092 325.339 50.6428 325.339 50.1465V48.5265C325.252 48.6138 325.083 48.6956 324.832 48.772C324.586 48.8429 324.305 48.9056 323.989 48.9602C323.673 49.0092 323.364 49.0556 323.064 49.0992C322.764 49.1374 322.514 49.1702 322.312 49.1974C321.837 49.2574 321.404 49.3583 321.011 49.5001C320.624 49.642 320.313 49.8465 320.078 50.1138C319.849 50.3756 319.735 50.7247 319.735 51.161C319.735 51.7664 319.958 52.2246 320.405 52.5355C320.853 52.841 321.423 52.9937 322.115 52.9937ZM333.259 47.2175V54.6791H330.813V42.1122H333.161V44.1576H333.317C333.606 43.4921 334.059 42.9576 334.675 42.554C335.297 42.1504 336.079 41.9486 337.023 41.9486C337.879 41.9486 338.629 42.1285 339.273 42.4885C339.917 42.8431 340.416 43.3721 340.77 44.0758C341.125 44.7794 341.302 45.6494 341.302 46.6857V54.6791H338.856V46.9802C338.856 46.0693 338.618 45.3575 338.144 44.8448C337.669 44.3267 337.018 44.0676 336.188 44.0676C335.621 44.0676 335.117 44.1903 334.675 44.4358C334.239 44.6812 333.892 45.0412 333.636 45.5157C333.385 45.9848 333.259 46.5521 333.259 47.2175ZM353.769 45.1803L351.552 45.573C351.459 45.2894 351.312 45.0194 351.11 44.763C350.914 44.5067 350.647 44.2967 350.309 44.133C349.97 43.9694 349.548 43.8876 349.04 43.8876C348.348 43.8876 347.77 44.043 347.306 44.3539C346.842 44.6594 346.61 45.0548 346.61 45.5403C346.61 45.9603 346.766 46.2984 347.077 46.5548C347.388 46.8111 347.89 47.0211 348.582 47.1848L350.579 47.6429C351.735 47.9102 352.597 48.322 353.164 48.8783C353.731 49.4347 354.015 50.1574 354.015 51.0465C354.015 51.7992 353.797 52.4701 353.36 53.0591C352.929 53.6427 352.327 54.1009 351.552 54.4336C350.783 54.7663 349.891 54.9327 348.877 54.9327C347.47 54.9327 346.321 54.6327 345.432 54.0327C344.543 53.4273 343.998 52.5682 343.796 51.4555L346.16 51.0955C346.308 51.7119 346.61 52.1782 347.069 52.4946C347.527 52.8055 348.124 52.9609 348.86 52.9609C349.662 52.9609 350.303 52.7946 350.783 52.4619C351.263 52.1237 351.503 51.7119 351.503 51.2265C351.503 50.8337 351.356 50.5037 351.061 50.2365C350.772 49.9692 350.328 49.7674 349.728 49.631L347.6 49.1647C346.428 48.8974 345.56 48.472 344.999 47.8884C344.442 47.3048 344.164 46.5657 344.164 45.6712C344.164 44.9294 344.371 44.2803 344.786 43.724C345.201 43.1676 345.773 42.734 346.504 42.4231C347.235 42.1067 348.072 41.9486 349.016 41.9486C350.374 41.9486 351.443 42.2431 352.223 42.8322C353.003 43.4158 353.518 44.1985 353.769 45.1803Z" fill="#212529"/>
<rect x="175" y="86.4376" width="221.753" height="9.59962" rx="4.79981" fill="#F1F1F1"/>
<rect x="175" y="123" width="200.634" height="9.59983" rx="4.79991" fill="#F1F1F1"/>
<rect x="175" y="159" width="194.874" height="9.59962" rx="4.79981" fill="#F1F1F1"/>
<rect x="175" y="231" width="200.634" height="9.59983" rx="4.79991" fill="#F1F1F1"/>
<rect x="175" y="195" width="200.634" height="9.59983" rx="4.79991" fill="#F1F1F1"/>
<g filter="url(#filter1_dddddd_3921_503576)">
<path d="M228 269H345V300H228V269Z" fill="url(#paint0_linear_3921_503576)"/>
</g>
<path d="M261.973 284.765C261.973 285.811 261.782 286.711 261.399 287.464C261.016 288.213 260.491 288.791 259.825 289.196C259.161 289.598 258.406 289.799 257.561 289.799C256.712 289.799 255.955 289.598 255.288 289.196C254.624 288.791 254.101 288.212 253.718 287.459C253.336 286.706 253.144 285.808 253.144 284.765C253.144 283.718 253.336 282.82 253.718 282.07C254.101 281.318 254.624 280.74 255.288 280.338C255.955 279.933 256.712 279.73 257.561 279.73C258.406 279.73 259.161 279.933 259.825 280.338C260.491 280.74 261.016 281.318 261.399 282.07C261.782 282.82 261.973 283.718 261.973 284.765ZM260.509 284.765C260.509 283.967 260.38 283.295 260.121 282.75C259.866 282.201 259.515 281.786 259.068 281.506C258.625 281.222 258.123 281.08 257.561 281.08C256.996 281.08 256.492 281.222 256.049 281.506C255.605 281.786 255.254 282.201 254.996 282.75C254.741 283.295 254.613 283.967 254.613 284.765C254.613 285.562 254.741 286.235 254.996 286.784C255.254 287.33 255.605 287.744 256.049 288.028C256.492 288.309 256.996 288.449 257.561 288.449C258.123 288.449 258.625 288.309 259.068 288.028C259.515 287.744 259.866 287.33 260.121 286.784C260.38 286.235 260.509 285.562 260.509 284.765ZM263.702 289.665V282.314H265.085V283.482H265.161C265.295 283.087 265.531 282.775 265.87 282.549C266.211 282.319 266.597 282.204 267.028 282.204C267.117 282.204 267.222 282.208 267.344 282.214C267.468 282.22 267.565 282.228 267.635 282.238V283.607C267.578 283.591 267.476 283.573 267.329 283.554C267.182 283.532 267.036 283.52 266.889 283.52C266.551 283.52 266.249 283.592 265.984 283.736C265.723 283.876 265.516 284.072 265.362 284.324C265.209 284.573 265.133 284.857 265.133 285.176V289.665H263.702ZM271.362 289.808C270.769 289.808 270.239 289.657 269.773 289.354C269.311 289.047 268.947 288.612 268.682 288.047C268.421 287.479 268.29 286.798 268.29 286.004C268.29 285.21 268.422 284.53 268.687 283.965C268.955 283.401 269.322 282.968 269.788 282.669C270.253 282.369 270.781 282.219 271.372 282.219C271.828 282.219 272.195 282.295 272.472 282.448C272.753 282.598 272.97 282.774 273.123 282.975C273.279 283.176 273.401 283.353 273.487 283.506H273.573V279.864H275.004V289.665H273.606V288.521H273.487C273.401 288.677 273.276 288.856 273.114 289.057C272.954 289.258 272.734 289.434 272.453 289.583C272.172 289.733 271.809 289.808 271.362 289.808ZM271.678 288.588C272.089 288.588 272.437 288.48 272.721 288.263C273.008 288.043 273.225 287.738 273.372 287.349C273.522 286.959 273.597 286.506 273.597 285.99C273.597 285.479 273.523 285.033 273.377 284.65C273.23 284.267 273.015 283.969 272.731 283.755C272.447 283.541 272.096 283.434 271.678 283.434C271.247 283.434 270.888 283.546 270.601 283.769C270.314 283.993 270.097 284.297 269.95 284.683C269.807 285.069 269.735 285.505 269.735 285.99C269.735 286.481 269.808 286.923 269.955 287.315C270.102 287.708 270.319 288.019 270.606 288.248C270.896 288.475 271.254 288.588 271.678 288.588ZM280.214 289.813C279.49 289.813 278.866 289.658 278.343 289.349C277.823 289.036 277.421 288.598 277.137 288.033C276.856 287.465 276.716 286.8 276.716 286.037C276.716 285.285 276.856 284.621 277.137 284.047C277.421 283.473 277.816 283.024 278.324 282.702C278.834 282.38 279.431 282.219 280.113 282.219C280.528 282.219 280.93 282.287 281.319 282.425C281.708 282.562 282.058 282.777 282.367 283.071C282.677 283.364 282.921 283.745 283.099 284.214C283.278 284.68 283.367 285.246 283.367 285.913V286.42H277.524V285.348H281.965C281.965 284.972 281.889 284.639 281.736 284.348C281.582 284.055 281.367 283.823 281.09 283.654C280.815 283.485 280.493 283.401 280.123 283.401C279.721 283.401 279.37 283.5 279.07 283.697C278.773 283.892 278.544 284.147 278.381 284.463C278.221 284.776 278.142 285.115 278.142 285.482V286.32C278.142 286.811 278.228 287.229 278.4 287.574C278.576 287.918 278.82 288.181 279.132 288.363C279.445 288.542 279.81 288.631 280.228 288.631C280.499 288.631 280.747 288.593 280.97 288.516C281.193 288.437 281.386 288.319 281.549 288.162C281.712 288.006 281.836 287.813 281.922 287.583L283.276 287.827C283.168 288.226 282.973 288.575 282.693 288.875C282.415 289.172 282.066 289.403 281.645 289.569C281.227 289.732 280.75 289.813 280.214 289.813ZM284.955 289.665V282.314H286.338V283.482H286.414C286.548 283.087 286.785 282.775 287.123 282.549C287.464 282.319 287.85 282.204 288.281 282.204C288.37 282.204 288.475 282.208 288.597 282.214C288.721 282.22 288.818 282.228 288.888 282.238V283.607C288.831 283.591 288.729 283.573 288.582 283.554C288.435 283.532 288.289 283.52 288.142 283.52C287.804 283.52 287.502 283.592 287.238 283.736C286.976 283.876 286.769 284.072 286.615 284.324C286.462 284.573 286.386 284.857 286.386 285.176V289.665H284.955ZM295.124 285.301V289.665H293.693V282.314H295.066V283.511H295.157C295.326 283.122 295.591 282.809 295.952 282.573C296.315 282.337 296.773 282.219 297.325 282.219C297.826 282.219 298.265 282.324 298.641 282.535C299.018 282.742 299.309 283.051 299.517 283.463C299.724 283.874 299.828 284.383 299.828 284.989V289.665H298.397V285.162C298.397 284.629 298.258 284.213 297.981 283.913C297.703 283.61 297.322 283.458 296.837 283.458C296.505 283.458 296.21 283.53 295.952 283.674C295.696 283.817 295.494 284.028 295.344 284.305C295.197 284.58 295.124 284.911 295.124 285.301ZM304.843 289.813C304.154 289.813 303.552 289.655 303.039 289.339C302.525 289.024 302.126 288.582 301.842 288.014C301.559 287.446 301.417 286.782 301.417 286.023C301.417 285.261 301.559 284.594 301.842 284.023C302.126 283.452 302.525 283.008 303.039 282.693C303.552 282.377 304.154 282.219 304.843 282.219C305.532 282.219 306.133 282.377 306.647 282.693C307.161 283.008 307.559 283.452 307.843 284.023C308.127 284.594 308.269 285.261 308.269 286.023C308.269 286.782 308.127 287.446 307.843 288.014C307.559 288.582 307.161 289.024 306.647 289.339C306.133 289.655 305.532 289.813 304.843 289.813ZM304.848 288.612C305.294 288.612 305.664 288.494 305.958 288.258C306.251 288.022 306.468 287.708 306.609 287.315C306.752 286.923 306.824 286.49 306.824 286.018C306.824 285.549 306.752 285.119 306.609 284.726C306.468 284.331 306.251 284.013 305.958 283.774C305.664 283.535 305.294 283.415 304.848 283.415C304.398 283.415 304.025 283.535 303.728 283.774C303.434 284.013 303.216 284.331 303.072 284.726C302.932 285.119 302.862 285.549 302.862 286.018C302.862 286.49 302.932 286.923 303.072 287.315C303.216 287.708 303.434 288.022 303.728 288.258C304.025 288.494 304.398 288.612 304.848 288.612ZM311.236 289.665L309.073 282.314H310.552L311.992 287.712H312.064L313.509 282.314H314.988L316.424 287.688H316.495L317.926 282.314H319.405L317.247 289.665H315.787L314.294 284.358H314.184L312.691 289.665H311.236Z" fill="#FAFAFA"/>
<defs>
<filter id="filter0_ddddd_3921_503576" x="118.185" y="0.313431" width="335.629" height="387.83" filterUnits="userSpaceOnUse" color-interpolation-filters="sRGB">
<feFlood flood-opacity="0" result="BackgroundImageFix"/>
<feColorMatrix in="SourceAlpha" type="matrix" values="0 0 0 0 0 0 0 0 0 0 0 0 0 0 0 0 0 0 127 0" result="hardAlpha"/>
<feOffset dy="0.980813"/>
<feGaussianBlur stdDeviation="0.833691"/>
<feColorMatrix type="matrix" values="0 0 0 0 0.219608 0 0 0 0 0.219608 0 0 0 0 0.219608 0 0 0 0.0240741 0"/>
<feBlend mode="normal" in2="BackgroundImageFix" result="effect1_dropShadow_3921_503576"/>
<feColorMatrix in="SourceAlpha" type="matrix" values="0 0 0 0 0 0 0 0 0 0 0 0 0 0 0 0 0 0 127 0" result="hardAlpha"/>
<feOffset dy="4.31558"/>
<feGaussianBlur stdDeviation="1.72623"/>
<feColorMatrix type="matrix" values="0 0 0 0 0.219608 0 0 0 0 0.219608 0 0 0 0 0.219608 0 0 0 0.0392593 0"/>
<feBlend mode="normal" in2="effect1_dropShadow_3921_503576" result="effect2_dropShadow_3921_503576"/>
<feColorMatrix in="SourceAlpha" type="matrix" values="0 0 0 0 0 0 0 0 0 0 0 0 0 0 0 0 0 0 127 0" result="hardAlpha"/>
<feOffset dy="10.5928"/>
<feGaussianBlur stdDeviation="3.44265"/>
<feColorMatrix type="matrix" values="0 0 0 0 0.219608 0 0 0 0 0.219608 0 0 0 0 0.219608 0 0 0 0.05 0"/>
<feBlend mode="normal" in2="effect2_dropShadow_3921_503576" result="effect3_dropShadow_3921_503576"/>
<feColorMatrix in="SourceAlpha" type="matrix" values="0 0 0 0 0 0 0 0 0 0 0 0 0 0 0 0 0 0 127 0" result="hardAlpha"/>
<feOffset dy="20.4009"/>
<feGaussianBlur stdDeviation="6.74799"/>
<feColorMatrix type="matrix" values="0 0 0 0 0.219608 0 0 0 0 0.219608 0 0 0 0 0.219608 0 0 0 0.0607407 0"/>
<feBlend mode="normal" in2="effect3_dropShadow_3921_503576" result="effect4_dropShadow_3921_503576"/>
<feColorMatrix in="SourceAlpha" type="matrix" values="0 0 0 0 0 0 0 0 0 0 0 0 0 0 0 0 0 0 127 0" result="hardAlpha"/>
<feOffset dy="34.3285"/>
<feGaussianBlur stdDeviation="12.4073"/>
<feColorMatrix type="matrix" values="0 0 0 0 0.219608 0 0 0 0 0.219608 0 0 0 0 0.219608 0 0 0 0.0759259 0"/>
<feBlend mode="normal" in2="effect4_dropShadow_3921_503576" result="effect5_dropShadow_3921_503576"/>
<feBlend mode="normal" in="SourceGraphic" in2="effect5_dropShadow_3921_503576" result="shape"/>
</filter>
<filter id="filter1_dddddd_3921_503576" x="185.629" y="268.313" width="201.742" height="127.022" filterUnits="userSpaceOnUse" color-interpolation-filters="sRGB">
<feFlood flood-opacity="0" result="BackgroundImageFix"/>
<feColorMatrix in="SourceAlpha" type="matrix" values="0 0 0 0 0 0 0 0 0 0 0 0 0 0 0 0 0 0 127 0" result="hardAlpha"/>
<feOffset dy="0.980813"/>
<feGaussianBlur stdDeviation="0.833691"/>
<feColorMatrix type="matrix" values="0 0 0 0 0.219608 0 0 0 0 0.219608 0 0 0 0 0.219608 0 0 0 0.0240741 0"/>
<feBlend mode="normal" in2="BackgroundImageFix" result="effect1_dropShadow_3921_503576"/>
<feColorMatrix in="SourceAlpha" type="matrix" values="0 0 0 0 0 0 0 0 0 0 0 0 0 0 0 0 0 0 127 0" result="hardAlpha"/>
<feOffset dy="4.31558"/>
<feGaussianBlur stdDeviation="1.72623"/>
<feColorMatrix type="matrix" values="0 0 0 0 0.219608 0 0 0 0 0.219608 0 0 0 0 0.219608 0 0 0 0.0392593 0"/>
<feBlend mode="normal" in2="effect1_dropShadow_3921_503576" result="effect2_dropShadow_3921_503576"/>
<feColorMatrix in="SourceAlpha" type="matrix" values="0 0 0 0 0 0 0 0 0 0 0 0 0 0 0 0 0 0 127 0" result="hardAlpha"/>
<feOffset dy="10.5928"/>
<feGaussianBlur stdDeviation="3.44265"/>
<feColorMatrix type="matrix" values="0 0 0 0 0.219608 0 0 0 0 0.219608 0 0 0 0 0.219608 0 0 0 0.05 0"/>
<feBlend mode="normal" in2="effect2_dropShadow_3921_503576" result="effect3_dropShadow_3921_503576"/>
<feColorMatrix in="SourceAlpha" type="matrix" values="0 0 0 0 0 0 0 0 0 0 0 0 0 0 0 0 0 0 127 0" result="hardAlpha"/>
<feOffset dy="20.4009"/>
<feGaussianBlur stdDeviation="6.74799"/>
<feColorMatrix type="matrix" values="0 0 0 0 0.219608 0 0 0 0 0.219608 0 0 0 0 0.219608 0 0 0 0.0607407 0"/>
<feBlend mode="normal" in2="effect3_dropShadow_3921_503576" result="effect4_dropShadow_3921_503576"/>
<feColorMatrix in="SourceAlpha" type="matrix" values="0 0 0 0 0 0 0 0 0 0 0 0 0 0 0 0 0 0 127 0" result="hardAlpha"/>
<feOffset dy="34.3285"/>
<feGaussianBlur stdDeviation="12.4073"/>
<feColorMatrix type="matrix" values="0 0 0 0 0.219608 0 0 0 0 0.219608 0 0 0 0 0.219608 0 0 0 0.0759259 0"/>
<feBlend mode="normal" in2="effect4_dropShadow_3921_503576" result="effect5_dropShadow_3921_503576"/>
<feColorMatrix in="SourceAlpha" type="matrix" values="0 0 0 0 0 0 0 0 0 0 0 0 0 0 0 0 0 0 127 0" result="hardAlpha"/>
<feOffset dy="52.9639"/>
<feGaussianBlur stdDeviation="21.1856"/>
<feColorMatrix type="matrix" values="0 0 0 0 0.219608 0 0 0 0 0.219608 0 0 0 0 0.219608 0 0 0 0.1 0"/>
<feBlend mode="normal" in2="effect5_dropShadow_3921_503576" result="effect6_dropShadow_3921_503576"/>
<feBlend mode="normal" in="SourceGraphic" in2="effect6_dropShadow_3921_503576" result="shape"/>
</filter>
<linearGradient id="paint0_linear_3921_503576" x1="227.997" y1="284.502" x2="344.998" y2="284.502" gradientUnits="userSpaceOnUse">
<stop stop-color="#FF0379"/>
<stop offset="1" stop-color="#D437C1"/>
</linearGradient>
</defs>
</svg>
