
<svg width="461" height="357" viewBox="0 0 461 357" fill="none" xmlns="http://www.w3.org/2000/svg">
<rect x="260" y="104" width="200.634" height="9.59983" rx="4.79991" fill="#F1F1F1"/>
<path d="M430.393 42.1983C430.393 66.3271 425.64 90.2197 416.406 112.512C407.173 134.804 393.639 155.059 376.577 172.121C359.515 189.183 339.26 202.717 316.968 211.95C294.676 221.184 270.783 225.937 246.654 225.937C222.525 225.937 198.633 221.184 176.341 211.95C154.048 202.717 133.793 189.183 116.732 172.121C99.6698 155.059 86.1357 134.804 76.902 112.512C67.6683 90.2197 62.9158 66.3271 62.9158 42.1982L430.393 42.1983Z" fill="#F5F7FF"/>
<path d="M29.7529 74.3487C24.598 74.3287 20.1624 73.0599 16.4461 70.5424C12.7497 68.0249 9.90254 64.3785 7.90452 59.6032C5.92647 54.828 4.94744 49.0836 4.96742 42.3703C4.96742 35.6769 5.95644 29.9725 7.93449 25.2572C9.93251 20.5418 12.7797 16.9554 16.476 14.4978C20.1924 12.0203 24.618 10.7815 29.7529 10.7815C34.8879 10.7815 39.3035 12.0203 42.9998 14.4978C46.7162 16.9754 49.5733 20.5718 51.5714 25.2871C53.5694 29.9825 54.5584 35.6769 54.5384 42.3703C54.5384 49.1036 53.5394 54.8579 51.5414 59.6332C49.5634 64.4085 46.7262 68.0549 43.0298 70.5724C39.3335 73.0899 34.9078 74.3487 29.7529 74.3487ZM29.7529 63.5893C33.2695 63.5893 36.0767 61.821 38.1746 58.2845C40.2725 54.748 41.3115 49.4433 41.2915 42.3703C41.2915 37.7149 40.812 33.8387 39.8529 30.7418C38.9139 27.6448 37.5752 25.3171 35.8369 23.7587C34.1186 22.2002 32.0906 21.421 29.7529 21.421C26.2564 21.421 23.4591 23.1692 21.3612 26.6658C19.2633 30.1623 18.2043 35.3972 18.1844 42.3703C18.1844 47.0856 18.6539 51.0217 19.593 54.1786C20.552 57.3155 21.9007 59.6732 23.639 61.2516C25.3772 62.8101 27.4152 63.5893 29.7529 63.5893ZM86.6892 73.8392C82.0737 73.8392 77.9678 73.0899 74.3713 71.5914C70.7949 70.0729 67.9876 68.0049 65.9497 65.3875C63.9117 62.7701 62.8927 59.803 62.8927 56.4863C62.8927 53.9288 63.4721 51.5812 64.631 49.4433C65.8098 47.2854 67.4082 45.4972 69.4262 44.0786C71.4442 42.64 73.702 41.7209 76.1995 41.3213V40.9017C72.9228 40.2424 70.2654 38.6539 68.2274 36.1364C66.1894 33.5989 65.1704 30.6518 65.1704 27.2952C65.1704 24.1183 66.0995 21.2911 67.9577 18.8135C69.8158 16.316 72.3633 14.3579 75.6001 12.9394C78.8569 11.5008 82.5532 10.7815 86.6892 10.7815C90.8251 10.7815 94.5114 11.5008 97.7482 12.9394C101.005 14.3779 103.562 16.346 105.421 18.8435C107.279 21.3211 108.218 24.1383 108.238 27.2952C108.218 30.6718 107.179 33.6189 105.121 36.1364C103.063 38.6539 100.426 40.2424 97.2088 40.9017V41.3213C99.6663 41.7209 101.894 42.64 103.892 44.0786C105.91 45.4972 107.509 47.2854 108.687 49.4433C109.886 51.5812 110.496 53.9288 110.516 56.4863C110.496 59.803 109.467 62.7701 107.429 65.3875C105.391 68.0049 102.573 70.0729 98.977 71.5914C95.4006 73.0899 91.3046 73.8392 86.6892 73.8392ZM86.6892 64.3086C88.7471 64.3086 90.5454 63.939 92.0838 63.1997C93.6223 62.4404 94.8211 61.4015 95.6803 60.0828C96.5594 58.7441 96.999 57.2056 96.999 55.4673C96.999 53.6891 96.5494 52.1206 95.6503 50.762C94.7512 49.3833 93.5324 48.3044 91.9939 47.5252C90.4554 46.726 88.6872 46.3264 86.6892 46.3264C84.7111 46.3264 82.9429 46.726 81.3844 47.5252C79.8259 48.3044 78.5972 49.3833 77.698 50.762C76.8189 52.1206 76.3793 53.6891 76.3793 55.4673C76.3793 57.2056 76.8089 58.7441 77.6681 60.0828C78.5272 61.4015 79.736 62.4404 81.2945 63.1997C82.853 63.939 84.6512 64.3086 86.6892 64.3086ZM86.6892 36.8857C88.4075 36.8857 89.936 36.536 91.2746 35.8367C92.6133 35.1374 93.6623 34.1684 94.4215 32.9296C95.1808 31.6908 95.5604 30.2622 95.5604 28.6438C95.5604 27.0454 95.1808 25.6468 94.4215 24.448C93.6623 23.2292 92.6233 22.2801 91.3046 21.6008C89.9859 20.9015 88.4474 20.5518 86.6892 20.5518C84.9509 20.5518 83.4124 20.9015 82.0737 21.6008C80.735 22.2801 79.6861 23.2292 78.9268 24.448C78.1876 25.6468 77.8179 27.0454 77.8179 28.6438C77.8179 30.2622 78.1976 31.6908 78.9568 32.9296C79.7161 34.1684 80.765 35.1374 82.1037 35.8367C83.4424 36.536 84.9709 36.8857 86.6892 36.8857Z" fill="#D7D7D7"/>
<g filter="url(#filter0_ddddd_4081_504479)">
<rect x="157" y="36" width="241" height="239" fill="white"/>
<rect x="157.364" y="36.3638" width="240.272" height="238.272" stroke="#F1F1F1" stroke-width="0.727557"/>
</g>
<path d="M217.224 60.5194V74H215.464V67.8883H208.598V74H206.838V60.5194H208.598V66.4377H215.464V60.5194H217.224ZM229.9 68.2944C229.9 68.6297 229.881 68.9843 229.842 69.3582H221.371C221.435 70.4026 221.79 71.2214 222.434 71.8145C223.092 72.3947 223.885 72.6848 224.813 72.6848C225.574 72.6848 226.206 72.5108 226.709 72.1626C227.224 71.8016 227.585 71.3245 227.792 70.7314H229.687C229.403 71.75 228.836 72.5817 227.985 73.2264C227.134 73.8582 226.077 74.1741 224.813 74.1741C223.808 74.1741 222.905 73.9484 222.106 73.4971C221.319 73.0458 220.7 72.4076 220.249 71.5824C219.798 70.7443 219.572 69.7772 219.572 68.6813C219.572 67.5853 219.791 66.6247 220.229 65.7995C220.668 64.9743 221.28 64.3424 222.067 63.9041C222.866 63.4528 223.782 63.2271 224.813 63.2271C225.819 63.2271 226.709 63.4463 227.482 63.8847C228.256 64.3231 228.849 64.9291 229.262 65.7028C229.687 66.4635 229.9 67.3274 229.9 68.2944ZM228.082 67.927C228.082 67.2565 227.934 66.6827 227.637 66.2056C227.34 65.7157 226.934 65.3482 226.419 65.1032C225.916 64.8453 225.355 64.7164 224.736 64.7164C223.846 64.7164 223.085 65 222.454 65.5674C221.835 66.1347 221.48 66.9212 221.39 67.927H228.082ZM233.983 65.1225C234.293 64.5165 234.731 64.0459 235.298 63.7106C235.878 63.3754 236.581 63.2078 237.406 63.2078V65.0258H236.942C234.969 65.0258 233.983 66.096 233.983 68.2364V74H232.223V63.4012H233.983V65.1225ZM249.109 68.2944C249.109 68.6297 249.089 68.9843 249.051 69.3582H240.579C240.644 70.4026 240.998 71.2214 241.643 71.8145C242.301 72.3947 243.094 72.6848 244.022 72.6848C244.783 72.6848 245.414 72.5108 245.917 72.1626C246.433 71.8016 246.794 71.3245 247 70.7314H248.896C248.612 71.75 248.045 72.5817 247.194 73.2264C246.343 73.8582 245.286 74.1741 244.022 74.1741C243.016 74.1741 242.114 73.9484 241.314 73.4971C240.528 73.0458 239.909 72.4076 239.457 71.5824C239.006 70.7443 238.781 69.7772 238.781 68.6813C238.781 67.5853 239 66.6247 239.438 65.7995C239.877 64.9743 240.489 64.3424 241.276 63.9041C242.075 63.4528 242.99 63.2271 244.022 63.2271C245.028 63.2271 245.917 63.4463 246.691 63.8847C247.465 64.3231 248.058 64.9291 248.47 65.7028C248.896 66.4635 249.109 67.3274 249.109 68.2944ZM247.291 67.927C247.291 67.2565 247.142 66.6827 246.846 66.2056C246.549 65.7157 246.143 65.3482 245.627 65.1032C245.124 64.8453 244.563 64.7164 243.945 64.7164C243.055 64.7164 242.294 65 241.662 65.5674C241.043 66.1347 240.689 66.9212 240.599 67.927H247.291ZM257.497 61.6799C257.162 61.6799 256.878 61.5638 256.646 61.3317C256.414 61.0996 256.298 60.816 256.298 60.4807C256.298 60.1455 256.414 59.8618 256.646 59.6297C256.878 59.3976 257.162 59.2816 257.497 59.2816C257.819 59.2816 258.09 59.3976 258.309 59.6297C258.541 59.8618 258.658 60.1455 258.658 60.4807C258.658 60.816 258.541 61.0996 258.309 61.3317C258.09 61.5638 257.819 61.6799 257.497 61.6799ZM258.348 63.4012V74H256.588V63.4012H258.348ZM265.1 74.1741C264.288 74.1741 263.559 74.0387 262.914 73.7679C262.27 73.4842 261.76 73.0974 261.386 72.6075C261.012 72.1046 260.806 71.5308 260.767 70.8861H262.586C262.637 71.4148 262.882 71.8467 263.32 72.182C263.772 72.5172 264.358 72.6848 265.081 72.6848C265.751 72.6848 266.28 72.5365 266.666 72.24C267.053 71.9434 267.247 71.5695 267.247 71.1182C267.247 70.654 267.04 70.3123 266.628 70.0931C266.215 69.861 265.577 69.6354 264.713 69.4162C263.927 69.2099 263.282 69.0036 262.779 68.7973C262.289 68.5781 261.863 68.2622 261.502 67.8496C261.154 67.4241 260.98 66.8697 260.98 66.1863C260.98 65.6447 261.141 65.1483 261.464 64.697C261.786 64.2457 262.244 63.8912 262.837 63.6333C263.43 63.3625 264.107 63.2271 264.868 63.2271C266.041 63.2271 266.989 63.5237 267.711 64.1168C268.433 64.7099 268.82 65.5222 268.871 66.5538H267.111C267.073 65.9993 266.847 65.5545 266.434 65.2192C266.035 64.884 265.493 64.7164 264.81 64.7164C264.178 64.7164 263.675 64.8518 263.301 65.1225C262.927 65.3933 262.74 65.7479 262.74 66.1863C262.74 66.5344 262.85 66.8245 263.069 67.0566C263.301 67.2758 263.585 67.4563 263.92 67.5982C264.268 67.7271 264.745 67.8754 265.351 68.043C266.112 68.2493 266.731 68.4556 267.208 68.6619C267.685 68.8553 268.091 69.1519 268.426 69.5516C268.775 69.9513 268.955 70.4735 268.968 71.1182C268.968 71.6984 268.807 72.2206 268.485 72.6848C268.162 73.149 267.704 73.5165 267.111 73.7873C266.531 74.0451 265.861 74.1741 265.1 74.1741ZM275.951 68.6619C275.951 67.5788 276.17 66.6311 276.609 65.8188C277.047 64.9936 277.647 64.3553 278.408 63.9041C279.181 63.4528 280.045 63.2271 280.999 63.2271C281.824 63.2271 282.592 63.4205 283.301 63.8074C284.01 64.1813 284.552 64.6777 284.925 65.2966V59.6877H286.705V74H284.925V72.0079C284.577 72.6397 284.062 73.1619 283.378 73.5745C282.695 73.9742 281.895 74.1741 280.98 74.1741C280.039 74.1741 279.181 73.942 278.408 73.4778C277.647 73.0136 277.047 72.3625 276.609 71.5244C276.17 70.6863 275.951 69.7321 275.951 68.6619ZM284.925 68.6813C284.925 67.8818 284.764 67.1856 284.442 66.5924C284.12 65.9993 283.681 65.548 283.127 65.2386C282.585 64.9162 281.986 64.7551 281.328 64.7551C280.67 64.7551 280.071 64.9098 279.529 65.2192C278.988 65.5287 278.556 65.98 278.234 66.5731C277.911 67.1662 277.75 67.8625 277.75 68.6619C277.75 69.4742 277.911 70.1834 278.234 70.7894C278.556 71.3825 278.988 71.8403 279.529 72.1626C280.071 72.4721 280.67 72.6268 281.328 72.6268C281.986 72.6268 282.585 72.4721 283.127 72.1626C283.681 71.8403 284.12 71.3825 284.442 70.7894C284.764 70.1834 284.925 69.4807 284.925 68.6813ZM299.35 68.2944C299.35 68.6297 299.33 68.9843 299.292 69.3582H290.82C290.885 70.4026 291.239 71.2214 291.884 71.8145C292.542 72.3947 293.335 72.6848 294.263 72.6848C295.024 72.6848 295.655 72.5108 296.158 72.1626C296.674 71.8016 297.035 71.3245 297.241 70.7314H299.137C298.853 71.75 298.286 72.5817 297.435 73.2264C296.584 73.8582 295.526 74.1741 294.263 74.1741C293.257 74.1741 292.355 73.9484 291.555 73.4971C290.769 73.0458 290.15 72.4076 289.698 71.5824C289.247 70.7443 289.022 69.7772 289.022 68.6813C289.022 67.5853 289.241 66.6247 289.679 65.7995C290.117 64.9743 290.73 64.3424 291.516 63.9041C292.316 63.4528 293.231 63.2271 294.263 63.2271C295.269 63.2271 296.158 63.4463 296.932 63.8847C297.706 64.3231 298.299 64.9291 298.711 65.7028C299.137 66.4635 299.35 67.3274 299.35 68.2944ZM297.531 67.927C297.531 67.2565 297.383 66.6827 297.087 66.2056C296.79 65.7157 296.384 65.3482 295.868 65.1032C295.365 64.8453 294.804 64.7164 294.186 64.7164C293.296 64.7164 292.535 65 291.903 65.5674C291.284 66.1347 290.93 66.9212 290.84 67.927H297.531ZM303.433 59.6877V74H301.673V59.6877H303.433ZM307.341 61.6799C307.006 61.6799 306.722 61.5638 306.49 61.3317C306.258 61.0996 306.142 60.816 306.142 60.4807C306.142 60.1455 306.258 59.8618 306.49 59.6297C306.722 59.3976 307.006 59.2816 307.341 59.2816C307.664 59.2816 307.935 59.3976 308.154 59.6297C308.386 59.8618 308.502 60.1455 308.502 60.4807C308.502 60.816 308.386 61.0996 308.154 61.3317C307.935 61.5638 307.664 61.6799 307.341 61.6799ZM308.192 63.4012V74H306.432V63.4012H308.192ZM315.138 72.3754L318.426 63.4012H320.302L316.143 74H314.093L309.935 63.4012H311.83L315.138 72.3754ZM331.704 68.2944C331.704 68.6297 331.685 68.9843 331.646 69.3582H323.175C323.239 70.4026 323.594 71.2214 324.238 71.8145C324.896 72.3947 325.689 72.6848 326.617 72.6848C327.378 72.6848 328.01 72.5108 328.513 72.1626C329.028 71.8016 329.39 71.3245 329.596 70.7314H331.491C331.208 71.75 330.64 72.5817 329.789 73.2264C328.938 73.8582 327.881 74.1741 326.617 74.1741C325.612 74.1741 324.709 73.9484 323.91 73.4971C323.123 73.0458 322.504 72.4076 322.053 71.5824C321.602 70.7443 321.376 69.7772 321.376 68.6813C321.376 67.5853 321.595 66.6247 322.034 65.7995C322.472 64.9743 323.084 64.3424 323.871 63.9041C324.67 63.4528 325.586 63.2271 326.617 63.2271C327.623 63.2271 328.513 63.4463 329.286 63.8847C330.06 64.3231 330.653 64.9291 331.066 65.7028C331.491 66.4635 331.704 67.3274 331.704 68.2944ZM329.886 67.927C329.886 67.2565 329.738 66.6827 329.441 66.2056C329.145 65.7157 328.738 65.3482 328.223 65.1032C327.72 64.8453 327.159 64.7164 326.54 64.7164C325.65 64.7164 324.89 65 324.258 65.5674C323.639 66.1347 323.284 66.9212 323.194 67.927H329.886ZM335.787 65.1225C336.097 64.5165 336.535 64.0459 337.102 63.7106C337.683 63.3754 338.385 63.2078 339.211 63.2078V65.0258H338.746C336.774 65.0258 335.787 66.096 335.787 68.2364V74H334.027V63.4012H335.787V65.1225ZM350.371 63.4012L343.989 78.9899H342.171L344.259 73.884L339.985 63.4012H341.938L345.265 71.9885L348.553 63.4012H350.371Z" fill="#313131"/>
<rect x="177" y="210" width="200.634" height="9.59983" rx="4.79991" fill="#F1F1F1"/>
<rect x="207.817" y="232.6" width="139" height="10" rx="5" fill="#F1F1F1"/>
<g clip-path="url(#clip0_4081_504479)">
<path d="M331.201 123.875C330.281 113.925 313.727 114.104 313.727 114.104C313.727 114.104 299.945 128.84 296.708 128.685C293.472 128.53 306.032 113.784 306.032 113.784C299.997 112.123 283.047 116.924 283.047 116.924C283.047 116.924 280.661 136.498 277.562 135.551C274.463 134.605 280.559 118.326 280.559 118.326C274.31 119.075 267.561 125.041 267.561 125.041C258.667 135.12 272.069 146.02 272.069 146.02C272.069 146.02 271.096 152.786 265.594 159.783C265.594 159.783 264.409 161.045 263.033 163.303L264.652 163.584C264.854 163.182 265.074 162.789 265.31 162.405C265.312 162.402 265.312 162.4 265.315 162.398C265.319 162.392 265.321 162.387 265.326 162.381C265.479 162.151 265.702 161.822 265.976 161.424L265.977 161.422L265.977 161.421C266.64 160.537 267.1 159.881 267.4 159.402L267.402 159.397C269.414 156.614 272.238 153.025 273.806 152.443C273.806 152.443 273.671 152.16 273.589 151.64C273.659 151.896 273.729 152.163 273.806 152.443C275.544 158.864 289.232 162.265 297.229 162.024C305.225 161.783 302.239 159.02 298.696 154.762C295.152 150.505 286.28 149.921 283.948 148.087C281.616 146.253 285.618 145.522 290.697 146.813C295.775 148.105 297.455 153.7 305.632 155.939C313.809 158.178 322.866 143.639 322.866 143.639C316.815 144.422 307.07 139.462 307.018 137.414C306.967 135.365 322.178 138.215 324.656 138.034C327.138 137.854 332.121 133.826 331.201 123.875Z" fill="url(#paint0_linear_4081_504479)"/>
<path d="M225.303 107.215C229.564 99.1339 243.469 105.087 243.469 105.087C243.469 105.087 249.938 122.362 252.723 123.365C255.508 124.369 250.074 107.514 250.074 107.514C255.747 108.226 268.367 118.221 268.367 118.221C268.367 118.221 263.526 135.587 266.473 135.873C269.419 136.16 269.976 120.277 269.976 120.277C274.986 123.099 278.592 130.502 278.592 130.502C282.567 142.131 267.442 146.639 267.442 146.639C267.442 146.639 265.894 152.694 268.086 160.531C268.086 160.531 268.644 162.012 269.014 164.401L267.55 164.071C267.52 163.661 267.473 163.251 267.407 162.845C267.407 162.842 267.407 162.84 267.406 162.837C267.404 162.83 267.404 162.826 267.403 162.819C267.354 162.571 267.281 162.215 267.189 161.783V161.779C266.939 160.801 266.781 160.086 266.696 159.576V159.571C265.973 156.516 264.847 152.496 263.727 151.454C263.727 151.454 263.941 151.263 264.192 150.853C264.044 151.044 263.89 151.245 263.727 151.454C260.012 156.268 247.273 154.343 240.609 151.337C233.946 148.331 237.433 147.044 241.914 144.69C246.395 142.336 254.086 144.953 256.695 144.222C259.305 143.49 256.185 141.471 251.446 140.78C246.709 140.092 243.333 144.228 235.65 143.253C227.966 142.278 225.415 126.825 225.415 126.825C230.247 129.608 240.206 128.834 240.967 127.123C241.727 125.41 227.895 122.487 225.867 121.466C223.837 120.443 221.042 115.295 225.303 107.215Z" fill="url(#paint1_linear_4081_504479)"/>
<path d="M251.165 123.52L248.364 110.941H240.264" stroke="url(#paint2_linear_4081_504479)" stroke-width="5.83006" stroke-linecap="round" stroke-linejoin="round"/>
<path fill-rule="evenodd" clip-rule="evenodd" d="M258.63 158.135L251.165 123.52H304.789C307.488 123.52 309.496 125.995 308.932 128.621L302.569 158.135C302.15 160.079 300.426 161.466 298.426 161.466H262.769C260.773 161.466 259.049 160.079 258.63 158.135Z" fill="url(#paint3_linear_4081_504479)" stroke="url(#paint4_linear_4081_504479)" stroke-width="5.83006" stroke-linecap="round" stroke-linejoin="round"/>
<path d="M296.648 172.42C295.519 172.42 294.603 173.336 294.614 174.464C294.614 175.592 295.53 176.508 296.658 176.508C297.787 176.508 298.703 175.592 298.703 174.464C298.697 173.336 297.781 172.42 296.648 172.42ZM263.946 172.42C262.817 172.42 261.901 173.336 261.912 174.464C261.907 175.592 262.823 176.508 263.951 176.508C265.079 176.508 265.995 175.592 265.995 174.464C265.995 173.336 265.079 172.42 263.946 172.42Z" stroke="url(#paint5_linear_4081_504479)" stroke-width="7.5514" stroke-linecap="round" stroke-linejoin="round"/>
<path fill-rule="evenodd" clip-rule="evenodd" d="M322.235 152.87C318.183 152.87 314.898 149.585 314.898 145.533C314.898 141.48 318.183 138.195 322.235 138.195C326.288 138.195 329.573 141.48 329.573 145.533C329.573 149.585 326.288 152.87 322.235 152.87Z" fill="url(#paint6_linear_4081_504479)"/>
<path d="M324.541 144.484L321.528 147.419L319.719 145.659" stroke="white" stroke-width="1.23514" stroke-linecap="round" stroke-linejoin="round"/>
<path fill-rule="evenodd" clip-rule="evenodd" d="M327.162 128.971C323.052 128.971 319.719 125.591 319.719 121.423C319.719 117.255 323.052 113.876 327.162 113.876C331.272 113.876 334.604 117.255 334.604 121.423C334.604 125.591 331.272 128.971 327.162 128.971Z" fill="url(#paint7_linear_4081_504479)"/>
<path d="M329.783 120.165L326.639 123.52L324.751 121.507" stroke="white" stroke-width="1.23514" stroke-linecap="round" stroke-linejoin="round"/>
<path fill-rule="evenodd" clip-rule="evenodd" d="M230.607 135.848C226.53 135.848 223.224 132.542 223.224 128.466C223.224 124.388 226.53 121.083 230.607 121.083C234.684 121.083 237.99 124.388 237.99 128.466C237.99 132.542 234.684 135.848 230.607 135.848Z" fill="url(#paint8_linear_4081_504479)"/>
<path d="M233.068 127.347L229.993 130.479L228.146 128.6" stroke="white" stroke-width="1.23514" stroke-linecap="round" stroke-linejoin="round"/>
<path d="M294.352 133.583H265.84C264.683 133.583 263.744 134.521 263.744 135.679V136.518C263.744 137.676 264.683 138.614 265.84 138.614H294.352C295.51 138.614 296.449 137.676 296.449 136.518V135.679C296.449 134.521 295.51 133.583 294.352 133.583Z" fill="white"/>
<path d="M294.352 145.533H265.84C264.683 145.533 263.744 146.471 263.744 147.629V148.468C263.744 149.625 264.683 150.564 265.84 150.564H294.352C295.51 150.564 296.449 149.625 296.449 148.468V147.629C296.449 146.471 295.51 145.533 294.352 145.533Z" fill="white"/>
<path d="M286.476 110.011C290.185 105.422 288.42 97.8406 288.42 97.8406C288.42 97.8406 280.642 97.7054 276.936 102.298C273.227 106.887 274.989 114.465 274.989 114.465C274.989 114.465 282.767 114.6 286.476 110.011Z" fill="url(#paint9_linear_4081_504479)"/>
<path d="M332.419 132.954H332.387C332.198 135.542 330.202 135.582 330.202 135.582C330.202 135.582 332.403 135.623 332.403 138.614C332.403 135.623 334.604 135.582 334.604 135.582C334.604 135.582 332.609 135.542 332.419 132.954ZM268.897 108.006H268.865C268.675 110.594 266.679 110.634 266.679 110.634C266.679 110.634 268.88 110.676 268.88 113.666C268.88 110.676 271.082 110.634 271.082 110.634C271.082 110.634 269.086 110.594 268.897 108.006ZM222.984 113.666H222.952C222.763 116.255 220.767 116.295 220.767 116.295C220.767 116.295 222.968 116.336 222.968 119.327C222.968 116.336 225.169 116.295 225.169 116.295C225.169 116.295 223.174 116.255 222.984 113.666ZM313.7 158.036C312.439 158.407 310.759 159.153 309.854 160.513C308.95 161.873 310.145 162.2 311.684 161.868C313.224 161.537 314.719 160.583 315.281 159.318C315.842 158.053 314.734 157.732 313.7 158.036Z" fill="#E1E4E5"/>
<path fill-rule="evenodd" clip-rule="evenodd" d="M241.639 159.437H242.181C242.312 159.437 242.417 159.544 242.417 159.674V160.215C242.417 160.346 242.311 160.452 242.181 160.452H241.639C241.577 160.452 241.517 160.427 241.472 160.382C241.428 160.338 241.403 160.278 241.403 160.215V159.674C241.403 159.642 241.409 159.612 241.421 159.583C241.433 159.554 241.45 159.528 241.472 159.506C241.494 159.484 241.52 159.467 241.549 159.455C241.577 159.443 241.608 159.437 241.639 159.437ZM243.517 159.437H244.059C244.189 159.437 244.295 159.544 244.295 159.674V160.215C244.295 160.346 244.189 160.452 244.059 160.452H243.517C243.455 160.451 243.395 160.426 243.35 160.382C243.306 160.338 243.281 160.278 243.281 160.215V159.674C243.281 159.544 243.387 159.437 243.517 159.437ZM245.397 159.437H245.938C246.068 159.437 246.175 159.544 246.175 159.674V160.215C246.175 160.346 246.068 160.452 245.938 160.452H245.397C245.334 160.452 245.274 160.427 245.23 160.382C245.185 160.338 245.16 160.278 245.16 160.215V159.674C245.16 159.642 245.166 159.612 245.178 159.583C245.19 159.554 245.207 159.528 245.229 159.506C245.251 159.484 245.277 159.467 245.306 159.455C245.335 159.443 245.365 159.437 245.397 159.437ZM247.275 159.437H247.816C247.946 159.437 248.053 159.544 248.053 159.674V160.215C248.053 160.346 247.946 160.452 247.816 160.452H247.275C247.212 160.452 247.152 160.427 247.107 160.382C247.063 160.338 247.037 160.278 247.037 160.215V159.674C247.038 159.611 247.063 159.551 247.108 159.507C247.152 159.462 247.212 159.437 247.275 159.437ZM249.153 159.437H249.694C249.825 159.437 249.932 159.544 249.932 159.674V160.215C249.932 160.346 249.825 160.452 249.694 160.452H249.153C249.09 160.452 249.03 160.427 248.986 160.382C248.942 160.338 248.917 160.278 248.916 160.215V159.674C248.916 159.544 249.023 159.437 249.153 159.437ZM243.586 161.485H244.128C244.258 161.485 244.364 161.592 244.364 161.721V162.264C244.364 162.394 244.258 162.501 244.128 162.501H243.586C243.524 162.501 243.463 162.476 243.419 162.431C243.375 162.387 243.35 162.327 243.35 162.264V161.723C243.35 161.691 243.355 161.661 243.367 161.632C243.379 161.603 243.396 161.577 243.418 161.555C243.44 161.532 243.467 161.515 243.495 161.503C243.524 161.491 243.555 161.485 243.586 161.485ZM245.464 161.485H246.006C246.136 161.485 246.242 161.592 246.242 161.721V162.264C246.242 162.394 246.136 162.501 246.006 162.501H245.464C245.402 162.5 245.342 162.475 245.297 162.431C245.253 162.387 245.228 162.327 245.228 162.264V161.723C245.228 161.691 245.234 161.661 245.245 161.632C245.257 161.603 245.275 161.577 245.297 161.555C245.319 161.532 245.345 161.515 245.373 161.503C245.402 161.491 245.433 161.485 245.464 161.485ZM247.342 161.485H247.884C248.015 161.485 248.122 161.592 248.122 161.721V162.264C248.122 162.394 248.015 162.501 247.884 162.501H247.342C247.28 162.5 247.22 162.475 247.176 162.431C247.131 162.387 247.106 162.327 247.106 162.264V161.723C247.106 161.592 247.212 161.485 247.342 161.485ZM245.397 157.237H245.938C246.068 157.237 246.175 157.344 246.175 157.474V158.015C246.175 158.146 246.068 158.252 245.938 158.252H245.397C245.334 158.251 245.274 158.226 245.23 158.182C245.185 158.138 245.16 158.078 245.16 158.015V157.474C245.16 157.442 245.166 157.412 245.178 157.383C245.19 157.354 245.207 157.328 245.229 157.306C245.251 157.284 245.277 157.267 245.306 157.255C245.335 157.243 245.365 157.237 245.397 157.237ZM247.275 157.237H247.816C247.946 157.237 248.053 157.344 248.053 157.474V158.015C248.053 158.146 247.946 158.252 247.816 158.252H247.275C247.212 158.252 247.152 158.227 247.107 158.182C247.063 158.138 247.038 158.078 247.037 158.015V157.474C247.038 157.411 247.063 157.351 247.108 157.307C247.152 157.262 247.212 157.237 247.275 157.237Z" fill="#E1E4E5"/>
</g>
<defs>
<filter id="filter0_ddddd_4081_504479" x="122.913" y="35.0569" width="309.175" height="321.187" filterUnits="userSpaceOnUse" color-interpolation-filters="sRGB">
<feFlood flood-opacity="0" result="BackgroundImageFix"/>
<feColorMatrix in="SourceAlpha" type="matrix" values="0 0 0 0 0 0 0 0 0 0 0 0 0 0 0 0 0 0 127 0" result="hardAlpha"/>
<feOffset dy="1.34733"/>
<feGaussianBlur stdDeviation="1.14523"/>
<feColorMatrix type="matrix" values="0 0 0 0 0.219608 0 0 0 0 0.219608 0 0 0 0 0.219608 0 0 0 0.0240741 0"/>
<feBlend mode="normal" in2="BackgroundImageFix" result="effect1_dropShadow_4081_504479"/>
<feColorMatrix in="SourceAlpha" type="matrix" values="0 0 0 0 0 0 0 0 0 0 0 0 0 0 0 0 0 0 127 0" result="hardAlpha"/>
<feOffset dy="5.92824"/>
<feGaussianBlur stdDeviation="2.3713"/>
<feColorMatrix type="matrix" values="0 0 0 0 0.219608 0 0 0 0 0.219608 0 0 0 0 0.219608 0 0 0 0.0392593 0"/>
<feBlend mode="normal" in2="effect1_dropShadow_4081_504479" result="effect2_dropShadow_4081_504479"/>
<feColorMatrix in="SourceAlpha" type="matrix" values="0 0 0 0 0 0 0 0 0 0 0 0 0 0 0 0 0 0 127 0" result="hardAlpha"/>
<feOffset dy="14.5511"/>
<feGaussianBlur stdDeviation="4.72912"/>
<feColorMatrix type="matrix" values="0 0 0 0 0.219608 0 0 0 0 0.219608 0 0 0 0 0.219608 0 0 0 0.05 0"/>
<feBlend mode="normal" in2="effect2_dropShadow_4081_504479" result="effect3_dropShadow_4081_504479"/>
<feColorMatrix in="SourceAlpha" type="matrix" values="0 0 0 0 0 0 0 0 0 0 0 0 0 0 0 0 0 0 127 0" result="hardAlpha"/>
<feOffset dy="28.0244"/>
<feGaussianBlur stdDeviation="9.26961"/>
<feColorMatrix type="matrix" values="0 0 0 0 0.219608 0 0 0 0 0.219608 0 0 0 0 0.219608 0 0 0 0.0607407 0"/>
<feBlend mode="normal" in2="effect3_dropShadow_4081_504479" result="effect4_dropShadow_4081_504479"/>
<feColorMatrix in="SourceAlpha" type="matrix" values="0 0 0 0 0 0 0 0 0 0 0 0 0 0 0 0 0 0 127 0" result="hardAlpha"/>
<feOffset dy="47.1565"/>
<feGaussianBlur stdDeviation="17.0437"/>
<feColorMatrix type="matrix" values="0 0 0 0 0.219608 0 0 0 0 0.219608 0 0 0 0 0.219608 0 0 0 0.0759259 0"/>
<feBlend mode="normal" in2="effect4_dropShadow_4081_504479" result="effect5_dropShadow_4081_504479"/>
<feBlend mode="normal" in="SourceGraphic" in2="effect5_dropShadow_4081_504479" result="shape"/>
</filter>
<linearGradient id="paint0_linear_4081_504479" x1="265.43" y1="205.079" x2="335.721" y2="41.6085" gradientUnits="userSpaceOnUse">
<stop stop-color="white"/>
<stop offset="1" stop-color="#EEEEEE"/>
</linearGradient>
<linearGradient id="paint1_linear_4081_504479" x1="252.363" y1="198.84" x2="250.293" y2="36.1574" gradientUnits="userSpaceOnUse">
<stop stop-color="white"/>
<stop offset="1" stop-color="#EEEEEE"/>
</linearGradient>
<linearGradient id="paint2_linear_4081_504479" x1="240.264" y1="117.231" x2="251.165" y2="117.231" gradientUnits="userSpaceOnUse">
<stop stop-color="#FF0379"/>
<stop offset="1" stop-color="#D437C1"/>
</linearGradient>
<linearGradient id="paint3_linear_4081_504479" x1="251.164" y1="142.496" x2="309.027" y2="142.496" gradientUnits="userSpaceOnUse">
<stop stop-color="#FF0379"/>
<stop offset="1" stop-color="#D437C1"/>
</linearGradient>
<linearGradient id="paint4_linear_4081_504479" x1="251.164" y1="142.496" x2="309.027" y2="142.496" gradientUnits="userSpaceOnUse">
<stop stop-color="#FF0379"/>
<stop offset="1" stop-color="#D437C1"/>
</linearGradient>
<linearGradient id="paint5_linear_4081_504479" x1="261.911" y1="174.464" x2="298.702" y2="174.464" gradientUnits="userSpaceOnUse">
<stop stop-color="#FF0379"/>
<stop offset="1" stop-color="#D437C1"/>
</linearGradient>
<linearGradient id="paint6_linear_4081_504479" x1="314.897" y1="145.534" x2="329.573" y2="145.534" gradientUnits="userSpaceOnUse">
<stop stop-color="#FF0379"/>
<stop offset="1" stop-color="#D437C1"/>
</linearGradient>
<linearGradient id="paint7_linear_4081_504479" x1="319.719" y1="121.424" x2="334.604" y2="121.424" gradientUnits="userSpaceOnUse">
<stop stop-color="#FF0379"/>
<stop offset="1" stop-color="#D437C1"/>
</linearGradient>
<linearGradient id="paint8_linear_4081_504479" x1="223.224" y1="128.467" x2="237.99" y2="128.467" gradientUnits="userSpaceOnUse">
<stop stop-color="#FF0379"/>
<stop offset="1" stop-color="#D437C1"/>
</linearGradient>
<linearGradient id="paint9_linear_4081_504479" x1="298.873" y1="91.9765" x2="255.732" y2="127.033" gradientUnits="userSpaceOnUse">
<stop stop-color="white"/>
<stop offset="1" stop-color="#EEEEEE"/>
</linearGradient>
<clipPath id="clip0_4081_504479">
<rect width="170" height="113.333" fill="white" transform="translate(193 82)"/>
</clipPath>
</defs>
</svg>
