<svg width="45" height="45" viewBox="0 0 45 45" fill="none" xmlns="http://www.w3.org/2000/svg">
<path fill-rule="evenodd" clip-rule="evenodd" d="M19.4582 8.51666H17.1243C15.3533 8.51666 13.916 9.954 13.916 11.725V35.1H6.12435C4.35335 35.1 2.91602 33.6645 2.91602 31.8917V6.225C2.91602 4.45216 4.35335 3.01666 6.12435 3.01666H27.7082L19.4582 8.51666ZM29.4993 5.12683V8.51666H24.4155L29.4993 5.12683Z" fill="#E71D7C"/>
<path fill-rule="evenodd" clip-rule="evenodd" d="M42.3333 13.5583V39.225C42.3333 40.9978 40.896 42.4333 39.125 42.4333H18.9583C17.1873 42.4333 15.75 40.9978 15.75 39.225V11.725C15.75 10.966 16.366 10.35 17.125 10.35H39.125C40.896 10.35 42.3333 11.7855 42.3333 13.5583ZM37.75 17.225C37.75 16.6163 37.508 16.0352 37.079 15.6043C36.6482 15.1753 36.067 14.9333 35.4583 14.9333H22.625C22.0163 14.9333 21.4352 15.1753 21.0043 15.6043C20.5753 16.0352 20.3333 16.6182 20.3333 17.225V22.725C20.3333 23.3318 20.5753 23.9148 21.0043 24.3457C21.4352 24.7747 22.0163 25.0167 22.625 25.0167H35.4583C36.067 25.0167 36.6482 24.7747 37.079 24.3457C37.508 23.9148 37.75 23.3318 37.75 22.725V17.225ZM23.0833 22.2667V17.6833H35V22.2667H23.0833ZM23.5417 36.0167H34.5417C35.3007 36.0167 35.9167 35.4007 35.9167 34.6417C35.9167 33.8827 35.3007 33.2667 34.5417 33.2667H23.5417C22.7827 33.2667 22.1667 33.8827 22.1667 34.6417C22.1667 35.4007 22.7827 36.0167 23.5417 36.0167ZM25.375 30.5167H32.7083C33.4673 30.5167 34.0833 29.9007 34.0833 29.1417C34.0833 28.3827 33.4673 27.7667 32.7083 27.7667H25.375C24.616 27.7667 24 28.3827 24 29.1417C24 29.9007 24.616 30.5167 25.375 30.5167Z" fill="#E71D7C"/>
</svg>
