<svg width="216" height="105" viewBox="0 0 216 105" fill="none" xmlns="http://www.w3.org/2000/svg">
<g opacity="0.05" clip-path="url(#clip0_2243_502052)">
<path opacity="0.5" d="M213 62.5C209.3 56.1 201.6 52.9 194.4 54C190.4 45 180.8 39 170.4 39C168.1 39 165.7 39.4 163.4 40C156.4 19.2 138.2 10.4 123.3 9.19999C105.8 7.69999 89.9999 15.4 82.6999 28.9C74.6999 25.8 65.7999 24.8 56.8999 26.5C40.4999 29.6 27.7999 40.7 22.7999 56.2C21.9999 56 21.1999 55.8 20.3999 55.7C15.1999 55.2 9.99989 57.4 7.09989 61.3C3.49989 66.2 2.79989 73.1 5.29989 78.8C7.59989 84 11.9999 87.3 17.3999 87.9C17.8999 88 18.3999 88 18.9999 88C23.8999 88 28.6999 85.5 31.5999 81.5C33.2999 85 35.9999 88.2 39.4999 90.5C45.0999 94.2 51.4999 95.1 56.1999 95.1C56.6999 95.1 57.1999 95.1 57.6999 95.1C65.5999 94.8 73.7999 91.6 78.7999 85.2C82.5999 98.2 96.2999 105 108.4 105C108.8 105 109.2 105 109.7 105C120.8 104.6 129.2 100.5 134.8 93.1C140.1 96.4 147.1 98.1 154.1 98.1C158.6 98.1 163.2 97.4 167.4 95.9C173.2 93.8 177.7 90.4 180.5 86.1C184 90.3 189.6 92.8 195.6 92.8H195.7C202 92.8 207.9 90 211.3 85.4C216.1 78.8 216.8 69.2 213 62.5Z" fill="#C7D5D8"/>
<path d="M186 48.6C185.5 48.9 184.9 48.7 184.6 48.2C184.3 47.7 184.5 47.1 185 46.8C186.1 46.2 187.3 45.8 188.5 45.4C184.7 37.3 176 32 166.5 32C159.2 32 151.8 35.7 146.8 41.9C146.5 42.3 145.8 42.4 145.4 42C145 41.7 144.9 41 145.3 40.6C148.7 36.5 153 33.4 157.7 31.6C151 11.7 133.6 3.3 119.4 2.1C102.7 0.799996 87.7 8 80.8 20.7C87.3 23.6 93.1 27.9 97.7 33.5C98 33.9 98 34.6 97.6 34.9C97.2 35.3 96.5 35.2 96.2 34.8C85.9 22.3 69.6 16.5 53.6 19.5C37.9 22.5 25.7 33.1 21 48C22.9 48.9 24.4 50.2 25.3 51.8C25.6 52.3 25.4 52.9 24.9 53.2C24.4 53.5 23.8 53.3 23.5 52.8C22.3 50.6 19.6 49.1 16.4 48.8C11.9 48.3 7.40003 50.2 4.90003 53.6C1.70003 57.9 1.10003 64 3.30003 69.1C5.30003 73.6 9.10003 76.5 13.8 77C18.9 77.6 24.3 74.7 26.8 70.2C26.3 68.7 26 67.1 25.9 65.5C25.9 64.9 26.3 64.5 26.8 64.4C27.3 64.4 27.8 64.8 27.9 65.3C28.2 70.8 31.6 76.3 36.7 79.7C42.5 83.5 49.2 84.1 53.7 83.9C64.6 83.5 76.2 77.1 77.6 63.9C77.7 63.4 78.2 63 78.7 63C79.2 63.1 79.6 63.5 79.6 64.1C79.2 67.8 78.1 71 76.4 73.8C79.4 87.4 93.6 94.2 105.6 93.7C116 93.3 123.9 89.6 129.1 82.7C128.6 82.4 128.2 82 127.7 81.6C122.9 77.5 119.9 71.6 119.9 65.8C119.9 65.2 120.3 64.8 120.9 64.8C121.4 64.8 121.9 65.2 121.9 65.8C122 71 124.7 76.3 129 80.1C136.8 86.8 151.3 88.8 162.7 84.7C171.2 81.6 176.6 75.7 177.9 67.9C178 67.4 178.5 67 179.1 67.1C179.6 67.2 180 67.7 179.9 68.3C179.5 70.7 178.7 72.9 177.6 75C180.7 79.1 185.9 81.6 191.6 81.6C197.3 81.6 202.6 79.2 205.7 75C210 69.2 210.7 60.4 207.4 54.5C203.4 47.3 193.5 44.6 186 48.6ZM39.5 31.5C40.1 30.9 40.9 30.4 41.8 30.1C42.1 30 42.3 30.2 42.4 30.4C42.5 30.7 42.3 30.9 42.1 31C41.4 31.2 40.8 31.6 40.2 32.1C40.1 32.2 40 32.2 39.8 32.2C39.7 32.2 39.5 32.2 39.4 32.1C39.3 32 39.3 31.7 39.5 31.5ZM28.9 44.9C28.8 45.1 28.6 45.2 28.4 45.2C28.3 45.2 28.3 45.2 28.2 45.2C27.9 45.1 27.8 44.8 27.9 44.6C29.6 39.9 32.7 35.8 36.8 33C37 32.8 37.3 32.9 37.5 33.1C37.7 33.3 37.6 33.6 37.4 33.8C33.6 36.5 30.5 40.5 28.9 44.9ZM63.8 73.9C59.6 76.3 55 77.5 50.7 77.5C49.7 77.5 48.8 77.4 47.9 77.3C42.1 76.5 36.9 73.3 34.2 68.7C34.1 68.5 34.1 68.2 34.4 68C34.6 67.9 34.9 67.9 35.1 68.2C37.7 72.6 42.6 75.6 48.1 76.3C53.1 77 58.5 75.8 63.4 73C63.6 72.9 63.9 72.9 64.1 73.2C64.1 73.5 64 73.8 63.8 73.9ZM68.9 70.1C68.2 70.9 67.4 71.7 66.5 72.4C66.4 72.5 66.3 72.5 66.2 72.5C66.1 72.5 65.9 72.4 65.8 72.3C65.6 72.1 65.7 71.8 65.9 71.6C66.7 71 67.4 70.3 68.1 69.5C68.3 69.3 68.6 69.3 68.8 69.4C69 69.6 69 69.9 68.9 70.1ZM142.4 19.3C142.2 19.1 142.2 18.8 142.4 18.6C142.6 18.4 142.9 18.4 143.1 18.6C146.2 21.4 148.7 24.6 150.6 28.3C150.7 28.5 150.6 28.8 150.4 29C150.3 29 150.2 29.1 150.2 29.1C150 29.1 149.8 29 149.8 28.8C147.8 25.1 145.4 22 142.4 19.3ZM163.8 77.6C159.5 79.9 154.7 81 149.9 81C148 81 146 80.8 144.1 80.4C143.8 80.3 143.7 80.1 143.7 79.8C143.8 79.5 144 79.4 144.3 79.4C150.8 80.7 157.5 79.7 163.4 76.6C163.6 76.5 163.9 76.6 164.1 76.8C164.2 77.2 164.1 77.5 163.8 77.6ZM168.9 72.7C168.4 73.5 167.8 74.2 167.1 74.8C167 74.9 166.9 74.9 166.8 74.9C166.7 74.9 166.5 74.8 166.4 74.7C166.2 74.5 166.2 74.2 166.4 74C167 73.4 167.6 72.8 168 72.1C168.1 71.9 168.5 71.8 168.7 71.9C169 72.2 169 72.5 168.9 72.7ZM198.9 74.6C198.5 75.1 197.9 75.5 197.4 75.9C197.3 76 197.2 76 197.1 76C196.9 76 196.8 75.9 196.7 75.8C196.5 75.6 196.6 75.3 196.8 75.1C197.3 74.8 197.7 74.4 198.1 73.9C198.3 73.7 198.6 73.7 198.8 73.9C199.1 74 199.1 74.4 198.9 74.6ZM204.4 62.7C204.2 65.8 203.2 68.9 201.6 71.6C201.5 71.8 201.3 71.8 201.2 71.8C201.1 71.8 201 71.8 200.9 71.7C200.7 71.6 200.6 71.2 200.7 71C202.3 68.5 203.2 65.5 203.4 62.6C203.4 61.8 203.4 60.9 203.1 60.1C203 59.8 203.1 59.6 203.4 59.4C203.7 59.3 203.9 59.4 204.1 59.7C204.4 60.7 204.4 61.8 204.4 62.7Z" fill="#F9F5E5"/>
<path d="M73.7999 59.5C64.0999 69.4 47.8999 73.4 34.8999 68C33.1999 67.3 31.4999 66.3 30.0999 65.1C28.5999 63.7 27.7999 62.3 26.8999 60.5C26.1999 59.1 24.4999 59.4 23.6999 60.5C20.2999 65.1 12.4999 69 7.09993 65.5C4.69993 64 3.09993 61.4 2.49993 58.7C1.59993 62.1 1.89993 65.8 3.29993 69.1C5.29993 73.6 9.09993 76.5 13.7999 77C18.8999 77.6 24.2999 74.7 26.7999 70.2C26.2999 68.7 25.9999 67.1 25.8999 65.5C25.8999 64.9 26.2999 64.5 26.7999 64.4C27.2999 64.4 27.7999 64.8 27.8999 65.3C28.1999 70.8 31.5999 76.3 36.6999 79.7C42.4999 83.5 49.1999 84.1 53.6999 83.9C64.5999 83.5 76.1999 77.1 77.5999 63.9C77.6999 63.4 78.0999 63 78.5999 63C77.9999 62 77.3999 60.9 76.8999 59.8C76.3999 58.8 74.5999 58.7 73.7999 59.5ZM63.7999 73.9C59.5999 76.3 54.9999 77.5 50.6999 77.5C49.6999 77.5 48.7999 77.4 47.8999 77.3C42.0999 76.5 36.8999 73.3 34.1999 68.7C34.0999 68.5 34.0999 68.2 34.3999 68C34.5999 67.9 34.8999 67.9 35.0999 68.2C37.6999 72.6 42.5999 75.6 48.0999 76.3C53.0999 77 58.4999 75.8 63.3999 73C63.5999 72.9 63.8999 72.9 64.0999 73.2C64.0999 73.5 63.9999 73.8 63.7999 73.9ZM68.8999 70.1C68.1999 70.9 67.3999 71.7 66.4999 72.4C66.3999 72.5 66.2999 72.5 66.1999 72.5C66.0999 72.5 65.8999 72.4 65.7999 72.3C65.5999 72.1 65.6999 71.8 65.8999 71.6C66.6999 71 67.3999 70.3 68.0999 69.5C68.2999 69.3 68.5999 69.3 68.7999 69.4C68.9999 69.6 68.9999 69.9 68.8999 70.1Z" fill="#CEECF4"/>
<path d="M176.7 67.7C174.2 70.1 171.3 72.1 168.2 73.7C167.9 74.1 167.5 74.5 167.1 74.9C167 75 166.9 75 166.8 75C166.7 75 166.5 74.9 166.4 74.8C166.3 74.7 166.3 74.6 166.3 74.5C157 78.7 146 79.2 136.3 75.9C132.4 74.6 128.8 72.6 125.5 70.2C124.8 69.6 123.7 70 123.1 70.5C123 70.6 122.8 70.7 122.7 70.8C123.8 74.3 126 77.6 129 80.1C136.8 86.8 151.3 88.8 162.7 84.7C171.2 81.6 176.6 75.7 177.9 67.9C178 67.4 178.4 67.1 178.9 67.1C178.2 66.9 177.3 67.1 176.7 67.7ZM163.8 77.6C159.5 79.9 154.7 81 149.9 81C148 81 146 80.8 144.1 80.4C143.8 80.3 143.7 80.1 143.7 79.8C143.8 79.5 144 79.4 144.3 79.4C150.8 80.7 157.5 79.7 163.4 76.6C163.6 76.5 163.9 76.6 164.1 76.8C164.2 77.2 164.1 77.5 163.8 77.6Z" fill="#CEECF4"/>
<path d="M102.9 77.7C95.8 77.5 88.9 74.5 83.8 69.6C82.2 68.1 80.8 66.4 79.6 64.7C79.2 68.2 78.1 71.3 76.5 74C79.5 87.6 93.7 94.4 105.7 93.9C116.1 93.5 124 89.8 129.2 82.9C128.7 82.6 128.3 82.2 127.8 81.8C124.7 79.2 122.4 75.8 121.1 72.3C115.9 75.9 109.4 77.9 102.9 77.7Z" fill="#CEECF4"/>
<path d="M207.6 72.1C209.2 68.8 209.8 64.9 209.5 61.3C209.4 61.6 209.3 61.9 209.2 62.2C208.3 65 206.6 67.6 204.5 69.6C200.1 73.8 193.7 75 187.9 73.2C184.8 72.3 182.1 70.5 179.9 68.1C179.9 68.2 179.9 68.3 179.9 68.4C179.5 70.8 178.7 73 177.6 75.1C180.7 79.2 185.9 81.7 191.6 81.7C196.8 81.7 201.6 79.7 204.8 76.2C205.6 75.1 206.3 74 206.8 72.8C207.1 72.6 207.3 72.3 207.6 72.1ZM198.9 74.6C198.5 75.1 197.9 75.5 197.4 75.9C197.3 76 197.2 76 197.1 76C196.9 76 196.8 75.9 196.7 75.8C196.5 75.6 196.6 75.3 196.8 75.1C197.3 74.8 197.7 74.4 198.1 73.9C198.3 73.7 198.6 73.7 198.8 73.9C199.1 74 199.1 74.4 198.9 74.6Z" fill="#CEECF4"/>
<path d="M117.4 3C115.6 1.9 113.4 1.7 111.3 1.7C107.4 1.7 103.4 2.5 99.7998 4.1C96.2998 4.9 92.8998 7.2 90.8998 10.1C87.9998 14.4 90.2998 19.7 95.0998 21.1C97.5998 21.8 100.3 21.3 102.8 20.7C105.1 20.2 107.3 19.4 109.5 18.4C113.5 16.7 118.5 14.3 119.9 9.8C120.7 7.3 119.7 4.4 117.4 3Z" fill="white"/>
<path d="M53.4999 22C51.1999 20.7 48.4999 21 45.9999 21.6C41.8999 22.6 38.1999 24.6 34.8999 27.2C33.6999 28.1 32.5999 29.2 31.8999 30.5C31.5999 30.8 31.3999 31 31.0999 31.3C29.5999 32.9 28.4999 35.1 29.0999 37.4C29.7999 39.8 31.9999 41 34.2999 41.3C38.5999 41.9 42.9999 39.9 46.5999 37.8C49.9999 35.8 54.0999 33.4 55.7999 29.8C57.1999 27 56.2999 23.6 53.4999 22Z" fill="white"/>
<path d="M13.2 52.2C13.2 52.1 13.2 52.1 13.2 52.2C13.2 51.6 13.1 51.2 12.8 50.7C12.5 50.2 12 49.7 11.4 49.5C11.2 49.4 11.1 49.4 10.9 49.3C10.6 49.3 10.3 49.2 10.1 49.2C9.99995 49.2 9.89995 49.2 9.69995 49.2C9.49995 49.2 9.39995 49.2 9.19995 49.3C8.89995 49.3 8.89995 49.3 8.69995 49.4C8.59995 49.4 8.59995 49.4 8.49995 49.5C8.39995 49.5 8.29995 49.6 8.09995 49.6C7.79995 49.7 7.39995 49.8 7.09995 50C6.99995 50.1 6.79995 50.2 6.69995 50.3C6.29995 50.5 5.99995 50.9 5.79995 51.3C5.59995 51.6 5.49995 51.9 5.39995 52.2C5.39995 52.4 5.39995 52.5 5.29995 52.7C5.29995 52.9 5.29995 53 5.19995 53.2C5.19995 53.2 5.19995 53.2 5.19995 53.3C5.19995 53.6 5.29995 53.9 5.29995 54.2C5.29995 54.2 5.29995 54.2 5.29995 54.3C5.39995 54.7 5.59995 55.1 5.89995 55.4C6.09995 55.8 6.39995 56.1 6.79995 56.3C7.09995 56.4 7.29995 56.5 7.59995 56.6C8.09995 56.7 8.59995 56.7 9.19995 56.6C9.39995 56.6 9.59995 56.5 9.69995 56.5C9.89995 56.5 9.99995 56.4 10.1 56.3C10.4 56.2 10.7 56.1 10.9 55.8C11.1 55.6 11.3 55.5 11.5 55.3C11.6 55.2 11.7 55.1 11.7 55.1L11.8 55C11.9 54.9 12 54.8 12.1 54.6C12.3 54.4 12.4 54.2 12.5 54C12.6 53.9 12.6 53.8 12.7 53.6C12.9 53.2 13 52.8 13 52.4C13.2 52.3 13.2 52.2 13.2 52.2Z" fill="white"/>
<path d="M168.8 33.2C166.4 30.5 162.4 31.9 159.6 32.9C158.2 33.4 156.9 33.9 155.6 34.7C154.3 35.5 152.8 36.6 152 38C151.5 39 151.3 40 151.5 41C151.5 41.9 151.8 42.9 152.4 43.6C153.5 45 155.2 45.5 156.9 45.3C159.8 45 162.6 43.9 165.1 42.3C166.3 41.5 167.5 40.6 168.4 39.5C170.1 37.7 170.5 35.1 168.8 33.2Z" fill="white"/>
<path d="M195.3 48.5C195.1 48 194.9 47.6 194.5 47.2C194.2 47 194 46.8 193.7 46.6C193.1 46.2 192.4 46.1 191.7 46.1C191.5 46.1 191.4 46.1 191.2 46.1C190.8 46.2 190.2 46.2 189.7 46.3C189.2 46.4 188.8 46.6 188.3 46.9C187.9 47.1 187.6 47.3 187.3 47.6C186.8 48.1 186.5 48.7 186.3 49.4C186.3 49.6 186.2 49.9 186.2 50.1C186.2 50.1 186.2 50.1 186.2 50.2C186.2 50.3 186.2 50.4 186.2 50.5C186.2 50.7 186.2 50.9 186.2 51.1C186.2 51.3 186.3 51.5 186.3 51.7C186.4 52.3 186.6 52.5 186.9 52.9C186.9 53 186.9 53 187 53.1C187.2 53.3 187.4 53.6 187.6 53.8C188 54.2 188.5 54.5 189.1 54.7C189.2 54.7 189.3 54.7 189.4 54.8C189.5 54.8 189.6 54.8 189.7 54.9C189.8 54.9 189.9 54.9 190 54.9H190.1C190.7 55 190.5 55 191.1 54.9C191.3 54.9 191.6 54.8 191.8 54.8H191.9C192.2 54.7 192.5 54.5 192.8 54.4C192.8 54.4 192.8 54.4 192.9 54.4C193 54.4 193.1 54.3 193.1 54.2C193.4 54 193.7 53.8 193.9 53.6L194 53.5L194.1 53.4C194.3 53.1 194.5 52.9 194.7 52.6C194.9 52.3 195 51.9 195.1 51.6V51.5C195.2 51.1 195.2 50.6 195.3 50.2C195.7 49.4 195.6 48.9 195.3 48.5Z" fill="white"/>
<path d="M24.3999 52.3C22.7999 49.6 19.6999 48.1 16.4999 47.8C11.7999 47.3 6.89991 49.2 4.09991 53C-2.60009 62 1.79991 76.7 13.5999 78C19.2999 78.6 25.1999 75.4 27.7999 70.3" stroke="#272A33" stroke-width="2" stroke-miterlimit="10" stroke-linecap="round" stroke-linejoin="round"/>
<path d="M26.8999 65.5C27.1999 71.6 30.9999 77.3 36.1999 80.7C41.2999 84.1 47.6999 85.3 53.7999 85.1C64.2999 84.7 77.0999 78.7 78.5999 64.2" stroke="#272A33" stroke-width="2" stroke-miterlimit="10" stroke-linecap="round" stroke-linejoin="round"/>
<path d="M75.3999 74C78.2999 87.8 92.4999 95.4 105.7 94.9C112.6 94.6 123.5 92.9 130.6 82.6" stroke="#272A33" stroke-width="2" stroke-miterlimit="10" stroke-linecap="round" stroke-linejoin="round"/>
<path d="M120.9 65.9C121 71.7 124 77.2 128.4 80.9C142.3 92.8 175.2 90 178.9 68.2" stroke="#272A33" stroke-width="2" stroke-miterlimit="10" stroke-linecap="round" stroke-linejoin="round"/>
<path d="M176.8 75.5C183.8 85 199.7 85 206.6 75.7C211.1 69.7 212 60.5 208.3 54.1C203.9 46.4 193.4 43.6 185.4 47.8" stroke="#272A33" stroke-width="2" stroke-miterlimit="10" stroke-linecap="round" stroke-linejoin="round"/>
<path d="M20 47.7C30.5 14.6 74.9 7.19999 96.9 34.2" stroke="#272A33" stroke-width="2" stroke-miterlimit="10" stroke-linecap="round" stroke-linejoin="round"/>
<path d="M79.5 21C94.4 -8.3 147 -6.1 159 32.2" stroke="#272A33" stroke-width="2" stroke-miterlimit="10" stroke-linecap="round" stroke-linejoin="round"/>
<path d="M189.7 45.6C185.9 36.7 176.5 31 166.6 31C158.9 31 151.3 34.9 146.1 41.3" stroke="#272A33" stroke-width="2" stroke-miterlimit="10" stroke-linecap="round" stroke-linejoin="round"/>
<path d="M144.2 80C150.7 81.3 157.7 80.3 163.6 77.2" stroke="#272A33" stroke-miterlimit="10" stroke-linecap="round" stroke-linejoin="round"/>
<path d="M166.8 74.5C167.4 73.9 168 73.2 168.5 72.5" stroke="#272A33" stroke-miterlimit="10" stroke-linecap="round" stroke-linejoin="round"/>
<path d="M203.6 59.9C204 60.7 204 61.7 203.9 62.6C203.7 65.7 202.8 68.7 201.1 71.3" stroke="#272A33" stroke-miterlimit="10" stroke-linecap="round" stroke-linejoin="round"/>
<path d="M198.6 74.2C198.2 74.7 197.7 75.1 197.2 75.5" stroke="#272A33" stroke-miterlimit="10" stroke-linecap="round" stroke-linejoin="round"/>
<path d="M34.5 68.5C37.3 73.2 42.5 76.2 47.9 76.9C53.3 77.6 58.8 76.2 63.6 73.5" stroke="#272A33" stroke-miterlimit="10" stroke-linecap="round" stroke-linejoin="round"/>
<path d="M66.2 71.9C67 71.2 67.8 70.5 68.5 69.7" stroke="#272A33" stroke-miterlimit="10" stroke-linecap="round" stroke-linejoin="round"/>
<path d="M28.5 44.8C30.1 40.2 33.2 36.2 37.2 33.4" stroke="#272A33" stroke-miterlimit="10" stroke-linecap="round" stroke-linejoin="round"/>
<path d="M39.8999 31.8C40.4999 31.2 41.1999 30.8 41.9999 30.5" stroke="#272A33" stroke-miterlimit="10" stroke-linecap="round" stroke-linejoin="round"/>
<path d="M142.7 18.9C145.7 21.6 148.3 24.9 150.1 28.5" stroke="#272A33" stroke-miterlimit="10" stroke-linecap="round" stroke-linejoin="round"/>
</g>
<defs>
<clipPath id="clip0_2243_502052">
<rect width="215.4" height="104.9" fill="white"/>
</clipPath>
</defs>
</svg>
