<svg width="74" height="74" viewBox="0 0 74 74" fill="none" xmlns="http://www.w3.org/2000/svg">
<path fill-rule="evenodd" clip-rule="evenodd" d="M37.123 44.2619C33.1044 44.2619 29.8363 40.9938 29.8363 36.9752C29.8363 32.9566 33.1044 29.6885 37.123 29.6885C41.1416 29.6885 44.4097 32.9566 44.4097 36.9752C44.4097 40.9938 41.1416 44.2619 37.123 44.2619ZM73.5565 33.3318V26.0451H66.2698V29.6885L62.6264 33.3318H51.1827C50.862 32.1004 50.3811 30.9458 49.769 29.8637L57.7334 22.4018H62.8851L65.461 24.5365L70.6127 18.8491L65.461 13.1626L62.8851 15.1151H58.9831V11.2129L60.9359 8.63691L55.4709 3.48587L49.7181 8.63691L51.6964 11.2129V16.3648L44.1292 24.2706C43.0762 23.6877 41.9577 23.2256 40.7663 22.9159V11.4717L44.4097 7.82836H48.053V0.541656H40.7663V4.18501L37.123 7.82836L33.4796 4.18501V0.541656H26.1929V7.82836H29.8363L33.4796 11.4717V22.9159C32.2482 23.2365 31.0932 23.7172 30.0112 24.3293L22.5496 16.3648V11.2129L24.6846 8.63691L18.9973 3.48587L13.31 8.63691L15.2629 11.2129V15.1151H11.3608L8.78498 13.1626L3.63328 18.6277L8.78498 24.38L11.3608 22.4018H16.5125L24.4186 29.9687C23.8357 31.0216 23.373 32.1405 23.0633 33.3318H11.6195L7.97616 29.6885V26.0451H0.689453V33.3318H4.33281L7.97616 36.9752L4.33281 40.6185H0.689453V47.9052H7.97616V44.2619L11.6195 40.6185H23.0633C23.3839 41.85 23.8648 43.0046 24.4769 44.0867L16.5125 51.5486H11.3608L8.78498 49.4138L3.63328 55.1012L8.78498 60.7877L11.3608 58.8353H15.2629V62.7375L13.31 65.3135L18.7751 70.4645L24.5279 65.3135L22.5496 62.7375V57.5856L30.1168 49.6798C31.1697 50.2627 32.2882 50.7248 33.4796 51.0345V62.4786L29.8363 66.122H26.1929V73.4087H33.4796V69.7654L37.123 66.122L40.7663 69.7654V73.4087H48.053V66.122H44.4097L40.7663 62.4786V51.0345C41.9978 50.7139 43.1527 50.2332 44.2348 49.6211L51.6964 57.5856V62.7375L49.5614 65.3135L55.2487 70.4645L60.9359 65.3135L58.9831 62.7375V58.8353H62.8851L65.461 60.7877L70.6127 55.3227L65.461 49.5704L62.8851 51.5486H57.7334L49.8273 43.9817C50.4103 42.9288 50.873 41.8099 51.1827 40.6185H62.6264L66.2698 44.2619V47.9052H73.5565V40.6185H69.9131L66.2698 36.9752L69.9131 33.3318H73.5565Z" fill="url(#paint0_linear_2488_499409)"/>
<defs>
<linearGradient id="paint0_linear_2488_499409" x1="6.62677" y1="0.541654" x2="68.8807" y2="8.73818" gradientUnits="userSpaceOnUse">
<stop stop-color="#E71D7C"/>
<stop offset="0.65625" stop-color="#3E4581"/>
<stop offset="1" stop-color="#E71D7C"/>
</linearGradient>
</defs>
</svg>
