
<svg width="64" height="64" viewBox="0 0 64 64" fill="none" xmlns="http://www.w3.org/2000/svg">
<rect x="0.34375" y="0.37146" width="63.2642" height="63.4225" rx="31.6321" fill="#ECEEFF"/>
<path d="M37.8289 23.6138C38.4066 23.6138 38.9714 23.4428 39.4521 23.1223L43.6815 20.3027V33.8559C43.6815 34.664 43.0264 35.3191 42.2184 35.3191H40.7552V38.2454H42.2184C44.6426 38.2454 46.6078 36.2802 46.6078 33.8559V20.3027C46.6078 17.9655 44.003 16.5714 42.0583 17.8679L37.8289 20.6875H27.5867C25.1625 20.6875 23.1973 22.6527 23.1973 25.0769V26.5401H26.1236V25.0769C26.1236 24.2689 26.7787 23.6138 27.5867 23.6138H37.8289Z" fill="url(#paint0_linear_2853_502340)"/>
<path fill-rule="evenodd" clip-rule="evenodd" d="M22.8315 41.813C23.3504 41.3979 23.9951 41.1718 24.6596 41.1718H36.3648C37.1729 41.1718 37.828 40.5167 37.828 39.7086V30.9296C37.828 30.1216 37.1729 29.4665 36.3648 29.4665H21.7332C20.9252 29.4665 20.2701 30.1216 20.2701 30.9296V43.8622L22.8315 41.813ZM24.6596 44.0981H36.3648C38.7891 44.0981 40.7543 42.1329 40.7543 39.7086V30.9296C40.7543 28.5054 38.7891 26.5402 36.3648 26.5402H21.7332C19.309 26.5402 17.3438 28.5054 17.3438 30.9296V43.8622C17.3438 46.3159 20.1821 47.6801 22.0981 46.1472L24.6596 44.0981Z" fill="url(#paint1_linear_2853_502340)"/>
<path fill-rule="evenodd" clip-rule="evenodd" d="M23.1973 35.3191C23.1973 34.511 23.8523 33.8559 24.6604 33.8559H33.4394C34.2475 33.8559 34.9026 34.511 34.9026 35.3191C34.9026 36.1271 34.2475 36.7822 33.4394 36.7822H24.6604C23.8523 36.7822 23.1973 36.1271 23.1973 35.3191Z" fill="url(#paint2_linear_2853_502340)"/>
<defs>
<linearGradient id="paint0_linear_2853_502340" x1="25.1048" y1="17.3715" x2="45.0181" y2="20.3119" gradientUnits="userSpaceOnUse">
<stop stop-color="#E71D7C"/>
<stop offset="0.65625" stop-color="#3E4581"/>
<stop offset="1" stop-color="#E71D7C"/>
</linearGradient>
<linearGradient id="paint1_linear_2853_502340" x1="19.2513" y1="26.5402" x2="39.1382" y2="29.5666" gradientUnits="userSpaceOnUse">
<stop stop-color="#E71D7C"/>
<stop offset="0.65625" stop-color="#3E4581"/>
<stop offset="1" stop-color="#E71D7C"/>
</linearGradient>
<linearGradient id="paint2_linear_2853_502340" x1="24.151" y1="33.8559" x2="32.1157" y2="38.0505" gradientUnits="userSpaceOnUse">
<stop stop-color="#E71D7C"/>
<stop offset="0.65625" stop-color="#3E4581"/>
<stop offset="1" stop-color="#E71D7C"/>
</linearGradient>
</defs>
</svg>
