
<svg width="15" height="16" viewBox="0 0 15 16" fill="none" xmlns="http://www.w3.org/2000/svg">
<path d="M12.5705 13.0737H4.59716C4.19849 13.0737 3.85709 12.9316 3.57294 12.6475C3.2888 12.3634 3.14697 12.0222 3.14746 11.624V1.47607C3.14746 1.0774 3.28953 0.735999 3.57367 0.451857C3.85781 0.167715 4.19898 0.0258852 4.59716 0.0263684H9.67112L14.0202 4.37548V11.624C14.0202 12.0227 13.8782 12.3641 13.594 12.6482C13.3099 12.9324 12.9687 13.0742 12.5705 13.0737ZM8.94627 5.10033V1.47607H4.59716V11.624H12.5705V5.10033H8.94627ZM1.69775 15.9731C1.29908 15.9731 0.957678 15.831 0.673536 15.5469C0.389394 15.2628 0.247565 14.9216 0.248048 14.5234V4.37548H1.69775V14.5234H9.67112V15.9731H1.69775Z" fill="#212529"/>
</svg>
