<svg width="60" height="46" viewBox="0 0 60 46" fill="none" xmlns="http://www.w3.org/2000/svg">
<path d="M57.5901 42.3131H54.133V19.4476C54.133 18.5007 53.364 17.733 52.4155 17.733H42.9329C41.9844 17.733 41.2155 18.5007 41.2155 19.4476V42.3131H36.5188V12.6546C36.5188 11.7077 35.7499 10.94 34.8014 10.94H25.3188C24.3703 10.94 23.6013 11.7077 23.6013 12.6546V42.3131H18.9047V17.6331C18.9047 16.6862 18.1357 15.9186 17.1872 15.9186H7.70451C6.75601 15.9186 5.98708 16.6862 5.98708 17.6331V42.3131H2.52993C1.58143 42.3131 0.8125 43.0808 0.8125 44.0277C0.8125 44.9746 1.58143 45.7423 2.52993 45.7423H57.5901C58.5386 45.7423 59.3075 44.9746 59.3075 44.0277C59.3075 43.0808 58.5386 42.3131 57.5901 42.3131ZM9.42194 42.3131V19.3477H15.4698V42.3131H9.42194ZM27.0361 42.3131V14.3691H33.084V42.3131H27.0361ZM44.6504 42.3131V21.1622H50.6982V42.3131H44.6504Z" fill="#212529"/>
<path d="M58.0517 6.52434C58.1087 5.80776 57.691 4.92784 56.7346 4.70529L51.1948 3.35878C50.2743 3.1344 49.3474 3.69963 49.1238 4.61979C48.9001 5.53994 49.4647 6.46718 50.3848 6.69076L51.9517 7.07163L47.5101 9.81254L30.6689 0.224652C30.1847 -0.0511657 29.5962 -0.0743695 29.0921 0.162584L12.3517 8.02013L4.34914 3.02581C3.54592 2.52412 2.48826 2.76919 1.9868 3.57253C1.48546 4.37575 1.7303 5.43341 2.53363 5.93487L11.3278 11.4232C11.8212 11.7313 12.4374 11.7681 12.9641 11.5208L29.7446 3.64431L46.6971 13.2956C47.1382 13.527 47.7531 13.6469 48.4459 13.2647L53.8302 9.94194L53.4716 11.6213C53.0771 13.8552 56.2393 14.4896 56.8251 12.3375L58.0137 6.77158C58.0272 6.69362 58.0322 6.70459 58.0517 6.52434Z" fill="#E71D7C"/>
</svg>
