
<svg width="60" height="46" viewBox="0 0 60 46" fill="none" xmlns="http://www.w3.org/2000/svg">
<path d="M57.5862 42.3131H54.1291V19.4476C54.1291 18.5007 53.3601 17.733 52.4116 17.733H42.929C41.9805 17.733 41.2116 18.5007 41.2116 19.4476V42.3131H36.5149V12.6546C36.5149 11.7077 35.746 10.94 34.7975 10.94H25.3149C24.3664 10.94 23.5974 11.7077 23.5974 12.6546V42.3131H18.9008V17.6331C18.9008 16.6862 18.1318 15.9186 17.1833 15.9186H7.7006C6.7521 15.9186 5.98317 16.6862 5.98317 17.6331V42.3131H2.52602C1.57752 42.3131 0.808594 43.0808 0.808594 44.0277C0.808594 44.9746 1.57752 45.7423 2.52602 45.7423H57.5862C58.5347 45.7423 59.3036 44.9746 59.3036 44.0277C59.3036 43.0808 58.5347 42.3131 57.5862 42.3131ZM9.41803 42.3131V19.3477H15.4659V42.3131H9.41803ZM27.0322 42.3131V14.3691H33.0801V42.3131H27.0322ZM44.6464 42.3131V21.1622H50.6943V42.3131H44.6464Z" fill="#212529"/>
<path d="M58.0478 6.52434C58.1047 5.80776 57.6871 4.92784 56.7307 4.70529L51.1909 3.35878C50.2704 3.1344 49.3435 3.69963 49.1199 4.61979C48.8962 5.53994 49.4608 6.46718 50.3809 6.69076L51.9478 7.07163L47.5062 9.81254L30.665 0.224652C30.1808 -0.0511657 29.5923 -0.0743695 29.0882 0.162584L12.3478 8.02013L4.34523 3.02581C3.54201 2.52412 2.48435 2.76919 1.98289 3.57253C1.48155 4.37575 1.72639 5.43341 2.52973 5.93487L11.3239 11.4232C11.8173 11.7313 12.4334 11.7681 12.9602 11.5208L29.7407 3.64431L46.6932 13.2956C47.1343 13.527 47.7492 13.6469 48.442 13.2647L53.8263 9.94194L53.4677 11.6213C53.0732 13.8552 56.2354 14.4896 56.8212 12.3375L58.0098 6.77158C58.0233 6.69362 58.0283 6.70459 58.0478 6.52434Z" fill="#E71D7C"/>
</svg>
