<svg width="39" height="39" viewBox="0 0 39 39" fill="none" xmlns="http://www.w3.org/2000/svg">
<rect x="1.26925" y="0.346154" width="37.3846" height="37.3846" rx="2.42308" fill="#FFF1F2"/>
<path d="M26.726 13.7061H22.9309V11.3568C22.9309 10.8682 22.5338 10.4711 22.0452 10.4711H17.8776C17.389 10.4711 16.9918 10.8682 16.9918 11.3568V13.7061H13.1968C12.8844 13.7061 12.6323 13.9582 12.6323 14.2706C12.6323 14.5829 12.8844 14.835 13.1968 14.835H26.7282C27.0406 14.835 27.2927 14.5829 27.2927 14.2706C27.2905 13.9582 27.0383 13.7061 26.726 13.7061ZM18.1208 13.7061V11.6H21.7998V13.7061H18.1208ZM24.7448 16.1625C24.4325 16.1625 24.1803 16.4146 24.1803 16.727V26.4768H15.7424V16.727C15.7424 16.4146 15.4903 16.1625 15.178 16.1625C14.8656 16.1625 14.6135 16.4146 14.6135 16.727V26.7021C14.6135 27.1996 15.0285 27.6057 15.5394 27.6057H24.3878C24.8987 27.6057 25.3137 27.1996 25.3137 26.7021V16.727C25.3093 16.4146 25.0572 16.1625 24.7448 16.1625Z" fill="#DC3545"/>
<path d="M19.0198 24.1231V16.7271C19.0198 16.4147 18.7677 16.1626 18.4553 16.1626C18.143 16.1626 17.8909 16.4147 17.8909 16.7271V24.1231C17.8909 24.4354 18.143 24.6875 18.4553 24.6875C18.7677 24.6875 19.0198 24.4354 19.0198 24.1231ZM22.0317 24.1231V16.7271C22.0317 16.4147 21.7796 16.1626 21.4673 16.1626C21.1549 16.1626 20.9028 16.4147 20.9028 16.7271V24.1231C20.9028 24.4354 21.1549 24.6875 21.4673 24.6875C21.7796 24.6875 22.0317 24.4354 22.0317 24.1231Z" fill="#DC3545"/>
<rect x="1.26925" y="0.346154" width="37.3846" height="37.3846" rx="2.42308" stroke="#DC3545" stroke-width="0.692308" stroke-dasharray="1.38 1.38"/>
</svg>
