
<svg width="356" height="162" viewBox="0 0 356 162" fill="none" xmlns="http://www.w3.org/2000/svg">
<circle cx="353.003" cy="3.17591" r="2.6537" transform="rotate(90 353.003 3.17591)" fill="#EF4358"/>
<circle cx="353.003" cy="42.0964" r="2.6537" transform="rotate(90 353.003 42.0964)" fill="#EF4358"/>
<circle cx="353.003" cy="81.0173" r="2.6537" transform="rotate(90 353.003 81.0173)" fill="#EF4358"/>
<circle cx="353.003" cy="119.938" r="2.6537" transform="rotate(90 353.003 119.938)" fill="#EF4358"/>
<circle cx="353.003" cy="158.859" r="2.6537" transform="rotate(90 353.003 158.859)" fill="#EF4358"/>
<circle cx="314.083" cy="3.17555" r="2.6537" transform="rotate(90 314.083 3.17555)" fill="#EF4358"/>
<circle cx="314.083" cy="42.0964" r="2.6537" transform="rotate(90 314.083 42.0964)" fill="#EF4358"/>
<circle cx="314.083" cy="81.0173" r="2.6537" transform="rotate(90 314.083 81.0173)" fill="#EF4358"/>
<circle cx="314.083" cy="119.938" r="2.6537" transform="rotate(90 314.083 119.938)" fill="#EF4358"/>
<circle cx="314.083" cy="158.859" r="2.6537" transform="rotate(90 314.083 158.859)" fill="#EF4358"/>
<circle cx="275.161" cy="3.17555" r="2.6537" transform="rotate(90 275.161 3.17555)" fill="#EF4358"/>
<circle cx="275.161" cy="42.0964" r="2.6537" transform="rotate(90 275.161 42.0964)" fill="#EF4358"/>
<circle cx="275.161" cy="81.0173" r="2.6537" transform="rotate(90 275.161 81.0173)" fill="#EF4358"/>
<circle cx="275.161" cy="119.938" r="2.6537" transform="rotate(90 275.161 119.938)" fill="#EF4358"/>
<circle cx="275.161" cy="158.859" r="2.6537" transform="rotate(90 275.161 158.859)" fill="#EF4358"/>
<circle cx="236.241" cy="3.17555" r="2.6537" transform="rotate(90 236.241 3.17555)" fill="#EF4358"/>
<circle cx="236.241" cy="42.0964" r="2.6537" transform="rotate(90 236.241 42.0964)" fill="#EF4358"/>
<circle cx="236.241" cy="81.0173" r="2.6537" transform="rotate(90 236.241 81.0173)" fill="#EF4358"/>
<circle cx="236.241" cy="119.938" r="2.6537" transform="rotate(90 236.241 119.938)" fill="#EF4358"/>
<circle cx="236.241" cy="158.859" r="2.6537" transform="rotate(90 236.241 158.859)" fill="#EF4358"/>
<circle cx="197.319" cy="3.17555" r="2.6537" transform="rotate(90 197.319 3.17555)" fill="#EF4358"/>
<circle cx="197.319" cy="42.0964" r="2.6537" transform="rotate(90 197.319 42.0964)" fill="#EF4358"/>
<circle cx="197.319" cy="81.0173" r="2.6537" transform="rotate(90 197.319 81.0173)" fill="#EF4358"/>
<circle cx="197.319" cy="119.938" r="2.6537" transform="rotate(90 197.319 119.938)" fill="#EF4358"/>
<circle cx="197.319" cy="158.859" r="2.6537" transform="rotate(90 197.319 158.859)" fill="#EF4358"/>
<circle cx="158.397" cy="3.17555" r="2.6537" transform="rotate(90 158.397 3.17555)" fill="#EF4358"/>
<circle cx="158.397" cy="42.0964" r="2.6537" transform="rotate(90 158.397 42.0964)" fill="#EF4358"/>
<circle cx="158.397" cy="81.0173" r="2.6537" transform="rotate(90 158.397 81.0173)" fill="#EF4358"/>
<circle cx="158.397" cy="119.938" r="2.6537" transform="rotate(90 158.397 119.938)" fill="#EF4358"/>
<circle cx="158.397" cy="158.859" r="2.6537" transform="rotate(90 158.397 158.859)" fill="#EF4358"/>
<circle cx="119.477" cy="3.17555" r="2.6537" transform="rotate(90 119.477 3.17555)" fill="#EF4358"/>
<circle cx="119.477" cy="42.0964" r="2.6537" transform="rotate(90 119.477 42.0964)" fill="#EF4358"/>
<circle cx="119.477" cy="81.0173" r="2.6537" transform="rotate(90 119.477 81.0173)" fill="#EF4358"/>
<circle cx="119.477" cy="119.938" r="2.6537" transform="rotate(90 119.477 119.938)" fill="#EF4358"/>
<circle cx="119.477" cy="158.859" r="2.6537" transform="rotate(90 119.477 158.859)" fill="#EF4358"/>
<circle cx="80.5572" cy="3.17555" r="2.6537" transform="rotate(90 80.5572 3.17555)" fill="#EF4358"/>
<circle cx="80.5572" cy="42.0964" r="2.6537" transform="rotate(90 80.5572 42.0964)" fill="#EF4358"/>
<circle cx="80.5572" cy="81.0173" r="2.6537" transform="rotate(90 80.5572 81.0173)" fill="#EF4358"/>
<circle cx="80.5572" cy="119.938" r="2.6537" transform="rotate(90 80.5572 119.938)" fill="#EF4358"/>
<circle cx="80.5572" cy="158.859" r="2.6537" transform="rotate(90 80.5572 158.859)" fill="#EF4358"/>
<circle cx="41.6354" cy="3.17555" r="2.6537" transform="rotate(90 41.6354 3.17555)" fill="#EF4358"/>
<circle cx="41.6354" cy="42.0964" r="2.6537" transform="rotate(90 41.6354 42.0964)" fill="#EF4358"/>
<circle cx="41.6354" cy="81.0173" r="2.6537" transform="rotate(90 41.6354 81.0173)" fill="#EF4358"/>
<circle cx="41.6354" cy="119.938" r="2.6537" transform="rotate(90 41.6354 119.938)" fill="#EF4358"/>
<circle cx="41.6354" cy="158.859" r="2.6537" transform="rotate(90 41.6354 158.859)" fill="#EF4358"/>
<circle cx="2.71349" cy="3.17555" r="2.6537" transform="rotate(90 2.71349 3.17555)" fill="#EF4358"/>
<circle cx="2.71349" cy="42.0964" r="2.6537" transform="rotate(90 2.71349 42.0964)" fill="#EF4358"/>
<circle cx="2.71349" cy="81.0173" r="2.6537" transform="rotate(90 2.71349 81.0173)" fill="#EF4358"/>
<circle cx="2.71349" cy="119.938" r="2.6537" transform="rotate(90 2.71349 119.938)" fill="#EF4358"/>
<circle cx="2.71349" cy="158.859" r="2.6537" transform="rotate(90 2.71349 158.859)" fill="#EF4358"/>
</svg>
