
<svg width="357" height="162" viewBox="0 0 357 162" fill="none" xmlns="http://www.w3.org/2000/svg">
<circle cx="353.772" cy="2.65394" r="2.6537" transform="rotate(90 353.772 2.65394)" fill="#70C217"/>
<circle cx="353.772" cy="41.5745" r="2.6537" transform="rotate(90 353.772 41.5745)" fill="#70C217"/>
<circle cx="353.772" cy="80.4954" r="2.6537" transform="rotate(90 353.772 80.4954)" fill="#70C217"/>
<circle cx="353.772" cy="119.416" r="2.6537" transform="rotate(90 353.772 119.416)" fill="#70C217"/>
<circle cx="353.653" cy="158.354" r="2.6537" transform="rotate(90 353.653 158.354)" fill="#70C217"/>
<circle cx="314.852" cy="2.65357" r="2.6537" transform="rotate(90 314.852 2.65357)" fill="#70C217"/>
<circle cx="314.852" cy="41.5745" r="2.6537" transform="rotate(90 314.852 41.5745)" fill="#70C217"/>
<circle cx="314.852" cy="80.4954" r="2.6537" transform="rotate(90 314.852 80.4954)" fill="#70C217"/>
<circle cx="314.852" cy="119.416" r="2.6537" transform="rotate(90 314.852 119.416)" fill="#70C217"/>
<circle cx="314.852" cy="158.337" r="2.6537" transform="rotate(90 314.852 158.337)" fill="#70C217"/>
<circle cx="275.93" cy="2.65357" r="2.6537" transform="rotate(90 275.93 2.65357)" fill="#70C217"/>
<circle cx="275.93" cy="41.5745" r="2.6537" transform="rotate(90 275.93 41.5745)" fill="#70C217"/>
<circle cx="275.93" cy="80.4954" r="2.6537" transform="rotate(90 275.93 80.4954)" fill="#70C217"/>
<circle cx="275.93" cy="119.416" r="2.6537" transform="rotate(90 275.93 119.416)" fill="#70C217"/>
<circle cx="275.93" cy="158.337" r="2.6537" transform="rotate(90 275.93 158.337)" fill="#70C217"/>
<circle cx="237.01" cy="2.65357" r="2.6537" transform="rotate(90 237.01 2.65357)" fill="#70C217"/>
<circle cx="237.01" cy="41.5745" r="2.6537" transform="rotate(90 237.01 41.5745)" fill="#70C217"/>
<circle cx="237.01" cy="80.4954" r="2.6537" transform="rotate(90 237.01 80.4954)" fill="#70C217"/>
<circle cx="237.01" cy="119.416" r="2.6537" transform="rotate(90 237.01 119.416)" fill="#70C217"/>
<circle cx="237.01" cy="158.337" r="2.6537" transform="rotate(90 237.01 158.337)" fill="#70C217"/>
<circle cx="198.088" cy="2.65357" r="2.6537" transform="rotate(90 198.088 2.65357)" fill="#70C217"/>
<circle cx="198.088" cy="41.5745" r="2.6537" transform="rotate(90 198.088 41.5745)" fill="#70C217"/>
<circle cx="198.088" cy="80.4954" r="2.6537" transform="rotate(90 198.088 80.4954)" fill="#70C217"/>
<circle cx="198.088" cy="119.416" r="2.6537" transform="rotate(90 198.088 119.416)" fill="#70C217"/>
<circle cx="198.088" cy="158.337" r="2.6537" transform="rotate(90 198.088 158.337)" fill="#70C217"/>
<circle cx="159.167" cy="2.65357" r="2.6537" transform="rotate(90 159.167 2.65357)" fill="#70C217"/>
<circle cx="159.167" cy="41.5745" r="2.6537" transform="rotate(90 159.167 41.5745)" fill="#70C217"/>
<circle cx="159.167" cy="80.4954" r="2.6537" transform="rotate(90 159.167 80.4954)" fill="#70C217"/>
<circle cx="159.167" cy="119.416" r="2.6537" transform="rotate(90 159.167 119.416)" fill="#70C217"/>
<circle cx="159.167" cy="158.337" r="2.6537" transform="rotate(90 159.167 158.337)" fill="#70C217"/>
<circle cx="120.247" cy="2.65357" r="2.6537" transform="rotate(90 120.247 2.65357)" fill="#70C217"/>
<circle cx="120.247" cy="41.5745" r="2.6537" transform="rotate(90 120.247 41.5745)" fill="#70C217"/>
<circle cx="120.247" cy="80.4954" r="2.6537" transform="rotate(90 120.247 80.4954)" fill="#70C217"/>
<circle cx="120.247" cy="119.416" r="2.6537" transform="rotate(90 120.247 119.416)" fill="#70C217"/>
<circle cx="120.247" cy="158.337" r="2.6537" transform="rotate(90 120.247 158.337)" fill="#70C217"/>
<circle cx="81.3268" cy="2.65357" r="2.6537" transform="rotate(90 81.3268 2.65357)" fill="#70C217"/>
<circle cx="81.3268" cy="41.5745" r="2.6537" transform="rotate(90 81.3268 41.5745)" fill="#70C217"/>
<circle cx="81.3268" cy="80.4954" r="2.6537" transform="rotate(90 81.3268 80.4954)" fill="#70C217"/>
<circle cx="81.3268" cy="119.416" r="2.6537" transform="rotate(90 81.3268 119.416)" fill="#70C217"/>
<circle cx="81.3268" cy="158.337" r="2.6537" transform="rotate(90 81.3268 158.337)" fill="#70C217"/>
<circle cx="42.4049" cy="2.65357" r="2.6537" transform="rotate(90 42.4049 2.65357)" fill="#70C217"/>
<circle cx="42.4049" cy="41.5745" r="2.6537" transform="rotate(90 42.4049 41.5745)" fill="#70C217"/>
<circle cx="42.4049" cy="80.4954" r="2.6537" transform="rotate(90 42.4049 80.4954)" fill="#70C217"/>
<circle cx="42.4049" cy="119.416" r="2.6537" transform="rotate(90 42.4049 119.416)" fill="#70C217"/>
<circle cx="42.4049" cy="158.337" r="2.6537" transform="rotate(90 42.4049 158.337)" fill="#70C217"/>
<circle cx="3.48302" cy="2.65357" r="2.6537" transform="rotate(90 3.48302 2.65357)" fill="#70C217"/>
<circle cx="3.48302" cy="41.5745" r="2.6537" transform="rotate(90 3.48302 41.5745)" fill="#70C217"/>
<circle cx="3.48302" cy="80.4954" r="2.6537" transform="rotate(90 3.48302 80.4954)" fill="#70C217"/>
<circle cx="3.48302" cy="119.416" r="2.6537" transform="rotate(90 3.48302 119.416)" fill="#70C217"/>
<circle cx="3.48302" cy="158.337" r="2.6537" transform="rotate(90 3.48302 158.337)" fill="#70C217"/>
</svg>
