<svg width="33" height="33" viewBox="0 0 33 33" fill="none" xmlns="http://www.w3.org/2000/svg">
<path d="M17.2186 10.172C17.2186 9.79481 16.9245 9.48901 16.5616 9.48901C16.1987 9.48901 15.9045 9.79481 15.9045 10.172V17.1292L14.6606 15.8362C14.404 15.5695 13.988 15.5695 13.7314 15.8362C13.4748 16.103 13.4748 16.5354 13.7314 16.8022L16.0969 19.261C16.1669 19.3338 16.2488 19.3868 16.3361 19.4198C16.4064 19.4465 16.4824 19.4611 16.5616 19.4611C16.6641 19.4611 16.7612 19.4367 16.8478 19.3931C16.8876 19.373 16.926 19.3485 16.9621 19.3196C16.9867 19.2998 17.01 19.2783 17.0317 19.2552L19.3916 16.8022C19.6482 16.5354 19.6482 16.103 19.3916 15.8362C19.135 15.5695 18.719 15.5695 18.4624 15.8362L17.2186 17.129V10.172Z" fill="#E71D7C"/>
<path d="M11.2391 18.7098C11.602 18.7098 11.8962 19.0156 11.8962 19.3928V21.2369C11.8962 21.3819 11.9516 21.5208 12.0502 21.6233C12.1487 21.7258 12.2825 21.7834 12.4219 21.7834H20.7011C20.8405 21.7834 20.9742 21.7258 21.0728 21.6233C21.1714 21.5208 21.2268 21.3819 21.2268 21.2369V19.3928C21.2268 19.0156 21.521 18.7098 21.8839 18.7098C22.2468 18.7098 22.541 19.0156 22.541 19.3928V21.2369C22.541 21.7442 22.3471 22.2306 22.0021 22.5892C21.657 22.9479 21.1891 23.1494 20.7011 23.1494H12.4219C11.9339 23.1494 11.4659 22.9479 11.1209 22.5892C10.7759 22.2306 10.582 21.7442 10.582 21.2369V19.3928C10.582 19.0156 10.8762 18.7098 11.2391 18.7098Z" fill="#E71D7C"/>
<path d="M32.3649 16.319C32.3649 25.0419 25.2899 32.1136 16.562 32.1136C7.83412 32.1136 0.759136 25.0419 0.759136 16.319C0.759136 7.59608 7.83412 0.524395 16.562 0.524395C25.2899 0.524395 32.3649 7.59608 32.3649 16.319Z" stroke="#7B88BC" stroke-width="0.854209"/>
</svg>
