<svg width="33" height="25" viewBox="0 0 33 25" fill="none" xmlns="http://www.w3.org/2000/svg">
<path fill-rule="evenodd" clip-rule="evenodd" d="M1.72117 0.267018C2.17248 0.0801454 2.67956 0.0802694 3.13079 0.267363L16.3277 5.73924L29.5206 0.286658C29.9742 0.099192 30.4839 0.100579 30.9364 0.29051C31.389 0.480441 31.747 0.843195 31.931 1.29822C32.3909 2.43587 32.6473 3.63258 32.6481 4.83725C32.6698 9.19598 29.6251 13.2196 25.0827 14.1191C25.2903 15.5701 25.1378 17.0921 24.562 18.558C22.7541 23.1899 17.4952 25.3635 12.9591 23.4888C12.9587 23.4887 12.9584 23.4886 12.958 23.4884C9.7566 22.1667 7.52413 19.0192 7.49877 15.3676L7.49873 15.3548C7.49873 14.94 7.52575 14.5279 7.58054 14.121C1.79013 12.9737 -1.56144 6.7838 0.7244 1.26375C0.911286 0.812444 1.26985 0.453891 1.72117 0.267018ZM11.2221 14.6741L13.8528 15.0655C14.8586 15.2152 15.7953 14.5211 15.945 13.5153C16.0946 12.5095 15.4006 11.5728 14.3948 11.4231L8.5847 10.5587C5.52992 10.1061 3.49997 7.37617 3.6978 4.48896L15.4439 9.35931C15.5517 9.41706 15.6649 9.46402 15.7819 9.49946L18.2056 10.5044C20.8631 11.6004 22.1615 14.6 21.1337 17.2136L21.1319 17.2183C20.0851 19.9014 17.0239 21.1845 14.3649 20.0853L14.3639 20.0848C12.5025 19.3167 11.1986 17.4826 11.1812 15.3484C11.1815 15.1177 11.1953 14.8927 11.2221 14.6741ZM20.974 7.80356C22.1252 8.52753 23.0756 9.4903 23.7793 10.5994L24.0689 10.558C24.0697 10.5579 24.0706 10.5578 24.0714 10.5577C26.9788 10.1324 28.9809 7.61494 28.9656 4.85268L28.9656 4.84251C28.9656 4.73139 28.9617 4.619 28.954 4.50547L20.974 7.80356Z" fill="url(#paint0_linear_3930_506074)"/>
<defs>
<linearGradient id="paint0_linear_3930_506074" x1="2.66023" y1="0.126946" x2="50.2784" y2="19.5963" gradientUnits="userSpaceOnUse">
<stop stop-color="#E71D7C"/>
<stop offset="1" stop-color="#3E4581"/>
</linearGradient>
</defs>
</svg>
