<svg xmlns="http://www.w3.org/2000/svg" width="16" height="15" viewBox="0 0 16 15" fill="none">
<path d="M9.28508 6.52095L11.9503 3.83251C11.9503 3.83251 11.9503 3.83251 11.9503 3.8325C12.1033 3.67828 12.3506 3.67828 12.5035 3.8325C12.5035 3.8325 12.5035 3.83251 12.5035 3.83251L13.3411 4.67741L13.4831 4.53661L13.3411 4.67741C13.4949 4.8326 13.495 5.08503 13.3411 5.24051C13.3411 5.24053 13.341 5.24055 13.341 5.24057L8.63271 9.98986L8.63235 9.9901C8.62352 9.99576 8.60954 10.0042 8.59091 10.0147C8.5537 10.0355 8.50104 10.0624 8.4383 10.0888C8.30999 10.1428 8.15378 10.189 8.0064 10.189C7.85653 10.1891 7.69686 10.1428 7.56566 10.0885C7.50149 10.062 7.44758 10.035 7.40951 10.0141C7.39048 10.0036 7.37624 9.99512 7.36726 9.98945L2.65914 5.24057C2.50512 5.08508 2.5052 4.83262 2.65908 4.67742L2.51704 4.53661L2.65908 4.67741L3.49668 3.83251C3.64961 3.67828 3.89712 3.67827 4.05008 3.83252L6.71533 6.52095L7.05736 6.86595V6.38014V0.576547C7.05736 0.367014 7.22541 0.2 7.42868 0.2H8.5715C8.77494 0.2 8.94304 0.367094 8.94304 0.576547V6.38014V6.86595L9.28508 6.52095ZM8.63918 9.98557C8.64071 9.98442 8.641 9.98428 8.63951 9.98534L8.63918 9.98557ZM7.37939 10.0017L7.37883 10.0011L7.37939 10.0017ZM13.7143 14.8H2.28566C1.13549 14.8 0.2 13.8592 0.2 12.6945V9.81248C0.2 9.60309 0.368051 9.43619 0.571306 9.43619H1.71436C1.91777 9.43619 2.08566 9.60305 2.08566 9.81248V11.5417C2.08566 12.2873 2.6852 12.8945 3.4285 12.8945H12.5715C13.3148 12.8945 13.9143 12.2873 13.9143 11.5417V9.81248C13.9143 9.6031 14.0822 9.43619 14.2858 9.43619H15.4287C15.6321 9.43619 15.8 9.60305 15.8 9.81248V12.6945C15.8 13.8592 14.8647 14.8 13.7143 14.8Z" fill="#343A40" stroke="white" stroke-width="0.4"/>
</svg>