
<svg width="20" height="22" viewBox="0 0 20 22" fill="none" xmlns="http://www.w3.org/2000/svg">
<path d="M17.2188 7.25C16.675 7.25 16.3125 7.6125 16.3125 8.15625V18.85C16.3125 19.575 15.7687 19.9375 15.225 19.9375H4.7125C3.9875 19.9375 3.625 19.3937 3.625 18.85V8.15625C3.625 7.6125 3.2625 7.25 2.71875 7.25C2.175 7.25 1.8125 7.6125 1.8125 8.15625V18.85C1.8125 20.4812 3.08125 21.75 4.7125 21.75H15.0438C16.675 21.75 17.9437 20.4812 17.9437 18.85V8.15625C18.125 7.6125 17.7625 7.25 17.2188 7.25Z" fill="#DC3545"/>
<path d="M8.51953 17.2188V8.15625C8.51953 7.6125 8.15703 7.25 7.79453 7.25C7.43203 7.25 6.70703 7.6125 6.70703 8.15625V17.2188C6.70703 17.7625 7.06953 18.125 7.61328 18.125C8.15703 18.125 8.51953 17.7625 8.51953 17.2188Z" fill="#DC3545"/>
<path d="M13.2305 17.2188V8.15625C13.2305 7.6125 12.6867 7.25 12.143 7.25C11.5992 7.25 11.418 7.6125 11.418 8.15625V17.2188C11.418 17.7625 11.7805 18.125 12.143 18.125C12.5055 18.125 13.2305 17.7625 13.2305 17.2188Z" fill="#DC3545"/>
<path d="M19.0312 3.625H14.5V2.35625C14.5 1.0875 13.4125 0 12.1437 0H7.79375C6.525 0 5.4375 1.0875 5.4375 2.35625V3.625H0.90625C0.3625 3.625 0 3.9875 0 4.53125C0 5.075 0.3625 5.4375 0.90625 5.4375H19.0312C19.575 5.4375 19.9375 5.075 19.9375 4.53125C19.9375 3.9875 19.575 3.625 19.0312 3.625ZM7.25 2.35625C7.25 1.99375 7.43125 1.8125 7.79375 1.8125H12.1437C12.5062 1.8125 12.6875 1.99375 12.6875 2.35625V3.625H7.25V2.35625Z" fill="#DC3545"/>
</svg>
