<svg width="19" height="21" viewBox="0 0 19 21" fill="none" xmlns="http://www.w3.org/2000/svg">
<path fill-rule="evenodd" clip-rule="evenodd" d="M9.51587 20.1771C14.7325 20.1771 18.9614 15.7256 18.9614 10.2344C18.9614 4.74324 14.7325 0.291748 9.51587 0.291748C4.29923 0.291748 0.0703125 4.74324 0.0703125 10.2344C0.0703125 15.7256 4.29923 20.1771 9.51587 20.1771ZM13.8928 8.62759C14.3539 8.14223 14.3539 7.35531 13.8928 6.86995C13.4317 6.38459 12.6842 6.38459 12.2231 6.86995L8.33518 10.9625L6.80866 9.35562C6.34757 8.87027 5.6 8.87027 5.13891 9.35562C4.67782 9.84098 4.67782 10.6279 5.13891 11.1133L7.5003 13.5989C7.96139 14.0843 8.70896 14.0843 9.17005 13.5989L13.8928 8.62759Z" fill="#198754"/>
</svg>
