<svg width="332" height="314" viewBox="0 0 332 314" fill="none" xmlns="http://www.w3.org/2000/svg">
<g filter="url(#filter0_d_2270_503956)">
<rect x="18.4336" y="9.32568" width="295.605" height="278.226" rx="9.5665" fill="white"/>
</g>
<path d="M51.5935 42.7355H53.7528L56.6445 49.7935H56.7586L59.6503 42.7355H61.8096V52.476H60.1164V45.7842H60.0261L57.3341 52.4474H56.069L53.3771 45.7699H53.2867V52.476H51.5935V42.7355ZM66.8891 52.6186C66.1566 52.6186 65.5241 52.4664 64.9914 52.1621C64.4619 51.8545 64.0544 51.4201 63.7691 50.8589C63.4837 50.2945 63.341 49.6302 63.341 48.8661C63.341 48.1146 63.4837 47.4551 63.7691 46.8876C64.0576 46.3168 64.4603 45.8729 64.9771 45.5559C65.4939 45.2356 66.1011 45.0755 66.7987 45.0755C67.2489 45.0755 67.6738 45.1484 68.0733 45.2943C68.476 45.437 68.8311 45.6589 69.1387 45.9601C69.4494 46.2614 69.6936 46.645 69.8711 47.1111C70.0487 47.574 70.1375 48.1257 70.1375 48.7662V49.2941H64.1496V48.1337H68.4871C68.4839 47.8039 68.4126 47.5106 68.2731 47.2538C68.1336 46.9938 67.9386 46.7893 67.6881 46.6403C67.4408 46.4912 67.1522 46.4167 66.8225 46.4167C66.4705 46.4167 66.1614 46.5023 65.895 46.6735C65.6287 46.8416 65.421 47.0635 65.272 47.3394C65.1261 47.6121 65.0516 47.9117 65.0485 48.2383V49.2513C65.0485 49.6762 65.1261 50.0408 65.2815 50.3452C65.4369 50.6465 65.6541 50.8779 65.9331 51.0396C66.2121 51.1982 66.5387 51.2774 66.9128 51.2774C67.1633 51.2774 67.39 51.2425 67.593 51.1728C67.7959 51.0999 67.9719 50.9936 68.1209 50.8541C68.2699 50.7146 68.3825 50.5418 68.4586 50.3357L70.0661 50.5165C69.9647 50.9413 69.7712 51.3123 69.4859 51.6294C69.2037 51.9433 68.8422 52.1874 68.4015 52.3618C67.9608 52.533 67.4566 52.6186 66.8891 52.6186ZM74.305 52.6044C73.7311 52.6044 73.2174 52.4569 72.764 52.1621C72.3106 51.8672 71.9523 51.4391 71.6891 50.8779C71.426 50.3167 71.2944 49.635 71.2944 48.8328C71.2944 48.0211 71.4275 47.3362 71.6939 46.7782C71.9634 46.217 72.3264 45.7937 72.783 45.5083C73.2396 45.2198 73.7485 45.0755 74.3097 45.0755C74.7378 45.0755 75.0897 45.1484 75.3656 45.2943C75.6414 45.437 75.8602 45.6098 76.0219 45.8127C76.1836 46.0125 76.3089 46.2011 76.3976 46.3787H76.469V42.7355H78.1954V52.476H76.5023V51.325H76.3976C76.3089 51.5025 76.1804 51.6912 76.0124 51.891C75.8443 52.0875 75.6224 52.2556 75.3465 52.3951C75.0707 52.5346 74.7235 52.6044 74.305 52.6044ZM74.7853 51.1918C75.15 51.1918 75.4607 51.0935 75.7175 50.8969C75.9743 50.6972 76.1693 50.4197 76.3025 50.0646C76.4357 49.7095 76.5023 49.2957 76.5023 48.8233C76.5023 48.3509 76.4357 47.9402 76.3025 47.5915C76.1725 47.2427 75.9791 46.9716 75.7223 46.7782C75.4686 46.5848 75.1563 46.4881 74.7853 46.4881C74.4017 46.4881 74.0814 46.5879 73.8246 46.7877C73.5678 46.9874 73.3744 47.2633 73.2444 47.6152C73.1144 47.9672 73.0494 48.3699 73.0494 48.8233C73.0494 49.2799 73.1144 49.6873 73.2444 50.0456C73.3775 50.4007 73.5725 50.6813 73.8294 50.8874C74.0894 51.0904 74.408 51.1918 74.7853 51.1918ZM80.0301 52.476V45.1706H81.7518V52.476H80.0301ZM80.8957 44.1338C80.623 44.1338 80.3884 44.0434 80.1918 43.8627C79.9952 43.6788 79.8969 43.4584 79.8969 43.2016C79.8969 42.9416 79.9952 42.7213 80.1918 42.5405C80.3884 42.3566 80.623 42.2647 80.8957 42.2647C81.1715 42.2647 81.4062 42.3566 81.5996 42.5405C81.7962 42.7213 81.8945 42.9416 81.8945 43.2016C81.8945 43.4584 81.7962 43.6788 81.5996 43.8627C81.4062 44.0434 81.1715 44.1338 80.8957 44.1338ZM85.6244 52.6234C85.1615 52.6234 84.7445 52.541 84.3736 52.3761C84.0058 52.208 83.7141 51.9607 83.4984 51.6341C83.286 51.3075 83.1798 50.9049 83.1798 50.4261C83.1798 50.0139 83.2559 49.673 83.4081 49.4035C83.5603 49.134 83.768 48.9184 84.0311 48.7567C84.2943 48.595 84.5908 48.4729 84.9205 48.3905C85.2534 48.3049 85.5975 48.243 85.9526 48.205C86.3806 48.1606 86.7278 48.121 86.9942 48.0861C87.2605 48.0481 87.4539 47.991 87.5744 47.9149C87.6981 47.8356 87.7599 47.7135 87.7599 47.5487V47.5201C87.7599 47.1618 87.6537 46.8844 87.4412 46.6878C87.2288 46.4912 86.9228 46.3929 86.5233 46.3929C86.1016 46.3929 85.7671 46.4849 85.5198 46.6688C85.2756 46.8527 85.1108 47.0699 85.0251 47.3204L83.4176 47.0921C83.5444 46.6482 83.7537 46.2772 84.0454 45.9792C84.3371 45.6779 84.6938 45.4528 85.1155 45.3038C85.5372 45.1516 86.0033 45.0755 86.5138 45.0755C86.8657 45.0755 87.2161 45.1167 87.5649 45.1992C87.9137 45.2816 88.2323 45.4179 88.5209 45.6082C88.8094 45.7953 89.0409 46.0505 89.2152 46.3739C89.3928 46.6973 89.4816 47.1016 89.4816 47.5867V52.476H87.8265V51.4724H87.7694C87.6648 51.6753 87.5173 51.8656 87.3271 52.0431C87.14 52.2175 86.9038 52.3586 86.6184 52.4664C86.3362 52.5711 86.0049 52.6234 85.6244 52.6234ZM86.0715 51.3583C86.4171 51.3583 86.7167 51.2901 86.9704 51.1538C87.224 51.0143 87.419 50.8304 87.5554 50.6021C87.6949 50.3738 87.7646 50.1249 87.7646 49.8554V48.9945C87.7107 49.0389 87.6188 49.0801 87.4888 49.1182C87.362 49.1562 87.2193 49.1895 87.0607 49.218C86.9022 49.2466 86.7453 49.2719 86.5899 49.2941C86.4345 49.3163 86.2998 49.3354 86.1856 49.3512C85.9288 49.3861 85.6989 49.4432 85.496 49.5224C85.2931 49.6017 85.133 49.7127 85.0156 49.8554C84.8983 49.9949 84.8397 50.1756 84.8397 50.3975C84.8397 50.7146 84.9554 50.954 85.1869 51.1157C85.4183 51.2774 85.7132 51.3583 86.0715 51.3583ZM94.183 44.2147V42.7355H101.954V44.2147H98.9438V52.476H97.1936V44.2147H94.183ZM103.609 55.2154C103.375 55.2154 103.158 55.1964 102.958 55.1584C102.761 55.1235 102.604 55.0823 102.487 55.0347L102.887 53.6935C103.137 53.7664 103.361 53.8013 103.557 53.7981C103.754 53.795 103.927 53.7331 104.076 53.6127C104.228 53.4953 104.356 53.2988 104.461 53.0229L104.608 52.6281L101.959 45.1706H103.785L105.469 50.6877H105.545L107.234 45.1706H109.065L106.14 53.3606C106.003 53.7474 105.823 54.0787 105.598 54.3546C105.372 54.6336 105.097 54.8461 104.77 54.9919C104.447 55.1409 104.06 55.2154 103.609 55.2154ZM110.256 55.2154V45.1706H111.949V46.3787H112.049C112.138 46.2011 112.263 46.0125 112.425 45.8127C112.587 45.6098 112.805 45.437 113.081 45.2943C113.357 45.1484 113.709 45.0755 114.137 45.0755C114.701 45.0755 115.21 45.2198 115.664 45.5083C116.12 45.7937 116.482 46.217 116.748 46.7782C117.018 47.3362 117.152 48.0211 117.152 48.8328C117.152 49.635 117.021 50.3167 116.758 50.8779C116.494 51.4391 116.136 51.8672 115.683 52.1621C115.229 52.4569 114.716 52.6044 114.142 52.6044C113.723 52.6044 113.376 52.5346 113.1 52.3951C112.824 52.2556 112.602 52.0875 112.434 51.891C112.27 51.6912 112.141 51.5025 112.049 51.325H111.978V55.2154H110.256ZM111.945 48.8233C111.945 49.2957 112.011 49.7095 112.144 50.0646C112.281 50.4197 112.476 50.6972 112.729 50.8969C112.986 51.0935 113.297 51.1918 113.661 51.1918C114.042 51.1918 114.361 51.0904 114.617 50.8874C114.874 50.6813 115.068 50.4007 115.198 50.0456C115.331 49.6873 115.397 49.2799 115.397 48.8233C115.397 48.3699 115.332 47.9672 115.202 47.6152C115.072 47.2633 114.879 46.9874 114.622 46.7877C114.365 46.5879 114.045 46.4881 113.661 46.4881C113.294 46.4881 112.981 46.5848 112.725 46.7782C112.468 46.9716 112.273 47.2427 112.14 47.5915C112.01 47.9402 111.945 48.3509 111.945 48.8233ZM121.861 52.6186C121.128 52.6186 120.496 52.4664 119.963 52.1621C119.434 51.8545 119.026 51.4201 118.741 50.8589C118.456 50.2945 118.313 49.6302 118.313 48.8661C118.313 48.1146 118.456 47.4551 118.741 46.8876C119.029 46.3168 119.432 45.8729 119.949 45.5559C120.466 45.2356 121.073 45.0755 121.771 45.0755C122.221 45.0755 122.646 45.1484 123.045 45.2943C123.448 45.437 123.803 45.6589 124.111 45.9601C124.421 46.2614 124.665 46.645 124.843 47.1111C125.021 47.574 125.109 48.1257 125.109 48.7662V49.2941H119.121V48.1337H123.459C123.456 47.8039 123.384 47.5106 123.245 47.2538C123.105 46.9938 122.91 46.7893 122.66 46.6403C122.413 46.4912 122.124 46.4167 121.794 46.4167C121.442 46.4167 121.133 46.5023 120.867 46.6735C120.601 46.8416 120.393 47.0635 120.244 47.3394C120.098 47.6121 120.023 47.9117 120.02 48.2383V49.2513C120.02 49.6762 120.098 50.0408 120.253 50.3452C120.409 50.6465 120.626 50.8779 120.905 51.0396C121.184 51.1982 121.511 51.2774 121.885 51.2774C122.135 51.2774 122.362 51.2425 122.565 51.1728C122.768 51.0999 122.944 50.9936 123.093 50.8541C123.242 50.7146 123.354 50.5418 123.43 50.3357L125.038 50.5165C124.937 50.9413 124.743 51.3123 124.458 51.6294C124.176 51.9433 123.814 52.1874 123.373 52.3618C122.933 52.533 122.428 52.6186 121.861 52.6186Z" fill="#0C0D48"/>
<path d="M240.44 41.1984H230.787C230.239 41.1984 229.712 41.4162 229.325 41.8039C228.937 42.1916 228.719 42.7174 228.719 43.2657V52.9132C228.719 53.4614 228.937 53.9873 229.325 54.375C229.712 54.7627 230.239 54.9805 230.787 54.9805H240.44C240.988 54.9805 241.514 54.7627 241.902 54.375C242.29 53.9873 242.508 53.4614 242.508 52.9132V43.2657C242.508 42.7174 242.29 42.1916 241.902 41.8039C241.514 41.4162 240.988 41.1984 240.44 41.1984ZM240.44 42.5766C240.622 42.5766 240.798 42.6492 240.927 42.7784C241.056 42.9076 241.129 43.0829 241.129 43.2657V47.4003H236.303V42.5766H240.44ZM230.098 43.2657C230.098 43.0829 230.17 42.9076 230.3 42.7784C230.429 42.6492 230.604 42.5766 230.787 42.5766H234.924V47.4003H230.098V43.2657ZM230.787 53.6023C230.604 53.6023 230.429 53.5297 230.3 53.4004C230.17 53.2712 230.098 53.0959 230.098 52.9132V48.7785H234.924V53.6023H230.787ZM241.129 52.9132C241.129 53.0959 241.056 53.2712 240.927 53.4004C240.798 53.5297 240.622 53.6023 240.44 53.6023H236.303V48.7785H241.129V52.9132Z" fill="#E71D7C"/>
<path d="M251.559 48.0894C251.559 56.89 244.421 64.0247 235.615 64.0247C226.809 64.0247 219.671 56.89 219.671 48.0894C219.671 39.2888 226.809 32.1541 235.615 32.1541C244.421 32.1541 251.559 39.2888 251.559 48.0894Z" stroke="#55608B" stroke-width="0.861821"/>
<path d="M274.192 41.8881C274.192 41.5075 273.895 41.199 273.529 41.199C273.163 41.199 272.866 41.5075 272.866 41.8881V48.9072L271.611 47.6028C271.352 47.3336 270.932 47.3336 270.673 47.6028C270.415 47.8719 270.415 48.3082 270.673 48.5773L273.06 51.0581C273.131 51.1315 273.213 51.1849 273.301 51.2183C273.372 51.2452 273.449 51.2599 273.529 51.2599C273.632 51.2599 273.73 51.2353 273.818 51.1913C273.858 51.1711 273.897 51.1463 273.933 51.1171C273.958 51.0972 273.981 51.0755 274.003 51.0522L276.384 48.5773C276.643 48.3082 276.643 47.8719 276.384 47.6028C276.125 47.3336 275.706 47.3336 275.447 47.6028L274.192 48.9071V41.8881Z" fill="#E71D7C"/>
<path d="M268.159 50.5019C268.525 50.5019 268.822 50.8104 268.822 51.191V53.0516C268.822 53.1978 268.878 53.338 268.977 53.4414C269.077 53.5448 269.212 53.6029 269.352 53.6029H277.705C277.846 53.6029 277.981 53.5448 278.08 53.4414C278.18 53.338 278.236 53.1978 278.236 53.0516V51.191C278.236 50.8104 278.533 50.5019 278.899 50.5019C279.265 50.5019 279.562 50.8104 279.562 51.191V53.0516C279.562 53.5633 279.366 54.0541 279.018 54.416C278.67 54.7778 278.198 54.9811 277.705 54.9811H269.352C268.86 54.9811 268.388 54.7778 268.04 54.416C267.692 54.0541 267.496 53.5633 267.496 53.0516V51.191C267.496 50.8104 267.793 50.5019 268.159 50.5019Z" fill="#E71D7C"/>
<path d="M289.475 48.0894C289.475 56.89 282.337 64.0247 273.531 64.0247C264.725 64.0247 257.587 56.89 257.587 48.0894C257.587 39.2888 264.725 32.1541 273.531 32.1541C282.337 32.1541 289.475 39.2888 289.475 48.0894Z" stroke="#55608B" stroke-width="0.861821"/>
<ellipse cx="169.249" cy="163.514" rx="70.6693" ry="70.6333" stroke="#414148" stroke-width="14.651"/>
<g filter="url(#filter1_d_2270_503956)">
<path d="M169.249 92.8807C130.22 92.8807 98.5801 124.504 98.5801 163.514C98.5801 202.524 130.22 234.147 169.249 234.147C184.507 234.147 198.636 229.315 210.186 221.097" stroke="#E71D7C" stroke-width="25.8546"/>
</g>
<path d="M209.423 135.089H71.5318C69.1519 135.089 67.2227 137.018 67.2227 139.398V184.185C67.2227 186.565 69.1519 188.494 71.5318 188.494H130.567L136.168 194.093L141.77 188.494H209.423C211.803 188.494 213.732 186.565 213.732 184.185V139.398C213.732 137.018 211.803 135.089 209.423 135.089Z" fill="#293134"/>
<path d="M79.2326 157.093L82.9668 149.706V149.641H78.6618V148.744H84.0104V149.69L80.2925 157.093H79.2326ZM85.4152 157.093V156.359L88.171 153.342C88.4944 152.989 88.7607 152.682 88.97 152.421C89.1792 152.157 89.3342 151.91 89.4347 151.679C89.538 151.445 89.5896 151.201 89.5896 150.945C89.5896 150.652 89.519 150.398 89.3776 150.183C89.239 149.968 89.0488 149.802 88.8069 149.686C88.565 149.569 88.2933 149.51 87.9916 149.51C87.6709 149.51 87.391 149.577 87.1518 149.71C86.9154 149.84 86.7319 150.024 86.6015 150.26C86.4737 150.497 86.4099 150.774 86.4099 151.092H85.4478C85.4478 150.603 85.5606 150.173 85.7861 149.804C86.0117 149.434 86.3188 149.146 86.7074 148.94C87.0988 148.733 87.5377 148.63 88.0242 148.63C88.5134 148.63 88.9469 148.733 89.3246 148.94C89.7024 149.146 89.9986 149.425 90.2133 149.775C90.4281 150.126 90.5354 150.516 90.5354 150.945C90.5354 151.252 90.4797 151.553 90.3683 151.846C90.2595 152.137 90.0693 152.462 89.7975 152.82C89.5285 153.176 89.1548 153.611 88.6765 154.125L86.8012 156.131V156.196H90.6822V157.093H85.4152ZM92.9685 157.158C92.7674 157.158 92.5948 157.086 92.4508 156.942C92.3067 156.798 92.2347 156.625 92.2347 156.424C92.2347 156.223 92.3067 156.051 92.4508 155.906C92.5948 155.762 92.7674 155.69 92.9685 155.69C93.1696 155.69 93.3422 155.762 93.4862 155.906C93.6303 156.051 93.7023 156.223 93.7023 156.424C93.7023 156.557 93.6683 156.68 93.6004 156.791C93.5352 156.903 93.4468 156.992 93.3354 157.06C93.2267 157.125 93.1044 157.158 92.9685 157.158ZM97.8048 157.207C97.2667 157.207 96.787 157.115 96.3657 156.93C95.9472 156.745 95.6143 156.488 95.3669 156.159C95.1223 155.828 94.9892 155.443 94.9674 155.006H95.9947C96.0165 155.275 96.1089 155.507 96.272 155.703C96.435 155.896 96.6484 156.045 96.912 156.151C97.1756 156.257 97.4678 156.31 97.7885 156.31C98.1472 156.31 98.4652 156.248 98.7424 156.123C99.0196 155.998 99.237 155.824 99.3947 155.601C99.5523 155.378 99.6311 155.12 99.6311 154.826C99.6311 154.519 99.555 154.249 99.4028 154.015C99.2506 153.778 99.0278 153.594 98.7342 153.46C98.4407 153.327 98.082 153.261 97.658 153.261H96.9894V152.364H97.658C97.9896 152.364 98.2804 152.304 98.5304 152.185C98.7832 152.065 98.9802 151.896 99.1215 151.679C99.2656 151.462 99.3376 151.206 99.3376 150.913C99.3376 150.63 99.2751 150.384 99.1501 150.175C99.025 149.965 98.8484 149.802 98.6201 149.686C98.3945 149.569 98.1282 149.51 97.8211 149.51C97.533 149.51 97.2612 149.563 97.0058 149.669C96.753 149.773 96.5465 149.923 96.3861 150.122C96.2258 150.317 96.1388 150.554 96.1252 150.831H95.1468C95.1631 150.394 95.2949 150.01 95.5422 149.681C95.7896 149.35 96.113 149.092 96.5125 148.907C96.9147 148.722 97.3563 148.63 97.8374 148.63C98.3538 148.63 98.7968 148.734 99.1664 148.944C99.536 149.15 99.82 149.423 100.018 149.763C100.217 150.103 100.316 150.47 100.316 150.864C100.316 151.334 100.192 151.735 99.945 152.066C99.7004 152.398 99.3675 152.628 98.9462 152.755V152.82C99.4735 152.907 99.8852 153.132 100.181 153.493C100.478 153.852 100.626 154.296 100.626 154.826C100.626 155.28 100.502 155.688 100.255 156.049C100.01 156.408 99.6759 156.691 99.252 156.897C98.828 157.104 98.3456 157.207 97.8048 157.207ZM106.434 155.527V155.087C106.434 154.783 106.497 154.504 106.622 154.251C106.75 153.996 106.934 153.792 107.176 153.64C107.421 153.485 107.717 153.407 108.065 153.407C108.418 153.407 108.715 153.485 108.954 153.64C109.193 153.792 109.374 153.996 109.496 154.251C109.618 154.504 109.679 154.783 109.679 155.087V155.527C109.679 155.832 109.617 156.112 109.492 156.367C109.37 156.62 109.187 156.824 108.946 156.979C108.706 157.131 108.413 157.207 108.065 157.207C107.712 157.207 107.414 157.131 107.172 156.979C106.93 156.824 106.747 156.62 106.622 156.367C106.497 156.112 106.434 155.832 106.434 155.527ZM107.266 155.087V155.527C107.266 155.78 107.326 156.007 107.445 156.208C107.565 156.407 107.771 156.506 108.065 156.506C108.35 156.506 108.551 156.407 108.668 156.208C108.788 156.007 108.848 155.78 108.848 155.527V155.087C108.848 154.834 108.791 154.609 108.676 154.41C108.562 154.209 108.359 154.109 108.065 154.109C107.78 154.109 107.574 154.209 107.449 154.41C107.327 154.609 107.266 154.834 107.266 155.087ZM102.276 150.75V150.309C102.276 150.005 102.339 149.726 102.464 149.474C102.591 149.218 102.776 149.014 103.018 148.862C103.263 148.707 103.559 148.63 103.907 148.63C104.26 148.63 104.556 148.707 104.796 148.862C105.035 149.014 105.215 149.218 105.338 149.474C105.46 149.726 105.521 150.005 105.521 150.309V150.75C105.521 151.054 105.459 151.334 105.334 151.589C105.211 151.842 105.029 152.046 104.787 152.201C104.548 152.353 104.255 152.429 103.907 152.429C103.554 152.429 103.256 152.353 103.014 152.201C102.772 152.046 102.589 151.842 102.464 151.589C102.339 151.334 102.276 151.054 102.276 150.75ZM103.108 150.309V150.75C103.108 151.002 103.168 151.229 103.287 151.43C103.407 151.629 103.613 151.728 103.907 151.728C104.192 151.728 104.393 151.629 104.51 151.43C104.63 151.229 104.69 151.002 104.69 150.75V150.309C104.69 150.057 104.632 149.831 104.518 149.633C104.404 149.431 104.2 149.331 103.907 149.331C103.621 149.331 103.416 149.431 103.291 149.633C103.169 149.831 103.108 150.057 103.108 150.309ZM102.586 157.093L108.326 148.744H109.255L103.515 157.093H102.586ZM117.065 157.223C116.5 157.223 116.004 157.089 115.577 156.82C115.153 156.551 114.821 156.174 114.582 155.69C114.346 155.207 114.228 154.641 114.228 153.995C114.228 153.342 114.346 152.773 114.582 152.286C114.821 151.8 115.153 151.422 115.577 151.153C116.004 150.884 116.5 150.75 117.065 150.75C117.63 150.75 118.125 150.884 118.549 151.153C118.975 151.422 119.307 151.8 119.543 152.286C119.783 152.773 119.902 153.342 119.902 153.995C119.902 154.641 119.783 155.207 119.543 155.69C119.307 156.174 118.975 156.551 118.549 156.82C118.125 157.089 117.63 157.223 117.065 157.223ZM117.065 156.359C117.494 156.359 117.848 156.249 118.125 156.029C118.402 155.809 118.607 155.519 118.74 155.16C118.874 154.802 118.94 154.413 118.94 153.995C118.94 153.576 118.874 153.186 118.74 152.825C118.607 152.463 118.402 152.171 118.125 151.948C117.848 151.725 117.494 151.614 117.065 151.614C116.635 151.614 116.282 151.725 116.005 151.948C115.728 152.171 115.523 152.463 115.389 152.825C115.256 153.186 115.19 153.576 115.19 153.995C115.19 154.413 115.256 154.802 115.389 155.16C115.523 155.519 115.728 155.809 116.005 156.029C116.282 156.249 116.635 156.359 117.065 156.359ZM124.044 150.831V151.646H120.669V150.831H124.044ZM121.68 157.093V149.967C121.68 149.608 121.764 149.309 121.933 149.07C122.101 148.831 122.32 148.651 122.589 148.532C122.858 148.412 123.142 148.352 123.441 148.352C123.678 148.352 123.871 148.371 124.02 148.41C124.169 148.448 124.281 148.483 124.354 148.516L124.077 149.347C124.028 149.331 123.96 149.31 123.873 149.286C123.789 149.262 123.678 149.249 123.539 149.249C123.221 149.249 122.991 149.33 122.85 149.49C122.711 149.65 122.642 149.885 122.642 150.195V157.093H121.68ZM131.115 150.831V151.646H127.87V150.831H131.115ZM128.816 149.331H129.778V155.299C129.778 155.571 129.817 155.775 129.896 155.911C129.978 156.044 130.081 156.133 130.206 156.18C130.334 156.223 130.468 156.245 130.61 156.245C130.716 156.245 130.803 156.239 130.87 156.229C130.938 156.215 130.993 156.204 131.034 156.196L131.229 157.06C131.164 157.085 131.073 157.109 130.956 157.134C130.839 157.161 130.691 157.174 130.512 157.174C130.24 157.174 129.974 157.116 129.713 156.999C129.455 156.882 129.24 156.704 129.069 156.465C128.9 156.226 128.816 155.924 128.816 155.56V149.331ZM133.544 153.326V157.093H132.582V148.744H133.544V151.809H133.626C133.772 151.486 133.993 151.229 134.286 151.039C134.582 150.846 134.976 150.75 135.468 150.75C135.895 150.75 136.269 150.835 136.589 151.006C136.91 151.175 137.159 151.434 137.335 151.785C137.515 152.133 137.604 152.576 137.604 153.114V157.093H136.642V153.179C136.642 152.682 136.513 152.297 136.255 152.026C136 151.751 135.645 151.614 135.191 151.614C134.876 151.614 134.593 151.68 134.343 151.814C134.096 151.947 133.9 152.141 133.756 152.396C133.615 152.652 133.544 152.962 133.544 153.326ZM141.875 157.223C141.272 157.223 140.751 157.09 140.314 156.824C139.879 156.555 139.543 156.18 139.307 155.699C139.073 155.215 138.956 154.652 138.956 154.011C138.956 153.369 139.073 152.804 139.307 152.315C139.543 151.823 139.872 151.44 140.293 151.165C140.717 150.888 141.212 150.75 141.777 150.75C142.103 150.75 142.425 150.804 142.743 150.913C143.061 151.021 143.351 151.198 143.612 151.443C143.873 151.684 144.081 152.005 144.235 152.405C144.39 152.804 144.468 153.296 144.468 153.88V154.288H139.641V153.456H143.489C143.489 153.103 143.419 152.788 143.277 152.511C143.139 152.233 142.94 152.015 142.682 151.854C142.427 151.694 142.125 151.614 141.777 151.614C141.394 151.614 141.062 151.709 140.783 151.899C140.505 152.087 140.292 152.331 140.143 152.633C139.993 152.935 139.918 153.258 139.918 153.603V154.158C139.918 154.63 140 155.031 140.163 155.36C140.329 155.686 140.558 155.935 140.852 156.106C141.145 156.275 141.486 156.359 141.875 156.359C142.128 156.359 142.356 156.324 142.56 156.253C142.767 156.18 142.945 156.071 143.094 155.927C143.243 155.78 143.359 155.598 143.441 155.381L144.37 155.641C144.272 155.957 144.108 156.234 143.877 156.473C143.646 156.71 143.36 156.894 143.021 157.028C142.681 157.158 142.299 157.223 141.875 157.223ZM148.93 157.093V150.831H149.86V151.809H149.941C150.072 151.475 150.283 151.216 150.573 151.031C150.864 150.843 151.213 150.75 151.621 150.75C152.034 150.75 152.378 150.843 152.652 151.031C152.93 151.216 153.146 151.475 153.301 151.809H153.366C153.526 151.486 153.767 151.229 154.087 151.039C154.408 150.846 154.793 150.75 155.241 150.75C155.801 150.75 156.259 150.925 156.615 151.275C156.971 151.623 157.149 152.165 157.149 152.902V157.093H156.187V152.902C156.187 152.44 156.06 152.11 155.808 151.911C155.555 151.713 155.257 151.614 154.915 151.614C154.475 151.614 154.134 151.747 153.892 152.013C153.65 152.277 153.529 152.611 153.529 153.016V157.093H152.55V152.804C152.55 152.448 152.435 152.161 152.204 151.944C151.973 151.724 151.675 151.614 151.311 151.614C151.061 151.614 150.827 151.68 150.61 151.814C150.395 151.947 150.221 152.132 150.088 152.368C149.958 152.602 149.893 152.872 149.893 153.179V157.093H148.93ZM161.419 157.223C160.815 157.223 160.295 157.09 159.857 156.824C159.422 156.555 159.087 156.18 158.85 155.699C158.617 155.215 158.5 154.652 158.5 154.011C158.5 153.369 158.617 152.804 158.85 152.315C159.087 151.823 159.416 151.44 159.837 151.165C160.261 150.888 160.755 150.75 161.321 150.75C161.647 150.75 161.969 150.804 162.287 150.913C162.605 151.021 162.894 151.198 163.155 151.443C163.416 151.684 163.624 152.005 163.779 152.405C163.934 152.804 164.011 153.296 164.011 153.88V154.288H159.185V153.456H163.033C163.033 153.103 162.962 152.788 162.821 152.511C162.682 152.233 162.484 152.015 162.226 151.854C161.97 151.694 161.669 151.614 161.321 151.614C160.937 151.614 160.606 151.709 160.326 151.899C160.049 152.087 159.835 152.331 159.686 152.633C159.536 152.935 159.462 153.258 159.462 153.603V154.158C159.462 154.63 159.543 155.031 159.706 155.36C159.872 155.686 160.102 155.935 160.395 156.106C160.689 156.275 161.03 156.359 161.419 156.359C161.671 156.359 161.9 156.324 162.103 156.253C162.31 156.18 162.488 156.071 162.637 155.927C162.787 155.78 162.902 155.598 162.984 155.381L163.913 155.641C163.816 155.957 163.651 156.234 163.42 156.473C163.189 156.71 162.904 156.894 162.564 157.028C162.224 157.158 161.843 157.223 161.419 157.223ZM167.724 157.223C167.203 157.223 166.742 157.091 166.342 156.828C165.943 156.561 165.63 156.186 165.405 155.703C165.179 155.216 165.066 154.641 165.066 153.978C165.066 153.321 165.179 152.75 165.405 152.266C165.63 151.782 165.944 151.409 166.347 151.145C166.749 150.881 167.214 150.75 167.741 150.75C168.148 150.75 168.47 150.817 168.707 150.953C168.946 151.087 169.128 151.239 169.253 151.41C169.381 151.578 169.48 151.717 169.551 151.826H169.632V148.744H170.594V157.093H169.665V156.131H169.551C169.48 156.245 169.38 156.389 169.249 156.563C169.119 156.734 168.932 156.888 168.691 157.023C168.449 157.157 168.127 157.223 167.724 157.223ZM167.855 156.359C168.241 156.359 168.567 156.258 168.833 156.057C169.1 155.853 169.302 155.572 169.441 155.213C169.579 154.852 169.649 154.435 169.649 153.962C169.649 153.494 169.581 153.085 169.445 152.735C169.309 152.382 169.108 152.107 168.841 151.911C168.575 151.713 168.246 151.614 167.855 151.614C167.447 151.614 167.108 151.718 166.836 151.928C166.567 152.134 166.364 152.416 166.228 152.772C166.095 153.125 166.029 153.522 166.029 153.962C166.029 154.408 166.097 154.813 166.232 155.177C166.371 155.538 166.575 155.826 166.844 156.041C167.116 156.253 167.453 156.359 167.855 156.359ZM172.375 157.093V150.831H173.337V157.093H172.375ZM172.864 149.787C172.677 149.787 172.515 149.724 172.379 149.596C172.246 149.468 172.18 149.315 172.18 149.135C172.18 148.956 172.246 148.802 172.379 148.675C172.515 148.547 172.677 148.483 172.864 148.483C173.052 148.483 173.212 148.547 173.345 148.675C173.481 148.802 173.549 148.956 173.549 149.135C173.549 149.315 173.481 149.468 173.345 149.596C173.212 149.724 173.052 149.787 172.864 149.787ZM176.827 157.24C176.43 157.24 176.07 157.165 175.747 157.015C175.424 156.863 175.167 156.644 174.976 156.359C174.786 156.071 174.691 155.723 174.691 155.315C174.691 154.957 174.762 154.666 174.903 154.443C175.044 154.217 175.233 154.041 175.47 153.913C175.706 153.785 175.967 153.69 176.252 153.628C176.541 153.562 176.83 153.511 177.121 153.473C177.501 153.424 177.81 153.387 178.046 153.363C178.285 153.335 178.459 153.291 178.568 153.228C178.679 153.166 178.735 153.057 178.735 152.902V152.869C178.735 152.467 178.625 152.155 178.405 151.932C178.188 151.709 177.857 151.597 177.414 151.597C176.955 151.597 176.595 151.698 176.334 151.899C176.073 152.1 175.89 152.315 175.784 152.543L174.87 152.217C175.034 151.837 175.251 151.54 175.523 151.328C175.797 151.114 176.096 150.964 176.42 150.88C176.746 150.793 177.066 150.75 177.382 150.75C177.583 150.75 177.814 150.774 178.075 150.823C178.338 150.869 178.592 150.966 178.837 151.112C179.084 151.259 179.29 151.481 179.453 151.777C179.616 152.073 179.697 152.47 179.697 152.967V157.093H178.735V156.245H178.686C178.621 156.381 178.512 156.526 178.36 156.681C178.208 156.836 178.005 156.968 177.753 157.076C177.5 157.185 177.191 157.24 176.827 157.24ZM176.974 156.375C177.355 156.375 177.675 156.301 177.936 156.151C178.2 156.002 178.398 155.809 178.531 155.572C178.667 155.336 178.735 155.087 178.735 154.826V153.946C178.694 153.995 178.605 154.039 178.466 154.08C178.33 154.118 178.173 154.152 177.993 154.182C177.817 154.209 177.644 154.234 177.475 154.255C177.31 154.274 177.175 154.291 177.072 154.304C176.822 154.337 176.588 154.39 176.371 154.463C176.156 154.534 175.982 154.641 175.849 154.785C175.718 154.927 175.653 155.12 175.653 155.364C175.653 155.699 175.777 155.951 176.024 156.123C176.274 156.291 176.591 156.375 176.974 156.375ZM187.241 150.831V151.646H183.865V150.831H187.241ZM184.876 157.093V149.967C184.876 149.608 184.961 149.309 185.129 149.07C185.298 148.831 185.516 148.651 185.785 148.532C186.054 148.412 186.338 148.352 186.637 148.352C186.874 148.352 187.067 148.371 187.216 148.41C187.366 148.448 187.477 148.483 187.551 148.516L187.273 149.347C187.224 149.331 187.156 149.31 187.07 149.286C186.985 149.262 186.874 149.249 186.735 149.249C186.417 149.249 186.188 149.33 186.046 149.49C185.908 149.65 185.838 149.885 185.838 150.195V157.093H184.876ZM190.76 157.223C190.195 157.223 189.699 157.089 189.272 156.82C188.848 156.551 188.517 156.174 188.278 155.69C188.041 155.207 187.923 154.641 187.923 153.995C187.923 153.342 188.041 152.773 188.278 152.286C188.517 151.8 188.848 151.422 189.272 151.153C189.699 150.884 190.195 150.75 190.76 150.75C191.326 150.75 191.82 150.884 192.244 151.153C192.671 151.422 193.002 151.8 193.239 152.286C193.478 152.773 193.598 153.342 193.598 153.995C193.598 154.641 193.478 155.207 193.239 155.69C193.002 156.174 192.671 156.551 192.244 156.82C191.82 157.089 191.326 157.223 190.76 157.223ZM190.76 156.359C191.19 156.359 191.543 156.249 191.82 156.029C192.097 155.809 192.303 155.519 192.436 155.16C192.569 154.802 192.636 154.413 192.636 153.995C192.636 153.576 192.569 153.186 192.436 152.825C192.303 152.463 192.097 152.171 191.82 151.948C191.543 151.725 191.19 151.614 190.76 151.614C190.331 151.614 189.978 151.725 189.7 151.948C189.423 152.171 189.218 152.463 189.085 152.825C188.952 153.186 188.885 153.576 188.885 153.995C188.885 154.413 188.952 154.802 189.085 155.16C189.218 155.519 189.423 155.809 189.7 156.029C189.978 156.249 190.331 156.359 190.76 156.359ZM194.951 157.093V150.831H195.881V151.777H195.946C196.06 151.467 196.267 151.216 196.566 151.023C196.865 150.83 197.202 150.733 197.577 150.733C197.647 150.733 197.736 150.735 197.842 150.737C197.948 150.74 198.028 150.744 198.082 150.75V151.728C198.05 151.72 197.975 151.708 197.858 151.691C197.744 151.672 197.623 151.663 197.495 151.663C197.191 151.663 196.919 151.727 196.68 151.854C196.443 151.979 196.256 152.153 196.117 152.376C195.981 152.596 195.913 152.848 195.913 153.13V157.093H194.951ZM82.1025 172.093L83.4723 163.744H84.2876L82.9178 172.093H82.1025ZM78.3031 169.777L78.4336 168.962H84.6626L84.5322 169.777H78.3031ZM79.1673 172.093L80.5371 163.744H81.3524L79.9827 172.093H79.1673ZM78.7923 166.875L78.9227 166.059H85.1518L85.0214 166.875H78.7923ZM90.5507 167.233L89.6864 167.478C89.6321 167.334 89.5519 167.194 89.4459 167.058C89.3426 166.92 89.2013 166.805 89.022 166.716C88.8426 166.626 88.6129 166.581 88.333 166.581C87.9498 166.581 87.6305 166.669 87.375 166.846C87.1222 167.02 86.9959 167.242 86.9959 167.511C86.9959 167.75 87.0828 167.939 87.2568 168.077C87.4307 168.216 87.7025 168.331 88.0721 168.424L89.0016 168.652C89.5614 168.788 89.9786 168.996 90.2531 169.276C90.5276 169.553 90.6648 169.91 90.6648 170.348C90.6648 170.707 90.5616 171.027 90.355 171.31C90.1512 171.593 89.8658 171.816 89.4989 171.979C89.132 172.142 88.7053 172.223 88.2189 172.223C87.5802 172.223 87.0516 172.085 86.633 171.807C86.2145 171.53 85.9495 171.125 85.8381 170.593L86.7513 170.364C86.8382 170.701 87.0027 170.954 87.2445 171.123C87.4891 171.291 87.8085 171.375 88.2025 171.375C88.651 171.375 89.007 171.28 89.2706 171.09C89.537 170.897 89.6701 170.666 89.6701 170.397C89.6701 170.179 89.594 169.997 89.4418 169.851C89.2897 169.701 89.0559 169.59 88.7407 169.516L87.697 169.272C87.1236 169.136 86.7023 168.925 86.4333 168.64C86.167 168.352 86.0338 167.992 86.0338 167.56C86.0338 167.206 86.133 166.894 86.3314 166.622C86.5325 166.35 86.8056 166.137 87.1508 165.982C87.4987 165.827 87.8927 165.75 88.333 165.75C88.9526 165.75 89.4391 165.885 89.7924 166.157C90.1485 166.429 90.4012 166.788 90.5507 167.233ZM95.9444 169.533V165.831H96.9065V172.093H95.9444V171.033H95.8792C95.7325 171.351 95.5042 171.621 95.1943 171.844C94.8845 172.064 94.4932 172.174 94.0203 172.174C93.6289 172.174 93.281 172.089 92.9767 171.917C92.6723 171.744 92.4331 171.483 92.2592 171.135C92.0852 170.784 91.9983 170.343 91.9983 169.81V165.831H92.9603V169.745C92.9603 170.201 93.0881 170.565 93.3435 170.837C93.6017 171.109 93.9306 171.245 94.3301 171.245C94.5693 171.245 94.8125 171.184 95.0598 171.061C95.3098 170.939 95.5191 170.752 95.6876 170.499C95.8588 170.246 95.9444 169.924 95.9444 169.533ZM99.5159 168.326V172.093H98.5539V165.831H99.4833V166.809H99.5649C99.7116 166.491 99.9345 166.236 100.233 166.043C100.532 165.847 100.918 165.75 101.391 165.75C101.815 165.75 102.186 165.837 102.504 166.01C102.822 166.182 103.069 166.443 103.246 166.793C103.423 167.141 103.511 167.581 103.511 168.114V172.093H102.549V168.179C102.549 167.687 102.421 167.304 102.166 167.03C101.91 166.752 101.56 166.614 101.114 166.614C100.807 166.614 100.532 166.68 100.29 166.814C100.051 166.947 99.8625 167.141 99.7238 167.396C99.5852 167.652 99.5159 167.962 99.5159 168.326ZM105.154 172.093V165.831H106.084V166.777H106.149C106.263 166.467 106.47 166.216 106.769 166.023C107.068 165.83 107.405 165.733 107.78 165.733C107.85 165.733 107.939 165.735 108.045 165.737C108.151 165.74 108.231 165.744 108.285 165.75V166.728C108.253 166.72 108.178 166.708 108.061 166.691C107.947 166.672 107.826 166.663 107.698 166.663C107.394 166.663 107.122 166.727 106.883 166.854C106.646 166.979 106.459 167.153 106.32 167.376C106.184 167.596 106.116 167.848 106.116 168.13V172.093H105.154ZM109.311 172.093V165.831H110.273V172.093H109.311ZM109.8 164.787C109.612 164.787 109.451 164.724 109.315 164.596C109.182 164.468 109.115 164.315 109.115 164.135C109.115 163.956 109.182 163.802 109.315 163.675C109.451 163.547 109.612 163.483 109.8 163.483C109.988 163.483 110.148 163.547 110.281 163.675C110.417 163.802 110.485 163.956 110.485 164.135C110.485 164.315 110.417 164.468 110.281 164.596C110.148 164.724 109.988 164.787 109.8 164.787ZM116.356 167.233L115.491 167.478C115.437 167.334 115.357 167.194 115.251 167.058C115.148 166.92 115.006 166.805 114.827 166.716C114.647 166.626 114.418 166.581 114.138 166.581C113.755 166.581 113.435 166.669 113.18 166.846C112.927 167.02 112.801 167.242 112.801 167.511C112.801 167.75 112.888 167.939 113.062 168.077C113.236 168.216 113.507 168.331 113.877 168.424L114.806 168.652C115.366 168.788 115.783 168.996 116.058 169.276C116.332 169.553 116.47 169.91 116.47 170.348C116.47 170.707 116.366 171.027 116.16 171.31C115.956 171.593 115.671 171.816 115.304 171.979C114.937 172.142 114.51 172.223 114.024 172.223C113.385 172.223 112.856 172.085 112.438 171.807C112.019 171.53 111.754 171.125 111.643 170.593L112.556 170.364C112.643 170.701 112.808 170.954 113.049 171.123C113.294 171.291 113.613 171.375 114.007 171.375C114.456 171.375 114.812 171.28 115.076 171.09C115.342 170.897 115.475 170.666 115.475 170.397C115.475 170.179 115.399 169.997 115.247 169.851C115.095 169.701 114.861 169.59 114.546 169.516L113.502 169.272C112.928 169.136 112.507 168.925 112.238 168.64C111.972 168.352 111.839 167.992 111.839 167.56C111.839 167.206 111.938 166.894 112.136 166.622C112.337 166.35 112.611 166.137 112.956 165.982C113.304 165.827 113.698 165.75 114.138 165.75C114.758 165.75 115.244 165.885 115.597 166.157C115.953 166.429 116.206 166.788 116.356 167.233ZM120.428 172.223C119.825 172.223 119.305 172.09 118.867 171.824C118.432 171.555 118.097 171.18 117.86 170.699C117.626 170.215 117.51 169.652 117.51 169.011C117.51 168.369 117.626 167.804 117.86 167.315C118.097 166.823 118.426 166.44 118.847 166.165C119.271 165.888 119.765 165.75 120.331 165.75C120.657 165.75 120.979 165.804 121.297 165.913C121.615 166.021 121.904 166.198 122.165 166.443C122.426 166.684 122.634 167.005 122.789 167.405C122.944 167.804 123.021 168.296 123.021 168.88V169.288H118.194V168.456H122.043C122.043 168.103 121.972 167.788 121.831 167.511C121.692 167.233 121.494 167.015 121.236 166.854C120.98 166.694 120.679 166.614 120.331 166.614C119.947 166.614 119.616 166.709 119.336 166.899C119.059 167.087 118.845 167.331 118.696 167.633C118.546 167.935 118.472 168.258 118.472 168.603V169.158C118.472 169.63 118.553 170.031 118.716 170.36C118.882 170.686 119.112 170.935 119.405 171.106C119.699 171.275 120.04 171.359 120.428 171.359C120.681 171.359 120.91 171.324 121.113 171.253C121.32 171.18 121.498 171.071 121.647 170.927C121.797 170.78 121.912 170.598 121.994 170.381L122.923 170.641C122.826 170.957 122.661 171.234 122.43 171.473C122.199 171.71 121.914 171.894 121.574 172.028C121.234 172.158 120.852 172.223 120.428 172.223ZM129.326 172.24C128.93 172.24 128.57 172.165 128.246 172.015C127.923 171.863 127.666 171.644 127.476 171.359C127.285 171.071 127.19 170.723 127.19 170.315C127.19 169.957 127.261 169.666 127.402 169.443C127.544 169.217 127.733 169.041 127.969 168.913C128.205 168.785 128.466 168.69 128.752 168.628C129.04 168.562 129.329 168.511 129.62 168.473C130 168.424 130.309 168.387 130.545 168.363C130.785 168.335 130.958 168.291 131.067 168.228C131.179 168.166 131.234 168.057 131.234 167.902V167.869C131.234 167.467 131.124 167.155 130.904 166.932C130.687 166.709 130.357 166.597 129.914 166.597C129.454 166.597 129.094 166.698 128.833 166.899C128.572 167.1 128.389 167.315 128.283 167.543L127.37 167.217C127.533 166.837 127.75 166.54 128.022 166.328C128.296 166.114 128.595 165.964 128.919 165.88C129.245 165.793 129.566 165.75 129.881 165.75C130.082 165.75 130.313 165.774 130.574 165.823C130.838 165.869 131.092 165.966 131.336 166.112C131.584 166.259 131.789 166.481 131.952 166.777C132.115 167.073 132.196 167.47 132.196 167.967V172.093H131.234V171.245H131.185C131.12 171.381 131.011 171.526 130.859 171.681C130.707 171.836 130.505 171.968 130.252 172.076C129.999 172.185 129.691 172.24 129.326 172.24ZM129.473 171.375C129.854 171.375 130.174 171.301 130.435 171.151C130.699 171.002 130.897 170.809 131.031 170.572C131.166 170.336 131.234 170.087 131.234 169.826V168.946C131.194 168.995 131.104 169.039 130.965 169.08C130.829 169.118 130.672 169.152 130.492 169.182C130.316 169.209 130.143 169.234 129.975 169.255C129.809 169.274 129.674 169.291 129.571 169.304C129.321 169.337 129.087 169.39 128.87 169.463C128.655 169.534 128.481 169.641 128.348 169.785C128.218 169.927 128.152 170.12 128.152 170.364C128.152 170.699 128.276 170.951 128.523 171.123C128.773 171.291 129.09 171.375 129.473 171.375ZM133.838 172.093V165.831H134.767V166.777H134.832C134.946 166.467 135.153 166.216 135.452 166.023C135.751 165.83 136.088 165.733 136.463 165.733C136.534 165.733 136.622 165.735 136.728 165.737C136.834 165.74 136.914 165.744 136.968 165.75V166.728C136.936 166.72 136.861 166.708 136.744 166.691C136.63 166.672 136.509 166.663 136.381 166.663C136.077 166.663 135.805 166.727 135.566 166.854C135.33 166.979 135.142 167.153 135.004 167.376C134.868 167.596 134.8 167.848 134.8 168.13V172.093H133.838ZM140.429 172.223C139.826 172.223 139.305 172.09 138.868 171.824C138.433 171.555 138.097 171.18 137.861 170.699C137.627 170.215 137.51 169.652 137.51 169.011C137.51 168.369 137.627 167.804 137.861 167.315C138.097 166.823 138.426 166.44 138.847 166.165C139.271 165.888 139.766 165.75 140.331 165.75C140.657 165.75 140.979 165.804 141.297 165.913C141.615 166.021 141.905 166.198 142.166 166.443C142.426 166.684 142.634 167.005 142.789 167.405C142.944 167.804 143.022 168.296 143.022 168.88V169.288H138.195V168.456H142.043C142.043 168.103 141.973 167.788 141.831 167.511C141.693 167.233 141.494 167.015 141.236 166.854C140.981 166.694 140.679 166.614 140.331 166.614C139.948 166.614 139.616 166.709 139.336 166.899C139.059 167.087 138.846 167.331 138.696 167.633C138.547 167.935 138.472 168.258 138.472 168.603V169.158C138.472 169.63 138.554 170.031 138.717 170.36C138.882 170.686 139.112 170.935 139.406 171.106C139.699 171.275 140.04 171.359 140.429 171.359C140.682 171.359 140.91 171.324 141.114 171.253C141.32 171.18 141.498 171.071 141.648 170.927C141.797 170.78 141.913 170.598 141.994 170.381L142.924 170.641C142.826 170.957 142.662 171.234 142.431 171.473C142.2 171.71 141.914 171.894 141.574 172.028C141.235 172.158 140.853 172.223 140.429 172.223ZM147.484 174.441V165.831H148.414V166.826H148.528C148.599 166.717 148.696 166.578 148.821 166.41C148.949 166.239 149.131 166.087 149.368 165.953C149.607 165.817 149.93 165.75 150.338 165.75C150.865 165.75 151.33 165.881 151.732 166.145C152.134 166.409 152.448 166.782 152.674 167.266C152.899 167.75 153.012 168.321 153.012 168.978C153.012 169.641 152.899 170.216 152.674 170.703C152.448 171.186 152.136 171.561 151.736 171.828C151.337 172.091 150.876 172.223 150.354 172.223C149.952 172.223 149.63 172.157 149.388 172.023C149.146 171.888 148.96 171.734 148.83 171.563C148.699 171.389 148.599 171.245 148.528 171.131H148.446V174.441H147.484ZM148.43 168.962C148.43 169.435 148.499 169.852 148.638 170.213C148.777 170.572 148.979 170.853 149.245 171.057C149.512 171.258 149.838 171.359 150.224 171.359C150.626 171.359 150.962 171.253 151.231 171.041C151.502 170.826 151.706 170.538 151.842 170.177C151.981 169.813 152.05 169.408 152.05 168.962C152.05 168.522 151.982 168.125 151.846 167.772C151.713 167.416 151.511 167.134 151.239 166.928C150.97 166.718 150.631 166.614 150.224 166.614C149.832 166.614 149.504 166.713 149.237 166.911C148.971 167.107 148.77 167.382 148.634 167.735C148.498 168.085 148.43 168.494 148.43 168.962ZM155.327 168.326V172.093H154.365V163.744H155.327V166.809H155.409C155.555 166.486 155.775 166.229 156.069 166.039C156.365 165.846 156.759 165.75 157.251 165.75C157.678 165.75 158.052 165.835 158.372 166.006C158.693 166.175 158.942 166.434 159.118 166.785C159.298 167.133 159.387 167.576 159.387 168.114V172.093H158.425V168.179C158.425 167.682 158.296 167.297 158.038 167.026C157.783 166.751 157.428 166.614 156.974 166.614C156.659 166.614 156.376 166.68 156.126 166.814C155.879 166.947 155.683 167.141 155.539 167.396C155.398 167.652 155.327 167.962 155.327 168.326ZM163.576 172.223C163.011 172.223 162.515 172.089 162.088 171.82C161.665 171.551 161.333 171.174 161.094 170.69C160.857 170.207 160.739 169.641 160.739 168.995C160.739 168.342 160.857 167.773 161.094 167.286C161.333 166.8 161.665 166.422 162.088 166.153C162.515 165.884 163.011 165.75 163.576 165.75C164.142 165.75 164.636 165.884 165.06 166.153C165.487 166.422 165.819 166.8 166.055 167.286C166.294 167.773 166.414 168.342 166.414 168.995C166.414 169.641 166.294 170.207 166.055 170.69C165.819 171.174 165.487 171.551 165.06 171.82C164.636 172.089 164.142 172.223 163.576 172.223ZM163.576 171.359C164.006 171.359 164.359 171.249 164.636 171.029C164.914 170.809 165.119 170.519 165.252 170.16C165.385 169.802 165.452 169.413 165.452 168.995C165.452 168.576 165.385 168.186 165.252 167.825C165.119 167.463 164.914 167.171 164.636 166.948C164.359 166.725 164.006 166.614 163.576 166.614C163.147 166.614 162.794 166.725 162.517 166.948C162.239 167.171 162.034 167.463 161.901 167.825C161.768 168.186 161.701 168.576 161.701 168.995C161.701 169.413 161.768 169.802 161.901 170.16C162.034 170.519 162.239 170.809 162.517 171.029C162.794 171.249 163.147 171.359 163.576 171.359ZM170.491 165.831V166.646H167.246V165.831H170.491ZM168.192 164.331H169.154V170.299C169.154 170.571 169.193 170.775 169.272 170.911C169.353 171.044 169.457 171.133 169.582 171.18C169.709 171.223 169.844 171.245 169.985 171.245C170.091 171.245 170.178 171.239 170.246 171.229C170.314 171.215 170.368 171.204 170.409 171.196L170.605 172.06C170.54 172.085 170.449 172.109 170.332 172.134C170.215 172.161 170.067 172.174 169.887 172.174C169.616 172.174 169.349 172.116 169.088 171.999C168.83 171.882 168.616 171.704 168.444 171.465C168.276 171.226 168.192 170.924 168.192 170.56V164.331ZM174.3 172.223C173.734 172.223 173.238 172.089 172.812 171.82C172.388 171.551 172.056 171.174 171.817 170.69C171.581 170.207 171.462 169.641 171.462 168.995C171.462 168.342 171.581 167.773 171.817 167.286C172.056 166.8 172.388 166.422 172.812 166.153C173.238 165.884 173.734 165.75 174.3 165.75C174.865 165.75 175.36 165.884 175.784 166.153C176.21 166.422 176.542 166.8 176.778 167.286C177.018 167.773 177.137 168.342 177.137 168.995C177.137 169.641 177.018 170.207 176.778 170.69C176.542 171.174 176.21 171.551 175.784 171.82C175.36 172.089 174.865 172.223 174.3 172.223ZM174.3 171.359C174.729 171.359 175.082 171.249 175.36 171.029C175.637 170.809 175.842 170.519 175.975 170.16C176.108 169.802 176.175 169.413 176.175 168.995C176.175 168.576 176.108 168.186 175.975 167.825C175.842 167.463 175.637 167.171 175.36 166.948C175.082 166.725 174.729 166.614 174.3 166.614C173.87 166.614 173.517 166.725 173.24 166.948C172.963 167.171 172.757 167.463 172.624 167.825C172.491 168.186 172.425 168.576 172.425 168.995C172.425 169.413 172.491 169.802 172.624 170.16C172.757 170.519 172.963 170.809 173.24 171.029C173.517 171.249 173.87 171.359 174.3 171.359ZM182.926 167.233L182.062 167.478C182.008 167.334 181.928 167.194 181.822 167.058C181.718 166.92 181.577 166.805 181.398 166.716C181.218 166.626 180.989 166.581 180.709 166.581C180.325 166.581 180.006 166.669 179.751 166.846C179.498 167.02 179.371 167.242 179.371 167.511C179.371 167.75 179.458 167.939 179.632 168.077C179.806 168.216 180.078 168.331 180.448 168.424L181.377 168.652C181.937 168.788 182.354 168.996 182.629 169.276C182.903 169.553 183.04 169.91 183.04 170.348C183.04 170.707 182.937 171.027 182.731 171.31C182.527 171.593 182.241 171.816 181.875 171.979C181.508 172.142 181.081 172.223 180.594 172.223C179.956 172.223 179.427 172.085 179.009 171.807C178.59 171.53 178.325 171.125 178.214 170.593L179.127 170.364C179.214 170.701 179.378 170.954 179.62 171.123C179.865 171.291 180.184 171.375 180.578 171.375C181.027 171.375 181.383 171.28 181.646 171.09C181.913 170.897 182.046 170.666 182.046 170.397C182.046 170.179 181.97 169.997 181.817 169.851C181.665 169.701 181.432 169.59 181.116 169.516L180.073 169.272C179.499 169.136 179.078 168.925 178.809 168.64C178.543 168.352 178.409 167.992 178.409 167.56C178.409 167.206 178.509 166.894 178.707 166.622C178.908 166.35 179.181 166.137 179.526 165.982C179.874 165.827 180.268 165.75 180.709 165.75C181.328 165.75 181.815 165.885 182.168 166.157C182.524 166.429 182.777 166.788 182.926 167.233ZM185.075 172.158C184.874 172.158 184.701 172.086 184.557 171.942C184.413 171.798 184.341 171.625 184.341 171.424C184.341 171.223 184.413 171.051 184.557 170.906C184.701 170.762 184.874 170.69 185.075 170.69C185.276 170.69 185.449 170.762 185.593 170.906C185.737 171.051 185.809 171.223 185.809 171.424C185.809 171.557 185.775 171.68 185.707 171.791C185.642 171.903 185.553 171.992 185.442 172.06C185.333 172.125 185.211 172.158 185.075 172.158Z" fill="white"/>
<defs>
<filter id="filter0_d_2270_503956" x="0.928171" y="0.572972" width="330.616" height="313.237" filterUnits="userSpaceOnUse" color-interpolation-filters="sRGB">
<feFlood flood-opacity="0" result="BackgroundImageFix"/>
<feColorMatrix in="SourceAlpha" type="matrix" values="0 0 0 0 0 0 0 0 0 0 0 0 0 0 0 0 0 0 127 0" result="hardAlpha"/>
<feOffset dy="8.75271"/>
<feGaussianBlur stdDeviation="8.75271"/>
<feColorMatrix type="matrix" values="0 0 0 0 0 0 0 0 0 0 0 0 0 0 0 0 0 0 0.07 0"/>
<feBlend mode="normal" in2="BackgroundImageFix" result="effect1_dropShadow_2270_503956"/>
<feBlend mode="normal" in="SourceGraphic" in2="effect1_dropShadow_2270_503956" result="shape"/>
</filter>
<filter id="filter1_d_2270_503956" x="47.3864" y="62.3711" width="208.559" height="243.653" filterUnits="userSpaceOnUse" color-interpolation-filters="sRGB">
<feFlood flood-opacity="0" result="BackgroundImageFix"/>
<feColorMatrix in="SourceAlpha" type="matrix" values="0 0 0 0 0 0 0 0 0 0 0 0 0 0 0 0 0 0 127 0" result="hardAlpha"/>
<feOffset dy="20.6837"/>
<feGaussianBlur stdDeviation="19.133"/>
<feColorMatrix type="matrix" values="0 0 0 0 0 0 0 0 0 0 0 0 0 0 0 0 0 0 0.1 0"/>
<feBlend mode="normal" in2="BackgroundImageFix" result="effect1_dropShadow_2270_503956"/>
<feBlend mode="normal" in="SourceGraphic" in2="effect1_dropShadow_2270_503956" result="shape"/>
</filter>
</defs>
</svg>
