<svg width="216" height="245" viewBox="0 0 216 245" fill="none" xmlns="http://www.w3.org/2000/svg">
<g filter="url(#filter0_d_2270_503975)">
<rect x="18.3242" y="9.43005" width="179.85" height="208.443" rx="9.5665" fill="white"/>
</g>
<path d="M70.2056 132.209H71.5563L74.2577 136.756H74.3719L77.0733 132.209H78.4241L74.9046 137.936V141.95H73.7251V137.936L70.2056 132.209ZM81.7319 142.102C81.0724 142.102 80.4937 141.945 79.9959 141.631C79.5013 141.317 79.1145 140.878 78.8355 140.314C78.5596 139.749 78.4217 139.09 78.4217 138.335C78.4217 137.574 78.5596 136.91 78.8355 136.342C79.1145 135.775 79.5013 135.334 79.9959 135.02C80.4937 134.706 81.0724 134.549 81.7319 134.549C82.3914 134.549 82.9685 134.706 83.4631 135.02C83.9609 135.334 84.3477 135.775 84.6236 136.342C84.9026 136.91 85.0421 137.574 85.0421 138.335C85.0421 139.09 84.9026 139.749 84.6236 140.314C84.3477 140.878 83.9609 141.317 83.4631 141.631C82.9685 141.945 82.3914 142.102 81.7319 142.102ZM81.7319 141.094C82.2329 141.094 82.6451 140.965 82.9685 140.708C83.2919 140.452 83.5313 140.114 83.6867 139.695C83.842 139.277 83.9197 138.824 83.9197 138.335C83.9197 137.847 83.842 137.392 83.6867 136.97C83.5313 136.549 83.2919 136.208 82.9685 135.948C82.6451 135.688 82.2329 135.558 81.7319 135.558C81.2309 135.558 80.8187 135.688 80.4953 135.948C80.1719 136.208 79.9325 136.549 79.7772 136.97C79.6218 137.392 79.5441 137.847 79.5441 138.335C79.5441 138.824 79.6218 139.277 79.7772 139.695C79.9325 140.114 80.1719 140.452 80.4953 140.708C80.8187 140.965 81.2309 141.094 81.7319 141.094ZM91.3594 138.963V134.645H92.4818V141.95H91.3594V140.713H91.2833C91.1121 141.084 90.8457 141.4 90.4843 141.66C90.1228 141.917 89.6662 142.045 89.1145 142.045C88.6579 142.045 88.2521 141.945 87.897 141.745C87.5418 141.542 87.2628 141.238 87.0599 140.832C86.857 140.423 86.7555 139.908 86.7555 139.286V134.645H87.8779V139.21C87.8779 139.743 88.027 140.168 88.325 140.485C88.6262 140.802 89.0099 140.961 89.476 140.961C89.755 140.961 90.0388 140.889 90.3273 140.747C90.619 140.604 90.8632 140.385 91.0598 140.09C91.2595 139.795 91.3594 139.42 91.3594 138.963ZM94.5376 141.95V134.645H95.622V135.748H95.6981C95.8313 135.386 96.0723 135.093 96.421 134.868C96.7698 134.643 97.163 134.53 97.6005 134.53C97.683 134.53 97.786 134.532 97.9097 134.535C98.0333 134.538 98.1269 134.543 98.1903 134.549V135.691C98.1522 135.681 98.065 135.667 97.9287 135.648C97.7955 135.626 97.6544 135.615 97.5054 135.615C97.1503 135.615 96.8332 135.689 96.5542 135.838C96.2784 135.984 96.0596 136.187 95.8979 136.447C95.7393 136.704 95.6601 136.997 95.6601 137.327V141.95H94.5376ZM110.098 135.253C109.994 134.933 109.856 134.646 109.685 134.392C109.516 134.136 109.315 133.917 109.081 133.736C108.849 133.555 108.586 133.417 108.291 133.322C107.996 133.227 107.673 133.18 107.321 133.18C106.744 133.18 106.219 133.329 105.746 133.627C105.274 133.925 104.898 134.364 104.619 134.944C104.34 135.524 104.201 136.236 104.201 137.08C104.201 137.923 104.342 138.635 104.624 139.215C104.906 139.795 105.288 140.234 105.77 140.533C106.252 140.831 106.794 140.98 107.397 140.98C107.955 140.98 108.446 140.861 108.871 140.623C109.299 140.382 109.632 140.043 109.87 139.605C110.111 139.164 110.231 138.646 110.231 138.05L110.593 138.126H107.663V137.08H111.373V138.126C111.373 138.928 111.202 139.626 110.859 140.219C110.52 140.812 110.051 141.271 109.451 141.598C108.855 141.921 108.171 142.083 107.397 142.083C106.534 142.083 105.777 141.88 105.123 141.474C104.473 141.068 103.966 140.491 103.602 139.743C103.24 138.995 103.059 138.107 103.059 137.08C103.059 136.309 103.162 135.616 103.368 135.001C103.578 134.383 103.873 133.857 104.253 133.422C104.634 132.988 105.084 132.655 105.604 132.423C106.124 132.192 106.696 132.076 107.321 132.076C107.834 132.076 108.313 132.154 108.757 132.309C109.204 132.461 109.602 132.679 109.951 132.961C110.303 133.24 110.596 133.574 110.831 133.964C111.065 134.351 111.227 134.781 111.316 135.253H110.098ZM113.241 141.95V134.645H114.325V135.748H114.401C114.535 135.386 114.776 135.093 115.124 134.868C115.473 134.643 115.866 134.53 116.304 134.53C116.386 134.53 116.489 134.532 116.613 134.535C116.737 134.538 116.83 134.543 116.894 134.549V135.691C116.855 135.681 116.768 135.667 116.632 135.648C116.499 135.626 116.358 135.615 116.209 135.615C115.854 135.615 115.536 135.689 115.257 135.838C114.982 135.984 114.763 136.187 114.601 136.447C114.443 136.704 114.363 136.997 114.363 137.327V141.95H113.241ZM120.969 142.102C120.31 142.102 119.731 141.945 119.234 141.631C118.739 141.317 118.352 140.878 118.073 140.314C117.797 139.749 117.659 139.09 117.659 138.335C117.659 137.574 117.797 136.91 118.073 136.342C118.352 135.775 118.739 135.334 119.234 135.02C119.731 134.706 120.31 134.549 120.969 134.549C121.629 134.549 122.206 134.706 122.701 135.02C123.199 135.334 123.585 135.775 123.861 136.342C124.14 136.91 124.28 137.574 124.28 138.335C124.28 139.09 124.14 139.749 123.861 140.314C123.585 140.878 123.199 141.317 122.701 141.631C122.206 141.945 121.629 142.102 120.969 142.102ZM120.969 141.094C121.47 141.094 121.883 140.965 122.206 140.708C122.529 140.452 122.769 140.114 122.924 139.695C123.08 139.277 123.157 138.824 123.157 138.335C123.157 137.847 123.08 137.392 122.924 136.97C122.769 136.549 122.529 136.208 122.206 135.948C121.883 135.688 121.47 135.558 120.969 135.558C120.469 135.558 120.056 135.688 119.733 135.948C119.41 136.208 119.17 136.549 119.015 136.97C118.859 137.392 118.782 137.847 118.782 138.335C118.782 138.824 118.859 139.277 119.015 139.695C119.17 140.114 119.41 140.452 119.733 140.708C120.056 140.965 120.469 141.094 120.969 141.094ZM127.4 141.95L125.174 134.645H126.353L127.932 140.238H128.008L129.568 134.645H130.767L132.308 140.219H132.384L133.963 134.645H135.143L132.917 141.95H131.813L130.215 136.338H130.101L128.503 141.95H127.4ZM139.804 134.645V135.596H136.018V134.645H139.804ZM137.121 132.894H138.244V139.857C138.244 140.174 138.29 140.412 138.381 140.571C138.477 140.726 138.597 140.831 138.743 140.884C138.892 140.935 139.049 140.961 139.214 140.961C139.337 140.961 139.439 140.954 139.518 140.942C139.597 140.926 139.661 140.913 139.708 140.903L139.937 141.912C139.861 141.94 139.754 141.969 139.618 141.997C139.482 142.029 139.309 142.045 139.1 142.045C138.783 142.045 138.472 141.977 138.167 141.84C137.866 141.704 137.616 141.496 137.416 141.217C137.219 140.938 137.121 140.586 137.121 140.162V132.894ZM142.771 137.555V141.95H141.649V132.209H142.771V135.786H142.866C143.038 135.409 143.294 135.109 143.637 134.887C143.983 134.662 144.442 134.549 145.016 134.549C145.514 134.549 145.95 134.649 146.324 134.849C146.698 135.046 146.988 135.348 147.194 135.757C147.404 136.163 147.508 136.68 147.508 137.308V141.95H146.386V137.384C146.386 136.804 146.235 136.355 145.934 136.038C145.636 135.718 145.222 135.558 144.693 135.558C144.325 135.558 143.995 135.635 143.704 135.791C143.415 135.946 143.187 136.173 143.019 136.471C142.854 136.769 142.771 137.13 142.771 137.555Z" fill="#3E4581"/>
<path d="M74.9245 178.073C73.4025 178.073 72.047 177.811 70.858 177.288C69.6758 176.758 68.7416 176.031 68.0553 175.107C67.3759 174.176 67.026 173.103 67.0056 171.887H71.4491C71.4763 172.396 71.6428 172.845 71.9485 173.232C72.2611 173.612 72.6755 173.908 73.1919 174.119C73.7083 174.329 74.2892 174.434 74.9346 174.434C75.6073 174.434 76.2018 174.316 76.7182 174.078C77.2345 173.84 77.6388 173.51 77.931 173.089C78.2231 172.668 78.3692 172.182 78.3692 171.632C78.3692 171.075 78.2129 170.582 77.9004 170.154C77.5946 169.719 77.153 169.379 76.5755 169.135C76.0048 168.89 75.3253 168.768 74.5372 168.768H72.5906V165.527H74.5372C75.203 165.527 75.7907 165.411 76.3003 165.18C76.8167 164.949 77.2176 164.63 77.5029 164.222C77.7883 163.808 77.931 163.326 77.931 162.775C77.931 162.252 77.8053 161.793 77.5539 161.399C77.3093 160.999 76.9628 160.686 76.5143 160.462C76.0727 160.238 75.5563 160.125 74.9652 160.125C74.3673 160.125 73.8204 160.234 73.3244 160.452C72.8284 160.662 72.4309 160.965 72.132 161.359C71.833 161.753 71.6733 162.215 71.653 162.745H67.4234C67.4438 161.542 67.7869 160.482 68.4528 159.565C69.1186 158.648 70.0155 157.931 71.1434 157.415C72.278 156.891 73.5588 156.63 74.9856 156.63C76.426 156.63 77.6864 156.891 78.7667 157.415C79.847 157.938 80.6861 158.644 81.284 159.534C81.8887 160.418 82.1877 161.41 82.1809 162.51C82.1877 163.679 81.8242 164.654 81.0904 165.435C80.3634 166.217 79.4155 166.713 78.2469 166.923V167.086C79.7824 167.283 80.9511 167.817 81.7528 168.686C82.5613 169.549 82.9622 170.63 82.9554 171.927C82.9622 173.116 82.6191 174.173 81.9261 175.097C81.2398 176.021 80.292 176.748 79.0826 177.278C77.8732 177.808 76.4872 178.073 74.9245 178.073ZM90.2985 174.934L90.1863 176.055C90.098 176.952 89.9282 177.845 89.6768 178.735C89.4322 179.632 89.174 180.444 88.9022 181.171C88.6372 181.898 88.4232 182.469 88.2601 182.883H85.4473C85.5492 182.482 85.6885 181.922 85.8651 181.202C86.0418 180.488 86.2082 179.687 86.3645 178.796C86.5208 177.906 86.6193 176.999 86.6601 176.075L86.711 174.934H90.2985ZM101.57 178.246C99.8174 178.239 98.309 177.808 97.0453 176.952C95.7883 176.096 94.8201 174.856 94.1407 173.232C93.468 171.608 93.1351 169.655 93.1419 167.372C93.1419 165.096 93.4782 163.156 94.1509 161.552C94.8303 159.949 95.7985 158.729 97.0555 157.894C98.3192 157.051 99.8242 156.63 101.57 156.63C103.316 156.63 104.818 157.051 106.075 157.894C107.339 158.736 108.31 159.959 108.99 161.562C109.669 163.159 110.006 165.096 109.999 167.372C109.999 169.661 109.659 171.618 108.98 173.242C108.307 174.866 107.342 176.106 106.085 176.962C104.828 177.818 103.323 178.246 101.57 178.246ZM101.57 174.587C102.766 174.587 103.721 173.986 104.434 172.783C105.148 171.581 105.501 169.777 105.494 167.372C105.494 165.789 105.331 164.47 105.005 163.417C104.686 162.364 104.23 161.573 103.639 161.043C103.055 160.513 102.365 160.248 101.57 160.248C100.381 160.248 99.4301 160.842 98.7167 162.031C98.0033 163.22 97.6432 165 97.6364 167.372C97.6364 168.975 97.7961 170.314 98.1154 171.387C98.4415 172.454 98.9001 173.256 99.4913 173.792C100.082 174.322 100.775 174.587 101.57 174.587ZM121.329 178.246C119.576 178.239 118.068 177.808 116.804 176.952C115.547 176.096 114.579 174.856 113.9 173.232C113.227 171.608 112.894 169.655 112.901 167.372C112.901 165.096 113.237 163.156 113.91 161.552C114.589 159.949 115.557 158.729 116.814 157.894C118.078 157.051 119.583 156.63 121.329 156.63C123.075 156.63 124.577 157.051 125.834 157.894C127.098 158.736 128.069 159.959 128.749 161.562C129.428 163.159 129.764 165.096 129.758 167.372C129.758 169.661 129.418 171.618 128.739 173.242C128.066 174.866 127.101 176.106 125.844 176.962C124.587 177.818 123.082 178.246 121.329 178.246ZM121.329 174.587C122.525 174.587 123.48 173.986 124.193 172.783C124.907 171.581 125.26 169.777 125.253 167.372C125.253 165.789 125.09 164.47 124.764 163.417C124.444 162.364 123.989 161.573 123.398 161.043C122.814 160.513 122.124 160.248 121.329 160.248C120.14 160.248 119.189 160.842 118.476 162.031C117.762 163.22 117.402 165 117.395 167.372C117.395 168.975 117.555 170.314 117.874 171.387C118.2 172.454 118.659 173.256 119.25 173.792C119.841 174.322 120.534 174.587 121.329 174.587ZM141.088 178.246C139.335 178.239 137.827 177.808 136.563 176.952C135.306 176.096 134.338 174.856 133.659 173.232C132.986 171.608 132.653 169.655 132.66 167.372C132.66 165.096 132.996 163.156 133.669 161.552C134.348 159.949 135.316 158.729 136.573 157.894C137.837 157.051 139.342 156.63 141.088 156.63C142.834 156.63 144.336 157.051 145.593 157.894C146.857 158.736 147.828 159.959 148.508 161.562C149.187 163.159 149.523 165.096 149.517 167.372C149.517 169.661 149.177 171.618 148.497 173.242C147.825 174.866 146.86 176.106 145.603 176.962C144.346 177.818 142.841 178.246 141.088 178.246ZM141.088 174.587C142.284 174.587 143.239 173.986 143.952 172.783C144.665 171.581 145.019 169.777 145.012 167.372C145.012 165.789 144.849 164.47 144.523 163.417C144.203 162.364 143.748 161.573 143.157 161.043C142.573 160.513 141.883 160.248 141.088 160.248C139.899 160.248 138.948 160.842 138.235 162.031C137.521 163.22 137.161 165 137.154 167.372C137.154 168.975 137.314 170.314 137.633 171.387C137.959 172.454 138.418 173.256 139.009 173.792C139.6 174.322 140.293 174.587 141.088 174.587Z" fill="#E71D7C"/>
<path opacity="0.96" d="M35.9572 58.0712H33.2666L38.1653 44.1563H41.2772L46.1827 58.0712H43.4921L39.7756 47.0099H39.6669L35.9572 58.0712ZM36.0455 52.6153H43.3834V54.64H36.0455V52.6153ZM47.9068 58.0712V47.635H50.2576V49.4083H50.3799C50.5974 48.8104 50.9575 48.3439 51.4602 48.0087C51.963 47.669 52.5632 47.4991 53.2608 47.4991C53.9674 47.4991 54.563 47.6712 55.0477 48.0155C55.5369 48.3552 55.8811 48.8195 56.0804 49.4083H56.1891C56.4202 48.8285 56.8097 48.3665 57.3578 48.0223C57.9104 47.6735 58.5649 47.4991 59.3214 47.4991C60.2816 47.4991 61.0652 47.8026 61.6722 48.4095C62.2792 49.0165 62.5827 49.902 62.5827 51.0662V58.0712H60.1163V51.4466C60.1163 50.7989 59.9442 50.3256 59.5999 50.0266C59.2557 49.7231 58.8344 49.5714 58.3362 49.5714C57.7428 49.5714 57.2785 49.7571 56.9433 50.1285C56.6127 50.4954 56.4473 50.9733 56.4473 51.5621V58.0712H54.0353V51.3447C54.0353 50.8057 53.8723 50.3754 53.5461 50.0538C53.2245 49.7322 52.8033 49.5714 52.2824 49.5714C51.9291 49.5714 51.6075 49.662 51.3176 49.8432C51.0277 50.0198 50.7967 50.2712 50.6245 50.5973C50.4524 50.9189 50.3664 51.2949 50.3664 51.7252V58.0712H47.9068ZM68.081 58.2818C67.4197 58.2818 66.8241 58.164 66.2941 57.9285C65.7687 57.6884 65.3519 57.3351 65.0439 56.8686C64.7404 56.402 64.5887 55.8268 64.5887 55.1428C64.5887 54.5539 64.6974 54.067 64.9148 53.682C65.1323 53.297 65.4289 52.989 65.8049 52.758C66.1809 52.5269 66.6044 52.3526 67.0754 52.2348C67.5511 52.1125 68.0425 52.0242 68.5498 51.9698C69.1613 51.9064 69.6573 51.8498 70.0378 51.7999C70.4183 51.7456 70.6946 51.6641 70.8667 51.5553C71.0434 51.4421 71.1317 51.2677 71.1317 51.0322V50.9914C71.1317 50.4796 70.98 50.0832 70.6765 49.8024C70.373 49.5216 69.9359 49.3811 69.3652 49.3811C68.7627 49.3811 68.2849 49.5125 67.9315 49.7752C67.5828 50.0379 67.3472 50.3482 67.2249 50.7061L64.9284 50.3799C65.1096 49.7458 65.4086 49.2158 65.8253 48.79C66.242 48.3597 66.7516 48.0381 67.354 47.8252C67.9565 47.6078 68.6223 47.4991 69.3516 47.4991C69.8544 47.4991 70.3549 47.558 70.8531 47.6758C71.3514 47.7935 71.8066 47.9883 72.2188 48.2601C72.631 48.5273 72.9617 48.8919 73.2108 49.354C73.4644 49.816 73.5913 50.3935 73.5913 51.0865V58.0712H71.2268V56.6376H71.1453C70.9958 56.9274 70.7852 57.1992 70.5134 57.4529C70.2462 57.702 69.9087 57.9036 69.501 58.0576C69.0979 58.2071 68.6246 58.2818 68.081 58.2818ZM68.7197 56.4745C69.2134 56.4745 69.6415 56.3771 70.0038 56.1823C70.3662 55.983 70.6448 55.7203 70.8395 55.3942C71.0388 55.068 71.1385 54.7125 71.1385 54.3275V53.0977C71.0615 53.1611 70.9301 53.22 70.7444 53.2743C70.5632 53.3287 70.3594 53.3762 70.1329 53.417C69.9064 53.4578 69.6822 53.494 69.4603 53.5257C69.2383 53.5574 69.0458 53.5846 68.8828 53.6073C68.5159 53.6571 68.1875 53.7386 67.8976 53.8519C67.6077 53.9651 67.3789 54.1236 67.2113 54.3275C67.0437 54.5268 66.9599 54.7849 66.9599 55.102C66.9599 55.555 67.1253 55.897 67.4559 56.128C67.7866 56.359 68.2078 56.4745 68.7197 56.4745ZM78.524 51.9562V58.0712H76.0644V47.635H78.4153V49.4083H78.5376C78.7776 48.824 79.1604 48.3597 79.6858 48.0155C80.2158 47.6712 80.8703 47.4991 81.6494 47.4991C82.3696 47.4991 82.997 47.6531 83.5315 47.9611C84.0705 48.2691 84.4872 48.7153 84.7816 49.2996C85.0806 49.8839 85.2278 50.5928 85.2233 51.4263V58.0712H82.7637V51.8067C82.7637 51.1092 82.5825 50.5634 82.2201 50.1693C81.8623 49.7752 81.3663 49.5782 80.7322 49.5782C80.3019 49.5782 79.9191 49.6733 79.5839 49.8635C79.2533 50.0493 78.9928 50.3188 78.8026 50.6721C78.6168 51.0254 78.524 51.4534 78.524 51.9562ZM91.5964 58.2546C90.7765 58.2546 90.0427 58.044 89.395 57.6227C88.7473 57.2015 88.2354 56.59 87.8595 55.7883C87.4835 54.9865 87.2955 54.0127 87.2955 52.8667C87.2955 51.7071 87.4858 50.7287 87.8663 49.9315C88.2513 49.1298 88.7699 48.5251 89.4222 48.1174C90.0744 47.7052 90.8014 47.4991 91.6032 47.4991C92.2147 47.4991 92.7175 47.6033 93.1115 47.8116C93.5056 48.0155 93.8182 48.2623 94.0492 48.5522C94.2802 48.8376 94.4591 49.1071 94.5859 49.3608H94.6878V44.1563H97.1542V58.0712H94.7354V56.4269H94.5859C94.4591 56.6806 94.2756 56.9501 94.0356 57.2355C93.7955 57.5163 93.4784 57.7564 93.0844 57.9557C92.6903 58.155 92.1943 58.2546 91.5964 58.2546ZM92.2826 56.2367C92.8035 56.2367 93.2474 56.0963 93.6143 55.8154C93.9812 55.5301 94.2598 55.1337 94.45 54.6264C94.6403 54.1191 94.7354 53.528 94.7354 52.8531C94.7354 52.1782 94.6403 51.5916 94.45 51.0933C94.2643 50.5951 93.988 50.2078 93.6211 49.9315C93.2588 49.6552 92.8126 49.517 92.2826 49.517C91.7345 49.517 91.2771 49.6597 90.9102 49.9451C90.5433 50.2304 90.267 50.6245 90.0812 51.1273C89.8955 51.6301 89.8027 52.2053 89.8027 52.8531C89.8027 53.5053 89.8955 54.0874 90.0812 54.5992C90.2715 55.1065 90.5501 55.5074 90.917 55.8018C91.2884 56.0917 91.7436 56.2367 92.2826 56.2367ZM102.778 58.2818C102.117 58.2818 101.521 58.164 100.991 57.9285C100.466 57.6884 100.049 57.3351 99.7412 56.8686C99.4377 56.402 99.2859 55.8268 99.2859 55.1428C99.2859 54.5539 99.3946 54.067 99.6121 53.682C99.8295 53.297 100.126 52.989 100.502 52.758C100.878 52.5269 101.302 52.3526 101.773 52.2348C102.248 52.1125 102.74 52.0242 103.247 51.9698C103.859 51.9064 104.355 51.8498 104.735 51.7999C105.116 51.7456 105.392 51.6641 105.564 51.5553C105.741 51.4421 105.829 51.2677 105.829 51.0322V50.9914C105.829 50.4796 105.677 50.0832 105.374 49.8024C105.07 49.5216 104.633 49.3811 104.062 49.3811C103.46 49.3811 102.982 49.5125 102.629 49.7752C102.28 50.0379 102.044 50.3482 101.922 50.7061L99.6257 50.3799C99.8068 49.7458 100.106 49.2158 100.523 48.79C100.939 48.3597 101.449 48.0381 102.051 47.8252C102.654 47.6078 103.32 47.4991 104.049 47.4991C104.552 47.4991 105.052 47.558 105.55 47.6758C106.049 47.7935 106.504 47.9883 106.916 48.2601C107.328 48.5273 107.659 48.8919 107.908 49.354C108.162 49.816 108.288 50.3935 108.288 51.0865V58.0712H105.924V56.6376H105.843C105.693 56.9274 105.482 57.1992 105.211 57.4529C104.943 57.702 104.606 57.9036 104.198 58.0576C103.795 58.2071 103.322 58.2818 102.778 58.2818ZM103.417 56.4745C103.911 56.4745 104.339 56.3771 104.701 56.1823C105.063 55.983 105.342 55.7203 105.537 55.3942C105.736 55.068 105.836 54.7125 105.836 54.3275V53.0977C105.759 53.1611 105.627 53.22 105.442 53.2743C105.26 53.3287 105.057 53.3762 104.83 53.417C104.604 53.4578 104.379 53.494 104.158 53.5257C103.936 53.5574 103.743 53.5846 103.58 53.6073C103.213 53.6571 102.885 53.7386 102.595 53.8519C102.305 53.9651 102.076 54.1236 101.909 54.3275C101.741 54.5268 101.657 54.7849 101.657 55.102C101.657 55.555 101.823 55.897 102.153 56.128C102.484 56.359 102.905 56.4745 103.417 56.4745ZM115.616 44.1563H118.701L122.832 54.2391H122.995L127.126 44.1563H130.211V58.0712H127.792V48.5115H127.663L123.817 58.0304H122.01L118.164 48.4911H118.035V58.0712H115.616V44.1563ZM134.362 58.2206C133.95 58.2206 133.596 58.0757 133.302 57.7858C133.008 57.4959 132.863 57.1426 132.867 56.7259C132.863 56.3182 133.008 55.9694 133.302 55.6795C133.596 55.3896 133.95 55.2447 134.362 55.2447C134.761 55.2447 135.107 55.3896 135.402 55.6795C135.7 55.9694 135.852 56.3182 135.857 56.7259C135.852 57.0022 135.78 57.2536 135.639 57.4801C135.503 57.7065 135.322 57.8877 135.096 58.0236C134.874 58.155 134.629 58.2206 134.362 58.2206ZM147.536 58.0712H142.821V44.1563H147.631C149.013 44.1563 150.2 44.4348 151.192 44.992C152.188 45.5446 152.954 46.3395 153.488 47.3768C154.023 48.4141 154.29 49.6552 154.29 51.1001C154.29 52.5496 154.02 53.7952 153.481 54.837C152.947 55.8788 152.175 56.6783 151.164 57.2355C150.159 57.7926 148.95 58.0712 147.536 58.0712ZM145.342 55.8902H147.414C148.383 55.8902 149.192 55.7135 149.84 55.3602C150.487 55.0024 150.974 54.4701 151.3 53.7635C151.627 53.0524 151.79 52.1646 151.79 51.1001C151.79 50.0357 151.627 49.1524 151.3 48.4503C150.974 47.7437 150.492 47.216 149.853 46.8672C149.219 46.5139 148.431 46.3373 147.489 46.3373H145.342V55.8902ZM159.579 58.2818C158.918 58.2818 158.322 58.164 157.792 57.9285C157.267 57.6884 156.85 57.3351 156.542 56.8686C156.239 56.402 156.087 55.8268 156.087 55.1428C156.087 54.5539 156.196 54.067 156.413 53.682C156.631 53.297 156.927 52.989 157.303 52.758C157.679 52.5269 158.103 52.3526 158.574 52.2348C159.049 52.1125 159.541 52.0242 160.048 51.9698C160.66 51.9064 161.156 51.8498 161.536 51.7999C161.917 51.7456 162.193 51.6641 162.365 51.5553C162.542 51.4421 162.63 51.2677 162.63 51.0322V50.9914C162.63 50.4796 162.478 50.0832 162.175 49.8024C161.871 49.5216 161.434 49.3811 160.863 49.3811C160.261 49.3811 159.783 49.5125 159.43 49.7752C159.081 50.0379 158.846 50.3482 158.723 50.7061L156.427 50.3799C156.608 49.7458 156.907 49.2158 157.324 48.79C157.74 48.3597 158.25 48.0381 158.852 47.8252C159.455 47.6078 160.121 47.4991 160.85 47.4991C161.353 47.4991 161.853 47.558 162.351 47.6758C162.85 47.7935 163.305 47.9883 163.717 48.2601C164.129 48.5273 164.46 48.8919 164.709 49.354C164.963 49.816 165.09 50.3935 165.09 51.0865V58.0712H162.725V56.6376H162.644C162.494 56.9274 162.283 57.1992 162.012 57.4529C161.744 57.702 161.407 57.9036 160.999 58.0576C160.596 58.2071 160.123 58.2818 159.579 58.2818ZM160.218 56.4745C160.712 56.4745 161.14 56.3771 161.502 56.1823C161.865 55.983 162.143 55.7203 162.338 55.3942C162.537 55.068 162.637 54.7125 162.637 54.3275V53.0977C162.56 53.1611 162.428 53.22 162.243 53.2743C162.062 53.3287 161.858 53.3762 161.631 53.417C161.405 53.4578 161.181 53.494 160.959 53.5257C160.737 53.5574 160.544 53.5846 160.381 53.6073C160.014 53.6571 159.686 53.7386 159.396 53.8519C159.106 53.9651 158.877 54.1236 158.71 54.3275C158.542 54.5268 158.458 54.7849 158.458 55.102C158.458 55.555 158.624 55.897 158.954 56.128C159.285 56.359 159.706 56.4745 160.218 56.4745ZM172.774 47.635V49.5374H166.775V47.635H172.774ZM168.256 45.1347H170.715V54.9322C170.715 55.2628 170.765 55.5165 170.865 55.6931C170.969 55.8653 171.105 55.983 171.272 56.0464C171.44 56.1099 171.626 56.1416 171.83 56.1416C171.984 56.1416 172.124 56.1302 172.251 56.1076C172.382 56.0849 172.482 56.0646 172.55 56.0464L172.964 57.9693C172.833 58.0145 172.645 58.0644 172.4 58.1187C172.16 58.1731 171.866 58.2048 171.517 58.2138C170.901 58.232 170.346 58.1391 169.852 57.9353C169.359 57.7269 168.967 57.4053 168.677 56.9705C168.392 56.5356 168.251 55.9921 168.256 55.3398V45.1347ZM177.834 58.2818C177.173 58.2818 176.577 58.164 176.047 57.9285C175.522 57.6884 175.105 57.3351 174.797 56.8686C174.494 56.402 174.342 55.8268 174.342 55.1428C174.342 54.5539 174.451 54.067 174.668 53.682C174.885 53.297 175.182 52.989 175.558 52.758C175.934 52.5269 176.357 52.3526 176.829 52.2348C177.304 52.1125 177.796 52.0242 178.303 51.9698C178.914 51.9064 179.41 51.8498 179.791 51.7999C180.171 51.7456 180.448 51.6641 180.62 51.5553C180.796 51.4421 180.885 51.2677 180.885 51.0322V50.9914C180.885 50.4796 180.733 50.0832 180.43 49.8024C180.126 49.5216 179.689 49.3811 179.118 49.3811C178.516 49.3811 178.038 49.5125 177.685 49.7752C177.336 50.0379 177.1 50.3482 176.978 50.7061L174.682 50.3799C174.863 49.7458 175.162 49.2158 175.578 48.79C175.995 48.3597 176.505 48.0381 177.107 47.8252C177.71 47.6078 178.375 47.4991 179.105 47.4991C179.607 47.4991 180.108 47.558 180.606 47.6758C181.105 47.7935 181.56 47.9883 181.972 48.2601C182.384 48.5273 182.715 48.8919 182.964 49.354C183.218 49.816 183.344 50.3935 183.344 51.0865V58.0712H180.98V56.6376H180.898C180.749 56.9274 180.538 57.1992 180.267 57.4529C179.999 57.702 179.662 57.9036 179.254 58.0576C178.851 58.2071 178.378 58.2818 177.834 58.2818ZM178.473 56.4745C178.967 56.4745 179.395 56.3771 179.757 56.1823C180.119 55.983 180.398 55.7203 180.593 55.3942C180.792 55.068 180.892 54.7125 180.892 54.3275V53.0977C180.815 53.1611 180.683 53.22 180.498 53.2743C180.316 53.3287 180.113 53.3762 179.886 53.417C179.66 53.4578 179.435 53.494 179.213 53.5257C178.991 53.5574 178.799 53.5846 178.636 53.6073C178.269 53.6571 177.941 53.7386 177.651 53.8519C177.361 53.9651 177.132 54.1236 176.964 54.3275C176.797 54.5268 176.713 54.7849 176.713 55.102C176.713 55.555 176.878 55.897 177.209 56.128C177.54 56.359 177.961 56.4745 178.473 56.4745Z" fill="#0C0D48"/>
<defs>
<filter id="filter0_d_2270_503975" x="0.818796" y="0.677342" width="214.86" height="243.454" filterUnits="userSpaceOnUse" color-interpolation-filters="sRGB">
<feFlood flood-opacity="0" result="BackgroundImageFix"/>
<feColorMatrix in="SourceAlpha" type="matrix" values="0 0 0 0 0 0 0 0 0 0 0 0 0 0 0 0 0 0 127 0" result="hardAlpha"/>
<feOffset dy="8.75271"/>
<feGaussianBlur stdDeviation="8.75271"/>
<feColorMatrix type="matrix" values="0 0 0 0 0 0 0 0 0 0 0 0 0 0 0 0 0 0 0.07 0"/>
<feBlend mode="normal" in2="BackgroundImageFix" result="effect1_dropShadow_2270_503975"/>
<feBlend mode="normal" in="SourceGraphic" in2="effect1_dropShadow_2270_503975" result="shape"/>
</filter>
</defs>
</svg>
