<svg width="228" height="108" viewBox="0 0 228 108" fill="none" xmlns="http://www.w3.org/2000/svg">
<g filter="url(#filter0_d_2270_503986)">
<rect x="18.4375" y="8.90552" width="191.33" height="72.6683" rx="9.5665" fill="white"/>
</g>
<path d="M131.32 45.2397C131.32 49.8043 129.506 54.1821 126.277 57.4098C123.047 60.6373 118.667 62.4506 114.101 62.4506C109.534 62.4506 105.154 60.6373 101.924 57.4098C98.6951 54.1821 96.8809 49.8043 96.8809 45.2397C96.8809 40.6751 98.6951 36.2974 101.924 33.0698C105.154 29.8421 109.534 28.0288 114.101 28.0288C118.667 28.0288 123.047 29.8421 126.277 33.0698C129.506 36.2974 131.32 40.6751 131.32 45.2397Z" fill="url(#paint0_linear_2270_503986)"/>
<g filter="url(#filter1_d_2270_503986)">
<path d="M108.074 57.182C108.074 58.3179 110.771 58.1372 114.101 58.1372C117.429 58.1372 120.128 58.3179 120.128 57.182C120.128 55.8137 117.429 54.9209 114.101 54.9209C110.771 54.9209 108.074 55.8137 108.074 57.182Z" fill="#222222"/>
</g>
<path d="M108.074 57.182C108.074 58.3179 110.771 58.1372 114.101 58.1372C117.429 58.1372 120.128 58.3179 120.128 57.182C120.128 55.8137 117.429 54.9209 114.101 54.9209C110.771 54.9209 108.074 55.8137 108.074 57.182Z" fill="url(#paint1_linear_2270_503986)"/>
<path d="M104.627 49.1792C104.627 47.4775 105.785 46.1006 107.21 46.1006C108.637 46.1006 109.793 47.4775 109.793 49.1792C109.793 49.887 109.593 50.541 109.251 51.0595C109.091 51.2983 108.846 51.4674 108.566 51.5328C108.243 51.6103 107.763 51.6942 107.21 51.6942C106.657 51.6942 106.175 51.6103 105.854 51.5328C105.574 51.468 105.329 51.2987 105.17 51.0595C104.809 50.4991 104.621 49.8455 104.627 49.1792ZM118.403 49.1792C118.403 47.4775 119.559 46.1006 120.986 46.1006C122.411 46.1006 123.569 47.4775 123.569 49.1792C123.569 49.887 123.366 50.541 123.026 51.0595C122.867 51.2987 122.622 51.468 122.342 51.5328C121.898 51.6391 121.443 51.6931 120.986 51.6942C120.433 51.6942 119.953 51.6103 119.63 51.5328C119.349 51.4674 119.104 51.2983 118.943 51.0595C118.584 50.4984 118.397 49.8451 118.403 49.1792Z" fill="url(#paint2_linear_2270_503986)"/>
<g filter="url(#filter2_i_2270_503986)">
<path d="M104.627 49.1792C104.627 47.4775 105.785 46.1006 107.21 46.1006C108.637 46.1006 109.793 47.4775 109.793 49.1792C109.793 49.887 109.593 50.541 109.251 51.0595C109.091 51.2983 108.846 51.4674 108.566 51.5328C108.243 51.6103 107.763 51.6942 107.21 51.6942C106.657 51.6942 106.175 51.6103 105.854 51.5328C105.574 51.468 105.329 51.2987 105.17 51.0595C104.809 50.4991 104.621 49.8455 104.627 49.1792ZM118.403 49.1792C118.403 47.4775 119.559 46.1006 120.986 46.1006C122.411 46.1006 123.569 47.4775 123.569 49.1792C123.569 49.887 123.366 50.541 123.026 51.0595C122.867 51.2987 122.622 51.468 122.342 51.5328C121.898 51.6391 121.443 51.6931 120.986 51.6942C120.433 51.6942 119.953 51.6103 119.63 51.5328C119.349 51.4674 119.104 51.2983 118.943 51.0595C118.584 50.4984 118.397 49.8451 118.403 49.1792Z" fill="#222222"/>
</g>
<path d="M107.575 48.1063C107.586 48.1566 107.591 48.2078 107.59 48.2591C107.59 48.6918 107.212 49.0469 106.742 49.0469C106.275 49.0469 105.896 48.6918 105.896 48.2591C105.896 48.0805 105.961 47.9147 106.069 47.7834C106.551 47.8975 107.057 48.0073 107.575 48.1063ZM120.331 49.0469C119.877 49.0469 119.507 48.7176 119.485 48.2979C120.043 48.2161 120.596 48.1149 121.134 48.0052C121.164 48.0872 121.178 48.174 121.177 48.2613C121.177 48.6918 120.8 49.0469 120.331 49.0469Z" fill="#4F4F67"/>
<g filter="url(#filter3_d_2270_503986)">
<path d="M116.252 44.3792C116.252 43.4197 116.603 43.0884 117.21 43.0884C117.812 43.0884 118.101 43.6822 118.299 45.3817C120.727 45.3817 124.838 44.2329 125.234 44.2329C125.617 44.2329 125.83 44.4158 125.916 44.8073C125.992 45.1472 125.867 45.4699 125.441 45.6679C124.104 46.2853 120.182 47.6794 116.865 47.6794C116.504 47.6794 116.252 47.4944 116.252 47.0318V44.3792ZM109.9 45.3817C110.098 43.6822 110.386 43.0884 110.989 43.0884C111.596 43.0884 111.947 43.4197 111.947 44.3792V47.0318C111.947 47.4944 111.695 47.6794 111.333 47.6794C108.017 47.6794 104.095 46.2853 102.758 45.6679C102.332 45.4699 102.207 45.1472 102.282 44.8073C102.371 44.4158 102.584 44.2329 102.965 44.2329C103.361 44.2329 107.472 45.3817 109.9 45.3817Z" fill="#222222"/>
</g>
<path d="M116.252 44.3792C116.252 43.4197 116.603 43.0884 117.21 43.0884C117.812 43.0884 118.101 43.6822 118.299 45.3817C120.727 45.3817 124.838 44.2329 125.234 44.2329C125.617 44.2329 125.83 44.4158 125.916 44.8073C125.992 45.1472 125.867 45.4699 125.441 45.6679C124.104 46.2853 120.182 47.6794 116.865 47.6794C116.504 47.6794 116.252 47.4944 116.252 47.0318V44.3792ZM109.9 45.3817C110.098 43.6822 110.386 43.0884 110.989 43.0884C111.596 43.0884 111.947 43.4197 111.947 44.3792V47.0318C111.947 47.4944 111.695 47.6794 111.333 47.6794C108.017 47.6794 104.095 46.2853 102.758 45.6679C102.332 45.4699 102.207 45.1472 102.282 44.8073C102.371 44.4158 102.584 44.2329 102.965 44.2329C103.361 44.2329 107.472 45.3817 109.9 45.3817Z" fill="url(#paint3_linear_2270_503986)"/>
<path d="M75.8359 45.2396C75.8359 49.8042 74.0216 54.182 70.7924 57.4097C67.5631 60.6371 63.1831 62.4505 58.6162 62.4505C54.0492 62.4505 49.6693 60.6371 46.44 57.4097C43.2107 54.182 41.3965 49.8042 41.3965 45.2396C41.3965 40.675 43.2107 36.2973 46.44 33.0697C49.6693 29.842 54.0492 28.0287 58.6162 28.0287C63.1831 28.0287 67.5631 29.842 70.7924 33.0697C74.0216 36.2973 75.8359 40.675 75.8359 45.2396Z" fill="url(#paint4_linear_2270_503986)"/>
<path d="M53.5429 51.4528C53.2028 55.422 55.1056 58.1478 58.6162 58.1478C62.1247 58.1478 64.0297 55.422 63.6896 51.4528C63.3516 47.4813 61.2896 45.2396 58.6162 45.2396C55.9429 45.2396 53.8808 47.4813 53.5429 51.4528Z" fill="url(#paint5_linear_2270_503986)"/>
<path d="M48.9316 39.8611C48.9316 38.0798 50.1349 36.634 51.6222 36.634C53.1096 36.634 54.3128 38.0798 54.3128 39.8611C54.3128 41.6446 53.1096 43.0881 51.6222 43.0881C50.1349 43.0881 48.9316 41.6446 48.9316 39.8611ZM62.9226 39.8611C62.9226 38.0798 64.128 36.634 65.6132 36.634C67.1006 36.634 68.3038 38.0798 68.3038 39.8611C68.3038 41.6446 67.1006 43.0881 65.6132 43.0881C64.128 43.0881 62.9226 41.6446 62.9226 39.8611Z" fill="url(#paint6_linear_2270_503986)"/>
<g filter="url(#filter4_i_2270_503986)">
<path d="M48.9316 39.8611C48.9316 38.0798 50.1349 36.634 51.6222 36.634C53.1096 36.634 54.3128 38.0798 54.3128 39.8611C54.3128 41.6446 53.1096 43.0881 51.6222 43.0881C50.1349 43.0881 48.9316 41.6446 48.9316 39.8611ZM62.9226 39.8611C62.9226 38.0798 64.128 36.634 65.6132 36.634C67.1006 36.634 68.3038 38.0798 68.3038 39.8611C68.3038 41.6446 67.1006 43.0881 65.6132 43.0881C64.128 43.0881 62.9226 41.6446 62.9226 39.8611Z" fill="#222222"/>
</g>
<path d="M51.0442 37.855C51.4445 37.9453 51.6684 38.3971 51.5435 38.864C51.4208 39.333 50.9968 39.6385 50.5965 39.5481C50.1961 39.4577 49.9722 39.006 50.0971 38.537C50.2198 38.0723 50.6438 37.7625 51.0442 37.855ZM65.3753 37.9905C65.8187 38.0916 66.0684 38.5929 65.9307 39.1092C65.7929 39.632 65.3237 39.9698 64.8781 39.8708C64.4347 39.7718 64.185 39.2684 64.3228 38.7499C64.4584 38.2293 64.9298 37.8894 65.3775 37.9905H65.3753Z" fill="#4E506A"/>
<g filter="url(#filter5_d_2270_503986)">
<path d="M65.2189 31.6768C65.3308 31.6661 65.4428 31.6618 65.5568 31.6618C66.6051 31.6618 67.6878 32.1006 68.51 32.8708C68.6583 33.0121 68.7462 33.2053 68.755 33.4099C68.7638 33.6145 68.693 33.8145 68.5574 33.968C68.4919 34.0433 68.4117 34.1046 68.3219 34.1481C68.2321 34.1917 68.1344 34.2166 68.0345 34.2214C67.9349 34.2262 67.8352 34.2109 67.7416 34.1762C67.648 34.1415 67.5623 34.0883 67.4898 34.0197C66.8978 33.4625 66.0777 33.1591 65.3545 33.2258C65.1038 33.2446 64.8599 33.3181 64.6405 33.4411C64.4212 33.5641 64.2314 33.7337 64.0846 33.9379C64.0256 34.0179 63.9511 34.0854 63.8657 34.1362C63.7802 34.187 63.6855 34.2203 63.5871 34.2339C63.4885 34.2475 63.3882 34.2413 63.2922 34.2156C63.1962 34.1899 63.1063 34.1452 63.0277 34.0842C62.8669 33.9565 62.762 33.7714 62.7351 33.568C62.7082 33.3645 62.7614 33.1585 62.8835 32.9935C63.1547 32.6186 63.5038 32.3068 63.907 32.0795C64.3101 31.8522 64.7576 31.7149 65.2189 31.6768ZM48.7203 32.8708C49.5184 32.1122 50.5723 31.6807 51.6735 31.6618C52.1937 31.6505 52.7089 31.7658 53.1746 31.9978C53.6403 32.2298 54.0426 32.5715 54.3469 32.9935C54.4687 33.1584 54.5219 33.3641 54.4955 33.5674C54.469 33.7707 54.3648 33.9559 54.2048 34.0842C54.1261 34.1453 54.036 34.19 53.9398 34.2157C53.8435 34.2414 53.7431 34.2477 53.6444 34.234C53.5458 34.2204 53.4508 34.1872 53.3652 34.1363C53.2795 34.0855 53.2049 34.018 53.1458 33.9379C52.9989 33.7338 52.8091 33.5643 52.5897 33.4413C52.3703 33.3183 52.1267 33.2447 51.8758 33.2258C51.1548 33.1591 50.3325 33.4625 49.7406 34.0197C49.6681 34.0883 49.5824 34.1415 49.4888 34.1762C49.3952 34.2109 49.2955 34.2262 49.1958 34.2214C49.096 34.2166 48.9983 34.1917 48.9084 34.1481C48.8186 34.1046 48.7385 34.0433 48.673 33.968C48.5374 33.8145 48.4665 33.6145 48.4753 33.4099C48.4842 33.2053 48.572 33.0121 48.7203 32.8708Z" fill="#222222"/>
</g>
<path d="M65.2189 31.6768C65.3308 31.6661 65.4428 31.6618 65.5568 31.6618C66.6051 31.6618 67.6878 32.1006 68.51 32.8708C68.6583 33.0121 68.7462 33.2053 68.755 33.4099C68.7638 33.6145 68.693 33.8145 68.5574 33.968C68.4919 34.0433 68.4117 34.1046 68.3219 34.1481C68.2321 34.1917 68.1344 34.2166 68.0345 34.2214C67.9349 34.2262 67.8352 34.2109 67.7416 34.1762C67.648 34.1415 67.5623 34.0883 67.4898 34.0197C66.8978 33.4625 66.0777 33.1591 65.3545 33.2258C65.1038 33.2446 64.8599 33.3181 64.6405 33.4411C64.4212 33.5641 64.2314 33.7337 64.0846 33.9379C64.0256 34.0179 63.9511 34.0854 63.8657 34.1362C63.7802 34.187 63.6855 34.2203 63.5871 34.2339C63.4885 34.2475 63.3882 34.2413 63.2922 34.2156C63.1962 34.1899 63.1063 34.1452 63.0277 34.0842C62.8669 33.9565 62.762 33.7714 62.7351 33.568C62.7082 33.3645 62.7614 33.1585 62.8835 32.9935C63.1547 32.6186 63.5038 32.3068 63.907 32.0795C64.3101 31.8522 64.7576 31.7149 65.2189 31.6768ZM48.7203 32.8708C49.5184 32.1122 50.5723 31.6807 51.6735 31.6618C52.1937 31.6505 52.7089 31.7658 53.1746 31.9978C53.6403 32.2298 54.0426 32.5715 54.3469 32.9935C54.4687 33.1584 54.5219 33.3641 54.4955 33.5674C54.469 33.7707 54.3648 33.9559 54.2048 34.0842C54.1261 34.1453 54.036 34.19 53.9398 34.2157C53.8435 34.2414 53.7431 34.2477 53.6444 34.234C53.5458 34.2204 53.4508 34.1872 53.3652 34.1363C53.2795 34.0855 53.2049 34.018 53.1458 33.9379C52.9989 33.7338 52.8091 33.5643 52.5897 33.4413C52.3703 33.3183 52.1267 33.2447 51.8758 33.2258C51.1548 33.1591 50.3325 33.4625 49.7406 34.0197C49.6681 34.0883 49.5824 34.1415 49.4888 34.1762C49.3952 34.2109 49.2955 34.2262 49.1958 34.2214C49.096 34.2166 48.9983 34.1917 48.9084 34.1481C48.8186 34.1046 48.7385 34.0433 48.673 33.968C48.5374 33.8145 48.4665 33.6145 48.4753 33.4099C48.4842 33.2053 48.572 33.0121 48.7203 32.8708Z" fill="url(#paint7_linear_2270_503986)"/>
<path d="M169.587 28.0288C165.02 28.0288 160.64 29.8421 157.411 33.0698C154.181 36.2974 152.367 40.6751 152.367 45.2397C152.367 49.8043 154.181 54.1821 157.411 57.4098C160.64 60.6373 165.02 62.4506 169.587 62.4506C174.154 62.4506 178.534 60.6373 181.763 57.4098C184.992 54.1821 186.807 49.8043 186.807 45.2397C186.807 40.6751 184.992 36.2974 181.763 33.0698C178.534 29.8421 174.154 28.0288 169.587 28.0288Z" fill="url(#paint8_linear_2270_503986)"/>
<path d="M174.91 36.6342C170.179 36.6342 169.587 40.5582 169.587 40.5582C169.587 40.5582 168.997 36.6342 164.266 36.6342C159.716 36.6342 158.39 41.4145 158.945 43.9703C160.409 50.7256 169.587 55.4586 169.587 55.4586C169.587 55.4586 178.767 50.7256 180.231 43.9703C180.784 41.4145 179.456 36.6342 174.91 36.6342Z" fill="#3E4581"/>
<defs>
<filter id="filter0_d_2270_503986" x="0.932077" y="0.152806" width="226.341" height="107.679" filterUnits="userSpaceOnUse" color-interpolation-filters="sRGB">
<feFlood flood-opacity="0" result="BackgroundImageFix"/>
<feColorMatrix in="SourceAlpha" type="matrix" values="0 0 0 0 0 0 0 0 0 0 0 0 0 0 0 0 0 0 127 0" result="hardAlpha"/>
<feOffset dy="8.75271"/>
<feGaussianBlur stdDeviation="8.75271"/>
<feColorMatrix type="matrix" values="0 0 0 0 0 0 0 0 0 0 0 0 0 0 0 0 0 0 0.07 0"/>
<feBlend mode="normal" in2="BackgroundImageFix" result="effect1_dropShadow_2270_503986"/>
<feBlend mode="normal" in="SourceGraphic" in2="effect1_dropShadow_2270_503986" result="shape"/>
</filter>
<filter id="filter1_d_2270_503986" x="107.118" y="54.9209" width="13.968" height="5.14011" filterUnits="userSpaceOnUse" color-interpolation-filters="sRGB">
<feFlood flood-opacity="0" result="BackgroundImageFix"/>
<feColorMatrix in="SourceAlpha" type="matrix" values="0 0 0 0 0 0 0 0 0 0 0 0 0 0 0 0 0 0 127 0" result="hardAlpha"/>
<feOffset dy="0.95665"/>
<feGaussianBlur stdDeviation="0.478325"/>
<feColorMatrix type="matrix" values="0 0 0 0 1 0 0 0 0 0.509681 0 0 0 0 0 0 0 0 0.371207 0"/>
<feBlend mode="normal" in2="BackgroundImageFix" result="effect1_dropShadow_2270_503986"/>
<feBlend mode="normal" in="SourceGraphic" in2="effect1_dropShadow_2270_503986" result="shape"/>
</filter>
<filter id="filter2_i_2270_503986" x="104.627" y="46.1006" width="18.9414" height="5.59363" filterUnits="userSpaceOnUse" color-interpolation-filters="sRGB">
<feFlood flood-opacity="0" result="BackgroundImageFix"/>
<feBlend mode="normal" in="SourceGraphic" in2="BackgroundImageFix" result="shape"/>
<feColorMatrix in="SourceAlpha" type="matrix" values="0 0 0 0 0 0 0 0 0 0 0 0 0 0 0 0 0 0 127 0" result="hardAlpha"/>
<feOffset/>
<feGaussianBlur stdDeviation="0.478325"/>
<feComposite in2="hardAlpha" operator="arithmetic" k2="-1" k3="1"/>
<feColorMatrix type="matrix" values="0 0 0 0 0.0387428 0 0 0 0 0.0406183 0 0 0 0 0.0875053 0 0 0 1 0"/>
<feBlend mode="normal" in2="shape" result="effect1_innerShadow_2270_503986"/>
</filter>
<filter id="filter3_d_2270_503986" x="102.166" y="43.0884" width="23.8671" height="5.26072" filterUnits="userSpaceOnUse" color-interpolation-filters="sRGB">
<feFlood flood-opacity="0" result="BackgroundImageFix"/>
<feColorMatrix in="SourceAlpha" type="matrix" values="0 0 0 0 0 0 0 0 0 0 0 0 0 0 0 0 0 0 127 0" result="hardAlpha"/>
<feOffset dy="0.57399"/>
<feGaussianBlur stdDeviation="0.0478325"/>
<feColorMatrix type="matrix" values="0 0 0 0 0.565875 0 0 0 0 0.151272 0 0 0 0 0 0 0 0 0.15024 0"/>
<feBlend mode="normal" in2="BackgroundImageFix" result="effect1_dropShadow_2270_503986"/>
<feBlend mode="normal" in="SourceGraphic" in2="effect1_dropShadow_2270_503986" result="shape"/>
</filter>
<filter id="filter4_i_2270_503986" x="48.9316" y="36.634" width="19.373" height="6.4541" filterUnits="userSpaceOnUse" color-interpolation-filters="sRGB">
<feFlood flood-opacity="0" result="BackgroundImageFix"/>
<feBlend mode="normal" in="SourceGraphic" in2="BackgroundImageFix" result="shape"/>
<feColorMatrix in="SourceAlpha" type="matrix" values="0 0 0 0 0 0 0 0 0 0 0 0 0 0 0 0 0 0 127 0" result="hardAlpha"/>
<feOffset/>
<feGaussianBlur stdDeviation="0.478325"/>
<feComposite in2="hardAlpha" operator="arithmetic" k2="-1" k3="1"/>
<feColorMatrix type="matrix" values="0 0 0 0 0.0980392 0 0 0 0 0.101961 0 0 0 0 0.2 0 0 0 0.819684 0"/>
<feBlend mode="normal" in2="shape" result="effect1_innerShadow_2270_503986"/>
</filter>
<filter id="filter5_d_2270_503986" x="45.6047" y="29.7477" width="26.0211" height="8.31998" filterUnits="userSpaceOnUse" color-interpolation-filters="sRGB">
<feFlood flood-opacity="0" result="BackgroundImageFix"/>
<feColorMatrix in="SourceAlpha" type="matrix" values="0 0 0 0 0 0 0 0 0 0 0 0 0 0 0 0 0 0 127 0" result="hardAlpha"/>
<feOffset dy="0.95665"/>
<feGaussianBlur stdDeviation="1.43497"/>
<feColorMatrix type="matrix" values="0 0 0 0 0.803922 0 0 0 0 0.388235 0 0 0 0 0.00392157 0 0 0 0.145679 0"/>
<feBlend mode="normal" in2="BackgroundImageFix" result="effect1_dropShadow_2270_503986"/>
<feBlend mode="normal" in="SourceGraphic" in2="effect1_dropShadow_2270_503986" result="shape"/>
</filter>
<linearGradient id="paint0_linear_2270_503986" x1="114.101" y1="28.0288" x2="114.101" y2="51.1581" gradientUnits="userSpaceOnUse">
<stop stop-color="#E04300"/>
<stop offset="1" stop-color="#FFA320"/>
</linearGradient>
<linearGradient id="paint1_linear_2270_503986" x1="114.101" y1="55.3576" x2="114.101" y2="58.1479" gradientUnits="userSpaceOnUse">
<stop stop-color="#3D0D00"/>
<stop offset="1" stop-color="#661C04"/>
</linearGradient>
<linearGradient id="paint2_linear_2270_503986" x1="114.099" y1="46.0997" x2="114.099" y2="51.6933" gradientUnits="userSpaceOnUse">
<stop stop-color="#191A33"/>
<stop offset="0.872" stop-color="#3B426A"/>
</linearGradient>
<linearGradient id="paint3_linear_2270_503986" x1="121.881" y1="48.1075" x2="121.881" y2="43.0884" gradientUnits="userSpaceOnUse">
<stop stop-color="#9A2F00"/>
<stop offset="1" stop-color="#D44800"/>
</linearGradient>
<linearGradient id="paint4_linear_2270_503986" x1="58.6162" y1="31.5569" x2="58.6162" y2="62.4505" gradientUnits="userSpaceOnUse">
<stop stop-color="#FEEA70"/>
<stop offset="1" stop-color="#F69B30"/>
</linearGradient>
<linearGradient id="paint5_linear_2270_503986" x1="58.616" y1="45.2396" x2="58.616" y2="58.1478" gradientUnits="userSpaceOnUse">
<stop stop-color="#472315"/>
<stop offset="1" stop-color="#8B3A0E"/>
</linearGradient>
<linearGradient id="paint6_linear_2270_503986" x1="58.6177" y1="36.634" x2="58.6177" y2="43.0881" gradientUnits="userSpaceOnUse">
<stop stop-color="#191A33"/>
<stop offset="0.872" stop-color="#3B426A"/>
</linearGradient>
<linearGradient id="paint7_linear_2270_503986" x1="58.6147" y1="31.66" x2="58.6147" y2="34.2416" gradientUnits="userSpaceOnUse">
<stop stop-color="#E78E0D"/>
<stop offset="1" stop-color="#CB6000"/>
</linearGradient>
<linearGradient id="paint8_linear_2270_503986" x1="169.587" y1="28.0288" x2="169.587" y2="62.4506" gradientUnits="userSpaceOnUse">
<stop stop-color="#FF6680"/>
<stop offset="1" stop-color="#E61739"/>
</linearGradient>
</defs>
</svg>
