<svg width="363.53" height="100.05" viewBox="0 0 363.53 120" fill="none" xmlns="http://www.w3.org/2000/svg">
<g filter="url(#filter0_d_2270_504008)">
<rect x="17.9102" y="8.95532" width="363.527" height="108.046" rx="9.5665" fill="white"/>
</g>
<path d="M160.592 49.7716V38.6397H167.724V40.3301H162.609V43.3523H167.234V45.0427H162.609V49.7716H160.592ZM172.503 49.9347C171.687 49.9347 170.981 49.7553 170.383 49.3966C169.785 49.0378 169.321 48.5359 168.991 47.8909C168.665 47.2459 168.502 46.4922 168.502 45.6297C168.502 44.7673 168.665 44.0118 168.991 43.3631C169.321 42.7145 169.785 42.2108 170.383 41.8521C170.981 41.4933 171.687 41.314 172.503 41.314C173.318 41.314 174.025 41.4933 174.623 41.8521C175.22 42.2108 175.682 42.7145 176.009 43.3631C176.338 44.0118 176.503 44.7673 176.503 45.6297C176.503 46.4922 176.338 47.2459 176.009 47.8909C175.682 48.5359 175.22 49.0378 174.623 49.3966C174.025 49.7553 173.318 49.9347 172.503 49.9347ZM172.514 48.3584C172.956 48.3584 173.325 48.237 173.622 47.9942C173.92 47.7478 174.141 47.418 174.286 47.0049C174.434 46.5918 174.508 46.1316 174.508 45.6243C174.508 45.1134 174.434 44.6514 174.286 44.2383C174.141 43.8215 173.92 43.49 173.622 43.2436C173.325 42.9971 172.956 42.8739 172.514 42.8739C172.061 42.8739 171.684 42.9971 171.383 43.2436C171.086 43.49 170.863 43.8215 170.714 44.2383C170.569 44.6514 170.497 45.1134 170.497 45.6243C170.497 46.1316 170.569 46.5918 170.714 47.0049C170.863 47.418 171.086 47.7478 171.383 47.9942C171.684 48.237 172.061 48.3584 172.514 48.3584ZM180.141 38.6397V49.7716H178.173V38.6397H180.141ZM184.132 38.6397V49.7716H182.164V38.6397H184.132ZM189.797 49.9347C188.982 49.9347 188.275 49.7553 187.677 49.3966C187.079 49.0378 186.616 48.5359 186.286 47.8909C185.96 47.2459 185.797 46.4922 185.797 45.6297C185.797 44.7673 185.96 44.0118 186.286 43.3631C186.616 42.7145 187.079 42.2108 187.677 41.8521C188.275 41.4933 188.982 41.314 189.797 41.314C190.612 41.314 191.319 41.4933 191.917 41.8521C192.515 42.2108 192.977 42.7145 193.303 43.3631C193.633 44.0118 193.798 44.7673 193.798 45.6297C193.798 46.4922 193.633 47.2459 193.303 47.8909C192.977 48.5359 192.515 49.0378 191.917 49.3966C191.319 49.7553 190.612 49.9347 189.797 49.9347ZM189.808 48.3584C190.25 48.3584 190.62 48.237 190.917 47.9942C191.214 47.7478 191.435 47.418 191.58 47.0049C191.729 46.5918 191.803 46.1316 191.803 45.6243C191.803 45.1134 191.729 44.6514 191.58 44.2383C191.435 43.8215 191.214 43.49 190.917 43.2436C190.62 42.9971 190.25 42.8739 189.808 42.8739C189.355 42.8739 188.978 42.9971 188.677 43.2436C188.38 43.49 188.157 43.8215 188.009 44.2383C187.864 44.6514 187.791 45.1134 187.791 45.6243C187.791 46.1316 187.864 46.5918 188.009 47.0049C188.157 47.418 188.38 47.7478 188.677 47.9942C188.978 48.237 189.355 48.3584 189.808 48.3584ZM196.952 49.7716L194.593 41.4227H196.598L198.066 47.293H198.142L199.642 41.4227H201.626L203.126 47.2604H203.208L204.654 41.4227H206.665L204.3 49.7716H202.251L200.686 44.1295H200.572L199.006 49.7716H196.952ZM211.496 49.9347C210.659 49.9347 209.936 49.7607 209.327 49.4129C208.722 49.0614 208.256 48.5649 207.93 47.9235C207.604 47.2785 207.441 46.5194 207.441 45.6461C207.441 44.7872 207.604 44.0335 207.93 43.3849C208.26 42.7326 208.72 42.2253 209.311 41.8629C209.901 41.4969 210.595 41.314 211.392 41.314C211.907 41.314 212.393 41.3973 212.849 41.564C213.309 41.7271 213.715 41.9807 214.067 42.325C214.422 42.6692 214.701 43.1077 214.904 43.6404C215.107 44.1694 215.208 44.7999 215.208 45.5319V46.1353H208.365V44.809H213.322C213.318 44.4321 213.237 44.0969 213.077 43.8034C212.918 43.5063 212.695 43.2725 212.409 43.1022C212.126 42.9319 211.796 42.8468 211.42 42.8468C211.017 42.8468 210.664 42.9446 210.36 43.1403C210.055 43.3323 209.818 43.586 209.648 43.9013C209.481 44.2129 209.396 44.5553 209.392 44.9286V46.0863C209.392 46.5719 209.481 46.9886 209.658 47.3365C209.836 47.6807 210.084 47.9453 210.403 48.1301C210.722 48.3113 211.095 48.4019 211.523 48.4019C211.809 48.4019 212.068 48.362 212.3 48.2823C212.532 48.1989 212.733 48.0775 212.903 47.9181C213.074 47.7587 213.202 47.5612 213.289 47.3256L215.127 47.5322C215.011 48.0177 214.79 48.4417 214.463 48.8041C214.141 49.1628 213.728 49.4419 213.224 49.6412C212.72 49.8368 212.144 49.9347 211.496 49.9347ZM216.873 49.7716V41.4227H218.781V42.8142H218.868C219.02 42.3322 219.281 41.9608 219.65 41.6999C220.024 41.4353 220.449 41.3031 220.928 41.3031C221.036 41.3031 221.158 41.3085 221.292 41.3194C221.43 41.3266 221.544 41.3393 221.634 41.3574V43.1675C221.551 43.1385 221.419 43.1131 221.237 43.0914C221.06 43.066 220.888 43.0533 220.721 43.0533C220.362 43.0533 220.04 43.1312 219.754 43.287C219.471 43.4392 219.248 43.6512 219.085 43.923C218.922 44.1948 218.84 44.5082 218.84 44.8633V49.7716H216.873ZM234.283 42.1945C234.192 41.901 234.067 41.6383 233.908 41.4064C233.752 41.1708 233.563 40.9697 233.342 40.803C233.125 40.6363 232.875 40.5113 232.592 40.428C232.31 40.341 232.002 40.2975 231.668 40.2975C231.07 40.2975 230.538 40.4479 230.07 40.7487C229.603 41.0494 229.235 41.4915 228.967 42.0749C228.702 42.6547 228.57 43.3613 228.57 44.1948C228.57 45.0355 228.702 45.7475 228.967 46.3309C229.231 46.9143 229.599 47.3582 230.07 47.6626C230.541 47.9634 231.088 48.1138 231.712 48.1138C232.277 48.1138 232.766 48.0051 233.179 47.7876C233.596 47.5702 233.917 47.2622 234.141 46.8636C234.366 46.4614 234.478 45.9903 234.478 45.4504L234.935 45.521H231.913V43.9447H236.43V45.2819C236.43 46.2349 236.227 47.0593 235.821 47.755C235.415 48.4508 234.857 48.9871 234.147 49.3639C233.437 49.7372 232.621 49.9238 231.701 49.9238C230.675 49.9238 229.775 49.6937 228.999 49.2335C228.228 48.7697 227.624 48.112 227.189 47.2604C226.758 46.4052 226.543 45.3906 226.543 44.2165C226.543 43.3178 226.669 42.5152 226.923 41.8086C227.18 41.102 227.539 40.5023 227.999 40.0094C228.459 39.513 228.999 39.1361 229.619 38.8788C230.239 38.6179 230.913 38.4875 231.641 38.4875C232.257 38.4875 232.831 38.5781 233.364 38.7593C233.897 38.9368 234.37 39.1905 234.783 39.5202C235.199 39.85 235.542 40.2413 235.81 40.6943C236.078 41.1473 236.254 41.6473 236.337 42.1945H234.283ZM238.293 49.7716V41.4227H240.201V42.8142H240.288C240.44 42.3322 240.701 41.9608 241.07 41.6999C241.444 41.4353 241.869 41.3031 242.348 41.3031C242.456 41.3031 242.578 41.3085 242.712 41.3194C242.849 41.3266 242.964 41.3393 243.054 41.3574V43.1675C242.971 43.1385 242.839 43.1131 242.657 43.0914C242.48 43.066 242.308 43.0533 242.141 43.0533C241.782 43.0533 241.46 43.1312 241.174 43.287C240.891 43.4392 240.668 43.6512 240.505 43.923C240.342 44.1948 240.26 44.5082 240.26 44.8633V49.7716H238.293ZM247.659 49.9347C246.844 49.9347 246.138 49.7553 245.54 49.3966C244.942 49.0378 244.478 48.5359 244.148 47.8909C243.822 47.2459 243.659 46.4922 243.659 45.6297C243.659 44.7673 243.822 44.0118 244.148 43.3631C244.478 42.7145 244.942 42.2108 245.54 41.8521C246.138 41.4933 246.844 41.314 247.659 41.314C248.475 41.314 249.181 41.4933 249.779 41.8521C250.377 42.2108 250.839 42.7145 251.165 43.3631C251.495 44.0118 251.66 44.7673 251.66 45.6297C251.66 46.4922 251.495 47.2459 251.165 47.8909C250.839 48.5359 250.377 49.0378 249.779 49.3966C249.181 49.7553 248.475 49.9347 247.659 49.9347ZM247.67 48.3584C248.112 48.3584 248.482 48.237 248.779 47.9942C249.076 47.7478 249.297 47.418 249.442 47.0049C249.591 46.5918 249.665 46.1316 249.665 45.6243C249.665 45.1134 249.591 44.6514 249.442 44.2383C249.297 43.8215 249.076 43.49 248.779 43.2436C248.482 42.9971 248.112 42.8739 247.67 42.8739C247.217 42.8739 246.841 42.9971 246.54 43.2436C246.243 43.49 246.02 43.8215 245.871 44.2383C245.726 44.6514 245.654 45.1134 245.654 45.6243C245.654 46.1316 245.726 46.5918 245.871 47.0049C246.02 47.418 246.243 47.7478 246.54 47.9942C246.841 48.237 247.217 48.3584 247.67 48.3584ZM254.814 49.7716L252.455 41.4227H254.461L255.928 47.293H256.004L257.505 41.4227H259.488L260.989 47.2604H261.07L262.516 41.4227H264.527L262.163 49.7716H260.114L258.548 44.1295H258.434L256.869 49.7716H254.814ZM270.07 41.4227V42.9446H265.271V41.4227H270.07ZM266.455 39.4224H268.423V47.2604C268.423 47.5249 268.463 47.7279 268.543 47.8692C268.626 48.0069 268.735 48.1011 268.869 48.1518C269.003 48.2026 269.151 48.2279 269.315 48.2279C269.438 48.2279 269.55 48.2189 269.652 48.2007C269.757 48.1826 269.836 48.1663 269.891 48.1518L270.222 49.6901C270.117 49.7263 269.967 49.7662 269.771 49.8097C269.579 49.8531 269.344 49.8785 269.065 49.8858C268.572 49.9002 268.128 49.826 267.733 49.6629C267.338 49.4962 267.024 49.2389 266.792 48.8911C266.564 48.5432 266.452 48.1083 266.455 47.5865V39.4224ZM273.863 44.8796V49.7716H271.895V38.6397H273.819V42.8413H273.917C274.113 42.3703 274.415 41.9988 274.825 41.7271C275.238 41.4517 275.763 41.314 276.401 41.314C276.981 41.314 277.486 41.4353 277.918 41.6781C278.349 41.9209 278.682 42.276 278.918 42.7435C279.157 43.2109 279.276 43.7817 279.276 44.4557V49.7716H277.309V44.7601C277.309 44.1984 277.164 43.7617 276.874 43.4501C276.588 43.1348 276.185 42.9772 275.667 42.9772C275.319 42.9772 275.008 43.0533 274.732 43.2055C274.461 43.3541 274.247 43.5697 274.091 43.8523C273.939 44.135 273.863 44.4774 273.863 44.8796Z" fill="#0C0D48"/>
<rect x="37.041" y="28.0785" width="99.4916" height="69.7998" rx="5.7399" fill="#EADFFB"/>
<path d="M68.0543 49.6787V77.5085H63.0129V54.5843H62.8498L56.3408 58.7424V54.1223L63.2575 49.6787H68.0543ZM73.8524 72.3448V68.3361L85.661 49.6787H89.0039V55.386H86.9655L79.0161 67.9828V68.2002H95.4993V72.3448H73.8524ZM87.1286 77.5085V71.1218L87.183 69.3281V49.6787H91.939V77.5085H87.1286ZM103.614 70.9588L103.601 65.0205H104.389L111.89 56.6362H117.638L108.411 66.9093H107.392L103.614 70.9588ZM99.1299 77.5085V49.6787H104.049V77.5085H99.1299ZM112.23 77.5085L105.435 68.01L108.751 64.5449L118.113 77.5085H112.23Z" fill="#3E4581"/>
<rect x="159.494" y="82.5797" width="128.191" height="7.6493" rx="3.82465" fill="#E71D7C"/>
<rect x="159.494" y="67.2811" width="198.983" height="7.6493" rx="3.82465" fill="#E71D7C"/>
<defs>
<filter id="filter0_d_2270_504008" x="0.404734" y="0.202611" width="398.538" height="143.057" filterUnits="userSpaceOnUse" color-interpolation-filters="sRGB">
<feFlood flood-opacity="0" result="BackgroundImageFix"/>
<feColorMatrix in="SourceAlpha" type="matrix" values="0 0 0 0 0 0 0 0 0 0 0 0 0 0 0 0 0 0 127 0" result="hardAlpha"/>
<feOffset dy="8.75271"/>
<feGaussianBlur stdDeviation="8.75271"/>
<feColorMatrix type="matrix" values="0 0 0 0 0 0 0 0 0 0 0 0 0 0 0 0 0 0 0.07 0"/>
<feBlend mode="normal" in2="BackgroundImageFix" result="effect1_dropShadow_2270_504008"/>
<feBlend mode="normal" in="SourceGraphic" in2="effect1_dropShadow_2270_504008" result="shape"/>
</filter>
</defs>
</svg>
