<svg width="329" height="361" viewBox="0 0 329 361" fill="none" xmlns="http://www.w3.org/2000/svg">
<g filter="url(#filter0_d_2270_503923)">
<rect x="18" y="9.33887" width="292.994" height="324.434" rx="9.5665" fill="white"/>
</g>
<path opacity="0.2" fill-rule="evenodd" clip-rule="evenodd" d="M284.516 288.523L58.1504 288.523L58.1504 287.669L284.516 287.669L284.516 288.523Z" fill="#55608B"/>
<path opacity="0.2" fill-rule="evenodd" clip-rule="evenodd" d="M284.516 233.882L58.1504 233.882L58.1504 233.027L284.516 233.027L284.516 233.882Z" fill="#55608B"/>
<path opacity="0.2" fill-rule="evenodd" clip-rule="evenodd" d="M284.512 180.094L58.1465 180.094L58.1465 179.24L284.512 179.24L284.512 180.094Z" fill="#55608B"/>
<path opacity="0.2" fill-rule="evenodd" clip-rule="evenodd" d="M284.512 126.306L58.1465 126.306L58.1465 125.452L284.512 125.452L284.512 126.306Z" fill="#55608B"/>
<path d="M38.3196 287.276V286.515L40.6739 284.076C40.9253 283.811 41.1325 283.579 41.2956 283.38C41.4609 283.178 41.5843 282.987 41.6659 282.806C41.7474 282.624 41.7882 282.432 41.7882 282.228C41.7882 281.997 41.7338 281.798 41.6251 281.63C41.5164 281.46 41.3681 281.33 41.1801 281.239C40.9921 281.147 40.7803 281.1 40.5448 281.1C40.2957 281.1 40.0783 281.151 39.8925 281.253C39.7068 281.355 39.5641 281.499 39.4645 281.684C39.3648 281.87 39.315 282.088 39.315 282.337H38.3128C38.3128 281.913 38.4102 281.543 38.605 281.226C38.7998 280.909 39.067 280.663 39.4067 280.489C39.7465 280.312 40.1326 280.224 40.5652 280.224C41.0023 280.224 41.3873 280.311 41.7202 280.485C42.0554 280.657 42.317 280.893 42.505 281.192C42.693 281.489 42.7869 281.824 42.7869 282.197C42.7869 282.456 42.7383 282.708 42.6409 282.955C42.5457 283.202 42.3793 283.477 42.1415 283.781C41.9037 284.082 41.573 284.448 41.1495 284.878L39.7668 286.325V286.376H42.8991V287.276H38.3196ZM45.1344 285.506L45.1276 284.266H45.3043L47.3833 282.058H48.5995L46.2283 284.572H46.0686L45.1344 285.506ZM44.2002 287.276V280.319H45.2159V287.276H44.2002ZM47.4955 287.276L45.627 284.796L46.3268 284.086L48.7422 287.276H47.4955Z" fill="#3E4581"/>
<path d="M37.322 231.276V230.427L40.3285 225.677H40.9978V226.928H40.5731L38.4227 230.332V230.386H42.5435V231.276H37.322ZM40.6207 232.635V231.018L40.6275 230.631V225.677H41.6228V232.635H40.6207ZM44.6752 230.865L44.6684 229.625H44.8451L46.9242 227.417H48.1404L45.7691 229.931H45.6094L44.6752 230.865ZM43.741 232.635V225.677H44.7568V232.635H43.741ZM47.0363 232.635L45.1678 230.155L45.8676 229.445L48.283 232.635H47.0363Z" fill="#3E4581"/>
<path d="M39.8932 178.942C39.5829 178.937 39.2771 178.88 38.9759 178.772C38.677 178.663 38.4052 178.482 38.1606 178.228C37.916 177.974 37.7201 177.634 37.5729 177.206C37.4279 176.778 37.3555 176.243 37.3555 175.602C37.3555 174.995 37.4155 174.456 37.5355 173.985C37.6578 173.514 37.8333 173.117 38.0621 172.793C38.2908 172.467 38.5671 172.219 38.891 172.049C39.2149 171.879 39.5784 171.794 39.9815 171.794C40.3959 171.794 40.764 171.875 41.0856 172.038C41.4072 172.202 41.6676 172.427 41.8669 172.715C42.0685 173.002 42.1965 173.329 42.2508 173.696H41.2147C41.1445 173.406 41.0052 173.17 40.7968 172.986C40.5885 172.803 40.3167 172.711 39.9815 172.711C39.4719 172.711 39.0744 172.933 38.7891 173.377C38.506 173.821 38.3633 174.438 38.361 175.228H38.412C38.532 175.031 38.6792 174.864 38.8536 174.726C39.0303 174.585 39.2273 174.478 39.4447 174.403C39.6644 174.326 39.8954 174.287 40.1378 174.287C40.5409 174.287 40.9055 174.386 41.2317 174.583C41.5601 174.778 41.8216 175.047 42.0164 175.391C42.2112 175.736 42.3086 176.13 42.3086 176.574C42.3086 177.018 42.2078 177.42 42.0062 177.78C41.8069 178.14 41.5261 178.425 41.1637 178.636C40.8013 178.844 40.3778 178.946 39.8932 178.942ZM39.8898 178.058C40.157 178.058 40.3959 177.993 40.6066 177.861C40.8172 177.73 40.9837 177.553 41.106 177.331C41.2283 177.109 41.2894 176.861 41.2894 176.587C41.2894 176.32 41.2294 176.077 41.1094 175.857C40.9916 175.637 40.8285 175.463 40.6202 175.334C40.4141 175.205 40.1785 175.14 39.9135 175.14C39.712 175.14 39.5251 175.179 39.353 175.256C39.1831 175.333 39.0337 175.439 38.9046 175.575C38.7755 175.711 38.6736 175.867 38.5988 176.044C38.5264 176.218 38.4901 176.403 38.4901 176.597C38.4901 176.858 38.5501 177.099 38.6702 177.321C38.7925 177.543 38.9589 177.722 39.1696 177.858C39.3825 177.991 39.6225 178.058 39.8898 178.058ZM44.4938 177.076L44.487 175.837H44.6637L46.7428 173.628H47.9589L45.5877 176.142H45.428L44.4938 177.076ZM43.5596 178.846V171.889H44.5753V178.846H43.5596ZM46.8549 178.846L44.9864 176.366L45.6862 175.656L48.1016 178.846H46.8549Z" fill="#3E4581"/>
<path d="M39.815 125.154C39.3281 125.154 38.8978 125.071 38.5241 124.903C38.1527 124.735 37.8616 124.504 37.651 124.21C37.4404 123.916 37.3362 123.58 37.3385 123.204C37.3362 122.91 37.3962 122.639 37.5185 122.393C37.6431 122.143 37.8118 121.936 38.0247 121.771C38.2376 121.603 38.4754 121.497 38.7381 121.452V121.411C38.3916 121.327 38.1142 121.141 37.9058 120.854C37.6974 120.566 37.5944 120.235 37.5967 119.862C37.5944 119.506 37.6884 119.189 37.8786 118.91C38.0711 118.63 38.335 118.409 38.6702 118.248C39.0054 118.087 39.387 118.007 39.815 118.007C40.2385 118.007 40.6168 118.088 40.9497 118.251C41.2849 118.412 41.5487 118.633 41.7412 118.914C41.9337 119.192 42.0311 119.508 42.0334 119.862C42.0311 120.235 41.9247 120.566 41.7141 120.854C41.5034 121.141 41.2294 121.327 40.8919 121.411V121.452C41.1524 121.497 41.3868 121.603 41.5952 121.771C41.8058 121.936 41.9734 122.143 42.0979 122.393C42.2248 122.639 42.2893 122.91 42.2916 123.204C42.2893 123.58 42.1829 123.916 41.9722 124.21C41.7616 124.504 41.4695 124.735 41.0958 124.903C40.7243 125.071 40.2974 125.154 39.815 125.154ZM39.815 124.295C40.1027 124.295 40.3518 124.247 40.5624 124.152C40.773 124.055 40.9361 123.92 41.0516 123.748C41.1671 123.574 41.226 123.37 41.2283 123.137C41.226 122.894 41.1626 122.68 41.038 122.494C40.9157 122.309 40.7493 122.163 40.5386 122.056C40.328 121.95 40.0868 121.897 39.815 121.897C39.541 121.897 39.2975 121.95 39.0846 122.056C38.8717 122.163 38.7041 122.309 38.5818 122.494C38.4595 122.68 38.3995 122.894 38.4018 123.137C38.3995 123.37 38.455 123.574 38.5683 123.748C38.6838 123.92 38.848 124.055 39.0608 124.152C39.2737 124.247 39.5251 124.295 39.815 124.295ZM39.815 121.057C40.046 121.057 40.251 121.011 40.4299 120.918C40.6088 120.825 40.7493 120.696 40.8512 120.531C40.9554 120.366 41.0086 120.172 41.0108 119.95C41.0086 119.733 40.9565 119.542 40.8546 119.379C40.7549 119.216 40.6156 119.09 40.4367 119.002C40.2578 118.912 40.0506 118.866 39.815 118.866C39.575 118.866 39.3643 118.912 39.1831 119.002C39.0042 119.09 38.8649 119.216 38.7653 119.379C38.6656 119.542 38.6169 119.733 38.6192 119.95C38.6169 120.172 38.6668 120.366 38.7687 120.531C38.8706 120.696 39.011 120.825 39.1899 120.918C39.3711 121.011 39.5795 121.057 39.815 121.057ZM44.4564 123.289L44.4496 122.049H44.6263L46.7054 119.841H47.9216L45.5503 122.355H45.3907L44.4564 123.289ZM43.5222 125.059V118.102H44.538V125.059H43.5222ZM46.8175 125.059L44.949 122.579L45.6489 121.869L48.0643 125.059H46.8175Z" fill="#3E4581"/>
<path d="M48.032 77.5042V92.8105H46.1785V79.4473H46.0888L42.3519 81.9287V80.0453L46.1785 77.5042H48.032ZM57.5163 93.0198C56.8885 93.0098 56.2607 92.8903 55.6329 92.6611C55.0051 92.4319 54.4321 92.0457 53.9139 91.5026C53.3957 90.9545 52.9797 90.2146 52.6658 89.2829C52.3519 88.3462 52.1949 87.1703 52.1949 85.7553C52.1949 84.4 52.322 83.1992 52.5761 82.1529C52.8302 81.1016 53.1989 80.2171 53.6822 79.4997C54.1655 78.7772 54.7485 78.2291 55.4311 77.8554C56.1187 77.4817 56.8935 77.2949 57.7555 77.2949C58.6125 77.2949 59.3748 77.4668 60.0424 77.8106C60.7151 78.1494 61.2632 78.6227 61.6867 79.2306C62.1102 79.8385 62.3842 80.5385 62.5088 81.3307H60.6852C60.5158 80.6432 60.1869 80.0727 59.6987 79.6192C59.2104 79.1658 58.5626 78.9391 57.7555 78.9391C56.5696 78.9391 55.6354 79.4548 54.9528 80.4862C54.2751 81.5176 53.9338 82.965 53.9289 84.8285H54.0484C54.3275 84.405 54.6588 84.0437 55.0425 83.7448C55.4311 83.4409 55.8596 83.2067 56.328 83.0423C56.7963 82.8778 57.2921 82.7956 57.8152 82.7956C58.6922 82.7956 59.4944 83.0149 60.2218 83.4533C60.9493 83.8868 61.5322 84.4872 61.9707 85.2545C62.4092 86.0168 62.6284 86.8913 62.6284 87.8778C62.6284 88.8245 62.4166 89.6915 61.9931 90.4787C61.5696 91.261 60.9742 91.8838 60.2069 92.3472C59.4445 92.8056 58.5477 93.0298 57.5163 93.0198ZM57.5163 91.3756C58.1441 91.3756 58.7071 91.2186 59.2054 90.9047C59.7086 90.5908 60.1047 90.1698 60.3937 89.6416C60.6877 89.1135 60.8347 88.5256 60.8347 87.8778C60.8347 87.245 60.6927 86.6696 60.4087 86.1514C60.1296 85.6282 59.7435 85.2122 59.2502 84.9032C58.7619 84.5943 58.2039 84.4399 57.5761 84.4399C57.1027 84.4399 56.6618 84.5345 56.2532 84.7239C55.8446 84.9082 55.4859 85.1623 55.177 85.4862C54.8731 85.8101 54.6339 86.1813 54.4595 86.5998C54.2851 87.0133 54.1979 87.4493 54.1979 87.9077C54.1979 88.5156 54.3399 89.0836 54.6239 89.6117C54.9129 90.1399 55.3065 90.5659 55.8048 90.8898C56.308 91.2136 56.8785 91.3756 57.5163 91.3756ZM66.1635 92.9301C65.7948 92.9301 65.4784 92.7981 65.2143 92.534C64.9503 92.2699 64.8182 91.9535 64.8182 91.5848C64.8182 91.2161 64.9503 90.8997 65.2143 90.6357C65.4784 90.3716 65.7948 90.2395 66.1635 90.2395C66.5322 90.2395 66.8486 90.3716 67.1127 90.6357C67.3768 90.8997 67.5088 91.2161 67.5088 91.5848C67.5088 91.829 67.4465 92.0532 67.322 92.2575C67.2024 92.4618 67.0404 92.6262 66.8362 92.7508C66.6369 92.8703 66.4126 92.9301 66.1635 92.9301ZM70.6441 92.8105V91.4653L75.6964 85.9346C76.2893 85.2869 76.7776 84.7239 77.1612 84.2455C77.5449 83.7622 77.8289 83.3088 78.0133 82.8853C78.2026 82.4568 78.2973 82.0084 78.2973 81.54C78.2973 81.0019 78.1677 80.536 77.9086 80.1424C77.6545 79.7488 77.3057 79.4449 76.8623 79.2306C76.4188 79.0164 75.9206 78.9092 75.3675 78.9092C74.7796 78.9092 74.2664 79.0313 73.8279 79.2754C73.3944 79.5146 73.0581 79.8509 72.819 80.2844C72.5848 80.7179 72.4677 81.2261 72.4677 81.8091H70.7039C70.7039 80.9122 70.9106 80.125 71.3242 79.4473C71.7377 78.7697 72.3008 78.2416 73.0133 77.8629C73.7308 77.4842 74.5354 77.2949 75.4273 77.2949C76.3242 77.2949 77.1189 77.4842 77.8115 77.8629C78.504 78.2416 79.0471 78.7523 79.4408 79.395C79.8344 80.0378 80.0312 80.7528 80.0312 81.54C80.0312 82.103 79.9291 82.6536 79.7248 83.1917C79.5255 83.7249 79.1767 84.3203 78.6784 84.978C78.1852 85.6307 77.5001 86.4279 76.6231 87.3696L73.1852 91.0467V91.1663H80.3003V92.8105H70.6441ZM85.0611 88.6252L85.0312 86.4428H85.3899L90.4123 81.3307H92.5947L87.2434 86.7418H87.094L85.0611 88.6252ZM83.4168 92.8105V77.5042H85.1807V92.8105H83.4168ZM90.7113 92.8105L86.227 87.1304L87.4826 85.9047L92.9534 92.8105H90.7113ZM107.128 84.4616V92.8105H106.15L101.6 86.2553H101.519V92.8105H100.508V84.4616H101.486L106.052 91.0331H106.134V84.4616H107.128ZM111.646 92.941C111.043 92.941 110.523 92.8078 110.085 92.5415C109.65 92.2724 109.314 91.8974 109.078 91.4163C108.844 90.9326 108.727 90.37 108.727 89.7286C108.727 89.0872 108.844 88.5219 109.078 88.0327C109.314 87.5408 109.643 87.1576 110.065 86.8831C110.489 86.6059 110.983 86.4673 111.548 86.4673C111.875 86.4673 112.197 86.5217 112.515 86.6304C112.833 86.7391 113.122 86.9157 113.383 87.1603C113.644 87.4022 113.852 87.7229 114.007 88.1224C114.162 88.5219 114.239 89.0138 114.239 89.5982V90.0058H109.412V89.1742H113.261C113.261 88.8209 113.19 88.5056 113.049 88.2284C112.91 87.9512 112.712 87.7324 112.453 87.5721C112.198 87.4117 111.896 87.3316 111.548 87.3316C111.165 87.3316 110.834 87.4267 110.554 87.6169C110.277 87.8044 110.063 88.049 109.914 88.3507C109.764 88.6524 109.69 88.9758 109.69 89.3209V89.8754C109.69 90.3483 109.771 90.7491 109.934 91.078C110.1 91.4041 110.33 91.6528 110.623 91.824C110.917 91.9925 111.258 92.0768 111.646 92.0768C111.899 92.0768 112.127 92.0414 112.331 91.9708C112.538 91.8974 112.716 91.7887 112.865 91.6446C113.015 91.4979 113.13 91.3158 113.212 91.0984L114.141 91.3593C114.043 91.6745 113.879 91.9517 113.648 92.1909C113.417 92.4273 113.132 92.6121 112.792 92.7453C112.452 92.8758 112.07 92.941 111.646 92.941ZM117.121 92.8105L115.213 86.5488H116.224L117.578 91.343H117.643L118.98 86.5488H120.007L121.328 91.3267H121.394L122.747 86.5488H123.758L121.85 92.8105H120.904L119.535 88.0001H119.437L118.067 92.8105H117.121ZM128.389 92.8105V84.4616H133.395V85.3585H129.4V88.1795H133.02V89.0764H129.4V92.8105H128.389ZM137.08 92.941C136.515 92.941 136.019 92.8065 135.592 92.5374C135.168 92.2684 134.837 91.8919 134.598 91.4082C134.361 90.9244 134.243 90.3591 134.243 89.7123C134.243 89.06 134.361 88.4907 134.598 88.0042C134.837 87.5177 135.168 87.14 135.592 86.8709C136.019 86.6018 136.515 86.4673 137.08 86.4673C137.646 86.4673 138.14 86.6018 138.564 86.8709C138.991 87.14 139.323 87.5177 139.559 88.0042C139.798 88.4907 139.918 89.06 139.918 89.7123C139.918 90.3591 139.798 90.9244 139.559 91.4082C139.323 91.8919 138.991 92.2684 138.564 92.5374C138.14 92.8065 137.646 92.941 137.08 92.941ZM137.08 92.0768C137.51 92.0768 137.863 91.9667 138.14 91.7465C138.418 91.5264 138.623 91.237 138.756 90.8782C138.889 90.5195 138.956 90.1308 138.956 89.7123C138.956 89.2938 138.889 88.9038 138.756 88.5423C138.623 88.1809 138.418 87.8887 138.14 87.6658C137.863 87.443 137.51 87.3316 137.08 87.3316C136.651 87.3316 136.298 87.443 136.02 87.6658C135.743 87.8887 135.538 88.1809 135.405 88.5423C135.272 88.9038 135.205 89.2938 135.205 89.7123C135.205 90.1308 135.272 90.5195 135.405 90.8782C135.538 91.237 135.743 91.5264 136.02 91.7465C136.298 91.9667 136.651 92.0768 137.08 92.0768ZM142.348 84.4616V92.8105H141.386V84.4616H142.348ZM145.073 84.4616V92.8105H144.111V84.4616H145.073ZM149.379 92.941C148.813 92.941 148.317 92.8065 147.891 92.5374C147.467 92.2684 147.135 91.8919 146.896 91.4082C146.659 90.9244 146.541 90.3591 146.541 89.7123C146.541 89.06 146.659 88.4907 146.896 88.0042C147.135 87.5177 147.467 87.14 147.891 86.8709C148.317 86.6018 148.813 86.4673 149.379 86.4673C149.944 86.4673 150.439 86.6018 150.862 86.8709C151.289 87.14 151.621 87.5177 151.857 88.0042C152.096 88.4907 152.216 89.06 152.216 89.7123C152.216 90.3591 152.096 90.9244 151.857 91.4082C151.621 91.8919 151.289 92.2684 150.862 92.5374C150.439 92.8065 149.944 92.941 149.379 92.941ZM149.379 92.0768C149.808 92.0768 150.161 91.9667 150.439 91.7465C150.716 91.5264 150.921 91.237 151.054 90.8782C151.187 90.5195 151.254 90.1308 151.254 89.7123C151.254 89.2938 151.187 88.9038 151.054 88.5423C150.921 88.1809 150.716 87.8887 150.439 87.6658C150.161 87.443 149.808 87.3316 149.379 87.3316C148.949 87.3316 148.596 87.443 148.319 87.6658C148.041 87.8887 147.836 88.1809 147.703 88.5423C147.57 88.9038 147.503 89.2938 147.503 89.7123C147.503 90.1308 147.57 90.5195 147.703 90.8782C147.836 91.237 148.041 91.5264 148.319 91.7465C148.596 91.9667 148.949 92.0768 149.379 92.0768ZM154.89 92.8105L152.982 86.5488H153.993L155.347 91.343H155.412L156.749 86.5488H157.776L159.097 91.3267H159.163L160.516 86.5488H161.527L159.619 92.8105H158.673L157.304 88.0001H157.206L155.836 92.8105H154.89ZM165.211 92.941C164.608 92.941 164.087 92.8078 163.65 92.5415C163.215 92.2724 162.879 91.8974 162.643 91.4163C162.409 90.9326 162.292 90.37 162.292 89.7286C162.292 89.0872 162.409 88.5219 162.643 88.0327C162.879 87.5408 163.208 87.1576 163.629 86.8831C164.053 86.6059 164.548 86.4673 165.113 86.4673C165.44 86.4673 165.762 86.5217 166.08 86.6304C166.398 86.7391 166.687 86.9157 166.948 87.1603C167.209 87.4022 167.417 87.7229 167.572 88.1224C167.726 88.5219 167.804 89.0138 167.804 89.5982V90.0058H162.977V89.1742H166.826C166.826 88.8209 166.755 88.5056 166.614 88.2284C166.475 87.9512 166.277 87.7324 166.018 87.5721C165.763 87.4117 165.461 87.3316 165.113 87.3316C164.73 87.3316 164.399 87.4267 164.119 87.6169C163.841 87.8044 163.628 88.049 163.479 88.3507C163.329 88.6524 163.254 88.9758 163.254 89.3209V89.8754C163.254 90.3483 163.336 90.7491 163.499 91.078C163.665 91.4041 163.894 91.6528 164.188 91.824C164.481 91.9925 164.823 92.0768 165.211 92.0768C165.464 92.0768 165.692 92.0414 165.896 91.9708C166.103 91.8974 166.281 91.7887 166.43 91.6446C166.58 91.4979 166.695 91.3158 166.777 91.0984L167.706 91.3593C167.608 91.6745 167.444 91.9517 167.213 92.1909C166.982 92.4273 166.696 92.6121 166.357 92.7453C166.017 92.8758 165.635 92.941 165.211 92.941ZM169.267 92.8105V86.5488H170.197V87.4946H170.262C170.376 87.1848 170.583 86.9334 170.882 86.7404C171.181 86.5475 171.518 86.451 171.893 86.451C171.963 86.451 172.052 86.4524 172.158 86.4551C172.264 86.4578 172.344 86.4619 172.398 86.4673V87.4457C172.366 87.4375 172.291 87.4253 172.174 87.409C172.06 87.39 171.939 87.3805 171.811 87.3805C171.507 87.3805 171.235 87.4443 170.996 87.5721C170.76 87.6971 170.572 87.871 170.433 88.0939C170.297 88.314 170.23 88.5654 170.23 88.8481V92.8105H169.267ZM177.974 87.9512L177.11 88.1958C177.056 88.0518 176.975 87.9118 176.869 87.7759C176.766 87.6373 176.625 87.5232 176.445 87.4335C176.266 87.3438 176.036 87.2989 175.756 87.2989C175.373 87.2989 175.054 87.3873 174.798 87.5639C174.546 87.7379 174.419 87.9594 174.419 88.2284C174.419 88.4676 174.506 88.6565 174.68 88.7951C174.854 88.9337 175.126 89.0492 175.496 89.1416L176.425 89.3699C176.985 89.5058 177.402 89.7137 177.677 89.9936C177.951 90.2708 178.088 90.6282 178.088 91.0657C178.088 91.4245 177.985 91.7452 177.778 92.0278C177.575 92.3105 177.289 92.5333 176.922 92.6964C176.555 92.8595 176.129 92.941 175.642 92.941C175.004 92.941 174.475 92.8024 174.056 92.5252C173.638 92.248 173.373 91.843 173.262 91.3103L174.175 91.0821C174.262 91.4191 174.426 91.6718 174.668 91.8403C174.913 92.0088 175.232 92.0931 175.626 92.0931C176.074 92.0931 176.43 91.9979 176.694 91.8077C176.96 91.6147 177.094 91.3837 177.094 91.1147C177.094 90.8972 177.017 90.7152 176.865 90.5684C176.713 90.4189 176.479 90.3075 176.164 90.2341L175.12 89.9895C174.547 89.8536 174.126 89.643 173.857 89.3576C173.59 89.0696 173.457 88.7095 173.457 88.2773C173.457 87.924 173.556 87.6115 173.755 87.3397C173.956 87.0679 174.229 86.8546 174.574 86.6997C174.922 86.5448 175.316 86.4673 175.756 86.4673C176.376 86.4673 176.863 86.6032 177.216 86.875C177.572 87.1467 177.825 87.5055 177.974 87.9512Z" fill="#3E4581"/>
<path d="M41.9236 54.7827V45.0423H48.1636V46.5214H43.6881V49.1658H47.7355V50.6449H43.6881V54.7827H41.9236ZM52.3454 54.9254C51.6319 54.9254 51.0137 54.7684 50.4905 54.4545C49.9673 54.1406 49.5615 53.7015 49.2729 53.1371C48.9876 52.5727 48.8449 51.9132 48.8449 51.1586C48.8449 50.404 48.9876 49.7429 49.2729 49.1753C49.5615 48.6077 49.9673 48.167 50.4905 47.8531C51.0137 47.5392 51.6319 47.3823 52.3454 47.3823C53.0588 47.3823 53.6771 47.5392 54.2002 47.8531C54.7234 48.167 55.1277 48.6077 55.413 49.1753C55.7016 49.7429 55.8458 50.404 55.8458 51.1586C55.8458 51.9132 55.7016 52.5727 55.413 53.1371C55.1277 53.7015 54.7234 54.1406 54.2002 54.4545C53.6771 54.7684 53.0588 54.9254 52.3454 54.9254ZM52.3549 53.5461C52.7417 53.5461 53.0651 53.4399 53.3251 53.2275C53.5851 53.0119 53.7785 52.7233 53.9053 52.3619C54.0353 52.0004 54.1003 51.5977 54.1003 51.1538C54.1003 50.7068 54.0353 50.3025 53.9053 49.941C53.7785 49.5764 53.5851 49.2863 53.3251 49.0707C53.0651 48.8551 52.7417 48.7473 52.3549 48.7473C51.9585 48.7473 51.6288 48.8551 51.3656 49.0707C51.1056 49.2863 50.9106 49.5764 50.7806 49.941C50.6538 50.3025 50.5904 50.7068 50.5904 51.1538C50.5904 51.5977 50.6538 52.0004 50.7806 52.3619C50.9106 52.7233 51.1056 53.0119 51.3656 53.2275C51.6288 53.4399 51.9585 53.5461 52.3549 53.5461ZM59.0288 45.0423V54.7827H57.3071V45.0423H59.0288ZM62.521 45.0423V54.7827H60.7993V45.0423H62.521ZM67.478 54.9254C66.7646 54.9254 66.1463 54.7684 65.6231 54.4545C65.0999 54.1406 64.6941 53.7015 64.4056 53.1371C64.1202 52.5727 63.9775 51.9132 63.9775 51.1586C63.9775 50.404 64.1202 49.7429 64.4056 49.1753C64.6941 48.6077 65.0999 48.167 65.6231 47.8531C66.1463 47.5392 66.7646 47.3823 67.478 47.3823C68.1914 47.3823 68.8097 47.5392 69.3329 47.8531C69.856 48.167 70.2603 48.6077 70.5456 49.1753C70.8342 49.7429 70.9785 50.404 70.9785 51.1586C70.9785 51.9132 70.8342 52.5727 70.5456 53.1371C70.2603 53.7015 69.856 54.1406 69.3329 54.4545C68.8097 54.7684 68.1914 54.9254 67.478 54.9254ZM67.4875 53.5461C67.8743 53.5461 68.1977 53.4399 68.4577 53.2275C68.7177 53.0119 68.9111 52.7233 69.038 52.3619C69.168 52.0004 69.233 51.5977 69.233 51.1538C69.233 50.7068 69.168 50.3025 69.038 49.941C68.9111 49.5764 68.7177 49.2863 68.4577 49.0707C68.1977 48.8551 67.8743 48.7473 67.4875 48.7473C67.0912 48.7473 66.7614 48.8551 66.4982 49.0707C66.2382 49.2863 66.0432 49.5764 65.9132 49.941C65.7864 50.3025 65.723 50.7068 65.723 51.1538C65.723 51.5977 65.7864 52.0004 65.9132 52.3619C66.0432 52.7233 66.2382 53.0119 66.4982 53.2275C66.7614 53.4399 67.0912 53.5461 67.4875 53.5461ZM73.7382 54.7827L71.674 47.4774H73.429L74.7132 52.6139H74.7797L76.0924 47.4774H77.8284L79.1411 52.5854H79.2124L80.4775 47.4774H82.2373L80.1684 54.7827H78.3753L77.0056 49.8459H76.9057L75.536 54.7827H73.7382ZM86.4642 54.9254C85.7318 54.9254 85.0992 54.7732 84.5665 54.4688C84.037 54.1613 83.6296 53.7269 83.3442 53.1657C83.0589 52.6013 82.9162 51.937 82.9162 51.1729C82.9162 50.4214 83.0589 49.7619 83.3442 49.1943C83.6328 48.6236 84.0355 48.1797 84.5523 47.8626C85.0691 47.5424 85.6763 47.3823 86.3739 47.3823C86.8241 47.3823 87.249 47.4552 87.6485 47.601C88.0512 47.7437 88.4063 47.9657 88.7138 48.2669C89.0246 48.5681 89.2687 48.9518 89.4463 49.4179C89.6238 49.8808 89.7126 50.4325 89.7126 51.073V51.6009H83.7247V50.4404H88.0623C88.0591 50.1107 87.9877 49.8174 87.8482 49.5605C87.7087 49.3006 87.5137 49.096 87.2632 48.947C87.0159 48.798 86.7274 48.7235 86.3976 48.7235C86.0457 48.7235 85.7365 48.8091 85.4702 48.9803C85.2039 49.1484 84.9962 49.3703 84.8472 49.6462C84.7013 49.9188 84.6268 50.2185 84.6236 50.5451V51.5581C84.6236 51.983 84.7013 52.3476 84.8567 52.652C85.012 52.9532 85.2292 53.1847 85.5082 53.3464C85.7873 53.5049 86.1139 53.5842 86.488 53.5842C86.7385 53.5842 86.9652 53.5493 87.1681 53.4796C87.371 53.4066 87.547 53.3004 87.696 53.1609C87.8451 53.0214 87.9576 52.8486 88.0337 52.6425L89.6413 52.8232C89.5398 53.2481 89.3464 53.6191 89.061 53.9361C88.7788 54.25 88.4174 54.4942 87.9766 54.6686C87.5359 54.8398 87.0318 54.9254 86.4642 54.9254ZM91.1692 54.7827V47.4774H92.8385V48.6949H92.9146C93.0478 48.2732 93.2761 47.9482 93.5995 47.7199C93.9261 47.4885 94.2987 47.3728 94.7172 47.3728C94.8123 47.3728 94.9185 47.3775 95.0358 47.387C95.1563 47.3934 95.2562 47.4045 95.3355 47.4203V49.0041C95.2626 48.9787 95.1468 48.9565 94.9883 48.9375C94.8329 48.9153 94.6823 48.9042 94.5365 48.9042C94.2226 48.9042 93.9404 48.9724 93.6899 49.1087C93.4426 49.2419 93.2476 49.4274 93.1049 49.6652C92.9622 49.903 92.8909 50.1773 92.8909 50.488V54.7827H91.1692ZM106.403 48.1528C106.324 47.8959 106.214 47.666 106.075 47.4631C105.938 47.257 105.773 47.0811 105.58 46.9352C105.39 46.7893 105.171 46.68 104.924 46.607C104.676 46.5309 104.407 46.4929 104.115 46.4929C103.592 46.4929 103.126 46.6245 102.717 46.8876C102.308 47.1508 101.986 47.5376 101.751 48.0481C101.52 48.5554 101.404 49.1737 101.404 49.903C101.404 50.6386 101.52 51.2616 101.751 51.7721C101.983 52.2826 102.305 52.671 102.717 52.9374C103.129 53.2005 103.608 53.3321 104.153 53.3321C104.648 53.3321 105.076 53.237 105.437 53.0467C105.802 52.8565 106.083 52.587 106.279 52.2382C106.476 51.8863 106.574 51.4741 106.574 51.0016L106.974 51.0635H104.329V49.6842H108.282V50.8542C108.282 51.6881 108.104 52.4094 107.749 53.0182C107.394 53.627 106.905 54.0963 106.284 54.426C105.662 54.7526 104.949 54.9159 104.144 54.9159C103.246 54.9159 102.458 54.7145 101.78 54.3119C101.105 53.906 100.577 53.3305 100.196 52.5854C99.8189 51.8371 99.6302 50.9493 99.6302 49.922C99.6302 49.1357 99.7412 48.4334 99.9631 47.8151C100.188 47.1968 100.502 46.672 100.905 46.2408C101.308 45.8064 101.78 45.4767 102.322 45.2515C102.864 45.0233 103.454 44.9091 104.091 44.9091C104.63 44.9091 105.133 44.9884 105.599 45.1469C106.065 45.3023 106.479 45.5242 106.84 45.8128C107.205 46.1013 107.505 46.4437 107.739 46.8401C107.974 47.2364 108.128 47.674 108.201 48.1528H106.403ZM109.912 54.7827V47.4774H111.581V48.6949H111.657C111.79 48.2732 112.019 47.9482 112.342 47.7199C112.669 47.4885 113.041 47.3728 113.46 47.3728C113.555 47.3728 113.661 47.3775 113.778 47.387C113.899 47.3934 113.999 47.4045 114.078 47.4203V49.0041C114.005 48.9787 113.889 48.9565 113.731 48.9375C113.575 48.9153 113.425 48.9042 113.279 48.9042C112.965 48.9042 112.683 48.9724 112.432 49.1087C112.185 49.2419 111.99 49.4274 111.847 49.6652C111.705 49.903 111.633 50.1773 111.633 50.488V54.7827H109.912ZM118.108 54.9254C117.394 54.9254 116.776 54.7684 116.253 54.4545C115.73 54.1406 115.324 53.7015 115.035 53.1371C114.75 52.5727 114.607 51.9132 114.607 51.1586C114.607 50.404 114.75 49.7429 115.035 49.1753C115.324 48.6077 115.73 48.167 116.253 47.8531C116.776 47.5392 117.394 47.3823 118.108 47.3823C118.821 47.3823 119.439 47.5392 119.962 47.8531C120.486 48.167 120.89 48.6077 121.175 49.1753C121.464 49.7429 121.608 50.404 121.608 51.1586C121.608 51.9132 121.464 52.5727 121.175 53.1371C120.89 53.7015 120.486 54.1406 119.962 54.4545C119.439 54.7684 118.821 54.9254 118.108 54.9254ZM118.117 53.5461C118.504 53.5461 118.827 53.4399 119.087 53.2275C119.347 53.0119 119.541 52.7233 119.668 52.3619C119.798 52.0004 119.863 51.5977 119.863 51.1538C119.863 50.7068 119.798 50.3025 119.668 49.941C119.541 49.5764 119.347 49.2863 119.087 49.0707C118.827 48.8551 118.504 48.7473 118.117 48.7473C117.721 48.7473 117.391 48.8551 117.128 49.0707C116.868 49.2863 116.673 49.5764 116.543 49.941C116.416 50.3025 116.353 50.7068 116.353 51.1538C116.353 51.5977 116.416 52.0004 116.543 52.3619C116.673 52.7233 116.868 53.0119 117.128 53.2275C117.391 53.4399 117.721 53.5461 118.117 53.5461ZM124.368 54.7827L122.304 47.4774H124.059L125.343 52.6139H125.409L126.722 47.4774H128.458L129.771 52.5854H129.842L131.107 47.4774H132.867L130.798 54.7827H129.005L127.635 49.8459H127.535L126.166 54.7827H124.368ZM137.717 47.4774V48.8091H133.517V47.4774H137.717ZM134.554 45.7272H136.276V52.5854C136.276 52.8169 136.311 52.9944 136.38 53.1181C136.453 53.2386 136.548 53.321 136.666 53.3654C136.783 53.4098 136.913 53.432 137.056 53.432C137.164 53.432 137.262 53.4241 137.351 53.4082C137.443 53.3924 137.512 53.3781 137.56 53.3654L137.85 54.7114C137.758 54.7431 137.626 54.778 137.455 54.816C137.287 54.8541 137.081 54.8763 136.837 54.8826C136.406 54.8953 136.017 54.8303 135.672 54.6876C135.326 54.5417 135.052 54.3166 134.849 54.0122C134.649 53.7078 134.551 53.3274 134.554 52.8708V45.7272ZM141.035 50.5023V54.7827H139.314V45.0423H140.997V48.7187H141.083C141.254 48.3065 141.519 47.9815 141.877 47.7437C142.239 47.5028 142.698 47.3823 143.256 47.3823C143.764 47.3823 144.206 47.4885 144.583 47.7009C144.961 47.9134 145.252 48.2241 145.459 48.6331C145.668 49.0421 145.772 49.5415 145.772 50.1313V54.7827H144.051V50.3976C144.051 49.9062 143.924 49.5241 143.67 49.2514C143.42 48.9756 143.068 48.8376 142.614 48.8376C142.31 48.8376 142.037 48.9042 141.796 49.0374C141.559 49.1674 141.371 49.356 141.235 49.6034C141.102 49.8507 141.035 50.1503 141.035 50.5023Z" fill="#0C0D48"/>
<path d="M239.764 43.4899H230.197C229.653 43.4899 229.131 43.7058 228.747 44.09C228.362 44.4743 228.146 44.9955 228.146 45.5389V55.1012C228.146 55.6446 228.362 56.1658 228.747 56.5501C229.131 56.9344 229.653 57.1502 230.197 57.1502H239.764C240.307 57.1502 240.829 56.9344 241.213 56.5501C241.598 56.1658 241.814 55.6446 241.814 55.1012V45.5389C241.814 44.9955 241.598 44.4743 241.213 44.09C240.829 43.7058 240.307 43.4899 239.764 43.4899ZM239.764 44.8559C239.945 44.8559 240.119 44.9279 240.247 45.056C240.375 45.184 240.447 45.3578 240.447 45.5389V49.637H235.664V44.8559H239.764ZM229.513 45.5389C229.513 45.3578 229.585 45.184 229.713 45.056C229.842 44.9279 230.015 44.8559 230.197 44.8559H234.297V49.637H229.513V45.5389ZM230.197 55.7842C230.015 55.7842 229.842 55.7122 229.713 55.5842C229.585 55.4561 229.513 55.2823 229.513 55.1012V51.0031H234.297V55.7842H230.197ZM240.447 55.1012C240.447 55.2823 240.375 55.4561 240.247 55.5842C240.119 55.7122 239.945 55.7842 239.764 55.7842H235.664V51.0031H240.447V55.1012Z" fill="#E71D7C"/>
<path d="M250.779 50.3198C250.779 59.0428 243.704 66.1144 234.976 66.1144C226.248 66.1144 219.173 59.0428 219.173 50.3198C219.173 41.5969 226.248 34.5252 234.976 34.5252C243.704 34.5252 250.779 41.5969 250.779 50.3198Z" stroke="#7B88BC" stroke-width="0.854209"/>
<path d="M273.219 44.172C273.219 43.7948 272.924 43.489 272.562 43.489C272.199 43.489 271.904 43.7948 271.904 44.172V51.1292L270.661 49.8362C270.404 49.5695 269.988 49.5695 269.731 49.8362C269.475 50.103 269.475 50.5354 269.731 50.8022L272.097 53.261C272.167 53.3338 272.249 53.3868 272.336 53.4198C272.406 53.4465 272.482 53.4611 272.562 53.4611C272.664 53.4611 272.761 53.4367 272.848 53.3931C272.888 53.373 272.926 53.3485 272.962 53.3196C272.987 53.2998 273.01 53.2783 273.032 53.2552L275.392 50.8022C275.648 50.5354 275.648 50.103 275.392 49.8362C275.135 49.5695 274.719 49.5695 274.462 49.8362L273.219 51.129V44.172Z" fill="#E71D7C"/>
<path d="M267.239 52.7098C267.602 52.7098 267.896 53.0156 267.896 53.3928V55.2369C267.896 55.3819 267.952 55.5208 268.05 55.6233C268.149 55.7258 268.282 55.7834 268.422 55.7834H276.701C276.841 55.7834 276.974 55.7258 277.073 55.6233C277.171 55.5208 277.227 55.3819 277.227 55.2369V53.3928C277.227 53.0156 277.521 52.7098 277.884 52.7098C278.247 52.7098 278.541 53.0156 278.541 53.3928V55.2369C278.541 55.7442 278.347 56.2306 278.002 56.5892C277.657 56.9479 277.189 57.1494 276.701 57.1494H268.422C267.934 57.1494 267.466 56.9479 267.121 56.5892C266.776 56.2306 266.582 55.7442 266.582 55.2369V53.3928C266.582 53.0156 266.876 52.7098 267.239 52.7098Z" fill="#E71D7C"/>
<path d="M288.365 50.319C288.365 59.0419 281.29 66.1136 272.562 66.1136C263.834 66.1136 256.759 59.0419 256.759 50.319C256.759 41.5961 263.834 34.5244 272.562 34.5244C281.29 34.5244 288.365 41.5961 288.365 50.319Z" stroke="#7B88BC" stroke-width="0.854209"/>
<path d="M71.8145 216.38C71.8145 214.729 73.153 213.391 74.8042 213.391C76.4554 213.391 77.7939 214.729 77.7939 216.38V287.669H71.8145V216.38Z" fill="#E71D7C"/>
<path d="M269.992 148.078C269.992 146.427 271.331 145.089 272.982 145.089C274.633 145.089 275.972 146.427 275.972 148.078V287.669H269.992V148.078Z" fill="#E71D7C"/>
<path d="M245.219 222.358C245.219 220.706 246.557 219.368 248.208 219.368C249.86 219.368 251.198 220.706 251.198 222.358V287.67H245.219V222.358Z" fill="#E71D7C"/>
<path d="M220.447 168.569C220.447 166.918 221.786 165.579 223.437 165.579C225.088 165.579 226.427 166.918 226.427 168.569V287.669H220.447V168.569Z" fill="#E71D7C"/>
<path d="M195.676 183.084C195.676 181.433 197.014 180.094 198.666 180.094C200.317 180.094 201.655 181.433 201.655 183.084V287.67H195.676V183.084Z" fill="#E71D7C"/>
<path d="M170.902 216.38C170.902 214.729 172.241 213.39 173.892 213.39C175.543 213.39 176.882 214.729 176.882 216.38V287.668H170.902V216.38Z" fill="#E71D7C"/>
<path d="M146.131 224.065C146.131 222.414 147.469 221.075 149.121 221.075C150.772 221.075 152.11 222.414 152.11 224.065V287.67H146.131V224.065Z" fill="#E71D7C"/>
<path d="M121.357 146.371C121.357 144.72 122.696 143.381 124.347 143.381C125.998 143.381 127.337 144.72 127.337 146.371V287.669H121.357V146.371Z" fill="#E71D7C"/>
<path d="M96.5898 246.262C96.5898 244.611 97.9284 243.272 99.5796 243.272C101.231 243.272 102.569 244.611 102.569 246.262V287.668H96.5898V246.262Z" fill="#E71D7C"/>
<defs>
<filter id="filter0_d_2270_503923" x="0.494577" y="0.586156" width="328.005" height="359.445" filterUnits="userSpaceOnUse" color-interpolation-filters="sRGB">
<feFlood flood-opacity="0" result="BackgroundImageFix"/>
<feColorMatrix in="SourceAlpha" type="matrix" values="0 0 0 0 0 0 0 0 0 0 0 0 0 0 0 0 0 0 127 0" result="hardAlpha"/>
<feOffset dy="8.75271"/>
<feGaussianBlur stdDeviation="8.75271"/>
<feColorMatrix type="matrix" values="0 0 0 0 0 0 0 0 0 0 0 0 0 0 0 0 0 0 0.07 0"/>
<feBlend mode="normal" in2="BackgroundImageFix" result="effect1_dropShadow_2270_503923"/>
<feBlend mode="normal" in="SourceGraphic" in2="effect1_dropShadow_2270_503923" result="shape"/>
</filter>
</defs>
</svg>
