<svg width="49" height="42" viewBox="0 0 49 42" fill="none" xmlns="http://www.w3.org/2000/svg">
<path d="M37.0427 1.45487C36.9644 1.47096 36.8852 1.48826 36.8081 1.50514C36.744 1.51934 36.6809 1.53334 36.618 1.54834C36.519 1.57076 36.4222 1.59378 36.3248 1.61901C36.2679 1.63278 36.2123 1.64733 36.1556 1.66211C36.1267 1.66909 36.099 1.67687 36.0703 1.68487C36.0096 1.70046 35.9492 1.71706 35.8889 1.73466C35.6632 1.79775 35.4414 1.86491 35.2236 1.93614C34.8852 1.42164 34.4274 0.996552 33.8892 0.697083C33.3511 0.397613 32.7486 0.232632 32.133 0.216187L19.499 2.32613C19.2137 2.31851 18.9305 2.37757 18.672 2.4986C18.4135 2.61963 18.1869 2.7993 18.01 3.02332L1.47602 24.5966C1.27684 24.8487 1.13221 25.1394 1.05131 25.4503C0.970399 25.7612 0.954975 26.0855 1.00601 26.4027C1.05705 26.7199 1.17344 27.023 1.3478 27.2929C1.52216 27.5627 1.75068 27.7934 2.01888 27.9702L21.8308 41.0342C22.0991 41.2109 22.4012 41.33 22.7179 41.3839C23.0346 41.4377 23.3591 41.4252 23.6707 41.347C23.9823 41.2689 24.2743 41.1269 24.5282 40.9299C24.782 40.733 24.9921 40.4855 25.1453 40.203L38.23 16.9122L38.519 16.3975C38.7171 16.0339 38.7856 15.6138 38.7131 15.2061C38.8047 15.1936 38.8974 15.1808 38.9896 15.1661C39.0394 15.159 39.0901 15.1507 39.1407 15.1424C39.1894 15.1345 39.238 15.1266 39.2874 15.1175C39.4665 15.087 39.6462 15.0533 39.8267 15.0162C45.6008 13.8309 49.5118 9.92398 48.7313 6.12178C47.9507 2.31959 42.8168 0.269519 37.0427 1.45487ZM44.7546 9.89246C43.2082 11.2371 41.3276 12.1396 39.3111 12.5049C39.2057 12.5265 39.101 12.547 38.9959 12.5654C38.8961 12.5838 38.797 12.601 38.6977 12.6172C38.6926 12.6174 38.6875 12.6181 38.6824 12.6193C38.5779 12.6355 38.4735 12.6517 38.3693 12.6647C38.2656 12.6797 38.1615 12.6927 38.058 12.7035C37.9495 12.7153 37.8409 12.7271 37.7328 12.7357C37.6238 12.7455 37.5167 12.7539 37.4091 12.7603C37.3017 12.7677 37.195 12.7729 37.088 12.777C36.982 12.781 36.8769 12.7837 36.7723 12.7843L36.7693 12.7849C36.6784 12.7857 36.5885 12.7864 36.4992 12.7848C36.4752 12.7856 36.4511 12.7853 36.4268 12.784C36.3312 12.7827 36.2375 12.7799 36.1436 12.7762C36.0307 12.7721 35.9185 12.7659 35.8068 12.7574C35.7189 12.7524 35.6315 12.7452 35.545 12.7368C35.3305 12.717 35.119 12.6913 34.9123 12.6584C34.8713 12.6521 34.8312 12.6457 34.7899 12.6385C34.4087 12.5753 34.0319 12.4876 33.6619 12.3759C33.6216 12.3632 33.5826 12.3514 33.5433 12.3385C33.4536 12.3098 33.3658 12.2797 33.2788 12.2483C33.2403 12.2342 33.2006 12.2194 33.1597 12.2037C33.1188 12.188 33.0767 12.1715 33.0333 12.1542L33.022 12.1503C32.9831 12.1342 32.943 12.1173 32.9017 12.0996C32.857 12.0805 32.812 12.0604 32.7659 12.0396C32.6897 12.0049 32.6108 11.9677 32.5312 11.9265C32.5032 11.9124 32.4741 11.8984 32.4457 11.8823C32.4106 11.8644 32.3753 11.8454 32.3398 11.8255C32.2914 11.7988 32.2428 11.7711 32.195 11.7422C32.1712 11.7282 32.1472 11.7133 32.1232 11.6983C32.0263 11.6397 31.9315 11.5754 31.837 11.5079C31.8076 11.4867 31.7767 11.4638 31.748 11.4414C31.7147 11.4168 31.6834 11.3918 31.6519 11.3658C31.6218 11.3417 31.5929 11.3183 31.5646 11.2927C31.4923 11.2311 31.4224 11.1659 31.3559 11.0968C31.3339 11.0762 31.3138 11.0552 31.2936 11.0332C31.275 11.014 31.2572 10.9936 31.2394 10.9731C31.2232 10.9555 31.2068 10.9369 31.1915 10.9181C31.1722 10.8958 31.154 10.8734 31.1356 10.85C30.6778 11.1493 30.1526 11.3298 29.6074 11.3751C29.0623 11.4204 28.5145 11.3291 28.0135 11.1093C27.5126 10.8896 27.0744 10.5485 26.7384 10.1168C26.4025 9.68506 26.1796 9.17641 26.0897 8.63683C25.9998 8.09726 26.0459 7.5438 26.2238 7.02652C26.4017 6.50925 26.7058 6.04449 27.1085 5.67429C27.5112 5.3041 27.9998 5.04015 28.5302 4.90634C29.0606 4.77253 29.616 4.77307 30.1461 4.90792C30.5792 5.01875 30.9852 5.21648 31.3396 5.48909C31.6939 5.7617 31.9891 6.10349 32.2073 6.49371L32.1148 6.57866C32.1456 6.55035 32.1764 6.52202 32.2075 6.49472C32.5474 7.10451 32.6849 7.8065 32.6002 8.49949C32.5552 8.87284 32.4455 9.23548 32.2758 9.57109C32.4098 9.96862 33.0085 10.4068 33.835 10.7051C35.0655 11.1112 36.3696 11.2446 37.6568 11.0962L36.3819 5.98219L35.9832 4.38693C36.1724 4.32403 36.365 4.26459 36.5612 4.20862C36.672 4.17748 36.7841 4.14715 36.8976 4.11862C37.1153 4.06241 37.3355 4.01161 37.5583 3.96623C39.5555 3.50752 41.6396 3.59615 43.5907 4.22279C44.4511 4.53297 45.937 5.25912 46.2199 6.63734C46.5029 8.01556 45.4232 9.26839 44.7546 9.89246Z" fill="#E71D7C"/>
</svg>
