
<svg width="634" height="344" viewBox="0 0 634 344" fill="none" xmlns="http://www.w3.org/2000/svg">
<g clip-path="url(#clip0_3980_519296)">
<path d="M300.435 63.397L453.556 27.5221L455.512 35.9011L482.049 10.9827L447.216 0.43689L449.172 8.8071L290.768 45.9139" stroke="#0C0D48" stroke-linecap="round" stroke-linejoin="round"/>
<path d="M537.639 125.405L617.479 106.698L618.5 111.067L632.341 98.0747L614.178 92.5703L615.199 96.9389L532.601 116.283" stroke="#0C0D48" stroke-linecap="round" stroke-linejoin="round"/>
<path d="M565.556 76.3017L546.878 70.6663L548.319 76.7648L258.607 144.967L260.205 151.773L549.917 83.5711L551.349 89.6696L565.556 76.3017Z" fill="#0C0D48"/>
<path d="M160.238 230.688L353.562 185.176L354.994 191.265L369.202 177.898L350.523 172.271L351.964 178.369L157.548 224.135" stroke="#0C0D48" stroke-linecap="round" stroke-linejoin="round"/>
<path d="M596.32 269.254L561.487 258.708L563.443 267.078L405.039 304.185L409.423 322.9L567.827 285.793L569.783 294.172L596.32 269.254Z" fill="#0C0D48"/>
<path d="M474.767 260.237L456.088 254.61L457.52 260.709L167.817 328.911L169.415 335.717L459.118 267.515L460.559 273.613L474.767 260.237Z" fill="#0C0D48"/>
<path d="M601.551 148.322C601.551 148.322 595.141 129.345 584.732 130.42C574.324 131.495 574.586 139.769 571.11 141.909C567.635 144.05 564.124 136.562 558.291 138.965C552.458 141.368 552.414 145.378 551.078 148.051C549.742 150.725 544.407 143.246 538.801 144.312C533.194 145.378 533.727 152.324 532.391 153.923C531.055 155.522 527.318 153.119 524.645 153.923C521.973 154.727 519.834 159.532 519.834 159.532H618.099C618.099 159.532 617.033 151.52 612.231 149.117C607.428 146.715 605.559 152.062 601.551 148.322Z" fill="#E1EDFA"/>
<path d="M296.261 26.4124C296.261 26.4124 289.851 7.44404 279.442 8.50997C269.034 9.57591 269.295 17.8762 265.82 19.9994C262.345 22.1225 258.878 14.6609 253.001 17.0637C247.124 19.4664 247.124 23.4768 245.788 26.1503C244.452 28.8239 239.117 21.3711 233.51 22.4108C227.904 23.4505 228.437 30.4228 227.101 32.0217C225.765 33.6206 222.028 31.2179 219.355 32.0217C216.683 32.8255 214.544 37.631 214.544 37.631H312.817C312.817 37.631 311.752 29.6102 306.949 27.2075C302.146 24.8048 300.243 30.1607 296.261 26.4124Z" fill="#E1EDFA"/>
<path d="M164.534 193.546C164.534 193.546 159.941 179.96 152.483 180.72C145.026 181.48 145.218 187.421 142.73 188.95C140.241 190.479 137.761 185.123 133.552 186.844C129.343 188.566 129.343 191.44 128.391 193.354C127.439 195.267 123.606 189.902 119.589 190.671C115.572 191.44 115.956 196.412 115.004 197.556C114.053 198.701 111.372 196.988 109.459 197.556C107.547 198.124 106.019 201.575 106.019 201.575H176.393C176.393 201.575 175.624 195.835 172.184 194.114C168.743 192.393 167.398 196.219 164.534 193.546Z" fill="#E1EDFA"/>
<path d="M531.439 63.9299C531.439 63.9299 526.855 50.3436 519.423 51.0775C511.992 51.8114 512.149 57.7702 509.67 59.3079C507.19 60.8457 504.692 55.4811 500.492 57.2023C496.292 58.9235 496.283 61.7893 495.322 63.7027C494.362 65.6162 490.546 60.2603 486.529 61.0292C482.512 61.798 482.896 66.7695 481.936 67.9141C480.975 69.0586 478.303 67.3374 476.391 67.9141C474.478 68.4907 472.95 71.9332 472.95 71.9332H543.324C543.324 71.9332 542.564 66.1928 539.115 64.4716C535.666 62.7504 534.312 66.6122 531.439 63.9299Z" fill="#E1EDFA"/>
<path d="M364.093 325.722C364.093 325.722 359.5 312.135 352.043 312.896C344.585 313.656 344.777 319.597 342.289 321.126C339.8 322.655 337.32 317.299 333.111 319.02C328.902 320.742 328.902 323.616 327.95 325.53C326.998 327.443 323.165 322.078 319.148 322.847C315.131 323.616 315.515 328.588 314.564 329.732C313.612 330.877 310.931 329.164 309.019 329.732C307.106 330.3 305.578 333.751 305.578 333.751H375.952C375.952 333.751 375.183 328.011 371.743 326.29C368.302 324.568 366.957 328.395 364.093 325.722Z" fill="#E1EDFA"/>
<path d="M499.977 194.638L524.331 203.952L123.125 284.351V318.033L567.774 222.649L589.299 232.662L633.563 196.621L499.977 194.638Z" fill="#0C0D48" stroke="#0C0D48" stroke-linecap="round" stroke-linejoin="round"/>
<path d="M633.563 196.621V193.03L589.299 229.071V232.662L633.563 196.621Z" fill="#0C0D48" stroke="#0C0D48" stroke-linecap="round" stroke-linejoin="round"/>
<path d="M499.977 191.038V194.638L516.891 201.584L524.331 200.352L499.977 191.038Z" fill="#0C0D48" stroke="#0C0D48" stroke-linecap="round" stroke-linejoin="round"/>
<path d="M499.977 191.038L524.331 200.352L127.055 278.716V312.398L567.774 219.058L589.299 229.071L633.563 193.03L499.977 191.038Z" fill="#E71D7C" stroke="#0C0D48" stroke-linecap="round" stroke-linejoin="round"/>
<path d="M389.312 132.054L387.566 191.03C387.566 191.03 383.558 193.895 382.527 197.582C381.497 201.27 377.847 222.527 377.611 223.069C377.375 223.611 374.24 224.816 373.943 226.039C373.77 227.04 373.723 228.059 373.804 229.071C373.804 229.071 368.887 234.427 367.787 240.631C366.687 246.834 370.896 246.109 373.97 244.571C377.043 243.033 380.082 233.658 380.903 232.522C381.724 231.387 383.4 229.587 384.771 227.848C386.142 226.109 387.679 221.496 387.679 221.496C387.679 221.496 405.633 196.097 408.82 190.366C412.007 184.634 415.5 164.093 416.19 162.302C416.88 160.511 420.609 158.868 420.609 158.868C420.609 158.868 447.635 170.401 450.299 171.284C452.962 172.166 480.67 210.199 480.67 210.199C480.67 210.199 480.67 214.201 481.211 215.284C481.752 216.367 485.577 220.212 485.577 220.212C485.577 220.212 484.704 223.707 486.529 224.72C488.354 225.734 494.991 224.432 496.134 224.231C497.278 224.03 502.998 224.379 505.268 223.995C507.539 223.611 511.259 221.95 510.927 221.007C510.595 220.063 501.016 217.713 499.034 216.883C497.308 216.063 495.642 215.123 494.047 214.07C493.701 211.512 493.209 208.977 492.572 206.477C491.934 204.729 488.957 203.926 488.843 202.283C488.729 200.64 471.239 164.827 469.772 163.079C468.305 161.332 434.912 134.194 434.912 134.194L429.856 124.216C429.856 124.216 424.355 132.01 409.772 133.364C395.189 134.719 389.312 132.054 389.312 132.054Z" fill="#0C0D48" stroke="#0C0D48" stroke-linecap="round" stroke-linejoin="round"/>
<path d="M393.853 78.355C393.853 78.355 378.729 94.6324 379.576 97.0526C380.423 99.4728 388.762 127.213 388.762 127.213C388.762 127.213 386.972 133.329 390.701 136.824C394.429 140.319 408.017 141.525 418.19 137.777C428.363 134.028 430.249 126.864 430.415 122.714C430.581 118.563 428.669 83.5886 428.669 83.5886L475.998 46.0187L473.823 39.9639L429.21 57.0014C429.21 57.0014 424.084 56.1801 415.614 61.4835C407.144 66.787 406.471 67.9053 406.471 67.9053L393.853 78.355Z" fill="white" stroke="#0C0D48" stroke-linecap="round" stroke-linejoin="round"/>
<path d="M428.616 83.606L430.022 63.7114" stroke="#0C0D48" stroke-linecap="round" stroke-linejoin="round"/>
<path d="M434.022 74.0825L442.151 57.4032" stroke="#0C0D48" stroke-linecap="round" stroke-linejoin="round"/>
<path d="M430.808 80.6616L432.843 76.494" stroke="#0C0D48" stroke-linecap="round" stroke-linejoin="round"/>
<path d="M436.938 71.6536L445.068 60.103" stroke="#0C0D48" stroke-linecap="round" stroke-linejoin="round"/>
<path d="M468.977 41.755L470.575 49.4961" stroke="#0C0D48" stroke-linecap="round" stroke-linejoin="round"/>
<path d="M404.515 90.5171L408.593 93.8198C408.593 93.8198 412.287 97.8564 412.75 97.6117C413.213 97.3671 414.496 94.9906 415.265 92.8325C416.033 90.6744 415.046 87.695 415.046 87.695L414.872 81.8848L412.523 81.7887L412.566 89.792L411.204 91.5394L405.746 88.9619L404.515 90.5171Z" fill="#E71D7C" stroke="#0C0D48" stroke-linecap="round" stroke-linejoin="round"/>
<path d="M394.936 79.0365C394.936 79.0365 395.093 84.375 396.935 88.1057C398.778 91.8365 401.703 96.6944 402.917 95.4974C404.131 94.3004 408.008 85.1001 409.03 84.5934C410.051 84.0866 419.701 86.2534 420.993 85.4671C422.285 84.6807 417.919 74.6155 415.972 72.2128C410.898 65.957 408.689 65.4852 407.772 65.8609C406.855 66.2366 395.268 72.0905 394.936 79.0365Z" fill="white" stroke="#0C0D48" stroke-linecap="round" stroke-linejoin="round"/>
<path d="M395.617 77.9356C397.774 80.3335 400.11 82.5649 402.603 84.6108C406.969 88.2454 411.029 92.9024 411.239 91.5481C411.449 90.1938 410.794 69.9585 410.61 68.8926C410.509 68.2766 410.296 67.6844 409.982 67.1452L405.781 61.1952L405.292 55.8043C405.292 55.8043 404.026 54.817 402.088 56.2499C400.149 57.6828 402.751 66.42 401.302 70.0634C399.852 73.7068 395.617 77.9356 395.617 77.9356Z" fill="white" stroke="#0C0D48" stroke-linecap="round" stroke-linejoin="round"/>
<path d="M383.689 49.3301C383.689 49.3301 380.781 53.987 381.069 55.9004C381.357 57.8139 382.239 62.0164 381.881 63.7639C381.523 65.5113 377.812 68.7353 378.851 69.6527C379.89 70.5701 383.758 70.2294 383.758 70.2294L384.483 72.5098C384.483 72.5098 386.832 69.0149 390.771 69.6702C394.709 70.3255 399.826 68.8751 400.594 66.9966C401.363 65.1181 400.594 59.7797 399.424 57.6741C398.254 55.5684 395.931 54.1093 396.219 51.7677C396.508 49.4262 398.446 47.5564 395.565 46.0886C392.683 44.6207 383.689 49.3301 383.689 49.3301Z" fill="white" stroke="#0C0D48" stroke-linecap="round" stroke-linejoin="round"/>
<path d="M381.68 44.6644C381.68 44.6644 375.629 43.8518 375.978 45.8701C376.327 47.8884 377.724 49.6184 385.234 50.0727C392.744 50.527 394.91 49.0592 394.91 49.0592C394.91 49.0592 389.784 51.6803 391.932 53.4278C393.548 54.6346 395.269 55.6932 397.075 56.5906C397.075 56.5906 400.114 64.0522 400.035 65.4938C399.957 66.9354 397.529 68.115 395.39 68.3683C393.25 68.6217 390.15 67.8528 387.531 69.0761C384.911 70.2993 384.169 72.3874 384.99 73.3398C385.81 74.2921 388.622 83.0031 390.377 83.0293C392.133 83.0555 402.882 75.6115 404.279 72.3088C405.677 69.0062 401.843 63.3095 402.969 61.5621C404.096 59.8146 410.829 59.6574 411.868 53.5676C412.907 47.4778 407.405 40.3307 402.655 38.1989C397.905 36.067 391.303 37.7533 389.792 38.4523C389.061 38.7638 388.36 39.1411 387.697 39.5793C387.697 39.5793 382.108 38.2426 380.239 40.1036C378.371 41.9646 381.68 44.6644 381.68 44.6644Z" fill="#0C0D48" stroke="#0C0D48" stroke-linecap="round" stroke-linejoin="round"/>
<path d="M387.714 61.9028C387.88 62.8377 387.627 63.6503 387.155 63.7464C386.684 63.8425 386.177 63.1348 386.011 62.1912C385.845 61.2475 386.099 60.4437 386.57 60.3476C387.042 60.2515 387.566 60.9592 387.714 61.9028Z" fill="#0C0D48"/>
<path d="M384.509 58.5128C384.509 58.5128 385.383 56.8266 387.819 58.0498" stroke="#0C0D48" stroke-linecap="round" stroke-linejoin="round"/>
<path d="M388.439 73.5932C388.439 73.5932 390.421 73.6893 391.783 70.8323" stroke="white" stroke-linecap="round" stroke-linejoin="round"/>
<path d="M402.943 63.3095C402.943 63.3095 400.961 58.1808 403.476 56.8702C405.991 55.5597 407.764 57.6653 407.379 61.1252C406.995 64.5852 405.877 65.7559 405.205 65.6598" fill="white"/>
<path d="M402.943 63.3095C402.943 63.3095 400.961 58.1808 403.476 56.8702C405.991 55.5597 407.764 57.6653 407.379 61.1252C406.995 64.5852 405.877 65.7559 405.205 65.6598" stroke="#0C0D48" stroke-linecap="round" stroke-linejoin="round"/>
<path d="M413.143 111.041C413.143 111.041 419.561 100.399 420.181 99.8659C420.801 99.3329 431.184 100.958 431.184 100.958C431.184 100.958 432.153 101.64 431.638 103.579C431.123 105.519 431.419 109.695 430.503 110.184C428.901 110.738 427.271 111.207 425.621 111.591L425.289 110.49C425.289 110.49 423.045 113.155 422.242 113.435C421.438 113.714 418.4 114.239 418.4 114.239L414.959 117.393L413.143 111.041Z" fill="white" stroke="#0C0D48" stroke-linecap="round" stroke-linejoin="round"/>
<path d="M385.383 88.6473C385.383 88.6473 378.397 95.2614 377.62 98.101C376.842 100.941 376.633 138.563 377.908 141.044C379.183 143.526 383.671 139.769 384.02 139.559C384.37 139.349 414.924 117.419 414.924 117.419L413.108 111.041L392.351 119.227L393.617 102.627" fill="white"/>
<path d="M385.383 88.6473C385.383 88.6473 378.397 95.2614 377.62 98.101C376.842 100.941 376.633 138.563 377.908 141.044C379.183 143.526 383.671 139.769 384.02 139.559C384.37 139.349 414.924 117.419 414.924 117.419L413.108 111.041L392.351 119.227L393.617 102.627" stroke="#0C0D48" stroke-linecap="round" stroke-linejoin="round"/>
<path d="M381.523 128.961C381.313 130.315 381.226 131.363 381.226 131.363" stroke="#0C0D48" stroke-linecap="round" stroke-linejoin="round"/>
<path d="M392.351 119.228C392.351 119.228 384.745 122.102 383.278 123.5C382.566 124.481 382.104 125.62 381.933 126.82" stroke="#0C0D48" stroke-linecap="round" stroke-linejoin="round"/>
<path d="M408.864 112.64L410.863 120.119" stroke="#0C0D48" stroke-linecap="round" stroke-linejoin="round"/>
<path d="M492.353 36.5302C492.353 36.5302 495.226 37.0719 494.973 38.2776C494.72 39.4833 491.821 44.2975 491.821 44.2975C491.821 44.2975 485.472 42.6811 485.708 40.9424C485.841 40.1152 486.206 39.3425 486.759 38.7134C487.312 38.0843 488.031 37.6243 488.834 37.3864C490.415 36.9146 492.353 36.5302 492.353 36.5302Z" fill="white" stroke="#0C0D48" stroke-linecap="round" stroke-linejoin="round"/>
<path d="M473.771 39.9901C473.771 39.9901 480.993 35.7788 484.896 35.5166C488.799 35.2545 498.483 32.0218 499.819 31.681C501.156 31.3403 501.461 31.9082 500.413 33.3323C499.365 34.7565 496.798 35.4467 495.558 35.9535C494.318 36.4603 488.764 37.832 488.45 38.7494C488.278 39.2451 488.251 39.7795 488.371 40.2902C488.492 40.8008 488.756 41.2665 489.131 41.6327C489.943 42.3578 493.628 43.3277 493.41 44.5596C493.192 45.7916 492.772 46.0886 492.056 46.0799C491.34 46.0711 488.782 45.0139 487.559 44.7955C486.337 44.5771 483.342 45.2586 482.014 44.9353C481.072 44.6886 480.149 44.3702 479.255 43.983L475.945 46.0537L473.771 39.9901Z" fill="white" stroke="#0C0D48" stroke-linecap="round" stroke-linejoin="round"/>
<path d="M412.75 97.6117C412.75 97.6117 408.576 101.753 400.664 100.119C392.753 98.4855 382.754 92.5005 377.602 91.8015C372.45 91.1025 365.997 94.3091 360.635 94.7547C355.274 95.2003 352.479 93.7412 352.479 93.7412L344.079 99.0621L353.737 104.933C353.737 104.933 355.754 106.139 363.665 104.811C371.577 103.483 380.073 98.8961 383.811 100.154C387.548 101.412 398.717 105.886 404.393 104.523C410.069 103.16 412.75 97.6117 412.75 97.6117Z" fill="#E71D7C" stroke="#0C0D48" stroke-linecap="round" stroke-linejoin="round"/>
<path d="M338.665 147.527C338.665 147.527 342.376 149.161 341.957 149.659C341.711 149.874 341.412 150.019 341.09 150.077C340.769 150.136 340.438 150.106 340.132 149.991C339.756 149.808 335.766 147.422 335.766 147.422L338.665 147.527Z" fill="white" stroke="#0C0D48" stroke-linecap="round" stroke-linejoin="round"/>
<path d="M336.613 148.331C336.613 148.331 339.128 150.865 338.63 150.952C338.071 151.101 337.476 151.025 336.971 150.743C336.263 150.109 335.595 149.432 334.971 148.715L336.613 148.331Z" fill="white" stroke="#0C0D48" stroke-linecap="round" stroke-linejoin="round"/>
<path d="M335.172 149.808C335.172 149.808 336.735 150.847 336.298 151.267C335.862 151.686 334.552 151.267 334.272 150.952C333.942 150.7 333.589 150.48 333.216 150.297L335.172 149.808Z" fill="white" stroke="#0C0D48" stroke-linecap="round" stroke-linejoin="round"/>
<path d="M303.107 130.988L325.671 148.873C325.671 148.873 324.388 151.669 323.244 152.368L322.091 153.093C322.091 153.093 310.346 150.375 305.674 148.541C301.002 146.706 296.339 144.356 296.339 144.356C296.339 144.356 294.148 141.429 294.916 139.987C295.685 138.545 303.107 130.988 303.107 130.988Z" fill="white" stroke="#0C0D48" stroke-linecap="round" stroke-linejoin="round"/>
<path d="M325.671 148.873C325.671 148.873 331.059 145.465 332.544 145.194C334.028 144.923 342.848 147.02 343.206 147.597C343.564 148.174 343.136 148.637 342.525 148.75C341.913 148.864 335.757 147.422 335.757 147.422C335.757 147.422 332.945 151.642 329.374 153.066C327.017 153.885 324.457 153.9 322.091 153.11C322.091 153.11 325.243 150.742 325.671 148.873Z" fill="white" stroke="#0C0D48" stroke-linecap="round" stroke-linejoin="round"/>
<path d="M329.225 150.148C330.524 149.653 331.787 149.069 333.006 148.401C334.419 147.615 335.747 146.687 336.971 145.631C337.844 144.705 338.516 144.967 338.717 145.954C338.768 146.415 338.676 146.879 338.454 147.285C338.232 147.691 337.891 148.02 337.477 148.226C336.674 148.759 335.198 149.799 335.198 149.799C335.198 149.799 333.356 152.306 331.469 153.163C329.583 154.019 326.178 153.617 325.697 153.067" fill="white"/>
<path d="M329.225 150.148C330.524 149.653 331.787 149.069 333.006 148.401C334.419 147.615 335.747 146.687 336.971 145.631C337.844 144.705 338.516 144.967 338.717 145.954C338.768 146.415 338.676 146.879 338.454 147.285C338.232 147.691 337.891 148.02 337.477 148.226C336.674 148.759 335.198 149.799 335.198 149.799C335.198 149.799 333.356 152.306 331.469 153.163C329.583 154.019 326.178 153.617 325.697 153.067" stroke="#0C0D48" stroke-linecap="round" stroke-linejoin="round"/>
<path d="M303.945 163.839C303.945 163.839 330.858 186.242 331.766 187.43C332.675 188.618 334.037 236.655 334.037 236.655L336.36 238.123C336.48 238.736 336.538 239.359 336.534 239.984C336.456 240.508 342.167 243.592 345.782 245.515C349.397 247.437 349.947 245.785 349.388 247.428C348.829 249.071 342.402 249.735 340.7 249.7C338.997 249.665 335.504 249.446 334.011 249.7C332.517 249.953 328.029 250.792 327.182 249.918C326.335 249.044 325.82 242.43 325.82 242.43C325.29 241.645 324.848 240.804 324.501 239.923C324.313 238.75 324.213 237.564 324.204 236.375C324.274 235.843 315.76 195.652 315.76 195.652L281.381 181.349L277.984 182.485C277.984 182.485 268.309 211.387 267.933 213.17C267.558 214.952 240.138 251.5 240.138 251.5C240.138 251.5 236.418 257.179 236.104 258.262C235.79 259.346 232.978 260.385 232.978 260.385C232.978 260.385 229.101 271.447 228.568 273.255C228.035 275.064 226.202 276.269 224.071 276.829C221.94 277.388 219.705 270.582 220.744 267.987C221.783 265.392 227.442 257.659 227.442 257.659C227.501 256.643 227.665 255.636 227.931 254.654C228.645 253.419 229.466 252.25 230.384 251.159L247.753 207.962L252.215 167.282C252.215 167.282 283.878 175.224 303.945 163.839Z" fill="#0C0D48" stroke="#0C0D48" stroke-linecap="round" stroke-linejoin="round"/>
<path d="M282.036 101.578C282.036 101.578 262.589 107.808 261.078 109.442C259.568 111.076 236.279 136.859 230.646 145.937C225.014 155.015 219.294 170.008 219.294 170.008L225.774 171.895C225.774 171.895 236.497 157.584 239.676 154.7C242.854 151.817 264.187 130.664 264.187 130.664L265.934 141.603L246.853 165.29C246.853 165.29 250.416 172.192 261.349 176.08C272.282 179.968 282.892 179.951 292.357 174.394C297.404 171.514 302.242 168.282 306.836 164.722C306.836 164.722 301.195 154.106 299.483 148.916C297.771 143.726 296.662 140.476 296.662 140.476C296.662 140.476 304.731 133.487 304.356 130.761C303.98 128.035 303.709 122.312 303.771 121.919C303.832 121.525 307.613 112.133 306.67 108.341C305.727 104.549 303.736 102.985 300.854 101.753C298.738 100.954 296.496 100.54 294.235 100.53L282.036 101.578Z" fill="white" stroke="#0C0D48" stroke-linecap="round" stroke-linejoin="round"/>
<path d="M289.188 141.49L270.247 146.321" stroke="#0C0D48" stroke-linecap="round" stroke-linejoin="round"/>
<path d="M294.907 140.031L292.331 140.686" stroke="#0C0D48" stroke-linecap="round" stroke-linejoin="round"/>
<path d="M281.931 145.85L265.235 150.148" stroke="#0C0D48" stroke-linecap="round" stroke-linejoin="round"/>
<path d="M284.228 98.8786C282.921 99.5664 281.74 100.47 280.735 101.552C279.25 103.23 276.543 118.563 277.687 122.058C278.831 125.553 279.704 125.405 281.372 124.679C283.04 123.954 290.279 118.834 290.279 118.834C290.279 118.834 299.334 122.941 301.518 122.285C303.701 121.63 301.465 112.194 299.562 106.655C297.658 101.115 297.815 100.46 293.868 97.8476C289.921 95.2352 284.228 98.8786 284.228 98.8786Z" fill="#E71D7C" stroke="#0C0D48" stroke-linecap="round" stroke-linejoin="round"/>
<path d="M297.134 66.5947C297.134 66.5947 301.133 69.5741 302.845 73.3573C304.556 77.1405 304.591 78.2676 306.94 79.0015C309.289 79.7354 311.158 79.0015 311.132 80.2858C311.106 81.5702 308.032 84.3049 308.032 84.3049C308.032 84.3049 309.167 92.6664 309.272 93.9158C309.377 95.1652 300.278 96.4496 300.278 96.4496C300.278 96.4496 293.702 112.998 292.96 117.358C292.506 119.981 291.367 122.437 289.659 124.478L283.232 101.858L283.983 92.6402C283.315 91.2979 282.762 89.9006 282.333 88.4638C281.46 85.6854 285.363 81.2644 287.275 79.1238C289.882 75.8326 292.103 72.2532 293.894 68.4557C295.257 65.3977 297.134 66.5947 297.134 66.5947Z" fill="white" stroke="#0C0D48" stroke-linecap="round" stroke-linejoin="round"/>
<path d="M300.269 96.4584L296.051 96.904L298.243 100.626L300.269 96.4584Z" fill="#0C0D48" stroke="#0C0D48" stroke-linecap="round" stroke-linejoin="round"/>
<path d="M303.203 78.1627C303.474 79.0801 303.317 79.9102 302.854 80.0587C302.391 80.2072 301.815 79.5519 301.553 78.6433C301.291 77.7346 301.448 76.8958 301.902 76.7386C302.356 76.5813 302.941 77.289 303.203 78.1627Z" fill="#0C0D48"/>
<path d="M299.963 75.795C299.963 75.795 300.836 74.231 302.059 74.6504" stroke="#0C0D48" stroke-linecap="round" stroke-linejoin="round"/>
<path d="M302.793 85.0039C303.122 85.5897 303.619 86.0635 304.22 86.364C304.82 86.6646 305.497 86.7782 306.163 86.6902" stroke="#0C0D48" stroke-linecap="round" stroke-linejoin="round"/>
<path d="M290.637 86.201C290.637 86.201 293.798 84.6021 293.955 82.6537C294.113 80.7053 290.305 78.0754 292.209 75.9348C294.113 73.7942 298.103 71.7934 297.99 65.5463C297.876 59.2992 289.476 58.1459 285.249 58.7837C281.023 59.4215 272.02 63.3707 269.531 70.0896C267.042 76.8085 267.942 82.4003 270.317 86.3233C272.425 89.615 275.739 91.9487 279.547 92.8238C282.167 93.3567 284.787 94.8158 286.315 94.1431C287.843 93.4703 287.852 90.6482 287.852 89.259C287.852 87.8698 290.637 86.201 290.637 86.201Z" fill="#0C0D48" stroke="#0C0D48" stroke-linecap="round" stroke-linejoin="round"/>
<path d="M292.777 87.5989C292.777 87.5989 288.192 83.44 286.716 84.4797C286.254 84.8155 285.874 85.2525 285.606 85.7572C285.338 86.262 285.189 86.8213 285.17 87.3925C285.15 87.9638 285.261 88.5319 285.495 89.0537C285.728 89.5755 286.077 90.0372 286.515 90.4035C286.924 90.7851 287.407 91.0778 287.934 91.2632C288.461 91.4486 289.021 91.5227 289.578 91.4808C290.135 91.439 290.677 91.282 291.171 91.0199C291.664 90.7578 292.098 90.3962 292.445 89.9579" fill="white"/>
<path d="M292.777 87.5989C292.777 87.5989 288.192 83.44 286.716 84.4797C286.254 84.8155 285.874 85.2525 285.606 85.7572C285.338 86.262 285.189 86.8213 285.17 87.3925C285.15 87.9638 285.261 88.5319 285.495 89.0537C285.728 89.5755 286.077 90.0372 286.515 90.4035C286.924 90.7851 287.407 91.0778 287.934 91.2632C288.461 91.4486 289.021 91.5227 289.578 91.4808C290.135 91.439 290.677 91.282 291.171 91.0199C291.664 90.7578 292.098 90.3962 292.445 89.9579" stroke="#0C0D48" stroke-linecap="round" stroke-linejoin="round"/>
<path d="M268.885 71.4876C268.885 71.4876 265.986 64.725 256.922 65.4764C247.858 66.2278 246.749 73.4709 247.683 76.5027C248.617 79.5345 250.521 83.6584 248.417 84.0429C246.312 84.4273 241.859 83.8332 238.278 88.062C234.698 92.2908 238.689 98.7301 242.845 99.7698C247.002 100.81 246.207 100.687 246.207 100.687C246.207 100.687 240.968 100.626 241.963 104.785C242.959 108.944 251.682 109.031 254.992 107.528C258.301 106.026 254.363 101.246 254.363 101.246C254.363 101.246 260.764 100.591 262.921 98.4068C265.078 96.2225 262.432 95.043 265.235 94.2828C268.038 93.5227 270.928 94.6498 271.548 91.7228C272.168 88.7959 270.78 90.3249 270.308 86.3233C269.837 82.3216 266.842 81.3256 268.885 71.4876Z" fill="#0C0D48" stroke="#0C0D48" stroke-linecap="round" stroke-linejoin="round"/>
<path d="M264.187 130.664L271.365 125.134" stroke="#0C0D48" stroke-linecap="round" stroke-linejoin="round"/>
<path d="M225.817 171.939C225.817 171.939 225.651 176.919 225.817 177.985C226.226 179.617 226.839 181.19 227.642 182.668C228.358 183.883 230.122 185.516 229.389 186.259C228.655 187.002 227.267 186.032 226.769 185.385C226.168 184.415 225.618 183.415 225.119 182.389L224.49 193.022L223.25 193.616C222.881 193.208 222.659 192.688 222.621 192.139C222.621 191.266 221.87 184.695 221.87 184.695C221.87 184.695 219.626 194.524 219.338 194.944C219.05 195.363 217.635 195.005 217.644 194.393C217.653 193.782 218.439 185.316 218.439 185.316C218.439 185.316 215.897 193.494 215.723 193.887C215.548 194.28 214.387 194.621 214.046 194.07C213.706 193.52 214.387 191.93 214.387 191.93L216.247 185.35L212.457 191.423C212.457 191.423 211.392 191.615 211.584 190.601C211.776 189.588 214.78 183.297 214.78 183.297C214.78 183.297 214.841 179.61 215.19 178.815C215.539 178.02 219.286 170.078 219.286 170.078L225.817 171.939Z" fill="white" stroke="#0C0D48" stroke-linecap="round" stroke-linejoin="round"/>
</g>
<defs>
<clipPath id="clip0_3980_519296">
<rect width="634" height="344" fill="white"/>
</clipPath>
</defs>
</svg>
