
<svg width="18" height="18" viewBox="0 0 18 18" fill="none" xmlns="http://www.w3.org/2000/svg">
<path d="M6.75 16.5H3.75C2.475 16.5 1.5 15.525 1.5 14.25V3.75C1.5 2.475 2.475 1.5 3.75 1.5H6.75C7.2 1.5 7.5 1.8 7.5 2.25C7.5 2.7 7.2 3 6.75 3H3.75C3.3 3 3 3.3 3 3.75V14.25C3 14.7 3.3 15 3.75 15H6.75C7.2 15 7.5 15.3 7.5 15.75C7.5 16.2 7.2 16.5 6.75 16.5ZM12 13.5C11.775 13.5 11.625 13.425 11.475 13.275C11.175 12.975 11.175 12.525 11.475 12.225L14.7 9L11.475 5.775C11.175 5.475 11.175 5.025 11.475 4.725C11.775 4.425 12.225 4.425 12.525 4.725L16.275 8.475C16.575 8.775 16.575 9.225 16.275 9.525L12.525 13.275C12.375 13.425 12.225 13.5 12 13.5Z" fill="#DC3545"/>
<path d="M15.75 9.75H6.75C6.3 9.75 6 9.45 6 9C6 8.55 6.3 8.25 6.75 8.25H15.75C16.2 8.25 16.5 8.55 16.5 9C16.5 9.45 16.2 9.75 15.75 9.75Z" fill="#DC3545"/>
</svg>
