<svg width="179" height="57" viewBox="0 0 179 57" fill="none" xmlns="http://www.w3.org/2000/svg">
<path d="M31.1521 21.3557L52.8607 12.3837C53.4567 13.8581 53.7704 15.3639 53.7704 16.8383C53.8018 22.5164 49.6922 27.724 43.669 28.6024L41.2535 28.9474H41.2221M21.1134 28.9788C20.5487 30.2964 20.2664 31.7395 20.2664 33.2452C20.2978 37.7626 23.0584 41.6526 27.0111 43.2839C32.6265 45.6053 39.1202 42.9075 41.3476 37.198C43.5435 31.614 40.7515 25.3084 35.1989 23.0184L9.47483 12.3523C6.52598 19.4735 11.0434 27.473 18.6665 28.6024L27.7326 29.9513" stroke="url(#paint0_linear_2410_498452)" stroke-width="5.74739" stroke-miterlimit="10" stroke-linecap="round" stroke-linejoin="round"/>
<path d="M69.3588 39.4648C68.7 39.4648 68.2295 39.3707 67.9158 39.2138C67.602 39.0256 67.4766 38.7746 67.4766 38.4609V12.0467C67.4766 11.1369 67.9157 10.6978 68.8255 10.6978H81.5621C82.1267 10.6978 82.4091 11.1997 82.4091 12.1722V12.9878C82.4091 13.9603 82.1267 14.4623 81.5621 14.4623H71.9312V23.8735H80.9974C81.5934 23.8735 81.9071 24.3754 81.9071 25.3479V26.1636C81.9071 27.1361 81.5934 27.638 80.9974 27.638H71.9312V38.3982C71.9312 38.7119 71.7744 38.9942 71.492 39.1511C71.2097 39.3393 70.7078 39.402 69.9862 39.402H69.3588V39.4648Z" fill="#343A40"/>
<path d="M92.856 39.653C91.6953 39.653 90.7228 39.4334 89.9385 38.9943C89.1856 38.5551 88.5896 37.9276 88.2131 37.0806C87.8367 36.2336 87.6484 35.2298 87.6484 33.9749V9.59981C87.6484 9.25473 87.7739 8.9724 88.0563 8.81554C88.3386 8.62732 88.8092 8.56458 89.4993 8.56458H90.064C90.7542 8.56458 91.2247 8.65869 91.5071 8.81554C91.7894 9.00377 91.9149 9.25473 91.9149 9.59981V33.9436C91.9149 34.7592 92.0404 35.3239 92.2913 35.6376C92.5423 35.9513 93.0128 36.1081 93.6716 36.1081C94.2363 36.1081 94.6755 36.0454 94.9265 35.8885C95.2088 35.7631 95.4284 35.669 95.6166 35.669C95.7421 35.669 95.8676 35.7631 95.9931 35.9827C96.0872 36.2023 96.1813 36.4219 96.244 36.7356C96.3068 37.0179 96.3382 37.3002 96.3695 37.5512C96.3695 37.8022 96.4009 37.9904 96.4009 38.1159C96.4009 38.4296 96.2127 38.6805 95.8048 38.9001C95.397 39.1197 94.9265 39.308 94.3932 39.4648C93.8599 39.5903 93.3266 39.653 92.856 39.653Z" fill="#343A40"/>
<path d="M102.549 47.8722C102.016 47.8722 101.577 47.8095 101.294 47.684C101.012 47.5585 100.855 47.4016 100.855 47.182C100.855 47.0879 100.855 47.0252 100.887 46.9311C100.918 46.837 100.981 46.7115 101.043 46.4919L104.839 37.0179L104.62 40.2177L97.0279 19.2307C96.9966 19.1365 96.9652 19.0424 96.9338 18.9483C96.9025 18.8542 96.8711 18.7287 96.8711 18.6346C96.8711 18.415 97.0279 18.2268 97.373 18.1013C97.6867 17.9758 98.1887 17.8817 98.8475 17.8817H99.4121C99.8827 17.8817 100.259 17.9445 100.604 18.0386C100.918 18.1327 101.138 18.3209 101.232 18.5719L106.157 33.6926H106.314L111.364 18.5719C111.459 18.3209 111.678 18.1641 112.023 18.0386C112.337 17.9445 112.776 17.8817 113.247 17.8817H113.623C114.282 17.8817 114.752 17.9445 115.003 18.1013C115.286 18.2268 115.411 18.415 115.411 18.6346C115.411 18.7287 115.411 18.8542 115.38 18.9483C115.38 19.0424 115.317 19.1679 115.286 19.2934L104.996 47.0252C104.902 47.3389 104.651 47.5899 104.306 47.7153C103.961 47.8408 103.522 47.9036 102.988 47.9036H102.549V47.8722Z" fill="#343A40"/>
<path d="M124.008 39.7472C123.129 39.7472 122.314 39.653 121.498 39.4962C120.714 39.3393 119.992 39.1197 119.396 38.8374C118.769 38.5551 118.298 38.2727 117.953 37.9904C117.608 37.6767 117.42 37.3943 117.42 37.0806C117.42 36.861 117.514 36.5787 117.702 36.2023C117.89 35.8258 118.11 35.4807 118.361 35.167C118.612 34.8533 118.832 34.6965 119.051 34.6965C119.177 34.6965 119.459 34.8219 119.835 35.0729C120.212 35.3239 120.745 35.5748 121.404 35.8258C122.063 36.0768 122.816 36.2023 123.694 36.2023C124.855 36.2023 125.765 35.9827 126.361 35.5121C126.957 35.0729 127.27 34.4141 127.27 33.5357C127.27 32.9083 127.114 32.375 126.768 31.9672C126.455 31.5594 125.984 31.2143 125.388 30.932C124.792 30.6496 124.133 30.3987 123.412 30.1477C122.753 29.8967 122.094 29.6144 121.435 29.332C120.777 29.0183 120.181 28.6419 119.647 28.1713C119.114 27.7008 118.706 27.1047 118.392 26.4146C118.079 25.693 117.922 24.8147 117.922 23.748C117.922 22.5246 118.204 21.4266 118.8 20.5169C119.396 19.5757 120.212 18.8856 121.247 18.3523C122.314 17.8503 123.506 17.5994 124.886 17.5994C125.576 17.5994 126.235 17.6307 126.894 17.7248C127.553 17.819 128.149 17.9444 128.682 18.1013C129.215 18.2895 129.686 18.4777 130 18.7287C130.345 18.9797 130.502 19.2306 130.502 19.513C130.502 19.764 130.407 20.0777 130.251 20.4855C130.094 20.8933 129.906 21.2384 129.686 21.5521C129.466 21.8658 129.247 22.0226 129.027 22.0226C128.902 22.0226 128.525 21.8658 127.898 21.5207C127.27 21.207 126.423 21.0188 125.325 21.0188C124.384 21.0188 123.631 21.207 123.004 21.6148C122.377 22.0226 122.094 22.6187 122.094 23.403C122.094 23.9049 122.188 24.3127 122.408 24.6578C122.627 25.0029 122.973 25.2852 123.474 25.5675C123.976 25.8185 124.604 26.1009 125.357 26.3518C126.141 26.6342 126.925 26.9479 127.647 27.2929C128.4 27.638 129.027 28.0772 129.623 28.5791C130.188 29.0811 130.627 29.7085 130.941 30.43C131.254 31.1829 131.411 32.0299 131.411 33.0652C131.411 34.3514 131.098 35.4807 130.47 36.4532C129.843 37.4257 128.964 38.21 127.835 38.7747C126.8 39.4648 125.482 39.7472 124.008 39.7472Z" fill="#343A40"/>
<path d="M144.994 39.653C141.7 39.653 139.19 38.7747 137.496 37.0179C135.802 35.2611 134.955 32.5005 134.955 28.736C134.955 26.2891 135.332 24.2186 136.116 22.5873C136.9 20.956 137.998 19.7012 139.441 18.8856C140.884 18.0386 142.61 17.6307 144.649 17.6307C146.594 17.6307 148.194 18.0699 149.448 18.9169C150.703 19.764 151.644 20.9874 152.24 22.5873C152.836 24.1872 153.15 26.0381 153.15 28.2027C153.15 28.485 153.056 28.7674 152.899 29.0811C152.742 29.3948 152.523 29.6771 152.272 29.8653C152.021 30.0849 151.738 30.1791 151.487 30.1791H139.347C139.41 32.2495 139.912 33.7553 140.884 34.6965C141.857 35.6376 143.268 36.1081 145.119 36.1081C146.311 36.1081 147.347 35.9513 148.225 35.6689C149.072 35.3552 149.793 35.0729 150.327 34.8219C150.86 34.5396 151.205 34.4141 151.362 34.4141C151.582 34.4141 151.77 34.5396 151.989 34.8219C152.178 35.1043 152.334 35.418 152.46 35.7944C152.585 36.1709 152.648 36.4532 152.648 36.6728C152.648 36.9865 152.429 37.3002 151.989 37.6139C151.55 37.9276 150.986 38.2727 150.233 38.5864C149.511 38.9001 148.695 39.1511 147.786 39.3393C146.876 39.5589 145.966 39.653 144.994 39.653ZM139.316 26.9479H148.978C148.978 25.0029 148.57 23.5598 147.786 22.5873C147.001 21.6148 145.841 21.1443 144.335 21.1443C143.331 21.1443 142.453 21.3639 141.7 21.8031C140.947 22.2422 140.382 22.8697 139.943 23.7167C139.567 24.5637 139.316 25.6617 139.316 26.9479Z" fill="#343A40"/>
<path d="M163.033 39.7472C162.155 39.7472 161.339 39.653 160.524 39.4962C159.739 39.3393 159.018 39.1197 158.422 38.8374C157.794 38.5551 157.324 38.2727 156.979 37.9904C156.634 37.6767 156.445 37.3943 156.445 37.0806C156.445 36.861 156.539 36.5787 156.728 36.2023C156.916 35.8258 157.135 35.4807 157.386 35.167C157.637 34.8533 157.857 34.6965 158.077 34.6965C158.202 34.6965 158.484 34.8219 158.861 35.0729C159.237 35.3239 159.771 35.5748 160.429 35.8258C161.088 36.0768 161.841 36.2023 162.719 36.2023C163.88 36.2023 164.79 35.9827 165.386 35.5121C165.982 35.0729 166.296 34.4141 166.296 33.5357C166.296 32.9083 166.139 32.375 165.794 31.9672C165.48 31.5594 165.01 31.2143 164.413 30.932C163.817 30.6496 163.159 30.3987 162.437 30.1477C161.778 29.8967 161.12 29.6144 160.461 29.332C159.802 29.0183 159.206 28.6419 158.673 28.1713C158.139 27.7008 157.732 27.1047 157.418 26.4146C157.104 25.693 156.947 24.8147 156.947 23.748C156.947 22.5246 157.23 21.4266 157.826 20.5169C158.422 19.5757 159.237 18.8856 160.273 18.3523C161.339 17.8503 162.531 17.5994 163.912 17.5994C164.602 17.5994 165.261 17.6307 165.919 17.7248C166.578 17.819 167.174 17.9444 167.707 18.1013C168.241 18.2895 168.711 18.4777 169.025 18.7287C169.37 18.9797 169.527 19.2306 169.527 19.513C169.527 19.764 169.433 20.0777 169.276 20.4855C169.119 20.8933 168.931 21.2384 168.711 21.5521C168.492 21.8658 168.272 22.0226 168.053 22.0226C167.927 22.0226 167.551 21.8658 166.923 21.5207C166.296 21.207 165.449 21.0188 164.351 21.0188C163.41 21.0188 162.657 21.207 162.029 21.6148C161.402 22.0226 161.12 22.6187 161.12 23.403C161.12 23.9049 161.214 24.3127 161.433 24.6578C161.653 25.0029 161.998 25.2852 162.5 25.5675C163.002 25.8185 163.629 26.1009 164.382 26.3518C165.166 26.6342 165.951 26.9479 166.672 27.2929C167.425 27.638 168.053 28.0772 168.649 28.5791C169.213 29.0811 169.652 29.7085 169.966 30.43C170.28 31.1829 170.437 32.0299 170.437 33.0652C170.437 34.3514 170.123 35.4807 169.496 36.4532C168.868 37.4257 167.99 38.21 166.86 38.7747C165.794 39.4648 164.508 39.7472 163.033 39.7472Z" fill="#343A40"/>
<defs>
<linearGradient id="paint0_linear_2410_498452" x1="9" y1="12" x2="54" y2="55.5" gradientUnits="userSpaceOnUse">
<stop stop-color="#E71D7C"/>
<stop offset="1" stop-color="#88337E"/>
</linearGradient>
</defs>
</svg>
