<svg width="401" height="127" viewBox="0 0 401 127" fill="none" xmlns="http://www.w3.org/2000/svg">
<path d="M69.7881 47.8416L118.42 27.7422C119.756 31.0452 120.458 34.4185 120.458 37.7216C120.529 50.4419 111.322 62.108 97.829 64.0758L92.4176 64.8488H92.3473M47.2992 64.9191C46.0342 67.8708 45.4017 71.1036 45.4017 74.4769C45.472 84.5969 51.6565 93.3114 60.5115 96.9658C73.0912 102.166 87.6387 96.1225 92.6284 83.3319C97.5479 70.8225 91.2932 56.6966 78.854 51.5663L21.2262 27.6719C14.62 43.6249 24.74 61.5458 41.8176 64.0758L62.1279 67.0977" stroke="url(#paint0_linear_2304_500153)" stroke-width="12.8755" stroke-miterlimit="10" stroke-linecap="round" stroke-linejoin="round"/>
<path d="M155.379 88.4101C153.903 88.4101 152.849 88.1993 152.146 87.8479C151.443 87.4262 151.162 86.864 151.162 86.1612V26.9873C151.162 24.9492 152.146 23.9653 154.184 23.9653H182.717C183.982 23.9653 184.614 25.0898 184.614 27.2684V29.0956C184.614 31.2742 183.982 32.3987 182.717 32.3987H161.141V53.482H181.452C182.787 53.482 183.49 54.6065 183.49 56.7851V58.6123C183.49 60.7909 182.787 61.9154 181.452 61.9154H161.141V86.0207C161.141 86.7234 160.79 87.3559 160.157 87.7073C159.525 88.129 158.401 88.2695 156.784 88.2695H155.379V88.4101Z" fill="white"/>
<path d="M208.017 88.8319C205.416 88.8319 203.238 88.3399 201.481 87.356C199.794 86.3721 198.459 84.9666 197.616 83.0691C196.772 81.1716 196.351 78.9227 196.351 76.1116V21.5057C196.351 20.7326 196.632 20.1001 197.264 19.7487C197.897 19.3271 198.951 19.1865 200.497 19.1865H201.762C203.308 19.1865 204.362 19.3974 204.995 19.7487C205.627 20.1704 205.908 20.7326 205.908 21.5057V76.0413C205.908 77.8685 206.189 79.1335 206.752 79.8363C207.314 80.5391 208.368 80.8905 209.844 80.8905C211.109 80.8905 212.093 80.7499 212.655 80.3985C213.288 80.1174 213.779 79.9066 214.201 79.9066C214.482 79.9066 214.763 80.1174 215.044 80.6093C215.255 81.1013 215.466 81.5932 215.607 82.296C215.747 82.9285 215.818 83.561 215.888 84.1232C215.888 84.6855 215.958 85.1071 215.958 85.3882C215.958 86.091 215.536 86.6532 214.623 87.1452C213.709 87.6371 212.655 88.0588 211.46 88.4102C210.266 88.6913 209.071 88.8319 208.017 88.8319Z" fill="white"/>
<path d="M229.733 107.245C228.538 107.245 227.554 107.104 226.921 106.823C226.289 106.542 225.938 106.191 225.938 105.699C225.938 105.488 225.938 105.347 226.008 105.136C226.078 104.926 226.219 104.644 226.359 104.152L234.863 82.9286L234.371 90.0969L217.364 43.081C217.293 42.8702 217.223 42.6594 217.153 42.4485C217.083 42.2377 217.012 41.9566 217.012 41.7458C217.012 41.2538 217.364 40.8321 218.137 40.551C218.839 40.2699 219.964 40.0591 221.44 40.0591H222.705C223.759 40.0591 224.602 40.1996 225.375 40.4105C226.078 40.6213 226.57 41.043 226.781 41.6052L237.814 75.4791H238.166L249.481 41.6052C249.691 41.043 250.183 40.6916 250.956 40.4105C251.659 40.1996 252.643 40.0591 253.697 40.0591H254.541C256.016 40.0591 257.071 40.1996 257.633 40.551C258.265 40.8321 258.546 41.2538 258.546 41.7458C258.546 41.9566 258.546 42.2377 258.476 42.4485C258.476 42.6594 258.336 42.9405 258.265 43.2216L235.214 105.347C235.003 106.05 234.441 106.612 233.668 106.893C232.895 107.174 231.911 107.315 230.716 107.315H229.733V107.245Z" fill="white"/>
<path d="M277.803 89.0427C275.835 89.0427 274.008 88.8318 272.18 88.4804C270.423 88.1291 268.807 87.6371 267.472 87.0046C266.066 86.3721 265.012 85.7396 264.239 85.1071C263.466 84.4043 263.044 83.7718 263.044 83.069C263.044 82.5771 263.255 81.9446 263.677 81.1013C264.098 80.2579 264.59 79.4849 265.153 78.7821C265.715 78.0793 266.207 77.7279 266.699 77.7279C266.98 77.7279 267.612 78.009 268.456 78.5713C269.299 79.1335 270.494 79.6957 271.969 80.2579C273.445 80.8202 275.132 81.1013 277.1 81.1013C279.7 81.1013 281.738 80.6093 283.073 79.5552C284.409 78.5713 285.111 77.0954 285.111 75.1277C285.111 73.7221 284.76 72.5274 283.987 71.6138C283.284 70.7002 282.23 69.9271 280.895 69.2946C279.559 68.6621 278.084 68.0999 276.467 67.5376C274.991 66.9754 273.516 66.3429 272.04 65.7104C270.564 65.0076 269.229 64.1643 268.034 63.1101C266.839 62.056 265.926 60.7207 265.223 59.1746C264.52 57.5582 264.169 55.5904 264.169 53.201C264.169 50.4601 264.801 48.0004 266.136 45.9624C267.472 43.854 269.299 42.3079 271.618 41.1132C274.008 39.9887 276.678 39.4265 279.77 39.4265C281.316 39.4265 282.792 39.4968 284.268 39.7076C285.744 39.9185 287.079 40.1996 288.274 40.551C289.469 40.9726 290.523 41.3943 291.226 41.9565C291.999 42.5187 292.35 43.081 292.35 43.7135C292.35 44.2757 292.139 44.9785 291.788 45.8921C291.436 46.8057 291.015 47.5787 290.523 48.2815C290.031 48.9843 289.539 49.3357 289.047 49.3357C288.766 49.3357 287.923 48.9843 286.517 48.2112C285.111 47.5085 283.214 47.0868 280.754 47.0868C278.646 47.0868 276.959 47.5085 275.554 48.4221C274.148 49.3357 273.516 50.671 273.516 52.4279C273.516 53.5524 273.726 54.466 274.218 55.239C274.71 56.0121 275.483 56.6446 276.608 57.2771C277.732 57.8393 279.138 58.4718 280.824 59.034C282.581 59.6665 284.338 60.3693 285.955 61.1424C287.641 61.9154 289.047 62.8993 290.382 64.0238C291.647 65.1482 292.631 66.5538 293.334 68.1701C294.037 69.8568 294.388 71.7543 294.388 74.0735C294.388 76.9549 293.685 79.4849 292.28 81.6635C290.874 83.8421 288.906 85.5991 286.376 86.8641C284.057 88.4102 281.106 89.0427 277.803 89.0427Z" fill="white"/>
<path d="M324.818 88.8319C317.439 88.8319 311.817 86.8641 308.022 82.9285C304.227 78.993 302.33 72.8085 302.33 64.3752C302.33 58.8935 303.173 54.2552 304.93 50.6007C306.687 46.9463 309.146 44.1352 312.379 42.3079C315.612 40.4104 319.477 39.4968 324.045 39.4968C328.403 39.4968 331.987 40.4807 334.798 42.3782C337.609 44.2757 339.717 47.0166 341.053 50.6007C342.388 54.1849 343.091 58.3313 343.091 63.1805C343.091 63.813 342.88 64.4455 342.528 65.1482C342.177 65.851 341.685 66.4835 341.123 66.9052C340.561 67.3971 339.928 67.608 339.366 67.608H312.168C312.309 72.2463 313.433 75.6196 315.612 77.728C317.791 79.8363 320.953 80.8905 325.1 80.8905C327.77 80.8905 330.089 80.5391 332.057 79.9066C333.955 79.2038 335.571 78.5713 336.766 78.0091C337.96 77.3766 338.733 77.0955 339.085 77.0955C339.577 77.0955 339.998 77.3766 340.49 78.0091C340.912 78.6416 341.263 79.3444 341.545 80.1877C341.826 81.031 341.966 81.6635 341.966 82.1555C341.966 82.8582 341.474 83.561 340.49 84.2638C339.506 84.9666 338.241 85.7396 336.555 86.4424C334.938 87.1452 333.111 87.7074 331.073 88.1291C329.035 88.621 326.997 88.8319 324.818 88.8319ZM312.098 60.3693H333.744C333.744 56.0121 332.83 52.7793 331.073 50.6007C329.316 48.4221 326.716 47.3679 323.343 47.3679C321.094 47.3679 319.126 47.8599 317.439 48.8438C315.753 49.8277 314.488 51.2332 313.504 53.1307C312.66 55.0282 312.098 57.488 312.098 60.3693Z" fill="white"/>
<path d="M365.228 89.0427C363.26 89.0427 361.433 88.8318 359.606 88.4804C357.849 88.1291 356.233 87.6371 354.897 87.0046C353.492 86.3721 352.438 85.7396 351.665 85.1071C350.892 84.4043 350.47 83.7718 350.47 83.069C350.47 82.5771 350.681 81.9446 351.102 81.1013C351.524 80.2579 352.016 79.4849 352.578 78.7821C353.14 78.0793 353.632 77.7279 354.124 77.7279C354.405 77.7279 355.038 78.009 355.881 78.5713C356.725 79.1335 357.919 79.6957 359.395 80.2579C360.871 80.8202 362.558 81.1013 364.525 81.1013C367.126 81.1013 369.164 80.6093 370.499 79.5552C371.834 78.5713 372.537 77.0954 372.537 75.1277C372.537 73.7221 372.186 72.5274 371.413 71.6138C370.71 70.7002 369.656 69.9271 368.32 69.2946C366.985 68.6621 365.509 68.0999 363.893 67.5376C362.417 66.9754 360.941 66.3429 359.465 65.7104C357.99 65.0076 356.654 64.1643 355.46 63.1101C354.265 62.056 353.351 60.7207 352.648 59.1746C351.946 57.5582 351.594 55.5904 351.594 53.201C351.594 50.4601 352.227 48.0004 353.562 45.9624C354.897 43.854 356.725 42.3079 359.044 41.1132C361.433 39.9887 364.104 39.4265 367.196 39.4265C368.742 39.4265 370.218 39.4968 371.694 39.7076C373.17 39.9185 374.505 40.1996 375.7 40.551C376.894 40.9726 377.948 41.3943 378.651 41.9565C379.424 42.5187 379.776 43.081 379.776 43.7135C379.776 44.2757 379.565 44.9785 379.213 45.8921C378.862 46.8057 378.44 47.5787 377.948 48.2815C377.457 48.9843 376.965 49.3357 376.473 49.3357C376.192 49.3357 375.348 48.9843 373.943 48.2112C372.537 47.5085 370.64 47.0868 368.18 47.0868C366.072 47.0868 364.385 47.5085 362.979 48.4221C361.574 49.3357 360.941 50.671 360.941 52.4279C360.941 53.5524 361.152 54.466 361.644 55.239C362.136 56.0121 362.909 56.6446 364.033 57.2771C365.158 57.8393 366.563 58.4718 368.25 59.034C370.007 59.6665 371.764 60.3693 373.38 61.1424C375.067 61.9154 376.473 62.8993 377.808 64.0238C379.073 65.1482 380.057 66.5538 380.76 68.1701C381.462 69.8568 381.814 71.7543 381.814 74.0735C381.814 76.9549 381.111 79.4849 379.705 81.6635C378.3 83.8421 376.332 85.5991 373.802 86.8641C371.413 88.4102 368.531 89.0427 365.228 89.0427Z" fill="white"/>
<defs>
<linearGradient id="paint0_linear_2304_500153" x1="20.1624" y1="26.8827" x2="120.973" y2="124.333" gradientUnits="userSpaceOnUse">
<stop stop-color="#E71D7C"/>
<stop offset="1" stop-color="#88337E"/>
</linearGradient>
</defs>
</svg>
