<svg width="27" height="27" viewBox="0 0 27 27" fill="none" xmlns="http://www.w3.org/2000/svg">
<path d="M21.4631 9.50005C21.4631 8.93303 21.9075 8.47335 22.4556 8.47335C23.0038 8.47335 23.4481 8.93298 23.4482 9.5V19.4041C23.4482 20.8218 22.3373 21.971 20.9669 21.971H6.07903C4.70861 21.971 3.59766 20.8218 3.59766 19.4041V7.08312C3.59766 5.66549 4.70858 4.51624 6.07903 4.51624H20.9669C22.3372 4.51624 23.4482 5.66547 23.4482 7.08312V8.62314H23.4345C23.4456 9.0018 23.2812 9.37575 22.9559 9.57838L14.0069 15.1547C13.9964 15.1613 13.9851 15.1644 13.9744 15.1705C13.9601 15.1785 13.9453 15.1846 13.9307 15.1918C13.5713 15.3738 13.1565 15.3024 12.8685 15.0299L7.56339 11.6583C7.0974 11.3621 6.9377 10.7062 7.20678 10.1933C7.4758 9.68034 8.07167 9.50458 8.5376 9.80072L13.5502 12.9864L21.4632 8.05567V7.5964C21.4632 7.02933 21.0188 6.5697 20.4706 6.5697H6.57528C6.02711 6.5697 5.58275 7.02933 5.58275 7.5964V18.8907C5.58275 19.4577 6.02711 19.9174 6.57528 19.9174H20.4706C21.0188 19.9174 21.4632 19.4577 21.4632 18.8907L21.4631 9.50005Z" fill="#343A40" stroke="white" stroke-width="0.435897"/>
</svg>
