<svg width="34" height="33" viewBox="0 0 34 33" fill="none" xmlns="http://www.w3.org/2000/svg">
<path d="M21.7637 9.48987H12.1966C11.6529 9.48987 11.1314 9.70575 10.7469 10.09C10.3625 10.4743 10.1465 10.9955 10.1465 11.5389V21.1012C10.1465 21.6446 10.3625 22.1658 10.7469 22.5501C11.1314 22.9344 11.6529 23.1502 12.1966 23.1502H21.7637C22.3074 23.1502 22.8289 22.9344 23.2134 22.5501C23.5978 22.1658 23.8138 21.6446 23.8138 21.1012V11.5389C23.8138 10.9955 23.5978 10.4743 23.2134 10.09C22.8289 9.70575 22.3074 9.48987 21.7637 9.48987ZM21.7637 10.8559C21.945 10.8559 22.1188 10.9279 22.2469 11.056C22.3751 11.184 22.4471 11.3578 22.4471 11.5389V15.637H17.6635V10.8559H21.7637ZM11.5132 11.5389C11.5132 11.3578 11.5852 11.184 11.7134 11.056C11.8415 10.9279 12.0153 10.8559 12.1966 10.8559H16.2968V15.637H11.5132V11.5389ZM12.1966 21.7842C12.0153 21.7842 11.8415 21.7122 11.7134 21.5842C11.5852 21.4561 11.5132 21.2823 11.5132 21.1012V17.0031H16.2968V21.7842H12.1966ZM22.4471 21.1012C22.4471 21.2823 22.3751 21.4561 22.2469 21.5842C22.1188 21.7122 21.945 21.7842 21.7637 21.7842H17.6635V17.0031H22.4471V21.1012Z" fill="#E71D7C"/>
<path d="M32.7789 16.3198C32.7789 25.0428 25.704 32.1144 16.9761 32.1144C8.24818 32.1144 1.1732 25.0428 1.1732 16.3198C1.1732 7.59693 8.24818 0.525249 16.9761 0.525249C25.704 0.525249 32.7789 7.59693 32.7789 16.3198Z" stroke="#7B88BC" stroke-width="0.854209"/>
</svg>
