
<svg width="179" height="57" viewBox="0 0 422 103" fill="none" xmlns="http://www.w3.org/2000/svg">
<path d="M68.8708 40.0635L125.167 16.7994L122.317 9.9095L115.406 12.7023C116.632 15.7362 117.221 18.6991 117.221 21.4636V21.499V21.6337C117.228 27.1556 115.208 32.5002 111.713 36.6469C109.969 38.7238 107.864 40.4888 105.461 41.8498C103.065 43.2107 100.372 44.1606 97.4015 44.593H97.4228L91.1567 45.4861L92.2128 52.8651V45.4082H92.1278C88.0094 45.4082 84.6779 48.7468 84.6779 52.858C84.6779 56.9764 88.0165 60.3079 92.1278 60.3079H92.2128C92.5247 60.3079 92.9571 60.2796 93.269 60.23L99.5351 59.3368H99.5564C104.362 58.6351 108.842 57.0615 112.812 54.8073C118.773 51.4262 123.593 46.5423 126.932 40.8149C130.263 35.0804 132.128 28.4811 132.128 21.6266V21.4211V21.4565C132.128 16.5726 131.093 11.7241 129.228 7.1096C128.484 5.26662 127.038 3.79933 125.202 3.03378C123.366 2.26115 121.311 2.26113 119.475 3.01959L63.1788 26.2837C59.3723 27.8573 57.5648 32.2167 59.1384 36.016C60.705 39.8225 65.0643 41.63 68.8708 40.0635Z" fill="url(#paint0_linear_3939_505627)"/>
<path d="M33.1382 50.0085C31.2527 54.4104 30.3383 59.1738 30.3383 64.0081V64.0577C30.3879 71.4225 32.6775 78.3337 36.569 84.0257C40.4605 89.7247 45.9469 94.24 52.4399 96.9194H52.4328C56.8843 98.7624 61.5414 99.6414 66.1063 99.6414C73.223 99.6414 80.1413 97.5219 85.9963 93.6233C91.8442 89.7318 96.6502 84.0186 99.4005 76.9585L99.3934 76.9798C101.059 72.741 101.86 68.3391 101.86 64.0151C101.86 56.8701 99.6982 49.9589 95.8137 44.1039C91.9364 38.256 86.2869 33.45 79.3545 30.5863L79.3687 30.5934L12.6669 2.93451C10.8311 2.16897 8.80378 2.16897 6.9608 2.93451C5.12491 3.69297 3.68596 5.13191 2.9275 6.9678C0.942756 11.7596 0 16.7356 0 21.5912C0.00708839 30.7139 3.28901 39.3972 8.98807 46.1879C11.8447 49.5832 15.3109 52.5107 19.2875 54.7719C23.257 57.0331 27.7369 58.6138 32.557 59.3297H32.5499L56.062 62.8314C60.1308 63.4339 63.9231 60.6269 64.5327 56.5582C65.1423 52.4894 62.3282 48.6971 58.2595 48.0875L34.7473 44.5859H34.7402C31.7489 44.1393 29.0553 43.1824 26.6523 41.8143C23.0514 39.7658 20.1098 36.7957 18.0683 33.2799C16.0268 29.7641 14.8998 25.7308 14.8998 21.5912C14.8998 18.6495 15.4598 15.6511 16.6932 12.674L9.81033 9.82442L6.95371 16.7072L73.6554 44.3661L73.6696 44.3732C77.7951 46.0745 81.0912 48.8956 83.3949 52.3547C85.6915 55.8139 86.9532 59.8897 86.9532 64.0151C86.9532 66.5173 86.4996 69.0408 85.5214 71.5218L85.5143 71.543C83.8911 75.6897 81.1479 78.9433 77.7383 81.2187C74.3288 83.494 70.253 84.7416 66.1134 84.7345C63.4482 84.7345 60.7546 84.2241 58.1319 83.1396H58.1248C54.3679 81.5872 51.1498 78.9504 48.8815 75.6188C46.6061 72.2802 45.2806 68.2965 45.2452 63.9443V63.9939C45.2452 61.0168 45.7981 58.2948 46.8401 55.8635C48.4633 52.0783 46.7054 47.6977 42.9273 46.0815C39.1421 44.4725 34.7614 46.2233 33.1382 50.0085Z" fill="url(#paint1_linear_3939_505627)"/>
<path opacity="0.2" d="M106.701 57.5788C105.022 58.1672 103.285 58.6492 101.492 58.9894C100.776 53.9071 98.9681 49.0586 96.2319 44.763L97.4299 44.5858C98.9326 44.3519 100.386 44.0117 101.74 43.5297C104.27 47.8961 105.929 52.6595 106.701 57.5788Z" fill="#0C0D48"/>
<path opacity="0.2" d="M90.7739 31.0046L84.8693 33.4359C83.1539 32.3443 81.3109 31.3945 79.3545 30.5935L66.0779 25.1L73.0955 22.2008L81.4385 25.6529C84.7771 27.028 87.9314 28.8214 90.7739 31.0046Z" fill="#0C0D48"/>
<path d="M159.744 80.2264C158.043 80.2264 156.802 79.9995 156.023 79.5388C155.243 79.078 154.853 78.4259 154.853 77.5753V9.14401C154.853 6.80485 156.022 5.63525 158.362 5.63525H191.408C192.896 5.63525 193.641 6.91118 193.641 9.463V11.5895C193.641 14.1413 192.896 15.4172 191.408 15.4172H166.435V39.858H189.919C191.479 39.858 192.258 41.1339 192.258 43.6857V45.8122C192.258 48.3641 191.479 49.64 189.919 49.64H166.435V77.5895C166.435 78.4401 166.067 79.0922 165.322 79.553C164.578 80.0137 163.288 80.2405 161.445 80.2405H159.744V80.2264Z" fill="#0C0D48"/>
<path d="M220.626 80.758C217.578 80.758 215.062 80.1909 213.084 79.0568C211.099 77.9226 209.611 76.2781 208.625 74.1162C207.633 71.9542 207.137 69.2819 207.137 66.0921V2.75737C207.137 1.83588 207.491 1.14832 208.2 0.687574C208.909 0.226829 210.149 0 211.922 0H213.41C215.182 0 216.423 0.233918 217.131 0.687574C217.84 1.14832 218.195 1.84297 218.195 2.75737V65.8795C218.195 68.006 218.528 69.4733 219.201 70.2884C219.875 71.1036 221.058 71.5077 222.76 71.5077C224.248 71.5077 225.34 71.3304 226.056 70.976C226.765 70.6216 227.367 70.4444 227.863 70.4444C228.218 70.4444 228.537 70.7137 228.82 71.2383C229.104 71.7699 229.331 72.4079 229.515 73.1521C229.692 73.8964 229.798 74.6053 229.834 75.2787C229.869 75.9521 229.891 76.4341 229.891 76.7105C229.891 77.4902 229.373 78.1849 228.352 78.7803C227.325 79.3828 226.105 79.8578 224.688 80.2122C223.249 80.5808 221.902 80.758 220.626 80.758Z" fill="#0C0D48"/>
<path d="M245.811 102.016C244.393 102.016 243.316 101.86 242.572 101.541C241.827 101.222 241.459 100.783 241.459 100.216C241.459 100.003 241.494 99.7902 241.565 99.5776C241.636 99.3649 241.778 98.975 241.99 98.408L251.872 73.8609L251.34 82.1472L231.684 27.7438C231.613 27.5312 231.521 27.2831 231.415 26.9996C231.308 26.716 231.259 26.4325 231.259 26.149C231.259 25.5819 231.684 25.1212 232.535 24.7667C233.385 24.4123 234.661 24.2351 236.362 24.2351H237.851C239.056 24.2351 240.084 24.3769 240.934 24.6604C241.785 24.9439 242.316 25.4047 242.529 26.0426L255.281 65.2556H255.706L268.671 26.0426C268.955 25.4047 269.522 24.9439 270.372 24.6604C271.223 24.3769 272.286 24.2351 273.562 24.2351H274.519C276.22 24.2351 277.425 24.4123 278.134 24.7667C278.843 25.1212 279.197 25.5819 279.197 26.149C279.197 26.4325 279.176 26.7018 279.141 26.9429C279.105 27.1909 279.02 27.4958 278.878 27.8431L252.205 99.7831C251.921 100.634 251.319 101.215 250.397 101.534C249.476 101.853 248.342 102.009 246.995 102.009H245.811V102.016Z" fill="#0C0D48"/>
<path d="M301.49 80.9706C299.222 80.9706 297.06 80.7579 295.012 80.3326C292.956 79.9073 291.134 79.3403 289.539 78.6314C287.944 77.9226 286.69 77.1783 285.768 76.3986C284.847 75.6189 284.386 74.8391 284.386 74.0594C284.386 73.4923 284.634 72.7339 285.13 71.7769C285.627 70.82 286.194 69.934 286.832 69.1188C287.47 68.3036 288.072 67.8996 288.639 67.8996C288.994 67.8996 289.667 68.2398 290.659 68.9062C291.652 69.5796 292.998 70.2317 294.7 70.8696C296.401 71.5076 298.386 71.8266 300.654 71.8266C303.695 71.8266 305.999 71.2453 307.558 70.0757C309.117 68.9062 309.897 67.1908 309.897 64.9225C309.897 63.2922 309.472 61.9454 308.621 60.8821C307.771 59.8188 306.587 58.9328 305.063 58.224C303.539 57.5151 301.824 56.8417 299.91 56.2038C298.208 55.5658 296.507 54.857 294.806 54.0772C293.105 53.2975 291.567 52.3052 290.184 51.1001C288.802 49.8951 287.703 48.3711 286.888 46.5281C286.073 44.6851 285.669 42.3814 285.669 39.624C285.669 36.4343 286.428 33.6414 287.952 31.2314C289.476 28.8213 291.602 26.9642 294.324 25.6528C297.053 24.3415 300.186 23.6893 303.73 23.6893C305.502 23.6893 307.239 23.7957 308.94 24.0083C310.641 24.221 312.201 24.5612 313.619 25.0149C315.036 25.4756 316.185 26.0214 317.071 26.6594C317.957 27.2973 318.396 27.9707 318.396 28.6796C318.396 29.3175 318.184 30.1539 317.758 31.1747C317.333 32.2025 316.837 33.124 316.27 33.9392C315.703 34.7543 315.136 35.1584 314.568 35.1584C314.214 35.1584 313.243 34.733 311.648 33.8824C310.053 33.0318 307.842 32.6065 305.006 32.6065C302.596 32.6065 300.597 33.124 299.002 34.1447C297.407 35.1725 296.614 36.7107 296.614 38.7663C296.614 40.0423 296.897 41.1197 297.464 42.0057C298.031 42.8918 298.953 43.6715 300.229 44.3449C301.505 45.0183 303.135 45.7129 305.12 46.4147C307.175 47.1235 309.16 47.9387 311.067 48.8602C312.981 49.7817 314.682 50.8946 316.17 52.2059C317.659 53.5173 318.807 55.1263 319.622 57.0402C320.438 58.9541 320.842 61.2224 320.842 63.838C320.842 67.1695 320.027 70.1041 318.396 72.6559C316.766 75.2077 314.498 77.2279 311.598 78.7094C308.678 80.2263 305.318 80.9706 301.49 80.9706Z" fill="#0C0D48"/>
<path d="M355.894 80.7579C347.324 80.7579 340.838 78.4896 336.45 73.9602C332.055 69.4307 329.865 62.2714 329.865 52.4965C329.865 46.1241 330.872 40.8078 332.892 36.5547C334.912 32.3017 337.797 29.0978 341.554 26.9358C345.311 24.7739 349.805 23.6964 355.05 23.6964C360.083 23.6964 364.223 24.8093 367.483 27.0421C370.744 29.275 373.147 32.4435 374.706 36.5547C376.266 40.666 377.045 45.5145 377.045 51.1143C377.045 51.8231 376.833 52.5816 376.408 53.3967C375.982 54.2119 375.429 54.8995 374.763 55.4666C374.09 56.0336 373.395 56.3172 372.693 56.3172H341.242C341.384 61.7043 342.709 65.6171 345.226 68.0555C347.742 70.501 351.407 71.7202 356.227 71.7202C359.346 71.7202 362.018 71.3304 364.251 70.5507C366.484 69.7709 368.291 69.0267 369.666 68.3178C371.049 67.609 371.949 67.2546 372.374 67.2546C372.941 67.2546 373.473 67.609 373.969 68.3178C374.465 69.0267 374.869 69.856 375.188 70.8129C375.507 71.7699 375.663 72.5283 375.663 73.0954C375.663 73.8751 375.096 74.6903 373.962 75.5409C372.828 76.3915 371.325 77.2279 369.447 78.036C367.568 78.8512 365.463 79.5033 363.124 79.9995C360.785 80.5098 358.375 80.7579 355.894 80.7579ZM341.122 47.8182H366.2C366.2 42.7854 365.172 39.0144 363.117 36.498C361.061 33.9817 358.084 32.727 354.193 32.727C351.57 32.727 349.302 33.2941 347.395 34.4282C345.481 35.5624 343.978 37.2281 342.879 39.4184C341.781 41.6229 341.192 44.4229 341.122 47.8182Z" fill="#0C0D48"/>
<path d="M402.649 80.9706C400.38 80.9706 398.219 80.7579 396.17 80.3326C394.114 79.9073 392.293 79.3403 390.698 78.6314C389.103 77.9226 387.848 77.1783 386.927 76.3986C386.005 75.6189 385.544 74.8391 385.544 74.0594C385.544 73.4923 385.793 72.7339 386.289 71.7769C386.785 70.82 387.352 69.934 387.99 69.1188C388.628 68.3036 389.23 67.8996 389.798 67.8996C390.152 67.8996 390.825 68.2398 391.818 68.9062C392.81 69.5796 394.157 70.2317 395.858 70.8696C397.559 71.5076 399.544 71.8266 401.812 71.8266C404.86 71.8266 407.157 71.2453 408.716 70.0757C410.276 68.9062 411.056 67.1908 411.056 64.9225C411.056 63.2922 410.63 61.9454 409.78 60.8821C408.929 59.8188 407.745 58.9328 406.221 58.224C404.697 57.5151 402.982 56.8417 401.068 56.2038C399.367 55.5658 397.666 54.857 395.964 54.0772C394.263 53.2975 392.725 52.3052 391.343 51.1001C389.961 49.8951 388.862 48.3711 388.047 46.5281C387.232 44.6851 386.827 42.3814 386.827 39.624C386.827 36.4343 387.586 33.6414 389.11 31.2314C390.634 28.8213 392.76 26.9642 395.482 25.6528C398.211 24.3415 401.344 23.6893 404.889 23.6893C406.661 23.6893 408.397 23.7957 410.099 24.0083C411.8 24.221 413.359 24.5612 414.777 25.0149C416.195 25.4756 417.343 26.0214 418.229 26.6594C419.115 27.2973 419.555 27.9707 419.555 28.6796C419.555 29.3175 419.342 30.1539 418.917 31.1747C418.491 32.2025 417.995 33.124 417.428 33.9392C416.861 34.7543 416.294 35.1584 415.727 35.1584C415.372 35.1584 414.401 34.733 412.806 33.8824C411.212 33.0318 409 32.6065 406.165 32.6065C403.755 32.6065 401.756 33.124 400.161 34.1447C398.566 35.1725 397.772 36.7107 397.772 38.7663C397.772 40.0423 398.056 41.1197 398.623 42.0057C399.19 42.8918 400.111 43.6715 401.387 44.3449C402.663 45.0183 404.293 45.7129 406.278 46.4147C408.334 47.1235 410.318 47.9387 412.225 48.8602C414.139 49.7817 415.84 50.8946 417.329 52.2059C418.817 53.5173 419.966 55.1263 420.781 57.0402C421.596 58.9541 422 61.2224 422 63.838C422 67.1695 421.185 70.1041 419.555 72.6559C417.924 75.2077 415.656 77.2279 412.757 78.7094C409.836 80.2263 406.477 80.9706 402.649 80.9706Z" fill="#0C0D48"/>
<defs>
<linearGradient id="paint0_linear_3939_505627" x1="58.5675" y1="31.3836" x2="132.125" y2="31.3836" gradientUnits="userSpaceOnUse">
<stop stop-color="#FF0379"/>
<stop offset="1" stop-color="#D437C1"/>
</linearGradient>
<linearGradient id="paint1_linear_3939_505627" x1="-0.00248094" y1="51.0079" x2="101.858" y2="51.0079" gradientUnits="userSpaceOnUse">
<stop stop-color="#FF0379"/>
<stop offset="1" stop-color="#D437C1"/>
</linearGradient>
</defs>
</svg>
