<svg width="39" height="39" viewBox="0 0 39 39" fill="none" xmlns="http://www.w3.org/2000/svg">
<path d="M14.625 37.375C15.1125 37.375 15.4375 37.2125 15.7625 36.8875L20.6375 32.0125C21.2875 31.3625 21.2875 30.3875 20.6375 29.7375L9.2625 18.3625C8.6125 17.7125 7.6375 17.7125 6.9875 18.3625L2.1125 23.2375C1.4625 23.8875 1.4625 24.8625 2.1125 25.5125L13.4875 36.8875C13.8125 37.2125 14.1375 37.375 14.625 37.375ZM17.225 30.875L14.625 33.475L5.525 24.375L8.125 21.775L17.225 30.875Z" fill="#E71D7C"/>
<path d="M17.8746 30.875H18.1996L30.3871 28.4375C31.0371 28.275 31.5246 27.7875 31.6871 27.3L37.3746 3.57502C37.5371 3.08752 37.3746 2.43752 36.8871 2.11252C36.5621 1.62502 35.9121 1.46252 35.4246 1.62502L11.8621 7.31252C11.2121 7.47502 10.7246 7.96252 10.7246 8.61252L8.28711 20.8C8.12461 21.2875 8.28711 21.9375 8.77461 22.2625L16.8996 30.3875C17.0621 30.7125 17.3871 30.875 17.8746 30.875ZM28.7621 25.35L18.5246 27.4625L11.6996 20.6375L13.8121 10.4L33.7996 5.52502L28.7621 25.35Z" fill="#E71D7C"/>
<path d="M23.4 17.225C23.8875 17.225 24.2125 17.0625 24.5375 16.7375L36.8875 4.3875C37.5375 3.7375 37.5375 2.7625 36.8875 2.1125C36.2375 1.4625 35.2625 1.4625 34.6125 2.1125L22.2625 14.4625C21.6125 15.1125 21.6125 16.0875 22.2625 16.7375C22.5875 17.0625 23.075 17.225 23.4 17.225Z" fill="#E71D7C"/>
<path d="M21.125 22.75C23.8875 22.75 26 20.6375 26 17.875C26 15.1125 23.8875 13 21.125 13C18.3625 13 16.25 15.1125 16.25 17.875C16.25 20.6375 18.3625 22.75 21.125 22.75ZM21.125 16.25C22.1 16.25 22.75 16.9 22.75 17.875C22.75 18.85 22.1 19.5 21.125 19.5C20.15 19.5 19.5 18.85 19.5 17.875C19.5 16.9 20.15 16.25 21.125 16.25Z" fill="#E71D7C"/>
</svg>
