<svg width="14" height="14" viewBox="0 0 14 14" fill="none" xmlns="http://www.w3.org/2000/svg">
<path d="M6.74935 0.541992C3.19727 0.541992 0.291016 3.44824 0.291016 7.00033C0.291016 10.5524 3.19727 13.4587 6.74935 13.4587C10.3014 13.4587 13.2077 10.5524 13.2077 7.00033C13.2077 3.44824 10.3014 0.541992 6.74935 0.541992ZM9.04206 9.45449L6.40706 7.83345C6.21331 7.7172 6.09706 7.51053 6.09706 7.28449V4.25553C6.10352 3.99074 6.3231 3.77116 6.58789 3.77116C6.85268 3.77116 7.07227 3.99074 7.07227 4.25553V7.12949L9.55227 8.62137C9.78477 8.76345 9.86227 9.06699 9.72018 9.29949C9.5781 9.52553 9.27456 9.59658 9.04206 9.45449Z" fill="#FD7E14"/>
</svg>
