<svg width="210" height="140" viewBox="0 0 210 140" fill="none" xmlns="http://www.w3.org/2000/svg">
<mask id="mask0_2257_501561" style="mask-type:luminance" maskUnits="userSpaceOnUse" x="0" y="0" width="210" height="140">
<path d="M0 0H210V140H0V0Z" fill="white"/>
</mask>
<g mask="url(#mask0_2257_501561)">
<path d="M140.923 81.798C135.345 78.0827 128.753 77.0803 122.708 78.4754C124.267 72.6199 122.032 66.1698 116.707 62.6227C110.016 58.166 100.98 59.9725 96.5275 66.6573C95.6153 68.0274 94.9416 69.5421 94.5348 71.137C80.8748 62.5364 62.7735 66.3383 53.7797 79.8411C44.64 93.5625 48.3647 112.1 62.0992 121.249C75.8336 130.397 94.3752 126.69 103.515 112.969C104.414 111.617 105.203 110.195 105.875 108.717C107.475 113.434 110.584 117.677 115.052 120.654C125.792 127.807 140.292 124.908 147.438 114.179C154.585 103.45 151.662 88.9516 140.923 81.798ZM107.921 89.254C107.85 89.3676 107.786 89.4801 107.72 89.5963C107.692 89.4763 107.661 89.3541 107.634 89.2341C107.729 89.2442 107.824 89.254 107.921 89.254Z" fill="url(#paint0_linear_2257_501561)"/>
<path d="M143.577 70.0016C138.337 73.321 130.634 70.563 130.634 70.563C130.634 70.563 131.431 62.4248 136.674 59.1092C141.913 55.79 149.613 58.5443 149.613 58.5443C149.613 58.5443 148.816 66.6825 143.577 70.0016Z" fill="url(#paint1_linear_2257_501561)"/>
<path d="M130.704 123.62C130.606 123.581 130.526 123.507 130.481 123.412C130.435 123.317 130.427 123.208 130.457 123.108C130.488 123.007 130.556 122.921 130.647 122.868C130.738 122.815 130.846 122.798 130.949 122.821C131.963 123.054 132.984 123.257 134.01 123.432C134.064 123.441 134.116 123.461 134.163 123.49C134.209 123.52 134.249 123.558 134.281 123.603C134.313 123.648 134.335 123.698 134.347 123.752C134.359 123.806 134.361 123.861 134.351 123.915C134.332 124.024 134.271 124.122 134.18 124.186C134.09 124.25 133.978 124.275 133.868 124.257C132.826 124.079 131.79 123.873 130.759 123.638C130.741 123.632 130.722 123.627 130.704 123.62ZM136.899 124.689C136.804 124.652 136.726 124.582 136.679 124.492C136.632 124.401 136.62 124.297 136.644 124.198C136.669 124.099 136.729 124.012 136.813 123.954C136.896 123.896 136.998 123.871 137.1 123.883C138.136 124.006 139.18 124.104 140.205 124.175C140.316 124.182 140.418 124.234 140.491 124.317C140.564 124.4 140.601 124.509 140.594 124.62C140.587 124.731 140.536 124.834 140.452 124.907C140.369 124.98 140.26 125.017 140.149 125.01C139.109 124.94 138.051 124.84 137 124.715C136.966 124.709 136.932 124.701 136.899 124.689ZM143.164 125.108C143.072 125.072 142.996 125.006 142.949 124.92C142.902 124.834 142.886 124.735 142.905 124.638C142.923 124.542 142.975 124.456 143.051 124.394C143.127 124.332 143.222 124.298 143.32 124.299C144.359 124.313 145.397 124.295 146.434 124.246C146.489 124.243 146.544 124.252 146.596 124.27C146.647 124.289 146.695 124.317 146.735 124.354C146.776 124.391 146.809 124.436 146.832 124.486C146.855 124.535 146.869 124.589 146.871 124.644C146.882 124.875 146.704 125.071 146.473 125.082C145.439 125.132 144.375 125.15 143.309 125.135C143.259 125.136 143.21 125.126 143.164 125.108ZM149.432 124.804C149.361 124.777 149.298 124.73 149.251 124.67C149.204 124.609 149.175 124.537 149.167 124.46C149.161 124.406 149.165 124.351 149.18 124.298C149.196 124.245 149.221 124.196 149.255 124.153C149.289 124.11 149.332 124.074 149.38 124.047C149.428 124.021 149.481 124.004 149.535 123.998C150.581 123.877 151.614 123.72 152.607 123.531C152.661 123.52 152.717 123.521 152.771 123.532C152.825 123.543 152.876 123.564 152.921 123.595C152.967 123.626 153.005 123.666 153.035 123.712C153.065 123.758 153.086 123.81 153.096 123.864C153.117 123.973 153.093 124.086 153.031 124.178C152.969 124.269 152.873 124.333 152.764 124.354C151.725 124.552 150.68 124.711 149.629 124.831C149.562 124.837 149.495 124.828 149.432 124.804ZM155.59 123.616C155.529 123.593 155.474 123.556 155.43 123.507C155.386 123.459 155.354 123.401 155.337 123.337C155.308 123.23 155.322 123.116 155.376 123.019C155.431 122.922 155.522 122.851 155.629 122.821C156.624 122.543 157.605 122.218 158.57 121.848C158.673 121.808 158.788 121.811 158.89 121.856C158.991 121.901 159.07 121.985 159.11 122.088C159.192 122.304 159.084 122.546 158.869 122.63C157.88 123.01 156.874 123.342 155.853 123.627C155.767 123.652 155.674 123.648 155.59 123.616ZM161.431 121.356C161.334 121.319 161.255 121.247 161.208 121.154C161.158 121.055 161.149 120.94 161.184 120.835C161.218 120.729 161.293 120.641 161.392 120.591C162.309 120.123 163.199 119.604 164.058 119.036C164.104 119.006 164.155 118.985 164.209 118.974C164.263 118.964 164.319 118.964 164.373 118.975C164.427 118.986 164.478 119.007 164.523 119.038C164.569 119.068 164.608 119.108 164.638 119.154C164.7 119.246 164.722 119.359 164.699 119.468C164.677 119.577 164.613 119.673 164.521 119.735C163.635 120.32 162.718 120.856 161.772 121.338C161.72 121.365 161.662 121.38 161.603 121.383C161.545 121.385 161.486 121.376 161.431 121.356ZM166.639 117.893C166.572 117.867 166.512 117.823 166.466 117.767C166.42 117.711 166.39 117.644 166.378 117.572C166.366 117.501 166.373 117.427 166.398 117.359C166.423 117.291 166.465 117.23 166.52 117.183C167.302 116.517 168.043 115.803 168.739 115.047C168.776 115.006 168.821 114.973 168.871 114.95C168.921 114.927 168.974 114.914 169.029 114.912C169.084 114.909 169.139 114.918 169.191 114.937C169.242 114.956 169.29 114.985 169.33 115.022C169.37 115.059 169.403 115.104 169.426 115.153C169.449 115.203 169.463 115.257 169.465 115.312C169.467 115.367 169.459 115.422 169.44 115.473C169.421 115.525 169.392 115.572 169.355 115.613C168.636 116.395 167.871 117.132 167.062 117.821C166.938 117.923 166.776 117.946 166.639 117.893ZM170.873 113.293C170.813 113.27 170.759 113.234 170.716 113.187C170.672 113.14 170.64 113.084 170.622 113.022C170.604 112.961 170.6 112.896 170.61 112.833C170.621 112.77 170.646 112.71 170.684 112.658C171.284 111.823 171.838 110.956 172.342 110.059C172.369 110.011 172.405 109.969 172.448 109.935C172.492 109.901 172.541 109.876 172.594 109.861C172.647 109.846 172.703 109.842 172.757 109.849C172.812 109.856 172.864 109.873 172.912 109.901C172.96 109.928 173.002 109.964 173.036 110.007C173.07 110.051 173.095 110.1 173.11 110.153C173.125 110.206 173.129 110.262 173.122 110.316C173.116 110.371 173.098 110.424 173.071 110.472C172.551 111.396 171.981 112.29 171.361 113.151C171.306 113.224 171.229 113.278 171.141 113.304C171.053 113.329 170.959 113.326 170.873 113.293ZM173.988 107.86L173.96 107.849C173.91 107.826 173.866 107.794 173.828 107.753C173.791 107.713 173.762 107.665 173.744 107.614C173.725 107.562 173.716 107.507 173.719 107.452C173.721 107.397 173.734 107.343 173.758 107.294C174.193 106.356 174.587 105.4 174.939 104.427C174.956 104.374 174.984 104.325 175.021 104.284C175.058 104.242 175.102 104.208 175.153 104.183C175.203 104.159 175.257 104.145 175.313 104.142C175.368 104.139 175.424 104.147 175.476 104.166C175.529 104.185 175.577 104.214 175.618 104.251C175.659 104.289 175.692 104.335 175.715 104.385C175.738 104.436 175.751 104.491 175.753 104.547C175.755 104.602 175.745 104.658 175.725 104.71C175.646 104.931 175.561 105.157 175.475 105.381C175.18 106.147 174.86 106.903 174.515 107.648C174.47 107.743 174.391 107.817 174.293 107.857C174.195 107.896 174.087 107.897 173.988 107.86ZM176.084 101.952C175.989 101.915 175.911 101.845 175.864 101.756C175.817 101.666 175.804 101.562 175.827 101.463C176.074 100.435 176.25 99.4126 176.351 98.4275C176.362 98.3172 176.417 98.2159 176.503 98.1457C176.588 98.0756 176.699 98.0424 176.809 98.0534C176.863 98.0591 176.916 98.0755 176.965 98.1017C177.013 98.1278 177.056 98.1633 177.09 98.206C177.125 98.2486 177.151 98.2977 177.166 98.3504C177.182 98.403 177.187 98.4583 177.181 98.5129C177.075 99.5358 176.893 100.593 176.638 101.658C176.612 101.766 176.545 101.859 176.45 101.917C176.356 101.975 176.242 101.993 176.134 101.967C176.119 101.963 176.1 101.958 176.084 101.952ZM176.697 95.7283C176.622 95.6991 176.556 95.649 176.509 95.584C176.462 95.5189 176.434 95.4416 176.429 95.3612C176.37 94.3203 176.218 93.3039 175.977 92.3414C175.95 92.2338 175.967 92.1198 176.024 92.0245C176.081 91.9292 176.173 91.8604 176.281 91.8332C176.334 91.8197 176.389 91.8169 176.443 91.8248C176.498 91.8328 176.55 91.8513 176.597 91.8795C176.644 91.9077 176.685 91.9449 176.718 91.9889C176.751 92.033 176.774 92.0831 176.788 92.1363C177.041 93.1488 177.201 94.217 177.264 95.3118C177.267 95.3666 177.26 95.4216 177.242 95.4735C177.224 95.5254 177.195 95.5732 177.159 95.6142C177.122 95.6552 177.078 95.6886 177.028 95.7125C176.979 95.7364 176.925 95.7503 176.87 95.7535C176.809 95.7581 176.75 95.7488 176.697 95.7283ZM164.067 90.3667C163.968 90.3286 163.887 90.254 163.841 90.1583C163.795 90.0626 163.787 89.9529 163.819 89.8515C163.852 89.7455 163.926 89.6569 164.025 89.6054C164.123 89.5538 164.238 89.5434 164.344 89.5764C165.269 89.8672 166.294 90.02 167.308 90.0184C167.417 90.0211 167.521 90.0665 167.597 90.1449C167.674 90.2233 167.716 90.3285 167.716 90.4379C167.716 90.5473 167.673 90.6524 167.597 90.7305C167.52 90.8087 167.416 90.8538 167.307 90.8563C166.209 90.8577 165.098 90.6904 164.092 90.3761C164.084 90.3714 164.074 90.3693 164.067 90.3667ZM161.342 88.8685C161.292 88.8491 161.247 88.8208 161.207 88.785C160.18 87.8269 159.779 86.685 160.081 85.5706C160.11 85.4636 160.18 85.3726 160.276 85.3172C160.372 85.2619 160.486 85.2469 160.593 85.2754C160.646 85.2898 160.696 85.3145 160.739 85.3481C160.783 85.3818 160.819 85.4236 160.846 85.4713C160.874 85.519 160.891 85.5717 160.898 85.6262C160.905 85.6807 160.901 85.736 160.886 85.789C160.609 86.8154 161.217 87.6521 161.775 88.1736C161.846 88.2395 161.892 88.328 161.904 88.424C161.917 88.5199 161.896 88.6173 161.845 88.6995C161.794 88.7817 161.716 88.8435 161.624 88.8743C161.532 88.9051 161.432 88.9031 161.342 88.8685ZM170.245 90.3583C170.186 90.3359 170.132 90.3002 170.089 90.254C170.046 90.2078 170.014 90.1524 169.995 90.0919C169.962 89.9859 169.973 89.8712 170.024 89.7729C170.075 89.6746 170.163 89.6005 170.269 89.5669C171.226 89.2675 172.128 88.8144 172.939 88.2254C172.984 88.1931 173.034 88.1697 173.087 88.1569C173.141 88.144 173.196 88.1418 173.25 88.1504C173.305 88.159 173.357 88.1783 173.404 88.207C173.45 88.2358 173.491 88.2735 173.523 88.3181C173.556 88.3626 173.579 88.413 173.592 88.4665C173.604 88.52 173.606 88.5755 173.598 88.6298C173.589 88.6842 173.57 88.7362 173.541 88.7831C173.512 88.83 173.475 88.8707 173.43 88.903C172.546 89.5458 171.562 90.0399 170.519 90.3658C170.427 90.3961 170.33 90.3908 170.245 90.3583ZM175.157 89.6905C175.059 89.653 174.979 89.5801 174.932 89.4861C174.484 88.5771 173.93 87.7241 173.282 86.9449C173.247 86.9027 173.22 86.854 173.204 86.8016C173.188 86.7492 173.182 86.694 173.187 86.6393C173.192 86.5846 173.208 86.5314 173.233 86.4828C173.259 86.4342 173.294 86.3911 173.336 86.356C173.378 86.3208 173.427 86.2943 173.479 86.2779C173.531 86.2616 173.586 86.2557 173.641 86.2606C173.695 86.2654 173.748 86.281 173.797 86.3065C173.846 86.3319 173.889 86.3666 173.924 86.4087C174.613 87.2391 175.203 88.1473 175.681 89.1149C175.783 89.3212 175.7 89.5741 175.492 89.6763C175.382 89.7281 175.262 89.7307 175.157 89.6905ZM162.331 83.7436C162.258 83.715 162.194 83.6663 162.147 83.6031C162.099 83.54 162.071 83.4648 162.065 83.3863C162.058 83.3078 162.074 83.229 162.11 83.159C162.147 83.0891 162.202 83.0307 162.27 82.9906C163.197 82.4497 164.275 82.1632 165.472 82.1401C165.527 82.139 165.581 82.1488 165.633 82.1689C165.684 82.189 165.73 82.219 165.77 82.2571C165.809 82.2952 165.841 82.3408 165.863 82.3911C165.884 82.4415 165.896 82.4957 165.897 82.5505C165.898 82.6054 165.888 82.66 165.868 82.7111C165.848 82.7623 165.818 82.8089 165.78 82.8485C165.742 82.888 165.696 82.9197 165.646 82.9416C165.596 82.9636 165.541 82.9754 165.487 82.9764C164.434 82.9969 163.494 83.244 162.691 83.7128C162.637 83.7447 162.577 83.7641 162.514 83.7695C162.452 83.7748 162.389 83.7659 162.331 83.7436ZM175.241 86.7428C175.206 86.7291 175.173 86.7115 175.143 86.6903C175.098 86.6578 175.061 86.6169 175.032 86.5698C175.004 86.5227 174.985 86.4705 174.976 86.416C174.968 86.3616 174.97 86.3061 174.984 86.2526C174.997 86.1991 175.02 86.1488 175.053 86.1044C175.622 85.327 176.11 84.4338 176.502 83.4512C176.543 83.3492 176.622 83.2673 176.723 83.2231C176.823 83.1789 176.937 83.1759 177.04 83.2148L177.045 83.2167C177.148 83.2579 177.23 83.3382 177.274 83.4401C177.318 83.542 177.319 83.6571 177.278 83.7601C176.859 84.809 176.338 85.7645 175.726 86.5989C175.672 86.6727 175.595 86.7268 175.508 86.7528C175.42 86.7789 175.326 86.7753 175.241 86.7428ZM171.168 84.9324C171.134 84.9191 171.102 84.9019 171.073 84.8811C170.234 84.2781 169.335 83.8045 168.414 83.4794C168.309 83.4422 168.224 83.365 168.176 83.2648C168.129 83.1646 168.123 83.0496 168.16 82.9451C168.178 82.8932 168.206 82.8455 168.243 82.8046C168.28 82.7637 168.324 82.7305 168.374 82.7068C168.423 82.6831 168.477 82.6695 168.532 82.6667C168.587 82.6638 168.642 82.6719 168.694 82.6903C169.689 83.0419 170.66 83.5525 171.562 84.2021C171.749 84.3376 171.792 84.5978 171.658 84.7863C171.543 84.9431 171.341 84.9987 171.168 84.9324ZM177.611 80.9828C177.519 80.9474 177.443 80.8808 177.395 80.7946C177.348 80.7085 177.332 80.6084 177.352 80.5119C177.537 79.5592 177.662 78.529 177.723 77.4531C177.729 77.3423 177.779 77.2385 177.862 77.1644C177.945 77.0904 178.053 77.0521 178.164 77.0579C178.275 77.0643 178.379 77.1144 178.453 77.1972C178.527 77.28 178.565 77.3888 178.558 77.4996C178.496 78.6142 178.367 79.6803 178.172 80.6708C178.151 80.7798 178.088 80.8759 177.996 80.9381C177.904 81.0003 177.791 81.0234 177.682 81.0024C177.658 80.9984 177.634 80.9918 177.611 80.9828ZM177.999 74.7311C177.923 74.7019 177.857 74.6513 177.81 74.5855C177.762 74.5196 177.735 74.4414 177.731 74.3603C177.682 73.3258 177.593 72.2937 177.463 71.2663C177.449 71.1561 177.48 71.0451 177.548 70.9574C177.616 70.8696 177.715 70.8123 177.825 70.7978C177.936 70.7842 178.046 70.8148 178.134 70.8829C178.222 70.9509 178.279 71.0508 178.293 71.1608C178.428 72.2493 178.521 73.3108 178.566 74.3202C178.569 74.3896 178.555 74.4586 178.525 74.5212C178.495 74.5838 178.45 74.6379 178.393 74.6786C178.337 74.7194 178.272 74.7455 178.203 74.7546C178.134 74.7638 178.064 74.7557 177.999 74.7311ZM177.176 68.5179C177.113 68.4937 177.056 68.4546 177.011 68.4038C176.967 68.3531 176.935 68.2922 176.919 68.2264C176.673 67.2289 176.363 66.2483 175.991 65.2904C175.951 65.1869 175.953 65.0715 175.998 64.9697C176.042 64.868 176.125 64.7881 176.229 64.7477C176.28 64.7276 176.335 64.7178 176.39 64.7189C176.445 64.7199 176.499 64.7319 176.549 64.7539C176.599 64.776 176.645 64.8078 176.683 64.8475C176.721 64.8872 176.75 64.934 176.77 64.9852C177.155 65.9771 177.476 66.9927 177.731 68.0258C177.749 68.0999 177.747 68.1776 177.724 68.2505C177.701 68.3233 177.659 68.3886 177.602 68.4392C177.545 68.4898 177.475 68.5239 177.4 68.5378C177.325 68.5516 177.247 68.5448 177.176 68.5179ZM174.919 62.6873C174.825 62.6515 174.748 62.5831 174.7 62.4948C174.211 61.5888 173.672 60.7109 173.084 59.8652C173.053 59.8201 173.031 59.7692 173.019 59.7155C173.007 59.6618 173.006 59.6063 173.016 59.5522C173.026 59.4982 173.046 59.4465 173.076 59.4003C173.106 59.3541 173.144 59.3143 173.19 59.283C173.379 59.1509 173.64 59.1967 173.771 59.3875C174.377 60.2589 174.933 61.1638 175.436 62.0979C175.462 62.1463 175.479 62.1994 175.484 62.2541C175.49 62.3088 175.485 62.364 175.469 62.4167C175.453 62.4693 175.427 62.5184 175.392 62.5609C175.357 62.6035 175.314 62.6388 175.266 62.6647C175.213 62.6934 175.155 62.7103 175.095 62.7142C175.035 62.7181 174.975 62.7089 174.919 62.6873ZM111.167 34.7478C111.088 34.7176 111.021 34.6645 110.973 34.5953C110.925 34.5261 110.899 34.4441 110.898 34.36C110.898 34.2491 110.941 34.1425 111.019 34.0633C111.096 33.9841 111.202 33.9389 111.313 33.9374C112.22 33.9304 113.284 33.967 114.479 34.0464C114.534 34.05 114.587 34.0645 114.636 34.0888C114.686 34.1132 114.73 34.147 114.766 34.1884C114.802 34.2297 114.829 34.2778 114.847 34.3298C114.864 34.3818 114.872 34.4368 114.868 34.4916C114.86 34.6023 114.809 34.7055 114.726 34.7786C114.642 34.8517 114.533 34.8888 114.423 34.8817C113.249 34.8049 112.203 34.7683 111.319 34.7762C111.267 34.7763 111.215 34.7667 111.167 34.7478ZM171.358 57.5367C171.293 57.5119 171.236 57.471 171.191 57.418C170.519 56.6336 169.812 55.8792 169.074 55.157C169.035 55.1186 169.003 55.0728 168.982 55.0223C168.96 54.9719 168.949 54.9176 168.948 54.8627C168.948 54.8078 168.958 54.7534 168.979 54.7025C168.999 54.6516 169.03 54.6053 169.068 54.5662C169.106 54.5268 169.152 54.4954 169.202 54.4738C169.253 54.4521 169.307 54.4407 169.362 54.4401C169.417 54.4395 169.471 54.4497 169.522 54.4702C169.573 54.4908 169.619 54.5211 169.658 54.5596C170.414 55.2996 171.137 56.0717 171.826 56.8738C171.886 56.9446 171.921 57.0334 171.926 57.1263C171.93 57.2192 171.903 57.3109 171.85 57.3869C171.796 57.4629 171.719 57.5189 171.63 57.5461C171.541 57.5732 171.445 57.5699 171.358 57.5367ZM117.427 35.1293C117.341 35.0962 117.268 35.0355 117.22 34.9567C117.172 34.8778 117.152 34.7854 117.162 34.6936C117.167 34.639 117.184 34.586 117.21 34.5377C117.236 34.4894 117.272 34.4468 117.315 34.4123C117.358 34.3778 117.407 34.3521 117.459 34.3367C117.512 34.3213 117.568 34.3166 117.622 34.3226C118.627 34.4302 119.678 34.5592 120.747 34.7083C120.802 34.7159 120.854 34.7342 120.902 34.762C120.949 34.7899 120.99 34.8268 121.023 34.8706C121.057 34.9145 121.081 34.9644 121.094 35.0176C121.108 35.0708 121.111 35.1262 121.104 35.1806C121.096 35.2351 121.078 35.2876 121.05 35.335C121.023 35.3825 120.986 35.424 120.942 35.4572C120.898 35.4904 120.848 35.5146 120.795 35.5285C120.742 35.5424 120.686 35.5456 120.632 35.5381C119.6 35.3948 118.566 35.2674 117.531 35.1559C117.495 35.1513 117.46 35.1424 117.427 35.1293ZM166.894 53.144C166.851 53.1274 166.81 53.1038 166.775 53.074C165.981 52.4087 165.165 51.7697 164.329 51.1579C164.24 51.0923 164.18 50.994 164.163 50.8845C164.146 50.7749 164.174 50.6631 164.239 50.5736C164.304 50.4841 164.402 50.4243 164.512 50.4071C164.621 50.39 164.733 50.4169 164.822 50.4821C165.674 51.1046 166.504 51.755 167.313 52.4323C167.388 52.496 167.439 52.5844 167.456 52.682C167.473 52.7796 167.455 52.8799 167.404 52.9653C167.354 53.0506 167.275 53.1154 167.182 53.1481C167.088 53.1808 166.986 53.1794 166.894 53.144ZM123.641 35.984C123.544 35.9469 123.464 35.8751 123.417 35.7827C123.37 35.6903 123.359 35.5837 123.387 35.4837C123.414 35.3837 123.477 35.2973 123.564 35.2413C123.652 35.1853 123.756 35.1637 123.859 35.1806C124.88 35.3488 125.922 35.5346 126.956 35.732C127.065 35.7531 127.161 35.8165 127.223 35.9082C127.286 35.9999 127.309 36.1125 127.289 36.2215C127.268 36.3305 127.205 36.4268 127.113 36.4893C127.021 36.5519 126.909 36.5756 126.8 36.5554C125.776 36.3607 124.75 36.1781 123.721 36.0075C123.694 36.0022 123.667 35.9943 123.641 35.984ZM129.801 37.1579C129.708 37.1222 129.63 37.0541 129.583 36.9661C129.535 36.8781 129.521 36.776 129.543 36.6784C129.566 36.5699 129.632 36.4751 129.725 36.4149C129.819 36.3546 129.932 36.3339 130.04 36.3571C131.064 36.5769 132.096 36.8109 133.108 37.0547C133.162 37.0673 133.212 37.0904 133.257 37.1226C133.301 37.1548 133.339 37.1956 133.368 37.2425C133.397 37.2895 133.416 37.3416 133.424 37.396C133.432 37.4503 133.43 37.5058 133.417 37.5592C133.391 37.667 133.323 37.7602 133.229 37.8182C133.134 37.8762 133.02 37.8944 132.913 37.8686C131.899 37.6255 130.883 37.3942 129.864 37.1747C129.842 37.1716 129.821 37.166 129.801 37.1579ZM161.843 49.4361C161.816 49.4255 161.791 49.4126 161.766 49.3974C160.894 48.835 160.008 48.2942 159.109 47.7752C159.013 47.7198 158.943 47.6285 158.914 47.5215C158.885 47.4145 158.9 47.3004 158.955 47.2043C158.983 47.1565 159.019 47.1147 159.063 47.0811C159.106 47.0475 159.156 47.0229 159.209 47.0086C159.262 46.9943 159.318 46.9906 159.372 46.9977C159.427 47.0049 159.48 47.0227 159.527 47.0503C160.439 47.5749 161.337 48.123 162.221 48.6941C162.314 48.7544 162.38 48.8491 162.403 48.9576C162.426 49.066 162.406 49.1793 162.346 49.2725C162.293 49.3528 162.214 49.4128 162.123 49.4425C162.032 49.4723 161.933 49.47 161.843 49.4361ZM135.899 38.6211C135.803 38.5838 135.724 38.5123 135.677 38.4203C135.63 38.3284 135.619 38.2223 135.645 38.1225C135.673 38.0153 135.743 37.9239 135.839 37.8681C135.934 37.8123 136.048 37.7968 136.156 37.825C137.169 38.0936 138.179 38.3751 139.186 38.6694C139.291 38.7018 139.379 38.7744 139.432 38.8713C139.484 38.9683 139.496 39.0819 139.465 39.1876C139.434 39.2933 139.362 39.3826 139.266 39.4361C139.17 39.4896 139.057 39.5031 138.95 39.4737C137.951 39.1822 136.947 38.9026 135.94 38.6351C135.927 38.6302 135.912 38.6262 135.899 38.6211ZM156.414 46.2999C156.399 46.2945 156.385 46.2882 156.371 46.2812C155.448 45.8035 154.515 45.3447 153.573 44.905C153.523 44.8818 153.478 44.8489 153.441 44.8083C153.404 44.7677 153.375 44.7201 153.356 44.6684C153.338 44.6166 153.33 44.5617 153.332 44.5067C153.335 44.4518 153.349 44.3979 153.372 44.3483C153.395 44.2984 153.428 44.2535 153.469 44.2163C153.509 44.1792 153.557 44.1504 153.609 44.1317C153.66 44.1129 153.715 44.1046 153.77 44.1073C153.825 44.1099 153.879 44.1234 153.929 44.1469C154.88 44.5926 155.823 45.0565 156.757 45.5383C156.855 45.5894 156.929 45.6775 156.963 45.7831C156.996 45.8888 156.986 46.0035 156.936 46.102C156.888 46.1933 156.809 46.2639 156.713 46.3004C156.617 46.3369 156.51 46.3367 156.414 46.2999ZM141.916 40.3795C141.816 40.341 141.735 40.2658 141.689 40.1693C141.643 40.0729 141.635 39.9624 141.668 39.8606C141.701 39.755 141.776 39.6672 141.874 39.6163C141.972 39.5655 142.087 39.5557 142.193 39.5892C143.191 39.9097 144.186 40.2439 145.175 40.5916C145.28 40.6295 145.365 40.7069 145.412 40.8069C145.46 40.907 145.467 41.0218 145.431 41.1266C145.394 41.2313 145.318 41.3172 145.218 41.3654C145.118 41.4136 145.003 41.4202 144.898 41.3838C143.916 41.0378 142.929 40.7062 141.937 40.3893C141.931 40.3851 141.924 40.3828 141.916 40.3795ZM150.737 43.6403L150.722 43.6345C149.764 43.2278 148.8 42.8375 147.829 42.4636C147.725 42.4234 147.642 42.3438 147.597 42.2423C147.552 42.1407 147.549 42.0255 147.589 41.9218C147.609 41.8706 147.638 41.8238 147.676 41.7841C147.714 41.7443 147.759 41.7124 147.809 41.6901C147.859 41.6679 147.913 41.6557 147.968 41.6544C148.023 41.653 148.077 41.6625 148.128 41.6822L148.13 41.6827C149.109 42.0604 150.083 42.4547 151.049 42.8652C151.1 42.8866 151.145 42.9178 151.184 42.957C151.222 42.9961 151.253 43.0425 151.273 43.0934C151.293 43.1443 151.304 43.1987 151.303 43.2536C151.303 43.3084 151.291 43.3626 151.27 43.4131C151.228 43.5126 151.149 43.5919 151.049 43.6343C150.95 43.6767 150.838 43.6788 150.737 43.6403Z" fill="#E1E4E5"/>
<path fill-rule="evenodd" clip-rule="evenodd" d="M99.9019 56.0047C98.6993 54.5739 95.8492 54.3235 93.9853 56.171C92.7815 57.3645 92.5839 58.7228 92.8228 59.6701C92.8345 59.7168 92.845 59.7639 92.8541 59.8115L97.8691 86.0253C99.0353 91.3673 103.279 95.585 108.694 96.7465L135.138 101.718L135.145 101.72L135.162 101.723C136.535 101.995 138 101.435 138.853 100.589C140.606 98.8507 140.606 96.3709 138.853 94.6328L100.055 56.171C100.002 56.1178 99.9505 56.0623 99.9019 56.0047ZM87.9592 57.0404L68.7461 76.2536C64.2747 80.7249 64.2747 87.5502 68.7461 92.0215L99.0519 122.327C100.027 123.302 101.607 123.302 102.582 122.327C102.612 122.298 102.64 122.269 102.667 122.238L104.949 124.495L106.813 123.116L117.817 123.995L119.039 122.637C120.02 123.485 121.504 123.443 122.435 122.512L138.566 106.381C137.213 106.795 135.719 106.921 134.204 106.623L107.742 101.648C107.723 101.645 107.703 101.641 107.684 101.636C100.343 100.077 94.5619 94.3579 92.9827 87.0522C92.9785 87.0328 92.9745 87.0134 92.9708 86.9939L87.9623 60.8139C87.6732 59.6157 87.6617 58.3212 87.9592 57.0404Z" fill="#E71D7C"/>
<path d="M105.709 34.1182L105.77 36.9476L90.5156 38.0884L105.709 34.1182Z" fill="white"/>
<path d="M105.446 40.1121L103.399 42.1248L91.2021 38.0256L105.446 40.1121Z" fill="#E71D7C"/>
<path d="M90.5156 38.0884L112.583 42.4902L107.516 36.5295L90.5156 38.0884Z" fill="#E71D7C"/>
<path d="M105.71 34.1185L90.5158 38.0886L102.69 30.0883L105.71 34.1185ZM161.283 125.085C156.327 125.178 155.016 125.569 149.871 125.408C147.421 125.431 144.806 125.362 142.411 125.316C141.272 125.016 139.269 125.316 137.918 125.062L137.4 125.223C136.937 125.131 136.395 125.085 135.923 125.178L135.955 125.223C135.264 125.108 134.478 125.178 134.141 125.108L134.172 125.154L133.332 125.131L133.473 125.2C132.264 125.062 131.023 125.062 129.923 125.108L130.017 124.901C127.669 125.131 126.813 124.716 124.701 124.97L124.732 125.016C122.054 124.486 120.507 125.385 117.75 124.878C118.096 124.947 117.601 124.97 117.632 125.039C116.36 124.993 115.009 124.947 114.985 124.555C114.059 124.555 114.232 124.67 114.114 124.832C114.122 124.67 113.313 124.578 112.59 124.578L112.92 124.647L110.847 124.578L111.255 124.255C110.155 124.348 110.972 124.647 109.928 124.578L109.943 124.301C108.428 124.348 107.532 124.762 106.064 124.97C99.9537 125.085 93.3879 124.393 87.7097 124.878L87.4584 125.085C87.3485 125.385 85.8876 124.647 85.6755 124.924L85.0159 124.786C84.8274 124.831 84.4347 124.901 84.7646 124.97C84.1521 124.993 84.1362 124.924 83.6966 124.855L83.0368 125.039C80.6257 125.178 78.5759 124.832 76.0391 124.901C72.992 125.27 67.2511 124.924 63.9445 124.739C59.2953 124.301 53.8918 125.477 49.1325 124.97C48.9755 125.016 48.5751 124.924 48.5828 124.878L44.2241 124.924C44.2241 124.924 23.1056 125.039 39.1505 122.572L39.0406 122.503C41.4281 122.342 42.9282 122.319 44.5697 122.641C44.8289 122.249 46.5252 122.595 47.0829 122.48L47.0278 122.457C48.4808 122.757 50.0201 122.203 51.4259 122.48C51.3709 122.457 51.3396 122.342 51.0176 122.342C52.0384 122.388 53.4363 122.48 53.515 122.249C55.9575 122.319 59.3581 122.203 60.921 122.572L60.8111 122.503C61.6984 122.757 61.9654 122.549 62.9629 122.665C63.0179 122.641 63.0886 122.618 63.0728 122.595C64.0467 122.849 65.908 122.641 66.6855 122.734L66.7326 122.572L68.6646 122.618L67.9422 122.641C68.1935 123.056 69.4029 122.365 70.8008 122.641C72.1123 122.595 73.4633 123.518 74.8218 123.31C75.4737 123.518 74.2485 122.987 75.2224 123.149C75.2539 122.918 74.767 123.01 75.0183 122.826C75.9686 122.941 76.5811 122.595 77.7592 122.757L77.8064 122.595C79.3377 122.918 80.6964 122.365 81.7175 122.665C83.296 122.803 82.7775 122.157 84.427 122.48L85.071 122.249C85.7777 122.203 85.5736 122.526 86.359 122.411C86.3118 122.273 87.3485 122.296 86.8851 122.157C88.6522 121.927 90.4743 122.48 92.8067 122.088C93.3095 122.365 94.4874 122.203 94.8644 122.411C94.9272 122.296 97.2127 122.388 95.9011 122.111C95.7912 122.088 95.5871 122.088 95.6027 122.134L95.4457 121.973C96.7729 121.65 97.8567 122.157 99.176 122.088C98.7835 122.134 98.265 122.134 98.6106 122.249L99.8358 122.226L99.5845 122.088L101.406 121.996L101.155 122.18C102.043 122.088 102.357 121.788 103.362 122.042C103.818 122.18 102.522 122.273 103.456 122.342C104.65 122.226 106.433 122.042 107.949 121.996C107.807 122.203 108.216 122.18 108.64 122.226L108.687 122.065C110.297 122.296 109.276 121.696 110.878 121.881L110.737 121.765L111.161 122.134C112.606 122.48 111.938 121.788 113.54 122.249C112.904 122.226 113.242 122.618 114.019 122.549L113.823 122.388C114.255 122.434 114.397 122.503 114.687 122.457C114.428 122.365 114.554 122.226 115.19 122.249L114.766 122.042L115.967 122.342C116.894 122.157 118.363 122.388 118.748 122.157C118.748 122.157 120.742 122.042 121.198 122.296C120.797 122.134 121.897 122.065 121.583 121.881C122.101 122.065 123.624 122.203 124.237 122.019L124.119 121.996C126.381 121.788 127.983 122.272 130.01 122.019C129.915 122.226 130.991 122.111 130.724 122.365C132.821 122.618 134.549 121.835 135.311 122.641C136.269 122.688 136.442 122.457 136.937 122.411L136.709 122.365C138.499 122.434 139.018 122.434 140.345 122.411C141.005 122.48 141.115 122.849 142.3 122.757C141.916 122.618 142.403 122.641 142.842 122.641C142.56 122.618 142.473 122.572 143.055 122.457C143.133 122.503 143.266 122.526 143.384 122.549C143.392 122.549 143.416 122.526 143.4 122.503C144.138 122.549 144.013 122.595 143.667 122.618C143.683 122.641 143.659 122.665 143.549 122.71C144.319 122.526 145.693 122.734 145.788 122.48C148.018 122.549 149.612 122.803 151.466 122.895C151.678 122.757 151.238 122.641 150.704 122.595L152.023 122.641C152.015 122.457 151.269 122.526 150.861 122.503C152.432 122.203 154.097 122.803 155.935 122.526L156.319 122.665L156.429 122.641C156.421 122.71 156.838 122.826 157.105 122.849C157.364 122.688 157.089 122.48 158 122.48C158.722 122.319 160.042 122.549 160.984 122.641C160.474 122.665 160.639 122.757 160.859 122.826C161.314 122.826 161.573 122.665 161.927 122.734L161.974 122.526C161.793 122.734 163.16 122.757 163.333 122.826C163.592 122.665 162.626 122.688 162.516 122.572C164.338 122.595 163.427 122.572 165.257 122.595C166.231 122.757 165.076 122.803 165.547 122.987C166.403 123.033 167.244 123.172 168.233 123.056L167.919 123.241C169.537 123.402 170.503 123.379 171.587 123.172C183.619 124.739 174.124 125.316 174.124 125.316C169.364 125.8 166.922 125.247 161.283 125.085Z" fill="#E71D7C"/>
<path d="M155.244 78.8043C154.208 79.4028 152.882 79.0476 152.284 78.0109C151.685 76.9743 152.04 75.6487 153.077 75.0502C154.114 74.4516 155.439 74.8068 156.038 75.8435C156.636 76.8802 156.281 78.2058 155.244 78.8043Z" fill="#31446C"/>
<path d="M52.0335 104.067C53.451 104.067 54.6001 105.216 54.6001 106.633C54.6001 108.051 53.451 109.2 52.0335 109.2C50.6159 109.2 49.4668 108.051 49.4668 106.633C49.4668 105.216 50.6159 104.067 52.0335 104.067Z" fill="#31446C"/>
<path d="M75.2474 54.3667C74.2822 54.3667 73.4998 55.1491 73.4998 56.1143C73.4998 57.0795 74.2822 57.862 75.2474 57.862C76.2127 57.862 76.9951 57.0795 76.9951 56.1143C76.9951 55.1491 76.2127 54.3667 75.2474 54.3667Z" fill="#E1E4E5"/>
<path d="M64.3986 104.04C63.5024 104.04 62.7758 104.766 62.7758 105.663C62.7758 106.559 63.5024 107.285 64.3986 107.285C65.2949 107.285 66.0215 106.559 66.0215 105.663C66.0215 104.766 65.2949 104.04 64.3986 104.04Z" fill="#E1E4E5"/>
<path d="M41.6799 77.0775C40.7836 77.0775 40.0571 77.804 40.0571 78.7003C40.0571 79.5966 40.7836 80.3231 41.6799 80.3231C42.5762 80.3231 43.3027 79.5966 43.3027 78.7003C43.3027 77.804 42.5762 77.0775 41.6799 77.0775Z" fill="#E1E4E5"/>
<path d="M54.6927 56.4811C57.0557 56.4811 58.9713 58.3967 58.9713 60.7598C58.9713 63.1228 57.0557 65.0384 54.6927 65.0384C52.3297 65.0384 50.4141 63.1228 50.4141 60.7598C50.4141 58.3967 52.3297 56.4811 54.6927 56.4811Z" fill="#E71D7C"/>
<path d="M122.118 53.6347C122.904 54.4206 124.178 54.4206 124.964 53.6347C125.75 52.8489 125.75 51.5748 124.964 50.7889C124.178 50.0031 122.904 50.0031 122.118 50.7889C121.332 51.5748 121.332 52.8489 122.118 53.6347Z" fill="#E1E4E5"/>
<path d="M151.605 98.1894C150.197 96.7816 150.197 94.4992 151.605 93.0915C153.013 91.6837 155.295 91.6837 156.703 93.0915C158.111 94.4992 158.111 96.7816 156.703 98.1894C155.295 99.5971 153.013 99.5971 151.605 98.1894Z" fill="#E71D7C"/>
</g>
<defs>
<linearGradient id="paint0_linear_2257_501561" x1="54.7377" y1="169.607" x2="169.175" y2="-5.78387" gradientUnits="userSpaceOnUse">
<stop stop-color="white"/>
<stop offset="1" stop-color="#EEEEEE"/>
</linearGradient>
<linearGradient id="paint1_linear_2257_501561" x1="123.249" y1="80.7718" x2="165.06" y2="39.9511" gradientUnits="userSpaceOnUse">
<stop stop-color="white"/>
<stop offset="1" stop-color="#EEEEEE"/>
</linearGradient>
</defs>
</svg>
