<svg width="214" height="143" viewBox="0 0 214 143" fill="none" xmlns="http://www.w3.org/2000/svg">
<g clip-path="url(#clip0_2257_502225)">
<path d="M50.9699 113.037C54.8742 117.011 62.1749 116.173 62.1749 116.173C62.1749 116.173 63.1412 108.892 59.2331 104.921C55.3291 100.947 48.0317 101.783 48.0317 101.783C48.0317 101.783 47.0656 109.063 50.9699 113.037Z" fill="url(#paint0_linear_2257_502225)"/>
<path d="M152.045 29.8452C147.956 32.1773 142.214 29.8164 142.214 29.8164C142.214 29.8164 143.104 23.6753 147.194 21.346C151.283 19.0139 157.023 21.3722 157.023 21.3722C157.023 21.3722 156.133 27.5133 152.045 29.8452Z" fill="url(#paint1_linear_2257_502225)"/>
<path d="M77.2325 37.125C73.0305 41.4019 65.1724 40.5 65.1724 40.5C65.1724 40.5 64.1326 32.664 68.3387 28.3897C72.5409 24.1128 80.3949 25.0118 80.3949 25.0118C80.3949 25.0118 81.4347 32.848 77.2325 37.125Z" fill="url(#paint2_linear_2257_502225)"/>
<path d="M54.2301 77.5225C56.2223 77.5225 57.8372 79.2181 57.8372 81.3098C57.8372 83.4015 56.2223 85.0971 54.2301 85.0971C52.238 85.0971 50.623 83.4015 50.623 81.3098C50.623 79.2181 52.238 77.5225 54.2301 77.5225Z" fill="#E1E4E5"/>
<path d="M113.777 119.127C114.893 119.127 115.798 120.032 115.798 121.148C115.798 122.264 114.893 123.169 113.777 123.169C112.661 123.169 111.756 122.264 111.756 121.148C111.756 120.032 112.661 119.127 113.777 119.127Z" fill="#E71D7C"/>
<path d="M164.904 95.8244C167.204 95.8244 169.069 97.6894 169.069 99.9898C169.069 102.29 167.204 104.155 164.904 104.155C162.603 104.155 160.738 102.29 160.738 99.9898C160.738 97.6894 162.603 95.8244 164.904 95.8244Z" fill="#E71D7C"/>
<path d="M168.39 66.6648C170.253 66.6648 171.762 65.1549 171.762 63.2924C171.762 61.4299 170.253 59.92 168.39 59.92C166.527 59.92 165.018 61.4299 165.018 63.2924C165.018 65.1549 166.527 66.6648 168.39 66.6648Z" fill="#31446C"/>
<path d="M58.874 56.5333C60.4677 56.5333 61.7596 55.2414 61.7596 53.6477C61.7596 52.0539 60.4677 50.762 58.874 50.762C57.2802 50.762 55.9883 52.0539 55.9883 53.6477C55.9883 55.2414 57.2802 56.5333 58.874 56.5333Z" fill="#F8AE9D"/>
<path d="M75.2151 123.106C76.1769 123.106 76.9566 122.375 76.9566 121.473C76.9566 120.571 76.1769 119.84 75.2151 119.84C74.2533 119.84 73.4736 120.571 73.4736 121.473C73.4736 122.375 74.2533 123.106 75.2151 123.106Z" fill="#E1E4E5"/>
<path d="M158.073 90.5401C159.36 90.5401 160.403 89.5407 160.403 88.3078C160.403 87.075 159.36 86.0756 158.073 86.0756C156.787 86.0756 155.744 87.075 155.744 88.3078C155.744 89.5407 156.787 90.5401 158.073 90.5401Z" fill="#E1E4E5"/>
<path d="M148.701 116.691C150.195 116.691 151.406 115.479 151.406 113.985C151.406 112.491 150.195 111.28 148.701 111.28C147.207 111.28 145.996 112.491 145.996 113.985C145.996 115.479 147.207 116.691 148.701 116.691Z" fill="#E1E4E5"/>
<path d="M95.3551 28.6422C96.0523 28.6422 96.6175 27.9963 96.6175 27.1994C96.6175 26.4026 96.0523 25.7566 95.3551 25.7566C94.658 25.7566 94.0928 26.4026 94.0928 27.1994C94.0928 27.9963 94.658 28.6422 95.3551 28.6422Z" fill="#E1E4E5"/>
<path d="M156.089 71.1882C155.899 71.896 156.319 72.6236 157.027 72.8132C157.735 73.0029 158.462 72.5828 158.652 71.875C158.841 71.1672 158.421 70.4397 157.714 70.2501C157.006 70.0604 156.278 70.4804 156.089 71.1882Z" fill="#E1E4E5"/>
<path d="M155.689 55.5608C156.685 55.5608 157.493 54.7534 157.493 53.7573C157.493 52.7612 156.685 51.9537 155.689 51.9537C154.693 51.9537 153.886 52.7612 153.886 53.7573C153.886 54.7534 154.693 55.5608 155.689 55.5608Z" fill="#E1E4E5"/>
<path d="M60.4333 68.836C61.1304 68.836 61.6956 68.3515 61.6956 67.7538C61.6956 67.1562 61.1304 66.6717 60.4333 66.6717C59.7361 66.6717 59.1709 67.1562 59.1709 67.7538C59.1709 68.3515 59.7361 68.836 60.4333 68.836Z" fill="#E1E4E5"/>
<path d="M121.301 24.554C120.907 26.027 121.781 27.5412 123.254 27.9359C124.727 28.3306 126.241 27.4564 126.636 25.9833C127.031 24.5103 126.156 22.9961 124.683 22.6014C123.21 22.2067 121.696 23.0809 121.301 24.554Z" fill="#E1E4E5"/>
<path d="M38.595 73.26H38.5596C38.3501 76.2289 36.1426 76.2746 36.1426 76.2746C36.1426 76.2746 38.5769 76.3221 38.5769 79.7528C38.5769 76.3221 41.0113 76.2746 41.0113 76.2746C41.0113 76.2746 38.8045 76.2289 38.595 73.26ZM165.052 35.5694H164.992C164.631 40.6826 160.829 40.7613 160.829 40.7613C160.829 40.7613 165.021 40.8433 165.021 46.7514C165.021 40.8433 169.214 40.7613 169.214 40.7613C169.214 40.7613 165.413 40.6826 165.052 35.5694Z" fill="#E1E4E5"/>
<path fill-rule="evenodd" clip-rule="evenodd" d="M131.661 94.5179V107.863C131.661 112.778 127.68 116.759 122.764 116.759H78.2812C73.3659 116.759 69.3848 112.778 69.3848 107.863V63.3797C69.3848 58.4643 73.3659 54.483 78.2812 54.483H91.6263" fill="url(#paint3_linear_2257_502225)"/>
<path fill-rule="evenodd" clip-rule="evenodd" d="M86.3297 36.958H137.226C143.475 36.958 148.536 42.0194 148.536 48.2682V99.1643C148.536 105.413 143.475 110.474 137.226 110.474H86.3297C80.0809 110.474 75.0195 105.413 75.0195 99.1643V48.2682C75.0195 42.0194 80.0809 36.958 86.3297 36.958Z" fill="#E71D7C"/>
<path d="M101.083 73.1797L109.15 81.2461L126.754 63.6365" stroke="white" stroke-width="7.63861" stroke-linecap="round" stroke-linejoin="round"/>
</g>
<defs>
<linearGradient id="paint0_linear_2257_502225" x1="66.5472" y1="126.61" x2="38.3215" y2="82.3641" gradientUnits="userSpaceOnUse">
<stop stop-color="white"/>
<stop offset="1" stop-color="#EEEEEE"/>
</linearGradient>
<linearGradient id="paint1_linear_2257_502225" x1="136.258" y1="37.2955" x2="169.385" y2="7.82028" gradientUnits="userSpaceOnUse">
<stop stop-color="white"/>
<stop offset="1" stop-color="#EEEEEE"/>
</linearGradient>
<linearGradient id="paint2_linear_2257_502225" x1="60.4668" y1="51.734" x2="90.846" y2="4.11189" gradientUnits="userSpaceOnUse">
<stop stop-color="white"/>
<stop offset="1" stop-color="#EEEEEE"/>
</linearGradient>
<linearGradient id="paint3_linear_2257_502225" x1="99.195" y1="19.5675" x2="101.115" y2="184.505" gradientUnits="userSpaceOnUse">
<stop stop-color="white"/>
<stop offset="1" stop-color="#EEEEEE"/>
</linearGradient>
<clipPath id="clip0_2257_502225">
<rect width="214" height="142.667" fill="white"/>
</clipPath>
</defs>
</svg>
