<svg width="45" height="45" viewBox="0 0 45 45" fill="none" xmlns="http://www.w3.org/2000/svg">
<path d="M42.8496 10.2149L23.058 1.88134C22.93 1.82747 22.7925 1.79971 22.6537 1.79971C22.5148 1.79971 22.3773 1.82747 22.2493 1.88134L2.45762 10.2149C2.26874 10.2945 2.10753 10.4281 1.99418 10.5988C1.88082 10.7696 1.82034 10.97 1.82031 11.175V34.0916C1.82035 34.2966 1.88083 34.497 1.99419 34.6678C2.10754 34.8386 2.26874 34.9722 2.45762 35.0518L22.2492 43.3852C22.3773 43.439 22.5147 43.4667 22.6536 43.4667C22.7924 43.4667 22.9299 43.439 23.0579 43.3852L42.8496 35.0519C43.0385 34.9723 43.1997 34.8387 43.313 34.6679C43.4264 34.4971 43.4869 34.2967 43.4869 34.0917V11.175C43.4869 10.97 43.4264 10.7696 43.3131 10.5988C43.1997 10.4281 43.0385 10.2945 42.8496 10.2149ZM22.6536 18.3781L14.8514 15.093L31.8541 7.93398C31.8854 7.91893 31.9158 7.90231 31.9454 7.88417L39.7608 11.1752L22.6536 18.3781ZM22.6536 3.97177L29.2747 6.75956L12.3534 13.8842C12.2968 13.9088 12.2424 13.9384 12.191 13.9727L5.54639 11.175L22.6536 3.97177ZM3.90361 12.7438L21.6119 20.2V40.856L3.90361 33.3999V12.7438ZM23.6953 40.856V20.2L41.4036 12.7438V33.3999L23.6953 40.856Z" fill="#E71D7C" stroke="#E71D7C" stroke-width="2"/>
</svg>
