<svg width="60" height="62" viewBox="0 0 60 62" fill="none" xmlns="http://www.w3.org/2000/svg">
<path d="M53.6592 12.5651C50.6816 12.5651 48.2589 14.9876 48.2589 17.9655V31.9738L47.213 33.0556C46.9388 32.4213 46.5411 31.8292 46.0207 31.3171C43.8517 29.1827 40.342 29.202 38.1964 31.3607L29.812 39.7975L21.4274 31.3606C19.2822 29.202 15.7723 29.1823 13.6031 31.3169C13.0827 31.829 12.6853 32.4212 12.4108 33.0555L11.3649 31.9736V17.9653C11.3649 14.9876 8.94238 12.5649 5.96462 12.5649C2.98686 12.5649 0.564453 14.9876 0.564453 17.9653V35.0551C0.564453 36.8162 1.0411 38.5466 1.94286 40.0591L12.1256 55.0289L10.9599 61.8343H48.6641L47.4984 55.029L57.6811 40.0592C58.5829 38.5466 59.0595 36.8162 59.0595 35.0551V17.9653C59.0595 14.9876 56.637 12.5651 53.6592 12.5651ZM28.0983 58.4069H15.0244L15.7373 54.2444L4.86224 38.2624C4.29271 37.2903 3.9919 36.1824 3.9919 35.0551V17.9653C3.9919 16.8776 4.87686 15.9924 5.96473 15.9924C7.05261 15.9924 7.93757 16.8775 7.93757 17.9653V33.3596L19.6325 45.4553L22.0963 43.0727L15.8778 36.6413C15.1677 35.8048 15.2146 34.5397 16.0071 33.7599C16.8358 32.9444 18.1765 32.9521 18.9962 33.7766L28.0983 42.9353V58.4069ZM55.6321 35.0551C55.6321 36.1823 55.3312 37.2902 54.7617 38.2623L43.8867 54.2444L44.5996 58.4069H31.5257V42.9353L40.6276 33.7766C41.4472 32.9519 42.7881 32.9446 43.6167 33.7599C44.4092 34.5397 44.4562 35.8047 43.746 36.6413L37.5275 43.0727L39.9914 45.4553L51.6864 33.3597V17.9653C51.6864 16.8776 52.5714 15.9924 53.6592 15.9924C54.7471 15.9924 55.6321 16.8776 55.6321 17.9653V35.0551Z" fill="#212529"/>
<path d="M29.8128 0L33.3774 10.1048H44.9129L35.5805 16.3499L39.1452 26.4546L29.8128 20.2095L20.4804 26.4546L24.045 16.3499L14.7126 10.1048H26.2481L29.8128 0Z" fill="#E71D7C"/>
</svg>
