
<svg width="235" height="257" viewBox="0 0 235 257" fill="none" xmlns="http://www.w3.org/2000/svg">
<g filter="url(#filter0_dddddd_4425_504329)">
<rect x="80" y="2" width="74.2258" height="74.2258" rx="20" fill="url(#paint0_linear_4425_504329)"/>
</g>
<path d="M110 53.3425L107.946 55.3817L100.617 48.2911L105.868 43.1155C106.932 42.0596 108.274 41.323 109.74 40.9904C111.206 40.6577 112.737 40.7425 114.157 41.235L115.311 41.6353H122.39C122.689 41.6351 122.985 41.6947 123.261 41.8105C123.537 41.9263 123.786 42.0959 123.995 42.3093C124.203 42.5227 124.366 42.7755 124.474 43.0527C124.583 43.3299 124.634 43.6258 124.624 43.9229C124.59 44.5102 124.329 45.0617 123.895 45.4623C123.461 45.8629 122.888 46.0815 122.296 46.0725H118.049C117.819 46.0725 117.598 46.1634 117.435 46.3252C117.272 46.4869 117.18 46.7063 117.18 46.9351C117.18 47.1639 117.272 47.3833 117.435 47.5451C117.598 47.7068 117.819 47.7977 118.049 47.7977H122.31C123.349 47.8028 124.35 47.4108 125.107 46.703C125.863 45.9952 126.316 45.0257 126.372 43.9954C126.372 43.9781 126.372 43.9609 126.372 43.9402L130.313 39.534C130.713 39.0728 131.277 38.7824 131.888 38.7233C132.498 38.6642 133.108 38.8408 133.59 39.2165C133.829 39.4129 134.026 39.6547 134.169 39.9277C134.312 40.2008 134.399 40.4995 134.424 40.8063C134.449 41.1131 134.411 41.4218 134.314 41.7141C134.217 42.0064 134.062 42.2764 133.858 42.5082L125.99 51.4793C125.471 52.0703 124.83 52.5437 124.11 52.8675C123.391 53.1913 122.61 53.358 121.82 53.3563L110 53.3425ZM126.247 33.8374C126.247 33.4027 126.073 32.9858 125.764 32.6785C125.454 32.3711 125.034 32.1984 124.596 32.1984H122.164V29.7831C122.144 29.3619 121.962 28.9644 121.655 28.6731C121.348 28.3819 120.939 28.2194 120.515 28.2194C120.09 28.2194 119.682 28.3819 119.375 28.6731C119.067 28.9644 118.885 29.3619 118.866 29.7831V32.1984H116.433C116.21 32.1883 115.987 32.2231 115.778 32.3008C115.569 32.3785 115.379 32.4974 115.217 32.6504C115.056 32.8035 114.927 32.9874 114.84 33.1911C114.752 33.3948 114.707 33.6141 114.707 33.8356C114.707 34.0572 114.752 34.2765 114.84 34.4802C114.927 34.6839 115.056 34.8678 115.217 35.0208C115.379 35.1739 115.569 35.2928 115.778 35.3705C115.987 35.4482 116.21 35.483 116.433 35.4729H118.866V37.8881C118.885 38.3094 119.067 38.7069 119.375 38.9981C119.682 39.2894 120.09 39.4519 120.515 39.4519C120.939 39.4519 121.348 39.2894 121.655 38.9981C121.962 38.7069 122.144 38.3094 122.164 37.8881V35.4729H124.596C125.034 35.4729 125.453 35.3007 125.762 34.994C126.072 34.6874 126.246 34.2714 126.247 33.8374ZM110.421 24.7559V26.5363H108.631C108.309 26.5363 107.999 26.6635 107.771 26.89C107.543 27.1165 107.415 27.4237 107.415 27.7439C107.415 28.0642 107.543 28.3714 107.771 28.5979C107.999 28.8244 108.309 28.9516 108.631 28.9516H110.424V30.732C110.424 31.0523 110.552 31.3595 110.781 31.5859C111.009 31.8124 111.318 31.9396 111.641 31.9396C111.963 31.9396 112.273 31.8124 112.501 31.5859C112.729 31.3595 112.857 31.0523 112.857 30.732V28.9447H114.64C114.962 28.9447 115.272 28.8175 115.5 28.591C115.728 28.3645 115.856 28.0573 115.856 27.737C115.856 27.4168 115.728 27.1096 115.5 26.8831C115.272 26.6566 114.962 26.5294 114.64 26.5294H112.847V24.7559C112.847 24.4356 112.718 24.1284 112.49 23.902C112.262 23.6755 111.953 23.5483 111.63 23.5483C111.308 23.5483 110.998 23.6755 110.77 23.902C110.542 24.1284 110.414 24.4356 110.414 24.7559H110.421ZM125.764 21.5677C125.488 21.5677 125.222 21.6768 125.027 21.8709C124.831 22.065 124.722 22.3283 124.722 22.6028V24.1348H123.178C122.902 24.1348 122.637 24.2439 122.441 24.438C122.246 24.6321 122.136 24.8954 122.136 25.1699C122.136 25.4445 122.246 25.7078 122.441 25.9019C122.637 26.096 122.902 26.2051 123.178 26.2051H124.722V27.737C124.722 28.0116 124.831 28.2749 125.027 28.469C125.222 28.6631 125.488 28.7722 125.764 28.7722C126.041 28.7722 126.306 28.6631 126.501 28.469C126.697 28.2749 126.807 28.0116 126.807 27.737V26.2051H128.35C128.487 26.2051 128.622 26.1783 128.749 26.1263C128.875 26.0743 128.99 25.998 129.087 25.9019C129.184 25.8058 129.26 25.6917 129.313 25.5661C129.365 25.4405 129.392 25.3059 129.392 25.1699C129.392 25.034 129.365 24.8994 129.313 24.7738C129.26 24.6482 129.184 24.5341 129.087 24.438C128.99 24.3419 128.875 24.2656 128.749 24.2136C128.622 24.1616 128.487 24.1348 128.35 24.1348H126.807V22.6028C126.807 22.3283 126.697 22.065 126.501 21.8709C126.306 21.6768 126.041 21.5677 125.764 21.5677Z" fill="white"/>
<defs>
<filter id="filter0_dddddd_4425_504329" x="0" y="0.703704" width="234.227" height="255.522" filterUnits="userSpaceOnUse" color-interpolation-filters="sRGB">
<feFlood flood-opacity="0" result="BackgroundImageFix"/>
<feColorMatrix in="SourceAlpha" type="matrix" values="0 0 0 0 0 0 0 0 0 0 0 0 0 0 0 0 0 0 127 0" result="hardAlpha"/>
<feOffset dy="1.85185"/>
<feGaussianBlur stdDeviation="1.57407"/>
<feColorMatrix type="matrix" values="0 0 0 0 0.94902 0 0 0 0 0.721569 0 0 0 0 0.92549 0 0 0 0.0168519 0"/>
<feBlend mode="normal" in2="BackgroundImageFix" result="effect1_dropShadow_4425_504329"/>
<feColorMatrix in="SourceAlpha" type="matrix" values="0 0 0 0 0 0 0 0 0 0 0 0 0 0 0 0 0 0 127 0" result="hardAlpha"/>
<feOffset dy="8.14815"/>
<feGaussianBlur stdDeviation="3.25926"/>
<feColorMatrix type="matrix" values="0 0 0 0 0.94902 0 0 0 0 0.721569 0 0 0 0 0.92549 0 0 0 0.0274815 0"/>
<feBlend mode="normal" in2="effect1_dropShadow_4425_504329" result="effect2_dropShadow_4425_504329"/>
<feColorMatrix in="SourceAlpha" type="matrix" values="0 0 0 0 0 0 0 0 0 0 0 0 0 0 0 0 0 0 127 0" result="hardAlpha"/>
<feOffset dy="20"/>
<feGaussianBlur stdDeviation="6.5"/>
<feColorMatrix type="matrix" values="0 0 0 0 0.94902 0 0 0 0 0.721569 0 0 0 0 0.92549 0 0 0 0.035 0"/>
<feBlend mode="normal" in2="effect2_dropShadow_4425_504329" result="effect3_dropShadow_4425_504329"/>
<feColorMatrix in="SourceAlpha" type="matrix" values="0 0 0 0 0 0 0 0 0 0 0 0 0 0 0 0 0 0 127 0" result="hardAlpha"/>
<feOffset dy="38.5185"/>
<feGaussianBlur stdDeviation="12.7407"/>
<feColorMatrix type="matrix" values="0 0 0 0 0.94902 0 0 0 0 0.721569 0 0 0 0 0.92549 0 0 0 0.0425185 0"/>
<feBlend mode="normal" in2="effect3_dropShadow_4425_504329" result="effect4_dropShadow_4425_504329"/>
<feColorMatrix in="SourceAlpha" type="matrix" values="0 0 0 0 0 0 0 0 0 0 0 0 0 0 0 0 0 0 127 0" result="hardAlpha"/>
<feOffset dy="64.8148"/>
<feGaussianBlur stdDeviation="23.4259"/>
<feColorMatrix type="matrix" values="0 0 0 0 0.94902 0 0 0 0 0.721569 0 0 0 0 0.92549 0 0 0 0.0531481 0"/>
<feBlend mode="normal" in2="effect4_dropShadow_4425_504329" result="effect5_dropShadow_4425_504329"/>
<feColorMatrix in="SourceAlpha" type="matrix" values="0 0 0 0 0 0 0 0 0 0 0 0 0 0 0 0 0 0 127 0" result="hardAlpha"/>
<feOffset dy="100"/>
<feGaussianBlur stdDeviation="40"/>
<feColorMatrix type="matrix" values="0 0 0 0 0.94902 0 0 0 0 0.721569 0 0 0 0 0.92549 0 0 0 0.07 0"/>
<feBlend mode="normal" in2="effect5_dropShadow_4425_504329" result="effect6_dropShadow_4425_504329"/>
<feBlend mode="normal" in="SourceGraphic" in2="effect6_dropShadow_4425_504329" result="shape"/>
</filter>
<linearGradient id="paint0_linear_4425_504329" x1="79.9982" y1="39.1183" x2="154.225" y2="39.1183" gradientUnits="userSpaceOnUse">
<stop stop-color="#FF0379"/>
<stop offset="1" stop-color="#D437C1"/>
</linearGradient>
</defs>
</svg>
