
<svg width="235" height="257" viewBox="0 0 235 257" fill="none" xmlns="http://www.w3.org/2000/svg">
<g filter="url(#filter0_dddddd_4425_504328)">
<rect x="80" y="2" width="74.2258" height="74.2258" rx="20" fill="url(#paint0_linear_4425_504328)"/>
</g>
<path d="M116.7 19.9183C108.436 19.9183 101.381 25.0927 98.5945 32.3776H101.592C102.405 30.6053 103.535 28.9729 104.955 27.5529C108.092 24.4151 112.264 22.687 116.7 22.687C121.138 22.687 125.31 24.4151 128.448 27.553C131.586 30.6908 133.314 34.8624 133.314 39.2994C133.314 43.7368 131.586 47.9086 128.448 51.0463C125.31 54.1839 121.138 55.9119 116.7 55.9119C112.263 55.9119 108.092 54.1839 104.954 51.0464C103.534 49.6263 102.404 47.9938 101.591 46.2213H98.5944C101.381 53.5066 108.436 58.6806 116.701 58.6806C127.405 58.6806 136.083 50.0037 136.083 39.2994C136.083 28.5964 127.405 19.9183 116.7 19.9183ZM112.45 45.1729L114.408 47.1307L122.239 39.2994L114.408 31.4682L112.45 33.4261L116.939 37.9151H97.3203V40.6838H116.939L112.45 45.1729Z" fill="white"/>
<defs>
<filter id="filter0_dddddd_4425_504328" x="0" y="0.703704" width="234.227" height="255.522" filterUnits="userSpaceOnUse" color-interpolation-filters="sRGB">
<feFlood flood-opacity="0" result="BackgroundImageFix"/>
<feColorMatrix in="SourceAlpha" type="matrix" values="0 0 0 0 0 0 0 0 0 0 0 0 0 0 0 0 0 0 127 0" result="hardAlpha"/>
<feOffset dy="1.85185"/>
<feGaussianBlur stdDeviation="1.57407"/>
<feColorMatrix type="matrix" values="0 0 0 0 0.301961 0 0 0 0 0.87451 0 0 0 0 0.992157 0 0 0 0.0168519 0"/>
<feBlend mode="normal" in2="BackgroundImageFix" result="effect1_dropShadow_4425_504328"/>
<feColorMatrix in="SourceAlpha" type="matrix" values="0 0 0 0 0 0 0 0 0 0 0 0 0 0 0 0 0 0 127 0" result="hardAlpha"/>
<feOffset dy="8.14815"/>
<feGaussianBlur stdDeviation="3.25926"/>
<feColorMatrix type="matrix" values="0 0 0 0 0.301961 0 0 0 0 0.87451 0 0 0 0 0.992157 0 0 0 0.0274815 0"/>
<feBlend mode="normal" in2="effect1_dropShadow_4425_504328" result="effect2_dropShadow_4425_504328"/>
<feColorMatrix in="SourceAlpha" type="matrix" values="0 0 0 0 0 0 0 0 0 0 0 0 0 0 0 0 0 0 127 0" result="hardAlpha"/>
<feOffset dy="20"/>
<feGaussianBlur stdDeviation="6.5"/>
<feColorMatrix type="matrix" values="0 0 0 0 0.301961 0 0 0 0 0.87451 0 0 0 0 0.992157 0 0 0 0.035 0"/>
<feBlend mode="normal" in2="effect2_dropShadow_4425_504328" result="effect3_dropShadow_4425_504328"/>
<feColorMatrix in="SourceAlpha" type="matrix" values="0 0 0 0 0 0 0 0 0 0 0 0 0 0 0 0 0 0 127 0" result="hardAlpha"/>
<feOffset dy="38.5185"/>
<feGaussianBlur stdDeviation="12.7407"/>
<feColorMatrix type="matrix" values="0 0 0 0 0.301961 0 0 0 0 0.87451 0 0 0 0 0.992157 0 0 0 0.0425185 0"/>
<feBlend mode="normal" in2="effect3_dropShadow_4425_504328" result="effect4_dropShadow_4425_504328"/>
<feColorMatrix in="SourceAlpha" type="matrix" values="0 0 0 0 0 0 0 0 0 0 0 0 0 0 0 0 0 0 127 0" result="hardAlpha"/>
<feOffset dy="64.8148"/>
<feGaussianBlur stdDeviation="23.4259"/>
<feColorMatrix type="matrix" values="0 0 0 0 0.301961 0 0 0 0 0.87451 0 0 0 0 0.992157 0 0 0 0.0531481 0"/>
<feBlend mode="normal" in2="effect4_dropShadow_4425_504328" result="effect5_dropShadow_4425_504328"/>
<feColorMatrix in="SourceAlpha" type="matrix" values="0 0 0 0 0 0 0 0 0 0 0 0 0 0 0 0 0 0 127 0" result="hardAlpha"/>
<feOffset dy="100"/>
<feGaussianBlur stdDeviation="40"/>
<feColorMatrix type="matrix" values="0 0 0 0 0.301961 0 0 0 0 0.87451 0 0 0 0 0.992157 0 0 0 0.07 0"/>
<feBlend mode="normal" in2="effect5_dropShadow_4425_504328" result="effect6_dropShadow_4425_504328"/>
<feBlend mode="normal" in="SourceGraphic" in2="effect6_dropShadow_4425_504328" result="shape"/>
</filter>
<linearGradient id="paint0_linear_4425_504328" x1="79.9982" y1="39.1183" x2="154.225" y2="39.1183" gradientUnits="userSpaceOnUse">
<stop stop-color="#FF0379"/>
<stop offset="1" stop-color="#D437C1"/>
</linearGradient>
</defs>
</svg>
