
<svg width="60" height="62" viewBox="0 0 60 62" fill="none" xmlns="http://www.w3.org/2000/svg">
<path d="M48.073 23.0691L28.6896 3.68565C26.6858 1.68174 23.4249 1.68163 21.4209 3.68565C19.6194 5.487 19.4643 8.23432 20.7946 10.1961L20.7676 10.331C19.3701 17.319 15.9679 23.6762 10.9286 28.7154L2.03791 37.6061C0.0292016 39.6149 0.0288591 42.866 2.03791 44.8748L6.88362 49.7205C8.89221 51.7292 12.1435 51.7293 14.1523 49.7205L15.3638 48.509L23.844 56.9892C25.8527 58.998 29.1037 58.9981 31.1125 56.9892C33.1165 54.9853 33.1165 51.7245 31.1125 49.7206L27.4782 46.0863L28.6897 44.8748C30.6984 42.8662 30.6986 39.6152 28.6897 37.6062L27.8664 36.7828C31.9164 33.9473 36.5159 31.9732 41.4277 30.9908L41.5644 30.9635C43.5698 32.3174 46.3107 32.0998 48.073 30.3375H48.0731C50.0768 28.3337 50.0768 25.0731 48.073 23.0691ZM11.7294 47.2976C11.06 47.967 9.97597 47.9671 9.30648 47.2975L4.46077 42.4518C3.79116 41.7821 3.79116 40.6986 4.46077 40.029L12.9408 31.5488L20.2095 38.8175C19.3798 39.6471 12.5796 46.4474 11.7294 47.2976ZM28.6896 52.1434C29.3574 52.8112 29.3574 53.8982 28.6896 54.5662C28.0217 55.2341 26.9346 55.2341 26.2667 54.5662L17.7865 46.086L20.2095 43.6632L28.6896 52.1434ZM22.6324 41.2403C23.1474 40.7253 23.9183 39.9364 25.1351 38.8972L26.2667 40.029C26.9363 40.6986 26.9363 41.7821 26.2667 42.4518L25.0552 43.6633L22.6324 41.2403ZM22.7051 36.4675L15.2907 29.053C19.2641 24.465 22.1096 19.049 23.6319 13.1653L38.5929 28.1263C32.7091 29.6485 27.2933 32.494 22.7051 36.4675ZM45.6498 27.9146C44.9802 28.5841 43.8965 28.5841 43.2269 27.9146L23.8437 8.53137C23.1741 7.86164 23.1741 6.77812 23.8437 6.10851C24.5133 5.4389 25.5971 5.4389 26.2667 6.10851L45.6498 25.4916C46.3177 26.1596 46.3177 27.2464 45.6498 27.9146Z" fill="#212529"/>
<path d="M14.1522 37.6062C13.4833 36.9372 12.3984 36.9372 11.7293 37.6062L9.30647 40.0291C8.63743 40.6981 8.63743 41.7829 9.30647 42.4519C9.97539 43.121 11.0604 43.121 11.7293 42.4519L14.1522 40.0291C14.8212 39.36 14.8212 38.2752 14.1522 37.6062Z" fill="#212529"/>
<path d="M36.5531 0C35.6069 0 34.8398 0.767061 34.8398 1.71326V5.13979C34.8398 6.08599 35.6069 6.85305 36.5531 6.85305C37.4993 6.85305 38.2664 6.08599 38.2664 5.13979V1.71326C38.2664 0.767061 37.4993 0 36.5531 0Z" fill="#E71D7C"/>
<path d="M50.2609 13.705H46.8344C45.8882 13.705 45.1211 14.472 45.1211 15.4182C45.1211 16.3644 45.8882 17.1315 46.8344 17.1315H50.2609C51.2071 17.1315 51.9741 16.3644 51.9741 15.4182C51.9741 14.472 51.207 13.705 50.2609 13.705Z" fill="#E71D7C"/>
<path d="M48.0426 3.92823C47.3736 3.25919 46.2887 3.25919 45.6197 3.92823L42.1932 7.35475C41.5241 8.02379 41.5241 9.10857 42.1932 9.77761C42.8621 10.4466 43.947 10.4468 44.616 9.77761L48.0426 6.35109C48.7116 5.68205 48.7116 4.59738 48.0426 3.92823Z" fill="#E71D7C"/>
</svg>
