<svg width="52" height="59" viewBox="0 0 52 59" fill="none" xmlns="http://www.w3.org/2000/svg">
<path d="M48.071 23.0691L28.6876 3.68565C26.6838 1.68174 23.4229 1.68163 21.4189 3.68565C19.6175 5.487 19.4623 8.23432 20.7926 10.1961L20.7656 10.331C19.3682 17.319 15.966 23.6762 10.9266 28.7154L2.03596 37.6061C0.0272485 39.6149 0.026906 42.866 2.03596 44.8748L6.88167 49.7205C8.89026 51.7292 12.1415 51.7293 14.1504 49.7205L15.3618 48.509L23.842 56.9892C25.8507 58.998 29.1017 58.9981 31.1106 56.9892C33.1146 54.9853 33.1146 51.7245 31.1106 49.7206L27.4762 46.0863L28.6877 44.8748C30.6964 42.8662 30.6966 39.6152 28.6877 37.6062L27.8644 36.7828C31.9144 33.9473 36.5139 31.9732 41.4258 30.9908L41.5624 30.9635C43.5678 32.3174 46.3087 32.0998 48.071 30.3375H48.0711C50.0748 28.3337 50.0748 25.0731 48.071 23.0691ZM11.7275 47.2976C11.058 47.967 9.97402 47.9671 9.30452 47.2975L4.45881 42.4518C3.78921 41.7821 3.78921 40.6986 4.45881 40.029L12.9389 31.5488L20.2075 38.8175C19.3779 39.6471 12.5776 46.4474 11.7275 47.2976ZM28.6876 52.1434C29.3555 52.8112 29.3555 53.8982 28.6876 54.5662C28.0197 55.2341 26.9326 55.2341 26.2647 54.5662L17.7846 46.086L20.2075 43.6632L28.6876 52.1434ZM22.6304 41.2403C23.1454 40.7253 23.9164 39.9364 25.1331 38.8972L26.2647 40.029C26.9344 40.6986 26.9344 41.7821 26.2647 42.4518L25.0533 43.6633L22.6304 41.2403ZM22.7032 36.4675L15.2887 29.053C19.2621 24.465 22.1076 19.049 23.63 13.1653L38.591 28.1263C32.7072 29.6485 27.2914 32.494 22.7032 36.4675ZM45.6478 27.9146C44.9782 28.5841 43.8946 28.5841 43.225 27.9146L23.8418 8.53137C23.1722 7.86164 23.1722 6.77812 23.8418 6.10851C24.5114 5.4389 25.5951 5.4389 26.2647 6.10851L45.6478 25.4916C46.3157 26.1596 46.3157 27.2464 45.6478 27.9146Z" fill="#212529"/>
<path d="M14.1483 37.6062C13.4794 36.9372 12.3945 36.9372 11.7254 37.6062L9.30256 40.0291C8.63352 40.6981 8.63352 41.7829 9.30256 42.4519C9.97148 43.121 11.0565 43.121 11.7254 42.4519L14.1483 40.0291C14.8173 39.36 14.8173 38.2752 14.1483 37.6062Z" fill="#212529"/>
<path d="M36.5492 0C35.603 0 34.8359 0.767061 34.8359 1.71326V5.13979C34.8359 6.08599 35.603 6.85305 36.5492 6.85305C37.4954 6.85305 38.2625 6.08599 38.2625 5.13979V1.71326C38.2625 0.767061 37.4954 0 36.5492 0Z" fill="#E71D7C"/>
<path d="M50.2589 13.705H46.8324C45.8862 13.705 45.1191 14.472 45.1191 15.4182C45.1191 16.3644 45.8862 17.1315 46.8324 17.1315H50.2589C51.2051 17.1315 51.9722 16.3644 51.9722 15.4182C51.9722 14.472 51.205 13.705 50.2589 13.705Z" fill="#E71D7C"/>
<path d="M48.0426 3.92823C47.3736 3.25919 46.2887 3.25919 45.6197 3.92823L42.1932 7.35475C41.5241 8.02379 41.5241 9.10857 42.1932 9.77761C42.8621 10.4466 43.947 10.4468 44.616 9.77761L48.0426 6.35109C48.7116 5.68205 48.7116 4.59738 48.0426 3.92823Z" fill="#E71D7C"/>
</svg>
