<svg width="19" height="21" viewBox="0 0 19 21" fill="none" xmlns="http://www.w3.org/2000/svg">
<g clip-path="url(#clip0_2410_498464)">
<path d="M18.6642 18.7427L15.8614 15.9399C17.39 14.3018 18.3337 12.111 18.3337 9.6987C18.3337 4.64365 14.2219 0.53186 9.16684 0.53186C4.11225 0.53186 0 4.64365 0 9.6987C0 11.516 0.533052 13.2751 1.54232 14.7845C1.75316 15.1012 2.17988 15.1841 2.49567 14.9742C2.81147 14.7634 2.89626 14.3367 2.68543 14.0209C1.82833 12.738 1.37503 11.2438 1.37503 9.6987C1.37503 5.4022 4.87034 1.90689 9.16684 1.90689C13.4633 1.90689 16.9587 5.4022 16.9587 9.6987C16.9587 13.9952 13.4633 17.4905 9.16684 17.4905C7.61627 17.4905 6.11841 17.0349 4.83414 16.1737C4.51925 15.9633 4.09208 16.0463 3.87987 16.3616C3.66857 16.677 3.75291 17.1041 4.06779 17.3159C5.5794 18.3297 7.34264 18.8655 9.16684 18.8655C10.9819 18.8655 12.6709 18.3284 14.0959 17.4149L17.0439 20.3629C17.2676 20.5866 17.5609 20.6989 17.8538 20.6989C18.1471 20.6989 18.4405 20.5866 18.6642 20.3629C19.112 19.9156 19.112 19.1905 18.6642 18.7427ZM4.41704 8.34453C4.9281 6.36266 6.57079 4.91751 8.60217 4.66313C8.97892 4.61592 9.24614 4.27216 9.19893 3.8954C9.15172 3.51865 8.80521 3.25098 8.4312 3.29864C5.83653 3.62361 3.7387 5.46981 3.08602 8.00169C2.99114 8.36928 3.21206 8.74421 3.58011 8.83862C3.6374 8.85375 3.69515 8.86062 3.75199 8.86062C4.05816 8.86062 4.33729 8.65483 4.41704 8.34453Z" fill="#ADB5BD"/>
</g>
<defs>
<clipPath id="clip0_2410_498464">
<rect width="19" height="20.1671" fill="white" transform="translate(0 0.53186)"/>
</clipPath>
</defs>
</svg>
