
<svg width="64" height="64" viewBox="0 0 64 64" fill="none" xmlns="http://www.w3.org/2000/svg">
<rect x="0.904297" y="0.37146" width="62.7972" height="63.4266" rx="31.3986" fill="#ECEEFF"/>
<path fill-rule="evenodd" clip-rule="evenodd" d="M31.8672 20.3008L23.6015 23.1569C23.039 23.3512 22.6595 23.8969 22.6595 24.5116V32.134C22.6595 35.0268 24.0573 37.4968 26.082 39.5736C28.111 41.6549 30.5537 43.107 32.0643 43.8818C32.2209 43.9621 32.3849 43.9621 32.5414 43.8818C34.0521 43.107 36.4947 41.6549 38.5238 39.5736C40.5485 37.4968 41.9462 35.0268 41.9462 32.134V24.5116C41.9462 23.8969 41.5668 23.3512 41.0043 23.1569L32.7385 20.3008C32.4557 20.2031 32.15 20.2031 31.8672 20.3008ZM22.7302 20.4474C21.0426 21.0305 19.9043 22.6676 19.9043 24.5116V32.134C19.9043 39.9911 27.5641 44.7603 30.8425 46.4417C31.7691 46.9169 32.8367 46.9169 33.7633 46.4417C37.0416 44.7603 44.7015 39.9911 44.7015 32.134V24.5116C44.7015 22.6676 43.5632 21.0305 41.8755 20.4474L33.6098 17.5913C32.7615 17.2982 31.8443 17.2982 30.996 17.5913L22.7302 20.4474Z" fill="url(#paint0_linear_2853_502339)"/>
<defs>
<linearGradient id="paint0_linear_2853_502339" x1="21.9248" y1="17.3715" x2="43.2154" y2="19.7336" gradientUnits="userSpaceOnUse">
<stop stop-color="#E71D7C"/>
<stop offset="0.65625" stop-color="#3E4581"/>
<stop offset="1" stop-color="#E71D7C"/>
</linearGradient>
</defs>
</svg>
