<svg width="18" height="20" viewBox="0 0 18 20" fill="none" xmlns="http://www.w3.org/2000/svg">
<path d="M15.015 13.4034C14.3266 13.4034 13.6914 13.6449 13.1939 14.0483L8.18945 10.4278C8.23051 10.2032 8.25225 9.9689 8.25225 9.7322C8.25225 9.49551 8.23051 9.26364 8.18945 9.03661L13.1939 5.41614C13.6914 5.81949 14.3266 6.06101 15.015 6.06101C16.6139 6.06101 17.9133 4.76161 17.9133 3.16271C17.9133 1.56381 16.6139 0.264404 15.015 0.264404C13.4161 0.264404 12.1167 1.56381 12.1167 3.16271C12.1167 3.44288 12.1553 3.71097 12.2302 3.96699L7.47695 7.40873C6.7717 6.47402 5.65102 5.86779 4.38784 5.86779C2.25276 5.86779 0.523438 7.59712 0.523438 9.7322C0.523438 11.8673 2.25276 13.5966 4.38784 13.5966C5.65102 13.5966 6.7717 12.9904 7.47695 12.0557L12.2302 15.4974C12.1553 15.7534 12.1167 16.0239 12.1167 16.3017C12.1167 17.9006 13.4161 19.2 15.015 19.2C16.6139 19.2 17.9133 17.9006 17.9133 16.3017C17.9133 14.7028 16.6139 13.4034 15.015 13.4034ZM15.015 1.90678C15.7081 1.90678 16.2709 2.46953 16.2709 3.16271C16.2709 3.85589 15.7081 4.41864 15.015 4.41864C14.3218 4.41864 13.759 3.85589 13.759 3.16271C13.759 2.46953 14.3218 1.90678 15.015 1.90678ZM4.38784 11.8576C3.21645 11.8576 2.26242 10.9036 2.26242 9.7322C2.26242 8.5608 3.21645 7.60678 4.38784 7.60678C5.55924 7.60678 6.51327 8.5608 6.51327 9.7322C6.51327 10.9036 5.55924 11.8576 4.38784 11.8576ZM15.015 17.5576C14.3218 17.5576 13.759 16.9949 13.759 16.3017C13.759 15.6085 14.3218 15.0458 15.015 15.0458C15.7081 15.0458 16.2709 15.6085 16.2709 16.3017C16.2709 16.9949 15.7081 17.5576 15.015 17.5576Z" fill="black"/>
</svg>
