
<svg width="64" height="65" viewBox="0 0 64 65" fill="none" xmlns="http://www.w3.org/2000/svg">
<rect x="0.462891" y="0.37146" width="63.4266" height="63.9553" rx="31.7133" fill="#ECEEFF"/>
<path fill-rule="evenodd" clip-rule="evenodd" d="M32.1762 21.3141C25.6754 21.3141 20.4056 26.584 20.4056 33.0848H23.3482C25.786 33.0848 27.7622 35.061 27.7622 37.4988V41.9127C27.7622 44.3505 25.786 46.3267 23.3482 46.3267H21.8769C19.4391 46.3267 17.4629 44.3505 17.4629 41.9127V33.0848C17.4629 24.9588 24.0503 18.3715 32.1762 18.3715C40.3021 18.3715 46.8895 24.9588 46.8895 33.0848V41.9127C46.8895 44.3505 44.9133 46.3267 42.4755 46.3267H41.0042C38.5664 46.3267 36.5902 44.3505 36.5902 41.9127V37.4988C36.5902 35.061 38.5664 33.0848 41.0042 33.0848H43.9468C43.9468 26.584 38.6769 21.3141 32.1762 21.3141ZM43.9468 36.0274H41.0042C40.1916 36.0274 39.5328 36.6862 39.5328 37.4988V41.9127C39.5328 42.7253 40.1916 43.3841 41.0042 43.3841H42.4755C43.2881 43.3841 43.9468 42.7253 43.9468 41.9127V36.0274ZM20.4056 36.0274V41.9127C20.4056 42.7253 21.0643 43.3841 21.8769 43.3841H23.3482C24.1608 43.3841 24.8195 42.7253 24.8195 41.9127V37.4988C24.8195 36.6862 24.1608 36.0274 23.3482 36.0274H20.4056Z" fill="url(#paint0_linear_2853_502341)"/>
<defs>
<linearGradient id="paint0_linear_2853_502341" x1="19.8606" y1="18.3715" x2="44.955" y2="21.8494" gradientUnits="userSpaceOnUse">
<stop stop-color="#E71D7C"/>
<stop offset="0.65625" stop-color="#3E4581"/>
<stop offset="1" stop-color="#E71D7C"/>
</linearGradient>
</defs>
</svg>
