<svg width="45" height="39" viewBox="0 0 45 39" fill="none" xmlns="http://www.w3.org/2000/svg">
<path d="M41.0273 0.64998C28.2055 5.67297 15.4498 10.8281 2.62792 15.8511C1.70263 16.2477 0.777344 16.6442 0.777344 17.7678C0.777344 19.0235 1.76872 19.4201 2.7601 19.7506C5.53596 20.808 8.31183 21.9316 11.1538 22.923C12.0791 23.2534 12.4756 23.7161 12.6739 24.6414C13.4009 27.7477 14.2601 30.854 15.1193 33.9603C15.648 35.9431 16.7055 36.2735 18.3578 35.15C19.6796 34.2247 21.0676 33.2994 22.3233 32.2419C23.3808 31.3167 24.1078 31.3827 25.2314 32.1758C28.0733 34.2247 30.9814 36.1414 33.8894 38.1241C35.9383 39.5121 36.9957 39.0494 37.5245 36.604C37.5906 36.4057 37.5906 36.1414 37.6567 35.9431C39.1107 28.4747 40.4986 21.0063 41.9526 13.5379C42.6136 9.77067 43.3406 5.93734 44.0676 2.104C44.0676 0.517796 42.8779 -0.0770314 41.0273 0.64998ZM10.1624 18.9575C9.23711 18.6931 8.37792 18.2965 7.12217 17.7678C16.309 14.1327 25.2314 10.5638 34.1538 6.99481C34.2199 7.0609 34.2199 7.12699 34.286 7.25918C28.2716 13.0753 22.3233 18.8253 16.309 24.5753C15.9785 20.8741 13.0704 19.8827 10.1624 18.9575ZM17.1021 28.2764C16.9699 27.8138 16.9038 27.3511 16.7055 26.558C18.1595 27.5494 19.4153 28.4086 20.671 29.2017C17.9613 31.4488 17.9613 31.4488 17.1021 28.2764ZM34.4181 34.423C29.7917 31.3167 25.3636 28.2764 20.7371 25.1701C27.0158 19.1557 33.2285 13.1414 39.6394 6.92872C37.8549 16.2477 36.1365 25.1701 34.4181 34.423Z" fill="#E71D7C"/>
</svg>
