<svg width="44" height="42" viewBox="0 0 44 42" fill="none" xmlns="http://www.w3.org/2000/svg">
<path d="M21.651 0.492188L27.7125 12.2101C27.7125 12.2101 17.105 18.5421 10.827 29.3138L11.3321 25.7475L1.30469 15.4853L15.3038 13.8841L21.651 0.492188Z" fill="#E71D7C"/>
<path d="M10.1777 31.998C10.1777 31.998 24.8263 9.80825 42.5807 15.3397L40.2716 17.887C40.2716 17.887 30.6021 16.9409 25.4787 20.6528C25.4787 20.6528 15.3762 25.7475 10.1806 32.589L10.1777 31.998Z" fill="#E71D7C"/>
<path d="M35.7225 22.1812L32.6196 25.238C32.6196 25.238 22.0121 25.6747 10.1777 34.4813C10.1777 34.4813 21.6513 20.6441 35.7225 22.1812Z" fill="#E71D7C"/>
<path d="M9.81637 35.937C9.81637 35.937 22.0836 27.567 33.1241 29.0227L34.4231 39.8672L22.1211 33.1712L9.09766 39.8585L9.81637 35.937Z" fill="#E71D7C"/>
</svg>
