<svg width="39" height="39" viewBox="0 0 39 39" fill="none" xmlns="http://www.w3.org/2000/svg">
<rect x="0.346154" y="0.346154" width="37.3846" height="37.3846" rx="2.42308" fill="#E7F1FF"/>
<path d="M17.2032 15.5153H18.7187V22.4531C18.7187 22.5433 18.7926 22.6171 18.8828 22.6171H20.1133C20.2035 22.6171 20.2773 22.5433 20.2773 22.4531V15.5153H21.797C21.9344 15.5153 22.0102 15.3574 21.9262 15.2507L19.6293 12.3427C19.5637 12.2586 19.4365 12.2586 19.3709 12.3427L17.074 15.2487C16.9899 15.3574 17.0658 15.5153 17.2032 15.5153Z" fill="#0D6EFD"/>
<path d="M27.0059 21.8379H25.7754C25.6852 21.8379 25.6113 21.9117 25.6113 22.002V25.1602H13.3887V22.002C13.3887 21.9117 13.3148 21.8379 13.2246 21.8379H11.9941C11.9039 21.8379 11.8301 21.9117 11.8301 22.002V26.0625C11.8301 26.4255 12.1233 26.7188 12.4863 26.7188H26.5137C26.8767 26.7188 27.1699 26.4255 27.1699 26.0625V22.002C27.1699 21.9117 27.0961 21.8379 27.0059 21.8379Z" fill="#0D6EFD"/>
<rect x="0.346154" y="0.346154" width="37.3846" height="37.3846" rx="2.42308" stroke="#0D6EFD" stroke-width="0.692308" stroke-dasharray="1.38 1.38"/>
</svg>
