
<svg width="15" height="18" viewBox="0 0 15 18" fill="none" xmlns="http://www.w3.org/2000/svg">
<path d="M5.45633 11.4251C6.69794 11.3155 7.94678 11.3155 9.18839 11.4251L9.58395 11.4595C10.1266 11.5128 10.6649 11.597 11.1946 11.7088C12.5447 11.9874 13.5258 12.481 13.9601 13.3969C14.1193 13.7333 14.2019 14.1008 14.2019 14.473C14.2019 14.8452 14.1193 15.2128 13.9601 15.5492C13.525 16.4676 12.5318 16.9647 11.2049 17.2261L10.8033 17.3104C10.2659 17.4135 9.72412 17.4832 9.18667 17.5202C8.17626 17.6062 7.16241 17.6216 6.18383 17.5683C6.07633 17.5683 6.00324 17.5683 5.93961 17.5666L5.81578 17.5614C5.699 17.5583 5.58274 17.5448 5.46837 17.521C4.79346 17.4753 4.12304 17.3778 3.46304 17.2295L3.2429 17.1839C2.01493 16.9113 1.10514 16.4186 0.684635 15.5484C0.524891 15.2101 0.442474 14.8405 0.443367 14.4664C0.444259 14.0924 0.528439 13.7232 0.689794 13.3857C1.12835 12.5051 2.15768 11.9754 3.44498 11.7106C4.10816 11.5683 4.78058 11.4732 5.45719 11.4259L5.45633 11.4251ZM9.08004 12.6659C7.91055 12.5627 6.73417 12.5627 5.5535 12.6668C4.93178 12.7098 4.3135 12.7975 3.69866 12.9291C2.74672 13.1251 2.01923 13.4992 1.80253 13.9343C1.7237 14.1027 1.68283 14.2863 1.68283 14.4722C1.68283 14.6581 1.7237 14.8417 1.80253 15.0101C2.02439 15.4701 2.71147 15.8141 3.71757 16.0119L4.02027 16.0755C4.52762 16.1761 5.05131 16.2458 5.63176 16.2905C5.70571 16.3042 5.78482 16.3137 5.87855 16.318L6.21736 16.324C7.17187 16.3756 8.12896 16.361 9.09208 16.2793C9.71208 16.2363 10.3286 16.1469 10.9512 16.0084L11.1438 15.9672C12.0278 15.7668 12.6392 15.4392 12.8405 15.0144C12.9207 14.845 12.9623 14.66 12.9623 14.4726C12.9623 14.2852 12.9207 14.1002 12.8405 13.9309C12.6255 13.4777 11.9444 13.1346 10.9418 12.9282C10.3315 12.7979 9.71284 12.7106 9.09035 12.6668L9.08004 12.6659ZM7.3258 0.400879C9.8488 0.400879 11.8946 2.45523 11.8946 4.98855C11.8946 7.52274 9.8488 9.57623 7.3258 9.57623C4.80279 9.57623 2.7579 7.52274 2.7579 4.98855C2.7579 2.45609 4.80279 0.400879 7.3258 0.400879ZM7.3258 1.64604C6.44135 1.64832 5.594 2.00168 4.96997 2.62844C4.34595 3.25521 3.99631 4.10411 3.99791 4.98855C3.99608 5.87315 4.34562 6.72226 4.96967 7.34922C5.59372 7.97617 6.4412 8.32964 7.3258 8.33192C8.21054 8.32987 9.05825 7.9765 9.68248 7.34952C10.3067 6.72254 10.6564 5.8733 10.6545 4.98855C10.6561 4.10411 10.3065 3.25521 9.68248 2.62844C9.05846 2.00168 8.2111 1.64832 7.32666 1.64604H7.3258Z" fill="#343A40"/>
</svg>
