<svg width="44" height="44" viewBox="0 0 44 44" fill="none" xmlns="http://www.w3.org/2000/svg">
<g clip-path="url(#clip0_2488_499366)">
<path fill-rule="evenodd" clip-rule="evenodd" d="M2.4 9.50833C1.2175 9.50833 0.25 10.4758 0.25 11.6583V39.6083C0.25 41.9733 2.185 43.9083 4.55 43.9083H32.5C33.6825 43.9083 34.65 42.9408 34.65 41.7583C34.65 40.5758 33.6825 39.6083 32.5 39.6083H6.7C5.5175 39.6083 4.55 38.6408 4.55 37.4583V11.6583C4.55 10.4758 3.5825 9.50833 2.4 9.50833ZM38.95 0.908325H13.15C10.785 0.908325 8.85 2.84333 8.85 5.20833V31.0083C8.85 33.3733 10.785 35.3083 13.15 35.3083H38.95C41.315 35.3083 43.25 33.3733 43.25 31.0083V5.20833C43.25 2.84333 41.315 0.908325 38.95 0.908325ZM21.75 27.7833V8.43333L33.5105 17.2483C34.091 17.6783 34.091 18.5383 33.5105 18.9683L21.75 27.7833Z" fill="#E71D7C"/>
</g>
<defs>
<clipPath id="clip0_2488_499366">
<rect width="43" height="43" fill="white" transform="translate(0.25 0.908325)"/>
</clipPath>
</defs>
</svg>
