<svg width="1440" height="484" viewBox="0 0 1440 484" fill="none" xmlns="http://www.w3.org/2000/svg">
<path opacity="0.2" fill-rule="evenodd" clip-rule="evenodd" d="M-28.3896 436.565C35.8196 466.103 202.534 511.802 355.841 458.288C379.819 449.919 396.451 439.642 407.705 428.029C418.964 416.41 424.819 403.474 427.273 389.829C429.726 376.195 428.782 361.862 426.468 347.442C424.797 337.03 422.406 326.545 420.054 316.235C419.151 312.273 418.253 308.338 417.405 304.442C411.274 276.294 407.718 250.259 422.414 230.749C437.114 211.235 470.225 198.064 538.022 196.149C640.04 193.268 709.963 218.456 769.188 239.79C788.632 246.795 806.923 253.383 824.818 258.427C861.017 268.63 895.576 272.493 934.693 260.586C973.793 248.683 1017.39 221.039 1071.72 168.345C1125.95 115.739 1171.23 100.092 1211.66 104.876C1252.12 109.665 1287.85 134.934 1322.95 164.485C1331.43 171.624 1339.88 179.014 1348.34 186.422C1374.87 209.638 1401.59 233.024 1430.23 249.396C1468.05 271.016 1509.27 280.452 1557.94 261.231L1557.57 260.301C1509.26 279.383 1468.35 270.039 1430.72 248.528C1402.18 232.211 1375.57 208.919 1349.06 185.719L1349.06 185.718C1340.58 178.299 1332.11 170.889 1323.59 163.72C1288.49 134.166 1252.56 108.71 1211.77 103.883C1170.94 99.0511 1125.38 114.898 1071.02 167.627C1016.75 220.267 973.288 247.791 934.401 259.629C895.531 271.462 861.179 267.637 825.089 257.465C807.28 252.445 789.043 245.875 769.635 238.883C710.386 217.539 640.221 192.262 537.994 195.15C470.179 197.065 436.62 210.229 421.615 230.148C406.606 250.072 410.311 276.571 416.428 304.655C417.281 308.571 418.181 312.519 419.086 316.487C421.435 326.786 423.815 337.222 425.48 347.601C427.787 361.97 428.713 376.176 426.289 389.652C423.866 403.119 418.096 415.869 406.987 427.333C395.871 438.804 379.389 449.009 355.511 457.344C202.54 510.74 36.1079 465.135 -27.9718 435.657L-28.3896 436.565ZM335.638 424.241C182.331 477.754 15.6165 432.055 -48.5928 402.517L-48.1749 401.609C15.9048 431.087 182.337 476.693 335.308 423.296C359.186 414.962 375.668 404.756 386.783 393.286C397.893 381.821 403.663 369.072 406.086 355.605C408.51 342.128 407.584 327.922 405.277 313.553C403.612 303.175 401.232 292.739 398.883 282.439C397.978 278.471 397.078 274.524 396.225 270.608C390.108 242.524 386.403 216.025 401.412 196.1C416.417 176.181 449.976 163.018 517.791 161.102C620.018 158.215 690.183 183.492 749.432 204.836C768.84 211.828 787.077 218.398 804.886 223.417C840.976 233.59 875.328 237.414 914.198 225.581C953.084 213.744 996.548 186.22 1050.82 133.579C1105.17 80.8503 1150.74 65.0035 1191.57 69.8352C1232.36 74.6622 1268.29 100.118 1303.39 129.672C1311.91 136.842 1320.38 144.252 1328.85 151.672C1355.36 174.872 1381.98 198.163 1410.52 214.48C1448.15 235.991 1489.06 245.335 1537.37 226.253L1537.73 227.183C1489.07 246.404 1447.84 236.969 1410.02 215.348C1381.39 198.977 1354.66 175.59 1328.14 152.374L1328.13 152.369C1319.67 144.964 1311.23 137.575 1302.75 130.437C1267.65 100.887 1231.92 75.6171 1191.45 70.8283C1151.03 66.0443 1105.74 81.6915 1051.51 134.297C997.188 186.992 953.59 214.635 914.489 226.538C875.373 238.446 840.813 234.583 804.615 224.38C786.72 219.336 768.429 212.747 748.985 205.743C689.76 184.408 619.837 159.22 517.819 162.102C450.021 164.017 416.911 177.187 402.211 196.702C387.515 216.211 391.071 242.247 397.202 270.395C398.05 274.29 398.948 278.226 399.851 282.187C402.203 292.497 404.594 302.982 406.265 313.395C408.579 327.815 409.523 342.147 407.07 355.782C404.615 369.427 398.761 382.362 387.501 393.982C376.248 405.595 359.615 415.871 335.638 424.241ZM-68.7959 368.47C-4.58667 398.008 162.128 443.706 315.435 390.193C339.412 381.823 356.044 371.547 367.298 359.934C378.558 348.315 384.412 335.379 386.867 321.734C389.32 308.099 388.376 293.767 386.062 279.347C384.391 268.935 381.999 258.45 379.648 248.139C378.745 244.178 377.847 240.243 376.999 236.347C370.868 208.199 367.312 182.164 382.008 162.654C396.708 143.139 429.818 129.969 497.616 128.054C599.634 125.173 669.557 150.361 728.782 171.695C748.226 178.699 766.517 185.288 784.412 190.332C820.61 200.535 855.17 204.398 894.286 192.49C933.387 180.588 976.985 152.944 1031.31 100.25C1085.54 47.6439 1130.82 31.9966 1171.25 36.7807C1211.72 41.5695 1247.44 66.8391 1282.54 96.3896C1291.02 103.527 1299.46 110.915 1307.93 118.32L1307.93 118.321L1307.93 118.326L1307.93 118.327C1334.46 141.543 1361.18 164.929 1389.82 181.301C1427.64 202.921 1468.87 212.357 1517.53 193.135L1517.16 192.205C1468.85 211.288 1427.94 201.944 1390.32 180.433C1361.77 164.115 1335.16 140.824 1308.65 117.624C1300.17 110.205 1291.71 102.794 1283.19 95.6246C1248.08 66.0706 1212.15 40.6146 1171.37 35.7876C1130.54 30.9559 1084.97 46.8026 1030.61 99.5318C976.345 152.172 932.881 179.696 893.995 191.534C855.125 203.366 820.773 199.542 784.683 189.37C766.874 184.35 748.637 177.78 729.229 170.788C669.98 149.444 599.815 124.167 497.588 127.055C429.773 128.97 396.214 142.133 381.209 162.053C366.2 181.977 369.905 208.476 376.022 236.56C376.874 240.474 377.774 244.42 378.678 248.386L378.679 248.389L378.679 248.391L378.68 248.392C381.029 258.691 383.409 269.127 385.074 279.505C387.38 293.874 388.307 308.08 385.883 321.557C383.46 335.024 377.69 347.774 366.58 359.238C355.465 370.708 338.983 380.914 315.105 389.249C162.134 442.645 -4.29834 397.039 -68.3781 367.561L-68.7959 368.47ZM-88.999 334.422C-24.7898 363.96 141.925 409.659 295.231 356.145C319.209 347.776 335.841 337.5 347.095 325.886C358.355 314.267 364.209 301.331 366.664 287.687C369.117 274.052 368.173 259.719 365.859 245.299C364.187 234.887 361.796 224.402 359.445 214.092C358.542 210.131 357.644 206.195 356.796 202.299C350.664 174.151 347.108 148.116 361.804 128.607C376.505 109.092 409.615 95.9214 477.413 94.0065C579.431 91.125 649.354 116.313 708.579 137.647C728.023 144.652 746.313 151.24 764.209 156.284C800.407 166.487 834.967 170.35 874.083 158.443C913.184 146.54 956.782 118.896 1011.11 66.2019C1065.34 13.5963 1110.62 -2.05099 1151.05 2.73303C1191.51 7.52188 1227.24 32.7914 1262.34 62.3419C1270.82 69.4777 1279.26 76.864 1287.72 84.2675L1287.73 84.2768L1287.73 84.2789C1314.26 107.495 1340.98 130.881 1369.62 147.253C1407.44 168.873 1448.66 178.309 1497.33 159.088L1496.96 158.158C1448.65 177.24 1407.74 167.896 1370.11 146.385C1341.57 130.068 1314.96 106.777 1288.45 83.5765C1279.97 76.157 1271.5 68.7468 1262.99 61.577C1227.88 32.023 1191.95 6.56693 1151.16 1.73996C1110.34 -3.09177 1064.77 12.755 1010.41 65.4841C956.142 118.124 912.678 145.649 873.792 157.486C834.922 169.319 800.57 165.494 764.48 155.322C746.672 150.302 728.435 143.733 709.028 136.741L709.026 136.741C649.777 115.396 579.611 90.1195 477.385 93.0069C409.569 94.9223 376.01 108.086 361.006 128.005C345.997 147.929 349.701 174.429 355.818 202.512C356.671 206.428 357.571 210.375 358.476 214.342L358.476 214.343L358.477 214.344C360.825 224.643 363.205 235.08 364.871 245.458C367.177 259.827 368.104 274.033 365.68 287.509C363.257 300.976 357.487 313.726 346.377 325.19C335.262 336.661 318.78 346.866 294.902 355.201C141.931 408.597 -24.5015 362.992 -88.5812 333.514L-88.999 334.422Z" fill="url(#paint0_linear_3980_518433)"/>
<defs>
<linearGradient id="paint0_linear_3980_518433" x1="1368.54" y1="123.265" x2="-74.906" y2="123.265" gradientUnits="userSpaceOnUse">
<stop offset="0.310417" stop-color="#4535AF" stop-opacity="0.39"/>
<stop offset="0.461458" stop-color="#F8EFF4" stop-opacity="0.1"/>
<stop offset="0.851637" stop-color="#4535AF" stop-opacity="0.24"/>
</linearGradient>
</defs>
</svg>
