<svg width="44" height="44" viewBox="0 0 44 44" fill="none" xmlns="http://www.w3.org/2000/svg">
<path fill-rule="evenodd" clip-rule="evenodd" d="M0.279297 22.1326C0.279297 19.015 0.948501 16.056 2.14044 13.3832L12.3963 41.4819C5.22445 37.9974 0.279297 30.6429 0.279297 22.1326ZM36.2932 21.0482C36.2932 22.8878 35.585 25.0232 34.6578 27.9983L32.5118 35.1633L24.742 12.0529C26.036 11.9843 27.2024 11.8473 27.2024 11.8473C28.3608 11.7116 28.2251 10.0075 27.0654 10.0761C27.0654 10.0761 23.5836 10.3489 21.3354 10.3489C19.223 10.3489 15.6727 10.0761 15.6727 10.0761C14.513 10.0075 14.3773 11.7788 15.5356 11.8473C15.5356 11.8473 16.6335 11.9843 17.7919 12.0529L21.1406 21.2296L16.4346 35.3407L8.6057 12.0529C9.90111 11.9843 11.0662 11.8473 11.0662 11.8473C12.2245 11.7116 12.0875 10.0075 10.9291 10.0761C10.9291 10.0761 7.44735 10.3489 5.19919 10.3489C4.79605 10.3489 4.32035 10.3396 3.81509 10.3234C7.65968 4.48734 14.2671 0.633301 21.7789 0.633301C27.3758 0.633301 32.4728 2.77259 36.2972 6.2772C36.2045 6.27183 36.1145 6.25971 36.0191 6.25971C33.9066 6.25971 32.4083 8.09936 32.4083 10.0761C32.4083 11.8472 33.4309 13.3469 34.5207 15.1194C35.3378 16.5505 36.2932 18.3902 36.2932 21.0482ZM40.6455 11.8181C42.3239 14.8806 43.2793 18.3947 43.2793 22.1331C43.2793 30.0641 38.9805 36.99 32.5881 40.7164L39.1552 21.7299C40.3821 18.662 40.7906 16.2096 40.7906 14.0286C40.7906 13.2371 40.7382 12.5034 40.6455 11.8181ZM22.1565 24.0134L28.7653 42.1196C28.8083 42.2258 28.862 42.3226 28.9185 42.4153C26.6837 43.2014 24.2824 43.6341 21.7789 43.6341C19.6691 43.6341 17.632 43.325 15.705 42.7579L22.1565 24.0134Z" fill="#E71D7C"/>
</svg>
