<svg width="26" height="26" viewBox="0 0 26 26" fill="none" xmlns="http://www.w3.org/2000/svg">
<path d="M12.7888 3.13672C7.19639 3.13672 2.69141 7.6417 2.69141 13.2341C2.69141 18.8265 7.19639 23.3315 12.7888 23.3315C18.3812 23.3315 22.8862 18.8265 22.8862 13.2341C22.8862 7.6417 18.3812 3.13672 12.7888 3.13672ZM12.7888 22.5548C7.62359 22.5548 3.46813 18.3993 3.46813 13.2341C3.46813 8.0689 7.62359 3.91344 12.7888 3.91344C17.954 3.91344 22.1094 8.0689 22.1094 13.2341C22.1094 18.3993 17.954 22.5548 12.7888 22.5548ZM12.7888 3.13672C9.99259 3.13672 7.74009 7.6417 7.74009 13.2341C7.74009 18.8265 9.99259 23.3315 12.7888 23.3315C15.585 23.3315 17.8375 18.8265 17.8375 13.2341C17.8375 7.6417 15.585 3.13672 12.7888 3.13672ZM12.7888 22.5548C10.4198 22.5548 8.51682 18.3993 8.51682 13.2341C8.51682 8.0689 10.4198 3.91344 12.7888 3.91344C15.1578 3.91344 17.0608 8.0689 17.0608 13.2341C17.0608 18.3993 15.1578 22.5548 12.7888 22.5548ZM3.07977 12.8457H22.4978V13.6225H3.07977V12.8457Z" fill="#343A40"/>
<path d="M12.7888 3.13672C7.19639 3.13672 2.69141 7.6417 2.69141 13.2341C2.69141 18.8265 7.19639 23.3315 12.7888 23.3315M12.7888 3.13672C18.3812 3.13672 22.8862 7.6417 22.8862 13.2341C22.8862 18.8265 18.3812 23.3315 12.7888 23.3315M12.7888 3.13672C9.99259 3.13672 7.74009 7.6417 7.74009 13.2341C7.74009 18.8265 9.99259 23.3315 12.7888 23.3315M12.7888 3.13672C15.585 3.13672 17.8375 7.6417 17.8375 13.2341C17.8375 18.8265 15.585 23.3315 12.7888 23.3315M12.7888 22.5548C7.62359 22.5548 3.46813 18.3993 3.46813 13.2341C3.46813 8.0689 7.62359 3.91344 12.7888 3.91344M12.7888 22.5548C17.954 22.5548 22.1094 18.3993 22.1094 13.2341C22.1094 8.0689 17.954 3.91344 12.7888 3.91344M12.7888 22.5548C10.4198 22.5548 8.51682 18.3993 8.51682 13.2341C8.51682 8.0689 10.4198 3.91344 12.7888 3.91344M12.7888 22.5548C15.1578 22.5548 17.0608 18.3993 17.0608 13.2341C17.0608 8.0689 15.1578 3.91344 12.7888 3.91344M3.07977 12.8457H22.4978V13.6225H3.07977V12.8457Z" stroke="#343A40" stroke-width="0.577331"/>
</svg>
