<?xml version="1.0" encoding="utf-8"?>
<!-- Generator: Adobe Illustrator 25.2.0, SVG Export Plug-In . SVG Version: 6.00 Build 0)  -->
<svg version="1.1" id="Layer_1" xmlns="http://www.w3.org/2000/svg" xmlns:xlink="http://www.w3.org/1999/xlink" x="0px" y="0px"
	 width="20" height="20" viewBox="0 0 20 20" style="enable-background:new 0 0 20 20;" xml:space="preserve">
<style type="text/css">
	.st0{fill-rule:evenodd;clip-rule:evenodd;fill:#EF4136;}
	.st1{fill-rule:evenodd;clip-rule:evenodd;fill:#198754;}
</style>
<path class="st1" d="M10,0c5.52,0,10,4.48,10,10s-4.48,10-10,10S0,15.52,0,10S4.48,0,10,0L10,0L10,0z M5.57,10.26
	C5.71,9.49,6.6,9.06,7.3,9.47c0.06,0.04,0.12,0.08,0.18,0.13l0,0c0.32,0.3,0.67,0.62,1.02,0.92l0.3,0.27l3.56-3.73
	c0.21-0.22,0.37-0.36,0.68-0.43c1.09-0.24,1.86,1.09,1.08,1.91L9.7,13.2c-0.42,0.45-1.16,0.49-1.61,0.06
	c-0.26-0.24-0.54-0.48-0.82-0.73c-0.49-0.43-0.99-0.86-1.39-1.29C5.62,11,5.52,10.6,5.57,10.26L5.57,10.26L5.57,10.26z"/>
</svg>
