<?xml version="1.0" encoding="utf-8"?>
<!-- Generator: Adobe Illustrator 25.2.0, SVG Export Plug-In . SVG Version: 6.00 Build 0)  -->
<svg version="1.1" id="Layer_1" xmlns="http://www.w3.org/2000/svg" xmlns:xlink="http://www.w3.org/1999/xlink" x="0px" y="0px"
	 width="20" height="20" viewBox="0 0 20 20" style="enable-background:new 0 0 20 20;" xml:space="preserve">
<style type="text/css">
	.st0{fill-rule:evenodd;clip-rule:evenodd;fill:#EF4136;}
	.st1{fill-rule:evenodd;clip-rule:evenodd;fill:#BE1E2D;}
</style>
<path class="st0" d="M10,0c5.52,0,10,4.48,10,10s-4.48,10-10,10S0,15.52,0,10S4.48,0,10,0L10,0L10,0z M11.96,6.37
	c0.45-0.45,1.17-0.46,1.62,0c0.45,0.45,0.45,1.19,0,1.64L11.62,10l1.96,2c0.44,0.45,0.44,1.18-0.01,1.63s-1.18,0.45-1.62,0L10,11.64
	l-1.96,1.98c-0.45,0.45-1.17,0.46-1.62,0c-0.45-0.45-0.45-1.19,0-1.64L8.38,10L6.41,8C5.97,7.55,5.97,6.82,6.42,6.37
	c0.45-0.45,1.18-0.45,1.62,0L10,8.36L11.96,6.37L11.96,6.37L11.96,6.37z"/>
</svg>
