<svg width="52" height="38" viewBox="0 0 52 38" fill="none" xmlns="http://www.w3.org/2000/svg">
<path d="M26.1521 12.3557L47.8607 3.38367C48.4567 4.85809 48.7704 6.36389 48.7704 7.83832C48.8018 13.5164 44.6922 18.724 38.669 19.6024L36.2535 19.9474H36.2221M16.1134 19.9788C15.5487 21.2964 15.2664 22.7395 15.2664 24.2452C15.2978 28.7626 18.0584 32.6526 22.0111 34.2839C27.6265 36.6053 34.1202 33.9075 36.3476 28.198C38.5435 22.614 35.7515 16.3084 30.1989 14.0184L4.47483 3.35229C1.52598 10.4735 6.04337 18.473 13.6665 19.6024L22.7326 20.9513" stroke="url(#paint0_linear_3460_53863)" stroke-width="5.74739" stroke-miterlimit="10" stroke-linecap="round" stroke-linejoin="round"/>
<defs>
<linearGradient id="paint0_linear_3460_53863" x1="4" y1="3" x2="49" y2="46.5" gradientUnits="userSpaceOnUse">
<stop stop-color="#E71D7C"/>
<stop offset="1" stop-color="#88337E"/>
</linearGradient>
</defs>
</svg>
